<svg xmlns="http://www.w3.org/2000/svg" viewBox="0 0 916.95 388.77"><title>Alumer</title><g id="a94e8166-8b91-4729-8df2-ba3bcae2b5e4" data-name="Layer 2"><g id="a1cea9c4-47f1-4ff9-90eb-6175e050850d" data-name="withSlogan"><path d="M631.6,338.43c-20.8,7.44-41.82,14.15-63.18,19.76-.15,0-.27.19-.4.28-5.43,1.4-10.87,2.7-16.29,4.13s-11,2.44-16.45,3.78c-7.27,1.78-14.62,3.24-21.95,4.73-5.68,1.15-11.4,2.12-17.11,3.15-4.75.85-9.5,1.71-14.27,2.49-4.62.76-9.26,1.42-13.89,2.12-3.14.47-6.29.92-9.43,1.38-.54.26-1.17-.08-1.69.26a13.21,13.21,0,0,0-3.25.4c-.56.24-1.2-.05-1.76.24l-.88.09c-.55.25-1.18-.06-1.73.24l-.9.09c-.57.24-1.2,0-1.76.24l-.88.08c-.64.29-1.37-.1-2,.27l-.95.07c-.56.24-1.19-.06-1.74.24l-.9.08c-.66.28-1.4-.08-2.05.25l-.91.08c-.66.28-1.39-.09-2,.26l-.93.07c-.67.27-1.42-.06-2.09.24l-1.2.1c-.66.27-1.4-.09-2,.24l-.92.08c-.76.3-1.61-.1-2.37.25l-1.25.09c-.67.26-1.41-.08-2.07.23l-1.23.09c-.76.29-1.6-.1-2.36.25l-1.26.08c-.78.28-1.62-.09-2.39.25l-1.23.08c-.81.27-1.67-.07-2.47.24l-1.49.09c-1,.3-2.05-.12-3,.25l-1.58.08c-.89.29-1.84-.11-2.72.25l-1.56.08c-.92.28-1.89-.08-2.8.24l-2.14.09c-.92.28-1.89-.08-2.8.24l-1.82.09c-1.13.3-2.32-.11-3.45.24l-2.15.09c-1.24.3-2.52-.12-3.76.24l-2.83.09c-1.23.3-2.51-.12-3.74.24l-3.17.09c-1.47.31-3-.12-4.45.24l-3.79.09c-2,.31-4.07-.13-6.09.24l-4.78.08c-2.81.25-5.63,0-8.44.11a5.75,5.75,0,0,0-1.94.14,62.4,62.4,0,0,0-6.7,0c-6.95-.07-13.9-.1-20.85-.14-.49,0-1,.06-1.46.09-2.57-.3-5.15,0-7.72-.13a7.65,7.65,0,0,1-2-.1l-4.78-.09c-2-.37-4.07.07-6.09-.24l-3.17-.09c-1.56-.37-3.17.07-4.74-.24l-2.83-.09c-1.46-.35-3,.06-4.41-.24l-2.18-.09c-1.24-.36-2.52.06-3.75-.24l-1.88-.09c-1.11-.36-2.28.06-3.39-.24l-1.89-.09c-1.11-.36-2.27.07-3.39-.24l-1.55-.09c-1-.35-2.06.06-3.06-.24l-1.52-.09c-.9-.33-1.86,0-2.76-.24l-1.52-.09c-.79-.32-1.64,0-2.43-.24l-1.56-.09c-.77-.33-1.62,0-2.4-.24l-1.51-.09c-.79-.31-1.65,0-2.44-.24l-1.22-.09c-.77-.32-1.62,0-2.41-.24l-1.15-.09c-.69-.29-1.45,0-2.14-.24l-1.21-.09c-.67-.3-1.41,0-2.08-.24l-1.22-.09c-.66-.3-1.4,0-2.08-.24l-.94-.07c-.64-.35-1.37,0-2-.25l-1.21-.1c-.56-.27-1.19,0-1.76-.23l-1.2-.1c-.56-.27-1.2,0-1.76-.23l-1.18-.1c-.57-.26-1.21,0-1.79-.23l-.92-.09c-.54-.31-1.17,0-1.71-.24l-1-.07c-.63-.37-1.37,0-2-.27l-.87-.09c-.56-.27-1.2,0-1.77-.24l-3.25-.39c-.52-.34-1.15,0-1.69-.26l-.91-.08c-.54-.31-1.18,0-1.72-.25l-.63-.07c-.52-.35-1.15,0-1.68-.26-4.31-.57-8.62-1.13-12.92-1.72a6.82,6.82,0,0,1-1.21-.39c0-.62.48-.33.76-.41a7,7,0,0,1,1.82.1l2.52.09c1,.35,2.07-.06,3.09.25l2.52.08c1.12.35,2.29-.06,3.41.24l3.14.09c1.24.36,2.53-.07,3.78.24l3.49.09c1.45.36,3-.07,4.41.24l4.79.09c1.91.37,3.85-.08,5.76.24a70.62,70.62,0,0,0,7.42.08c2.87.32,5.75.06,8.63.15,2.34.06,4.67-.14,7,.1h4.95c4.68-.24,9.36,0,14-.11a5.08,5.08,0,0,0,1.94-.14,70.62,70.62,0,0,0,7.42-.08c1.91-.32,3.85.13,5.76-.24l4.79-.09c1.46-.31,2.95.12,4.41-.24l3.49-.09c1.24-.31,2.53.12,3.77-.24l3.15-.09c1.12-.3,2.29.11,3.41-.24l2.52-.08c1-.31,2.08.1,3.09-.25l2.51-.09c.9-.28,1.85.1,2.75-.24l2.19-.09c.81-.27,1.67.08,2.46-.24l2.16-.09c.79-.27,1.64.08,2.42-.24l1.86-.08c.78-.29,1.63.08,2.42-.25l1.86-.09c.68-.25,1.43.06,2.1-.23l1.52-.08c.78-.31,1.63.08,2.41-.26l1.55-.08c.67-.27,1.41.07,2.08-.25l1.54-.09c.58-.22,1.23,0,1.8-.23l1.5-.08c.66-.29,1.41.07,2.07-.26l1.22-.07c.66-.29,1.41.07,2.06-.26l1.24-.08c.56-.25,1.2,0,1.76-.24l1.2-.08c.57-.26,1.21,0,1.78-.25l1.19-.08c.56-.26,1.21,0,1.78-.25l1.18-.08c.56-.26,1.21,0,1.77-.25l1.2-.09c.55-.26,1.18.06,1.72-.25l.91-.06c.56-.28,1.2,0,1.76-.26a70.13,70.13,0,0,0,8.78-1.06c.54-.29,1.18.06,1.71-.27a28.68,28.68,0,0,0,5.54-.71c.54-.31,1.18.06,1.71-.28,4.2-.23,8.33-1.07,12.48-1.71,9.32-1.46,18.63-3,27.91-4.77,10-1.89,19.93-3.87,29.84-6.08a828.87,828.87,0,0,0,91.89-25.92q25.82-9,50.88-19.8,16-7,31.67-14.82,11.9-6,23.57-12.42,21.87-12,42.49-26.06,12.12-8.22,23.73-17.15,12.27-9.39,23.83-19.62c9.07-8.07,17.84-16.47,26.11-25.4,7.91-8.54,15.53-17.34,22.56-26.64,2.16-2.84,4.15-5.81,6.43-8.56a2.06,2.06,0,0,0,.14-2.76,314.75,314.75,0,0,0-20.63-28.47,369.39,369.39,0,0,0-30.88-33.74c-3.76-3.65-7.71-7.11-11.57-10.66-.2-.19-.37-.4-.68-.75,3.84-1.32,7.55-2.7,11.31-3.88C752.9,78.44,760.46,76,768.12,74c7.21-1.93,14.54-3.42,21.83-5.07,2.54-.57,5.09-1,7.64-1.56a2.79,2.79,0,0,1,2.69.69c5.29,4.77,10.47,9.67,15.48,14.73,7.55,7.62,14.92,15.42,21.89,23.59a410.48,410.48,0,0,1,31,41.35c3,4.57,5.79,9.29,8.72,13.91a1.88,1.88,0,0,1,0,2.44q-8.7,12.92-18.52,25a336.47,336.47,0,0,1-29.11,31.63q-9.24,8.82-19,17.15-13.77,11.74-28.4,22.4c-13.41,9.78-27.3,18.82-41.59,27.26-7.93,4.68-16,9.14-24.11,13.46-7.83,4.16-15.85,7.92-23.71,12-.16.09-.44-.11-.57.35h1.9q110.36,0,220.71,0c1.58,0,2,.34,2,1.94-.14,3.78-.09,7.58,0,11.36,0,1.06-.31,1.38-1.29,1.24a9,9,0,0,0-1.16,0q-124.68,0-249.37,0a27.06,27.06,0,0,0-10.89,1.91C646.78,332.83,639.15,335.54,631.6,338.43Z" style="fill:#083475"/><path d="M50.78,62.22c1.31,0,2.63.05,3.94.05h60.81c.6,0,1.2,0,1.8-.05s1.31.05,2,.05q60.68,0,121.35.07a25.91,25.91,0,0,0,10.45-2.17c8.94-3.79,18-7.13,27.18-10.44,8.43-3.06,16.93-5.91,25.46-8.64q18-5.76,36.21-10.61c9.1-2.42,18.23-4.66,27.38-6.84,11.6-2.76,23.27-5.12,35-7.41,8.54-1.67,17.16-3,25.75-4.35,7.23-1.17,14.47-2.24,21.71-3.36.54-.26,1.17.08,1.69-.26a9.9,9.9,0,0,0,3.25-.4c.56-.25,1.2,0,1.76-.24l.88-.09c.55-.25,1.18.06,1.73-.24l.9-.09c.57-.24,1.2,0,1.76-.24l.88-.09c.64-.28,1.37.11,2-.26l.95-.07c.56-.24,1.19.06,1.74-.24l.9-.09c.66-.27,1.4.09,2.05-.24l.91-.09c.66-.27,1.39.1,2-.25l.93-.08c.68-.26,1.42.07,2.09-.23l1.2-.1c.66-.27,1.4.09,2.05-.24l.92-.08c.77-.3,1.61.1,2.37-.26L484,4.56c.67-.26,1.41.08,2.08-.24l1.22-.08c.76-.29,1.6.1,2.36-.26l1.26-.07c.78-.29,1.62.09,2.39-.25l1.23-.08c.81-.27,1.67.07,2.47-.24l1.49-.09c1-.3,2.05.12,3-.25l1.57-.08c.89-.3,1.84.11,2.72-.25l1.56-.08c.92-.28,1.89.08,2.81-.24l2.14-.09c.91-.28,1.88.08,2.8-.24L517,1.93c1.14-.3,2.32.11,3.46-.24l2.47-.09c1.13-.3,2.31.11,3.44-.24l2.82-.09c1.23-.3,2.51.12,3.74-.24l3.18-.09c1.46-.31,3,.13,4.44-.24L544,.61c2.13-.32,4.29.14,6.42-.24l4.45-.09c2.93-.23,5.85,0,8.78-.1A5.71,5.71,0,0,0,565.55,0a62.58,62.58,0,0,0,6.71,0c6.94.07,13.89.1,20.84.14a14.32,14.32,0,0,0,1.46-.1c2.58.31,5.17,0,7.76.14a7,7,0,0,1,1.93.1L609,.37c2,.37,4.07-.07,6.09.24l3.16.09c1.57.37,3.18-.07,4.75.24l2.83.09c1.35.36,2.74-.07,4.08.24l2.51.09c1.23.36,2.52-.06,3.75.24l1.89.09c1.11.36,2.27-.06,3.39.24l1.88.09c1.11.36,2.27-.07,3.39.24l1.56.08c1,.36,2.05,0,3.05.25l1.52.09c.9.33,1.86,0,2.76.24l1.52.09c.79.31,1.64,0,2.43.24l1.56.08c.78.34,1.62,0,2.4.25l1.51.09c.79.31,1.65,0,2.44.24l1.22.09c.78.32,1.62,0,2.41.24l1.15.09c.69.29,1.45,0,2.14.24l1.21.09c.67.3,1.41,0,2.08.23l1.22.1c.67.3,1.41,0,2.08.23l.94.08c.64.35,1.37,0,2,.25l1.21.1c.56.27,1.2,0,1.76.23l1.2.1c.56.27,1.2,0,1.76.23l1.18.1c.57.26,1.21,0,1.79.23l.92.08c.54.32,1.17,0,1.71.25l1,.07c.63.37,1.37,0,2,.26l.87.09c.56.28,1.2,0,1.77.24a8,8,0,0,0,3.25.4c.52.34,1.15,0,1.69.26l.91.08c.54.31,1.18,0,1.72.25l.63.07c.52.35,1.15,0,1.68.26l11.11,1.7c1,.15,2,.27,3,.41,0,.62-.47.33-.75.41a7,7,0,0,1-1.83-.1L720,11.18c-1-.35-2.08.05-3.1-.25l-2.52-.08c-1.11-.36-2.29.06-3.41-.24l-3.14-.09c-1.24-.36-2.53.07-3.78-.24l-3.48-.09c-1.46-.36-3,.07-4.42-.24l-4.79-.08c-1.9-.39-3.85.07-5.75-.25a68.06,68.06,0,0,0-7.42-.08c-2.66-.32-5.33-.07-8-.14s-5.33.12-8-.11h-4.62c-4.68.24-9.36,0-14,.11a5.08,5.08,0,0,0-1.94.14,73.44,73.44,0,0,0-7.42.08c-1.91.32-3.85-.14-5.76.24l-4.78.09c-1.47.31-3-.12-4.42.24l-3.49.08c-1.25.32-2.54-.11-3.78.25l-3.14.09c-1.12.3-2.29-.11-3.41.24l-2.52.08c-1,.3-2.08-.1-3.09.25l-2.51.09c-.9.28-1.85-.1-2.75.24l-2.19.09c-.81.26-1.67-.08-2.47.24l-2.15.08c-.79.28-1.64-.07-2.43.24l-1.85.09c-.78.29-1.64-.08-2.42.24l-1.86.1c-.68.25-1.43-.06-2.1.23l-1.52.08c-.78.31-1.63-.08-2.41.26l-1.55.08c-.67.27-1.41-.07-2.07.24l-1.55.09c-.58.23-1.23,0-1.81.24l-1.49.08c-.66.29-1.4-.07-2.07.26l-1.22.07c-.66.29-1.4-.07-2.06.26l-1.23.08c-.57.25-1.21,0-1.77.24l-1.2.08c-.57.26-1.22,0-1.78.25l-1.18.08c-.57.26-1.22,0-1.79.25l-1.18.08c-.56.26-1.21,0-1.77.25l-1.2.09c-.54.26-1.18-.06-1.72.25l-.91.06c-.56.28-1.2,0-1.76.26a70.13,70.13,0,0,0-8.78,1.06c-.54.29-1.18-.06-1.71.27a35.58,35.58,0,0,0-5.54.71c-.53.31-1.18-.06-1.71.28-3.46.17-6.84.91-10.26,1.4-5.16.74-10.3,1.61-15.43,2.51q-10.43,1.8-20.82,3.74-8.14,1.53-16.25,3.25c-4.31.91-8.6,1.92-12.89,2.9-5.29,1.22-10.62,2.29-15.86,3.72-7.2,2-14.46,3.7-21.64,5.75-7.37,2.11-14.77,4.09-22.08,6.39-9.24,2.91-18.5,5.79-27.65,9-13.94,4.89-27.78,10.09-41.41,15.82-14.47,6.1-28.79,12.54-42.78,19.66-3.87,2-7.7,4-11.54,6q-7.9,4.14-15.67,8.52c-10.53,6-20.87,12.24-30.94,19-6.66,4.44-13.24,9-19.68,13.77-6.76,5-13.46,10.05-20,15.37-7,5.73-13.78,11.71-20.46,17.82-8.63,7.87-16.74,16.22-24.56,24.87a327.68,327.68,0,0,0-24,29.89,1.62,1.62,0,0,0,0,2.16,345.4,345.4,0,0,0,22.47,30.77q8.94,10.83,18.62,21c6.83,7.2,14,14,21.39,20.67.44.39.9.77,1.58,1.36-3.13,1.05-5.95,2-8.78,2.94-4.55,1.51-9.09,3.09-13.68,4.48-4.13,1.25-8.31,2.31-12.49,3.39S131.15,317,127.05,318c-5.63,1.32-11.28,2.56-17,3.55a2.27,2.27,0,0,1-2.1-.61c-5.11-4.9-10.5-9.51-15.3-14.75-1.74-1.9-3.73-3.56-5.51-5.42-3.66-3.81-7.4-7.56-10.85-11.57-4-4.68-8.07-9.36-12-14.17-4.62-5.69-9.06-11.5-13.41-17.39-7.22-9.79-13.81-20-20.12-30.4a2.05,2.05,0,0,1,.08-2.6c5.16-7.82,10.72-15.36,16.56-22.68,3-3.74,6-7.44,9.27-11s6.57-7.23,9.84-10.85c3.83-4.24,7.9-8.22,12-12.21,3.81-3.77,7.83-7.33,11.83-10.9s7.8-6.89,11.84-10.16c4.94-4,9.92-8,15-11.82,6-4.59,12.19-9,18.4-13.34q9.88-6.91,20.15-13.28l.93-.58c.09-.77.73-1.06,1.28-1.4,9.1-5.64,18.39-11,27.78-16.09,7.76-4.25,15.69-8.15,23.59-12.11a13.38,13.38,0,0,1,2.22-1,5.45,5.45,0,0,1-1.7.08H128.14a5.16,5.16,0,0,1-2.57-.42c-.66,0-1.32-.06-2-.06q-60.85,0-121.72,0C.42,76.81,0,76.5,0,75c.13-3.72.1-7.46,0-11.19,0-1.24.3-1.53,1.53-1.53q23.72.07,47.43,0C49.57,62.27,50.18,62.24,50.78,62.22Z" style="fill:#fe0000"/><path d="M451.58,125.75c4.67,0,9.33,0,14,0,1,0,1.53.14,1.87,1.38,5,18.52,10.18,37,15.27,55.51,2.07,7.54,4,15.1,6.06,22.66.11.42.14.85.54,1.1q2.12-7.55,4.23-15.08,1.92-6.87,3.88-13.74,2.34-8.31,4.69-16.61c1.51-5.35,3-10.69,4.53-16,1.67-6,3.29-12,5-18a1.54,1.54,0,0,1,1.76-1.21c4.23.08,8.46,0,12.68,0a4.09,4.09,0,0,1,.12,1.63q0,45.93,0,91.86c0,1.88,0,1.91-1.83,1.88-2.74-.05-5.48.16-8.21-.12V142.72c-1.22,1.95-1.62,4.17-2.24,6.29-2.92,10-5.73,19.94-8.57,29.92q-5.31,18.69-10.6,37.4L493.41,221a49.74,49.74,0,0,1-9.53-.12c-1.64-5.79-3.32-11.56-4.92-17.35-1.38-5-2.63-10-4-15-1.56-5.6-3.23-11.17-4.79-16.77-1.61-5.78-3.13-11.59-4.73-17.37-1-3.61-2.05-7.2-3.07-10.81-.13-.45-.23-.92-.34-1.38-.84.39-.38,1.14-.38,1.69q0,24.44,0,48.89c0,8.88,0,17.77,0,26.66,0,1.29-.33,1.72-1.65,1.67-2.3-.11-4.61-.12-6.91,0-1.42.07-1.87-.47-1.67-1.78a4.85,4.85,0,0,0,0-.66q0-45.51,0-91A3.76,3.76,0,0,1,451.58,125.75Z" style="fill:#fe0000"/><path d="M688.93,219.36c-3.88-7.4-7.72-14.83-11.67-22.19s-7.84-14.61-15.44-19.32c2.57-.88,5-1.39,7.27-2.34a33.24,33.24,0,0,0,6.51-4,13.48,13.48,0,0,0,5.59-7.59,34.38,34.38,0,0,0,1.63-18.75c-1.34-6.61-4.22-12.32-10.06-16.14-3-2-6.55-2.44-10-3a7,7,0,0,0-1.65-.11,1.73,1.73,0,0,1-.43-.12c-2.63,0-5.25,0-7.88,0l-26.93-.06-4.93.06a3.77,3.77,0,0,0-.17,1.94q0,41.4,0,82.8c0,3,0,5.93,0,8.89,0,1.44,0,1.68,1,1.73h7.53c1,0,1.51,0,1.75-.12l.05-.05,0,0s0,0,0,0h0l0-.07a2.67,2.67,0,0,0,.07-.8v-.79q0-19.26,0-38.52v0c0-.07,0-.14,0-.22a2.49,2.49,0,0,1,.17-1.52c4.61-.24,9.23-.13,13.85,0,.46.2,1,0,1.46.14a.88.88,0,0,1,.22.1c4.9.53,8,3.69,10.62,7.45,4.06,5.73,7.09,12.06,10.42,18.2,2.75,5.08,5.4,10.22,8.12,15.31.23.43.26,1.08,1.05,1.07,4.14,0,8.29,0,12.6,0C689.44,220.4,689.2,219.87,688.93,219.36Zm-31.86-51.79c-8.18.38-16.36.1-24.53.21-1,0-1.29-.35-1.28-1.33,0-4.77,0-9.55,0-14.33s0-9.55,0-14.33c0-1.14.29-1.48,1.46-1.47,8.13.05,16.26-.09,24.38.06,5.68.11,10.73,1.81,13.68,7.24,4.3,7.88,1.29,18.68-6.21,22.28A19,19,0,0,1,657.07,167.57Z" style="fill:#fe0000"/><path d="M545.76,125.74h56.35c.4,3.55.08,7.1.17,10.66,0,.74-.53.7-1,.7h-5.1c-5.26,0-10.53,0-15.79,0a4.51,4.51,0,0,0-1.79.14.48.48,0,0,0-.65,0,48.36,48.36,0,0,0-8.25,0,121.16,121.16,0,0,0-13.34,0,1.7,1.7,0,0,0-.16,1.11q0,13.22,0,26.42a1.65,1.65,0,0,0,.17,1.11h0a3.35,3.35,0,0,0,1.77.16c13.17,0,26.34,0,39.51,0,1.35,0,1.81.33,1.73,1.71-.19,3.22.19,6.46-.2,9.68-13.83,0-27.67,0-41.5,0-1.28,0-1.63.31-1.62,1.61q.09,14.58,0,29.15c0,1.36.44,1.58,1.66,1.58,14.88,0,29.75,0,44.63-.06,1.47,0,1.83.36,1.78,1.8-.11,3.12,0,6.25,0,9.38-.48.4-1.06.21-1.58.21-18.4,0-36.79,0-55.18,0-1.35,0-1.73-.35-1.73-1.72q.06-46.11,0-92.23A3.28,3.28,0,0,1,545.76,125.74Z" style="fill:#fe0000"/><path d="M381.05,188.38c.11,5.64.79,11.12,4.19,15.89A16,16,0,0,0,397,211c4.37.45,8.76.33,13-1.5a15.29,15.29,0,0,0,8.61-8.56A39.76,39.76,0,0,0,421,189.4c.36-.76,0-1.6.25-2.37,0-1.3.05-2.59.08-3.89a3.85,3.85,0,0,0,.14-1.78q0-26.93,0-53.83a4.71,4.71,0,0,1,.11-1.79h10.24A2,2,0,0,1,432,127v55.55a2.93,2.93,0,0,1-.1,1.14c0,1.41-.05,2.82-.08,4.22-.35.77,0,1.6-.23,2.37,0,.54-.06,1.09-.08,1.63-.36.52,0,1.13-.26,1.66-.86,5-1.55,9.93-3.89,14.48a25.54,25.54,0,0,1-18.5,13.86l-2.06.4c-.53.25-1.15-.1-1.66.26l-3,.07a4.32,4.32,0,0,1-2,0,34.3,34.3,0,0,1-12.34-2.06A23.52,23.52,0,0,1,374.09,207c-1.61-3.92-2.25-8-3.19-12.1-.18-.81.08-1.74-.13-2.6-.21-.54.1-1.15-.23-1.67,0-.76-.07-1.52-.1-2.28-.26-1.2.16-2.44-.24-3.63q0-15.39.05-30.78c0-8.88,0-17.77,0-26.66,0-1.21.26-1.6,1.52-1.55q3.7.17,7.41,0c1.25,0,1.63.26,1.62,1.58q-.07,22.63,0,45.26c0,4.06.05,8.11.08,12.17C381.09,185.93,380.66,187.19,381.05,188.38Z" style="fill:#fe0000"/><path d="M294.4,215.75a.44.44,0,0,1-.13-.32h0c0-.26.08-.56-.27-.69s-.21-.64-.26-1c-.26-.55.05-1.3-.59-1.71-.84-2.38-1.74-4.74-2.51-7.14-1.4-4.31-3-8.54-4.18-12.93a2.48,2.48,0,0,0-.84-2.33c-2.34-6.88-4.7-13.76-7-20.64q-7.07-21-14.07-42.06a1.46,1.46,0,0,0-1.7-1.23c-3,0-6,.07-9.06,0a1.14,1.14,0,0,0-1.35,1.08c-.54,2.91-1.73,5.6-2.56,8.42-1.92,6.56-4,13.06-6.15,19.56q-3.06,9.34-5.92,18.74c-1.93,6.33-4,12.64-6,19q-3.44,10.81-6.89,21.62c-.7,2.18-1.37,4.37-2.06,6.55a.47.47,0,0,0,.53.48H225c2.94,0,5.89.13,8.83-.11,2.68-9.24,5.38-18.48,8-27.73.25-.88.69-1,1.49-1q15.19,0,30.41,0c1,0,1.36.3,1.64,1.27.89,3.1,1.94,6.16,2.93,9.23.08.72,0,1.49.62,2,.2.56.42,1.11.6,1.68l4.38,14.31c.27.49.7.37,1.09.32h0l.21,0h.35l4.47,0h0q1.47,0,2.94,0h.49a5.1,5.1,0,0,0,2.54-.21A25.36,25.36,0,0,1,294.4,215.75Zm-24.63-33.83c-7.57,0-15.14,0-22.7,0-1.48,0-1.83-.17-1.34-1.74,3.37-10.74,7-21.42,10-32.29.88-3.21,1.46-6.51,2.19-9.77.09-.41.22-.81.43-1.53,1.17,4.21,2.17,8.12,3.34,12,3.17,10.47,6.42,20.91,9.64,31.36C271.88,181.91,271.9,181.92,269.77,181.92Z" style="fill:#fe0000"/><path d="M349.44,209.7l5.64.05c.27,2.19.05,4.38.12,6.57a14.63,14.63,0,0,0,.23,2.94c.32,1.35-.27,2.1-1.71,2.17a23.46,23.46,0,0,1-4.58-.16,39.56,39.56,0,0,0-5.34-.13c-11.91,0-23.82,0-35.73,0a4.69,4.69,0,0,1-1.79-.12l0-.7a1.41,1.41,0,0,1,0-1.64V199.21a12.12,12.12,0,0,1,0-7.25c0-4.05,0-8.11,0-12.17,0-17.39,0-34.79,0-52.18,0-1.65.46-2,2-1.9a59,59,0,0,0,6.91,0c1.44-.08,1.67.43,1.67,1.74q-.06,33.09,0,66.17c0,.66.05,1.31.07,2a3.39,3.39,0,0,1,.51,2.36c0,3.07,0,6.14,0,9.21,0,1.9.16,2.05,2.08,2.06,9.1,0,18.2,0,27.3,0A4,4,0,0,1,349.44,209.7Z" style="fill:#fe0000"/><path d="M234.3,252.28h-8.45l-1.62,3.91h-4.31L228,238h4.16l8.14,18.21h-4.42ZM233,249.09l-2.89-7-2.88,7Z" style="fill:#fe0000"/><path d="M248.49,238h4.21v18.21h-4.21Z" style="fill:#fe0000"/><path d="M256.47,238h8.27a11.55,11.55,0,0,1,5.24,1.14,8.41,8.41,0,0,1,3.54,3.18,9.72,9.72,0,0,1,0,9.57,8.41,8.41,0,0,1-3.54,3.18,11.55,11.55,0,0,1-5.24,1.14h-8.27Zm8.06,14.75a6.16,6.16,0,0,0,4.36-1.52,6.06,6.06,0,0,0,0-8.25,6.16,6.16,0,0,0-4.36-1.52h-3.84v11.29Z" style="fill:#fe0000"/><path d="M291.5,252.81v3.38H277.4V238h13.76v3.38h-9.57v4H290v3.27h-8.45v4.22Z" style="fill:#fe0000"/><path d="M294.3,238h4.21v18.21H294.3Z" style="fill:#fe0000"/><path d="M314.27,252.28h-8.45l-1.61,3.91h-4.32L308,238h4.17l8.13,18.21h-4.42ZM313,249.09l-2.89-7-2.89,7Z" style="fill:#fe0000"/><path d="M342.56,252.81v3.38H328.47V238h13.75v3.38h-9.57v4h8.45v3.27h-8.45v4.22Zm-6.06-20.05h4.37l-4.71,3.74H333Z" style="fill:#fe0000"/><path d="M356,241.42h-5.83V238H366v3.44h-5.82v14.77H356Z" style="fill:#fe0000"/><path d="M369.4,254.34a8.33,8.33,0,0,1-2.17-6.16V238h4.21v10c0,3.26,1.36,4.89,4.06,4.89a3.81,3.81,0,0,0,3-1.18,5.55,5.55,0,0,0,1-3.71V238h4.16v10.2a7.53,7.53,0,0,1-8.25,8.32A8.23,8.23,0,0,1,369.4,254.34Z" style="fill:#fe0000"/><path d="M398.92,252.28h-8.44l-1.62,3.91h-4.31L392.66,238h4.16L405,256.19h-4.42Zm-1.32-3.19-2.89-7-2.88,7Z" style="fill:#fe0000"/><path d="M425.11,252.28h-8.45l-1.61,3.91h-4.32L418.84,238H423l8.14,18.21h-4.42Zm-1.33-3.19-2.89-7-2.88,7Z" style="fill:#083475"/><path d="M441.11,255.91a9.77,9.77,0,0,1-3.24-1.52l1.43-3.17a9.83,9.83,0,0,0,2.79,1.38,10.58,10.58,0,0,0,3.22.52,5.1,5.1,0,0,0,2.65-.54,1.6,1.6,0,0,0,.86-1.41,1.34,1.34,0,0,0-.51-1.08,3.73,3.73,0,0,0-1.3-.69c-.53-.17-1.24-.37-2.14-.57a29.27,29.27,0,0,1-3.41-1,5.52,5.52,0,0,1-2.27-1.59,4.25,4.25,0,0,1-.95-2.91,5.06,5.06,0,0,1,.85-2.87,5.81,5.81,0,0,1,2.59-2,10.42,10.42,0,0,1,4.23-.76,13.83,13.83,0,0,1,3.4.42,10.38,10.38,0,0,1,2.91,1.19l-1.3,3.2a10.17,10.17,0,0,0-5-1.43,4.63,4.63,0,0,0-2.61.58,1.73,1.73,0,0,0-.85,1.5,1.47,1.47,0,0,0,1,1.39,14.45,14.45,0,0,0,3,.9,29.62,29.62,0,0,1,3.4,1,5.75,5.75,0,0,1,2.28,1.56,4.19,4.19,0,0,1,.94,2.89,5,5,0,0,1-.87,2.84,5.81,5.81,0,0,1-2.61,2,10.51,10.51,0,0,1-4.24.76A14.85,14.85,0,0,1,441.11,255.91Z" style="fill:#083475"/><path d="M459.05,255.27a9,9,0,0,1-3.56-3.36,9.67,9.67,0,0,1,0-9.65,9,9,0,0,1,3.56-3.36,10.58,10.58,0,0,1,5.11-1.23,10.44,10.44,0,0,1,5.09,1.23,9.26,9.26,0,0,1,0,16.37,10.44,10.44,0,0,1-5.09,1.23A10.58,10.58,0,0,1,459.05,255.27Zm8-3.1a5.34,5.34,0,0,0,2-2.07,6.51,6.51,0,0,0,0-6,5.34,5.34,0,0,0-2-2.07,6.09,6.09,0,0,0-5.82,0,5.34,5.34,0,0,0-2,2.07,6.44,6.44,0,0,0,0,6,5.34,5.34,0,0,0,2,2.07,6.09,6.09,0,0,0,5.82,0Z" style="fill:#083475"/><path d="M476.74,238H481v14.77h9.13v3.44H476.74Z" style="fill:#083475"/><path d="M493.68,254.34a8.29,8.29,0,0,1-2.17-6.16V238h4.21v10q0,4.89,4.06,4.89a3.79,3.79,0,0,0,3-1.18,5.5,5.5,0,0,0,1-3.71V238H508v10.2a8.6,8.6,0,0,1-14.31,6.16Z" style="fill:#083475"/><path d="M515.29,255.29a9.09,9.09,0,0,1-3.54-3.36,9.74,9.74,0,0,1,0-9.69,9.09,9.09,0,0,1,3.54-3.36,11.22,11.22,0,0,1,9.33-.37,8.49,8.49,0,0,1,3.21,2.39l-2.7,2.49a5.82,5.82,0,0,0-4.58-2.13,6.08,6.08,0,0,0-3,.74,5.28,5.28,0,0,0-2.07,2.07,6.51,6.51,0,0,0,0,6,5.28,5.28,0,0,0,2.07,2.07,6.08,6.08,0,0,0,3,.74,5.79,5.79,0,0,0,4.58-2.16l2.7,2.5a8.6,8.6,0,0,1-3.22,2.42,10.76,10.76,0,0,1-4.29.83A10.51,10.51,0,0,1,515.29,255.29Zm2.3,6.78a3.55,3.55,0,0,1-1.09-.4l.62-1.74a3.94,3.94,0,0,0,1.69.39c.9,0,1.35-.28,1.35-.83s-.42-.76-1.27-.76H518l.68-2.75h2.16l-.37,1.5a2.74,2.74,0,0,1,1.71.72,2,2,0,0,1,.56,1.44,2.16,2.16,0,0,1-1,1.89,5,5,0,0,1-2.79.69A5.81,5.81,0,0,1,517.59,262.07Z" style="fill:#083475"/><path d="M541.74,252.28h-8.45l-1.61,3.91h-4.32L535.48,238h4.16l8.13,18.21h-4.42Zm-3.47-16a9.52,9.52,0,0,1-1.18-.74,6.61,6.61,0,0,0-.69-.47,1,1,0,0,0-.53-.16,1.15,1.15,0,0,0-.89.38,1.64,1.64,0,0,0-.36,1.08h-2.06a4.62,4.62,0,0,1,.87-2.77,2.66,2.66,0,0,1,2.18-1,2.47,2.47,0,0,1,1.2.28,8.56,8.56,0,0,1,1.21.76,6.61,6.61,0,0,0,.69.47,1,1,0,0,0,.54.16,1.17,1.17,0,0,0,.87-.38,1.52,1.52,0,0,0,.37-1h2.06a4.49,4.49,0,0,1-.87,2.71,2.67,2.67,0,0,1-2.17,1A2.73,2.73,0,0,1,538.27,236.31Zm2.15,12.78-2.89-7-2.89,7Z" style="fill:#083475"/><path d="M552.57,255.27a9,9,0,0,1-3.56-3.36,9.67,9.67,0,0,1,0-9.65,9,9,0,0,1,3.56-3.36,11.21,11.21,0,0,1,10.21,0,9.27,9.27,0,0,1,0,16.37,11.21,11.21,0,0,1-10.21,0Zm8-3.1a5.34,5.34,0,0,0,2-2.07,6.51,6.51,0,0,0,0-6,5.34,5.34,0,0,0-2-2.07,6.09,6.09,0,0,0-5.82,0,5.34,5.34,0,0,0-2,2.07,6.51,6.51,0,0,0,0,6,5.34,5.34,0,0,0,2,2.07,6.09,6.09,0,0,0,5.82,0Z" style="fill:#083475"/><path d="M591.17,252.81v3.38H577.08V238h13.75v3.38h-9.57v4h8.45v3.27h-8.45v4.22Zm-6.06-20.05h4.37l-4.71,3.74H581.6Z" style="fill:#083475"/><path d="M617.48,238v18.21H614L605,245.14v11.05h-4.16V238h3.48L613.32,249V238Z" style="fill:#083475"/><path d="M625,255.27a9.07,9.07,0,0,1-3.56-3.36,9.67,9.67,0,0,1,0-9.65A9.07,9.07,0,0,1,625,238.9a11.21,11.21,0,0,1,10.21,0,9.27,9.27,0,0,1,0,16.37,11.21,11.21,0,0,1-10.21,0Zm8-3.1a5.43,5.43,0,0,0,2-2.07,6.51,6.51,0,0,0,0-6,5.43,5.43,0,0,0-2-2.07,6.09,6.09,0,0,0-5.82,0,5.34,5.34,0,0,0-2,2.07,6.51,6.51,0,0,0,0,6,5.34,5.34,0,0,0,2,2.07,6.09,6.09,0,0,0,5.82,0Z" style="fill:#083475"/><path d="M644.45,255.91a9.62,9.62,0,0,1-3.23-1.52l1.43-3.17a9.76,9.76,0,0,0,2.78,1.38,10.63,10.63,0,0,0,3.22.52,5.07,5.07,0,0,0,2.65-.54,1.58,1.58,0,0,0,.86-1.41,1.36,1.36,0,0,0-.5-1.08,3.82,3.82,0,0,0-1.3-.69c-.53-.17-1.25-.37-2.15-.57a29.86,29.86,0,0,1-3.41-1,5.52,5.52,0,0,1-2.27-1.59,4.3,4.3,0,0,1-.95-2.91,5.07,5.07,0,0,1,.86-2.87,5.7,5.7,0,0,1,2.59-2,10.41,10.41,0,0,1,4.22-.76,13.91,13.91,0,0,1,3.41.42,10.38,10.38,0,0,1,2.91,1.19l-1.3,3.2a10.18,10.18,0,0,0-5-1.43,4.65,4.65,0,0,0-2.61.58,1.74,1.74,0,0,0-.84,1.5,1.46,1.46,0,0,0,1,1.39,14.45,14.45,0,0,0,3,.9,29.62,29.62,0,0,1,3.4,1A5.61,5.61,0,0,1,655.4,248a4.19,4.19,0,0,1,1,2.89,5,5,0,0,1-.87,2.84,5.79,5.79,0,0,1-2.62,2,10.49,10.49,0,0,1-4.23.76A15,15,0,0,1,644.45,255.91Z" style="fill:#083475"/><path d="M660.5,255.91a9.58,9.58,0,0,1-3.24-1.52l1.43-3.17a9.9,9.9,0,0,0,2.78,1.38,10.68,10.68,0,0,0,3.22.52,5.14,5.14,0,0,0,2.66-.54,1.59,1.59,0,0,0,.85-1.41,1.33,1.33,0,0,0-.5-1.08,3.73,3.73,0,0,0-1.3-.69c-.53-.17-1.25-.37-2.15-.57a29.62,29.62,0,0,1-3.4-1,5.49,5.49,0,0,1-2.28-1.59,4.3,4.3,0,0,1-1-2.91,5.07,5.07,0,0,1,.86-2.87,5.7,5.7,0,0,1,2.59-2,10.41,10.41,0,0,1,4.22-.76,13.91,13.91,0,0,1,3.41.42,10.38,10.38,0,0,1,2.91,1.19l-1.3,3.2a10.17,10.17,0,0,0-5-1.43,4.69,4.69,0,0,0-2.62.58,1.74,1.74,0,0,0-.84,1.5,1.46,1.46,0,0,0,1,1.39,14.65,14.65,0,0,0,3,.9,29.86,29.86,0,0,1,3.41,1,5.65,5.65,0,0,1,2.27,1.56,4.19,4.19,0,0,1,.95,2.89,5,5,0,0,1-.87,2.84,5.81,5.81,0,0,1-2.61,2,10.54,10.54,0,0,1-4.24.76A14.85,14.85,0,0,1,660.5,255.91Z" style="fill:#083475"/><path d="M686.72,252.28h-8.45l-1.62,3.91h-4.31L680.45,238h4.16l8.14,18.21h-4.42Zm-1.33-3.19-2.89-7-2.88,7Z" style="fill:#083475"/></g></g></svg>