<svg id="cc5cc835-a0da-473b-b3f2-08b16d56b0c2" data-name="Layer 1" xmlns="http://www.w3.org/2000/svg" viewBox="0 0 100 100"><title>clientes</title><path d="M24.83,67c1.27,0,2.45.11,3.63.14a86.89,86.89,0,0,0,25.46-3.11,62.07,62.07,0,0,0,17.3-7.62,37.92,37.92,0,0,0,10.11-9.33.5.5,0,0,0,0-.69,33.88,33.88,0,0,0-5.26-6.14l-.48-.44a4.21,4.21,0,0,1,.43-.17c1.75-.47,3.49-.94,5.25-1.39a.63.63,0,0,1,.49.12,37.28,37.28,0,0,1,7,8.42c.15.24.06.38-.06.57a34.24,34.24,0,0,1-6.91,7.36,50.42,50.42,0,0,1-9.64,6,.71.71,0,0,0-.32.26H92.45v1.32H69a2.46,2.46,0,0,0-.85.16,75.62,75.62,0,0,1-15.7,4.31,89.73,89.73,0,0,1-9.95,1,90.29,90.29,0,0,1-16.84-.73Z" style="fill:#b3b3b3;stroke:#fff;stroke-miterlimit:10;stroke-width:0.25px"/><path d="M23.58,60.17a42.1,42.1,0,0,1-5.33,1.51,1.13,1.13,0,0,1-1.15-.33,38.46,38.46,0,0,1-6.6-8.06.57.57,0,0,1,0-.73,36.79,36.79,0,0,1,9.61-9.34,51.22,51.22,0,0,1,6.65-3.87,1.22,1.22,0,0,0,.35-.24H7.55V37.76H29.89a2,2,0,0,0,.77-.15A76.78,76.78,0,0,1,47.91,33a92.48,92.48,0,0,1,16.63-.91,77.21,77.21,0,0,1,9.27.82c-.44,0-1.25,0-2.06,0a90.15,90.15,0,0,0-12.19.41A81.15,81.15,0,0,0,44,36.3a60.74,60.74,0,0,0-16.65,7.64,37.44,37.44,0,0,0-9.54,9,.52.52,0,0,0,0,.7,34.4,34.4,0,0,0,5.41,6.27C23.35,59.94,23.44,60,23.58,60.17Z" style="fill:#b3b3b3;stroke:#fff;stroke-miterlimit:10;stroke-width:0.25px"/><path d="M49.55,45.53c.41,0,.82,0,1.23,0,.09,0,.22.19.25.31.63,2.26,1.24,4.52,1.86,6.78,0,.1.06.19.12.38.06-.2.1-.31.14-.43.63-2.24,1.27-4.48,1.89-6.72.07-.26.18-.37.46-.35a8.67,8.67,0,0,0,.89,0v8.79h-.85V47.18h-.1c0,.1-.07.21-.1.32q-.89,3.09-1.76,6.18c-.21.72-.21.72-1,.64l-2-7.22h-.06v7.22h-.9Z" style="fill:#b3b3b3;stroke:#fff;stroke-miterlimit:10;stroke-width:0.25px"/><path d="M69.05,50.33c1.28,1.06,1.7,2.63,2.57,4a8.57,8.57,0,0,1-1,0,.62.62,0,0,1-.33-.27c-.42-.77-.82-1.54-1.24-2.31a6.79,6.79,0,0,0-.42-.67,1.4,1.4,0,0,0-1.27-.67c-.37,0-.74,0-1.15,0v3.9h-.92V45.59s0,0,0,0c1.29,0,2.57,0,3.85,0A1.8,1.8,0,0,1,70.85,47a2.42,2.42,0,0,1-1.64,3.32Zm-2.87-1c.89,0,1.75.05,2.6,0A1.32,1.32,0,0,0,70,47.81a1.3,1.3,0,0,0-1.38-1.32c-.61,0-1.22,0-1.83,0h-.63Z" style="fill:#b3b3b3;stroke:#fff;stroke-miterlimit:10;stroke-width:0.25px"/><path d="M58.26,54.31V45.57h5.17v1H59.19c0,.89,0,1.72,0,2.55,0,.06.21.17.32.17h3.64v1h-4c0,1,0,1.88,0,2.81,0,.28.22.21.37.21h4v1Z" style="fill:#b3b3b3;stroke:#fff;stroke-miterlimit:10;stroke-width:0.25px"/><path d="M42,45.55h.92V46c0,1.57,0,3.15,0,4.73A8.13,8.13,0,0,0,43,52a1.82,1.82,0,0,0,3.54.08,8.26,8.26,0,0,0,.14-1.57c0-1.51,0-3,0-4.53v-.45h.9c0,.1,0,.2,0,.3,0,1.76,0,3.52,0,5.28a6.09,6.09,0,0,1-.25,1.64,2.23,2.23,0,0,1-2,1.66,4.91,4.91,0,0,1-1.27,0,2.14,2.14,0,0,1-1.88-1.64A7.56,7.56,0,0,1,42,51c0-1.74,0-3.47,0-5.21C42,45.74,42,45.66,42,45.55Z" style="fill:#b3b3b3;stroke:#fff;stroke-miterlimit:10;stroke-width:0.25px"/><path d="M35.05,54.34a8.9,8.9,0,0,1-.9,0c-.09,0-.2-.18-.24-.29-.23-.68-.44-1.36-.64-2a.4.4,0,0,0-.44-.34c-.8,0-1.61,0-2.42,0A.37.37,0,0,0,30,52c-.17.65-.39,1.29-.55,1.95-.08.34-.23.5-.59.44a3,3,0,0,0-.53,0c.27-.86.53-1.67.78-2.49.63-2,1.26-4,1.87-5.94.08-.25.17-.44.48-.38s.65-.15.81.37c.87,2.69,1.78,5.37,2.68,8.06A3.72,3.72,0,0,1,35.05,54.34ZM31.61,46.6l-1.22,4.11h2.46Z" style="fill:#b3b3b3;stroke:#fff;stroke-miterlimit:10;stroke-width:0.25px"/><path d="M37,53.32h3.55v1H36.08V45.56H37Z" style="fill:#b3b3b3;stroke:#fff;stroke-miterlimit:10;stroke-width:0.25px"/></svg>