<svg id="3ea5f49f-a4f2-4a2c-a68e-24f0842241e7" data-name="Layer 1" xmlns="http://www.w3.org/2000/svg" viewBox="0 0 100 100"><title>clientes</title><path d="M71.69,89a.41.41,0,0,1-.41-.41V87.23a.41.41,0,0,1,.41-.41.41.41,0,0,1,.41.41v1.36A.41.41,0,0,1,71.69,89Z" style="fill:#b3b3b3"/><g id="b2ca0eef-8b51-4be1-99f5-d336191a2352" data-name="surface2"><path d="M69.15,31.45a22.45,22.45,0,0,1,7.29,6,12.62,12.62,0,0,1,2.7,7.63Q78.81,52.85,70.6,58T50,63.29Q37.62,63.08,29.4,58T20.86,45.12a12.75,12.75,0,0,1,2.7-7.63,22.45,22.45,0,0,1,7.29-6,28.38,28.38,0,0,0-10.34,7.13,14.47,14.47,0,0,0-3.91,9.55q.36,8.65,9.79,14.4T50,68.5q14.19-.23,23.62-6t9.77-14.4a14.49,14.49,0,0,0-3.89-9.55,28.64,28.64,0,0,0-10.36-7.13Z" style="fill:#b3b3b3"/><path d="M76.4,44.5a10.74,10.74,0,0,1-3.11,7.3A22.64,22.64,0,0,1,65,57.2q7.18-3.86,7.47-10c-.16-3.8-2.35-7-6.58-9.51a29.43,29.43,0,0,0-13-3.8c-.47-.81-.94-1.58-1.41-2.3l-.18-.26a.57.57,0,0,0-.08-.13c-.77-1.18-1.2-1.8-1.27-1.87-.07.08-.57.83-1.51,2.26-.29.45-.58.92-.88,1.4,0,0,0,0,0,.05q-.26.4-.51.84h0a29.48,29.48,0,0,0-13,3.8c-4.23,2.53-6.42,5.71-6.58,9.51.2,4.09,2.7,7.44,7.49,10a22.65,22.65,0,0,1-8.3-5.4,10.77,10.77,0,0,1-3.11-7.3q.27-6.54,7.73-10.89T50,29.09q11.22.15,18.66,4.52T76.4,44.5Z" style="fill:#b3b3b3"/><path d="M58.27,37.33q5.53,2.64,5.79,7.31Q63.9,48.48,59.94,51A18.54,18.54,0,0,1,50,53.68,18.54,18.54,0,0,1,40.08,51q-4-2.54-4.12-6.38.28-4.66,5.79-7.31a18.41,18.41,0,0,0-7.39,4,8.15,8.15,0,0,0-2.84,5.85q.21,4.68,5.41,7.79A26.19,26.19,0,0,0,50,58.16Q57.87,58,63.09,55t5.41-7.79a8.15,8.15,0,0,0-2.84-5.85,18.41,18.41,0,0,0-7.39-4Z" style="fill:#b3b3b3"/><path d="M60.17,44.27a5.52,5.52,0,0,1-3,4.51A13.47,13.47,0,0,1,50,50.65a13.57,13.57,0,0,1-7.19-1.87,5.54,5.54,0,0,1-3-4.51,5.54,5.54,0,0,1,3-4.54,10.8,10.8,0,0,1,1.8-.9,7.59,7.59,0,0,0-.44,2A5.84,5.84,0,0,0,50,46.65a5.87,5.87,0,0,0,4.14-1.71,5.75,5.75,0,0,0,1.7-4.12,7.82,7.82,0,0,0-.43-2,10.4,10.4,0,0,1,1.76.9A5.54,5.54,0,0,1,60.17,44.27Z" style="fill:#b3b3b3"/><path d="M52.53,23.07A2.49,2.49,0,1,1,50,20.59a2.51,2.51,0,0,1,2.5,2.48Z" style="fill:#b3b3b3"/><path d="M51.58,16.63A1.55,1.55,0,1,1,50,15.08a1.56,1.56,0,0,1,1.55,1.55Z" style="fill:#b3b3b3"/><path d="M50.94,11.91a.9.9,0,0,1-1.8,0,.91.91,0,0,1,.91-.91.9.9,0,0,1,.89.91Z" style="fill:#b3b3b3"/></g><path d="M12.33,82v5.63a.41.41,0,0,1-.41.41.42.42,0,0,1-.41-.41V85.19H8v2.47a.41.41,0,0,1-.82,0V82A.41.41,0,0,1,8,82v2.34h3.53V82a.41.41,0,0,1,.41-.41A.41.41,0,0,1,12.33,82Z" style="fill:#b3b3b3"/><path d="M13.44,88.08a.41.41,0,0,1-.41-.41V82.05a.41.41,0,0,1,.41-.41.41.41,0,0,1,.41.41v5.62A.41.41,0,0,1,13.44,88.08Z" style="fill:#b3b3b3"/><path d="M17,88.08H15a.41.41,0,0,1-.41-.41V82.05a.38.38,0,0,1,.12-.29.43.43,0,0,1,.29-.12h2a3.49,3.49,0,0,1,1.29.25,3.37,3.37,0,0,1,1.06.7,3.29,3.29,0,0,1,.71,1,3.19,3.19,0,0,1,.26,1.26A3,3,0,0,1,20,86.11a3.2,3.2,0,0,1-.72,1,3.47,3.47,0,0,1-1.06.69A3.51,3.51,0,0,1,17,88.08Zm-1.61-.82H17a2.57,2.57,0,0,0,1-.2,2.38,2.38,0,0,0,.8-.51,2.78,2.78,0,0,0,.55-.77,2.22,2.22,0,0,0,.19-.91,2.31,2.31,0,0,0-.19-.93,2.4,2.4,0,0,0-.54-.76A2.48,2.48,0,0,0,17,82.46H15.37Z" style="fill:#b3b3b3"/><path d="M21.38,88.08a.41.41,0,0,1-.41-.41V82.05a.41.41,0,0,1,.41-.41h2.43a2.19,2.19,0,0,1,.49.06,2,2,0,0,1,.92.51,1.74,1.74,0,0,1,.42.66,2.34,2.34,0,0,1,.17.95,1.86,1.86,0,0,1-.95,1.72,1.8,1.8,0,0,1-.49.2,4.59,4.59,0,0,1,.93,1.14c.21.37.44.37.47.37a.4.4,0,0,1,.46.34.41.41,0,0,1-.34.47,1.17,1.17,0,0,1-.5-.06,1.52,1.52,0,0,1-.8-.71,3.31,3.31,0,0,0-1.05-1.14,1.82,1.82,0,0,0-.51-.24.39.39,0,0,1-.33-.44.4.4,0,0,1,.41-.37,2.78,2.78,0,0,0,1.35-.27,1.06,1.06,0,0,0,.53-1,1.62,1.62,0,0,0-.18-.81,1.06,1.06,0,0,0-.38-.38,1.3,1.3,0,0,0-.62-.17h-2v5.21A.41.41,0,0,1,21.38,88.08Z" style="fill:#b3b3b3"/><path d="M29.74,88.22A3.32,3.32,0,0,1,28.42,88a3.36,3.36,0,0,1-1.07-.72,3.54,3.54,0,0,1-.72-1.07,3.34,3.34,0,0,1-.26-1.29,3.3,3.3,0,0,1,1-2.35,3.36,3.36,0,0,1,1.07-.72,3.49,3.49,0,0,1,1.32-.26,3.25,3.25,0,0,1,2.35,1,3,3,0,0,1,.7,1.06,3.32,3.32,0,0,1,.25,1.28,3.26,3.26,0,0,1-.25,1.29,3.2,3.2,0,0,1-.7,1.07A3.31,3.31,0,0,1,29.74,88.22Zm0-5.86a2.65,2.65,0,0,0-1,.19,2.88,2.88,0,0,0-.82.55,2.24,2.24,0,0,0-.55.81,2.27,2.27,0,0,0-.2,1,2.47,2.47,0,0,0,.19,1,2.38,2.38,0,0,0,.55.81,2.56,2.56,0,0,0,1.81.75,2.47,2.47,0,0,0,1.78-.75,2.57,2.57,0,0,0,.54-.8,2.7,2.7,0,0,0,.18-1,2.51,2.51,0,0,0-.71-1.77A2.46,2.46,0,0,0,29.76,82.36Z" style="fill:#b3b3b3"/><path d="M41.39,82.05a.41.41,0,0,1-.41.41H37.53v2.06h2.95a.42.42,0,0,1,.41.41.41.41,0,0,1-.41.41H37.53v2.35a.41.41,0,0,1-.41.41.42.42,0,0,1-.41-.41V82.05a.42.42,0,0,1,.41-.41H41A.41.41,0,0,1,41.39,82.05Z" style="fill:#b3b3b3"/><path d="M53.93,88.11a.44.44,0,0,1-.32-.15l-4-4.77v4.5a.41.41,0,0,1-.82,0V82.06a.39.39,0,0,1,.27-.38.4.4,0,0,1,.45.12l4,4.76V82.07a.41.41,0,0,1,.41-.41.41.41,0,0,1,.41.41V87.7a.42.42,0,0,1-.27.38Z" style="fill:#b3b3b3"/><path d="M60.23,82.05a.41.41,0,0,1-.41.41H58v5.21a.41.41,0,0,1-.41.41.41.41,0,0,1-.41-.41V82.46H55.4a.41.41,0,1,1,0-.82h4.42A.41.41,0,0,1,60.23,82.05Z" style="fill:#b3b3b3"/><path d="M65.63,87.66a.41.41,0,0,1-.41.41H61.3a.41.41,0,0,1-.41-.41V82.05a.41.41,0,0,1,.41-.41h3.84a.41.41,0,0,1,0,.82H61.71v2h3a.41.41,0,0,1,.41.41.41.41,0,0,1-.41.41h-3v2h3.51A.41.41,0,0,1,65.63,87.66Z" style="fill:#b3b3b3"/><path d="M70.51,86.94a1.73,1.73,0,0,1-.52.75,2.3,2.3,0,0,1-1.72.47,2.89,2.89,0,0,1-1-.32,2.67,2.67,0,0,1-.81-.68.4.4,0,0,1,.07-.57.41.41,0,0,1,.57.06,2,2,0,0,0,1.28.7,1.54,1.54,0,0,0,1.12-.3.86.86,0,0,0,.28-.83c-.14-.57-.66-.76-1.51-1a5.37,5.37,0,0,1-.83-.27l-.17-.08,0,0a2,2,0,0,1-.54-.45,1.62,1.62,0,0,1-.33-.7,1.47,1.47,0,0,1,0-.9,1.55,1.55,0,0,1,.51-.75,2.3,2.3,0,0,1,1.72-.47,2.78,2.78,0,0,1,1,.32,2.71,2.71,0,0,1,.82.68.41.41,0,1,1-.64.5,1.94,1.94,0,0,0-1.28-.69,1.5,1.5,0,0,0-1.12.3.83.83,0,0,0-.28.82c.13.58.66.77,1.51,1,.29.09.57.17.84.27a1.29,1.29,0,0,0,.16.09l0,0A1.72,1.72,0,0,1,70.55,86,1.66,1.66,0,0,1,70.51,86.94Z" style="fill:#b3b3b3"/><path d="M79.75,88.08H76.18a.41.41,0,0,1-.41-.41V82.05a.41.41,0,0,1,.41-.41.41.41,0,0,1,.41.41v5.21h3.16a.41.41,0,0,1,0,.82Z" style="fill:#b3b3b3"/><path d="M83.25,88.08h-2a.41.41,0,0,1-.41-.41V82.05a.38.38,0,0,1,.12-.29.45.45,0,0,1,.29-.12h2a3.49,3.49,0,0,1,1.29.25,3.37,3.37,0,0,1,1.06.7,3.29,3.29,0,0,1,.71,1,3.19,3.19,0,0,1,.26,1.26,3,3,0,0,1-.27,1.24,3.2,3.2,0,0,1-.72,1,3.47,3.47,0,0,1-1.06.69A3.51,3.51,0,0,1,83.25,88.08Zm-1.61-.82h1.62a2.57,2.57,0,0,0,1-.2,2.42,2.42,0,0,0,.81-.51,2.56,2.56,0,0,0,.54-.77,2.22,2.22,0,0,0,.19-.91,2.31,2.31,0,0,0-.19-.93,2.4,2.4,0,0,0-.54-.76,2.48,2.48,0,0,0-1.77-.72H81.64Z" style="fill:#b3b3b3"/><path d="M87,88.08a.37.37,0,0,1-.24-.08.41.41,0,0,1-.13-.51l2.73-5.62a.43.43,0,0,1,.37-.23.4.4,0,0,1,.37.23l2.75,5.61a.39.39,0,0,1-.19.54.4.4,0,0,1-.55-.18l-.64-1.32a3,3,0,0,0-1.36,0,5.26,5.26,0,0,0-1.4.5,7.43,7.43,0,0,0-1.43,1A.41.41,0,0,1,87,88.08ZM89.68,83,88,86.38l.22-.12a5.86,5.86,0,0,1,1.65-.59A3.82,3.82,0,0,1,91,85.61Z" style="fill:#b3b3b3"/><path d="M48.34,84.85a3.24,3.24,0,1,1-6.47,0,6.5,6.5,0,0,1,.84-2.45c.52-1,1-1.88,1.56-2.68s.79-1.2.83-1.25.33.46.85,1.25a30.79,30.79,0,0,1,1.54,2.68,6.55,6.55,0,0,1,.85,2.45" style="fill:#b3b3b3"/><path d="M47.69,85.62A2.48,2.48,0,0,1,47,87.4a2.53,2.53,0,0,1-3.58,0,2.48,2.48,0,0,1-.73-1.78,4.93,4.93,0,0,1,.65-1.91,23.15,23.15,0,0,1,1.22-2.09c.4-.62.62-1,.65-1s.25.36.66,1,.8,1.32,1.2,2.09a5,5,0,0,1,.66,1.91Z" style="fill:#fff;stroke:#b3b3b3;stroke-miterlimit:10;stroke-width:0.25px"/></svg>