<svg id="f0fedacb-6ec9-41a1-b3f9-6041d83f05b9" data-name="Layer 1" xmlns="http://www.w3.org/2000/svg" viewBox="0 0 100 100"><title>clientes</title><path d="M37.74,45.52c0-.24-.23-.31-.57-.27s-.12.21-.14.32a3.84,3.84,0,0,0,0,.48v.6c0,.06,0,.13,0,.17a.51.51,0,0,0,.66-.25A3.69,3.69,0,0,0,37.74,45.52Zm0,0c0-.24-.23-.31-.57-.27s-.12.21-.14.32a3.84,3.84,0,0,0,0,.48v.6c0,.06,0,.13,0,.17a.51.51,0,0,0,.66-.25A3.69,3.69,0,0,0,37.74,45.52Zm0,0c0-.24-.23-.31-.57-.27s-.12.21-.14.32a3.84,3.84,0,0,0,0,.48v.6c0,.06,0,.13,0,.17a.51.51,0,0,0,.66-.25A3.69,3.69,0,0,0,37.74,45.52Zm0,0c0-.24-.23-.31-.57-.27s-.12.21-.14.32a3.84,3.84,0,0,0,0,.48v.6c0,.06,0,.13,0,.17a.51.51,0,0,0,.66-.25A3.69,3.69,0,0,0,37.74,45.52Zm0,0c0-.24-.23-.31-.57-.27s-.12.21-.14.32a3.84,3.84,0,0,0,0,.48v.6c0,.06,0,.13,0,.17a.51.51,0,0,0,.66-.25A3.69,3.69,0,0,0,37.74,45.52Zm5.43.06c0-.28-.18-.35-.57-.34s-.14.23-.16.35a1.29,1.29,0,0,0,0,.34v.59s0,.11.07.15a.51.51,0,0,0,.68-.38A2.42,2.42,0,0,0,43.17,45.58Zm-5.43-.06c0-.24-.23-.31-.57-.27s-.12.21-.14.32a3.84,3.84,0,0,0,0,.48v.6c0,.06,0,.13,0,.17a.51.51,0,0,0,.66-.25A3.69,3.69,0,0,0,37.74,45.52Zm5.43.06c0-.28-.18-.35-.57-.34s-.14.23-.16.35a1.29,1.29,0,0,0,0,.34v.59s0,.11.07.15a.51.51,0,0,0,.68-.38A2.42,2.42,0,0,0,43.17,45.58Zm-5.43-.06c0-.24-.23-.31-.57-.27s-.12.21-.14.32a3.84,3.84,0,0,0,0,.48v.6c0,.06,0,.13,0,.17a.51.51,0,0,0,.66-.25A3.69,3.69,0,0,0,37.74,45.52Zm5.43.06c0-.28-.18-.35-.57-.34s-.14.23-.16.35a1.29,1.29,0,0,0,0,.34v.59s0,.11.07.15a.51.51,0,0,0,.68-.38A2.42,2.42,0,0,0,43.17,45.58Zm4.22,2c-.11-.7-.22-1.4-.32-2.09h0l-.27,1.77c-.07.53-.07.53.49.49C47.39,47.79,47.4,47.74,47.39,47.62Zm0,0c-.11-.7-.22-1.4-.32-2.09h0l-.27,1.77c-.07.53-.07.53.49.49C47.39,47.79,47.4,47.74,47.39,47.62Zm-9.65-2.1c0-.24-.23-.31-.57-.27s-.12.21-.14.32a3.84,3.84,0,0,0,0,.48v.6c0,.06,0,.13,0,.17a.51.51,0,0,0,.66-.25A3.69,3.69,0,0,0,37.74,45.52Zm5.43.06c0-.28-.18-.35-.57-.34s-.14.23-.16.35a1.29,1.29,0,0,0,0,.34v.59s0,.11.07.15a.51.51,0,0,0,.68-.38A2.42,2.42,0,0,0,43.17,45.58Zm-5.43-.06c0-.24-.23-.31-.57-.27s-.12.21-.14.32a3.84,3.84,0,0,0,0,.48v.6c0,.06,0,.13,0,.17a.51.51,0,0,0,.66-.25A3.69,3.69,0,0,0,37.74,45.52Zm5.43.06c0-.28-.18-.35-.57-.34s-.14.23-.16.35a1.29,1.29,0,0,0,0,.34v.59s0,.11.07.15a.51.51,0,0,0,.68-.38A2.42,2.42,0,0,0,43.17,45.58Zm4.22,2c-.11-.7-.22-1.4-.32-2.09h0l-.27,1.77c-.07.53-.07.53.49.49C47.39,47.79,47.4,47.74,47.39,47.62ZM56.85,46c0-.62-.08-.73-.58-.71-.12,0-.18,0-.18.16,0,.37,0,.74,0,1.11,0,.07,0,.14.08.16a.49.49,0,0,0,.67-.45A2.43,2.43,0,0,0,56.85,46Zm0,0c0-.62-.08-.73-.58-.71-.12,0-.18,0-.18.16,0,.37,0,.74,0,1.11,0,.07,0,.14.08.16a.49.49,0,0,0,.67-.45A2.43,2.43,0,0,0,56.85,46Zm-9.46,1.67c-.11-.7-.22-1.4-.32-2.09h0l-.27,1.77c-.07.53-.07.53.49.49C47.39,47.79,47.4,47.74,47.39,47.62Zm-9.65-2.1c0-.24-.23-.31-.57-.27s-.12.21-.14.32a3.84,3.84,0,0,0,0,.48v.6c0,.06,0,.13,0,.17a.51.51,0,0,0,.66-.25A3.69,3.69,0,0,0,37.74,45.52Zm5.43.06c0-.28-.18-.35-.57-.34s-.14.23-.16.35a1.29,1.29,0,0,0,0,.34v.59s0,.11.07.15a.51.51,0,0,0,.68-.38A2.42,2.42,0,0,0,43.17,45.58Zm-5.43-.06c0-.24-.23-.31-.57-.27s-.12.21-.14.32a3.84,3.84,0,0,0,0,.48v.6c0,.06,0,.13,0,.17a.51.51,0,0,0,.66-.25A3.69,3.69,0,0,0,37.74,45.52Zm5.43.06c0-.28-.18-.35-.57-.34s-.14.23-.16.35a1.29,1.29,0,0,0,0,.34v.59s0,.11.07.15a.51.51,0,0,0,.68-.38A2.42,2.42,0,0,0,43.17,45.58Zm4.22,2c-.11-.7-.22-1.4-.32-2.09h0l-.27,1.77c-.07.53-.07.53.49.49C47.39,47.79,47.4,47.74,47.39,47.62ZM56.85,46c0-.62-.08-.73-.58-.71-.12,0-.18,0-.18.16,0,.37,0,.74,0,1.11,0,.07,0,.14.08.16a.49.49,0,0,0,.67-.45A2.43,2.43,0,0,0,56.85,46Zm2.83,1c0-.38,0-.75,0-1.12a1.61,1.61,0,0,0,0-.31.38.38,0,0,0-.75,0,2.35,2.35,0,0,0,0,.26c0,.78,0,1.56,0,2.33a1.73,1.73,0,0,0,0,.32.32.32,0,0,0,.34.27.33.33,0,0,0,.37-.27,1.36,1.36,0,0,0,0-.29C59.69,47.74,59.68,47.34,59.68,47Zm-2.83-1c0-.62-.08-.73-.58-.71-.12,0-.18,0-.18.16,0,.37,0,.74,0,1.11,0,.07,0,.14.08.16a.49.49,0,0,0,.67-.45A2.43,2.43,0,0,0,56.85,46Zm-9.46,1.67c-.11-.7-.22-1.4-.32-2.09h0l-.27,1.77c-.07.53-.07.53.49.49C47.39,47.79,47.4,47.74,47.39,47.62Zm-9.65-2.1c0-.24-.23-.31-.57-.27s-.12.21-.14.32a3.84,3.84,0,0,0,0,.48v.6c0,.06,0,.13,0,.17a.51.51,0,0,0,.66-.25A3.69,3.69,0,0,0,37.74,45.52Zm5.43.06c0-.28-.18-.35-.57-.34s-.14.23-.16.35a1.29,1.29,0,0,0,0,.34v.59s0,.11.07.15a.51.51,0,0,0,.68-.38A2.42,2.42,0,0,0,43.17,45.58ZM59.68,47c0-.38,0-.75,0-1.12a1.61,1.61,0,0,0,0-.31.38.38,0,0,0-.75,0,2.35,2.35,0,0,0,0,.26c0,.78,0,1.56,0,2.33a1.73,1.73,0,0,0,0,.32.32.32,0,0,0,.34.27.33.33,0,0,0,.37-.27,1.36,1.36,0,0,0,0-.29C59.69,47.74,59.68,47.34,59.68,47ZM37.74,45.52c0-.24-.23-.31-.57-.27s-.12.21-.14.32a3.84,3.84,0,0,0,0,.48v.6c0,.06,0,.13,0,.17a.51.51,0,0,0,.66-.25A3.69,3.69,0,0,0,37.74,45.52Zm5.43.06c0-.28-.18-.35-.57-.34s-.14.23-.16.35a1.29,1.29,0,0,0,0,.34v.59s0,.11.07.15a.51.51,0,0,0,.68-.38A2.42,2.42,0,0,0,43.17,45.58Zm4.22,2c-.11-.7-.22-1.4-.32-2.09h0l-.27,1.77c-.07.53-.07.53.49.49C47.39,47.79,47.4,47.74,47.39,47.62ZM56.85,46c0-.62-.08-.73-.58-.71-.12,0-.18,0-.18.16,0,.37,0,.74,0,1.11,0,.07,0,.14.08.16a.49.49,0,0,0,.67-.45A2.43,2.43,0,0,0,56.85,46Zm2.83,1c0-.38,0-.75,0-1.12a1.61,1.61,0,0,0,0-.31.38.38,0,0,0-.75,0,2.35,2.35,0,0,0,0,.26c0,.78,0,1.56,0,2.33a1.73,1.73,0,0,0,0,.32.32.32,0,0,0,.34.27.33.33,0,0,0,.37-.27,1.36,1.36,0,0,0,0-.29C59.69,47.74,59.68,47.34,59.68,47Zm-2.83-1c0-.62-.08-.73-.58-.71-.12,0-.18,0-.18.16,0,.37,0,.74,0,1.11,0,.07,0,.14.08.16a.49.49,0,0,0,.67-.45A2.43,2.43,0,0,0,56.85,46Zm-9.46,1.67c-.11-.7-.22-1.4-.32-2.09h0l-.27,1.77c-.07.53-.07.53.49.49C47.39,47.79,47.4,47.74,47.39,47.62Zm-9.65-2.1c0-.24-.23-.31-.57-.27s-.12.21-.14.32a3.84,3.84,0,0,0,0,.48v.6c0,.06,0,.13,0,.17a.51.51,0,0,0,.66-.25A3.69,3.69,0,0,0,37.74,45.52Zm5.43.06c0-.28-.18-.35-.57-.34s-.14.23-.16.35a1.29,1.29,0,0,0,0,.34v.59s0,.11.07.15a.51.51,0,0,0,.68-.38A2.42,2.42,0,0,0,43.17,45.58ZM59.68,47c0-.38,0-.75,0-1.12a1.61,1.61,0,0,0,0-.31.38.38,0,0,0-.75,0,2.35,2.35,0,0,0,0,.26c0,.78,0,1.56,0,2.33a1.73,1.73,0,0,0,0,.32.32.32,0,0,0,.34.27.33.33,0,0,0,.37-.27,1.36,1.36,0,0,0,0-.29C59.69,47.74,59.68,47.34,59.68,47ZM29.9,51.84a.36.36,0,0,0-.39-.29.34.34,0,0,0-.35.29c0,.1,0,.2,0,.29v2.33a.92.92,0,0,0,0,.29.36.36,0,0,0,.45.29c.24-.06.29-.24.3-.45V53.3h0v-.74A4.33,4.33,0,0,0,29.9,51.84Zm7.84-6.32c0-.24-.23-.31-.57-.27s-.12.21-.14.32a3.84,3.84,0,0,0,0,.48v.6c0,.06,0,.13,0,.17a.51.51,0,0,0,.66-.25A3.69,3.69,0,0,0,37.74,45.52Zm5.43.06c0-.28-.18-.35-.57-.34s-.14.23-.16.35a1.29,1.29,0,0,0,0,.34v.59s0,.11.07.15a.51.51,0,0,0,.68-.38A2.42,2.42,0,0,0,43.17,45.58Zm4.22,2c-.11-.7-.22-1.4-.32-2.09h0l-.27,1.77c-.07.53-.07.53.49.49C47.39,47.79,47.4,47.74,47.39,47.62ZM56.85,46c0-.62-.08-.73-.58-.71-.12,0-.18,0-.18.16,0,.37,0,.74,0,1.11,0,.07,0,.14.08.16a.49.49,0,0,0,.67-.45A2.43,2.43,0,0,0,56.85,46Zm2.83,1c0-.38,0-.75,0-1.12a1.61,1.61,0,0,0,0-.31.38.38,0,0,0-.75,0,2.35,2.35,0,0,0,0,.26c0,.78,0,1.56,0,2.33a1.73,1.73,0,0,0,0,.32.32.32,0,0,0,.34.27.33.33,0,0,0,.37-.27,1.36,1.36,0,0,0,0-.29C59.69,47.74,59.68,47.34,59.68,47Zm-2.83-1c0-.62-.08-.73-.58-.71-.12,0-.18,0-.18.16,0,.37,0,.74,0,1.11,0,.07,0,.14.08.16a.49.49,0,0,0,.67-.45A2.43,2.43,0,0,0,56.85,46Zm-9.46,1.67c-.11-.7-.22-1.4-.32-2.09h0l-.27,1.77c-.07.53-.07.53.49.49C47.39,47.79,47.4,47.74,47.39,47.62Zm-9.65-2.1c0-.24-.23-.31-.57-.27s-.12.21-.14.32a3.84,3.84,0,0,0,0,.48v.6c0,.06,0,.13,0,.17a.51.51,0,0,0,.66-.25A3.69,3.69,0,0,0,37.74,45.52ZM29.9,51.84a.36.36,0,0,0-.39-.29.34.34,0,0,0-.35.29c0,.1,0,.2,0,.29v2.33a.92.92,0,0,0,0,.29.36.36,0,0,0,.45.29c.24-.06.29-.24.3-.45V53.3h0v-.74A4.33,4.33,0,0,0,29.9,51.84Zm13.27-6.26c0-.28-.18-.35-.57-.34s-.14.23-.16.35a1.29,1.29,0,0,0,0,.34v.59s0,.11.07.15a.51.51,0,0,0,.68-.38A2.42,2.42,0,0,0,43.17,45.58ZM59.68,47c0-.38,0-.75,0-1.12a1.61,1.61,0,0,0,0-.31.38.38,0,0,0-.75,0,2.35,2.35,0,0,0,0,.26c0,.78,0,1.56,0,2.33a1.73,1.73,0,0,0,0,.32.32.32,0,0,0,.34.27.33.33,0,0,0,.37-.27,1.36,1.36,0,0,0,0-.29C59.69,47.74,59.68,47.34,59.68,47ZM29.9,51.84a.36.36,0,0,0-.39-.29.34.34,0,0,0-.35.29c0,.1,0,.2,0,.29v2.33a.92.92,0,0,0,0,.29.36.36,0,0,0,.45.29c.24-.06.29-.24.3-.45V53.3h0v-.74A4.33,4.33,0,0,0,29.9,51.84Zm7.84-6.32c0-.24-.23-.31-.57-.27s-.12.21-.14.32a3.84,3.84,0,0,0,0,.48v.6c0,.06,0,.13,0,.17a.51.51,0,0,0,.66-.25A3.69,3.69,0,0,0,37.74,45.52Zm5.43.06c0-.28-.18-.35-.57-.34s-.14.23-.16.35a1.29,1.29,0,0,0,0,.34v.59s0,.11.07.15a.51.51,0,0,0,.68-.38A2.42,2.42,0,0,0,43.17,45.58Zm4.22,2c-.11-.7-.22-1.4-.32-2.09h0l-.27,1.77c-.07.53-.07.53.49.49C47.39,47.79,47.4,47.74,47.39,47.62ZM56.85,46c0-.62-.08-.73-.58-.71-.12,0-.18,0-.18.16,0,.37,0,.74,0,1.11,0,.07,0,.14.08.16a.49.49,0,0,0,.67-.45A2.43,2.43,0,0,0,56.85,46Zm2.83,1c0-.38,0-.75,0-1.12a1.61,1.61,0,0,0,0-.31.38.38,0,0,0-.75,0,2.35,2.35,0,0,0,0,.26c0,.78,0,1.56,0,2.33a1.73,1.73,0,0,0,0,.32.32.32,0,0,0,.34.27.33.33,0,0,0,.37-.27,1.36,1.36,0,0,0,0-.29C59.69,47.74,59.68,47.34,59.68,47Zm-2.83-1c0-.62-.08-.73-.58-.71-.12,0-.18,0-.18.16,0,.37,0,.74,0,1.11,0,.07,0,.14.08.16a.49.49,0,0,0,.67-.45A2.43,2.43,0,0,0,56.85,46Zm-9.46,1.67c-.11-.7-.22-1.4-.32-2.09h0l-.27,1.77c-.07.53-.07.53.49.49C47.39,47.79,47.4,47.74,47.39,47.62Zm-9.65-2.1c0-.24-.23-.31-.57-.27s-.12.21-.14.32a3.84,3.84,0,0,0,0,.48v.6c0,.06,0,.13,0,.17a.51.51,0,0,0,.66-.25A3.69,3.69,0,0,0,37.74,45.52ZM29.9,51.84a.36.36,0,0,0-.39-.29.34.34,0,0,0-.35.29c0,.1,0,.2,0,.29v2.33a.92.92,0,0,0,0,.29.36.36,0,0,0,.45.29c.24-.06.29-.24.3-.45V53.3h0v-.74A4.33,4.33,0,0,0,29.9,51.84Zm13.27-6.26c0-.28-.18-.35-.57-.34s-.14.23-.16.35a1.29,1.29,0,0,0,0,.34v.59s0,.11.07.15a.51.51,0,0,0,.68-.38A2.42,2.42,0,0,0,43.17,45.58ZM59.68,47c0-.38,0-.75,0-1.12a1.61,1.61,0,0,0,0-.31.38.38,0,0,0-.75,0,2.35,2.35,0,0,0,0,.26c0,.78,0,1.56,0,2.33a1.73,1.73,0,0,0,0,.32.32.32,0,0,0,.34.27.33.33,0,0,0,.37-.27,1.36,1.36,0,0,0,0-.29C59.69,47.74,59.68,47.34,59.68,47ZM29.9,51.84a.36.36,0,0,0-.39-.29.34.34,0,0,0-.35.29c0,.1,0,.2,0,.29v2.33a.92.92,0,0,0,0,.29.36.36,0,0,0,.45.29c.24-.06.29-.24.3-.45V53.3h0v-.74A4.33,4.33,0,0,0,29.9,51.84Zm7.84-6.32c0-.24-.23-.31-.57-.27s-.12.21-.14.32a3.84,3.84,0,0,0,0,.48v.6c0,.06,0,.13,0,.17a.51.51,0,0,0,.66-.25A3.69,3.69,0,0,0,37.74,45.52Zm5.43.06c0-.28-.18-.35-.57-.34s-.14.23-.16.35a1.29,1.29,0,0,0,0,.34v.59s0,.11.07.15a.51.51,0,0,0,.68-.38A2.42,2.42,0,0,0,43.17,45.58Zm4.22,2c-.11-.7-.22-1.4-.32-2.09h0l-.27,1.77c-.07.53-.07.53.49.49C47.39,47.79,47.4,47.74,47.39,47.62ZM56.85,46c0-.62-.08-.73-.58-.71-.12,0-.18,0-.18.16,0,.37,0,.74,0,1.11,0,.07,0,.14.08.16a.49.49,0,0,0,.67-.45A2.43,2.43,0,0,0,56.85,46Zm2.83,1c0-.38,0-.75,0-1.12a1.61,1.61,0,0,0,0-.31.38.38,0,0,0-.75,0,2.35,2.35,0,0,0,0,.26c0,.78,0,1.56,0,2.33a1.73,1.73,0,0,0,0,.32.32.32,0,0,0,.34.27.33.33,0,0,0,.37-.27,1.36,1.36,0,0,0,0-.29C59.69,47.74,59.68,47.34,59.68,47Zm-2.83-1c0-.62-.08-.73-.58-.71-.12,0-.18,0-.18.16,0,.37,0,.74,0,1.11,0,.07,0,.14.08.16a.49.49,0,0,0,.67-.45A2.43,2.43,0,0,0,56.85,46Zm-9.46,1.67c-.11-.7-.22-1.4-.32-2.09h0l-.27,1.77c-.07.53-.07.53.49.49C47.39,47.79,47.4,47.74,47.39,47.62Zm-9.65-2.1c0-.24-.23-.31-.57-.27s-.12.21-.14.32a3.84,3.84,0,0,0,0,.48v.6c0,.06,0,.13,0,.17a.51.51,0,0,0,.66-.25A3.69,3.69,0,0,0,37.74,45.52ZM29.9,51.84a.36.36,0,0,0-.39-.29.34.34,0,0,0-.35.29c0,.1,0,.2,0,.29v2.33a.92.92,0,0,0,0,.29.36.36,0,0,0,.45.29c.24-.06.29-.24.3-.45V53.3h0v-.74A4.33,4.33,0,0,0,29.9,51.84Zm13.27-6.26c0-.28-.18-.35-.57-.34s-.14.23-.16.35a1.29,1.29,0,0,0,0,.34v.59s0,.11.07.15a.51.51,0,0,0,.68-.38A2.42,2.42,0,0,0,43.17,45.58ZM59.68,47c0-.38,0-.75,0-1.12a1.61,1.61,0,0,0,0-.31.38.38,0,0,0-.75,0,2.35,2.35,0,0,0,0,.26c0,.78,0,1.56,0,2.33a1.73,1.73,0,0,0,0,.32.32.32,0,0,0,.34.27.33.33,0,0,0,.37-.27,1.36,1.36,0,0,0,0-.29C59.69,47.74,59.68,47.34,59.68,47ZM29.9,51.84a.36.36,0,0,0-.39-.29.34.34,0,0,0-.35.29c0,.1,0,.2,0,.29v2.33a.92.92,0,0,0,0,.29.36.36,0,0,0,.45.29c.24-.06.29-.24.3-.45V53.3h0v-.74A4.33,4.33,0,0,0,29.9,51.84Zm7.84-6.32c0-.24-.23-.31-.57-.27s-.12.21-.14.32a3.84,3.84,0,0,0,0,.48v.6c0,.06,0,.13,0,.17a.51.51,0,0,0,.66-.25A3.69,3.69,0,0,0,37.74,45.52Zm5.43.06c0-.28-.18-.35-.57-.34s-.14.23-.16.35a1.29,1.29,0,0,0,0,.34v.59s0,.11.07.15a.51.51,0,0,0,.68-.38A2.42,2.42,0,0,0,43.17,45.58Zm4.22,2c-.11-.7-.22-1.4-.32-2.09h0l-.27,1.77c-.07.53-.07.53.49.49C47.39,47.79,47.4,47.74,47.39,47.62ZM56.85,46c0-.62-.08-.73-.58-.71-.12,0-.18,0-.18.16,0,.37,0,.74,0,1.11,0,.07,0,.14.08.16a.49.49,0,0,0,.67-.45A2.43,2.43,0,0,0,56.85,46Zm2.83,1c0-.38,0-.75,0-1.12a1.61,1.61,0,0,0,0-.31.38.38,0,0,0-.75,0,2.35,2.35,0,0,0,0,.26c0,.78,0,1.56,0,2.33a1.73,1.73,0,0,0,0,.32.32.32,0,0,0,.34.27.33.33,0,0,0,.37-.27,1.36,1.36,0,0,0,0-.29C59.69,47.74,59.68,47.34,59.68,47Zm-2.83-1c0-.62-.08-.73-.58-.71-.12,0-.18,0-.18.16,0,.37,0,.74,0,1.11,0,.07,0,.14.08.16a.49.49,0,0,0,.67-.45A2.43,2.43,0,0,0,56.85,46Zm-9.46,1.67c-.11-.7-.22-1.4-.32-2.09h0l-.27,1.77c-.07.53-.07.53.49.49C47.39,47.79,47.4,47.74,47.39,47.62Zm-9.65-2.1c0-.24-.23-.31-.57-.27s-.12.21-.14.32a3.84,3.84,0,0,0,0,.48v.6c0,.06,0,.13,0,.17a.51.51,0,0,0,.66-.25A3.69,3.69,0,0,0,37.74,45.52ZM29.9,51.84a.36.36,0,0,0-.39-.29.34.34,0,0,0-.35.29c0,.1,0,.2,0,.29v2.33a.92.92,0,0,0,0,.29.36.36,0,0,0,.45.29c.24-.06.29-.24.3-.45V53.3h0v-.74A4.33,4.33,0,0,0,29.9,51.84Zm13.27-6.26c0-.28-.18-.35-.57-.34s-.14.23-.16.35a1.29,1.29,0,0,0,0,.34v.59s0,.11.07.15a.51.51,0,0,0,.68-.38A2.42,2.42,0,0,0,43.17,45.58ZM59.68,47c0-.38,0-.75,0-1.12a1.61,1.61,0,0,0,0-.31.38.38,0,0,0-.75,0,2.35,2.35,0,0,0,0,.26c0,.78,0,1.56,0,2.33a1.73,1.73,0,0,0,0,.32.32.32,0,0,0,.34.27.33.33,0,0,0,.37-.27,1.36,1.36,0,0,0,0-.29C59.69,47.74,59.68,47.34,59.68,47ZM29.9,51.84a.36.36,0,0,0-.39-.29.34.34,0,0,0-.35.29c0,.1,0,.2,0,.29v2.33a.92.92,0,0,0,0,.29.36.36,0,0,0,.45.29c.24-.06.29-.24.3-.45V53.3h0v-.74A4.33,4.33,0,0,0,29.9,51.84Zm7.84-6.32c0-.24-.23-.31-.57-.27s-.12.21-.14.32a3.84,3.84,0,0,0,0,.48v.6c0,.06,0,.13,0,.17a.51.51,0,0,0,.66-.25A3.69,3.69,0,0,0,37.74,45.52Zm5.43.06c0-.28-.18-.35-.57-.34s-.14.23-.16.35a1.29,1.29,0,0,0,0,.34v.59s0,.11.07.15a.51.51,0,0,0,.68-.38A2.42,2.42,0,0,0,43.17,45.58Zm4.22,2c-.11-.7-.22-1.4-.32-2.09h0l-.27,1.77c-.07.53-.07.53.49.49C47.39,47.79,47.4,47.74,47.39,47.62ZM51.47,52a.39.39,0,0,0-.6-.36.47.47,0,0,0-.17.45c0,.82,0,1.65,0,2.48a.92.92,0,0,0,0,.29.32.32,0,0,0,.33.21.32.32,0,0,0,.35-.19.79.79,0,0,0,.06-.34c0-.4,0-.81,0-1.22h0C51.47,52.85,51.49,52.41,51.47,52Zm5.38-6c0-.62-.08-.73-.58-.71-.12,0-.18,0-.18.16,0,.37,0,.74,0,1.11,0,.07,0,.14.08.16a.49.49,0,0,0,.67-.45A2.43,2.43,0,0,0,56.85,46Zm2.83,1c0-.38,0-.75,0-1.12a1.61,1.61,0,0,0,0-.31.38.38,0,0,0-.75,0,2.35,2.35,0,0,0,0,.26c0,.78,0,1.56,0,2.33a1.73,1.73,0,0,0,0,.32.32.32,0,0,0,.34.27.33.33,0,0,0,.37-.27,1.36,1.36,0,0,0,0-.29C59.69,47.74,59.68,47.34,59.68,47Zm-2.83-1c0-.62-.08-.73-.58-.71-.12,0-.18,0-.18.16,0,.37,0,.74,0,1.11,0,.07,0,.14.08.16a.49.49,0,0,0,.67-.45A2.43,2.43,0,0,0,56.85,46Zm-5.38,6a.39.39,0,0,0-.6-.36.47.47,0,0,0-.17.45c0,.82,0,1.65,0,2.48a.92.92,0,0,0,0,.29.32.32,0,0,0,.33.21.32.32,0,0,0,.35-.19.79.79,0,0,0,.06-.34c0-.4,0-.81,0-1.22h0C51.47,52.85,51.49,52.41,51.47,52Zm-4.08-4.35c-.11-.7-.22-1.4-.32-2.09h0l-.27,1.77c-.07.53-.07.53.49.49C47.39,47.79,47.4,47.74,47.39,47.62Zm-9.65-2.1c0-.24-.23-.31-.57-.27s-.12.21-.14.32a3.84,3.84,0,0,0,0,.48v.6c0,.06,0,.13,0,.17a.51.51,0,0,0,.66-.25A3.69,3.69,0,0,0,37.74,45.52ZM29.9,51.84a.36.36,0,0,0-.39-.29.34.34,0,0,0-.35.29c0,.1,0,.2,0,.29v2.33a.92.92,0,0,0,0,.29.36.36,0,0,0,.45.29c.24-.06.29-.24.3-.45V53.3h0v-.74A4.33,4.33,0,0,0,29.9,51.84Zm13.27-6.26c0-.28-.18-.35-.57-.34s-.14.23-.16.35a1.29,1.29,0,0,0,0,.34v.59s0,.11.07.15a.51.51,0,0,0,.68-.38A2.42,2.42,0,0,0,43.17,45.58ZM59.68,47c0-.38,0-.75,0-1.12a1.61,1.61,0,0,0,0-.31.38.38,0,0,0-.75,0,2.35,2.35,0,0,0,0,.26c0,.78,0,1.56,0,2.33a1.73,1.73,0,0,0,0,.32.32.32,0,0,0,.34.27.33.33,0,0,0,.37-.27,1.36,1.36,0,0,0,0-.29C59.69,47.74,59.68,47.34,59.68,47ZM29.9,51.84a.36.36,0,0,0-.39-.29.34.34,0,0,0-.35.29c0,.1,0,.2,0,.29v2.33a.92.92,0,0,0,0,.29.36.36,0,0,0,.45.29c.24-.06.29-.24.3-.45V53.3h0v-.74A4.33,4.33,0,0,0,29.9,51.84Zm7.84-6.32c0-.24-.23-.31-.57-.27s-.12.21-.14.32a3.84,3.84,0,0,0,0,.48v.6c0,.06,0,.13,0,.17a.51.51,0,0,0,.66-.25A3.69,3.69,0,0,0,37.74,45.52Zm5.43.06c0-.28-.18-.35-.57-.34s-.14.23-.16.35a1.29,1.29,0,0,0,0,.34v.59s0,.11.07.15a.51.51,0,0,0,.68-.38A2.42,2.42,0,0,0,43.17,45.58Zm4.22,2c-.11-.7-.22-1.4-.32-2.09h0l-.27,1.77c-.07.53-.07.53.49.49C47.39,47.79,47.4,47.74,47.39,47.62ZM51.47,52a.39.39,0,0,0-.6-.36.47.47,0,0,0-.17.45c0,.82,0,1.65,0,2.48a.92.92,0,0,0,0,.29.32.32,0,0,0,.33.21.32.32,0,0,0,.35-.19.79.79,0,0,0,.06-.34c0-.4,0-.81,0-1.22h0C51.47,52.85,51.49,52.41,51.47,52Zm5,2c-.11-.7-.22-1.41-.32-2.11h0l-.27,1.75c-.07.55-.07.55.5.51C56.49,54.14,56.52,54.11,56.5,54Zm.35-8c0-.62-.08-.73-.58-.71-.12,0-.18,0-.18.16,0,.37,0,.74,0,1.11,0,.07,0,.14.08.16a.49.49,0,0,0,.67-.45A2.43,2.43,0,0,0,56.85,46Zm2.83,1c0-.38,0-.75,0-1.12a1.61,1.61,0,0,0,0-.31.38.38,0,0,0-.75,0,2.35,2.35,0,0,0,0,.26c0,.78,0,1.56,0,2.33a1.73,1.73,0,0,0,0,.32.32.32,0,0,0,.34.27.33.33,0,0,0,.37-.27,1.36,1.36,0,0,0,0-.29C59.69,47.74,59.68,47.34,59.68,47Zm-2.83-1c0-.62-.08-.73-.58-.71-.12,0-.18,0-.18.16,0,.37,0,.74,0,1.11,0,.07,0,.14.08.16a.49.49,0,0,0,.67-.45A2.43,2.43,0,0,0,56.85,46Zm-.35,8c-.11-.7-.22-1.41-.32-2.11h0l-.27,1.75c-.07.55-.07.55.5.51C56.49,54.14,56.52,54.11,56.5,54Zm-5-2a.39.39,0,0,0-.6-.36.47.47,0,0,0-.17.45c0,.82,0,1.65,0,2.48a.92.92,0,0,0,0,.29.32.32,0,0,0,.33.21.32.32,0,0,0,.35-.19.79.79,0,0,0,.06-.34c0-.4,0-.81,0-1.22h0C51.47,52.85,51.49,52.41,51.47,52Zm-4.08-4.35c-.11-.7-.22-1.4-.32-2.09h0l-.27,1.77c-.07.53-.07.53.49.49C47.39,47.79,47.4,47.74,47.39,47.62Zm-9.65-2.1c0-.24-.23-.31-.57-.27s-.12.21-.14.32a3.84,3.84,0,0,0,0,.48v.6c0,.06,0,.13,0,.17a.51.51,0,0,0,.66-.25A3.69,3.69,0,0,0,37.74,45.52ZM29.9,51.84a.36.36,0,0,0-.39-.29.34.34,0,0,0-.35.29c0,.1,0,.2,0,.29v2.33a.92.92,0,0,0,0,.29.36.36,0,0,0,.45.29c.24-.06.29-.24.3-.45V53.3h0v-.74A4.33,4.33,0,0,0,29.9,51.84Zm13.27-6.26c0-.28-.18-.35-.57-.34s-.14.23-.16.35a1.29,1.29,0,0,0,0,.34v.59s0,.11.07.15a.51.51,0,0,0,.68-.38A2.42,2.42,0,0,0,43.17,45.58ZM59.68,47c0-.38,0-.75,0-1.12a1.61,1.61,0,0,0,0-.31.38.38,0,0,0-.75,0,2.35,2.35,0,0,0,0,.26c0,.78,0,1.56,0,2.33a1.73,1.73,0,0,0,0,.32.32.32,0,0,0,.34.27.33.33,0,0,0,.37-.27,1.36,1.36,0,0,0,0-.29C59.69,47.74,59.68,47.34,59.68,47ZM29.9,51.84a.36.36,0,0,0-.39-.29.34.34,0,0,0-.35.29c0,.1,0,.2,0,.29v2.33a.92.92,0,0,0,0,.29.36.36,0,0,0,.45.29c.24-.06.29-.24.3-.45V53.3h0v-.74A4.33,4.33,0,0,0,29.9,51.84Zm7.84-6.32c0-.24-.23-.31-.57-.27s-.12.21-.14.32a3.84,3.84,0,0,0,0,.48v.6c0,.06,0,.13,0,.17a.51.51,0,0,0,.66-.25A3.69,3.69,0,0,0,37.74,45.52Zm5.43.06c0-.28-.18-.35-.57-.34s-.14.23-.16.35a1.29,1.29,0,0,0,0,.34v.59s0,.11.07.15a.51.51,0,0,0,.68-.38A2.42,2.42,0,0,0,43.17,45.58Zm4.22,2c-.11-.7-.22-1.4-.32-2.09h0l-.27,1.77c-.07.53-.07.53.49.49C47.39,47.79,47.4,47.74,47.39,47.62ZM51.47,52a.39.39,0,0,0-.6-.36.47.47,0,0,0-.17.45c0,.82,0,1.65,0,2.48a.92.92,0,0,0,0,.29.32.32,0,0,0,.33.21.32.32,0,0,0,.35-.19.79.79,0,0,0,.06-.34c0-.4,0-.81,0-1.22h0C51.47,52.85,51.49,52.41,51.47,52Zm5,2c-.11-.7-.22-1.41-.32-2.11h0l-.27,1.75c-.07.55-.07.55.5.51C56.49,54.14,56.52,54.11,56.5,54Zm.35-8c0-.62-.08-.73-.58-.71-.12,0-.18,0-.18.16,0,.37,0,.74,0,1.11,0,.07,0,.14.08.16a.49.49,0,0,0,.67-.45A2.43,2.43,0,0,0,56.85,46Zm2.83,1c0-.38,0-.75,0-1.12a1.61,1.61,0,0,0,0-.31.38.38,0,0,0-.75,0,2.35,2.35,0,0,0,0,.26c0,.78,0,1.56,0,2.33a1.73,1.73,0,0,0,0,.32.32.32,0,0,0,.34.27.33.33,0,0,0,.37-.27,1.36,1.36,0,0,0,0-.29C59.69,47.74,59.68,47.34,59.68,47Zm3.09,5c0-.26-.22-.34-.6-.31s-.11.23-.14.35a1.13,1.13,0,0,0,0,.26v.45c0,.07,0,.14.09.16a.5.5,0,0,0,.67-.46A1.7,1.7,0,0,0,62.77,51.91Zm-.56,1.6c-.13,0-.19,0-.18.18v1.13c0,.07,0,.14.08.17a.51.51,0,0,0,.74-.5V54.3C62.85,53.62,62.74,53.49,62.21,53.51Zm0,0c-.13,0-.19,0-.18.18v1.13c0,.07,0,.14.08.17a.51.51,0,0,0,.74-.5V54.3C62.85,53.62,62.74,53.49,62.21,53.51Zm.56-1.6c0-.26-.22-.34-.6-.31s-.11.23-.14.35a1.13,1.13,0,0,0,0,.26v.45c0,.07,0,.14.09.16a.5.5,0,0,0,.67-.46A1.7,1.7,0,0,0,62.77,51.91Zm-5.92-6c0-.62-.08-.73-.58-.71-.12,0-.18,0-.18.16,0,.37,0,.74,0,1.11,0,.07,0,.14.08.16a.49.49,0,0,0,.67-.45A2.43,2.43,0,0,0,56.85,46Zm-.35,8c-.11-.7-.22-1.41-.32-2.11h0l-.27,1.75c-.07.55-.07.55.5.51C56.49,54.14,56.52,54.11,56.5,54Zm-5-2a.39.39,0,0,0-.6-.36.47.47,0,0,0-.17.45c0,.82,0,1.65,0,2.48a.92.92,0,0,0,0,.29.32.32,0,0,0,.33.21.32.32,0,0,0,.35-.19.79.79,0,0,0,.06-.34c0-.4,0-.81,0-1.22h0C51.47,52.85,51.49,52.41,51.47,52Zm-4.08-4.35c-.11-.7-.22-1.4-.32-2.09h0l-.27,1.77c-.07.53-.07.53.49.49C47.39,47.79,47.4,47.74,47.39,47.62Zm-9.65-2.1c0-.24-.23-.31-.57-.27s-.12.21-.14.32a3.84,3.84,0,0,0,0,.48v.6c0,.06,0,.13,0,.17a.51.51,0,0,0,.66-.25A3.69,3.69,0,0,0,37.74,45.52ZM29.9,51.84a.36.36,0,0,0-.39-.29.34.34,0,0,0-.35.29c0,.1,0,.2,0,.29v2.33a.92.92,0,0,0,0,.29.36.36,0,0,0,.45.29c.24-.06.29-.24.3-.45V53.3h0v-.74A4.33,4.33,0,0,0,29.9,51.84Zm13.27-6.26c0-.28-.18-.35-.57-.34s-.14.23-.16.35a1.29,1.29,0,0,0,0,.34v.59s0,.11.07.15a.51.51,0,0,0,.68-.38A2.42,2.42,0,0,0,43.17,45.58ZM59.68,47c0-.38,0-.75,0-1.12a1.61,1.61,0,0,0,0-.31.38.38,0,0,0-.75,0,2.35,2.35,0,0,0,0,.26c0,.78,0,1.56,0,2.33a1.73,1.73,0,0,0,0,.32.32.32,0,0,0,.34.27.33.33,0,0,0,.37-.27,1.36,1.36,0,0,0,0-.29C59.69,47.74,59.68,47.34,59.68,47ZM29.9,51.84a.36.36,0,0,0-.39-.29.34.34,0,0,0-.35.29c0,.1,0,.2,0,.29v2.33a.92.92,0,0,0,0,.29.36.36,0,0,0,.45.29c.24-.06.29-.24.3-.45V53.3h0v-.74A4.33,4.33,0,0,0,29.9,51.84Zm7.84-6.32c0-.24-.23-.31-.57-.27s-.12.21-.14.32a3.84,3.84,0,0,0,0,.48v.6c0,.06,0,.13,0,.17a.51.51,0,0,0,.66-.25A3.69,3.69,0,0,0,37.74,45.52Zm5.43.06c0-.28-.18-.35-.57-.34s-.14.23-.16.35a1.29,1.29,0,0,0,0,.34v.59s0,.11.07.15a.51.51,0,0,0,.68-.38A2.42,2.42,0,0,0,43.17,45.58Zm4.22,2c-.11-.7-.22-1.4-.32-2.09h0l-.27,1.77c-.07.53-.07.53.49.49C47.39,47.79,47.4,47.74,47.39,47.62ZM51.47,52a.39.39,0,0,0-.6-.36.47.47,0,0,0-.17.45c0,.82,0,1.65,0,2.48a.92.92,0,0,0,0,.29.32.32,0,0,0,.33.21.32.32,0,0,0,.35-.19.79.79,0,0,0,.06-.34c0-.4,0-.81,0-1.22h0C51.47,52.85,51.49,52.41,51.47,52Zm5,2c-.11-.7-.22-1.41-.32-2.11h0l-.27,1.75c-.07.55-.07.55.5.51C56.49,54.14,56.52,54.11,56.5,54Zm.35-8c0-.62-.08-.73-.58-.71-.12,0-.18,0-.18.16,0,.37,0,.74,0,1.11,0,.07,0,.14.08.16a.49.49,0,0,0,.67-.45A2.43,2.43,0,0,0,56.85,46Zm2.83,1c0-.38,0-.75,0-1.12a1.61,1.61,0,0,0,0-.31.38.38,0,0,0-.75,0,2.35,2.35,0,0,0,0,.26c0,.78,0,1.56,0,2.33a1.73,1.73,0,0,0,0,.32.32.32,0,0,0,.34.27.33.33,0,0,0,.37-.27,1.36,1.36,0,0,0,0-.29C59.69,47.74,59.68,47.34,59.68,47Zm3.09,5c0-.26-.22-.34-.6-.31s-.11.23-.14.35a1.13,1.13,0,0,0,0,.26v.45c0,.07,0,.14.09.16a.5.5,0,0,0,.67-.46A1.7,1.7,0,0,0,62.77,51.91Zm-.56,1.6c-.13,0-.19,0-.18.18v1.13c0,.07,0,.14.08.17a.51.51,0,0,0,.74-.5V54.3C62.85,53.62,62.74,53.49,62.21,53.51Zm0,0c-.13,0-.19,0-.18.18v1.13c0,.07,0,.14.08.17a.51.51,0,0,0,.74-.5V54.3C62.85,53.62,62.74,53.49,62.21,53.51Zm.56-1.6c0-.26-.22-.34-.6-.31s-.11.23-.14.35a1.13,1.13,0,0,0,0,.26v.45c0,.07,0,.14.09.16a.5.5,0,0,0,.67-.46A1.7,1.7,0,0,0,62.77,51.91Zm-5.92-6c0-.62-.08-.73-.58-.71-.12,0-.18,0-.18.16,0,.37,0,.74,0,1.11,0,.07,0,.14.08.16a.49.49,0,0,0,.67-.45A2.43,2.43,0,0,0,56.85,46Zm-.35,8c-.11-.7-.22-1.41-.32-2.11h0l-.27,1.75c-.07.55-.07.55.5.51C56.49,54.14,56.52,54.11,56.5,54Zm-5-2a.39.39,0,0,0-.6-.36.47.47,0,0,0-.17.45c0,.82,0,1.65,0,2.48a.92.92,0,0,0,0,.29.32.32,0,0,0,.33.21.32.32,0,0,0,.35-.19.79.79,0,0,0,.06-.34c0-.4,0-.81,0-1.22h0C51.47,52.85,51.49,52.41,51.47,52Zm-4.08-4.35c-.11-.7-.22-1.4-.32-2.09h0l-.27,1.77c-.07.53-.07.53.49.49C47.39,47.79,47.4,47.74,47.39,47.62Zm-9.65-2.1c0-.24-.23-.31-.57-.27s-.12.21-.14.32a3.84,3.84,0,0,0,0,.48v.6c0,.06,0,.13,0,.17a.51.51,0,0,0,.66-.25A3.69,3.69,0,0,0,37.74,45.52ZM29.9,51.84a.36.36,0,0,0-.39-.29.34.34,0,0,0-.35.29c0,.1,0,.2,0,.29v2.33a.92.92,0,0,0,0,.29.36.36,0,0,0,.45.29c.24-.06.29-.24.3-.45V53.3h0v-.74A4.33,4.33,0,0,0,29.9,51.84Zm13.27-6.26c0-.28-.18-.35-.57-.34s-.14.23-.16.35a1.29,1.29,0,0,0,0,.34v.59s0,.11.07.15a.51.51,0,0,0,.68-.38A2.42,2.42,0,0,0,43.17,45.58ZM59.68,47c0-.38,0-.75,0-1.12a1.61,1.61,0,0,0,0-.31.38.38,0,0,0-.75,0,2.35,2.35,0,0,0,0,.26c0,.78,0,1.56,0,2.33a1.73,1.73,0,0,0,0,.32.32.32,0,0,0,.34.27.33.33,0,0,0,.37-.27,1.36,1.36,0,0,0,0-.29C59.69,47.74,59.68,47.34,59.68,47ZM29.9,51.84a.36.36,0,0,0-.39-.29.34.34,0,0,0-.35.29c0,.1,0,.2,0,.29v2.33a.92.92,0,0,0,0,.29.36.36,0,0,0,.45.29c.24-.06.29-.24.3-.45V53.3h0v-.74A4.33,4.33,0,0,0,29.9,51.84Zm7.84-6.32c0-.24-.23-.31-.57-.27s-.12.21-.14.32a3.84,3.84,0,0,0,0,.48v.6c0,.06,0,.13,0,.17a.51.51,0,0,0,.66-.25A3.69,3.69,0,0,0,37.74,45.52Zm5.43.06c0-.28-.18-.35-.57-.34s-.14.23-.16.35a1.29,1.29,0,0,0,0,.34v.59s0,.11.07.15a.51.51,0,0,0,.68-.38A2.42,2.42,0,0,0,43.17,45.58Zm4.22,2c-.11-.7-.22-1.4-.32-2.09h0l-.27,1.77c-.07.53-.07.53.49.49C47.39,47.79,47.4,47.74,47.39,47.62ZM51.47,52a.39.39,0,0,0-.6-.36.47.47,0,0,0-.17.45c0,.82,0,1.65,0,2.48a.92.92,0,0,0,0,.29.32.32,0,0,0,.33.21.32.32,0,0,0,.35-.19.79.79,0,0,0,.06-.34c0-.4,0-.81,0-1.22h0C51.47,52.85,51.49,52.41,51.47,52Zm5,2c-.11-.7-.22-1.41-.32-2.11h0l-.27,1.75c-.07.55-.07.55.5.51C56.49,54.14,56.52,54.11,56.5,54Zm.35-8c0-.62-.08-.73-.58-.71-.12,0-.18,0-.18.16,0,.37,0,.74,0,1.11,0,.07,0,.14.08.16a.49.49,0,0,0,.67-.45A2.43,2.43,0,0,0,56.85,46Zm2.83,1c0-.38,0-.75,0-1.12a1.61,1.61,0,0,0,0-.31.38.38,0,0,0-.75,0,2.35,2.35,0,0,0,0,.26c0,.78,0,1.56,0,2.33a1.73,1.73,0,0,0,0,.32.32.32,0,0,0,.34.27.33.33,0,0,0,.37-.27,1.36,1.36,0,0,0,0-.29C59.69,47.74,59.68,47.34,59.68,47Zm3.09,5c0-.26-.22-.34-.6-.31s-.11.23-.14.35a1.13,1.13,0,0,0,0,.26v.45c0,.07,0,.14.09.16a.5.5,0,0,0,.67-.46A1.7,1.7,0,0,0,62.77,51.91Zm-.56,1.6c-.13,0-.19,0-.18.18v1.13c0,.07,0,.14.08.17a.51.51,0,0,0,.74-.5V54.3C62.85,53.62,62.74,53.49,62.21,53.51Zm4.36-.2V52.09a.92.92,0,0,0,0-.29.32.32,0,0,0-.36-.25.33.33,0,0,0-.35.26,2.6,2.6,0,0,0,0,.26v2.46a2,2,0,0,0,0,.24.33.33,0,0,0,.37.27c.24,0,.37-.14.38-.44S66.57,53.74,66.57,53.31Zm0,0V52.09a.92.92,0,0,0,0-.29.32.32,0,0,0-.36-.25.33.33,0,0,0-.35.26,2.6,2.6,0,0,0,0,.26v2.46a2,2,0,0,0,0,.24.33.33,0,0,0,.37.27c.24,0,.37-.14.38-.44S66.57,53.74,66.57,53.31Zm-4.36.2c-.13,0-.19,0-.18.18v1.13c0,.07,0,.14.08.17a.51.51,0,0,0,.74-.5V54.3C62.85,53.62,62.74,53.49,62.21,53.51Zm.56-1.6c0-.26-.22-.34-.6-.31s-.11.23-.14.35a1.13,1.13,0,0,0,0,.26v.45c0,.07,0,.14.09.16a.5.5,0,0,0,.67-.46A1.7,1.7,0,0,0,62.77,51.91Zm-5.92-6c0-.62-.08-.73-.58-.71-.12,0-.18,0-.18.16,0,.37,0,.74,0,1.11,0,.07,0,.14.08.16a.49.49,0,0,0,.67-.45A2.43,2.43,0,0,0,56.85,46Zm-.35,8c-.11-.7-.22-1.41-.32-2.11h0l-.27,1.75c-.07.55-.07.55.5.51C56.49,54.14,56.52,54.11,56.5,54Zm-5-2a.39.39,0,0,0-.6-.36.47.47,0,0,0-.17.45c0,.82,0,1.65,0,2.48a.92.92,0,0,0,0,.29.32.32,0,0,0,.33.21.32.32,0,0,0,.35-.19.79.79,0,0,0,.06-.34c0-.4,0-.81,0-1.22h0C51.47,52.85,51.49,52.41,51.47,52Zm-4.08-4.35c-.11-.7-.22-1.4-.32-2.09h0l-.27,1.77c-.07.53-.07.53.49.49C47.39,47.79,47.4,47.74,47.39,47.62Zm-9.65-2.1c0-.24-.23-.31-.57-.27s-.12.21-.14.32a3.84,3.84,0,0,0,0,.48v.6c0,.06,0,.13,0,.17a.51.51,0,0,0,.66-.25A3.69,3.69,0,0,0,37.74,45.52ZM29.9,51.84a.36.36,0,0,0-.39-.29.34.34,0,0,0-.35.29c0,.1,0,.2,0,.29v2.33a.92.92,0,0,0,0,.29.36.36,0,0,0,.45.29c.24-.06.29-.24.3-.45V53.3h0v-.74A4.33,4.33,0,0,0,29.9,51.84Zm13.27-6.26c0-.28-.18-.35-.57-.34s-.14.23-.16.35a1.29,1.29,0,0,0,0,.34v.59s0,.11.07.15a.51.51,0,0,0,.68-.38A2.42,2.42,0,0,0,43.17,45.58ZM59.68,47c0-.38,0-.75,0-1.12a1.61,1.61,0,0,0,0-.31.38.38,0,0,0-.75,0,2.35,2.35,0,0,0,0,.26c0,.78,0,1.56,0,2.33a1.73,1.73,0,0,0,0,.32.32.32,0,0,0,.34.27.33.33,0,0,0,.37-.27,1.36,1.36,0,0,0,0-.29C59.69,47.74,59.68,47.34,59.68,47ZM29.9,51.84a.36.36,0,0,0-.39-.29.34.34,0,0,0-.35.29c0,.1,0,.2,0,.29v2.33a.92.92,0,0,0,0,.29.36.36,0,0,0,.45.29c.24-.06.29-.24.3-.45V53.3h0v-.74A4.33,4.33,0,0,0,29.9,51.84Zm7.84-6.32c0-.24-.23-.31-.57-.27s-.12.21-.14.32a3.84,3.84,0,0,0,0,.48v.6c0,.06,0,.13,0,.17a.51.51,0,0,0,.66-.25A3.69,3.69,0,0,0,37.74,45.52Zm5.43.06c0-.28-.18-.35-.57-.34s-.14.23-.16.35a1.29,1.29,0,0,0,0,.34v.59s0,.11.07.15a.51.51,0,0,0,.68-.38A2.42,2.42,0,0,0,43.17,45.58Zm4.22,2c-.11-.7-.22-1.4-.32-2.09h0l-.27,1.77c-.07.53-.07.53.49.49C47.39,47.79,47.4,47.74,47.39,47.62ZM51.47,52a.39.39,0,0,0-.6-.36.47.47,0,0,0-.17.45c0,.82,0,1.65,0,2.48a.92.92,0,0,0,0,.29.32.32,0,0,0,.33.21.32.32,0,0,0,.35-.19.79.79,0,0,0,.06-.34c0-.4,0-.81,0-1.22h0C51.47,52.85,51.49,52.41,51.47,52Zm5,2c-.11-.7-.22-1.41-.32-2.11h0l-.27,1.75c-.07.55-.07.55.5.51C56.49,54.14,56.52,54.11,56.5,54Zm.35-8c0-.62-.08-.73-.58-.71-.12,0-.18,0-.18.16,0,.37,0,.74,0,1.11,0,.07,0,.14.08.16a.49.49,0,0,0,.67-.45A2.43,2.43,0,0,0,56.85,46Zm2.83,1c0-.38,0-.75,0-1.12a1.61,1.61,0,0,0,0-.31.38.38,0,0,0-.75,0,2.35,2.35,0,0,0,0,.26c0,.78,0,1.56,0,2.33a1.73,1.73,0,0,0,0,.32.32.32,0,0,0,.34.27.33.33,0,0,0,.37-.27,1.36,1.36,0,0,0,0-.29C59.69,47.74,59.68,47.34,59.68,47Zm3.09,5c0-.26-.22-.34-.6-.31s-.11.23-.14.35a1.13,1.13,0,0,0,0,.26v.45c0,.07,0,.14.09.16a.5.5,0,0,0,.67-.46A1.7,1.7,0,0,0,62.77,51.91Zm-.56,1.6c-.13,0-.19,0-.18.18v1.13c0,.07,0,.14.08.17a.51.51,0,0,0,.74-.5V54.3C62.85,53.62,62.74,53.49,62.21,53.51Zm4.36-.2V52.09a.92.92,0,0,0,0-.29.32.32,0,0,0-.36-.25.33.33,0,0,0-.35.26,2.6,2.6,0,0,0,0,.26v2.46a2,2,0,0,0,0,.24.33.33,0,0,0,.37.27c.24,0,.37-.14.38-.44S66.57,53.74,66.57,53.31Zm0,0V52.09a.92.92,0,0,0,0-.29.32.32,0,0,0-.36-.25.33.33,0,0,0-.35.26,2.6,2.6,0,0,0,0,.26v2.46a2,2,0,0,0,0,.24.33.33,0,0,0,.37.27c.24,0,.37-.14.38-.44S66.57,53.74,66.57,53.31Zm-4.36.2c-.13,0-.19,0-.18.18v1.13c0,.07,0,.14.08.17a.51.51,0,0,0,.74-.5V54.3C62.85,53.62,62.74,53.49,62.21,53.51Zm.56-1.6c0-.26-.22-.34-.6-.31s-.11.23-.14.35a1.13,1.13,0,0,0,0,.26v.45c0,.07,0,.14.09.16a.5.5,0,0,0,.67-.46A1.7,1.7,0,0,0,62.77,51.91Zm-5.92-6c0-.62-.08-.73-.58-.71-.12,0-.18,0-.18.16,0,.37,0,.74,0,1.11,0,.07,0,.14.08.16a.49.49,0,0,0,.67-.45A2.43,2.43,0,0,0,56.85,46Zm-.35,8c-.11-.7-.22-1.41-.32-2.11h0l-.27,1.75c-.07.55-.07.55.5.51C56.49,54.14,56.52,54.11,56.5,54Zm-5-2a.39.39,0,0,0-.6-.36.47.47,0,0,0-.17.45c0,.82,0,1.65,0,2.48a.92.92,0,0,0,0,.29.32.32,0,0,0,.33.21.32.32,0,0,0,.35-.19.79.79,0,0,0,.06-.34c0-.4,0-.81,0-1.22h0C51.47,52.85,51.49,52.41,51.47,52Zm-4.08-4.35c-.11-.7-.22-1.4-.32-2.09h0l-.27,1.77c-.07.53-.07.53.49.49C47.39,47.79,47.4,47.74,47.39,47.62Zm-9.65-2.1c0-.24-.23-.31-.57-.27s-.12.21-.14.32a3.84,3.84,0,0,0,0,.48v.6c0,.06,0,.13,0,.17a.51.51,0,0,0,.66-.25A3.69,3.69,0,0,0,37.74,45.52ZM29.9,51.84a.36.36,0,0,0-.39-.29.34.34,0,0,0-.35.29c0,.1,0,.2,0,.29v2.33a.92.92,0,0,0,0,.29.36.36,0,0,0,.45.29c.24-.06.29-.24.3-.45V53.3h0v-.74A4.33,4.33,0,0,0,29.9,51.84Zm13.27-6.26c0-.28-.18-.35-.57-.34s-.14.23-.16.35a1.29,1.29,0,0,0,0,.34v.59s0,.11.07.15a.51.51,0,0,0,.68-.38A2.42,2.42,0,0,0,43.17,45.58ZM59.68,47c0-.38,0-.75,0-1.12a1.61,1.61,0,0,0,0-.31.38.38,0,0,0-.75,0,2.35,2.35,0,0,0,0,.26c0,.78,0,1.56,0,2.33a1.73,1.73,0,0,0,0,.32.32.32,0,0,0,.34.27.33.33,0,0,0,.37-.27,1.36,1.36,0,0,0,0-.29C59.69,47.74,59.68,47.34,59.68,47ZM29.9,51.84a.36.36,0,0,0-.39-.29.34.34,0,0,0-.35.29c0,.1,0,.2,0,.29v2.33a.92.92,0,0,0,0,.29.36.36,0,0,0,.45.29c.24-.06.29-.24.3-.45V53.3h0v-.74A4.33,4.33,0,0,0,29.9,51.84Zm7.84-6.32c0-.24-.23-.31-.57-.27s-.12.21-.14.32a3.84,3.84,0,0,0,0,.48v.6c0,.06,0,.13,0,.17a.51.51,0,0,0,.66-.25A3.69,3.69,0,0,0,37.74,45.52Zm5.43.06c0-.28-.18-.35-.57-.34s-.14.23-.16.35a1.29,1.29,0,0,0,0,.34v.59s0,.11.07.15a.51.51,0,0,0,.68-.38A2.42,2.42,0,0,0,43.17,45.58Zm4.22,2c-.11-.7-.22-1.4-.32-2.09h0l-.27,1.77c-.07.53-.07.53.49.49C47.39,47.79,47.4,47.74,47.39,47.62ZM51.47,52a.39.39,0,0,0-.6-.36.47.47,0,0,0-.17.45c0,.82,0,1.65,0,2.48a.92.92,0,0,0,0,.29.32.32,0,0,0,.33.21.32.32,0,0,0,.35-.19.79.79,0,0,0,.06-.34c0-.4,0-.81,0-1.22h0C51.47,52.85,51.49,52.41,51.47,52Zm5,2c-.11-.7-.22-1.41-.32-2.11h0l-.27,1.75c-.07.55-.07.55.5.51C56.49,54.14,56.52,54.11,56.5,54Zm.35-8c0-.62-.08-.73-.58-.71-.12,0-.18,0-.18.16,0,.37,0,.74,0,1.11,0,.07,0,.14.08.16a.49.49,0,0,0,.67-.45A2.43,2.43,0,0,0,56.85,46Zm2.83,1c0-.38,0-.75,0-1.12a1.61,1.61,0,0,0,0-.31.38.38,0,0,0-.75,0,2.35,2.35,0,0,0,0,.26c0,.78,0,1.56,0,2.33a1.73,1.73,0,0,0,0,.32.32.32,0,0,0,.34.27.33.33,0,0,0,.37-.27,1.36,1.36,0,0,0,0-.29C59.69,47.74,59.68,47.34,59.68,47Zm3.09,5c0-.26-.22-.34-.6-.31s-.11.23-.14.35a1.13,1.13,0,0,0,0,.26v.45c0,.07,0,.14.09.16a.5.5,0,0,0,.67-.46A1.7,1.7,0,0,0,62.77,51.91Zm-.56,1.6c-.13,0-.19,0-.18.18v1.13c0,.07,0,.14.08.17a.51.51,0,0,0,.74-.5V54.3C62.85,53.62,62.74,53.49,62.21,53.51Zm4.36-.2V52.09a.92.92,0,0,0,0-.29.32.32,0,0,0-.36-.25.33.33,0,0,0-.35.26,2.6,2.6,0,0,0,0,.26v2.46a2,2,0,0,0,0,.24.33.33,0,0,0,.37.27c.24,0,.37-.14.38-.44S66.57,53.74,66.57,53.31Zm0,0V52.09a.92.92,0,0,0,0-.29.32.32,0,0,0-.36-.25.33.33,0,0,0-.35.26,2.6,2.6,0,0,0,0,.26v2.46a2,2,0,0,0,0,.24.33.33,0,0,0,.37.27c.24,0,.37-.14.38-.44S66.57,53.74,66.57,53.31Zm-4.36.2c-.13,0-.19,0-.18.18v1.13c0,.07,0,.14.08.17a.51.51,0,0,0,.74-.5V54.3C62.85,53.62,62.74,53.49,62.21,53.51Zm.56-1.6c0-.26-.22-.34-.6-.31s-.11.23-.14.35a1.13,1.13,0,0,0,0,.26v.45c0,.07,0,.14.09.16a.5.5,0,0,0,.67-.46A1.7,1.7,0,0,0,62.77,51.91Zm-5.92-6c0-.62-.08-.73-.58-.71-.12,0-.18,0-.18.16,0,.37,0,.74,0,1.11,0,.07,0,.14.08.16a.49.49,0,0,0,.67-.45A2.43,2.43,0,0,0,56.85,46Zm-.35,8c-.11-.7-.22-1.41-.32-2.11h0l-.27,1.75c-.07.55-.07.55.5.51C56.49,54.14,56.52,54.11,56.5,54Zm-5-2a.39.39,0,0,0-.6-.36.47.47,0,0,0-.17.45c0,.82,0,1.65,0,2.48a.92.92,0,0,0,0,.29.32.32,0,0,0,.33.21.32.32,0,0,0,.35-.19.79.79,0,0,0,.06-.34c0-.4,0-.81,0-1.22h0C51.47,52.85,51.49,52.41,51.47,52Zm-4.08-4.35c-.11-.7-.22-1.4-.32-2.09h0l-.27,1.77c-.07.53-.07.53.49.49C47.39,47.79,47.4,47.74,47.39,47.62Zm-9.65-2.1c0-.24-.23-.31-.57-.27s-.12.21-.14.32a3.84,3.84,0,0,0,0,.48v.6c0,.06,0,.13,0,.17a.51.51,0,0,0,.66-.25A3.69,3.69,0,0,0,37.74,45.52ZM29.9,51.84a.36.36,0,0,0-.39-.29.34.34,0,0,0-.35.29c0,.1,0,.2,0,.29v2.33a.92.92,0,0,0,0,.29.36.36,0,0,0,.45.29c.24-.06.29-.24.3-.45V53.3h0v-.74A4.33,4.33,0,0,0,29.9,51.84Zm13.27-6.26c0-.28-.18-.35-.57-.34s-.14.23-.16.35a1.29,1.29,0,0,0,0,.34v.59s0,.11.07.15a.51.51,0,0,0,.68-.38A2.42,2.42,0,0,0,43.17,45.58ZM59.68,47c0-.38,0-.75,0-1.12a1.61,1.61,0,0,0,0-.31.38.38,0,0,0-.75,0,2.35,2.35,0,0,0,0,.26c0,.78,0,1.56,0,2.33a1.73,1.73,0,0,0,0,.32.32.32,0,0,0,.34.27.33.33,0,0,0,.37-.27,1.36,1.36,0,0,0,0-.29C59.69,47.74,59.68,47.34,59.68,47ZM29.9,51.84a.36.36,0,0,0-.39-.29.34.34,0,0,0-.35.29c0,.1,0,.2,0,.29v2.33a.92.92,0,0,0,0,.29.36.36,0,0,0,.45.29c.24-.06.29-.24.3-.45V53.3h0v-.74A4.33,4.33,0,0,0,29.9,51.84Zm7.84-6.32c0-.24-.23-.31-.57-.27s-.12.21-.14.32a3.84,3.84,0,0,0,0,.48v.6c0,.06,0,.13,0,.17a.51.51,0,0,0,.66-.25A3.69,3.69,0,0,0,37.74,45.52Zm5.43.06c0-.28-.18-.35-.57-.34s-.14.23-.16.35a1.29,1.29,0,0,0,0,.34v.59s0,.11.07.15a.51.51,0,0,0,.68-.38A2.42,2.42,0,0,0,43.17,45.58Zm4.22,2c-.11-.7-.22-1.4-.32-2.09h0l-.27,1.77c-.07.53-.07.53.49.49C47.39,47.79,47.4,47.74,47.39,47.62ZM51.47,52a.39.39,0,0,0-.6-.36.47.47,0,0,0-.17.45c0,.82,0,1.65,0,2.48a.92.92,0,0,0,0,.29.32.32,0,0,0,.33.21.32.32,0,0,0,.35-.19.79.79,0,0,0,.06-.34c0-.4,0-.81,0-1.22h0C51.47,52.85,51.49,52.41,51.47,52Zm5,2c-.11-.7-.22-1.41-.32-2.11h0l-.27,1.75c-.07.55-.07.55.5.51C56.49,54.14,56.52,54.11,56.5,54Zm.35-8c0-.62-.08-.73-.58-.71-.12,0-.18,0-.18.16,0,.37,0,.74,0,1.11,0,.07,0,.14.08.16a.49.49,0,0,0,.67-.45A2.43,2.43,0,0,0,56.85,46Zm2.83,1c0-.38,0-.75,0-1.12a1.61,1.61,0,0,0,0-.31.38.38,0,0,0-.75,0,2.35,2.35,0,0,0,0,.26c0,.78,0,1.56,0,2.33a1.73,1.73,0,0,0,0,.32.32.32,0,0,0,.34.27.33.33,0,0,0,.37-.27,1.36,1.36,0,0,0,0-.29C59.69,47.74,59.68,47.34,59.68,47Zm3.09,5c0-.26-.22-.34-.6-.31s-.11.23-.14.35a1.13,1.13,0,0,0,0,.26v.45c0,.07,0,.14.09.16a.5.5,0,0,0,.67-.46A1.7,1.7,0,0,0,62.77,51.91Zm-.56,1.6c-.13,0-.19,0-.18.18v1.13c0,.07,0,.14.08.17a.51.51,0,0,0,.74-.5V54.3C62.85,53.62,62.74,53.49,62.21,53.51Zm4.36-.2V52.09a.92.92,0,0,0,0-.29.32.32,0,0,0-.36-.25.33.33,0,0,0-.35.26,2.6,2.6,0,0,0,0,.26v2.46a2,2,0,0,0,0,.24.33.33,0,0,0,.37.27c.24,0,.37-.14.38-.44S66.57,53.74,66.57,53.31ZM88.79,48.1c-.23.78-.42,1.57-.63,2.33-.19-.74-.4-1.51-.61-2.27,0-.1-.06-.19-.17-.21.25.95.5,1.91.76,2.87a.29.29,0,0,0,.1-.21c.23-.84.45-1.68.67-2.52,0-.1,0-.21.19-.2C88.88,47.79,88.83,48,88.79,48.1Zm0,0c-.23.78-.42,1.57-.63,2.33-.19-.74-.4-1.51-.61-2.27,0-.1-.06-.19-.17-.21.25.95.5,1.91.76,2.87a.29.29,0,0,0,.1-.21c.23-.84.45-1.68.67-2.52,0-.1,0-.21.19-.2C88.88,47.79,88.83,48,88.79,48.1ZM66.57,53.31V52.09a.92.92,0,0,0,0-.29.32.32,0,0,0-.36-.25.33.33,0,0,0-.35.26,2.6,2.6,0,0,0,0,.26v2.46a2,2,0,0,0,0,.24.33.33,0,0,0,.37.27c.24,0,.37-.14.38-.44S66.57,53.74,66.57,53.31Zm-4.36.2c-.13,0-.19,0-.18.18v1.13c0,.07,0,.14.08.17a.51.51,0,0,0,.74-.5V54.3C62.85,53.62,62.74,53.49,62.21,53.51ZM62,52.21v.45c0,.07,0,.14.09.16a.5.5,0,0,0,.67-.46,1.7,1.7,0,0,0,0-.45c0-.26-.22-.34-.6-.31s-.11.23-.14.35A1.13,1.13,0,0,0,62,52.21ZM56.85,46c0-.62-.08-.73-.58-.71-.12,0-.18,0-.18.16,0,.37,0,.74,0,1.11,0,.07,0,.14.08.16a.49.49,0,0,0,.67-.45A2.43,2.43,0,0,0,56.85,46Zm-.35,8c-.11-.7-.22-1.41-.32-2.11h0l-.27,1.75c-.07.55-.07.55.5.51C56.49,54.14,56.52,54.11,56.5,54Zm-5-2a.39.39,0,0,0-.6-.36.47.47,0,0,0-.17.45c0,.82,0,1.65,0,2.48a.92.92,0,0,0,0,.29.32.32,0,0,0,.33.21.32.32,0,0,0,.35-.19.79.79,0,0,0,.06-.34c0-.4,0-.81,0-1.22h0C51.47,52.85,51.49,52.41,51.47,52Zm-4.08-4.35c-.11-.7-.22-1.4-.32-2.09h0l-.27,1.77c-.07.53-.07.53.49.49C47.39,47.79,47.4,47.74,47.39,47.62Zm-9.65-2.1c0-.24-.23-.31-.57-.27s-.12.21-.14.32a3.84,3.84,0,0,0,0,.48v.6c0,.06,0,.13,0,.17a.51.51,0,0,0,.66-.25A3.69,3.69,0,0,0,37.74,45.52ZM29.9,51.84a.36.36,0,0,0-.39-.29.34.34,0,0,0-.35.29c0,.1,0,.2,0,.29v2.33a.92.92,0,0,0,0,.29.36.36,0,0,0,.45.29c.24-.06.29-.24.3-.45V53.3h0v-.74A4.33,4.33,0,0,0,29.9,51.84Zm13.27-6.26c0-.28-.18-.35-.57-.34s-.14.23-.16.35a1.29,1.29,0,0,0,0,.34v.59s0,.11.07.15a.51.51,0,0,0,.68-.38A2.42,2.42,0,0,0,43.17,45.58ZM59.68,47c0-.38,0-.75,0-1.12a1.61,1.61,0,0,0,0-.31.38.38,0,0,0-.75,0,2.35,2.35,0,0,0,0,.26c0,.78,0,1.56,0,2.33a1.73,1.73,0,0,0,0,.32.32.32,0,0,0,.34.27.33.33,0,0,0,.37-.27,1.36,1.36,0,0,0,0-.29C59.69,47.74,59.68,47.34,59.68,47ZM91.73,41.8h-76c0,.24.26.2.4.22a10.35,10.35,0,0,1,1.82.47,8.38,8.38,0,0,1,5,4.54,7.17,7.17,0,0,1-.19,6.34A8.24,8.24,0,0,1,19.07,57a9.82,9.82,0,0,1-3.22,1c-.12,0-.25,0-.29.18a.83.83,0,0,0,.35,0H91.68a.65.65,0,0,0,.31,0q0-8.06,0-16.1C92,41.86,92,41.8,91.73,41.8Zm-26.4,2.75c.23,0,.52-.06.67.05s.15.41.21.63c.15.58.31,1.16.46,1.74,0,.08,0,.16.07.24h.05V44.88c0-.1-.07-.27.06-.3a2.25,2.25,0,0,1,.58,0c.06,0,0,.11,0,.17v4.39c0,.15,0,.2-.19.2-.58,0-.58,0-.73-.55-.25-.91-.49-1.82-.74-2.75a.56.56,0,0,0,0,.3v2.75c0,.18,0,.25-.22.25-.46,0-.46,0-.46-.46,0-1.35,0-2.7,0-4C65.08,44.64,65.11,44.53,65.33,44.55Zm-7.46-.73c.07-.07.1,0,.15.06a2.11,2.11,0,0,0,.52.42,1.82,1.82,0,0,0-.1-.73c0-.06,0-.1,0-.12a.07.07,0,0,1,.09.08c0,.25.21.41.34.68l.29-1c0-.09-.05-.13-.07-.19a.12.12,0,0,1,0-.14.12.12,0,0,1,.17,0s.09.09.06.13c-.15.26,0,.48.08.71s.1.31.16.52c.14-.28.33-.45.36-.72a.08.08,0,0,1,.11-.07c.06,0,.05.07,0,.11-.14.21-.07.44-.11.72a1.76,1.76,0,0,0,.53-.42c0-.06.07-.12.14-.06s0,.1-.05.14a4.37,4.37,0,0,0-.43.9.13.13,0,0,0,0,.1,1.83,1.83,0,0,1,.18,1c0,.74,0,1.48,0,2.22a1.11,1.11,0,0,1-1.52,1.14,1,1,0,0,1-.76-1c0-.93,0-1.87,0-2.8a1,1,0,0,1,.07-.34c.28-.5-.12-.85-.29-1.24C57.91,43.91,57.8,43.89,57.87,43.82Zm-5.39,1.8a1.12,1.12,0,0,1,2.24-.12,1.49,1.49,0,0,1,0,.21c0,.57,0,.44-.45.47-.23,0-.3-.07-.27-.28a1.79,1.79,0,0,0,0-.4.34.34,0,0,0-.37-.31.34.34,0,0,0-.37.31.78.78,0,0,0,0,.16v2.56a.43.43,0,0,0,.16.4.38.38,0,0,0,.61-.29c0-.21,0-.42,0-.63s0-.17.14-.16h.06c.64,0,.51-.08.52.51v.21a1.12,1.12,0,0,1-1.6,1.05,1,1,0,0,1-.66-1V45.62ZM41.92,44.55c.35,0,.71,0,1.06,0a.92.92,0,0,1,1,1c0,.18,0,.36,0,.53a1,1,0,0,1-.48.92,1,1,0,0,1,.48.91,8.33,8.33,0,0,0,0,1.32c0,.09,0,.13-.1.12h0c-.72,0-.64.15-.67-.62,0-.3,0-.6,0-.9a.5.5,0,0,0-.65-.44c-.13,0-.1.13-.1.21,0,.51,0,1,0,1.53,0,.17,0,.23-.23.23-.53,0-.53,0-.53-.53,0-1.34,0-2.67,0-4C41.67,44.6,41.72,44.54,41.92,44.55Zm-2.65,0c.52,0,1,0,1.58,0,.18,0,.25,0,.24.23,0,.47,0,.47-.45.47H40c-.13,0-.17,0-.17.17,0,.33,0,.66,0,1,0,.14,0,.19.19.18h.68c.12,0,.17,0,.18.16,0,.53,0,.53-.5.53s-.55,0-.55.55a5.81,5.81,0,0,1,0,.59c0,.21.06.25.26.24s.58,0,.87,0c.13,0,.18,0,.18.18,0,.52,0,.52-.48.52H39.23c-.16,0-.21,0-.2-.21V47c0-.71,0-1.43,0-2.14C39,44.62,39.05,44.54,39.27,44.55Zm-8,0c.56,0,.56,0,.56.55,0,1.31,0,2.62,0,3.94,0,.22-.05.3-.29.29-.47,0-.47,0-.47-.47V46.93c0-.72,0-1.44,0-2.16C31,44.61,31.06,44.55,31.23,44.55ZM27.72,55.68c-.43,0-.86,0-1.29,0-.18,0-.22-.06-.22-.23,0-.72,0-1.44,0-2.16s0-1.45,0-2.17c0-.18.05-.22.22-.22.53,0,.53,0,.53.54,0,1.08,0,2.17,0,3.25,0,.22,0,.32.29.3s.51,0,.76,0,.2,0,.21.19C28.23,55.68,28.24,55.68,27.72,55.68Zm3-1.07a1.15,1.15,0,0,1-1.78,1,1,1,0,0,1-.5-.9c0-.93,0-1.85,0-2.78a1.14,1.14,0,0,1,2.27,0c0,.46,0,.93,0,1.4h0C30.67,53.74,30.68,54.17,30.67,54.61Zm2.49.19a1,1,0,0,1-1.21.93,1,1,0,0,1-1-1c0-.46,0-.93,0-1.4h0c0-.44,0-.88,0-1.32a1,1,0,0,1,1-1.12,1,1,0,0,1,1.25,1c0,.05,0,.09,0,.13,0,.55,0,.6-.57.54-.12,0-.15,0-.15-.16a3.85,3.85,0,0,0,0-.48.36.36,0,0,0-.39-.35.33.33,0,0,0-.36.34c0,.32,0,.63,0,1v1.7c0,.18,0,.37.22.47a.38.38,0,0,0,.55-.3c0-.29,0-.58,0-.87,0-.1-.05-.13-.13-.12s-.23-.07-.22-.24c0-.45,0-.45.44-.45.63,0,.64,0,.63.63A8.68,8.68,0,0,1,33.16,54.8Zm.87.89c-.51,0-.51,0-.51-.51V53.27c0-.71,0-1.42,0-2.14,0-.17,0-.22.21-.22.54,0,.54,0,.54.53,0,1.33,0,2.67,0,4C34.28,55.63,34.23,55.69,34,55.69Zm.45-6.85c-.07.49-.07.47-.56.49-.22,0-.26-.09-.29-.26-.14-.92-.29-1.83-.45-2.8a.63.63,0,0,0,0,.34v2.48c0,.19-.05.24-.23.24-.44,0-.44,0-.44-.43,0-1.37,0-2.73,0-4.1,0-.2,0-.26.24-.25s.59-.07.78.05.12.47.16.72c.14.84.28,1.67.45,2.5.15-1,.29-1.93.44-2.9,0-.36,0-.36.41-.36h.53c.14,0,.17,0,.17.18v4.39c0,.15,0,.2-.19.2-.53,0-.53,0-.53-.52v-2.5h-.06l-.33,2.21C34.51,48.63,34.49,48.73,34.48,48.84ZM36.12,52c0-.17,0-.34-.19-.44a.37.37,0,0,0-.57.25.88.88,0,0,0,.26.83c.23.24.48.46.72.7A1.63,1.63,0,0,1,36.77,55a1,1,0,0,1-1.11.77,1,1,0,0,1-1-.79,1.65,1.65,0,0,1,0-.31c0-.47,0-.37.37-.39s.34,0,.35.36.15.46.4.44.37-.19.36-.49a.89.89,0,0,0-.29-.63c-.22-.23-.47-.45-.7-.69a1.62,1.62,0,0,1-.44-1.62,1,1,0,0,1,1.16-.75,1,1,0,0,1,1,.81v0c.1.51-.08.67-.59.53C36.09,52.19,36.12,52.11,36.12,52Zm.16-3.25V46.91c0-.71,0-1.42,0-2.14,0-.18.06-.22.22-.22h1a1,1,0,0,1,1,.95,8.51,8.51,0,0,1,0,1,1,1,0,0,1-1,1c-.42,0-.42,0-.42.42s0,.8,0,1.19c0,.15,0,.2-.19.2C36.27,49.34,36.28,49.35,36.28,48.79ZM38.8,51.6c-.34,0-.34,0-.34.34,0,1.16,0,2.33,0,3.49,0,.2,0,.26-.24.26-.52,0-.52,0-.52-.51V53.61c0-.59,0-1.18,0-1.77,0-.2-.06-.27-.25-.24h-.21c-.29,0-.36-.07-.34-.34s0-.34.35-.35c.59,0,1.17,0,1.75,0,.18,0,.24,0,.24.23C39.24,51.6,39.25,51.6,38.8,51.6Zm1.14,4.08c-.54,0-.54,0-.54-.53v-4c0-.19,0-.26.24-.25.51,0,.51,0,.51.51v1.87c0,.73,0,1.45,0,2.17C40.16,55.63,40.11,55.68,39.94,55.68Zm2.83-1.26v.21a1.13,1.13,0,0,1-1.64,1,1,1,0,0,1-.61-1c0-.44,0-.9,0-1.34V52a1.12,1.12,0,0,1,2.24-.11.69.69,0,0,1,0,.13c0,.64.08.51-.52.53-.18,0-.21-.06-.21-.22a1.87,1.87,0,0,0,0-.47.37.37,0,0,0-.73,0,1.49,1.49,0,0,0,0,.21c0,.83,0,1.66,0,2.49,0,.2,0,.41.27.48a.38.38,0,0,0,.5-.36c0-.2,0-.4,0-.61s0-.16.16-.17C42.77,53.86,42.77,53.85,42.77,54.42ZM44,52.69l.68.66a1.63,1.63,0,0,1,.5,1.37,1,1,0,0,1-1,1,1,1,0,0,1-1.19-1v0c0-.48.14-.63.62-.51.1,0,.1.09.1.16s0,.21,0,.32A.32.32,0,0,0,44,55a.34.34,0,0,0,.38-.29.85.85,0,0,0-.24-.8c-.24-.25-.5-.48-.74-.73a1.61,1.61,0,0,1-.43-1.6c.13-.54.52-.78,1.17-.76a1,1,0,0,1,1,.82s0,.09,0,.13c.06.41.06.41-.39.41-.22.06-.32,0-.32-.3a.34.34,0,0,0-.39-.37.36.36,0,0,0-.37.37A.93.93,0,0,0,44,52.69Zm1.07-3.36c-.53,0-.53,0-.53-.54,0-1.33,0-2.66,0-4,0-.19,0-.25.25-.25.51,0,.51,0,.51.51v1.88c0,.72,0,1.44,0,2.17C45.3,49.28,45.25,49.33,45.07,49.33Zm.74,0c-.08,0,0-.12,0-.18.21-1.29.41-2.57.62-3.86,0,0,0-.09,0-.13.09-.57.09-.57.65-.57s.55,0,.63.53l.66,4c0,.16,0,.19-.16.2-.59,0-.6,0-.66-.56,0-.24-.08-.35-.36-.34-.6,0-.6,0-.7.6,0,.09,0,.26-.08.27A1.79,1.79,0,0,1,45.81,49.3Zm3.82,6.14c0,.2-.06.25-.25.25-.48,0-.48,0-.48-.47V52.68h-.06c-.06.38-.11.76-.17,1.14-.09.57-.18,1.13-.25,1.7,0,.14-.07.17-.2.17-.54,0-.55,0-.64-.5-.14-.83-.27-1.66-.41-2.52-.08.1-.05.19-.05.28q0,1.25,0,2.49c0,.18,0,.26-.24.26-.44,0-.44,0-.44-.44,0-1.35,0-2.71,0-4.07,0-.23.06-.29.28-.27a2.53,2.53,0,0,0,.55,0c.18,0,.25.05.27.22.12.8.26,1.59.39,2.38,0,.22.07.45.11.67h0c.15-1,.3-2,.44-3,0-.21.09-.31.32-.28s.58-.1.74.06,0,.47,0,.71C49.62,52.93,49.62,54.19,49.63,55.44Zm-.53-6.11c-.17,0-.23,0-.22-.22,0-.72,0-1.44,0-2.17s0-1.44,0-2.16c0-.17,0-.23.22-.23.53,0,.53,0,.53.54,0,1.09,0,2.19,0,3.28,0,.22.07.29.28.27s.53,0,.79,0,.18.06.18.19c0,.51,0,.51-.49.51Zm3.13,5.27a1.15,1.15,0,0,1-1.78,1,1,1,0,0,1-.5-.9c0-.92,0-1.85,0-2.77a1.14,1.14,0,0,1,2.27,0,.45.45,0,0,1,0,.11v1.3C52.23,53.74,52.24,54.17,52.23,54.6Zm2.51-.19a1.74,1.74,0,0,1-.12.75.94.94,0,0,1-.72.56c-.09,0-.16,0-.15.14s.1.08.16.09.36.1.36.33a.37.37,0,0,1-.36.39,1.63,1.63,0,0,1-.76,0,.32.32,0,0,1-.24-.28c0-.05,0-.13.06-.12s.33-.09.44.06a.2.2,0,0,0,.24.1.15.15,0,0,0,.1-.14c0-.13-.1-.17-.2-.18s-.14-.06-.13-.15,0-.18-.16-.22a1,1,0,0,1-.77-1c0-.92,0-1.85,0-2.78a1,1,0,0,1,1-1,1,1,0,0,1,1.23,1,1.49,1.49,0,0,1,0,.21c0,.6.07.47-.49.49-.18,0-.26,0-.23-.23s0-.21,0-.32c0-.29-.16-.43-.4-.43s-.37.13-.38.42c0,.45,0,.9,0,1.35h0c0,.42,0,.84,0,1.27,0,.2,0,.39.29.45a.38.38,0,0,0,.48-.36c0-.2,0-.4,0-.61s0-.18.18-.18C54.87,53.91,54.73,53.82,54.74,54.41Zm2.6,1.27c-.6,0-.61,0-.67-.57,0-.25-.11-.34-.37-.33-.59,0-.58,0-.68.56,0,.11,0,.29-.11.33a2.18,2.18,0,0,1-.57,0c-.11,0,0-.12,0-.18.15-1,.31-1.93.46-2.89.08-.47.17-.94.22-1.41,0-.24.12-.31.33-.28s.2,0,.3,0c.53,0,.53,0,.61.55.23,1.34.44,2.69.66,4C57.52,55.64,57.49,55.68,57.34,55.68Zm.24-6.36H57c-.16,0-.15-.13-.15-.23,0-.42,0-.83,0-1.24s-.18-.48-.55-.49c-.17,0-.21.06-.21.22,0,.5,0,1,0,1.5,0,.21-.06.25-.25.25-.51,0-.51,0-.51-.52,0-1.34,0-2.68,0-4,0-.17,0-.25.23-.24s.68,0,1,0a.93.93,0,0,1,1,1V46a1,1,0,0,1-.48.94,1,1,0,0,1,.48.89,8.71,8.71,0,0,0,.05,1.35C57.68,49.28,57.67,49.32,57.58,49.32Zm3.33,6.11c0,.21-.06.26-.27.25-.46,0-.46,0-.46-.45V53a.6.6,0,0,0,0-.33c-.1.67-.19,1.29-.29,1.91-.05.33-.11.66-.15,1,0,.12-.07.15-.18.15-.55,0-.56,0-.65-.51l-.39-2.38s0-.09,0-.11,0,.18,0,.27q0,1.23,0,2.46c0,.2,0,.31-.26.27H58c-.19,0-.24,0-.24-.23,0-1.44,0-2.87,0-4.31,0-.2.07-.25.24-.23a1.47,1.47,0,0,0,.21,0c.63,0,.62,0,.72.63l.42,2.63h0c.14-1,.3-2,.43-2.93,0-.24.09-.38.38-.34s.54-.09.68.05,0,.45,0,.68C60.91,52.9,60.9,54.17,60.91,55.43Zm2.67-.58a.92.92,0,0,1-.93.82c-.4,0-.81,0-1.22,0-.13,0-.16,0-.16-.17,0-1.47,0-2.94,0-4.42,0-.16.06-.18.2-.18.36,0,.73,0,1.09,0a.94.94,0,0,1,1,1c0,.46,0,.93-.47,1.21a1,1,0,0,1,.53,1A5.54,5.54,0,0,1,63.58,54.85Zm.12-5.52c-.22,0-.49.08-.64,0s-.08-.4-.11-.61c-.05-.45-.09-.89-.14-1.34a.83.83,0,0,0-.08-.35c-.08.74-.17,1.44-.23,2.14,0,.17-.08.2-.23.2a4.42,4.42,0,0,0-.63,0c-.16,0-.21,0-.23-.2-.11-1-.23-2.07-.35-3.1,0-.43-.08-.85-.14-1.27,0-.16,0-.2.18-.21.56,0,.54,0,.6.56.1,1,.22,2,.36,3l.27-2.89c0-.07,0-.14,0-.21,0-.49.06-.47.52-.5.25,0,.28.1.3.3.09,1,.19,2,.28,3a.8.8,0,0,0,.08.28c.08-.75.16-1.49.23-2.24,0-.38.08-.75.11-1.13,0-.16.08-.18.21-.18.47,0,.48,0,.43.43-.15,1.34-.3,2.68-.44,4C64.05,49.28,64,49.36,63.7,49.33Zm.73,6.35c-.51,0-.51,0-.51-.51,0-1.34,0-2.68,0-4,0-.21,0-.26.25-.25.51,0,.51,0,.51.51V53.3c0,.71,0,1.43,0,2.14C64.68,55.64,64.62,55.69,64.43,55.68Zm3,.29a.5.5,0,0,1-.54-.15.38.38,0,0,0-.41-.11A1.09,1.09,0,0,1,65,54.53c0-.83,0-1.65,0-2.47a1.11,1.11,0,0,1,1.54-1.15,1,1,0,0,1,.73,1c0,.48,0,1,0,1.45h0c0,.4,0,.8,0,1.19a1.57,1.57,0,0,1,0,.48c0,.14-.15.32.14.33.06,0,.06,0,.06.09a.85.85,0,0,1,0,.16C67.44,55.71,67.56,55.91,67.4,56Zm2.51-3.07v1.66a1.09,1.09,0,0,1-1.52,1.12.94.94,0,0,1-.71-1c0-.77,0-1.55,0-2.33,0-.4,0-.81,0-1.21,0-.19,0-.27.24-.26.51,0,.51,0,.51.5,0,1,0,2,0,3a1.72,1.72,0,0,0,0,.32.32.32,0,0,0,.37.29.32.32,0,0,0,.35-.32c0-.11,0-.23,0-.34q0-1.6,0-3.21c0-.2,0-.27.26-.26.47,0,.47,0,.47.45Zm1.89,2.78H70.43c-.17,0-.21,0-.21-.21,0-.73,0-1.45,0-2.17s0-1.45,0-2.18c0-.16,0-.23.22-.22.54,0,1.08,0,1.61,0,.18,0,.24,0,.24.23,0,.46,0,.46-.46.46h-.66c-.15,0-.2,0-.19.2,0,.32,0,.63,0,1,0,.14,0,.18.18.18h.69c.13,0,.17,0,.17.16,0,.53,0,.52-.5.52s-.54,0-.54.56c0,.19,0,.37,0,.56s0,.28.25.27.59,0,.88,0c.14,0,.18,0,.18.18C72.31,55.68,72.31,55.68,71.8,55.68Zm4.66-3.28c-.67,0-.67,0-.67-.67V48.16c0-.19,0-.28.25-.27.67,0,.67,0,.67.67v1.59c0,.66,0,1.32,0,2C76.72,52.33,76.68,52.41,76.46,52.4Zm4.69-1a1.78,1.78,0,0,1-1.9,1,1.9,1.9,0,0,1-1.7-1.31,2.92,2.92,0,0,1,0-2,2.09,2.09,0,0,1,3.07-.88,1.74,1.74,0,0,1,.61.87c.06.14,0,.19-.13.21l-.21,0c-.29.07-.53.14-.7-.26a.79.79,0,0,0-.89-.38,1,1,0,0,0-.86.61,2.1,2.1,0,0,0-.13.86,2.25,2.25,0,0,0,.09.73,1,1,0,0,0,1,.75.91.91,0,0,0,.93-.68c.08-.25.18-.3.4-.18l.1,0C81.41,50.92,81.41,50.92,81.15,51.43Zm3.73,1H82.45c-.19,0-.26,0-.26-.24q0-2,0-4c0-.2.06-.25.25-.25.67,0,.67,0,.67.67v1.22c0,.54,0,1.08,0,1.61,0,.2,0,.28.26.27h1.77c.21,0,.25.06.24.25C85.37,52.4,85.38,52.4,84.88,52.4Zm5.47-.19c0,.13,0,.18-.17.19-.69,0-.69,0-.69-.66,0-.87,0-1.74,0-2.61h-.07c-.07.3-.15.59-.22.89l-.54,2.18c0,.16-.09.21-.26.21-.68,0-.68,0-.84-.65-.21-.89-.43-1.77-.69-2.66,0,.08,0,.16,0,.24,0,.94,0,1.89,0,2.83,0,.18,0,.24-.23.24-.64,0-.64,0-.64-.63V48.33c0-.43,0-.43.43-.43h.74c.08,0,.18,0,.25.05-.09-.33-.17-.67-.26-1,0-.12,0-.17.12-.17h2c.17,0,.16.06.13.19-.09.3-.17.61-.25.92h1.06c.14,0,.19,0,.19.19Zm-2.11-1.6c.23-.84.45-1.68.67-2.52,0-.1,0-.21.19-.2-.22-.1-.27.06-.31.21-.23.78-.42,1.57-.63,2.33-.19-.74-.4-1.51-.61-2.27,0-.1-.06-.19-.17-.21.25.95.5,1.91.76,2.87A.29.29,0,0,0,88.24,50.61ZM66.57,52.09a.92.92,0,0,0,0-.29.32.32,0,0,0-.36-.25.33.33,0,0,0-.35.26,2.6,2.6,0,0,0,0,.26v2.46a2,2,0,0,0,0,.24.33.33,0,0,0,.37.27c.24,0,.37-.14.38-.44s0-.86,0-1.29Zm-4.36,1.42c-.13,0-.19,0-.18.18v1.13c0,.07,0,.14.08.17a.51.51,0,0,0,.74-.5V54.3C62.85,53.62,62.74,53.49,62.21,53.51ZM62,52.21v.45c0,.07,0,.14.09.16a.5.5,0,0,0,.67-.46,1.7,1.7,0,0,0,0-.45c0-.26-.22-.34-.6-.31s-.11.23-.14.35A1.13,1.13,0,0,0,62,52.21Zm-2.75-3.52a.33.33,0,0,0,.37-.27,1.36,1.36,0,0,0,0-.29c0-.39,0-.79,0-1.18s0-.75,0-1.12a1.61,1.61,0,0,0,0-.31.38.38,0,0,0-.75,0,2.35,2.35,0,0,0,0,.26c0,.78,0,1.56,0,2.33a1.73,1.73,0,0,0,0,.32A.32.32,0,0,0,59.28,48.69Zm-3-3.45c-.12,0-.18,0-.18.16,0,.37,0,.74,0,1.11,0,.07,0,.14.08.16a.49.49,0,0,0,.67-.45,2.43,2.43,0,0,0,0-.27C56.86,45.33,56.77,45.22,56.27,45.24Zm-.09,6.64h0l-.27,1.75c-.07.55-.07.55.5.51.12,0,.15,0,.13-.16C56.39,53.29,56.28,52.58,56.18,51.88ZM51.47,52a.39.39,0,0,0-.6-.36.47.47,0,0,0-.17.45c0,.82,0,1.65,0,2.48a.92.92,0,0,0,0,.29.32.32,0,0,0,.33.21.32.32,0,0,0,.35-.19.79.79,0,0,0,.06-.34c0-.4,0-.81,0-1.22h0C51.47,52.85,51.49,52.41,51.47,52Zm-4.22-4.18c.14,0,.15,0,.14-.17-.11-.7-.22-1.4-.32-2.09h0l-.27,1.77C46.69,47.83,46.69,47.83,47.25,47.79Zm-4.81-2.2a1.29,1.29,0,0,0,0,.34v.59s0,.11.07.15a.51.51,0,0,0,.68-.38,2.42,2.42,0,0,0,0-.71c0-.28-.18-.35-.57-.34S42.46,45.47,42.44,45.59Zm-5.41,0a3.84,3.84,0,0,0,0,.48v.6c0,.06,0,.13,0,.17a.51.51,0,0,0,.66-.25,3.69,3.69,0,0,0,0-1c0-.24-.23-.31-.57-.27S37.05,45.46,37,45.57ZM29.9,51.84a.36.36,0,0,0-.39-.29.34.34,0,0,0-.35.29c0,.1,0,.2,0,.29v2.33a.92.92,0,0,0,0,.29.36.36,0,0,0,.45.29c.24-.06.29-.24.3-.45V53.3h0v-.74A4.33,4.33,0,0,0,29.9,51.84ZM59.68,47c0-.38,0-.75,0-1.12a1.61,1.61,0,0,0,0-.31.38.38,0,0,0-.75,0,2.35,2.35,0,0,0,0,.26c0,.78,0,1.56,0,2.33a1.73,1.73,0,0,0,0,.32.32.32,0,0,0,.34.27.33.33,0,0,0,.37-.27,1.36,1.36,0,0,0,0-.29C59.69,47.74,59.68,47.34,59.68,47ZM43.17,45.58c0-.28-.18-.35-.57-.34s-.14.23-.16.35a1.29,1.29,0,0,0,0,.34v.59s0,.11.07.15a.51.51,0,0,0,.68-.38A2.42,2.42,0,0,0,43.17,45.58ZM29.9,51.84a.36.36,0,0,0-.39-.29.34.34,0,0,0-.35.29c0,.1,0,.2,0,.29v2.33a.92.92,0,0,0,0,.29.36.36,0,0,0,.45.29c.24-.06.29-.24.3-.45V53.3h0v-.74A4.33,4.33,0,0,0,29.9,51.84Zm7.84-6.32c0-.24-.23-.31-.57-.27s-.12.21-.14.32a3.84,3.84,0,0,0,0,.48v.6c0,.06,0,.13,0,.17a.51.51,0,0,0,.66-.25A3.69,3.69,0,0,0,37.74,45.52Zm9.65,2.1c-.11-.7-.22-1.4-.32-2.09h0l-.27,1.77c-.07.53-.07.53.49.49C47.39,47.79,47.4,47.74,47.39,47.62ZM51.47,52a.39.39,0,0,0-.6-.36.47.47,0,0,0-.17.45c0,.82,0,1.65,0,2.48a.92.92,0,0,0,0,.29.32.32,0,0,0,.33.21.32.32,0,0,0,.35-.19.79.79,0,0,0,.06-.34c0-.4,0-.81,0-1.22h0C51.47,52.85,51.49,52.41,51.47,52Zm5,2c-.11-.7-.22-1.41-.32-2.11h0l-.27,1.75c-.07.55-.07.55.5.51C56.49,54.14,56.52,54.11,56.5,54Zm.35-8c0-.62-.08-.73-.58-.71-.12,0-.18,0-.18.16,0,.37,0,.74,0,1.11,0,.07,0,.14.08.16a.49.49,0,0,0,.67-.45A2.43,2.43,0,0,0,56.85,46Zm5.92,6c0-.26-.22-.34-.6-.31s-.11.23-.14.35a1.13,1.13,0,0,0,0,.26v.45c0,.07,0,.14.09.16a.5.5,0,0,0,.67-.46A1.7,1.7,0,0,0,62.77,51.91Zm-.56,1.6c-.13,0-.19,0-.18.18v1.13c0,.07,0,.14.08.17a.51.51,0,0,0,.74-.5V54.3C62.85,53.62,62.74,53.49,62.21,53.51Zm4.36-.2V52.09a.92.92,0,0,0,0-.29.32.32,0,0,0-.36-.25.33.33,0,0,0-.35.26,2.6,2.6,0,0,0,0,.26v2.46a2,2,0,0,0,0,.24.33.33,0,0,0,.37.27c.24,0,.37-.14.38-.44S66.57,53.74,66.57,53.31Zm0,0V52.09a.92.92,0,0,0,0-.29.32.32,0,0,0-.36-.25.33.33,0,0,0-.35.26,2.6,2.6,0,0,0,0,.26v2.46a2,2,0,0,0,0,.24.33.33,0,0,0,.37.27c.24,0,.37-.14.38-.44S66.57,53.74,66.57,53.31Zm-4.36.2c-.13,0-.19,0-.18.18v1.13c0,.07,0,.14.08.17a.51.51,0,0,0,.74-.5V54.3C62.85,53.62,62.74,53.49,62.21,53.51Zm.56-1.6c0-.26-.22-.34-.6-.31s-.11.23-.14.35a1.13,1.13,0,0,0,0,.26v.45c0,.07,0,.14.09.16a.5.5,0,0,0,.67-.46A1.7,1.7,0,0,0,62.77,51.91Zm-3.09-5c0-.38,0-.75,0-1.12a1.61,1.61,0,0,0,0-.31.38.38,0,0,0-.75,0,2.35,2.35,0,0,0,0,.26c0,.78,0,1.56,0,2.33a1.73,1.73,0,0,0,0,.32.32.32,0,0,0,.34.27.33.33,0,0,0,.37-.27,1.36,1.36,0,0,0,0-.29C59.69,47.74,59.68,47.34,59.68,47Zm-2.83-1c0-.62-.08-.73-.58-.71-.12,0-.18,0-.18.16,0,.37,0,.74,0,1.11,0,.07,0,.14.08.16a.49.49,0,0,0,.67-.45A2.43,2.43,0,0,0,56.85,46Zm-.35,8c-.11-.7-.22-1.41-.32-2.11h0l-.27,1.75c-.07.55-.07.55.5.51C56.49,54.14,56.52,54.11,56.5,54Zm-5-2a.39.39,0,0,0-.6-.36.47.47,0,0,0-.17.45c0,.82,0,1.65,0,2.48a.92.92,0,0,0,0,.29.32.32,0,0,0,.33.21.32.32,0,0,0,.35-.19.79.79,0,0,0,.06-.34c0-.4,0-.81,0-1.22h0C51.47,52.85,51.49,52.41,51.47,52Zm-4.08-4.35c-.11-.7-.22-1.4-.32-2.09h0l-.27,1.77c-.07.53-.07.53.49.49C47.39,47.79,47.4,47.74,47.39,47.62Zm-4.22-2c0-.28-.18-.35-.57-.34s-.14.23-.16.35a1.29,1.29,0,0,0,0,.34v.59s0,.11.07.15a.51.51,0,0,0,.68-.38A2.42,2.42,0,0,0,43.17,45.58Zm-5.43-.06c0-.24-.23-.31-.57-.27s-.12.21-.14.32a3.84,3.84,0,0,0,0,.48v.6c0,.06,0,.13,0,.17a.51.51,0,0,0,.66-.25A3.69,3.69,0,0,0,37.74,45.52ZM29.9,51.84a.36.36,0,0,0-.39-.29.34.34,0,0,0-.35.29c0,.1,0,.2,0,.29v2.33a.92.92,0,0,0,0,.29.36.36,0,0,0,.45.29c.24-.06.29-.24.3-.45V53.3h0v-.74A4.33,4.33,0,0,0,29.9,51.84ZM59.68,47c0-.38,0-.75,0-1.12a1.61,1.61,0,0,0,0-.31.38.38,0,0,0-.75,0,2.35,2.35,0,0,0,0,.26c0,.78,0,1.56,0,2.33a1.73,1.73,0,0,0,0,.32.32.32,0,0,0,.34.27.33.33,0,0,0,.37-.27,1.36,1.36,0,0,0,0-.29C59.69,47.74,59.68,47.34,59.68,47ZM43.17,45.58c0-.28-.18-.35-.57-.34s-.14.23-.16.35a1.29,1.29,0,0,0,0,.34v.59s0,.11.07.15a.51.51,0,0,0,.68-.38A2.42,2.42,0,0,0,43.17,45.58ZM29.9,51.84a.36.36,0,0,0-.39-.29.34.34,0,0,0-.35.29c0,.1,0,.2,0,.29v2.33a.92.92,0,0,0,0,.29.36.36,0,0,0,.45.29c.24-.06.29-.24.3-.45V53.3h0v-.74A4.33,4.33,0,0,0,29.9,51.84Zm7.84-6.32c0-.24-.23-.31-.57-.27s-.12.21-.14.32a3.84,3.84,0,0,0,0,.48v.6c0,.06,0,.13,0,.17a.51.51,0,0,0,.66-.25A3.69,3.69,0,0,0,37.74,45.52Zm9.65,2.1c-.11-.7-.22-1.4-.32-2.09h0l-.27,1.77c-.07.53-.07.53.49.49C47.39,47.79,47.4,47.74,47.39,47.62ZM51.47,52a.39.39,0,0,0-.6-.36.47.47,0,0,0-.17.45c0,.82,0,1.65,0,2.48a.92.92,0,0,0,0,.29.32.32,0,0,0,.33.21.32.32,0,0,0,.35-.19.79.79,0,0,0,.06-.34c0-.4,0-.81,0-1.22h0C51.47,52.85,51.49,52.41,51.47,52Zm5,2c-.11-.7-.22-1.41-.32-2.11h0l-.27,1.75c-.07.55-.07.55.5.51C56.49,54.14,56.52,54.11,56.5,54Zm.35-8c0-.62-.08-.73-.58-.71-.12,0-.18,0-.18.16,0,.37,0,.74,0,1.11,0,.07,0,.14.08.16a.49.49,0,0,0,.67-.45A2.43,2.43,0,0,0,56.85,46Zm5.92,6c0-.26-.22-.34-.6-.31s-.11.23-.14.35a1.13,1.13,0,0,0,0,.26v.45c0,.07,0,.14.09.16a.5.5,0,0,0,.67-.46A1.7,1.7,0,0,0,62.77,51.91Zm-.56,1.6c-.13,0-.19,0-.18.18v1.13c0,.07,0,.14.08.17a.51.51,0,0,0,.74-.5V54.3C62.85,53.62,62.74,53.49,62.21,53.51Zm4.36-.2V52.09a.92.92,0,0,0,0-.29.32.32,0,0,0-.36-.25.33.33,0,0,0-.35.26,2.6,2.6,0,0,0,0,.26v2.46a2,2,0,0,0,0,.24.33.33,0,0,0,.37.27c.24,0,.37-.14.38-.44S66.57,53.74,66.57,53.31Zm0,0V52.09a.92.92,0,0,0,0-.29.32.32,0,0,0-.36-.25.33.33,0,0,0-.35.26,2.6,2.6,0,0,0,0,.26v2.46a2,2,0,0,0,0,.24.33.33,0,0,0,.37.27c.24,0,.37-.14.38-.44S66.57,53.74,66.57,53.31Zm-4.36.2c-.13,0-.19,0-.18.18v1.13c0,.07,0,.14.08.17a.51.51,0,0,0,.74-.5V54.3C62.85,53.62,62.74,53.49,62.21,53.51Zm.56-1.6c0-.26-.22-.34-.6-.31s-.11.23-.14.35a1.13,1.13,0,0,0,0,.26v.45c0,.07,0,.14.09.16a.5.5,0,0,0,.67-.46A1.7,1.7,0,0,0,62.77,51.91Zm-3.09-5c0-.38,0-.75,0-1.12a1.61,1.61,0,0,0,0-.31.38.38,0,0,0-.75,0,2.35,2.35,0,0,0,0,.26c0,.78,0,1.56,0,2.33a1.73,1.73,0,0,0,0,.32.32.32,0,0,0,.34.27.33.33,0,0,0,.37-.27,1.36,1.36,0,0,0,0-.29C59.69,47.74,59.68,47.34,59.68,47Zm-2.83-1c0-.62-.08-.73-.58-.71-.12,0-.18,0-.18.16,0,.37,0,.74,0,1.11,0,.07,0,.14.08.16a.49.49,0,0,0,.67-.45A2.43,2.43,0,0,0,56.85,46Zm-.35,8c-.11-.7-.22-1.41-.32-2.11h0l-.27,1.75c-.07.55-.07.55.5.51C56.49,54.14,56.52,54.11,56.5,54Zm-5-2a.39.39,0,0,0-.6-.36.47.47,0,0,0-.17.45c0,.82,0,1.65,0,2.48a.92.92,0,0,0,0,.29.32.32,0,0,0,.33.21.32.32,0,0,0,.35-.19.79.79,0,0,0,.06-.34c0-.4,0-.81,0-1.22h0C51.47,52.85,51.49,52.41,51.47,52Zm-4.08-4.35c-.11-.7-.22-1.4-.32-2.09h0l-.27,1.77c-.07.53-.07.53.49.49C47.39,47.79,47.4,47.74,47.39,47.62Zm-4.22-2c0-.28-.18-.35-.57-.34s-.14.23-.16.35a1.29,1.29,0,0,0,0,.34v.59s0,.11.07.15a.51.51,0,0,0,.68-.38A2.42,2.42,0,0,0,43.17,45.58Zm-5.43-.06c0-.24-.23-.31-.57-.27s-.12.21-.14.32a3.84,3.84,0,0,0,0,.48v.6c0,.06,0,.13,0,.17a.51.51,0,0,0,.66-.25A3.69,3.69,0,0,0,37.74,45.52ZM29.9,51.84a.36.36,0,0,0-.39-.29.34.34,0,0,0-.35.29c0,.1,0,.2,0,.29v2.33a.92.92,0,0,0,0,.29.36.36,0,0,0,.45.29c.24-.06.29-.24.3-.45V53.3h0v-.74A4.33,4.33,0,0,0,29.9,51.84ZM59.68,47c0-.38,0-.75,0-1.12a1.61,1.61,0,0,0,0-.31.38.38,0,0,0-.75,0,2.35,2.35,0,0,0,0,.26c0,.78,0,1.56,0,2.33a1.73,1.73,0,0,0,0,.32.32.32,0,0,0,.34.27.33.33,0,0,0,.37-.27,1.36,1.36,0,0,0,0-.29C59.69,47.74,59.68,47.34,59.68,47ZM43.17,45.58c0-.28-.18-.35-.57-.34s-.14.23-.16.35a1.29,1.29,0,0,0,0,.34v.59s0,.11.07.15a.51.51,0,0,0,.68-.38A2.42,2.42,0,0,0,43.17,45.58ZM29.9,51.84a.36.36,0,0,0-.39-.29.34.34,0,0,0-.35.29c0,.1,0,.2,0,.29v2.33a.92.92,0,0,0,0,.29.36.36,0,0,0,.45.29c.24-.06.29-.24.3-.45V53.3h0v-.74A4.33,4.33,0,0,0,29.9,51.84Zm7.84-6.32c0-.24-.23-.31-.57-.27s-.12.21-.14.32a3.84,3.84,0,0,0,0,.48v.6c0,.06,0,.13,0,.17a.51.51,0,0,0,.66-.25A3.69,3.69,0,0,0,37.74,45.52Zm9.65,2.1c-.11-.7-.22-1.4-.32-2.09h0l-.27,1.77c-.07.53-.07.53.49.49C47.39,47.79,47.4,47.74,47.39,47.62ZM51.47,52a.39.39,0,0,0-.6-.36.47.47,0,0,0-.17.45c0,.82,0,1.65,0,2.48a.92.92,0,0,0,0,.29.32.32,0,0,0,.33.21.32.32,0,0,0,.35-.19.79.79,0,0,0,.06-.34c0-.4,0-.81,0-1.22h0C51.47,52.85,51.49,52.41,51.47,52Zm5,2c-.11-.7-.22-1.41-.32-2.11h0l-.27,1.75c-.07.55-.07.55.5.51C56.49,54.14,56.52,54.11,56.5,54Zm.35-8c0-.62-.08-.73-.58-.71-.12,0-.18,0-.18.16,0,.37,0,.74,0,1.11,0,.07,0,.14.08.16a.49.49,0,0,0,.67-.45A2.43,2.43,0,0,0,56.85,46Zm5.92,6c0-.26-.22-.34-.6-.31s-.11.23-.14.35a1.13,1.13,0,0,0,0,.26v.45c0,.07,0,.14.09.16a.5.5,0,0,0,.67-.46A1.7,1.7,0,0,0,62.77,51.91Zm-.56,1.6c-.13,0-.19,0-.18.18v1.13c0,.07,0,.14.08.17a.51.51,0,0,0,.74-.5V54.3C62.85,53.62,62.74,53.49,62.21,53.51Zm4.36-.2V52.09a.92.92,0,0,0,0-.29.32.32,0,0,0-.36-.25.33.33,0,0,0-.35.26,2.6,2.6,0,0,0,0,.26v2.46a2,2,0,0,0,0,.24.33.33,0,0,0,.37.27c.24,0,.37-.14.38-.44S66.57,53.74,66.57,53.31Zm0,0V52.09a.92.92,0,0,0,0-.29.32.32,0,0,0-.36-.25.33.33,0,0,0-.35.26,2.6,2.6,0,0,0,0,.26v2.46a2,2,0,0,0,0,.24.33.33,0,0,0,.37.27c.24,0,.37-.14.38-.44S66.57,53.74,66.57,53.31Zm-4.36.2c-.13,0-.19,0-.18.18v1.13c0,.07,0,.14.08.17a.51.51,0,0,0,.74-.5V54.3C62.85,53.62,62.74,53.49,62.21,53.51Zm.56-1.6c0-.26-.22-.34-.6-.31s-.11.23-.14.35a1.13,1.13,0,0,0,0,.26v.45c0,.07,0,.14.09.16a.5.5,0,0,0,.67-.46A1.7,1.7,0,0,0,62.77,51.91Zm-3.09-5c0-.38,0-.75,0-1.12a1.61,1.61,0,0,0,0-.31.38.38,0,0,0-.75,0,2.35,2.35,0,0,0,0,.26c0,.78,0,1.56,0,2.33a1.73,1.73,0,0,0,0,.32.32.32,0,0,0,.34.27.33.33,0,0,0,.37-.27,1.36,1.36,0,0,0,0-.29C59.69,47.74,59.68,47.34,59.68,47Zm-2.83-1c0-.62-.08-.73-.58-.71-.12,0-.18,0-.18.16,0,.37,0,.74,0,1.11,0,.07,0,.14.08.16a.49.49,0,0,0,.67-.45A2.43,2.43,0,0,0,56.85,46Zm-.35,8c-.11-.7-.22-1.41-.32-2.11h0l-.27,1.75c-.07.55-.07.55.5.51C56.49,54.14,56.52,54.11,56.5,54Zm-5-2a.39.39,0,0,0-.6-.36.47.47,0,0,0-.17.45c0,.82,0,1.65,0,2.48a.92.92,0,0,0,0,.29.32.32,0,0,0,.33.21.32.32,0,0,0,.35-.19.79.79,0,0,0,.06-.34c0-.4,0-.81,0-1.22h0C51.47,52.85,51.49,52.41,51.47,52Zm-4.08-4.35c-.11-.7-.22-1.4-.32-2.09h0l-.27,1.77c-.07.53-.07.53.49.49C47.39,47.79,47.4,47.74,47.39,47.62Zm-4.22-2c0-.28-.18-.35-.57-.34s-.14.23-.16.35a1.29,1.29,0,0,0,0,.34v.59s0,.11.07.15a.51.51,0,0,0,.68-.38A2.42,2.42,0,0,0,43.17,45.58Zm-5.43-.06c0-.24-.23-.31-.57-.27s-.12.21-.14.32a3.84,3.84,0,0,0,0,.48v.6c0,.06,0,.13,0,.17a.51.51,0,0,0,.66-.25A3.69,3.69,0,0,0,37.74,45.52ZM29.9,51.84a.36.36,0,0,0-.39-.29.34.34,0,0,0-.35.29c0,.1,0,.2,0,.29v2.33a.92.92,0,0,0,0,.29.36.36,0,0,0,.45.29c.24-.06.29-.24.3-.45V53.3h0v-.74A4.33,4.33,0,0,0,29.9,51.84ZM59.68,47c0-.38,0-.75,0-1.12a1.61,1.61,0,0,0,0-.31.38.38,0,0,0-.75,0,2.35,2.35,0,0,0,0,.26c0,.78,0,1.56,0,2.33a1.73,1.73,0,0,0,0,.32.32.32,0,0,0,.34.27.33.33,0,0,0,.37-.27,1.36,1.36,0,0,0,0-.29C59.69,47.74,59.68,47.34,59.68,47ZM43.17,45.58c0-.28-.18-.35-.57-.34s-.14.23-.16.35a1.29,1.29,0,0,0,0,.34v.59s0,.11.07.15a.51.51,0,0,0,.68-.38A2.42,2.42,0,0,0,43.17,45.58ZM29.9,51.84a.36.36,0,0,0-.39-.29.34.34,0,0,0-.35.29c0,.1,0,.2,0,.29v2.33a.92.92,0,0,0,0,.29.36.36,0,0,0,.45.29c.24-.06.29-.24.3-.45V53.3h0v-.74A4.33,4.33,0,0,0,29.9,51.84Zm7.84-6.32c0-.24-.23-.31-.57-.27s-.12.21-.14.32a3.84,3.84,0,0,0,0,.48v.6c0,.06,0,.13,0,.17a.51.51,0,0,0,.66-.25A3.69,3.69,0,0,0,37.74,45.52Zm9.65,2.1c-.11-.7-.22-1.4-.32-2.09h0l-.27,1.77c-.07.53-.07.53.49.49C47.39,47.79,47.4,47.74,47.39,47.62ZM51.47,52a.39.39,0,0,0-.6-.36.47.47,0,0,0-.17.45c0,.82,0,1.65,0,2.48a.92.92,0,0,0,0,.29.32.32,0,0,0,.33.21.32.32,0,0,0,.35-.19.79.79,0,0,0,.06-.34c0-.4,0-.81,0-1.22h0C51.47,52.85,51.49,52.41,51.47,52Zm5,2c-.11-.7-.22-1.41-.32-2.11h0l-.27,1.75c-.07.55-.07.55.5.51C56.49,54.14,56.52,54.11,56.5,54Zm.35-8c0-.62-.08-.73-.58-.71-.12,0-.18,0-.18.16,0,.37,0,.74,0,1.11,0,.07,0,.14.08.16a.49.49,0,0,0,.67-.45A2.43,2.43,0,0,0,56.85,46Zm5.92,6c0-.26-.22-.34-.6-.31s-.11.23-.14.35a1.13,1.13,0,0,0,0,.26v.45c0,.07,0,.14.09.16a.5.5,0,0,0,.67-.46A1.7,1.7,0,0,0,62.77,51.91Zm-.56,1.6c-.13,0-.19,0-.18.18v1.13c0,.07,0,.14.08.17a.51.51,0,0,0,.74-.5V54.3C62.85,53.62,62.74,53.49,62.21,53.51Zm4.36-.2V52.09a.92.92,0,0,0,0-.29.32.32,0,0,0-.36-.25.33.33,0,0,0-.35.26,2.6,2.6,0,0,0,0,.26v2.46a2,2,0,0,0,0,.24.33.33,0,0,0,.37.27c.24,0,.37-.14.38-.44S66.57,53.74,66.57,53.31Zm0,0V52.09a.92.92,0,0,0,0-.29.32.32,0,0,0-.36-.25.33.33,0,0,0-.35.26,2.6,2.6,0,0,0,0,.26v2.46a2,2,0,0,0,0,.24.33.33,0,0,0,.37.27c.24,0,.37-.14.38-.44S66.57,53.74,66.57,53.31Zm-4.36.2c-.13,0-.19,0-.18.18v1.13c0,.07,0,.14.08.17a.51.51,0,0,0,.74-.5V54.3C62.85,53.62,62.74,53.49,62.21,53.51Zm.56-1.6c0-.26-.22-.34-.6-.31s-.11.23-.14.35a1.13,1.13,0,0,0,0,.26v.45c0,.07,0,.14.09.16a.5.5,0,0,0,.67-.46A1.7,1.7,0,0,0,62.77,51.91Zm-3.09-5c0-.38,0-.75,0-1.12a1.61,1.61,0,0,0,0-.31.38.38,0,0,0-.75,0,2.35,2.35,0,0,0,0,.26c0,.78,0,1.56,0,2.33a1.73,1.73,0,0,0,0,.32.32.32,0,0,0,.34.27.33.33,0,0,0,.37-.27,1.36,1.36,0,0,0,0-.29C59.69,47.74,59.68,47.34,59.68,47Zm-2.83-1c0-.62-.08-.73-.58-.71-.12,0-.18,0-.18.16,0,.37,0,.74,0,1.11,0,.07,0,.14.08.16a.49.49,0,0,0,.67-.45A2.43,2.43,0,0,0,56.85,46Zm-.35,8c-.11-.7-.22-1.41-.32-2.11h0l-.27,1.75c-.07.55-.07.55.5.51C56.49,54.14,56.52,54.11,56.5,54Zm-5-2a.39.39,0,0,0-.6-.36.47.47,0,0,0-.17.45c0,.82,0,1.65,0,2.48a.92.92,0,0,0,0,.29.32.32,0,0,0,.33.21.32.32,0,0,0,.35-.19.79.79,0,0,0,.06-.34c0-.4,0-.81,0-1.22h0C51.47,52.85,51.49,52.41,51.47,52Zm-4.08-4.35c-.11-.7-.22-1.4-.32-2.09h0l-.27,1.77c-.07.53-.07.53.49.49C47.39,47.79,47.4,47.74,47.39,47.62Zm-4.22-2c0-.28-.18-.35-.57-.34s-.14.23-.16.35a1.29,1.29,0,0,0,0,.34v.59s0,.11.07.15a.51.51,0,0,0,.68-.38A2.42,2.42,0,0,0,43.17,45.58Zm-5.43-.06c0-.24-.23-.31-.57-.27s-.12.21-.14.32a3.84,3.84,0,0,0,0,.48v.6c0,.06,0,.13,0,.17a.51.51,0,0,0,.66-.25A3.69,3.69,0,0,0,37.74,45.52ZM29.9,51.84a.36.36,0,0,0-.39-.29.34.34,0,0,0-.35.29c0,.1,0,.2,0,.29v2.33a.92.92,0,0,0,0,.29.36.36,0,0,0,.45.29c.24-.06.29-.24.3-.45V53.3h0v-.74A4.33,4.33,0,0,0,29.9,51.84ZM59.68,47c0-.38,0-.75,0-1.12a1.61,1.61,0,0,0,0-.31.38.38,0,0,0-.75,0,2.35,2.35,0,0,0,0,.26c0,.78,0,1.56,0,2.33a1.73,1.73,0,0,0,0,.32.32.32,0,0,0,.34.27.33.33,0,0,0,.37-.27,1.36,1.36,0,0,0,0-.29C59.69,47.74,59.68,47.34,59.68,47ZM43.17,45.58c0-.28-.18-.35-.57-.34s-.14.23-.16.35a1.29,1.29,0,0,0,0,.34v.59s0,.11.07.15a.51.51,0,0,0,.68-.38A2.42,2.42,0,0,0,43.17,45.58ZM29.9,51.84a.36.36,0,0,0-.39-.29.34.34,0,0,0-.35.29c0,.1,0,.2,0,.29v2.33a.92.92,0,0,0,0,.29.36.36,0,0,0,.45.29c.24-.06.29-.24.3-.45V53.3h0v-.74A4.33,4.33,0,0,0,29.9,51.84Zm7.84-6.32c0-.24-.23-.31-.57-.27s-.12.21-.14.32a3.84,3.84,0,0,0,0,.48v.6c0,.06,0,.13,0,.17a.51.51,0,0,0,.66-.25A3.69,3.69,0,0,0,37.74,45.52Zm9.65,2.1c-.11-.7-.22-1.4-.32-2.09h0l-.27,1.77c-.07.53-.07.53.49.49C47.39,47.79,47.4,47.74,47.39,47.62ZM51.47,52a.39.39,0,0,0-.6-.36.47.47,0,0,0-.17.45c0,.82,0,1.65,0,2.48a.92.92,0,0,0,0,.29.32.32,0,0,0,.33.21.32.32,0,0,0,.35-.19.79.79,0,0,0,.06-.34c0-.4,0-.81,0-1.22h0C51.47,52.85,51.49,52.41,51.47,52Zm5,2c-.11-.7-.22-1.41-.32-2.11h0l-.27,1.75c-.07.55-.07.55.5.51C56.49,54.14,56.52,54.11,56.5,54Zm.35-8c0-.62-.08-.73-.58-.71-.12,0-.18,0-.18.16,0,.37,0,.74,0,1.11,0,.07,0,.14.08.16a.49.49,0,0,0,.67-.45A2.43,2.43,0,0,0,56.85,46Zm5.92,6c0-.26-.22-.34-.6-.31s-.11.23-.14.35a1.13,1.13,0,0,0,0,.26v.45c0,.07,0,.14.09.16a.5.5,0,0,0,.67-.46A1.7,1.7,0,0,0,62.77,51.91Zm-.56,1.6c-.13,0-.19,0-.18.18v1.13c0,.07,0,.14.08.17a.51.51,0,0,0,.74-.5V54.3C62.85,53.62,62.74,53.49,62.21,53.51Zm0,0c-.13,0-.19,0-.18.18v1.13c0,.07,0,.14.08.17a.51.51,0,0,0,.74-.5V54.3C62.85,53.62,62.74,53.49,62.21,53.51Zm.56-1.6c0-.26-.22-.34-.6-.31s-.11.23-.14.35a1.13,1.13,0,0,0,0,.26v.45c0,.07,0,.14.09.16a.5.5,0,0,0,.67-.46A1.7,1.7,0,0,0,62.77,51.91Zm-3.09-5c0-.38,0-.75,0-1.12a1.61,1.61,0,0,0,0-.31.38.38,0,0,0-.75,0,2.35,2.35,0,0,0,0,.26c0,.78,0,1.56,0,2.33a1.73,1.73,0,0,0,0,.32.32.32,0,0,0,.34.27.33.33,0,0,0,.37-.27,1.36,1.36,0,0,0,0-.29C59.69,47.74,59.68,47.34,59.68,47Zm-2.83-1c0-.62-.08-.73-.58-.71-.12,0-.18,0-.18.16,0,.37,0,.74,0,1.11,0,.07,0,.14.08.16a.49.49,0,0,0,.67-.45A2.43,2.43,0,0,0,56.85,46Zm-.35,8c-.11-.7-.22-1.41-.32-2.11h0l-.27,1.75c-.07.55-.07.55.5.51C56.49,54.14,56.52,54.11,56.5,54Zm-5-2a.39.39,0,0,0-.6-.36.47.47,0,0,0-.17.45c0,.82,0,1.65,0,2.48a.92.92,0,0,0,0,.29.32.32,0,0,0,.33.21.32.32,0,0,0,.35-.19.79.79,0,0,0,.06-.34c0-.4,0-.81,0-1.22h0C51.47,52.85,51.49,52.41,51.47,52Zm-4.08-4.35c-.11-.7-.22-1.4-.32-2.09h0l-.27,1.77c-.07.53-.07.53.49.49C47.39,47.79,47.4,47.74,47.39,47.62Zm-4.22-2c0-.28-.18-.35-.57-.34s-.14.23-.16.35a1.29,1.29,0,0,0,0,.34v.59s0,.11.07.15a.51.51,0,0,0,.68-.38A2.42,2.42,0,0,0,43.17,45.58Zm-5.43-.06c0-.24-.23-.31-.57-.27s-.12.21-.14.32a3.84,3.84,0,0,0,0,.48v.6c0,.06,0,.13,0,.17a.51.51,0,0,0,.66-.25A3.69,3.69,0,0,0,37.74,45.52ZM29.9,51.84a.36.36,0,0,0-.39-.29.34.34,0,0,0-.35.29c0,.1,0,.2,0,.29v2.33a.92.92,0,0,0,0,.29.36.36,0,0,0,.45.29c.24-.06.29-.24.3-.45V53.3h0v-.74A4.33,4.33,0,0,0,29.9,51.84ZM59.68,47c0-.38,0-.75,0-1.12a1.61,1.61,0,0,0,0-.31.38.38,0,0,0-.75,0,2.35,2.35,0,0,0,0,.26c0,.78,0,1.56,0,2.33a1.73,1.73,0,0,0,0,.32.32.32,0,0,0,.34.27.33.33,0,0,0,.37-.27,1.36,1.36,0,0,0,0-.29C59.69,47.74,59.68,47.34,59.68,47ZM43.17,45.58c0-.28-.18-.35-.57-.34s-.14.23-.16.35a1.29,1.29,0,0,0,0,.34v.59s0,.11.07.15a.51.51,0,0,0,.68-.38A2.42,2.42,0,0,0,43.17,45.58ZM29.9,51.84a.36.36,0,0,0-.39-.29.34.34,0,0,0-.35.29c0,.1,0,.2,0,.29v2.33a.92.92,0,0,0,0,.29.36.36,0,0,0,.45.29c.24-.06.29-.24.3-.45V53.3h0v-.74A4.33,4.33,0,0,0,29.9,51.84Zm7.84-6.32c0-.24-.23-.31-.57-.27s-.12.21-.14.32a3.84,3.84,0,0,0,0,.48v.6c0,.06,0,.13,0,.17a.51.51,0,0,0,.66-.25A3.69,3.69,0,0,0,37.74,45.52Zm9.65,2.1c-.11-.7-.22-1.4-.32-2.09h0l-.27,1.77c-.07.53-.07.53.49.49C47.39,47.79,47.4,47.74,47.39,47.62ZM51.47,52a.39.39,0,0,0-.6-.36.47.47,0,0,0-.17.45c0,.82,0,1.65,0,2.48a.92.92,0,0,0,0,.29.32.32,0,0,0,.33.21.32.32,0,0,0,.35-.19.79.79,0,0,0,.06-.34c0-.4,0-.81,0-1.22h0C51.47,52.85,51.49,52.41,51.47,52Zm5,2c-.11-.7-.22-1.41-.32-2.11h0l-.27,1.75c-.07.55-.07.55.5.51C56.49,54.14,56.52,54.11,56.5,54Zm.35-8c0-.62-.08-.73-.58-.71-.12,0-.18,0-.18.16,0,.37,0,.74,0,1.11,0,.07,0,.14.08.16a.49.49,0,0,0,.67-.45A2.43,2.43,0,0,0,56.85,46Zm2.83,1c0-.38,0-.75,0-1.12a1.61,1.61,0,0,0,0-.31.38.38,0,0,0-.75,0,2.35,2.35,0,0,0,0,.26c0,.78,0,1.56,0,2.33a1.73,1.73,0,0,0,0,.32.32.32,0,0,0,.34.27.33.33,0,0,0,.37-.27,1.36,1.36,0,0,0,0-.29C59.69,47.74,59.68,47.34,59.68,47Zm-2.83-1c0-.62-.08-.73-.58-.71-.12,0-.18,0-.18.16,0,.37,0,.74,0,1.11,0,.07,0,.14.08.16a.49.49,0,0,0,.67-.45A2.43,2.43,0,0,0,56.85,46Zm-.35,8c-.11-.7-.22-1.41-.32-2.11h0l-.27,1.75c-.07.55-.07.55.5.51C56.49,54.14,56.52,54.11,56.5,54Zm-5-2a.39.39,0,0,0-.6-.36.47.47,0,0,0-.17.45c0,.82,0,1.65,0,2.48a.92.92,0,0,0,0,.29.32.32,0,0,0,.33.21.32.32,0,0,0,.35-.19.79.79,0,0,0,.06-.34c0-.4,0-.81,0-1.22h0C51.47,52.85,51.49,52.41,51.47,52Zm-4.08-4.35c-.11-.7-.22-1.4-.32-2.09h0l-.27,1.77c-.07.53-.07.53.49.49C47.39,47.79,47.4,47.74,47.39,47.62Zm-4.22-2c0-.28-.18-.35-.57-.34s-.14.23-.16.35a1.29,1.29,0,0,0,0,.34v.59s0,.11.07.15a.51.51,0,0,0,.68-.38A2.42,2.42,0,0,0,43.17,45.58Zm-5.43-.06c0-.24-.23-.31-.57-.27s-.12.21-.14.32a3.84,3.84,0,0,0,0,.48v.6c0,.06,0,.13,0,.17a.51.51,0,0,0,.66-.25A3.69,3.69,0,0,0,37.74,45.52ZM29.9,51.84a.36.36,0,0,0-.39-.29.34.34,0,0,0-.35.29c0,.1,0,.2,0,.29v2.33a.92.92,0,0,0,0,.29.36.36,0,0,0,.45.29c.24-.06.29-.24.3-.45V53.3h0v-.74A4.33,4.33,0,0,0,29.9,51.84ZM59.68,47c0-.38,0-.75,0-1.12a1.61,1.61,0,0,0,0-.31.38.38,0,0,0-.75,0,2.35,2.35,0,0,0,0,.26c0,.78,0,1.56,0,2.33a1.73,1.73,0,0,0,0,.32.32.32,0,0,0,.34.27.33.33,0,0,0,.37-.27,1.36,1.36,0,0,0,0-.29C59.69,47.74,59.68,47.34,59.68,47ZM43.17,45.58c0-.28-.18-.35-.57-.34s-.14.23-.16.35a1.29,1.29,0,0,0,0,.34v.59s0,.11.07.15a.51.51,0,0,0,.68-.38A2.42,2.42,0,0,0,43.17,45.58ZM29.9,51.84a.36.36,0,0,0-.39-.29.34.34,0,0,0-.35.29c0,.1,0,.2,0,.29v2.33a.92.92,0,0,0,0,.29.36.36,0,0,0,.45.29c.24-.06.29-.24.3-.45V53.3h0v-.74A4.33,4.33,0,0,0,29.9,51.84Zm7.84-6.32c0-.24-.23-.31-.57-.27s-.12.21-.14.32a3.84,3.84,0,0,0,0,.48v.6c0,.06,0,.13,0,.17a.51.51,0,0,0,.66-.25A3.69,3.69,0,0,0,37.74,45.52Zm9.65,2.1c-.11-.7-.22-1.4-.32-2.09h0l-.27,1.77c-.07.53-.07.53.49.49C47.39,47.79,47.4,47.74,47.39,47.62ZM51.47,52a.39.39,0,0,0-.6-.36.47.47,0,0,0-.17.45c0,.82,0,1.65,0,2.48a.92.92,0,0,0,0,.29.32.32,0,0,0,.33.21.32.32,0,0,0,.35-.19.79.79,0,0,0,.06-.34c0-.4,0-.81,0-1.22h0C51.47,52.85,51.49,52.41,51.47,52Zm5.38-6c0-.62-.08-.73-.58-.71-.12,0-.18,0-.18.16,0,.37,0,.74,0,1.11,0,.07,0,.14.08.16a.49.49,0,0,0,.67-.45A2.43,2.43,0,0,0,56.85,46Zm2.83,1c0-.38,0-.75,0-1.12a1.61,1.61,0,0,0,0-.31.38.38,0,0,0-.75,0,2.35,2.35,0,0,0,0,.26c0,.78,0,1.56,0,2.33a1.73,1.73,0,0,0,0,.32.32.32,0,0,0,.34.27.33.33,0,0,0,.37-.27,1.36,1.36,0,0,0,0-.29C59.69,47.74,59.68,47.34,59.68,47Zm-2.83-1c0-.62-.08-.73-.58-.71-.12,0-.18,0-.18.16,0,.37,0,.74,0,1.11,0,.07,0,.14.08.16a.49.49,0,0,0,.67-.45A2.43,2.43,0,0,0,56.85,46Zm-5.38,6a.39.39,0,0,0-.6-.36.47.47,0,0,0-.17.45c0,.82,0,1.65,0,2.48a.92.92,0,0,0,0,.29.32.32,0,0,0,.33.21.32.32,0,0,0,.35-.19.79.79,0,0,0,.06-.34c0-.4,0-.81,0-1.22h0C51.47,52.85,51.49,52.41,51.47,52Zm-4.08-4.35c-.11-.7-.22-1.4-.32-2.09h0l-.27,1.77c-.07.53-.07.53.49.49C47.39,47.79,47.4,47.74,47.39,47.62Zm-4.22-2c0-.28-.18-.35-.57-.34s-.14.23-.16.35a1.29,1.29,0,0,0,0,.34v.59s0,.11.07.15a.51.51,0,0,0,.68-.38A2.42,2.42,0,0,0,43.17,45.58Zm-5.43-.06c0-.24-.23-.31-.57-.27s-.12.21-.14.32a3.84,3.84,0,0,0,0,.48v.6c0,.06,0,.13,0,.17a.51.51,0,0,0,.66-.25A3.69,3.69,0,0,0,37.74,45.52ZM29.9,51.84a.36.36,0,0,0-.39-.29.34.34,0,0,0-.35.29c0,.1,0,.2,0,.29v2.33a.92.92,0,0,0,0,.29.36.36,0,0,0,.45.29c.24-.06.29-.24.3-.45V53.3h0v-.74A4.33,4.33,0,0,0,29.9,51.84ZM59.68,47c0-.38,0-.75,0-1.12a1.61,1.61,0,0,0,0-.31.38.38,0,0,0-.75,0,2.35,2.35,0,0,0,0,.26c0,.78,0,1.56,0,2.33a1.73,1.73,0,0,0,0,.32.32.32,0,0,0,.34.27.33.33,0,0,0,.37-.27,1.36,1.36,0,0,0,0-.29C59.69,47.74,59.68,47.34,59.68,47ZM43.17,45.58c0-.28-.18-.35-.57-.34s-.14.23-.16.35a1.29,1.29,0,0,0,0,.34v.59s0,.11.07.15a.51.51,0,0,0,.68-.38A2.42,2.42,0,0,0,43.17,45.58ZM29.9,51.84a.36.36,0,0,0-.39-.29.34.34,0,0,0-.35.29c0,.1,0,.2,0,.29v2.33a.92.92,0,0,0,0,.29.36.36,0,0,0,.45.29c.24-.06.29-.24.3-.45V53.3h0v-.74A4.33,4.33,0,0,0,29.9,51.84Zm7.84-6.32c0-.24-.23-.31-.57-.27s-.12.21-.14.32a3.84,3.84,0,0,0,0,.48v.6c0,.06,0,.13,0,.17a.51.51,0,0,0,.66-.25A3.69,3.69,0,0,0,37.74,45.52Zm9.65,2.1c-.11-.7-.22-1.4-.32-2.09h0l-.27,1.77c-.07.53-.07.53.49.49C47.39,47.79,47.4,47.74,47.39,47.62ZM56.85,46c0-.62-.08-.73-.58-.71-.12,0-.18,0-.18.16,0,.37,0,.74,0,1.11,0,.07,0,.14.08.16a.49.49,0,0,0,.67-.45A2.43,2.43,0,0,0,56.85,46Zm2.83,1c0-.38,0-.75,0-1.12a1.61,1.61,0,0,0,0-.31.38.38,0,0,0-.75,0,2.35,2.35,0,0,0,0,.26c0,.78,0,1.56,0,2.33a1.73,1.73,0,0,0,0,.32.32.32,0,0,0,.34.27.33.33,0,0,0,.37-.27,1.36,1.36,0,0,0,0-.29C59.69,47.74,59.68,47.34,59.68,47Zm-2.83-1c0-.62-.08-.73-.58-.71-.12,0-.18,0-.18.16,0,.37,0,.74,0,1.11,0,.07,0,.14.08.16a.49.49,0,0,0,.67-.45A2.43,2.43,0,0,0,56.85,46Zm-9.46,1.67c-.11-.7-.22-1.4-.32-2.09h0l-.27,1.77c-.07.53-.07.53.49.49C47.39,47.79,47.4,47.74,47.39,47.62Zm-4.22-2c0-.28-.18-.35-.57-.34s-.14.23-.16.35a1.29,1.29,0,0,0,0,.34v.59s0,.11.07.15a.51.51,0,0,0,.68-.38A2.42,2.42,0,0,0,43.17,45.58Zm-5.43-.06c0-.24-.23-.31-.57-.27s-.12.21-.14.32a3.84,3.84,0,0,0,0,.48v.6c0,.06,0,.13,0,.17a.51.51,0,0,0,.66-.25A3.69,3.69,0,0,0,37.74,45.52ZM29.9,51.84a.36.36,0,0,0-.39-.29.34.34,0,0,0-.35.29c0,.1,0,.2,0,.29v2.33a.92.92,0,0,0,0,.29.36.36,0,0,0,.45.29c.24-.06.29-.24.3-.45V53.3h0v-.74A4.33,4.33,0,0,0,29.9,51.84ZM59.68,47c0-.38,0-.75,0-1.12a1.61,1.61,0,0,0,0-.31.38.38,0,0,0-.75,0,2.35,2.35,0,0,0,0,.26c0,.78,0,1.56,0,2.33a1.73,1.73,0,0,0,0,.32.32.32,0,0,0,.34.27.33.33,0,0,0,.37-.27,1.36,1.36,0,0,0,0-.29C59.69,47.74,59.68,47.34,59.68,47ZM43.17,45.58c0-.28-.18-.35-.57-.34s-.14.23-.16.35a1.29,1.29,0,0,0,0,.34v.59s0,.11.07.15a.51.51,0,0,0,.68-.38A2.42,2.42,0,0,0,43.17,45.58ZM29.9,51.84a.36.36,0,0,0-.39-.29.34.34,0,0,0-.35.29c0,.1,0,.2,0,.29v2.33a.92.92,0,0,0,0,.29.36.36,0,0,0,.45.29c.24-.06.29-.24.3-.45V53.3h0v-.74A4.33,4.33,0,0,0,29.9,51.84Zm7.84-6.32c0-.24-.23-.31-.57-.27s-.12.21-.14.32a3.84,3.84,0,0,0,0,.48v.6c0,.06,0,.13,0,.17a.51.51,0,0,0,.66-.25A3.69,3.69,0,0,0,37.74,45.52Zm9.65,2.1c-.11-.7-.22-1.4-.32-2.09h0l-.27,1.77c-.07.53-.07.53.49.49C47.39,47.79,47.4,47.74,47.39,47.62ZM56.85,46c0-.62-.08-.73-.58-.71-.12,0-.18,0-.18.16,0,.37,0,.74,0,1.11,0,.07,0,.14.08.16a.49.49,0,0,0,.67-.45A2.43,2.43,0,0,0,56.85,46Zm2.83,1c0-.38,0-.75,0-1.12a1.61,1.61,0,0,0,0-.31.38.38,0,0,0-.75,0,2.35,2.35,0,0,0,0,.26c0,.78,0,1.56,0,2.33a1.73,1.73,0,0,0,0,.32.32.32,0,0,0,.34.27.33.33,0,0,0,.37-.27,1.36,1.36,0,0,0,0-.29C59.69,47.74,59.68,47.34,59.68,47Zm-2.83-1c0-.62-.08-.73-.58-.71-.12,0-.18,0-.18.16,0,.37,0,.74,0,1.11,0,.07,0,.14.08.16a.49.49,0,0,0,.67-.45A2.43,2.43,0,0,0,56.85,46Zm-9.46,1.67c-.11-.7-.22-1.4-.32-2.09h0l-.27,1.77c-.07.53-.07.53.49.49C47.39,47.79,47.4,47.74,47.39,47.62Zm-4.22-2c0-.28-.18-.35-.57-.34s-.14.23-.16.35a1.29,1.29,0,0,0,0,.34v.59s0,.11.07.15a.51.51,0,0,0,.68-.38A2.42,2.42,0,0,0,43.17,45.58Zm-5.43-.06c0-.24-.23-.31-.57-.27s-.12.21-.14.32a3.84,3.84,0,0,0,0,.48v.6c0,.06,0,.13,0,.17a.51.51,0,0,0,.66-.25A3.69,3.69,0,0,0,37.74,45.52ZM29.9,51.84a.36.36,0,0,0-.39-.29.34.34,0,0,0-.35.29c0,.1,0,.2,0,.29v2.33a.92.92,0,0,0,0,.29.36.36,0,0,0,.45.29c.24-.06.29-.24.3-.45V53.3h0v-.74A4.33,4.33,0,0,0,29.9,51.84ZM59.68,47c0-.38,0-.75,0-1.12a1.61,1.61,0,0,0,0-.31.38.38,0,0,0-.75,0,2.35,2.35,0,0,0,0,.26c0,.78,0,1.56,0,2.33a1.73,1.73,0,0,0,0,.32.32.32,0,0,0,.34.27.33.33,0,0,0,.37-.27,1.36,1.36,0,0,0,0-.29C59.69,47.74,59.68,47.34,59.68,47ZM43.17,45.58c0-.28-.18-.35-.57-.34s-.14.23-.16.35a1.29,1.29,0,0,0,0,.34v.59s0,.11.07.15a.51.51,0,0,0,.68-.38A2.42,2.42,0,0,0,43.17,45.58ZM29.9,51.84a.36.36,0,0,0-.39-.29.34.34,0,0,0-.35.29c0,.1,0,.2,0,.29v2.33a.92.92,0,0,0,0,.29.36.36,0,0,0,.45.29c.24-.06.29-.24.3-.45V53.3h0v-.74A4.33,4.33,0,0,0,29.9,51.84Zm7.84-6.32c0-.24-.23-.31-.57-.27s-.12.21-.14.32a3.84,3.84,0,0,0,0,.48v.6c0,.06,0,.13,0,.17a.51.51,0,0,0,.66-.25A3.69,3.69,0,0,0,37.74,45.52Zm9.65,2.1c-.11-.7-.22-1.4-.32-2.09h0l-.27,1.77c-.07.53-.07.53.49.49C47.39,47.79,47.4,47.74,47.39,47.62ZM56.85,46c0-.62-.08-.73-.58-.71-.12,0-.18,0-.18.16,0,.37,0,.74,0,1.11,0,.07,0,.14.08.16a.49.49,0,0,0,.67-.45A2.43,2.43,0,0,0,56.85,46Zm2.83,1c0-.38,0-.75,0-1.12a1.61,1.61,0,0,0,0-.31.38.38,0,0,0-.75,0,2.35,2.35,0,0,0,0,.26c0,.78,0,1.56,0,2.33a1.73,1.73,0,0,0,0,.32.32.32,0,0,0,.34.27.33.33,0,0,0,.37-.27,1.36,1.36,0,0,0,0-.29C59.69,47.74,59.68,47.34,59.68,47Zm-2.83-1c0-.62-.08-.73-.58-.71-.12,0-.18,0-.18.16,0,.37,0,.74,0,1.11,0,.07,0,.14.08.16a.49.49,0,0,0,.67-.45A2.43,2.43,0,0,0,56.85,46Zm-9.46,1.67c-.11-.7-.22-1.4-.32-2.09h0l-.27,1.77c-.07.53-.07.53.49.49C47.39,47.79,47.4,47.74,47.39,47.62Zm-4.22-2c0-.28-.18-.35-.57-.34s-.14.23-.16.35a1.29,1.29,0,0,0,0,.34v.59s0,.11.07.15a.51.51,0,0,0,.68-.38A2.42,2.42,0,0,0,43.17,45.58Zm-5.43-.06c0-.24-.23-.31-.57-.27s-.12.21-.14.32a3.84,3.84,0,0,0,0,.48v.6c0,.06,0,.13,0,.17a.51.51,0,0,0,.66-.25A3.69,3.69,0,0,0,37.74,45.52ZM29.9,51.84a.36.36,0,0,0-.39-.29.34.34,0,0,0-.35.29c0,.1,0,.2,0,.29v2.33a.92.92,0,0,0,0,.29.36.36,0,0,0,.45.29c.24-.06.29-.24.3-.45V53.3h0v-.74A4.33,4.33,0,0,0,29.9,51.84ZM59.68,47c0-.38,0-.75,0-1.12a1.61,1.61,0,0,0,0-.31.38.38,0,0,0-.75,0,2.35,2.35,0,0,0,0,.26c0,.78,0,1.56,0,2.33a1.73,1.73,0,0,0,0,.32.32.32,0,0,0,.34.27.33.33,0,0,0,.37-.27,1.36,1.36,0,0,0,0-.29C59.69,47.74,59.68,47.34,59.68,47ZM43.17,45.58c0-.28-.18-.35-.57-.34s-.14.23-.16.35a1.29,1.29,0,0,0,0,.34v.59s0,.11.07.15a.51.51,0,0,0,.68-.38A2.42,2.42,0,0,0,43.17,45.58ZM29.9,51.84a.36.36,0,0,0-.39-.29.34.34,0,0,0-.35.29c0,.1,0,.2,0,.29v2.33a.92.92,0,0,0,0,.29.36.36,0,0,0,.45.29c.24-.06.29-.24.3-.45V53.3h0v-.74A4.33,4.33,0,0,0,29.9,51.84Zm7.84-6.32c0-.24-.23-.31-.57-.27s-.12.21-.14.32a3.84,3.84,0,0,0,0,.48v.6c0,.06,0,.13,0,.17a.51.51,0,0,0,.66-.25A3.69,3.69,0,0,0,37.74,45.52Zm9.65,2.1c-.11-.7-.22-1.4-.32-2.09h0l-.27,1.77c-.07.53-.07.53.49.49C47.39,47.79,47.4,47.74,47.39,47.62ZM56.85,46c0-.62-.08-.73-.58-.71-.12,0-.18,0-.18.16,0,.37,0,.74,0,1.11,0,.07,0,.14.08.16a.49.49,0,0,0,.67-.45A2.43,2.43,0,0,0,56.85,46Zm2.83,1c0-.38,0-.75,0-1.12a1.61,1.61,0,0,0,0-.31.38.38,0,0,0-.75,0,2.35,2.35,0,0,0,0,.26c0,.78,0,1.56,0,2.33a1.73,1.73,0,0,0,0,.32.32.32,0,0,0,.34.27.33.33,0,0,0,.37-.27,1.36,1.36,0,0,0,0-.29C59.69,47.74,59.68,47.34,59.68,47Zm-2.83-1c0-.62-.08-.73-.58-.71-.12,0-.18,0-.18.16,0,.37,0,.74,0,1.11,0,.07,0,.14.08.16a.49.49,0,0,0,.67-.45A2.43,2.43,0,0,0,56.85,46Zm-9.46,1.67c-.11-.7-.22-1.4-.32-2.09h0l-.27,1.77c-.07.53-.07.53.49.49C47.39,47.79,47.4,47.74,47.39,47.62Zm-4.22-2c0-.28-.18-.35-.57-.34s-.14.23-.16.35a1.29,1.29,0,0,0,0,.34v.59s0,.11.07.15a.51.51,0,0,0,.68-.38A2.42,2.42,0,0,0,43.17,45.58Zm-5.43-.06c0-.24-.23-.31-.57-.27s-.12.21-.14.32a3.84,3.84,0,0,0,0,.48v.6c0,.06,0,.13,0,.17a.51.51,0,0,0,.66-.25A3.69,3.69,0,0,0,37.74,45.52ZM29.9,51.84a.36.36,0,0,0-.39-.29.34.34,0,0,0-.35.29c0,.1,0,.2,0,.29v2.33a.92.92,0,0,0,0,.29.36.36,0,0,0,.45.29c.24-.06.29-.24.3-.45V53.3h0v-.74A4.33,4.33,0,0,0,29.9,51.84ZM59.68,47c0-.38,0-.75,0-1.12a1.61,1.61,0,0,0,0-.31.38.38,0,0,0-.75,0,2.35,2.35,0,0,0,0,.26c0,.78,0,1.56,0,2.33a1.73,1.73,0,0,0,0,.32.32.32,0,0,0,.34.27.33.33,0,0,0,.37-.27,1.36,1.36,0,0,0,0-.29C59.69,47.74,59.68,47.34,59.68,47ZM43.17,45.58c0-.28-.18-.35-.57-.34s-.14.23-.16.35a1.29,1.29,0,0,0,0,.34v.59s0,.11.07.15a.51.51,0,0,0,.68-.38A2.42,2.42,0,0,0,43.17,45.58ZM29.9,51.84a.36.36,0,0,0-.39-.29.34.34,0,0,0-.35.29c0,.1,0,.2,0,.29v2.33a.92.92,0,0,0,0,.29.36.36,0,0,0,.45.29c.24-.06.29-.24.3-.45V53.3h0v-.74A4.33,4.33,0,0,0,29.9,51.84Zm7.84-6.32c0-.24-.23-.31-.57-.27s-.12.21-.14.32a3.84,3.84,0,0,0,0,.48v.6c0,.06,0,.13,0,.17a.51.51,0,0,0,.66-.25A3.69,3.69,0,0,0,37.74,45.52Zm9.65,2.1c-.11-.7-.22-1.4-.32-2.09h0l-.27,1.77c-.07.53-.07.53.49.49C47.39,47.79,47.4,47.74,47.39,47.62ZM56.85,46c0-.62-.08-.73-.58-.71-.12,0-.18,0-.18.16,0,.37,0,.74,0,1.11,0,.07,0,.14.08.16a.49.49,0,0,0,.67-.45A2.43,2.43,0,0,0,56.85,46Zm2.83,1c0-.38,0-.75,0-1.12a1.61,1.61,0,0,0,0-.31.38.38,0,0,0-.75,0,2.35,2.35,0,0,0,0,.26c0,.78,0,1.56,0,2.33a1.73,1.73,0,0,0,0,.32.32.32,0,0,0,.34.27.33.33,0,0,0,.37-.27,1.36,1.36,0,0,0,0-.29C59.69,47.74,59.68,47.34,59.68,47Zm-2.83-1c0-.62-.08-.73-.58-.71-.12,0-.18,0-.18.16,0,.37,0,.74,0,1.11,0,.07,0,.14.08.16a.49.49,0,0,0,.67-.45A2.43,2.43,0,0,0,56.85,46Zm-9.46,1.67c-.11-.7-.22-1.4-.32-2.09h0l-.27,1.77c-.07.53-.07.53.49.49C47.39,47.79,47.4,47.74,47.39,47.62Zm-4.22-2c0-.28-.18-.35-.57-.34s-.14.23-.16.35a1.29,1.29,0,0,0,0,.34v.59s0,.11.07.15a.51.51,0,0,0,.68-.38A2.42,2.42,0,0,0,43.17,45.58Zm-5.43-.06c0-.24-.23-.31-.57-.27s-.12.21-.14.32a3.84,3.84,0,0,0,0,.48v.6c0,.06,0,.13,0,.17a.51.51,0,0,0,.66-.25A3.69,3.69,0,0,0,37.74,45.52ZM29.9,51.84a.36.36,0,0,0-.39-.29.34.34,0,0,0-.35.29c0,.1,0,.2,0,.29v2.33a.92.92,0,0,0,0,.29.36.36,0,0,0,.45.29c.24-.06.29-.24.3-.45V53.3h0v-.74A4.33,4.33,0,0,0,29.9,51.84ZM59.68,47c0-.38,0-.75,0-1.12a1.61,1.61,0,0,0,0-.31.38.38,0,0,0-.75,0,2.35,2.35,0,0,0,0,.26c0,.78,0,1.56,0,2.33a1.73,1.73,0,0,0,0,.32.32.32,0,0,0,.34.27.33.33,0,0,0,.37-.27,1.36,1.36,0,0,0,0-.29C59.69,47.74,59.68,47.34,59.68,47ZM43.17,45.58c0-.28-.18-.35-.57-.34s-.14.23-.16.35a1.29,1.29,0,0,0,0,.34v.59s0,.11.07.15a.51.51,0,0,0,.68-.38A2.42,2.42,0,0,0,43.17,45.58Zm-5.43-.06c0-.24-.23-.31-.57-.27s-.12.21-.14.32a3.84,3.84,0,0,0,0,.48v.6c0,.06,0,.13,0,.17a.51.51,0,0,0,.66-.25A3.69,3.69,0,0,0,37.74,45.52Zm9.65,2.1c-.11-.7-.22-1.4-.32-2.09h0l-.27,1.77c-.07.53-.07.53.49.49C47.39,47.79,47.4,47.74,47.39,47.62ZM56.85,46c0-.62-.08-.73-.58-.71-.12,0-.18,0-.18.16,0,.37,0,.74,0,1.11,0,.07,0,.14.08.16a.49.49,0,0,0,.67-.45A2.43,2.43,0,0,0,56.85,46Zm2.83,1c0-.38,0-.75,0-1.12a1.61,1.61,0,0,0,0-.31.38.38,0,0,0-.75,0,2.35,2.35,0,0,0,0,.26c0,.78,0,1.56,0,2.33a1.73,1.73,0,0,0,0,.32.32.32,0,0,0,.34.27.33.33,0,0,0,.37-.27,1.36,1.36,0,0,0,0-.29C59.69,47.74,59.68,47.34,59.68,47Zm-2.83-1c0-.62-.08-.73-.58-.71-.12,0-.18,0-.18.16,0,.37,0,.74,0,1.11,0,.07,0,.14.08.16a.49.49,0,0,0,.67-.45A2.43,2.43,0,0,0,56.85,46Zm-9.46,1.67c-.11-.7-.22-1.4-.32-2.09h0l-.27,1.77c-.07.53-.07.53.49.49C47.39,47.79,47.4,47.74,47.39,47.62Zm-4.22-2c0-.28-.18-.35-.57-.34s-.14.23-.16.35a1.29,1.29,0,0,0,0,.34v.59s0,.11.07.15a.51.51,0,0,0,.68-.38A2.42,2.42,0,0,0,43.17,45.58Zm-5.43-.06c0-.24-.23-.31-.57-.27s-.12.21-.14.32a3.84,3.84,0,0,0,0,.48v.6c0,.06,0,.13,0,.17a.51.51,0,0,0,.66-.25A3.69,3.69,0,0,0,37.74,45.52ZM59.68,47c0-.38,0-.75,0-1.12a1.61,1.61,0,0,0,0-.31.38.38,0,0,0-.75,0,2.35,2.35,0,0,0,0,.26c0,.78,0,1.56,0,2.33a1.73,1.73,0,0,0,0,.32.32.32,0,0,0,.34.27.33.33,0,0,0,.37-.27,1.36,1.36,0,0,0,0-.29C59.69,47.74,59.68,47.34,59.68,47ZM43.17,45.58c0-.28-.18-.35-.57-.34s-.14.23-.16.35a1.29,1.29,0,0,0,0,.34v.59s0,.11.07.15a.51.51,0,0,0,.68-.38A2.42,2.42,0,0,0,43.17,45.58Zm-5.43-.06c0-.24-.23-.31-.57-.27s-.12.21-.14.32a3.84,3.84,0,0,0,0,.48v.6c0,.06,0,.13,0,.17a.51.51,0,0,0,.66-.25A3.69,3.69,0,0,0,37.74,45.52Zm9.65,2.1c-.11-.7-.22-1.4-.32-2.09h0l-.27,1.77c-.07.53-.07.53.49.49C47.39,47.79,47.4,47.74,47.39,47.62ZM56.85,46c0-.62-.08-.73-.58-.71-.12,0-.18,0-.18.16,0,.37,0,.74,0,1.11,0,.07,0,.14.08.16a.49.49,0,0,0,.67-.45A2.43,2.43,0,0,0,56.85,46Zm2.83,1c0-.38,0-.75,0-1.12a1.61,1.61,0,0,0,0-.31.38.38,0,0,0-.75,0,2.35,2.35,0,0,0,0,.26c0,.78,0,1.56,0,2.33a1.73,1.73,0,0,0,0,.32.32.32,0,0,0,.34.27.33.33,0,0,0,.37-.27,1.36,1.36,0,0,0,0-.29C59.69,47.74,59.68,47.34,59.68,47Zm-2.83-1c0-.62-.08-.73-.58-.71-.12,0-.18,0-.18.16,0,.37,0,.74,0,1.11,0,.07,0,.14.08.16a.49.49,0,0,0,.67-.45A2.43,2.43,0,0,0,56.85,46Zm-9.46,1.67c-.11-.7-.22-1.4-.32-2.09h0l-.27,1.77c-.07.53-.07.53.49.49C47.39,47.79,47.4,47.74,47.39,47.62Zm-4.22-2c0-.28-.18-.35-.57-.34s-.14.23-.16.35a1.29,1.29,0,0,0,0,.34v.59s0,.11.07.15a.51.51,0,0,0,.68-.38A2.42,2.42,0,0,0,43.17,45.58Zm-5.43-.06c0-.24-.23-.31-.57-.27s-.12.21-.14.32a3.84,3.84,0,0,0,0,.48v.6c0,.06,0,.13,0,.17a.51.51,0,0,0,.66-.25A3.69,3.69,0,0,0,37.74,45.52Zm5.43.06c0-.28-.18-.35-.57-.34s-.14.23-.16.35a1.29,1.29,0,0,0,0,.34v.59s0,.11.07.15a.51.51,0,0,0,.68-.38A2.42,2.42,0,0,0,43.17,45.58Zm-5.43-.06c0-.24-.23-.31-.57-.27s-.12.21-.14.32a3.84,3.84,0,0,0,0,.48v.6c0,.06,0,.13,0,.17a.51.51,0,0,0,.66-.25A3.69,3.69,0,0,0,37.74,45.52Zm9.65,2.1c-.11-.7-.22-1.4-.32-2.09h0l-.27,1.77c-.07.53-.07.53.49.49C47.39,47.79,47.4,47.74,47.39,47.62Zm0,0c-.11-.7-.22-1.4-.32-2.09h0l-.27,1.77c-.07.53-.07.53.49.49C47.39,47.79,47.4,47.74,47.39,47.62Zm-4.22-2c0-.28-.18-.35-.57-.34s-.14.23-.16.35a1.29,1.29,0,0,0,0,.34v.59s0,.11.07.15a.51.51,0,0,0,.68-.38A2.42,2.42,0,0,0,43.17,45.58Zm-5.43-.06c0-.24-.23-.31-.57-.27s-.12.21-.14.32a3.84,3.84,0,0,0,0,.48v.6c0,.06,0,.13,0,.17a.51.51,0,0,0,.66-.25A3.69,3.69,0,0,0,37.74,45.52Zm5.43.06c0-.28-.18-.35-.57-.34s-.14.23-.16.35a1.29,1.29,0,0,0,0,.34v.59s0,.11.07.15a.51.51,0,0,0,.68-.38A2.42,2.42,0,0,0,43.17,45.58Zm-5.43-.06c0-.24-.23-.31-.57-.27s-.12.21-.14.32a3.84,3.84,0,0,0,0,.48v.6c0,.06,0,.13,0,.17a.51.51,0,0,0,.66-.25A3.69,3.69,0,0,0,37.74,45.52Zm9.65,2.1c-.11-.7-.22-1.4-.32-2.09h0l-.27,1.77c-.07.53-.07.53.49.49C47.39,47.79,47.4,47.74,47.39,47.62Zm0,0c-.11-.7-.22-1.4-.32-2.09h0l-.27,1.77c-.07.53-.07.53.49.49C47.39,47.79,47.4,47.74,47.39,47.62Zm-4.22-2c0-.28-.18-.35-.57-.34s-.14.23-.16.35a1.29,1.29,0,0,0,0,.34v.59s0,.11.07.15a.51.51,0,0,0,.68-.38A2.42,2.42,0,0,0,43.17,45.58Zm-5.43-.06c0-.24-.23-.31-.57-.27s-.12.21-.14.32a3.84,3.84,0,0,0,0,.48v.6c0,.06,0,.13,0,.17a.51.51,0,0,0,.66-.25A3.69,3.69,0,0,0,37.74,45.52Zm0,0c0-.24-.23-.31-.57-.27s-.12.21-.14.32a3.84,3.84,0,0,0,0,.48v.6c0,.06,0,.13,0,.17a.51.51,0,0,0,.66-.25A3.69,3.69,0,0,0,37.74,45.52Zm0,0c0-.24-.23-.31-.57-.27s-.12.21-.14.32a3.84,3.84,0,0,0,0,.48v.6c0,.06,0,.13,0,.17a.51.51,0,0,0,.66-.25A3.69,3.69,0,0,0,37.74,45.52Zm0,0c0-.24-.23-.31-.57-.27s-.12.21-.14.32a3.84,3.84,0,0,0,0,.48v.6c0,.06,0,.13,0,.17a.51.51,0,0,0,.66-.25A3.69,3.69,0,0,0,37.74,45.52Zm0,0c0-.24-.23-.31-.57-.27s-.12.21-.14.32a3.84,3.84,0,0,0,0,.48v.6c0,.06,0,.13,0,.17a.51.51,0,0,0,.66-.25A3.69,3.69,0,0,0,37.74,45.52Z" style="fill:#ccc"/><path d="M59.68,48.13a1.36,1.36,0,0,1,0,.29.33.33,0,0,1-.37.27.32.32,0,0,1-.34-.27,1.73,1.73,0,0,1,0-.32c0-.77,0-1.55,0-2.33a2.35,2.35,0,0,1,0-.26.38.38,0,0,1,.75,0,1.61,1.61,0,0,1,0,.31c0,.37,0,.74,0,1.12S59.69,47.74,59.68,48.13Z" style="fill:#fefefe"/><path d="M62,52c0-.12-.13-.32.14-.35s.56,0,.6.31a1.7,1.7,0,0,1,0,.45.5.5,0,0,1-.67.46c-.1,0-.09-.09-.09-.16v-.45A1.13,1.13,0,0,1,62,52Z" style="fill:#fefefe"/><path d="M62.85,54.3v.19a.51.51,0,0,1-.74.5c-.1,0-.08-.1-.08-.17V53.69c0-.15,0-.18.18-.18C62.74,53.49,62.85,53.62,62.85,54.3Z" style="fill:#fefefe"/><path d="M66.57,54.6c0,.3-.14.44-.38.44a.33.33,0,0,1-.37-.27,2,2,0,0,1,0-.24V52.07a2.6,2.6,0,0,1,0-.26.33.33,0,0,1,.35-.26.32.32,0,0,1,.36.25.92.92,0,0,1,0,.29v1.22C66.57,53.74,66.58,54.17,66.57,54.6Z" style="fill:#fefefe"/><path d="M43.18,46.29a.51.51,0,0,1-.68.38c-.08,0-.07-.1-.07-.15v-.59a1.29,1.29,0,0,1,0-.34c0-.12-.13-.33.16-.35s.53.06.57.34A2.42,2.42,0,0,1,43.18,46.29Z" style="fill:#fefefe"/><path d="M56.85,46.22a.49.49,0,0,1-.67.45c-.1,0-.08-.09-.08-.16,0-.37,0-.74,0-1.11,0-.13.06-.15.18-.16.5,0,.59.09.58.71A2.43,2.43,0,0,1,56.85,46.22Z" style="fill:#fefefe"/><path d="M51.47,53.29h0c0,.41,0,.82,0,1.22a.79.79,0,0,1-.06.34.32.32,0,0,1-.35.19.32.32,0,0,1-.33-.21.92.92,0,0,1,0-.29c0-.83,0-1.66,0-2.48a.47.47,0,0,1,.17-.45.39.39,0,0,1,.6.36C51.49,52.41,51.47,52.85,51.47,53.29Z" style="fill:#fefefe"/><path d="M29.92,52.56v.74h0v1.29c0,.21-.06.39-.3.45a.36.36,0,0,1-.45-.29.92.92,0,0,1,0-.29V52.13c0-.09,0-.19,0-.29a.34.34,0,0,1,.35-.29.36.36,0,0,1,.39.29A4.33,4.33,0,0,1,29.92,52.56Z" style="fill:#fefefe"/><path d="M56.37,54.15c-.57,0-.57,0-.5-.51l.27-1.75h0c.1.7.21,1.41.32,2.11C56.52,54.11,56.49,54.14,56.37,54.15Z" style="fill:#fefefe"/><path d="M47.25,47.79c-.56,0-.56,0-.49-.49L47,45.53h0c.1.69.21,1.39.32,2.09C47.4,47.74,47.39,47.79,47.25,47.79Z" style="fill:#fefefe"/><path d="M37.73,46.57a.51.51,0,0,1-.66.25c-.06,0,0-.11,0-.17v-.6a3.84,3.84,0,0,1,0-.48c0-.11-.11-.3.14-.32s.53,0,.57.27A3.69,3.69,0,0,1,37.73,46.57Z" style="fill:#fefefe"/><path d="M74,50V42c0-.07,0-.14.11-.13s.1.07.1.14V58c0,.07,0,.09-.1.1S74,58.09,74,58V50Z" style="fill:#fefefe"/><path d="M15.75,44.13a4.57,4.57,0,0,1,1.28.56A5.93,5.93,0,0,1,19,46.49a6.18,6.18,0,0,1,1,3.16c0,.21,0,.42,0,.63-.16,0-.16-.16-.19-.28s-.05-.17-.15-.16-.09.1-.1.17c0,.31-.22.59-.15.92a.48.48,0,0,1-.06.31c-.09.21-.19.24-.41.12a1.41,1.41,0,0,1-.19-.34c-.18-.43-.3-.51-.78-.48a.17.17,0,0,1-.1,0c-.23-.12-.22-.32-.2-.54a4.3,4.3,0,0,0-.24-2.13c-.11-.27-.32-.46-.43-.72-.14-.08-.24.05-.35.1-.49.21-.82,0-1-.49.22-.21.25-.54.5-.73.08-.06,0-.15,0-.22a1.46,1.46,0,0,1,0-.59.17.17,0,0,1,.07-.14c.23-.16.12-.28,0-.41s-.25-.19-.37-.29S15.74,44.24,15.75,44.13Z" style="fill:#ccc"/><path d="M16.26,55.42a5.94,5.94,0,0,1-6.5-1.35c-.2-.19-.36-.41-.54-.61A1.18,1.18,0,0,1,9,52.85a1,1,0,0,0-.28-.59,2.85,2.85,0,0,1-.52-1.18,5.27,5.27,0,0,1,.49-3.94c.12-.2.25-.4.55-.34.09,0,.13-.07.16-.14s.14-.17.26-.09.17.22.07.32a.56.56,0,0,0-.13.46c0,.1,0,.18-.09.26A4.67,4.67,0,0,0,9,49.88a5.05,5.05,0,0,0,3.17,4.68,3.18,3.18,0,0,0,1,.26.46.46,0,0,1,.33.23,1,1,0,0,0,1.58.14.67.67,0,0,1,.31-.19,2,2,0,0,1,.75.24C16.22,55.28,16.28,55.33,16.26,55.42Z" style="fill:#999"/><path d="M15.75,44.13a4.77,4.77,0,0,1,.72.53c.16.13,0,.35.09.53a.81.81,0,0,0-.14-.12c-.08,0-.16,0-.14.08.09.24-.1.51.06.7s-.11.19-.08.32-.1-.08-.19-.06.1.2.12.34c-.22,0-.32.18-.48.29s-.23-.07-.23-.22,0-.29.1-.42c-.08.11,0,.27-.1.38s-.21,0-.3-.1A3.21,3.21,0,0,0,14.7,46a11.79,11.79,0,0,0-2.07-1.44c-.12-.06-.25-.1-.27-.26s.19-.18.32-.23A6.92,6.92,0,0,1,15.75,44.13Z" style="fill:#999"/><path d="M12.39,44.26a10.92,10.92,0,0,1,2.15,1.41,2.29,2.29,0,0,1,.23.21c.2.27.2.27,0,.56a6.19,6.19,0,0,1-.55.59.29.29,0,0,1-.46,0,.61.61,0,0,0-.31-.18,9.64,9.64,0,0,1-.91-.76l-.9-.61a2.91,2.91,0,0,1-.35-.18.29.29,0,0,1-.13-.08.2.2,0,0,1,0-.11s0,0,0-.05c.44-.14.64-.6,1-.83l.06-.06A.13.13,0,0,1,12.39,44.26Z" style="fill:#e1e2e3"/><path d="M19,51.27c.11.15.2.17.24-.05s.08-.19.06-.28c-.09-.43.16-.8.21-1.2,0-.07,0-.16.09-.18s.11.08.17.11c.27.13.16.41.24.61a6,6,0,0,1-2.14,4.19l-.1.09a.78.78,0,0,1-.85-.26,1,1,0,0,0-.06-.25.35.35,0,0,1,.17-.28,4.87,4.87,0,0,0,1.64-2.24C18.69,51.37,18.75,51.22,19,51.27Z" style="fill:#999"/><path d="M12.12,44.25a.31.31,0,0,1-.14.26,3.08,3.08,0,0,0-.38.43c-.11.18-.31.16-.48.2s-.36,0-.53,0a.11.11,0,0,1-.05-.12c0-.13-.15-.11-.24-.1a1.18,1.18,0,0,0-1.21.71.61.61,0,0,1,.05-.47,1.74,1.74,0,0,1,2.11-1.18A6.94,6.94,0,0,1,12.12,44.25Z" style="fill:#d3d4d5"/><path d="M16.92,54.26a2.93,2.93,0,0,0,.81.3c.52.28,1,0,1.4-.65a1.38,1.38,0,0,1-.88,1.4,2.92,2.92,0,0,1-1.63.08.49.49,0,0,0-.36,0c0-.08-.1-.06-.13-.1S16,55.12,16,55c.19-.33.32-.71.73-.84A.14.14,0,0,1,16.92,54.26Z" style="fill:#c8c9cb"/><path d="M11.15,45.18l.15.06a.56.56,0,0,1-.42.57.58.58,0,0,0-.56.42,8.72,8.72,0,0,1-.54,1c0,.08-.12.18-.25.08s0-.32.13-.44-.06-.18-.06-.29c0,.17-.19.28-.25.43s-.06.09-.11,0-.23-.17-.38,0a.24.24,0,0,1-.16.12,3.25,3.25,0,0,1,1-1.37.61.61,0,0,1,.27-.08c.2,0,.29-.21.46-.29A2.74,2.74,0,0,1,11.15,45.18Z" style="fill:#ccc"/><path d="M8,49.65a2.52,2.52,0,0,1,.05.37,5.2,5.2,0,0,0,.45,1.74c.1.28.38.44.48.72s.24.33.12.57,0,.27.09.41a5.23,5.23,0,0,1-1.07-2.27A4.18,4.18,0,0,1,8,49.65Z" style="fill:#ccc"/><path d="M10,45.77c-.09.12-.18.1-.27,0a2.6,2.6,0,0,1,.86-.79l.09.05a.18.18,0,0,1-.06.19A4.6,4.6,0,0,1,10,45.77Z" style="fill:#ccc"/><path d="M12.39,44.26l-.21-.07c.14-.15.33-.13.5-.16l-.06,0c.07.18,0,.19-.15.13S12.41,44.24,12.39,44.26Z" style="fill:#ccc"/><path d="M59.68,48.13a1.36,1.36,0,0,1,0,.29.33.33,0,0,1-.37.27.32.32,0,0,1-.34-.27,1.73,1.73,0,0,1,0-.32c0-.77,0-1.55,0-2.33a2.35,2.35,0,0,1,0-.26.38.38,0,0,1,.75,0,1.61,1.61,0,0,1,0,.31c0,.37,0,.74,0,1.12S59.69,47.74,59.68,48.13Z" style="fill:#ccc"/><path d="M62.85,54.3v.19a.51.51,0,0,1-.74.5c-.1,0-.08-.1-.08-.17V53.69c0-.15,0-.18.18-.18C62.74,53.49,62.85,53.62,62.85,54.3Z" style="fill:#ccc"/><path d="M62.79,52.36a.5.5,0,0,1-.67.46c-.1,0-.09-.09-.09-.16v-.45A1.13,1.13,0,0,1,62,52c0-.12-.13-.32.14-.35s.56,0,.6.31A1.7,1.7,0,0,1,62.79,52.36Z" style="fill:#ccc"/><path d="M66.57,54.6c0,.3-.14.44-.38.44a.33.33,0,0,1-.37-.27,2,2,0,0,1,0-.24V52.07a2.6,2.6,0,0,1,0-.26.33.33,0,0,1,.35-.26.32.32,0,0,1,.36.25.92.92,0,0,1,0,.29v1.22C66.57,53.74,66.58,54.17,66.57,54.6Z" style="fill:#ccc"/><path d="M43.18,46.29a.51.51,0,0,1-.68.38c-.08,0-.07-.1-.07-.15v-.59a1.29,1.29,0,0,1,0-.34c0-.12-.13-.33.16-.35s.53.06.57.34A2.42,2.42,0,0,1,43.18,46.29Z" style="fill:#ccc"/><path d="M56.85,46.22a.49.49,0,0,1-.67.45c-.1,0-.08-.09-.08-.16,0-.37,0-.74,0-1.11,0-.13.06-.15.18-.16.5,0,.59.09.58.71A2.43,2.43,0,0,1,56.85,46.22Z" style="fill:#ccc"/><path d="M51.47,53.29h0c0,.41,0,.82,0,1.22a.79.79,0,0,1-.06.34.32.32,0,0,1-.35.19.32.32,0,0,1-.33-.21.92.92,0,0,1,0-.29c0-.83,0-1.66,0-2.48a.47.47,0,0,1,.17-.45.39.39,0,0,1,.6.36C51.49,52.41,51.47,52.85,51.47,53.29Z" style="fill:#ccc"/><path d="M29.92,52.56v.74h0v1.29c0,.21-.06.39-.3.45a.36.36,0,0,1-.45-.29.92.92,0,0,1,0-.29V52.13c0-.09,0-.19,0-.29a.34.34,0,0,1,.35-.29.36.36,0,0,1,.39.29A4.33,4.33,0,0,1,29.92,52.56Z" style="fill:#ccc"/><path d="M56.37,54.15c-.57,0-.57,0-.5-.51l.27-1.75h0c.1.7.21,1.41.32,2.11C56.52,54.11,56.49,54.14,56.37,54.15Z" style="fill:#ccc"/><path d="M47.25,47.79c-.56,0-.56,0-.49-.49L47,45.53h0c.1.69.21,1.39.32,2.09C47.4,47.74,47.39,47.79,47.25,47.79Z" style="fill:#ccc"/><path d="M37.73,46.57a.51.51,0,0,1-.66.25c-.06,0,0-.11,0-.17v-.6a3.84,3.84,0,0,1,0-.48c0-.11-.11-.3.14-.32s.53,0,.57.27A3.69,3.69,0,0,1,37.73,46.57Z" style="fill:#ccc"/><path d="M13.45,46.78c.17-.06.22.1.3.18s.21.14.33,0,.48-.52.73-.76-.09-.22,0-.33a6,6,0,0,1,.7.63h0l.25.24c.43.55.43.55,1.05.26l.33-.16c0,.36.13.72.16,1.09a1.07,1.07,0,0,1-.07.39c0,.37,0,.74,0,1.1,0,.19-.07.34-.29.33s-.71-.21-1.06-.31a3.74,3.74,0,0,0-.45-.12c-.12,0-.2-.11-.32-.1H15a5.91,5.91,0,0,0-.82-.24l-.35-.11c-.11,0-.21-.08-.21-.21s.08-.16.17-.2a2.76,2.76,0,0,0,.5-.34c.16-.12.19-.24,0-.38s-.12-.13-.19-.18L14,47.47a1.94,1.94,0,0,1-.32-.32C13.65,47,13.39,47,13.45,46.78Z" style="fill:#f5f5f5"/><path d="M16.84,49.64c.13,0,.2,0,.2-.16a9.48,9.48,0,0,1,.05-1.19h0c0-.12,0-.25,0-.36V46.84c0,.34.26.58.39.87A4.18,4.18,0,0,1,17.75,50a.5.5,0,0,0,.15.45.86.86,0,0,0-.08.45.76.76,0,0,1-.39.75c-.21.12-.36.35-.62.43,0,0,0,0,0,0,.34-.14.5,0,.39.32a2.69,2.69,0,0,1-1.15,1.36.47.47,0,0,1-.38-.12c-.32-.26-.66-.48-1-.75l-.16-.14a.79.79,0,0,0-.22-.18c-.11-.09-.26-.19-.2-.38s.38-.16.57-.24a3.78,3.78,0,0,0,.69-.36c.28-.2.28-.2.54,0,.05,0,.08.1.15.12S16,51.7,16,51.65a.51.51,0,0,1,.06-.76,1.6,1.6,0,0,0,.37-.8A.47.47,0,0,1,16.84,49.64Z" style="fill:#ccc"/><path d="M16,53.75c.26-.27.5-.54.77-.79s.24-.48.36-.72-.11-.13-.19-.1a3.9,3.9,0,0,0-.35.19c-.06,0-.14,0-.17,0s0-.09.1-.11c.38-.17.64-.51,1-.71.16-.1.11-.32.17-.48s-.13-.27-.23-.39c.11-.14.32,0,.42-.13s.32-.08.51,0c.45.12.36.56.55.82a.41.41,0,0,0-.19.2A4.87,4.87,0,0,1,17,53.91a1.71,1.71,0,0,0-.11.14c0,.1-.11.13-.19.18C16.41,54.16,16.12,54.09,16,53.75Z" style="fill:#999"/><path d="M9.53,47.3c.06,0,.1,0,.12-.07a12.07,12.07,0,0,1,.62-1.11c.05-.1,0-.27.12-.33l.45,0s.08,0,.09,0c.09-.18.29-.28.37-.47a1,1,0,0,1,.36.18c0,.31-.25.44-.46.58a.72.72,0,0,0-.36.45,1,1,0,0,1,.7-.1c.12,0,.23,0,.25.19s-.21.29-.34.42a3.84,3.84,0,0,0-1.16,4,.92.92,0,0,0,.17.44,3.44,3.44,0,0,0,.38,1c0,.08,0,.16.12.19a3.31,3.31,0,0,0,1.15.26c.2,0,.31.24.5.31s.25.17.28.33a.28.28,0,0,0,.13.24l.14.13c.39.39.34.48.06,1l0,.06a1.34,1.34,0,0,1-.84-.13,5.14,5.14,0,0,1-3.43-4.13,4.82,4.82,0,0,1,.56-3.19Z" style="fill:#999"/><path d="M13.18,54.9c-.1-.13,0-.25.06-.34a.32.32,0,0,0,0-.48c-.12-.12-.21-.25-.32-.38s-.11-.11-.07-.2.21,0,.3.06.31.25.49.35a11.85,11.85,0,0,0,1.5.89c.12.05.27.09.28.27a1.25,1.25,0,0,1-1,.53c-.44.08-.66,0-1-.47A.69.69,0,0,0,13.18,54.9Z" style="fill:#ccc"/><path d="M15.39,55.07l-.32-.17a.1.1,0,0,0-.05-.06c-.37-.13-.4-.27-.14-.63.12-.17.26-.34.37-.52s.27-.26.47-.13l.3.19a6.52,6.52,0,0,0,.72.43s0,0,0,0a2.72,2.72,0,0,0-.63.76c-.1.13,0,.23,0,.34A6.44,6.44,0,0,1,15.39,55.07Z" style="fill:#d3d4d5"/><path d="M15.46,46.5h0c-.05-.37,0-.51.27-.58-.07.19-.25.37-.05.56C15.61,46.57,15.53,46.49,15.46,46.5Z" style="fill:#b3b3b3"/><path d="M16.13,45.19c-.06.08-.1.2-.23.12s-.06-.06-.05-.07S16,45.24,16.13,45.19Z" style="fill:#ccc"/><path d="M10.37,51.44A2.44,2.44,0,0,1,10,50.22a4.11,4.11,0,0,1,1.1-3.13c.19-.21.43-.38.65-.58s.36-.29.56-.41.14-.11.23-.07a10.84,10.84,0,0,1,.9.75l.31.32a.21.21,0,0,1,0,.06,3.93,3.93,0,0,0-1.54.7c-.11.08-.15.22-.23.32l-.06,0a2.57,2.57,0,0,0-.53,1.22c0,.23.17.2.3.24s.17.14.12.27-.3,0-.45,0c-.33-.1-.37-.08-.41.27a1.14,1.14,0,0,1,0,.37.94.94,0,0,0-.3.58C10.57,51.31,10.53,51.43,10.37,51.44Z" style="fill:#999"/><path d="M12.55,46a3.41,3.41,0,0,1-.59.49c-.08.06-.14.06-.2,0-.3-.06-.59-.18-.85.09-.06.06-.13.1-.21,0s0-.14,0-.21a.89.89,0,0,1,.51-.55c.18-.07.31-.3.46-.45A3.9,3.9,0,0,1,12.55,46Z" style="fill:#ccc"/><path d="M10,45.77a3.42,3.42,0,0,1,.68-.74l.49.11,0,0c-.09.1-.15.3-.36.15a0,0,0,0,0-.08,0c0,.25-.24.07-.34.17A.57.57,0,0,1,10,45.77Z" style="fill:#999"/><path d="M16.78,54.22l0,0a.32.32,0,0,1,.15-.13.37.37,0,0,1,0,.21Z" style="fill:#ccc"/><path d="M15.83,51.76c-.17,0-.06-.16-.16-.21a3,3,0,0,1-1.56.7c-.13.08-.21,0-.3-.09l-.49-.48c-.26-.28-.25-.36,0-.61a2.74,2.74,0,0,0,.58-.49.38.38,0,0,1,.52-.15,1,1,0,0,0,.62,0c.19-.06.29-.16.24-.37s-.09-.47.2-.55c-.22,0-.22,0-.34,0,0-.21.22-.13.34-.16s.19,0,.27-.06a9.76,9.76,0,0,1,1.05.32.93.93,0,0,0-.33.56,1.85,1.85,0,0,1-.58,1c-.09.07,0,.11,0,.17s.18.1.14.22a.12.12,0,0,1-.18-.05c-.05-.14-.19-.2-.24-.25C15.76,51.4,16.05,51.48,15.83,51.76Z" style="fill:#b3b3b3"/><path d="M15.19,49.53h.44c-.37.07-.26.33-.24.55-.23.26-.58.21-.87-.14,0,.12-.07.28-.23.28s-.23-.14-.31-.26,0-.3-.2-.42c0,0,0,.06,0,0s0,0,0,0a.23.23,0,0,1,0,.35c-.07.07-.17.11-.23,0s-.33-.25-.48-.39a.39.39,0,0,0-.49,0,5.15,5.15,0,0,1-.75.5.12.12,0,0,1-.15-.1c0-.14-.09-.13-.15-.19s-.23-.19-.21-.36a.41.41,0,0,1,.41-.38c.23,0,.34,0,.33-.29,0-.11.12-.16.24-.17a.37.37,0,0,0,.28-.11c.14-.21.4-.24.56-.43s.19-.05.24.06.26.18.41.12a.35.35,0,0,0,.2-.43c0-.13-.08-.24.1-.29.54.49.54.49-.07.88l-.49.3,1.45.46C14.92,49.38,14.92,49.38,15.19,49.53Z" style="fill:#b3b3b3"/><path d="M14.15,47.48a.14.14,0,0,0,0,.21c0,.07.19.12.13.23a1.14,1.14,0,0,1-.21.3.7.7,0,0,1-.63.08c-.05,0-.07,0,0-.1s0-.13-.09-.22a.39.39,0,0,1-.38.37.45.45,0,0,0-.21.15c-.06.07-.12.15-.22.14s-.31,0-.23.31-.13.21-.29.2c-.34,0-.49.1-.47.44,0,.09.06.12.1.17-.26,0-.4-.12-.36-.35a3.28,3.28,0,0,1,.48-1.16.19.19,0,0,1,.16-.08l0,0,0,0a1.48,1.48,0,0,1,.85-.78,1.84,1.84,0,0,1,1-.28c0,.2-.16.27-.29.37s-.21.19,0,.34.13.26.28.19.08-.23.1-.35.08-.28.27-.25Z" style="fill:#999"/><path d="M14.08,47.41c-.12.1-.23.19-.14.4s-.07.29-.21.37-.21,0-.27-.15a.35.35,0,0,0-.16-.16c-.22-.08-.25-.31-.06-.42s.32-.24.48-.34h0Z" style="fill:#b3b3b3"/><path d="M15.19,49.53a.66.66,0,0,1-.4,0c.09-.15-.15-.45.25-.45h0c.1,0,.15.19.28.1a1.16,1.16,0,0,1,.48.11c.08.2-.08.15-.17.17S15.32,49.44,15.19,49.53Z" style="fill:#999"/><path d="M15.31,49.21s0,.1,0,.11-.13,0-.15,0-.09-.09-.11-.16S15.22,49.18,15.31,49.21Z" style="fill:#b3b3b3"/><path d="M17.1,48a.64.64,0,0,1,0,.49l0-.15Z" style="fill:#ccc"/><path d="M13.39,51.62l.72.63.5.46s0,0,0,0c-.44.24-.6.7-.88,1.06-.05.07-.06.2-.2.17l-.72-.49-.28-.25c-.07-.16-.23-.21-.34-.32a.33.33,0,0,1,0-.47c.18-.28.36-.56.56-.83s.3-.29.56-.07A.2.2,0,0,0,13.39,51.62Z" style="fill:#e9eaeb"/><path d="M13.54,54a6.06,6.06,0,0,1,.79-1.22c.07-.11.19,0,.28-.06l1.11.85a.32.32,0,0,0-.37.19,6.74,6.74,0,0,1-.45.64c-.13.18-.14.31.09.4,0,0,.12,0,.08.11A8.46,8.46,0,0,1,13.54,54Z" style="fill:#dddee0"/><path d="M15.83,51.76c.08-.32-.28-.38-.36-.6s-.16-.15-.06-.22.21,0,.25.15a1.13,1.13,0,0,0,.43.51.61.61,0,0,1,.21.47A1.74,1.74,0,0,1,15.83,51.76Z" style="fill:#999"/><path d="M16.84,50.43c.12.06.18.25.38.18a.08.08,0,0,1,.1.06.09.09,0,0,1-.07.12.65.65,0,0,1-.2,0c-.16,0-.23-.15-.31-.25S16.71,50.4,16.84,50.43Z" style="fill:#999"/><path d="M16.84,50.43c-.07,0-.19,0-.07.12a3.45,3.45,0,0,0,.28.26c-.23,0-.29-.17-.39-.3s0-.1.06-.13S16.82,50.37,16.84,50.43Z" style="fill:#b3b3b3"/><path d="M13.39,51.62s0,0-.05,0c-.38-.16-.38-.16-.62.19l-.44.66c-.16.22-.14.36.08.54s.2.09.18.23l-.43-.33a.88.88,0,0,1-.48-.29c-.14-.14-.31-.24-.5-.05s-.15.06-.24.06c-.28.12-.07-.14-.15-.18A5.47,5.47,0,0,1,10.68,51a1,1,0,0,1,.12-.38c0-.23,0-.47,0-.71s0-.18.18-.13.49.15.73.22l.15,0A.18.18,0,0,1,12,50a8.46,8.46,0,0,1,1.19.34c.28.1.62.06.82.35a1.76,1.76,0,0,1-.59.53C13.22,51.32,13.14,51.44,13.39,51.62Z" style="fill:#fefefe"/><path d="M10.8,50.57l-.06,1.89c-.11-.34-.41-.62-.37-1,.12-.1.08-.25.11-.38A.72.72,0,0,1,10.8,50.57Z" style="fill:#ccc"/><path d="M10.89,52.64c.46-.41.46-.41.91,0l.31.29A1.6,1.6,0,0,1,10.89,52.64Z" style="fill:#ccc"/><path d="M12.21,47c-.18.07-.32.18-.47,0s0-.09,0-.13C11.91,46.84,12.08,46.79,12.21,47Z" style="fill:#b3b3b3"/><path d="M14,50.64a5.44,5.44,0,0,1-.81-.25A1.56,1.56,0,0,0,12,50l-.13,0s-.07-.11,0-.11c.32,0,.43-.3.64-.45a.64.64,0,0,1,.64,0,.86.86,0,0,0,.36.26c.13,0,.08.18.12.27.2-.26.2-.26,0-.42l-.14-.09c-.05,0-.09-.09,0-.15s.09,0,.14,0c.29.14.39.43.53.68.06.09.1.18.21.14s.05-.13,0-.21,0-.21.27-.22c0,.45.15.47.75.37a.33.33,0,0,1-.24.52,1.36,1.36,0,0,1-.8-.07C14.21,50.47,14.08,50.46,14,50.64Z" style="fill:#999"/><path d="M12.67,48.34a.16.16,0,0,1-.17.16c-.11,0-.22.14-.31,0s.05-.13.08-.2.24-.26.08-.46c0,0,.05-.1.1-.13a.06.06,0,0,1,.1,0C12.56,48,12.49,48.19,12.67,48.34Z" style="fill:#b3b3b3"/><path d="M11.87,48.17l.11-.11s.07-.13.16-.1a.09.09,0,0,1,0,.13c-.06.12-.13.22-.27.22s-.05-.09-.05-.14Z" style="fill:#b3b3b3"/><path d="M12,50c.34-.19.69,0,1,0,.15,0,.13.22.16.36A9.61,9.61,0,0,1,12,50Z" style="fill:#b3b3b3"/><path d="M13.28,49.93c.15,0,.24-.06.31,0s0,.07,0,.09S13.41,50,13.28,49.93Z" style="fill:#b3b3b3"/></svg>