<svg xmlns="http://www.w3.org/2000/svg" viewBox="0 0 1024 897.33"><title>logotipoMozBuilders</title><g id="b36f3a48-7344-416a-a365-725e1393053f" data-name="Layer 2"><g id="a7b9911a-d49a-405e-817a-b9c3b4f45895" data-name="Layer 2"><path d="M503.52,446.2h0Z" style="fill:none"/><path d="M479.43,446.36h0l-90-156.42L292.38,458c39-6.24,77-9.17,114.73-10.21C430.82,446.87,455.17,446.55,479.43,446.36Z" style="fill:none"/><path d="M602.93,446.83c19.86.1,39.46.3,58.76.38l-46.8-91.12-44.87,87,2.11,3.46Q587.6,446.65,602.93,446.83Z" style="fill:none"/><path d="M726.63,446.87q12.52-.19,24.74-.52C743.23,446.56,735,446.73,726.63,446.87Z" style="fill:none"/><path d="M661.83,447.21c5.23,0,10.46,0,15.64,0Q669.69,447.25,661.83,447.21Z" style="fill:none"/><path d="M458.3,764c180.87,20.21,345.4-107.49,359.3-287.6-202.87,30.77-415.8-1.79-624,37.95C223.74,634.58,316.12,742.92,458.3,764Z" style="fill:none"/><path d="M816.39,412.81c-20.9-135-120.08-263.75-278-283.72-199.24-18-376.24,143.63-350.55,353.74,19.57-6.09,39.27-11.37,58.9-15.91l157.25-268H421.7L548.74,408l80.63-153.92h17.76L751.39,446.35c22.16-.44,44.58-1.39,67.05-2.81q-.37-15.15-2.16-30.68Z" style="fill:none"/><path d="M887.93,462.93c-23.29,5.5-46.74,9.94-70.33,13.51C803.7,656.55,639.17,784.25,458.3,764,316.12,742.92,223.74,634.58,193.6,514.39A812.73,812.73,0,0,0,63.11,550.28c3.37,77.34,21.23,51.52,80.19,45.32a388.83,388.83,0,0,0,52.43,90.76c-44.86,55.22-44.56,47.62-32.62,60.19,69,67.91,37.15,54.22,101.05,8.48a383.83,383.83,0,0,0,90.91,52.55c-9.62,58.16-12.75,64.29-4.6,66.48,69.42,18.65,74.29,22.15,77.28,14.24l21-55.56a383.76,383.76,0,0,0,105,.09c24.12,62.92,18.89,59.6,29.38,59.42,97.13-26.06,73.94-3.45,64.26-84.55a389.49,389.49,0,0,0,90.85-52.26c55.33,44.83,47.69,44.54,60.31,32.61,68-68.87,54.16-37.14,8.4-100.88a382.76,382.76,0,0,0,52.54-90.75c58.25,9.66,64.4,12.81,66.59,4.65q7.1-38.57,14.2-77.14l-55.67-21A337,337,0,0,0,887.93,462.93Z" style="fill:none;stroke:#9c3b38;stroke-miterlimit:10;stroke-width:10px"/><path d="M887.93,462.93C934,452.05,979.39,437,1024,416.12c-42,8.37-90.62,16.72-135.78,21.4a381.23,381.23,0,0,0-4.79-54.62c54.15-21.78,61.58-22.42,59.21-30.62-20-68.52-18.35-71.44-25.46-73.17-2.16-.53-58.87,10.51-61.06,10.91a389.32,389.32,0,0,0-54.39-89.49c43.52-56.24,43.4-48.64,31.19-60.94-70.46-66.34-38.4-53.21-101-6.1A382.86,382.86,0,0,0,639.94,83.1c8.28-58.37,11.27-64.57,3.08-66.57-69.71-17-74.65-20.4-77.45-12.42l-19.68,56a382.63,382.63,0,0,0-104.81,2.37C415.59.19,420.88,3.37,410.41,3.8,314,32.13,336.71,9,348.19,89.83a389.17,389.17,0,0,0-89.5,54.37c-56.25-43.53-48.62-43.4-60.94-31.19-66.38,70.45-53.11,38.5-6.1,101.05A383.43,383.43,0,0,0,141.26,306c-58.36-8.29-64.57-11.29-66.57-3.09L62.27,380.36l56,19.67c-2.59,35.47-4.85,75-6.31,111l.76-.23C72.65,528.52,34.39,550.36,0,577.09q31.41-15.15,63.11-26.81A812.73,812.73,0,0,1,193.6,514.39c208.2-39.74,421.13-7.18,624-37.95,0,0,0-.09,0-.14,22.58-4,48.49-12.21,70.32-17.37q.15-5.1.19-10.09C888.12,453.55,888.07,458.26,887.93,462.93ZM407.11,447.77c-37.74,1-75.76,4-114.73,10.21l97.08-168,90,156.42h0C455.17,446.55,430.82,446.87,407.11,447.77Zm96.41-1.57h0Zm99.41.63q-15.31-.19-30.8-.3L570,443.07l44.87-87,46.8,91.12C642.39,447.13,622.79,446.93,602.93,446.83Zm58.9.38q7.86,0,15.64,0C672.29,447.25,667.06,447.24,661.83,447.21Zm64.8-.34c8.33-.14,16.6-.31,24.74-.52Q739.15,446.67,726.63,446.87Zm91.81-7.33c0,1.28,0,2.62-.09,4-22.45,1.42-44.83,2.37-67,2.81L647.13,254.11H629.37L548.74,408l-127-209.15H403.94l-157.25,268c-19.63,4.54-39.33,9.82-58.9,15.91C162.1,272.72,339.1,111.11,538.34,129.09c158,20,257.15,148.7,278,283.72l.55-.25c1.29,9,2.26,17.93,2.86,26.9ZM878.65,385,883,383v0Q880.83,384.05,878.65,385Z" style="fill:#9c3b38"/><g id="a57c0dba-90a0-4045-bcf2-e1944b14e066" data-name="title"><path d="M666.93,624.06,655.45,635.7l4.89,4.82,5-5,5.4,5.33a17.86,17.86,0,0,1-3.36,4.28c-6.09,6.18-13.68,6.72-18.92,1.54-5.41-5.33-4-12.67,1.88-18.6a27.84,27.84,0,0,1,9-6.45l-3.51-6.38c-2.26.86-6.23,3.38-10.36,7.57-10.31,10.45-12,23-3.46,31.48a17.49,17.49,0,0,0,13.55,5.18c5.38-.36,10.87-3.22,16.67-9.1a53,53,0,0,0,8.85-12.4Zm-41.6,60.08-6.2-10.6c-2.85-4.87-5.52-9.32-8.51-13.85l.21-.12a141.29,141.29,0,0,0,13.86,8.06l15.46,7.84,8.88-5.19-19-32.48-7.6,4.44,6,10.21a118.14,118.14,0,0,0,8.28,12.75l-.15.09a98.06,98.06,0,0,0-13.16-8l-14.59-7-10.06,5.88,19,32.48Zm-37.87-23.86,13.83,35,8.79-3.47-13.83-35Zm-22.07,14.23a32.16,32.16,0,0,1,4.53-1.67c4.15-1.27,7.4-.57,8.43,2.79,1,3.15-1.23,5.92-5.89,7.35l-4.1,1.25Zm.13,32.54,9-2.75-4.29-14,3.07-.94c3.94-1.14,6.06-.51,8.62,3.61,2.67,4.27,4.44,6.59,5.39,7.46l9.26-2.83c-1.23-1.2-3.88-5.58-6.44-9.3-2-2.76-4.3-4.69-7.28-4.89l-.06-.21c2.79-1.85,5.82-6.16,4.35-11a9.35,9.35,0,0,0-6-6.45c-3.45-1.1-7.82-.76-14,1.13a97,97,0,0,0-12.43,4.68Zm-11.89-21.3-16.39,2.54-1.15-7.45,17.39-2.69-1.1-7.12-26.73,4.14,5.76,37.18,27.66-4.29L558,701l-18.33,2.84-1.29-8.39,16.38-2.54Zm-31,4.26-16.58.2-.09-7.54,17.59-.21-.09-7.2-27,.33.45,37.61,28-.33-.09-7.2-18.54.22-.1-8.48,16.58-.2Zm-61.3,19.58,1.47-12.19c.67-5.6,1.23-10.76,1.58-16.17l.24,0a142.46,142.46,0,0,0,6.18,14.79l7.59,15.59,10.21,1.23,4.49-37.36-8.74-1L483,686.21a119,119,0,0,0-1.1,15.16l-.18,0A97.82,97.82,0,0,0,476.07,687l-7.36-14.43-11.57-1.39-4.49,37.35Zm-15.81-42.46-10,36.28,9.12,2.5,10-36.27Zm-8.88,15.76-14.93-6.65L419,682.52l6.46,2.87-3.09,6.94a18.3,18.3,0,0,1-5.19-1.64c-7.93-3.53-11.1-10.44-8.1-17.17,3.09-6.94,10.47-8.17,18.07-4.79a27.75,27.75,0,0,1,9.19,6.11l4.74-5.53c-1.6-1.81-5.35-4.64-10.73-7-13.41-6-25.79-3.17-30.69,7.84a17.54,17.54,0,0,0-.08,14.51c2.24,4.9,6.85,9,14.39,12.39a52.32,52.32,0,0,0,14.72,3.92Zm-73.41-13.67L370.05,659c3.1-4.71,5.91-9.07,8.65-13.75l.19.13a144.3,144.3,0,0,0-1.09,16l-.18,17.33,8.58,5.66L406.92,653l-7.34-4.85L393.06,658A118.93,118.93,0,0,0,385.29,671l-.14-.1a98.51,98.51,0,0,0,1.37-15.34l-.13-16.21L376.66,633l-20.72,31.4Zm2.09-27.11-12-11.42,5.19-5.46,12.76,12.11,4.95-5.23L356.63,613.5l-25.9,27.29L351,660.06l4.95-5.23-13.45-12.76,5.84-6.16,12,11.42Z" style="fill:#9b3b38"/><path d="M332,560.5c-.19-6-.37-12.87-.37-20.27h-.17c-1.5,6.23-3.36,13.08-5.16,19.18l-5.46,18.49h-7.55l-4.74-18.35c-1.44-6-2.88-12.88-4-19.32h-.12c-.24,6.71-.42,14.25-.66,20.41l-.78,18h-9.05l2.45-46.17h13.5l4.19,15c1.32,5.14,2.64,11.17,3.6,16.64h.24c1.26-5.41,2.76-11.84,4.26-16.78l4.68-14.86h13.13l2.1,46.17h-9.48Z" style="fill:#9b3b38"/><path d="M332,560.5c-.19-6-.37-12.87-.37-20.27h-.17c-1.5,6.23-3.36,13.08-5.16,19.18l-5.46,18.49h-7.55l-4.74-18.35c-1.44-6-2.88-12.88-4-19.32h-.12c-.24,6.71-.42,14.25-.66,20.41l-.78,18h-9.05l2.45-46.17h13.5l4.19,15c1.32,5.14,2.64,11.17,3.6,16.64h.24c1.26-5.41,2.76-11.84,4.26-16.78l4.68-14.86h13.13l2.1,46.17h-9.48Z" style="fill:none;stroke:#9b3b38;stroke-miterlimit:22.92558479309082;stroke-width:0.2160000056028366px"/><path d="M368.79,579.48c-13,0-21.11-10.14-21.11-23.43,0-14.18,8.87-24.38,21.77-24.38,13.31,0,21.4,10.07,21.4,23.56,0,14.38-8.87,24.25-22,24.25Zm.48-8.5c7.13,0,11.45-6.57,11.45-15.41,0-8.35-4.26-15.41-11.45-15.41s-11.46,6.92-11.46,15.55S362.25,571,369.21,571Z" style="fill:#9b3b38"/><path d="M368.79,579.48c-13,0-21.11-10.14-21.11-23.43,0-14.18,8.87-24.38,21.77-24.38,13.31,0,21.4,10.07,21.4,23.56,0,14.38-8.87,24.25-22,24.25Zm.48-8.5c7.13,0,11.45-6.57,11.45-15.41,0-8.35-4.26-15.41-11.45-15.41s-11.46,6.92-11.46,15.55S362.25,571,369.21,571Z" style="fill:none;stroke:#9b3b38;stroke-miterlimit:22.92558479309082;stroke-width:0.2160000056028366px"/><path d="M394.82,572.9l21.35-31.23v-.28H396.8v-8.9H429v5.82l-21,31.17v.27h21.41v8.91h-34.6Z" style="fill:#9b3b38"/><path d="M394.82,572.9l21.35-31.23v-.28H396.8v-8.9H429v5.82l-21,31.17v.27h21.41v8.91h-34.6Z" style="fill:none;stroke:#9b3b38;stroke-miterlimit:22.92558479309082;stroke-width:0.2160000056028366px"/><path d="M448.61,533.11a78.29,78.29,0,0,1,12.78-1c6.17,0,9.53.68,12.53,2.4a10,10,0,0,1,5.39,9.31c0,4-2.15,7.81-6.89,9.73v.14a11.43,11.43,0,0,1,8.33,11.43,12.94,12.94,0,0,1-4.61,10.07c-3.18,2.61-8.34,4-16.79,4a69.52,69.52,0,0,1-10.74-.75Zm9.48,17.46h3.41c5.52,0,8.16-2.12,8.16-5.48,0-3.56-2.64-5.13-7.08-5.13a19.37,19.37,0,0,0-4.49.34Zm0,20.41a21.82,21.82,0,0,0,4.07.21c4.5,0,8.46-1.71,8.46-6.58,0-4.65-3.9-6.3-8.94-6.3h-3.59Z" style="fill:#9b3b38"/><path d="M448.61,533.11a78.29,78.29,0,0,1,12.78-1c6.17,0,9.53.68,12.53,2.4a10,10,0,0,1,5.39,9.31c0,4-2.15,7.81-6.89,9.73v.14a11.43,11.43,0,0,1,8.33,11.43,12.94,12.94,0,0,1-4.61,10.07c-3.18,2.61-8.34,4-16.79,4a69.52,69.52,0,0,1-10.74-.75Zm9.48,17.46h3.41c5.52,0,8.16-2.12,8.16-5.48,0-3.56-2.64-5.13-7.08-5.13a19.37,19.37,0,0,0-4.49.34Zm0,20.41a21.82,21.82,0,0,0,4.07.21c4.5,0,8.46-1.71,8.46-6.58,0-4.65-3.9-6.3-8.94-6.3h-3.59Z" style="fill:none;stroke:#9b3b38;stroke-miterlimit:22.92558479309082;stroke-width:0.2160000056028366px"/><path d="M496.77,532.49V557.9c0,8.36,3,13.08,8.51,13.08s8.64-4.52,8.64-13.08V532.49h9.53v25.07c0,15-7.07,21.92-18.59,21.92-10.79,0-17.63-6.37-17.63-22.13V532.49Z" style="fill:#9b3b38"/><path d="M496.77,532.49V557.9c0,8.36,3,13.08,8.51,13.08s8.64-4.52,8.64-13.08V532.49h9.53v25.07c0,15-7.07,21.92-18.59,21.92-10.79,0-17.63-6.37-17.63-22.13V532.49Z" style="fill:none;stroke:#9b3b38;stroke-miterlimit:22.92558479309082;stroke-width:0.2160000056028366px"/><path d="M541.27,532.49v46.17h-9.54V532.49Z" style="fill:#9b3b38"/><path d="M541.27,532.49v46.17h-9.54V532.49Z" style="fill:none;stroke:#9b3b38;stroke-miterlimit:22.92558479309082;stroke-width:0.2160000056028366px"/><path d="M549.6,532.49h9.54v37.06h18v9.11H549.6Z" style="fill:#9b3b38"/><path d="M549.6,532.49h9.54v37.06h18v9.11H549.6Z" style="fill:none;stroke:#9b3b38;stroke-miterlimit:22.92558479309082;stroke-width:0.2160000056028366px"/><path d="M582.89,533.11a81,81,0,0,1,13.73-1c8.57,0,14.09,1.71,18.41,5.2s7.31,9.05,7.31,17c0,8.7-3,14.66-7,18.43-4.74,4.45-12.11,6.5-20.81,6.5a72.56,72.56,0,0,1-11.63-.75Zm9.53,37.46a20.42,20.42,0,0,0,3.78.21c9.83.14,16-5.48,16-16,0-9.66-5.82-14.45-14.75-14.45a22.32,22.32,0,0,0-5,.48Z" style="fill:#9b3b38"/><path d="M582.89,533.11a81,81,0,0,1,13.73-1c8.57,0,14.09,1.71,18.41,5.2s7.31,9.05,7.31,17c0,8.7-3,14.66-7,18.43-4.74,4.45-12.11,6.5-20.81,6.5a72.56,72.56,0,0,1-11.63-.75Zm9.53,37.46a20.42,20.42,0,0,0,3.78.21c9.83.14,16-5.48,16-16,0-9.66-5.82-14.45-14.75-14.45a22.32,22.32,0,0,0-5,.48Z" style="fill:none;stroke:#9b3b38;stroke-miterlimit:22.92558479309082;stroke-width:0.2160000056028366px"/><path d="M655,559.41H638.3v10.41H657v8.84H628.77V532.49h27.28v8.84H638.3v9.24H655Z" style="fill:#9b3b38"/><path d="M655,559.41H638.3v10.41H657v8.84H628.77V532.49h27.28v8.84H638.3v9.24H655Z" style="fill:none;stroke:#9b3b38;stroke-miterlimit:22.92558479309082;stroke-width:0.2160000056028366px"/><path d="M663.55,533.11a80.53,80.53,0,0,1,13.37-1c6.54,0,10.86,1.16,13.85,3.7,2.4,2.05,3.9,5.41,3.9,9.72a12.07,12.07,0,0,1-7.43,11.31v.27c2.81,1.3,4.43,4.38,5.57,8.36,1.38,5.27,2.64,11.37,3.48,13.22h-9.77c-.66-1.37-1.68-4.73-3-10.69-1.26-5.75-3.12-7.26-7.26-7.33H673v18h-9.47ZM673,552.9h4.32c4.92,0,7.86-2.46,7.86-6.51,0-4.31-2.94-6.3-7.32-6.3a25.57,25.57,0,0,0-4.86.35Z" style="fill:#9b3b38"/><path d="M663.55,533.11a80.53,80.53,0,0,1,13.37-1c6.54,0,10.86,1.16,13.85,3.7,2.4,2.05,3.9,5.41,3.9,9.72a12.07,12.07,0,0,1-7.43,11.31v.27c2.81,1.3,4.43,4.38,5.57,8.36,1.38,5.27,2.64,11.37,3.48,13.22h-9.77c-.66-1.37-1.68-4.73-3-10.69-1.26-5.75-3.12-7.26-7.26-7.33H673v18h-9.47ZM673,552.9h4.32c4.92,0,7.86-2.46,7.86-6.51,0-4.31-2.94-6.3-7.32-6.3a25.57,25.57,0,0,0-4.86.35Z" style="fill:none;stroke:#9b3b38;stroke-miterlimit:22.92558479309082;stroke-width:0.2160000056028366px"/><path d="M702.29,567.35a22.1,22.1,0,0,0,11.27,3.29c4.38,0,6.72-1.92,6.72-4.93,0-2.67-2-4.38-7.32-6.16-7.13-2.33-12.29-6.31-12.29-13.91,0-8,6.3-14,16.13-14a24.28,24.28,0,0,1,11.64,2.53l-2.28,8.63a20.59,20.59,0,0,0-9.54-2.39c-4.19,0-6.17,2-6.17,4.38,0,2.94,2.57,4.18,8.15,6.23,7.74,2.81,11.51,6.92,11.51,14,0,7.4-5.09,14.39-17.33,14.39-5,0-10.07-1.58-12.59-3.22Z" style="fill:#9b3b38"/><path d="M702.29,567.35a22.1,22.1,0,0,0,11.27,3.29c4.38,0,6.72-1.92,6.72-4.93,0-2.67-2-4.38-7.32-6.16-7.13-2.33-12.29-6.31-12.29-13.91,0-8,6.3-14,16.13-14a24.28,24.28,0,0,1,11.64,2.53l-2.28,8.63a20.59,20.59,0,0,0-9.54-2.39c-4.19,0-6.17,2-6.17,4.38,0,2.94,2.57,4.18,8.15,6.23,7.74,2.81,11.51,6.92,11.51,14,0,7.4-5.09,14.39-17.33,14.39-5,0-10.07-1.58-12.59-3.22Z" style="fill:none;stroke:#9b3b38;stroke-miterlimit:22.92558479309082;stroke-width:0.2160000056028366px"/><path d="M515.74,617.51c2,.06,3.72.1,5.18.1s3.13,0,5-.1c0,1.29,0,2.42-.12,3.37a30.82,30.82,0,0,1-.44,3.18,26.87,26.87,0,0,1-.82,3.35q-.5,1.61-1,2.76c-.31.77-.74,1.69-1.28,2.76,1.24,1.78,2.43,3.39,3.56,4.81s2.13,2.77,3,4c-2.78,0-5-.07-6.68-.07-2.25,0-4.37,0-6.38.07l-2.32-3.32c-.95.72-1.77,1.29-2.44,1.71a16.3,16.3,0,0,1-2.51,1.24,16.63,16.63,0,0,1-3.19.92,18.84,18.84,0,0,1-3.45.32,19.24,19.24,0,0,1-8.22-1.73,11.83,11.83,0,0,1-5.59-5.25,15.71,15.71,0,0,1-1.89-7.54,14.92,14.92,0,0,1,2.31-8.18q2.32-3.63,8.15-6.91a18.5,18.5,0,0,1-1.54-3.79,11.8,11.8,0,0,1-.43-3.06,10.6,10.6,0,0,1,1-4.55,10.4,10.4,0,0,1,3-3.78,10.51,10.51,0,0,1,4-2.09,19.37,19.37,0,0,1,4.74-.52,41.16,41.16,0,0,1,9.81,1.27l.18,9,0,1.4a19.17,19.17,0,0,0-3.4-1.32,10.29,10.29,0,0,0-2.52-.35,6.6,6.6,0,0,0-2.53.45,3.29,3.29,0,0,0-1.65,1.39,3.68,3.68,0,0,0-.55,1.9,5.12,5.12,0,0,0,.16,1.26,11.74,11.74,0,0,0,.67,1.82,25.31,25.31,0,0,0,1.52,2.83c.67,1.1,1.24,2,1.7,2.61s1.14,1.54,2.06,2.72l2.31,3.11a13,13,0,0,0,.27-1.27c0-.33.1-.91.15-1.72S515.72,618.55,515.74,617.51ZM508,630.65c-.75-1.07-1.69-2.36-2.84-3.88s-2.36-3.16-3.61-4.95c-.64.47-1.14.85-1.51,1.14a9.58,9.58,0,0,0-1,.92,5.48,5.48,0,0,0-.8,1.19,5.79,5.79,0,0,0-.54,1.38,5.6,5.6,0,0,0-.18,1.43,5.24,5.24,0,0,0,.72,2.72,4.57,4.57,0,0,0,2,1.84,6.44,6.44,0,0,0,4.7.32,5.75,5.75,0,0,0,1.51-.75A15.86,15.86,0,0,0,508,630.65Z" style="fill:#9b3b38"/><path d="M515.74,617.51c2,.06,3.72.1,5.18.1s3.13,0,5-.1c0,1.29,0,2.42-.12,3.37a30.82,30.82,0,0,1-.44,3.18,26.87,26.87,0,0,1-.82,3.35q-.5,1.61-1,2.76c-.31.77-.74,1.69-1.28,2.76,1.24,1.78,2.43,3.39,3.56,4.81s2.13,2.77,3,4c-2.78,0-5-.07-6.68-.07-2.25,0-4.37,0-6.38.07l-2.32-3.32c-.95.72-1.77,1.29-2.44,1.71a16.3,16.3,0,0,1-2.51,1.24,16.63,16.63,0,0,1-3.19.92,18.84,18.84,0,0,1-3.45.32,19.24,19.24,0,0,1-8.22-1.73,11.83,11.83,0,0,1-5.59-5.25,15.71,15.71,0,0,1-1.89-7.54,14.92,14.92,0,0,1,2.31-8.18q2.32-3.63,8.15-6.91a18.5,18.5,0,0,1-1.54-3.79,11.8,11.8,0,0,1-.43-3.06,10.6,10.6,0,0,1,1-4.55,10.4,10.4,0,0,1,3-3.78,10.51,10.51,0,0,1,4-2.09,19.37,19.37,0,0,1,4.74-.52,41.16,41.16,0,0,1,9.81,1.27l.18,9,0,1.4a19.17,19.17,0,0,0-3.4-1.32,10.29,10.29,0,0,0-2.52-.35,6.6,6.6,0,0,0-2.53.45,3.29,3.29,0,0,0-1.65,1.39,3.68,3.68,0,0,0-.55,1.9,5.12,5.12,0,0,0,.16,1.26,11.74,11.74,0,0,0,.67,1.82,25.31,25.31,0,0,0,1.52,2.83c.67,1.1,1.24,2,1.7,2.61s1.14,1.54,2.06,2.72l2.31,3.11a13,13,0,0,0,.27-1.27c0-.33.1-.91.15-1.72S515.72,618.55,515.74,617.51ZM508,630.65c-.75-1.07-1.69-2.36-2.84-3.88s-2.36-3.16-3.61-4.95c-.64.47-1.14.85-1.51,1.14a9.58,9.58,0,0,0-1,.92,5.48,5.48,0,0,0-.8,1.19,5.79,5.79,0,0,0-.54,1.38,5.6,5.6,0,0,0-.18,1.43,5.24,5.24,0,0,0,.72,2.72,4.57,4.57,0,0,0,2,1.84,6.44,6.44,0,0,0,4.7.32,5.75,5.75,0,0,0,1.51-.75A15.86,15.86,0,0,0,508,630.65Z" style="fill:none;stroke:#fff;stroke-miterlimit:22.92558479309082;stroke-width:0.2160000056028366px"/></g></g></g></svg>