<svg id="8607bd09-ec1a-47b2-95cf-fd86133c9db0" data-name="Layer 1" xmlns="http://www.w3.org/2000/svg" viewBox="0 0 100 100"><title>clientes</title><path d="M18.57,30.89h-.05l-3.28,9.05H13.6l-3.26-9h-.05l.23,5.37v1.92l1.31.25v1.47H6.77V38.46l1.3-.25V29.44l-1.3-.26V27.71h4.5l3.12,9h0l3.14-9H22.1v1.47l-1.31.26v8.77l1.31.25v1.47H17V38.46l1.3-.25V36.29Z" style="fill:#b3b3b3"/><path d="M23,29.18V27.71H28v1.47l-1.31.26v8.77l1.31.25v1.47H23V38.46l1.31-.25V29.44Z" style="fill:#b3b3b3"/><path d="M41.45,27.71v1.47l-1.31.26V39.93H37.7L32.76,31.7h0v6.5l1.31.25v1.47H29V38.46l1.3-.25V29.44L29,29.18V27.71h3.75l4.94,8.23h.05V29.44l-1.31-.26V27.71h5.06Z" style="fill:#b3b3b3"/><path d="M42.24,29.18V27.71H47.3v1.47L46,29.44v8.77l1.31.25v1.47H42.24V38.46l1.31-.25V29.44Z" style="fill:#b3b3b3"/><path d="M48.11,38.46l.87-.12L52.7,27.71h2.51l3.7,10.63.87.12v1.47H55.61V38.46l.85-.15-.53-1.68H52l-.54,1.68.85.15v1.47H48.11Zm4.43-3.63h2.81L54,30.52h0Z" style="fill:#b3b3b3"/><path d="M66.08,27.71a5.05,5.05,0,0,1,3.27.95,3.18,3.18,0,0,1,1.18,2.63A2.68,2.68,0,0,1,70,32.9,3.47,3.47,0,0,1,68.58,34a2.63,2.63,0,0,1,1.56,1.06,3.31,3.31,0,0,1,.47,1.84v.62a1.13,1.13,0,0,0,.16.63.7.7,0,0,0,.53.26l.3.05v1.47H70.34a2,2,0,0,1-1.69-.64,2.67,2.67,0,0,1-.49-1.67v-.7a2,2,0,0,0-.47-1.4A1.8,1.8,0,0,0,66.35,35h-2v3.22l1.31.25v1.47H60.59V38.46l1.3-.25V29.44l-1.3-.26V27.71h5.49ZM64.34,33.1H66a2.31,2.31,0,0,0,1.53-.44,1.54,1.54,0,0,0,.52-1.26,1.72,1.72,0,0,0-.51-1.31,2.07,2.07,0,0,0-1.5-.49H64.34Z" style="fill:#b3b3b3"/><path d="M82.76,27.71V31H80.88l-.1-1.36H78.53v8.61l1.31.25v1.47H74.76V38.46l1.31-.25V29.6H73.83L73.73,31H71.86V27.71Z" style="fill:#b3b3b3"/><path d="M91.45,34.56H87.31v3.49h4l.11-1.46h1.86v3.34H83.56V38.46l1.3-.25V29.44l-1.3-.26V27.71h9.65v3.35H91.33l-.11-1.46H87.31v3.07h4.14Z" style="fill:#b3b3b3"/><path d="M10.29,70.29a1.66,1.66,0,0,1-.69.27,4,4,0,0,1-.85.09,3,3,0,0,1-1-.17A2.07,2.07,0,0,1,6.91,70,2.57,2.57,0,0,1,6.34,69a4,4,0,0,1-.22-1.42,3.82,3.82,0,0,1,.24-1.45A2.7,2.7,0,0,1,7,65.2a2.23,2.23,0,0,1,.86-.51,2.77,2.77,0,0,1,.94-.16,4.16,4.16,0,0,1,.85.07,3.17,3.17,0,0,1,.58.16l-.23,1a1.79,1.79,0,0,0-.46-.13,4,4,0,0,0-.64,0,1.39,1.39,0,0,0-1.12.49,2.3,2.3,0,0,0-.43,1.54,3.5,3.5,0,0,0,.1.83,1.74,1.74,0,0,0,.31.64,1.48,1.48,0,0,0,.51.42,1.76,1.76,0,0,0,.71.14,2.36,2.36,0,0,0,.64-.07,1.7,1.7,0,0,0,.45-.2Z" style="fill:#b3b3b3"/><path d="M10.5,67.59a3.44,3.44,0,0,1,.65-2.26,2.23,2.23,0,0,1,1.84-.8,2.51,2.51,0,0,1,1.1.22,2.1,2.1,0,0,1,.79.62,2.82,2.82,0,0,1,.46,1,4.81,4.81,0,0,1,.15,1.25,3.5,3.5,0,0,1-.65,2.26,2.27,2.27,0,0,1-1.85.8,2.66,2.66,0,0,1-1.1-.22,2,2,0,0,1-.78-.62,2.65,2.65,0,0,1-.46-1A4.81,4.81,0,0,1,10.5,67.59Zm1.21,0a4.18,4.18,0,0,0,.07.82,1.94,1.94,0,0,0,.24.64,1.13,1.13,0,0,0,.39.42,1.11,1.11,0,0,0,.58.15,1.09,1.09,0,0,0,.95-.48,2.7,2.7,0,0,0,.34-1.55,4,4,0,0,0-.07-.8,2.29,2.29,0,0,0-.22-.64,1.31,1.31,0,0,0-.4-.44,1.11,1.11,0,0,0-.6-.15,1.1,1.1,0,0,0-1,.49A2.82,2.82,0,0,0,11.71,67.59Z" style="fill:#b3b3b3"/><path d="M17.73,67.46l-.46-.92h0l.13.92v3.07H16.27V64.61h.84l2.23,3.13.44.9h0l-.13-.9V64.65h1.09v5.92h-.84Z" style="fill:#b3b3b3"/><path d="M24.28,69a.56.56,0,0,0-.19-.44,2.36,2.36,0,0,0-.5-.3c-.2-.1-.41-.19-.65-.29a3.63,3.63,0,0,1-.64-.36,1.81,1.81,0,0,1-.5-.53,1.58,1.58,0,0,1-.2-.82,1.72,1.72,0,0,1,.15-.74,1.41,1.41,0,0,1,.4-.53,1.86,1.86,0,0,1,.63-.31,3.32,3.32,0,0,1,.81-.1,4.89,4.89,0,0,1,1,.09,2.35,2.35,0,0,1,.75.26l-.36,1a1.83,1.83,0,0,0-.56-.21,2.85,2.85,0,0,0-.79-.1,1.07,1.07,0,0,0-.62.16.54.54,0,0,0,0,.85,2.14,2.14,0,0,0,.5.31l.64.29a4.07,4.07,0,0,1,.65.37,1.81,1.81,0,0,1,.5.53,1.46,1.46,0,0,1,.19.78,2,2,0,0,1-.15.82,1.5,1.5,0,0,1-.44.56,1.81,1.81,0,0,1-.68.34,3.42,3.42,0,0,1-.88.11,4.46,4.46,0,0,1-1.1-.12,3.36,3.36,0,0,1-.71-.24l.37-1a1.38,1.38,0,0,0,.24.11,2.55,2.55,0,0,0,.33.11l.39.08a2,2,0,0,0,.43,0,1.5,1.5,0,0,0,.78-.17A.59.59,0,0,0,24.28,69Z" style="fill:#b3b3b3"/><path d="M30.33,65.67H28.62v4.86H27.47V65.67H25.75v-1h4.58Z" style="fill:#b3b3b3"/><path d="M30.89,64.71l.41-.06.45-.05.43,0h.39a4.43,4.43,0,0,1,.81.07,2.31,2.31,0,0,1,.71.26,1.36,1.36,0,0,1,.5.51,1.57,1.57,0,0,1,.19.81,2,2,0,0,1-.33,1.18,1.81,1.81,0,0,1-.9.63l.41.26,1.34,2.24H34l-1.34-2.3-.6-.11v2.41H30.89Zm1.76.88H32.3a1.43,1.43,0,0,0-.26,0v1.71h.48a1.21,1.21,0,0,0,.77-.22.86.86,0,0,0,.28-.72.78.78,0,0,0-.23-.6A1,1,0,0,0,32.65,65.59Z" style="fill:#b3b3b3"/><path d="M39.09,64.65h1.09v3.8a2.88,2.88,0,0,1-.15,1,1.87,1.87,0,0,1-.42.68,1.53,1.53,0,0,1-.65.39,2.57,2.57,0,0,1-.85.13c-1.49,0-2.23-.68-2.23-2V64.65H37v3.71a2.49,2.49,0,0,0,.06.59.86.86,0,0,0,.2.38.72.72,0,0,0,.33.21,1.66,1.66,0,0,0,.47.07.92.92,0,0,0,.77-.3,1.56,1.56,0,0,0,.23-1Z" style="fill:#b3b3b3"/><path d="M45.11,70.29a1.86,1.86,0,0,1-.55.24,3.93,3.93,0,0,1-.7.11l-.14.25a1,1,0,0,1,.54.18.54.54,0,0,1,.2.45.57.57,0,0,1-.1.34.87.87,0,0,1-.26.24,1.34,1.34,0,0,1-.4.14,1.86,1.86,0,0,1-.48.05,2.47,2.47,0,0,1-.54-.05l.08-.4H43a.72.72,0,0,0,.41-.08.22.22,0,0,0,.09-.17q0-.24-.72-.27l.42-.71a2.82,2.82,0,0,1-.87-.25,2.12,2.12,0,0,1-.7-.57,2.86,2.86,0,0,1-.48-.92,4.43,4.43,0,0,1-.17-1.29,3.82,3.82,0,0,1,.24-1.45,2.7,2.7,0,0,1,.62-.94,2.27,2.27,0,0,1,.85-.51,2.87,2.87,0,0,1,1-.16,4.16,4.16,0,0,1,.85.07,2.84,2.84,0,0,1,.57.16l-.22,1a1.92,1.92,0,0,0-.46-.13,4,4,0,0,0-.64,0,1.42,1.42,0,0,0-1.13.49,2.36,2.36,0,0,0-.42,1.54,3.1,3.1,0,0,0,.1.83,1.82,1.82,0,0,0,.31.64,1.47,1.47,0,0,0,.51.41,1.58,1.58,0,0,0,.71.14,2.41,2.41,0,0,0,.64-.07,2.34,2.34,0,0,0,.45-.19Z" style="fill:#b3b3b3"/><path d="M48.31,69.23H46.5l-.44,1.3H44.91L47,64.61h.85L50,70.53H48.78Zm-2.46-5.42a1.58,1.58,0,0,1,.52-.4,1.12,1.12,0,0,1,.49-.11,1.5,1.5,0,0,1,.37,0l.36.1.34.11a1.22,1.22,0,0,0,.32,0,.75.75,0,0,0,.26,0,.67.67,0,0,0,.24-.16L49,64a1.38,1.38,0,0,1-.46.31,1.11,1.11,0,0,1-.43.09,1.5,1.5,0,0,1-.37,0l-.35-.1L47,64.09a1.22,1.22,0,0,0-.32,0,.87.87,0,0,0-.32.06.89.89,0,0,0-.31.23Zm.95,4.49h1.26L47.62,67l-.18-.92h0l-.18.93Z" style="fill:#b3b3b3"/><path d="M50,67.59a3.5,3.5,0,0,1,.65-2.26,2.25,2.25,0,0,1,1.85-.8,2.51,2.51,0,0,1,1.1.22,2.15,2.15,0,0,1,.78.62,2.65,2.65,0,0,1,.46,1A4.81,4.81,0,0,1,55,67.59a3.44,3.44,0,0,1-.65,2.26,2.25,2.25,0,0,1-1.84.8,2.68,2.68,0,0,1-1.11-.22,2.15,2.15,0,0,1-.78-.62,2.8,2.8,0,0,1-.45-1A4.41,4.41,0,0,1,50,67.59Zm1.21,0a4.15,4.15,0,0,0,.08.82,2.19,2.19,0,0,0,.23.64,1.16,1.16,0,0,0,.4.42,1.19,1.19,0,0,0,1.53-.33,2.79,2.79,0,0,0,.33-1.55,4,4,0,0,0-.07-.8,2,2,0,0,0-.22-.64,1.19,1.19,0,0,0-.39-.44,1.16,1.16,0,0,0-.6-.15,1.07,1.07,0,0,0-1,.49A2.81,2.81,0,0,0,51.21,67.59Z" style="fill:#b3b3b3"/><path d="M61.62,70.29a1.67,1.67,0,0,1-.68.27,4,4,0,0,1-.86.09,3,3,0,0,1-1-.17,2.14,2.14,0,0,1-.84-.53,2.57,2.57,0,0,1-.57-.94,4.25,4.25,0,0,1-.21-1.42,4,4,0,0,1,.23-1.45,2.59,2.59,0,0,1,.63-.94,2.2,2.2,0,0,1,.85-.51,2.81,2.81,0,0,1,.94-.16,4.1,4.1,0,0,1,.85.07,3,3,0,0,1,.58.16l-.23,1a1.79,1.79,0,0,0-.46-.13,3.9,3.9,0,0,0-.64,0,1.4,1.4,0,0,0-1.12.49,2.36,2.36,0,0,0-.43,1.54,3,3,0,0,0,.11.83,1.58,1.58,0,0,0,.3.64,1.48,1.48,0,0,0,.51.42,1.8,1.8,0,0,0,.71.14,2.31,2.31,0,0,0,.64-.07,1.77,1.77,0,0,0,.46-.2Z" style="fill:#b3b3b3"/><path d="M62.41,64.65h1.15v5.88H62.41Z" style="fill:#b3b3b3"/><path d="M66.58,68.1l.15,1h0l.17-1,1.12-3.44h1.21l-2.18,5.92h-.82l-2.2-5.92H65.4Z" style="fill:#b3b3b3"/><path d="M69.78,64.65h1.15v5.88H69.78Z" style="fill:#b3b3b3"/><path d="M75.73,70.53H72V64.65h1.15V69.5h2.57Z" style="fill:#b3b3b3"/><path d="M76.14,70a.55.55,0,0,1,.19-.45.67.67,0,0,1,.46-.17.7.7,0,0,1,.56.24.92.92,0,0,1,.2.62,1.6,1.6,0,0,1-.12.65,1.66,1.66,0,0,1-.29.45,1.43,1.43,0,0,1-.37.29,1.73,1.73,0,0,1-.36.15l-.32-.45a.9.9,0,0,0,.4-.3.8.8,0,0,0,.18-.45.43.43,0,0,1-.36-.12A.54.54,0,0,1,76.14,70Z" style="fill:#b3b3b3"/><path d="M83.59,70.53H79.87V64.65H81V69.5h2.57Z" style="fill:#b3b3b3"/><path d="M84.14,64.65l.4,0,.46,0h.86a3.75,3.75,0,0,1,1.33.21,2.26,2.26,0,0,1,.9.62,2.3,2.3,0,0,1,.5.94,4.1,4.1,0,0,1,.16,1.2,4.37,4.37,0,0,1-.15,1.15,2.6,2.6,0,0,1-.5,1,2.52,2.52,0,0,1-.93.69,3.34,3.34,0,0,1-1.42.26h-.36l-.46,0-.46,0-.33,0Zm1.81.94h-.38l-.28,0v3.94l.12,0h.47a1.74,1.74,0,0,0,.81-.17A1.34,1.34,0,0,0,87.2,69a1.77,1.77,0,0,0,.27-.66,3.94,3.94,0,0,0,.07-.77,4,4,0,0,0-.06-.69,1.85,1.85,0,0,0-.25-.63,1.42,1.42,0,0,0-.49-.45A1.57,1.57,0,0,0,86,65.59Z" style="fill:#b3b3b3"/><path d="M92.2,69.23H90.39L90,70.53H88.8l2.11-5.92h.85l2.12,5.92H92.67Zm-1.51-.93H92L91.51,67l-.18-.92h0l-.18.93Z" style="fill:#b3b3b3"/><path d="M20.62,42V51h.29V42Z" style="fill:#b3b3b3;stroke:#fff;stroke-miterlimit:10;stroke-width:0.25px"/><path d="M20.91,50.66v.15h29v-.15ZM20.62,42V51H50.14V42Zm.29.29h29v8.35H20.91Zm0,8.35v.15h29v-.15Z" style="fill:#b3b3b3;stroke:#fff;stroke-miterlimit:10;stroke-width:0.25px"/><rect x="20.76" y="42.17" width="29.24" height="8.64" style="fill:#b3b3b3;stroke:#fff;stroke-miterlimit:10;stroke-width:0.25px"/><rect x="50" y="42.17" width="29.24" height="8.64" style="fill:#b3b3b3;stroke:#fff;stroke-miterlimit:10;stroke-width:0.25px"/><path d="M50.14,50.66v.15h29v-.15ZM49.86,42V51H79.38V42Zm.28.29h29v8.35H50.14Zm0,8.35v.15h29v-.15Z" style="fill:#b3b3b3;stroke:#fff;stroke-miterlimit:10;stroke-width:0.25px"/><path d="M79.09,42V51h.29V42Z" style="fill:#b3b3b3;stroke:#fff;stroke-miterlimit:10;stroke-width:0.25px"/><rect x="6.14" y="50.81" width="29.24" height="8.64" style="fill:#b3b3b3;stroke:#fff;stroke-miterlimit:10;stroke-width:0.25px"/><path d="M6,50.66v8.93H35.53V50.66Zm29.24,8.65H6.29V51h29Z" style="fill:#b3b3b3;stroke:#fff;stroke-miterlimit:10;stroke-width:0.25px"/><rect x="35.38" y="50.81" width="29.24" height="8.64" style="fill:#b3b3b3;stroke:#fff;stroke-miterlimit:10;stroke-width:0.25px"/><path d="M35.53,50.81V51H64.47v-.14Zm-.29-.15v8.93H64.76V50.66Zm29.23,8.65H35.53V51H64.47Zm-28.94-8.5V51H64.47v-.14Z" style="fill:#b3b3b3;stroke:#fff;stroke-miterlimit:10;stroke-width:0.25px"/><rect x="64.62" y="50.81" width="29.24" height="8.64" style="fill:#b3b3b3;stroke:#fff;stroke-miterlimit:10;stroke-width:0.25px"/><path d="M64.76,50.81V51H93.71v-.14Zm-.29-.15v8.93H94V50.66Zm29.24,8.65H64.76V51H93.71Zm-28.95-8.5V51H93.71v-.14Z" style="fill:#b3b3b3;stroke:#fff;stroke-miterlimit:10;stroke-width:0.25px"/><path d="M93.71,50.66v8.93H94V50.66Z" style="fill:#b3b3b3;stroke:#fff;stroke-miterlimit:10;stroke-width:0.25px"/></svg>