<svg id="5897ce68-ef79-42c1-9634-b5af2e3f2e33" data-name="Layer 1" xmlns="http://www.w3.org/2000/svg" viewBox="0 0 100 100"><title>clientes</title><g id="fe30bd68-9124-431a-b0a9-2328c8415d4b" data-name="c0e07a74-36bb-4532-8130-42f65553e545"><g id="ba730226-ffee-44aa-a372-cfe1c8f31669" data-name="38dee694-bb18-4496-977a-07c5ce39af6d"><path d="M70.82,74.56c-.2-.32,0-.72-.25-1a.34.34,0,0,1,0-.14,6.86,6.86,0,0,0-.13-1.11,4.6,4.6,0,0,0-.24-1.38c0-.06-.06-.11-.05-.17A4.91,4.91,0,0,0,70,69.4a2.16,2.16,0,0,0-.19-1,.82.82,0,0,1,0-.35c0-.48-.14-.94-.16-1.41-.09-.06-.08-.17-.08-.24,0-.46-.21-.88-.25-1.33A2.94,2.94,0,0,0,69.05,64a.13.13,0,0,1,0-.06c.06-.43-.2-.83-.13-1.26a.38.38,0,0,0-.07-.31.36.36,0,0,1-.09-.24,5.87,5.87,0,0,0-.15-1.18,5.26,5.26,0,0,0-.12-1,14.41,14.41,0,0,1-.29-1.68,8,8,0,0,0-.16-.92c-.21-.65-.16-1.33-.33-2a4.62,4.62,0,0,1-.17-1,9.69,9.69,0,0,0-.19-1.22c0-.37,0-.81-.22-1.16,0,0,0-.11,0-.17a3.1,3.1,0,0,0-.1-.67,3.4,3.4,0,0,1-.08-1c0-3.94,0-7.87,0-11.81,0-.25.09-.29.31-.29H81.49c.28,0,.37.11.37.36,0,2,0,3.94,0,5.91,0,.33,0,.66,0,1V81.47a6.2,6.2,0,0,0,0,1.14c0,.15,0,.27-.25.27H72.31c-.19,0-.24-.1-.26-.24-.08-.49-.15-1-.27-1.46A3.67,3.67,0,0,1,71.63,80a.91.91,0,0,0-.12-.56,2.08,2.08,0,0,1-.1-.86c0-.52-.19-1-.22-1.55s-.16-1-.23-1.51a4.16,4.16,0,0,0-.13-.59C70.68,74.83,70.74,74.7,70.82,74.56Z" style="fill:#b3b3b3;stroke:#fff;stroke-miterlimit:10;stroke-width:0.002440176754732676px"/><path d="M48.38,24.59c0,.27-.23.45-.32.68a.8.8,0,0,0-.09.36.4.4,0,0,1-.06.22c-.32.5-.4,1.11-.76,1.59.09.36-.22.61-.28.95a3.33,3.33,0,0,1-.48,1,.43.43,0,0,0-.08.24.4.4,0,0,1-.19.45c-.18.12-.1.31-.14.46-.12.43-.45.78-.44,1.25a.19.19,0,0,1,0,.13,1.58,1.58,0,0,0-.42,1c0,.13-.16.15-.2.3s-.22.41-.16.67a.14.14,0,0,1-.06.12c-.27.13-.24.42-.32.63a1.87,1.87,0,0,1-.23.52,7.79,7.79,0,0,0-.5,1.32c-.18.38-.34.77-.51,1.15,0,0,0,0,0,0,.06.34-.2.58-.31.85s-.07.49-.3.68a1.08,1.08,0,0,0-.2.64,1,1,0,0,1-.17.42,2.11,2.11,0,0,0-.31.76c-.05.24-.25.39-.28.65a3.11,3.11,0,0,1-.36,1c-.11.22,0,.56-.34.71-.12.05-.18.33-.19.51a.71.71,0,0,1-.21.54c-.13.11-.11.27-.13.4-.07.4-.43.7-.45,1.06s-.36.66-.42,1c0,0,0,0,0,0,.05.4-.34.62-.4,1a3.19,3.19,0,0,1-.27.86c-.08.2-.25.38-.18.62a.09.09,0,0,1,0,.08c-.35.15-.31.49-.36.78a.73.73,0,0,1-.14.31,2,2,0,0,0-.29.79,1.53,1.53,0,0,1-.27.5.33.33,0,0,0-.08.34.21.21,0,0,1-.1.27.84.84,0,0,0-.33.67,1.18,1.18,0,0,1-.31.75c-.2.23,0,.45-.12.62a2.72,2.72,0,0,0-.37.58,1.68,1.68,0,0,0-.07.43c0,.07,0,.16-.1.16s-.2,0-.2-.12a.44.44,0,0,0-.22-.39.37.37,0,0,1-.08-.29,1.19,1.19,0,0,0-.33-.86S35,53.9,35,53.86a1.66,1.66,0,0,0-.35-1c-.13-.17,0-.41-.13-.61-.24-.39-.31-.86-.52-1.25s-.2-.78-.39-1.1-.17-.82-.43-1.12-.17-.63-.31-.93a.42.42,0,0,0-.09-.14.66.66,0,0,1-.21-.51,1.43,1.43,0,0,0-.29-.68.44.44,0,0,1-.12-.28,1.56,1.56,0,0,0-.38-1s-.09-.08-.09-.14a2.1,2.1,0,0,0-.31-.93c-.11-.21,0-.52-.18-.71a1.66,1.66,0,0,1-.34-.82,3.28,3.28,0,0,0-.33-.74,1.43,1.43,0,0,1-.17-.6.11.11,0,0,0,0-.08c-.36-.39-.21-1-.64-1.37,0,0,0-.09,0-.14a2.33,2.33,0,0,0-.34-.92,4.85,4.85,0,0,1-.19-.68s0-.09,0-.11c-.43-.38-.24-1-.67-1.45-.11-.09,0-.3-.11-.46-.23-.44-.31-.94-.53-1.37s-.24-1-.52-1.41a3.53,3.53,0,0,1-.27-.65,11.83,11.83,0,0,0-.41-1.19c-.27-.47-.24-1.06-.65-1.46-.09-.1,0-.26-.05-.39-.09-.32-.34-.56-.34-.93a1,1,0,0,0-.22-.55c-.32-.43-.24-1-.64-1.42,0,0,0-.06,0-.09a1,1,0,0,0-.29-.76c-.18-.19-.06-.43-.15-.65a2.18,2.18,0,0,0-.28-.52c-.09-.11-.09-.2.09-.2H48.38Z" style="fill:#b3b3b3;stroke:#fff;stroke-miterlimit:10;stroke-width:0.002440176754732676px"/><path d="M23.56,82.87H14.65c-.24,0-.3-.05-.31-.3,0-.73.21-1.44.14-2.18,0-.2.15-.36.19-.58a9.07,9.07,0,0,0,.27-1.87A2.88,2.88,0,0,1,15.1,77a4.89,4.89,0,0,1,.09-.59c.22-.64,0-1.32.26-2,.11-.26.07-.65.17-.92.25-.71,0-1.47.33-2.16a1.29,1.29,0,0,0,.06-.48c0-.12,0-.24,0-.35a1.34,1.34,0,0,0,.14-.92,3.21,3.21,0,0,1,.16-1c0-.23,0-.47.09-.69.13-.49,0-1,.14-1.49A11.9,11.9,0,0,1,16.85,65,3.71,3.71,0,0,0,17,63.64a3.2,3.2,0,0,1,.15-.61,5.74,5.74,0,0,1,.1-.62c.23-.6,0-1.25.25-1.86.13-.3.06-.69.16-1a6.72,6.72,0,0,0,.12-1.41c0-.27.18-.52.21-.79a5.38,5.38,0,0,0,.19-1.54,3.1,3.1,0,0,1,.2-1.09,5.72,5.72,0,0,0,.2-1.74,3.77,3.77,0,0,1,.21-1.12A8.51,8.51,0,0,0,19,50.17a3.47,3.47,0,0,1,0-.56c0-.1,0-.27.18-.29s.17.15.25.23c.38.32.21.88.54,1.22a.19.19,0,0,1,0,.13,1.45,1.45,0,0,0,.39.9c.14.17.09.39.18.59s.05.26.17.34a.34.34,0,0,1,.13.28.81.81,0,0,0,.26.71c.15.19.11.44.23.64a9.29,9.29,0,0,1,.59,1.46,3.41,3.41,0,0,0,.32.85c.29.35.23.81.49,1.15s.25.83.51,1.2c.12.17.1.46.22.68a1.94,1.94,0,0,0,.2.33,1.69,1.69,0,0,1,.2.61c0,.11,0,.22.13.3a.23.23,0,0,1,.1.17,1.52,1.52,0,0,0,.41,1s0,0,0,.06a1.87,1.87,0,0,0,.43,1c.12.13.07.32.1.47a7.75,7.75,0,0,0,.33.79,1.45,1.45,0,0,0,.31.71c.17.15.05.39.17.59A11.12,11.12,0,0,1,26.4,67c.22.44.2,1,.58,1.35-.17.27.29.38.17.64,0,.07.05.06.08.09s.19.19.18.28a2.16,2.16,0,0,0,.39,1c.08.17.07.4.15.6a.5.5,0,0,0,.1.19.57.57,0,0,1,.21.52,1.11,1.11,0,0,0,.28.61c.17.23.08.51.24.72,0,0,0,.09,0,.11.36.33.26.85.52,1.21a2.92,2.92,0,0,1,.32.85s0,0,0,0c.38.3.28.8.51,1.17a1.6,1.6,0,0,1,.3.82s0,0,0,.06c.44.35.27,1,.68,1.36,0,.47.39.8.37,1.28,0,.14.12.26.2.36.22.32.23.72.41,1s.21.74.4,1.08a.52.52,0,0,0,.19.17.25.25,0,0,1,.09.29c0,.12-.15.06-.23.06Z" style="fill:#b3b3b3;stroke:#fff;stroke-miterlimit:10;stroke-width:0.002440176754732676px"/><path d="M47.85,82.87H39c-.36,0-.33,0-.24-.34s.34-.62.36-.94.38-.67.44-1c0-.11,0-.32,0-.33.22-.08.2-.32.33-.45s.08,0,.07-.08c-.07-.42.33-.67.38-1s.41-.68.41-1,.36-.57.44-.89c0,0,.06,0,.06-.06-.18-.42.32-.6.32-1,0,0,0-.12,0-.18s-.07-.29.18-.36c.08,0,.21-.33.21-.47,0-.36.33-.54.37-.86,0-.08.08-.18.06-.27a.34.34,0,0,1,.13-.32c.17-.16.18-.4.26-.59a2.33,2.33,0,0,1,.21-.49,1.09,1.09,0,0,0,.24-.63c0-.26.26-.44.35-.68a.83.83,0,0,0,.06-.21.46.46,0,0,1,.16-.42.64.64,0,0,0,.2-.57c0-.09,0-.12.07-.17a1.53,1.53,0,0,0,.39-.93c0-.14.14-.13.16-.22a6.33,6.33,0,0,0,.26-.77c0-.19.27-.29.28-.52,0,0,0,0,0-.08,0-.42.34-.68.49-1a.46.46,0,0,0,0-.23.53.53,0,0,1,.14-.38.79.79,0,0,0,.22-.57c0-.1,0-.17.09-.26.12-.26.38-.46.33-.81,0-.15.17-.26.24-.41a1.11,1.11,0,0,0,.19-.63.1.1,0,0,1,0-.08c.28-.06.24-.37.38-.54s0-.35.16-.52c.24-.34.23-.79.5-1.15a1.16,1.16,0,0,0,.24-.67.91.91,0,0,1,.27-.51.31.31,0,0,0,.07-.21c0-.35.25-.57.37-.86,0,0,.09,0,.09-.06-.1-.32.15-.54.25-.8a8.72,8.72,0,0,0,.43-1.06c.11-.49.52-.85.52-1.38,0-.19.24-.31.3-.53a3.35,3.35,0,0,1,.49-1.09c0-.05,0-.09,0-.13s0-.32.19-.41.19-.12.1-.26,0,0,0,0c.22-.14.11-.42.23-.57a1.29,1.29,0,0,0,.35-.84.44.44,0,0,1,.14-.27,1.26,1.26,0,0,0,.28-.8s0-.13,0-.13c.23,0,.29-.18.27-.39s.09-.05.14-.06.14.08.15.14a1.51,1.51,0,0,1,0,.67.86.86,0,0,0,0,.65,1.51,1.51,0,0,1,.11.66,8.7,8.7,0,0,0,.18,1,2.1,2.1,0,0,1,0,.43,7.1,7.1,0,0,0,.2,1.78A19.11,19.11,0,0,1,53.8,57,5.78,5.78,0,0,0,54,58.39a3.47,3.47,0,0,1,.16,1,3.48,3.48,0,0,0,.09,1.2,8.47,8.47,0,0,0,.21,1.29c.24.55,0,1.1.18,1.62.1.37.07.75.17,1.12A5.53,5.53,0,0,1,55,66.37a1.08,1.08,0,0,0,.11.59.35.35,0,0,1,.06.26,2.16,2.16,0,0,0,.14,1.11c.29.76,0,1.54.23,2.27a4,4,0,0,0,.28,1.09.66.66,0,0,1,.06.2,10.88,10.88,0,0,0,.11,1.8,10.47,10.47,0,0,0,.23,1.22,5.23,5.23,0,0,1,.08,1.25,7.59,7.59,0,0,0,.32,2,3.89,3.89,0,0,1,0,.91c0,.24-.13.53.16.71,0,0,0,.09,0,.14A4.52,4.52,0,0,0,57,81.46a6.46,6.46,0,0,1,0,1.32c0,.07-.06.08-.13.08H47.85Z" style="fill:#b3b3b3;stroke:#fff;stroke-miterlimit:10;stroke-width:0.002440176754732676px"/><path d="M73,18.07a1.34,1.34,0,0,1,1-.82.9.9,0,0,1,.77,0,1.43,1.43,0,0,1,1,1.78,1.18,1.18,0,0,1-.67.88,1.86,1.86,0,0,0-.19.11h0c-.21.18,0,.31,0,.47a.07.07,0,0,1,0,.05.72.72,0,0,0,.11.19.77.77,0,0,0,0,.15,2.2,2.2,0,0,0,.15.26c.25.51.41,1.06.71,1.56a.68.68,0,0,1,0,.14,2.72,2.72,0,0,0,.11.25c.53,1.11,1,2.22,1.65,3.3a.71.71,0,0,0,.12.18,7.32,7.32,0,0,0,1.06,1.36.58.58,0,0,0,.88,0,3.75,3.75,0,0,0,1.14-1,15.51,15.51,0,0,0,1.49-2.09q.58-.95,1.14-1.89c.13-.22.24-.45.36-.68s.11-.24-.08-.35-.28-.19-.28-.38,0-.15-.11-.19a1.17,1.17,0,0,1,.83-1.5,1.14,1.14,0,0,1,1.31.72,1.46,1.46,0,0,1,.08.62.9.9,0,0,1-.08.23,1,1,0,0,1-.83.7.3.3,0,0,0-.18.17,4.73,4.73,0,0,1-.18.83c-.07.06-.06.14-.06.22a.29.29,0,0,1,0,.2,4.31,4.31,0,0,1-.19.88c-.1.13,0,.29-.11.43s0,.18,0,.27a3.11,3.11,0,0,0-.16.49.37.37,0,0,0,0,.11c-.07.06-.06.14-.06.22a.35.35,0,0,1,0,.2,9,9,0,0,1-.27,1.25c-.1.48-.23,1-.32,1.44,0,.23-.2.42-.19.67-.07.06-.06.16-.11.24,0,.24-.12.42-.18.64s-.25.7-.35,1.07c-.06.21-.17.24-.37.24h-11c-1.3,0-2.61,0-3.92,0-.26,0-.48,0-.54-.32A12.22,12.22,0,0,1,66,30.13c0-.05,0-.13-.11-.18l-.3-1a1.36,1.36,0,0,0-.16-.48,6,6,0,0,0-.23-.72,1.42,1.42,0,0,1-.08-.45.24.24,0,0,1-.05-.16c0-.09,0-.19-.06-.26,0-.28-.22-.53-.18-.82-.11-.15,0-.34-.12-.48v-.22c0-.16,0-.34-.11-.49s0-.23-.06-.35a.25.25,0,0,1,0-.19c0-.08,0-.17-.06-.23s0-.11,0-.16,0-.38-.12-.54h0a3.89,3.89,0,0,0-.17-.89.49.49,0,0,0-.38-.46,1.11,1.11,0,0,1-.75-.94,1,1,0,0,1,.34-.93c.15-.13.24-.31.48-.28a1,1,0,0,1,.67,0,1,1,0,0,1,.8.88,1.12,1.12,0,0,1-.51,1.15c-.16.11-.06.22,0,.33.42.79.85,1.57,1.34,2.33a.19.19,0,0,1,0,.08.45.45,0,0,0,.1.14c.43.63.84,1.27,1.32,1.86a6.21,6.21,0,0,0,1,1.08c.51.38.83.51,1.32,0a3.21,3.21,0,0,0,.88-1.21c.07-.2.21-.36.27-.56l0,0a.13.13,0,0,0,.16-.09c.37-.76.77-1.52,1.12-2.29s.8-1.82,1.2-2.72c0,0,0-.06,0-.09a.66.66,0,0,0,.14-.2c.21-.41,0-.58-.33-.8a1.39,1.39,0,0,1-.53-1.48C73,18.25,72.93,18.14,73,18.07Z" style="fill:#b3b3b3;stroke:#fff;stroke-miterlimit:10;stroke-width:0.002440176754732676px"/><path d="M66.57,32.18a.69.69,0,0,1,.35,0H81.75a.48.48,0,0,1,.29,0,.31.31,0,0,1,0,.1c0,.7,0,1.41,0,2.11-.1.14-.25.1-.38.1H67.09c-.52,0-.52,0-.52-.54Z" style="fill:#b3b3b3;stroke:#fff;stroke-miterlimit:10;stroke-width:0.002440176754732676px"/><path d="M69.64,23.39c.46.78.91,1.58,1.44,2.32.06.09,0,.19,0,.28h0a3.06,3.06,0,0,1-.42.46c-.23.21-.48.41-.69.63a.77.77,0,0,1-1.07.08,5.81,5.81,0,0,1-1.42-1.7c.06-.05.06-.14.11-.19a14.74,14.74,0,0,1,.82-1.38c.06-.1.08-.21.15-.31s.3-.38,0-.63a.88.88,0,0,1,0-1.39,1,1,0,0,1,1.45.13,1,1,0,0,1-.32,1.41C69.55,23.2,69.6,23.29,69.64,23.39Z" style="fill:#b3b3b3;stroke:#fff;stroke-miterlimit:10;stroke-width:0.002440176754732676px"/><path d="M77.55,25.27l.93-1.59.25-.41c0-.06.08-.12,0-.17a.94.94,0,0,1,.6-1.78c.12,0,.31,0,.37.18a1,1,0,0,1,.18.17.88.88,0,0,1,.06,1.12c-.1.12-.18.28-.36.31s0,.11,0,.17a5.37,5.37,0,0,0,.65,1.17A10,10,0,0,0,81,25.63a.24.24,0,0,1,0,.3,5,5,0,0,1-1.21,1.27.68.68,0,0,1-.86,0,5.65,5.65,0,0,1-1.18-1.26l-.19-.23A.4.4,0,0,1,77.55,25.27Z" style="fill:#b3b3b3;stroke:#fff;stroke-miterlimit:10;stroke-width:0.002440176754732676px"/><path d="M66.57,32.18a.69.69,0,0,1,.06.37c0,.54,0,1.08,0,1.62,0,.2.05.28.25.26H81.67c.12,0,.26,0,.37-.06a18.74,18.74,0,0,0,0-2.12v-.07c.13,0,.11,0,.11.13v2c0,.17-.07.21-.21.22H67c-.46,0-.46,0-.46-.47V32.44C66.5,32.35,66.44,32.24,66.57,32.18Z" style="fill:#b3b3b3;stroke:#fff;stroke-miterlimit:10;stroke-width:0.002440176754732676px"/><path d="M69.57,66.67s.07,0,.07.08a15.81,15.81,0,0,1,.12,1.68c-.1-.14,0-.31-.05-.46s.1-.38-.15-.48c0,0,0-.14,0-.21S69.58,66.87,69.57,66.67Z" style="fill:#b3b3b3;stroke:#fff;stroke-miterlimit:10;stroke-width:0.002440176754732676px"/><path d="M70.69,26.45c.1-.19.19-.39.43-.46,0,.26-.15.42-.3.59a.12.12,0,0,0-.12-.13Z" style="fill:#b3b3b3;stroke:#fff;stroke-miterlimit:10;stroke-width:0.002440176754732676px"/><path d="M79.74,28a.44.44,0,0,1-.62.19c-.09-.06-.3,0-.27-.2A.84.84,0,0,0,79.74,28Z" style="fill:#b3b3b3;stroke:#fff;stroke-miterlimit:10;stroke-width:0.002440176754732676px"/><path d="M64.16,22.5c.2.1.12.31.16.46a1.55,1.55,0,0,1,0,.43A2.93,2.93,0,0,1,64.16,22.5Z" style="fill:#b3b3b3;stroke:#fff;stroke-miterlimit:10;stroke-width:0.002440176754732676px"/><path d="M64.52,19.9h-.67A.5.5,0,0,1,64.52,19.9Z" style="fill:#b3b3b3;stroke:#fff;stroke-miterlimit:10;stroke-width:0.002440176754732676px"/><path d="M74.72,17.25a2.49,2.49,0,0,0-.77,0A.62.62,0,0,1,74.72,17.25Z" style="fill:#b3b3b3;stroke:#fff;stroke-miterlimit:10;stroke-width:0.002440176754732676px"/><path d="M85.57,21.21c.05-.23-.06-.44,0-.67.23.2.09.44.11.67,0,0,0,0-.06,0Z" style="fill:#b3b3b3;stroke:#fff;stroke-miterlimit:10;stroke-width:0.002440176754732676px"/><path d="M64.74,25.57c.19.13.11.31.12.48C64.7,25.92,64.74,25.74,64.74,25.57Z" style="fill:#b3b3b3;stroke:#fff;stroke-miterlimit:10;stroke-width:0.002440176754732676px"/><path d="M70.82,74.56c0,.14-.06.27,0,.41s-.11.08-.1.06S70.58,74.67,70.82,74.56Z" style="fill:#b3b3b3;stroke:#fff;stroke-miterlimit:10;stroke-width:0.002440176754732676px"/><path d="M74.89,20.5c-.17-.14-.29-.29,0-.47C74.69,20.2,74.94,20.33,74.89,20.5Z" style="fill:#b3b3b3;stroke:#fff;stroke-miterlimit:10;stroke-width:0.002440176754732676px"/><path d="M64.32,23.4c.25.13.08.35.12.53A1.21,1.21,0,0,1,64.32,23.4Z" style="fill:#b3b3b3;stroke:#fff;stroke-miterlimit:10;stroke-width:0.002440176754732676px"/><path d="M64.62,24.87c.25.11.08.32.12.48A.74.74,0,0,1,64.62,24.87Z" style="fill:#b3b3b3;stroke:#fff;stroke-miterlimit:10;stroke-width:0.002440176754732676px"/><path d="M65.46,28.47a.45.45,0,0,1,.17.47C65.59,28.78,65.44,28.65,65.46,28.47Z" style="fill:#b3b3b3;stroke:#fff;stroke-miterlimit:10;stroke-width:0.002440176754732676px"/><path d="M83.93,24.82c0-.14-.1-.33.11-.43A.51.51,0,0,1,83.93,24.82Z" style="fill:#b3b3b3;stroke:#fff;stroke-miterlimit:10;stroke-width:0.002440176754732676px"/><path d="M83.76,25.58a.61.61,0,0,1,.16-.48A.84.84,0,0,1,83.76,25.58Z" style="fill:#b3b3b3;stroke:#fff;stroke-miterlimit:10;stroke-width:0.002440176754732676px"/><path d="M77.55,25.27v.43C77.41,25.56,77.34,25.42,77.55,25.27Z" style="fill:#b3b3b3;stroke:#fff;stroke-miterlimit:10;stroke-width:0.002440176754732676px"/><path d="M64.81,22.26c-.15-.11-.24-.22,0-.33C64.74,22,64.82,22.15,64.81,22.26Z" style="fill:#b3b3b3;stroke:#fff;stroke-miterlimit:10;stroke-width:0.002440176754732676px"/><path d="M73,18.07c0,.1,0,.22-.11.25S72.86,18.11,73,18.07Z" style="fill:#b3b3b3;stroke:#fff;stroke-miterlimit:10;stroke-width:0.002440176754732676px"/><path d="M83.64,26.11v-.23a.06.06,0,0,1,.08,0s0,0,0,0S83.78,26.08,83.64,26.11Z" style="fill:#b3b3b3;stroke:#fff;stroke-miterlimit:10;stroke-width:0.002440176754732676px"/><path d="M84.23,23.52v-.24a.07.07,0,0,1,.09,0h0C84.34,23.37,84.38,23.48,84.23,23.52Z" style="fill:#b3b3b3;stroke:#fff;stroke-miterlimit:10;stroke-width:0.002440176754732676px"/><path d="M64.56,24.28v.24c-.15,0-.11-.15-.1-.25a.06.06,0,0,1,.09,0Z" style="fill:#b3b3b3;stroke:#fff;stroke-miterlimit:10;stroke-width:0.002440176754732676px"/><path d="M69.64,23.39c0-.1-.25-.2,0-.29Z" style="fill:#b3b3b3;stroke:#fff;stroke-miterlimit:10;stroke-width:0.002440176754732676px"/><path d="M75.18,21.15c-.09-.07-.18-.13-.15-.26A.24.24,0,0,1,75.18,21.15Z" style="fill:#b3b3b3;stroke:#fff;stroke-miterlimit:10;stroke-width:0.002440176754732676px"/><path d="M65,26.87c.16,0,.11.15.11.24s-.08,0-.11-.06Z" style="fill:#b3b3b3;stroke:#fff;stroke-miterlimit:10;stroke-width:0.002440176754732676px"/><path d="M65,27.05l.11.06v.18C65,27.26,65,27.15,65,27.05Z" style="fill:#b3b3b3;stroke:#fff;stroke-miterlimit:10;stroke-width:0.002440176754732676px"/><path d="M82.75,29.71c0-.09,0-.21.12-.24A.24.24,0,0,1,82.75,29.71Z" style="fill:#b3b3b3;stroke:#fff;stroke-miterlimit:10;stroke-width:0.002440176754732676px"/><path d="M73.76,20.6a.16.16,0,0,1-.14.2C73.64,20.71,73.66,20.62,73.76,20.6Z" style="fill:#b3b3b3;stroke:#fff;stroke-miterlimit:10;stroke-width:0.002440176754732676px"/><path d="M85.57,21.21h.07c0,.08,0,.16-.11.18A.17.17,0,0,1,85.57,21.21Z" style="fill:#b3b3b3;stroke:#fff;stroke-miterlimit:10;stroke-width:0.002440176754732676px"/><path d="M83.39,21.33c.13,0,.12.09.11.18S83.38,21.42,83.39,21.33Z" style="fill:#b3b3b3;stroke:#fff;stroke-miterlimit:10;stroke-width:0.002440176754732676px"/><path d="M83.74,25.87h-.1c0-.09,0-.18.11-.19S83.74,25.81,83.74,25.87Z" style="fill:#b3b3b3;stroke:#fff;stroke-miterlimit:10;stroke-width:0.002440176754732676px"/><path d="M64.56,24.28h-.1c0-.06,0-.12,0-.18S64.57,24.19,64.56,24.28Z" style="fill:#b3b3b3;stroke:#fff;stroke-miterlimit:10;stroke-width:0.002440176754732676px"/><path d="M65.93,29.94c.12,0,.11.1.1.19A.14.14,0,0,1,65.93,29.94Z" style="fill:#b3b3b3;stroke:#fff;stroke-miterlimit:10;stroke-width:0.002440176754732676px"/><path d="M84.33,23.27h-.11c0-.09,0-.17.12-.18A.91.91,0,0,0,84.33,23.27Z" style="fill:#b3b3b3;stroke:#fff;stroke-miterlimit:10;stroke-width:0.002440176754732676px"/><path d="M67.63,25.27c0,.09,0,.18-.11.19S67.51,25.28,67.63,25.27Z" style="fill:#b3b3b3;stroke:#fff;stroke-miterlimit:10;stroke-width:0.002440176754732676px"/><path d="M84.52,22.27c0-.14,0-.2.18-.17Z" style="fill:#b3b3b3;stroke:#fff;stroke-miterlimit:10;stroke-width:0.002440176754732676px"/><path d="M74.89,20c0-.11.09-.12.18-.11A.14.14,0,0,1,74.89,20Z" style="fill:#b3b3b3;stroke:#fff;stroke-miterlimit:10;stroke-width:0.002440176754732676px"/><path d="M75,20.74c-.12,0-.12-.1-.11-.19S75,20.64,75,20.74Z" style="fill:#b3b3b3;stroke:#fff;stroke-miterlimit:10;stroke-width:0.002440176754732676px"/><path d="M79.86,21.68a.32.32,0,0,1-.18-.18C79.8,21.49,79.85,21.56,79.86,21.68Z" style="fill:#b3b3b3;stroke:#fff;stroke-miterlimit:10;stroke-width:0.002440176754732676px"/><path d="M78.71,23.1c.05,0,.11,0,.12.06s0,.09-.1.11Z" style="fill:#b3b3b3;stroke:#fff;stroke-miterlimit:10;stroke-width:0.002440176754732676px"/><path d="M77.78,26.58c-.11,0-.12-.09-.11-.18S77.82,26.47,77.78,26.58Z" style="fill:#b3b3b3;stroke:#fff;stroke-miterlimit:10;stroke-width:0.002440176754732676px"/><path d="M66.27,24.81c-.17.06-.09-.07-.1-.14S66.29,24.72,66.27,24.81Z" style="fill:#b3b3b3;stroke:#fff;stroke-miterlimit:10;stroke-width:0.002440176754732676px"/><path d="M76,23.1a.27.27,0,0,1-.11-.25C76,22.92,76.05,23,76,23.1Z" style="fill:#b3b3b3;stroke:#fff;stroke-miterlimit:10;stroke-width:0.002440176754732676px"/><path d="M79.55,23.28s-.1-.06-.09-.12.06-.05.1-.06Z" style="fill:#b3b3b3;stroke:#fff;stroke-miterlimit:10;stroke-width:0.002440176754732676px"/><path d="M82,32.25a.24.24,0,0,1,.06.21v1.69c0,.08,0,.16-.06.22Z" style="fill:#b3b3b3;stroke:#fff;stroke-miterlimit:10;stroke-width:0.002440176754732676px"/></g></g></svg>