<svg id="594c83c3-ccd1-48b8-afd4-59fd452ae9c6" data-name="Layer 1" xmlns="http://www.w3.org/2000/svg" viewBox="0 0 100 100"><title>clientes</title><g id="3b2c637f-519a-48e1-a572-0142a9451470" data-name="Layer 2"><g id="27219992-9135-49ec-b342-d4acbc0866eb" data-name="Layer 1-2"><path d="M54,68.72V62.19h.73v6.53Zm2.31,0V62.19h1.19L59.72,68l2.22-5.82h1.2v6.53h-.72V62.8l-2.26,5.92h-.89L57,62.8v5.92Zm9.35-2.31h2.84l-1.31-3.54h-.23l-1.3,3.53ZM64,68.72l2.42-6.53h1.2l2.43,6.53h-.75l-.62-1.67H65.4l-.61,1.67Zm6.68-4.37a2.35,2.35,0,0,1,.52-1.75,2.62,2.62,0,0,1,1.83-.49h.83a3.08,3.08,0,0,1,1.79.41,1.47,1.47,0,0,1,.57,1.28v.27H75.5V64a1.12,1.12,0,0,0-.34-.94,2.25,2.25,0,0,0-1.31-.26h-.58a4.53,4.53,0,0,0-1,.07,1.27,1.27,0,0,0-.49.25.83.83,0,0,0-.27.43,4.06,4.06,0,0,0-.08,1v1.86a4,4,0,0,0,.08,1,.79.79,0,0,0,.27.43,1.14,1.14,0,0,0,.49.25,4,4,0,0,0,1,.07h.58a4.34,4.34,0,0,0,.88-.06,1.07,1.07,0,0,0,.45-.23.76.76,0,0,0,.25-.4,3.78,3.78,0,0,0,.07-.89v-.4H73.69v-.66h2.57v1.1a2.32,2.32,0,0,1-.52,1.74,2.65,2.65,0,0,1-1.84.5h-.82a2.63,2.63,0,0,1-1.84-.5,2.34,2.34,0,0,1-.52-1.74V64.35Zm6.86,4.37V62.19h4.6v.68H78.29V65h3.76v.67H78.29V68h3.87v.68Zm5.76,0V62.19h1.19L86.76,68,89,62.18h1.21v6.53h-.73V62.8L87.2,68.72h-.89L84.05,62.8v5.92Z" style="fill:#b3b3b3;stroke:#fff;stroke-miterlimit:10;stroke-width:0.041342735290527344px"/><path d="M9.83,58.28h7.23a5.49,5.49,0,0,1,5.46,3.42,5.71,5.71,0,0,1,.36,2,5.35,5.35,0,0,1-1.78,4,5.84,5.84,0,0,1-2.7,1.31,8.75,8.75,0,0,1-1.25.08l-4.71.05v2H9.81v-4.6H17A3.27,3.27,0,0,0,19,66.1a2.94,2.94,0,0,0,1.19-1.71,2.5,2.5,0,0,0,.07-.54v-.27a2.87,2.87,0,0,0-2.89-2.78H9.83Zm14.4,0h8.35A4.55,4.55,0,0,1,36,59.59a3.27,3.27,0,0,1,.77,1,4.22,4.22,0,0,1,.49,1.9v.37a4.35,4.35,0,0,1-2.68,3.75,6.44,6.44,0,0,1,1.64,4.6H33.64V71a3.92,3.92,0,0,0-1.72-3.36,4.3,4.3,0,0,0-2.57-.7H24.23V64.46h8.51a1.87,1.87,0,0,0,1.89-1.38,3.46,3.46,0,0,0,.07-.46,1.88,1.88,0,0,0-.64-1.39,1.85,1.85,0,0,0-1.17-.43s-.13,0-.38,0H24.23V58.27Zm20.92,0h.09a6.4,6.4,0,0,1,6.48,6.43v.09a6.41,6.41,0,0,1-2.51,5.07,6.58,6.58,0,0,1-4,1.35h-.09A6.53,6.53,0,0,1,40,68.79a8,8,0,0,1-1-1.9,7.18,7.18,0,0,1-.35-2.11v-.09a6.41,6.41,0,0,1,5.42-6.32,4.93,4.93,0,0,1,1.08-.09Zm-3.9,6.45a4,4,0,0,0,1.32,3,3.81,3.81,0,0,0,2.48,1h.25A3.89,3.89,0,0,0,47.43,68a4,4,0,0,0,1.51-2.09,4.38,4.38,0,0,0,.18-1.14,4,4,0,0,0-1.28-2.92,3.94,3.94,0,0,0-2.65-1.07,4,4,0,0,0-3,1.4,4.19,4.19,0,0,0-1,2.56Z" style="fill:#b3b3b3;stroke:#fff;stroke-miterlimit:10;stroke-width:0.041342735290527344px"/><path d="M53.84,69.92a.77.77,0,0,1,.15-.55.75.75,0,0,1,.54-.16h.24a.76.76,0,0,1,.53.14.57.57,0,0,1,.16.45v.09h-.24v-.06a.42.42,0,0,0-.09-.32.56.56,0,0,0-.38-.08h-.16a.88.88,0,0,0-.28,0,.29.29,0,0,0-.14.08.32.32,0,0,0-.08.14,1.51,1.51,0,0,0,0,.3v.59a1.62,1.62,0,0,0,0,.31.39.39,0,0,0,.08.14.37.37,0,0,0,.14.07,1.27,1.27,0,0,0,.28,0h.16a.62.62,0,0,0,.38-.09.5.5,0,0,0,.1-.35v-.1h.23v.14a.61.61,0,0,1-.15.48.85.85,0,0,1-.54.13h-.24a.72.72,0,0,1-.53-.15.79.79,0,0,1-.16-.55v-.7Zm3.42.77v-.25a.61.61,0,0,0-.07-.35.4.4,0,0,0-.3-.07h-.1a.39.39,0,0,0-.29.07.61.61,0,0,0-.07.35v.25a.6.6,0,0,0,.07.35.46.46,0,0,0,.3.08h.1a.43.43,0,0,0,.29-.08.54.54,0,0,0,.07-.35Zm-.46.62a.48.48,0,0,1-.59-.57v-.35a.58.58,0,0,1,.13-.44.61.61,0,0,1,.45-.13h.1a.64.64,0,0,1,.46.13.58.58,0,0,1,.13.44v.35a.61.61,0,0,1-.13.45.67.67,0,0,1-.46.12Zm1.52,0V69.84h.21V70a.37.37,0,0,1,.16-.17.84.84,0,0,1,.31-.05.56.56,0,0,1,.4.12.58.58,0,0,1,.12.4v1H59.3v-.9a.45.45,0,0,0-.07-.3A.3.3,0,0,0,59,70a.37.37,0,0,0-.43.43v.85Zm2-.43h.22v0a.19.19,0,0,0,.08.19.74.74,0,0,0,.33,0,.64.64,0,0,0,.34,0,.25.25,0,0,0,.07-.2.26.26,0,0,0,0-.19.66.66,0,0,0-.27-.06h-.21a.82.82,0,0,1-.35,0,.23.23,0,0,1-.12-.12.45.45,0,0,1,0-.23.38.38,0,0,1,.12-.33,1.11,1.11,0,0,1,.54-.08.74.74,0,0,1,.44.08.32.32,0,0,1,.12.28h-.22a.12.12,0,0,0-.08-.13A.93.93,0,0,0,61,70a.65.65,0,0,0-.31,0,.2.2,0,0,0-.07.18.5.5,0,0,0,0,.12.07.07,0,0,0,0,.05.7.7,0,0,0,.29,0H61l.28,0a.4.4,0,0,1,.15,0,.29.29,0,0,1,.14.13.67.67,0,0,1,0,.24.53.53,0,0,1,0,.25.32.32,0,0,1-.14.14.43.43,0,0,1-.16,0H61a1,1,0,0,1-.52-.09.37.37,0,0,1-.12-.33v0Zm3.36-1v1.45H63.5V71.1a.3.3,0,0,1-.17.16.63.63,0,0,1-.31,0,.54.54,0,0,1-.4-.11.55.55,0,0,1-.11-.41v-1h.21v.91a.46.46,0,0,0,.06.3.42.42,0,0,0,.27.07.44.44,0,0,0,.33-.11.44.44,0,0,0,.1-.33v-.84Zm.89,1.45V69.24h.22V71.3Zm1-1.27v-.18h.18v-.33H66v.33h.71V70H66v.8a.34.34,0,0,0,.06.24.4.4,0,0,0,.42,0,.41.41,0,0,0,.06-.24v0h.21a.59.59,0,0,1-.1.41.6.6,0,0,1-.43.11.48.48,0,0,1-.35-.11.66.66,0,0,1-.1-.41V70Zm3,.67v-.25a.6.6,0,0,0-.07-.35.38.38,0,0,0-.29-.08h-.11a.39.39,0,0,0-.29.08.52.52,0,0,0-.06.35v.24a.56.56,0,0,0,.07.36.41.41,0,0,0,.29.07h.1a.38.38,0,0,0,.29-.08.52.52,0,0,0,.07-.35Zm-.46.62a.64.64,0,0,1-.46-.13.59.59,0,0,1-.13-.45v-.34a.61.61,0,0,1,.13-.45.66.66,0,0,1,.45-.13h.11a.66.66,0,0,1,.45.13.61.61,0,0,1,.13.45v.34a.6.6,0,0,1-.12.45.71.71,0,0,1-.46.13Zm1.52,0V69.84h.22V70a.25.25,0,0,1,.14-.16.47.47,0,0,1,.26-.05.38.38,0,0,1,.33.11.64.64,0,0,1,.09.41h-.22v0a.33.33,0,0,0-.05-.24.26.26,0,0,0-.21-.06.32.32,0,0,0-.26.1.56.56,0,0,0-.08.33v.85Zm1.78-1.82v-.24h.22v.24Zm0,1.82V69.84h.22v1.45Zm2.07-.37v-.16a.18.18,0,0,0-.1-.15,1.27,1.27,0,0,0-.34,0,.57.57,0,0,0-.28.06.25.25,0,0,0-.07.2.29.29,0,0,0,.08.23.52.52,0,0,0,.3.06,1.06,1.06,0,0,0,.31,0,.16.16,0,0,0,.11-.14Zm0,.22a.28.28,0,0,1-.16.14,1,1,0,0,1-.3,0,.82.82,0,0,1-.46-.1.48.48,0,0,1-.12-.36.88.88,0,0,1,0-.24.28.28,0,0,1,.09-.14.34.34,0,0,1,.15-.07,1.51,1.51,0,0,1,.3,0,.77.77,0,0,1,.3,0,.23.23,0,0,1,.16.11v-.25a.26.26,0,0,0-.06-.23A.7.7,0,0,0,73,70a.5.5,0,0,0-.27,0,.16.16,0,0,0-.07.16h-.22v0a.3.3,0,0,1,.12-.27.88.88,0,0,1,.42-.08l.36,0a.49.49,0,0,1,.17.06.28.28,0,0,1,.09.13,1,1,0,0,1,0,.25v1h-.2Zm3.31-.26L76,70.25a.32.32,0,0,0-.26.09.55.55,0,0,0-.07.33,1.06,1.06,0,0,0,0,.25.24.24,0,0,0,.06.11.39.39,0,0,0,.15.06l.38,0a.92.92,0,0,0,.33-.06.29.29,0,0,0,.15-.16Zm.19.17a.41.41,0,0,1-.23.22,1.75,1.75,0,0,1-.56.06,1.5,1.5,0,0,1-.42,0,.39.39,0,0,1-.2-.13.48.48,0,0,1-.08-.18,1.22,1.22,0,0,1,0-.33.74.74,0,0,1,.08-.39.48.48,0,0,1,.29-.17.39.39,0,0,1-.14-.17.65.65,0,0,1-.05-.27.37.37,0,0,1,.13-.34.82.82,0,0,1,.48-.1.8.8,0,0,1,.48.11.38.38,0,0,1,.15.34v.17h-.23v-.17a.25.25,0,0,0-.06-.2,1.2,1.2,0,0,0-.65,0,.22.22,0,0,0-.06.19.42.42,0,0,0,.19.35h0l.74.62v-.28h.23v.37a.28.28,0,0,1,0,.09l.39.33-.14.17L77,71ZM79,71.3V69.24h1a.58.58,0,0,1,.7.69v.67a.74.74,0,0,1-.16.54.78.78,0,0,1-.55.16Zm.22-.2H80a.54.54,0,0,0,.39-.1.52.52,0,0,0,.1-.38V70a.39.39,0,0,0-.27-.49.41.41,0,0,0-.22,0h-.73v1.65Zm2.49-.66h.83v-.06a.41.41,0,0,0-.07-.28.5.5,0,0,0-.29-.07h-.1a.48.48,0,0,0-.29.07.41.41,0,0,0-.07.28v.06Zm.37.89a.69.69,0,0,1-.46-.13.61.61,0,0,1-.13-.45v-.34a.61.61,0,0,1,.13-.45.66.66,0,0,1,.45-.13h.1a.67.67,0,0,1,.46.13.61.61,0,0,1,.13.45v.22h-1v.12a.46.46,0,0,0,.08.3.37.37,0,0,0,.29.08h.1a.43.43,0,0,0,.27-.06.25.25,0,0,0,.09-.19h.22a.45.45,0,0,1-.15.34.73.73,0,0,1-.43.11Zm1.47-.46h.22v0a.18.18,0,0,0,.08.18.76.76,0,0,0,.33,0,.6.6,0,0,0,.35,0,.22.22,0,0,0,.06-.19.25.25,0,0,0,0-.19.42.42,0,0,0-.27-.06h-.21a1.34,1.34,0,0,1-.35,0,.3.3,0,0,1-.12-.13.56.56,0,0,1,0-.22.36.36,0,0,1,.12-.33,1,1,0,0,1,.55-.09.79.79,0,0,1,.43.08.33.33,0,0,1,.12.29h-.21v0a.14.14,0,0,0-.09-.13,1.24,1.24,0,0,0-.33,0,.67.67,0,0,0-.31,0,.2.2,0,0,0-.06.18.25.25,0,0,0,0,.12.13.13,0,0,0,0,.06,1,1,0,0,0,.29,0h.38l.15,0a.3.3,0,0,1,.13.12.53.53,0,0,1,0,.25.51.51,0,0,1,0,.24.4.4,0,0,1-.14.15.42.42,0,0,1-.15,0h-.3a.93.93,0,0,1-.52-.09.36.36,0,0,1-.12-.33v0Zm2.16-1.38v-.24h.21v.24Zm0,1.82V69.86h.21v1.45Zm2.13-.62v-.24a.48.48,0,0,0-.1-.33.47.47,0,0,0-.34-.1.37.37,0,0,0-.29.07.63.63,0,0,0-.07.36v.24a.58.58,0,0,0,.07.35.37.37,0,0,0,.29.08.47.47,0,0,0,.34-.1.48.48,0,0,0,.1-.33Zm.22-.85v1.44a.66.66,0,0,1-.13.45.62.62,0,0,1-.44.12h-.1a.69.69,0,0,1-.42-.1.47.47,0,0,1-.15-.35h.22a.25.25,0,0,0,.09.2.47.47,0,0,0,.26.05h.1a.43.43,0,0,0,.27-.06.27.27,0,0,0,.09-.2v-.3a.44.44,0,0,1-.17.16.58.58,0,0,1-.29,0,.59.59,0,0,1-.44-.13.62.62,0,0,1-.13-.44v-.35a.62.62,0,0,1,.13-.44.59.59,0,0,1,.44-.13.52.52,0,0,1,.3.06.33.33,0,0,1,.16.19v-.23ZM89,71.29V69.84h.21V70a.46.46,0,0,1,.17-.17.81.81,0,0,1,.31-.05.58.58,0,0,1,.4.12.52.52,0,0,1,.11.4v1H90v-.9a.45.45,0,0,0-.07-.3.31.31,0,0,0-.26-.07.44.44,0,0,0-.33.1.44.44,0,0,0-.11.33v.85Z" style="fill:#b3b3b3;stroke:#fff;stroke-miterlimit:10;stroke-width:0.041342735290527344px"/><path d="M50.34,35.6c0,.12.1.15.12,0A35.59,35.59,0,0,1,51.64,30a4.88,4.88,0,0,1,.72-1.61c.08-.09.42-.57.66.09.41,1.2.06,3.82-.09,5.14l-.09.59c0,.08-.08.06-.08,0l0-.37c0-.11-.05-.23-.2-.16a10.44,10.44,0,0,0-1.45,2.92A43.51,43.51,0,0,0,49,44.32c0,.13-.17.15-.17,0L50,34.53a10.44,10.44,0,0,1,.32-1.45c.11-.3.14,0,.14,0A17,17,0,0,1,50.34,35.6Z" style="fill:#b3b3b3;stroke:#fff;stroke-miterlimit:10;stroke-width:0.041342735290527344px"/><path d="M49.42,55.23A3.07,3.07,0,0,0,51,56.47a1.42,1.42,0,0,0,1-.08.56.56,0,0,0,.18-.74,2.32,2.32,0,0,0-.75-.95l-.57-.44s0-.11,0-.07c.38.25.51.35.74.25a1,1,0,0,0,.28-.73,16.79,16.79,0,0,0-1.67-6.31l-.6-1.13a.46.46,0,0,0-.77.43l.7,7.47-.08.7c-.1.07-.14,0-.3-.22s-.09,0-.08.05Z" style="fill:#b3b3b3;stroke:#fff;stroke-miterlimit:10;stroke-width:0.041342735290527344px"/><path d="M54.25,36.21c0,.26.25.27.35.08.71-1.56,1.32-3.72,2.79-5.29.45-.36.57,0,.58.14.18,1.59-1,4.73-1.59,6.29-.1.26-.24.1-.21,0a2.2,2.2,0,0,0,0-1.16c0-.16-.18-.41-.59-.33a2,2,0,0,0-.85.43,1.87,1.87,0,0,0-.51.84l-.43,1.19c0,.09-.1.06-.06,0l.29-1.21c0-.08-.06-.16-.17,0a19.8,19.8,0,0,0-4.46,7l-.13.42c-.06.13-.17.06-.15,0,.13-.66.3-1.32.49-2A30,30,0,0,1,52,37a8.84,8.84,0,0,1,1.84-2.49s.39-.29.51.16A4.39,4.39,0,0,1,54.25,36.21Z" style="fill:#b3b3b3;stroke:#fff;stroke-miterlimit:10;stroke-width:0.041342735290527344px"/><path d="M58.48,39.42c-.2.26-.76.22-.64-.15A2,2,0,0,0,58,38.5a.7.7,0,0,0-.76-.8,6.38,6.38,0,0,0-2.76,1.17,19.71,19.71,0,0,0-2,1.68,13.18,13.18,0,0,0-2.8,3.79l-.13.31c-.05.1.08.13.12.05a10.25,10.25,0,0,1,3.28-3.31,10.49,10.49,0,0,1,4.59-1.77c.19,0,.22.06.19.15l-.74,1.51c0,.1.06.13.11,0l1-1.39a.39.39,0,0,1,.45-.16c.36.16.69.48.49,1.25l-.19.57c-.06.18.21.24.27.16A26.21,26.21,0,0,0,61.68,38a5.7,5.7,0,0,0,.64-1.5c0-.09.15-.63-.36-.49C61,36.38,59.32,38.33,58.48,39.42Z" style="fill:#b3b3b3;stroke:#fff;stroke-miterlimit:10;stroke-width:0.041342735290527344px"/><path d="M59.19,46.73c-.1.1.06.25.15.19a18.78,18.78,0,0,0,4.44-3.64l.23-.4c.1-.26,0-.44-.29-.41A11,11,0,0,0,60,44.41c-.33.21-.68,0-.53-.31a1.62,1.62,0,0,0,.19-1.5,2.05,2.05,0,0,0-1.73-.86,8.25,8.25,0,0,0-3.06.24,10.42,10.42,0,0,0-3.09,1.21,6.65,6.65,0,0,0-1.82,1.52l-.22.3s0,.07,0,.08a0,0,0,0,0,.07,0,3.69,3.69,0,0,1,1-.79,7.88,7.88,0,0,1,3.85-1,10.21,10.21,0,0,1,3.2.36,3.69,3.69,0,0,1,1.32.62c.12.09.05.28,0,.35a9.19,9.19,0,0,1-.94,1s0,.08,0,.05l1.2-.89c.11-.08.21-.09.27,0a1.22,1.22,0,0,1,.11.9A2.29,2.29,0,0,1,59.19,46.73Z" style="fill:#b3b3b3;stroke:#fff;stroke-miterlimit:10;stroke-width:0.041342735290527344px"/><path d="M49.75,45.39c-.14.08,0,.22.07.16a2.75,2.75,0,0,1,1.61-.35,10.19,10.19,0,0,1,4.22,1.62,8.74,8.74,0,0,1,2,1.76,2.88,2.88,0,0,1,.43.66c.11.21,0,.3-.1.35l-.42.22c-.06,0,0,.07,0,0l.53-.17c.12,0,.14,0,.16.11a1.3,1.3,0,0,1-.16.88,1.86,1.86,0,0,1-.89.67l-.3.11s0,.07,0,.06l1-.21,1.68-.47a8.93,8.93,0,0,0,2.85-1.32.87.87,0,0,0,.28-.35.19.19,0,0,0-.13-.26,1.5,1.5,0,0,0-.47-.08,12.27,12.27,0,0,0-3.2.61l-.48.14a.12.12,0,0,1-.11-.21,2.27,2.27,0,0,0,.79-.81,1.21,1.21,0,0,0,.07-1.08,3.91,3.91,0,0,0-2-1.82,10.6,10.6,0,0,0-4.65-1.11,5,5,0,0,0-2,.37A2.89,2.89,0,0,0,49.75,45.39Z" style="fill:#b3b3b3;stroke:#fff;stroke-miterlimit:10;stroke-width:0.041342735290527344px"/><path d="M49.7,45.77c-.16,0-.16.27,0,.27a5,5,0,0,1,2.13,1.61A15.44,15.44,0,0,1,54,51a8.23,8.23,0,0,1,.7,1.78,2.35,2.35,0,0,1,.08,1,.64.64,0,0,1-.58.63l-.2,0c-.06,0-.07,0,0,.06a9.87,9.87,0,0,0,3.66.3,2.07,2.07,0,0,0,.87-.31c.05,0,.26-.23,0-.48a6.77,6.77,0,0,0-2.78-.66c-.12,0,0-.1,0-.15a1.13,1.13,0,0,0,.92-.92,4.2,4.2,0,0,0-.92-2.35A12.28,12.28,0,0,0,52.82,47a5.34,5.34,0,0,0-2.48-1.21A2,2,0,0,0,49.7,45.77Z" style="fill:#b3b3b3;stroke:#fff;stroke-miterlimit:10;stroke-width:0.041342735290527344px"/><path d="M47.29,35.6c0,.12-.1.15-.12,0A35.59,35.59,0,0,0,46,30a4.88,4.88,0,0,0-.72-1.61c-.08-.09-.43-.57-.66.09-.41,1.2-.07,3.82.09,5.14l.09.59c0,.08.07.06.07,0l0-.37c0-.11,0-.23.2-.16a10.44,10.44,0,0,1,1.45,2.92,43.51,43.51,0,0,1,2.12,7.71c0,.13.16.15.16,0l-1.17-9.78a9.14,9.14,0,0,0-.31-1.45c-.11-.3-.14,0-.14,0A15.73,15.73,0,0,0,47.29,35.6Z" style="fill:#b3b3b3;stroke:#fff;stroke-miterlimit:10;stroke-width:0.041342735290527344px"/><path d="M48.21,55.23a3.07,3.07,0,0,1-1.62,1.24,1.41,1.41,0,0,1-1-.08.57.57,0,0,1-.19-.74,2.27,2.27,0,0,1,.76-.95l.57-.44s0-.11-.05-.07c-.38.25-.51.35-.74.25a1,1,0,0,1-.29-.73,16.84,16.84,0,0,1,1.68-6.31l.6-1.13a.46.46,0,0,1,.77.44l-.7,7.46.07.71c.11.06.15,0,.31-.23.06,0,.09,0,.08.05Z" style="fill:#b3b3b3;stroke:#fff;stroke-miterlimit:10;stroke-width:0.041342735290527344px"/><path d="M43.37,36.21c0,.26-.25.27-.35.08-.71-1.56-1.32-3.72-2.79-5.29-.44-.36-.57,0-.58.14-.18,1.59,1,4.73,1.59,6.29.1.26.24.1.21,0a2.2,2.2,0,0,1-.05-1.16c0-.16.18-.41.59-.33a2,2,0,0,1,.85.43,1.87,1.87,0,0,1,.51.84l.42,1.17c0,.07.1,0,.07,0l-.29-1.21c0-.08.07-.16.17,0a19.8,19.8,0,0,1,4.46,7l.13.42c.06.13.17.06.15,0-.13-.66-.3-1.32-.49-2A30,30,0,0,0,45.67,37a8.79,8.79,0,0,0-1.84-2.49s-.4-.29-.52.17A5,5,0,0,0,43.37,36.21Z" style="fill:#b3b3b3;stroke:#fff;stroke-miterlimit:10;stroke-width:0.041342735290527344px"/><path d="M39.15,39.42c.2.26.76.22.64-.15a1.84,1.84,0,0,1-.13-.77.69.69,0,0,1,.75-.8,6.43,6.43,0,0,1,2.77,1.17,20.85,20.85,0,0,1,2,1.68A13.06,13.06,0,0,1,48,44.35l.13.3c0,.1-.08.13-.13.05a10.14,10.14,0,0,0-3.28-3.31,10.49,10.49,0,0,0-4.59-1.77c-.18,0-.22.06-.18.15l.74,1.49a.07.07,0,0,1,0,.09.06.06,0,0,1-.09,0v0l-1-1.38a.4.4,0,0,0-.45-.17c-.36.17-.68.49-.49,1.25l.2.57c.05.18-.22.24-.28.17A27.17,27.17,0,0,1,36,38a5.37,5.37,0,0,1-.63-1.5c0-.09-.16-.63.35-.49C36.63,36.38,38.31,38.33,39.15,39.42Z" style="fill:#b3b3b3;stroke:#fff;stroke-miterlimit:10;stroke-width:0.041342735290527344px"/><path d="M38.44,46.73c.1.1-.07.25-.15.19a18.75,18.75,0,0,1-4.44-3.63l-.24-.41c-.1-.26,0-.44.29-.41a11,11,0,0,1,3.76,1.94c.33.21.68,0,.53-.31A1.62,1.62,0,0,1,38,42.6a2.05,2.05,0,0,1,1.73-.86,8.25,8.25,0,0,1,3.06.24,8.88,8.88,0,0,1,3.09,1.22,6.34,6.34,0,0,1,1.82,1.52l.22.3a.06.06,0,0,1,0,.08h-.07a4,4,0,0,0-1-.73A7.53,7.53,0,0,0,43,43.3a10.18,10.18,0,0,0-3.19.36,3.86,3.86,0,0,0-1.32.61c-.13.1,0,.29,0,.36a7.58,7.58,0,0,0,.94,1s0,.09,0,.06l-1.2-.89c-.11-.09-.2-.1-.27,0a1.23,1.23,0,0,0-.1.9A2.18,2.18,0,0,0,38.44,46.73Z" style="fill:#b3b3b3;stroke:#fff;stroke-miterlimit:10;stroke-width:0.041342735290527344px"/><path d="M47.87,45.37a.07.07,0,0,1,0,.09.06.06,0,0,1-.07,0,5.31,5.31,0,0,0-2-.23A8,8,0,0,0,42,46.82a9.17,9.17,0,0,0-2,1.75,3.13,3.13,0,0,0-.42.67c-.12.2,0,.3.09.35l.43.22c.06,0,0,.07,0,0l-.53-.17c-.13,0-.14,0-.16.11a1.24,1.24,0,0,0,.16.88,1.86,1.86,0,0,0,.89.67l.28.11s0,.07,0,.06l-1-.21L38,50.84a8.93,8.93,0,0,1-2.85-1.32.87.87,0,0,1-.28-.35.2.2,0,0,1,.14-.26,1.22,1.22,0,0,1,.46-.09,12.4,12.4,0,0,1,3.21.62l.47.14a.12.12,0,0,0,.11-.21,2.21,2.21,0,0,1-.78-.82,1.16,1.16,0,0,1-.08-1.07,3.91,3.91,0,0,1,2-1.82,10.49,10.49,0,0,1,4.66-1.12,5,5,0,0,1,2,.37A2.77,2.77,0,0,1,47.87,45.37Z" style="fill:#b3b3b3;stroke:#fff;stroke-miterlimit:10;stroke-width:0.041342735290527344px"/><path d="M47.93,45.77c.13,0,.14.27,0,.27a5,5,0,0,0-2.12,1.61A15.37,15.37,0,0,0,43.59,51a8.23,8.23,0,0,0-.7,1.78,2.35,2.35,0,0,0-.09,1,.65.65,0,0,0,.59.63l.2,0c.06,0,.07,0,0,.06a9.87,9.87,0,0,1-3.66.3,2.07,2.07,0,0,1-.87-.31s-.26-.23,0-.48a6.77,6.77,0,0,1,2.78-.66c.11,0,0-.1,0-.15a1.13,1.13,0,0,1-.92-.92,4.13,4.13,0,0,1,.92-2.35A12.07,12.07,0,0,1,44.8,47a5.44,5.44,0,0,1,2.48-1.21A2,2,0,0,1,47.93,45.77Z" style="fill:#b3b3b3;stroke:#fff;stroke-miterlimit:10;stroke-width:0.041342735290527344px"/></g></g></svg>