<svg id="dc4d9598-0d38-43ea-8b6e-42ba9e4a21e4" data-name="Layer 1" xmlns="http://www.w3.org/2000/svg" viewBox="0 0 100 100"><title>clientes</title><path d="M86.52,16.29a.69.69,0,0,0,.25.35c.11.31.34.26.59.2.61-.15,1.23-.32,1.85-.43.35-.05.35-.14.16-.39-.68-.86-1.35-1.73-2-2.6-.67-1.08-.67-1.08-1.87-.85-.38.08-.77.19-1.16.24s-.34.18-.16.42Z" style="fill:#b3b3b3;stroke:#fff;stroke-miterlimit:10;stroke-width:0.25px"/><path d="M71,18.93c0,.09.11.16.15.25a1.61,1.61,0,0,0,2.45.87c.31-.14.91-.06,1-.28.07-.38-.36-.68-.65-1A21.35,21.35,0,0,0,72,16.39c-.14-.24-.23-.62-.59-.55-.81.16-1.6.38-2.45.6l.77.92A10.07,10.07,0,0,0,71,18.93Zm.2-2.37,0,0h0l0,0Z" style="fill:#b3b3b3;stroke:#fff;stroke-miterlimit:10;stroke-width:0.25px"/><path d="M61.36,21.7c.1.38.43.6.63.91a.25.25,0,0,0,.31.09c.7-.18,1.41-.35,2.12-.51.24-.05.25-.13.11-.31-.56-.71-1-1.48-1.67-2.14a7.16,7.16,0,0,0-1-1.32c0-.17-.15-.29-.34-.25L59,18.74l.65.79A21.1,21.1,0,0,0,61.36,21.7Zm-1.43-2.18h0l0,0v0h0v0h0l0,0Z" style="fill:#b3b3b3;stroke:#fff;stroke-miterlimit:10;stroke-width:0.25px"/><path d="M66,20.13l.39.59.45.61h0c.14.24.31.32.55.13h0a16.28,16.28,0,0,0,2.26-.52L69,20.12c0-.15-.13-.19-.22-.26A3.24,3.24,0,0,0,68.2,19c-.38-.64-.89-1.2-1.33-1.8a.48.48,0,0,0-.6-.19,16.86,16.86,0,0,1-1.84.42c-.43.06-.33.22-.17.43C64.84,18.65,65.43,19.39,66,20.13Zm0-.51,0,0h0v0Z" style="fill:#b3b3b3;stroke:#fff;stroke-miterlimit:10;stroke-width:0.25px"/><path d="M91.42,15.1c.28.2.25.86.86.57.15,0,.32,0,.26-.18-.29-1-.33-2.09-.72-3.09,0-.31-.1-.62-.16-.93s-.21-.3-.44-.24L89,11.77a3.29,3.29,0,0,0,.68.93ZM92,15Z" style="fill:#b3b3b3;stroke:#fff;stroke-miterlimit:10;stroke-width:0.25px"/><path d="M74.65,16.08a5.36,5.36,0,0,0,1,1.29,11.53,11.53,0,0,0,1.07,1.45.58.58,0,0,0,.77.34c.7-.19,1.4-.34,2.18-.53l-1-1.27a4.85,4.85,0,0,0-.83-1.08c0-.09,0-.17-.15-.2l-.13-.15v0s0,0,0,0c0-.15-.06-.22-.19-.26-.32-.28-.36-.83-.87-.93h-.12a6.32,6.32,0,0,0-1.56.36l-.79.15A4.35,4.35,0,0,0,74.65,16.08Zm4.09,2h0Zm-1.95-2.61s0,0,0,0v0Z" style="fill:#b3b3b3;stroke:#fff;stroke-miterlimit:10;stroke-width:0.25px"/><path d="M79.56,14.87h0c.16.19.23.46.47.59a11.06,11.06,0,0,0,1.1,1.45,3.23,3.23,0,0,1,.27.44,1,1,0,0,0,1.42.55A5,5,0,0,1,84,17.62c.56-.06.63-.24.22-.61-.08-.16-.15-.33-.34-.4a1,1,0,0,0-.47-.57,9.61,9.61,0,0,0-1.22-1.68,2.43,2.43,0,0,0-.59-.76,5.1,5.1,0,0,0-1.73.28c-.92.19-.92.21-.34,1Z" style="fill:#b3b3b3;stroke:#fff;stroke-miterlimit:10;stroke-width:0.25px"/><path d="M22.8,31.87a2.66,2.66,0,0,0,1-.24c.22,0,.43-.09.64-.1.47,0,.48-.16.21-.51q-1.27-1.65-2.52-3.33a.44.44,0,0,0-.49-.23L19.26,28c.92,1.23,1.83,2.41,2.71,3.62C22.21,32,22.45,32.1,22.8,31.87Z" style="fill:#b3b3b3;stroke:#fff;stroke-miterlimit:10;stroke-width:0.25px"/><path d="M27.48,30.8l1.43-.37a.64.64,0,0,0,.5-.12c.25,0,.41-.06.22-.33q-1.29-1.74-2.6-3.47c-.09-.12-.13-.3-.36-.24-.79.21-1.59.4-2.46.61,1,1.3,1.94,2.53,2.87,3.77A.34.34,0,0,0,27.48,30.8Zm.85-.59h0l0,0Z" style="fill:#b3b3b3;stroke:#fff;stroke-miterlimit:10;stroke-width:0.25px"/><path d="M54.38,20.26l.27.37,2.2,2.94a.54.54,0,0,0,.66.23c.71-.19,1.44-.33,2.22-.5l-.31-.42a1,1,0,0,0-.31-.39c-.14-.25-.44-.39-.53-.69a.72.72,0,0,0-.31-.4l-.72-.95a.38.38,0,0,0-.25-.31c-.49-.86-.48-.82-1.46-.66-.52.08-1,.34-1.51.4C54,19.93,54.26,20.14,54.38,20.26Z" style="fill:#b3b3b3;stroke:#fff;stroke-miterlimit:10;stroke-width:0.25px"/><path d="M30.71,27.66l.07-.06a.13.13,0,0,1-.07.06l.46.61c.29.4.59.79.87,1.19.09.12.18.25.33.22l2.48-.6c-.44-.51-.68-1.09-1.22-1.43a2.83,2.83,0,0,0-.79-1.17L32,25.32a.4.4,0,0,0-.47-.17c-.69.16-1.38.33-2.07.48-.24.05-.26.13-.12.31Z" style="fill:#b3b3b3;stroke:#fff;stroke-miterlimit:10;stroke-width:0.25px"/><path d="M49.78,21.91a1.62,1.62,0,0,0,.45.61,22.92,22.92,0,0,1,1.39,1.89A.89.89,0,0,0,53,24.8l.82-.15c.93-.2.93-.19.38-.93a3.74,3.74,0,0,0-.72-.77c-.23-.66-.82-1.08-1.14-1.66a1.19,1.19,0,0,0-1.76-.56.44.44,0,0,0-.36.11,2.79,2.79,0,0,0-1.08.28A3.59,3.59,0,0,0,49.78,21.91Z" style="fill:#b3b3b3;stroke:#fff;stroke-miterlimit:10;stroke-width:0.25px"/><path d="M94,37.73h0c0-.54,0-1.07,0-1.61,0-.15.12-.41-.18-.42s-.54-.11-.67.23c-.41,1-1,2-1.33,3.12a2.81,2.81,0,0,0-.26.52c-.14.48-.42.61-.91.58a4.58,4.58,0,0,0-1.65.08h0a.42.42,0,0,1,0-.5c.39-.81.62-1.68,1.08-2.47a4.62,4.62,0,0,0,.64-1.56c-.65,0-1.27,0-1.88,0a.9.9,0,0,0-1.06.67c-.49,1.27-1.16,2.47-1.61,3.76H83.67V39.9a7.64,7.64,0,0,0,.71-1.57,28.22,28.22,0,0,0,1.18-2.62H83.18a.31.31,0,0,0-.41.22,9.29,9.29,0,0,0-.58,1.39,10.84,10.84,0,0,0-.93,2.09c-.19.72-.71.83-1.34.73s-1,.16-1.52-.13a.45.45,0,0,0,.22-.36l1.06-2.4.16-.43h0c.14-.28.29-.55.42-.83s.13-.3-.11-.29a10.38,10.38,0,0,0-2.49.11h0l-1.06,2.4c-.09.18-.19.35-.27.53-.59,1.4-.59,1.4-2.08,1.4h-.53c-.54.05-.26-.28-.24-.5a19.44,19.44,0,0,0,1.22-2.76c.13-.26.26-.54.41-.8.25-.43,0-.44-.31-.38-.59,0-1.18,0-1.76,0-.39,0-.58.11-.63.48a3.63,3.63,0,0,0-.49,1.08h0c-.39.85-.8,1.7-1.17,2.56-.1.24-.2.36-.46.36-.55,0-1.1-.05-1.65,0-.35,0-.35-.14-.32-.38l1.89-4.09c-1,.06-2-.29-2.68.14s-.71,1.37-1,2.09a2.14,2.14,0,0,0-.09.27,5.82,5.82,0,0,0-.6,1.32h0l-.14.25c-.14.08-.08.22-.1.34a23.17,23.17,0,0,1-2.5,0c0-.34.43-.48.37-.84a18.16,18.16,0,0,0,1.09-2.47A4.8,4.8,0,0,0,65,35.7H62.58a.34.34,0,0,0-.36.23c-.46,1.08-.91,2.16-1.37,3.23a.78.78,0,0,0-.21.48c-.12,0-.11.15-.13.25s-.09.15-.1.24l-2.09,0c-.32,0-.32-.11-.2-.36.45-1,.89-1.95,1.32-2.93.17-.37.31-.75.48-1.16-.81,0-1.55,0-2.29,0a.49.49,0,0,0-.54.34,18.34,18.34,0,0,0-1,2.37,1.07,1.07,0,0,0-.25.51,2.47,2.47,0,0,0-.45,1.1l0,0v0a14.8,14.8,0,0,1-2,.08c-.45.05-.45-.16-.33-.48h0a20.56,20.56,0,0,0,1.18-2.62.76.76,0,0,0,.21-.52c0-.15.11-.24.19-.34.27-.35.26-.53-.26-.5s-1.22,0-1.83,0c-.17,0-.38-.07-.37.23a4.21,4.21,0,0,0-.85,1.75,4.87,4.87,0,0,0-.57,1.25,3,3,0,0,0-.4,1c-.09,0-.1.12-.1.21-.8.11-1.59,0-2.39,0h0a1.28,1.28,0,0,1,.07-.28l1.65-3.74c.06-.14.26-.4,0-.39a8.66,8.66,0,0,0-2.49.09h0c-.52,1.1-1,2.2-1.47,3.34-.24,1-.91,1.13-1.77,1a5.63,5.63,0,0,0-.71,0h0c-.36,0-.38-.1-.24-.41.61-1.32,1.19-2.65,1.81-4-.76,0-1.43,0-2.1,0-.48,0-.76.11-.82.6-.56,1.1-1,2.23-1.51,3.37-.19.13-.08.52-.48.5a15.27,15.27,0,0,0-1.79,0c-.35,0-.27-.19-.27-.38l1.89-4.07c-.87,0-1.62,0-2.38,0a.47.47,0,0,0-.52.36c-.29.72-.6,1.42-.9,2.13h0a6,6,0,0,0-.61,1.34.57.57,0,0,0-.14.35.21.21,0,0,0-.1.21c-.72.11-1.44,0-2.16.06-.19,0-.23-.09-.22-.25.62-1.38,1.25-2.75,1.9-4.19H32a.37.37,0,0,0-.41.25c-.43,1-.88,2.08-1.32,3.11a3.72,3.72,0,0,0-.49,1.07c-.61,0-1.23,0-1.85,0s-.7-.16-.39-.62a10.86,10.86,0,0,0,.85-1.75,11.55,11.55,0,0,0,.86-2.07h-1.4c-1.26,0-1.26,0-1.76,1.19l-1,2.26-.25.49c-.19.1-.08.35-.23.47-.67,0-1.34,0-2,0-.34,0-.26-.18-.25-.37L24.2,35.7H21.76a.41.41,0,0,0-.43.31c-.3.73-.62,1.45-.94,2.18h0a6.7,6.7,0,0,0-.6,1.34.48.48,0,0,0-.14.36.88.88,0,0,1-.4.34,4.65,4.65,0,0,0-1.58-.07c-.42,0-.58-.06-.36-.53.54-1.16,1-2.35,1.57-3.52.14-.31.13-.42-.24-.41-.66,0-1.31,0-2,0-.18,0-.35,0-.44.21l-.51,1.31a.27.27,0,0,0-.12.26l-.21.38-.05.23c-.14.23-.27.34-.54.1-.42-.38-.89-.71-1.34-1.06a1.69,1.69,0,0,1,.31-1c.2-.42.05-.48-.32-.41h0a7.37,7.37,0,0,0-.94,0,1.66,1.66,0,0,1-1.43-.48A10.67,10.67,0,0,0,9.39,34l-.1-.11a16.35,16.35,0,0,1-1.93-2.06L7,31.36H7c-.14-.15-.13-.51-.49-.33H6.39c-.63,0-.33.35-.25.62h0q0,4.25,0,8.5v47.9c0,.18,0,.36,0,.54s.13.16.26.14l.53,0H93.43c.17,0,.4.13.53-.12v-.12c0-.18,0-.35,0-.53V38.27c0-.18,0-.36,0-.54Zm-29.51-1s0,0,0,0l0,0ZM6.51,39.65a.06.06,0,0,1,0,0h0v0Zm0,0Zm71.17-1.44h0Zm-1.17,1.17v0h0Zm-8.31-.7h0ZM58.05,40.36h0Zm-5.18-1.67h0Zm0,0Zm-15.45,1.9h0Zm-1.8,0-.09,0Zm-1.74-.17h0Zm-11.44-.16Zm-.24-1.6v0h0Zm0,0Zm0,0Zm0-1h0ZM7.94,33.18h0Zm-.59,7.9h0ZM9.26,88.29h0Zm7-4.32a1.06,1.06,0,0,0-.25.68l-.38.5-.45.39h0l-.72.22h0l-5.32,0c-.22,0-.37,0-.29.28v.12c0,.53,0,1.07,0,1.6,0,.18,0,.39-.24.38a6.12,6.12,0,0,1-1.48-.06.58.58,0,0,0,0-.26A.39.39,0,0,1,7,87.68l0-6.91.69,0s0,0,0,0a1.32,1.32,0,0,0,.87.15c1.44,0,2.9.07,4.34,0s2.52.15,3.17,1.51a.28.28,0,0,0,.13,0v0a.06.06,0,0,0,0,.09Zm9.94,0,0,0,0,0-.21.54-.05.11h0l-.81.84c-.09,0-.19,0-.24.1a4.83,4.83,0,0,1-1.33,0,4.13,4.13,0,0,0,.94,1.07h0a1.27,1.27,0,0,0,.4.46h0a1.44,1.44,0,0,0,.46.52l.11.09c.06.15.07.27-.1.35a7.17,7.17,0,0,0-1.67,0,.31.31,0,0,1-.18,0l.18,0a1,1,0,0,1-.78-.43,6.88,6.88,0,0,0-.64-.69h0s0,0,0-.06a1.2,1.2,0,0,0-.45-.5l-.33-.36a5.34,5.34,0,0,0-.87-1,1.47,1.47,0,0,0-.49-.56c-.06-.24-.42-.3-.35-.61l.23,0h0c1,0,2.09,0,3.14,0a1.94,1.94,0,0,0,1.09-.09.83.83,0,0,0,.09-1.22c-.07-.17-.23-.14-.36-.14l-4.79,0c-.45-.13-.38.18-.38.44,0,1.56,0,3.13,0,4.69,0,.37-.1.5-.48.47a7.38,7.38,0,0,0-.94,0c-.46,0-.33-.35-.38-.59v-4.8s0,0,0,0H17a2,2,0,0,0,.14-1.1c0-.67.05-.72.71-.72,1.79,0,3.58,0,5.37,0a3.56,3.56,0,0,1,2.37.6h.11a.55.55,0,0,0,.23.31l.2.61A7.22,7.22,0,0,1,26.15,84Zm.17,1.26h0l0,0Zm8.93,2.31-.35.27-.13.09-.11,0h0a2.85,2.85,0,0,1-.39.11c-1.53.2-3.06,0-4.59.09A3.6,3.6,0,0,1,28,87.8h0a1.16,1.16,0,0,0-.49-.36h0l-.12-.11-.47-1c0-1.27,0-2.54,0-3.81l.1-.24.18-.46A4.92,4.92,0,0,1,28,81a.3.3,0,0,0,.3-.05.56.56,0,0,0,0-.12l.81-.15h0a.27.27,0,0,0,.06.1.79.79,0,0,0,.4.1c1.64,0,3.27,0,4.91,0,0,0,0,0,0,0,.07.27.32.29.54.35,0,0,.06,0,.09,0l.17.13a.08.08,0,0,0,0,.09.63.63,0,0,0,.43.49l.21.44c.1,1.1,0,2.2.1,3.3h0A2.88,2.88,0,0,1,35.25,87.54Zm16.76,0L51.3,88a6.27,6.27,0,0,1-1.3.09c-1.76,0-3.52,0-5.28,0h-.48l-.1-.19a2.53,2.53,0,0,0,.06-1.22c0-.35.12-.41.4-.4h5.92c.1,0,.25.06.29-.11v-.12a.54.54,0,0,0,0-.6c0-.17,0-.25-.21-.24l-.74,0h0l-.71,0a30.85,30.85,0,0,1-4.08-.12,2.73,2.73,0,0,1-1.21-1.56V82.44h0a4.64,4.64,0,0,1,1.31-1.51.25.25,0,0,0,0-.07.24.24,0,0,0,.22-.1h0l6.56,0h0v.07a.29.29,0,0,0,.23.07h0a6,6,0,0,1,0,1.52l-.07.07-.06.1c-2-.05-4-.06-6.08,0-.42-.05-.44.25-.44.53s.19.47.53.47c1.37,0,2.74,0,4.11,0a2.94,2.94,0,0,1,1.43.29l.33.26A2.63,2.63,0,0,1,52,87.56Zm-1.44-2h0Zm-5.49-5.38h0Zm13.51,7.15v0S58.61,87.28,58.59,87.29Zm3.12-4.89a20.85,20.85,0,0,0-2.85,0,.46.46,0,0,0-.36.17c-.39.1-.3.45-.3.71,0,1.3,0,2.61,0,3.92a1.39,1.39,0,0,1-.23.91l-.06,0a2,2,0,0,0-1,0l-.09.07c-.15-.09-.15-.23-.15-.42,0-1.69,0-3.38,0-5.07,0-.13-.12-.14-.22-.14l-2.63,0,0-.05a.47.47,0,0,0-.3-.06,2.24,2.24,0,0,0,0-1.51.3.3,0,0,1,0-.08,1,1,0,0,0,.41.08c2.52,0,5,0,7.56,0a.59.59,0,0,0,.19,0l.07,0a2,2,0,0,0,0,1.58l0,0ZM63,88.05v0l0,0Zm8.41-2.37v.16a.89.89,0,0,0-.09.64A2.27,2.27,0,0,1,69,88.17c-1.36,0-2.72,0-4.07,0a5,5,0,0,1-1.67-.27.58.58,0,0,0-.37-.32l-.59-1,0-.24c0-1.53,0-3.06,0-4.59,0-1,0-1,1-1h.12l.69.07s0,0,0,0a37.37,37.37,0,0,0,0,4.49v.15a.2.2,0,0,0,0,.09c0,.09,0,.17,0,.25a.12.12,0,0,0,0,.13c0,.34.16.43.47.43,1.49,0,3,0,4.46,0,.48,0,.6-.25.5-.68a1.16,1.16,0,0,0,.06-.64c0-1.29,0-2.58,0-3.87,0-.2-.07-.46.28-.46H70l.06,0a.46.46,0,0,0,.11.18c1,.15,1,.15,1,1.13s0,2,0,3c0,.26-.07.57.27.72h0Zm-9.09-5.54h0Zm.23.3h0Zm1.69,5.33Zm.62.06H65s0,0,0,0Zm6.74-.76v0Zm7.8,2.23a1.1,1.1,0,0,0,0,.25,3.57,3.57,0,0,1-1.73.61c-1.59-.07-3.19-.07-4.79,0-.83-.08-.83-.08-.83-1,0-.19,0-.39,0-.58h0a1.18,1.18,0,0,0,.17-.86c0-1.39,0-2.79,0-4.19,0-.38.07-.66.55-.66,1.7,0,3.39,0,5.09,0a1.92,1.92,0,0,1,2,1.64A6.88,6.88,0,0,1,79.41,87.3ZM80.47,81Zm2,.08a5.26,5.26,0,0,0,0,.89c0,1.74,0,3.47,0,5.21,0,.44-.08.74-.61.74a.46.46,0,0,0-.48.25.06.06,0,0,1,0,0c-.09-.16-.27-.16-.41-.24s0-.35-.06-.52c0-.44,0-.89,0-1.33,0-1.56,0-3.12,0-4.68,0-.46.12-.66.59-.6h.12c.32.08.67-.07,1,.07A.85.85,0,0,1,82.43,81ZM92.09,87h0l-.31.44h0l-.34.29-.06,0a8.49,8.49,0,0,0-1.08.35,43.77,43.77,0,0,1-4.86,0c-.38,0-.73-.19-1.11-.21l-.07,0c-.12-.3-.4-.46-.61-.68a.6.6,0,0,0,0-.19,2.19,2.19,0,0,0-.33-.77l0-.07c0-.2,0-.41,0-.62a.9.9,0,0,0,.06-.22c0-.2,0-.4,0-.59,0-.72,0-1.43,0-2.14a2.54,2.54,0,0,1,.92-1.29.6.6,0,0,0,.32-.34c.1.06.17,0,.25-.07v0a.71.71,0,0,0,.47.1,30.66,30.66,0,0,1,5.42.09.48.48,0,0,0,.4-.08v-.06c.1,0-.06.08,0,.12a4.19,4.19,0,0,0,1,.92h0c-.1.15,0,.31,0,.47a15.7,15.7,0,0,1-.05,4.33A.36.36,0,0,0,92.09,87Zm-2.93-7.33h0Zm3.66-.88a.59.59,0,0,1-.45.44,6.16,6.16,0,0,1-1,0H10c-.34,0-.68,0-1,0H8.24c-.3,0-.6,0-.89,0h0a.08.08,0,0,0-.11,0c-.25-.41,0-.87-.14-1.29h0a1.8,1.8,0,0,0,.17-1.16V41.5a2,2,0,0,1,0-.25l.38,0c.35.07.7,0,1,0H92.07a.68.68,0,0,1,.55.17,1.81,1.81,0,0,1,.18,1.16q0,17.64,0,35.26A5.78,5.78,0,0,1,92.82,78.78Z" style="fill:#b3b3b3;stroke:#fff;stroke-miterlimit:10;stroke-width:0.25px"/><path d="M16.79,32.59c.07.13.11.28.26.36a.29.29,0,0,0,.4.22,7,7,0,0,0,1.16-.34,1,1,0,0,0,.61-.13.65.65,0,0,0,.48-.15,8.15,8.15,0,0,0-1-1.29c.05-.21-.12-.29-.24-.4a1.45,1.45,0,0,0-.48-.59A12.78,12.78,0,0,0,17,28.79c-.15-.22-.33-.16-.52-.12l-2.27.53L15.59,31A11.35,11.35,0,0,0,16.79,32.59Zm2.36-.33.06.12-.13-.09Zm-.54-.76Z" style="fill:#b3b3b3;stroke:#fff;stroke-miterlimit:10;stroke-width:0.25px"/><path d="M41.47,26.39c.57,1,.59,1,1.61.8.46-.11.91-.26,1.37-.34.31-.06.35-.11.15-.36-.46-.55-.89-1.13-1.34-1.69a1,1,0,0,0-.46-.6c-.29-.39-.6-.78-.88-1.19-.09-.14-.15-.22-.31-.14a.94.94,0,0,0-.55.11h0a12.34,12.34,0,0,0-1.92.42l1.75,2.23A2.27,2.27,0,0,0,41.47,26.39Zm0-3.13a.08.08,0,0,0,0,0l0,0a.11.11,0,0,1-.09.1Zm-.94.58h0Z" style="fill:#b3b3b3;stroke:#fff;stroke-miterlimit:10;stroke-width:0.25px"/><path d="M44.33,22.41a40.46,40.46,0,0,0,2.61,3.48c.06.21.15.36.42.29l2.37-.57c-.12-.23-.17-.46-.44-.49-.74-1-1.49-2.05-2.2-3.09-.27-.38-.54-.49-.94-.25a3.9,3.9,0,0,0-1.07.26,1,1,0,0,0-.6.13c-.11,0-.26-.06-.32.06S44.24,22.39,44.33,22.41Zm3,3.1h0l0,0Z" style="fill:#b3b3b3;stroke:#fff;stroke-miterlimit:10;stroke-width:0.25px"/><path d="M9.49,30.81c0,.29.27.42.45.59l.38.51h0a18.86,18.86,0,0,0,1.55,2h0c.24.72.71.34,1.13.23a6.23,6.23,0,0,0,1.29-.31c.18,0,.43-.16.22-.4-.75-.83-1.24-1.85-2-2.65-.68-1.06-.68-1.06-1.86-.76a1.15,1.15,0,0,0-.17.06l-.68.17-.16,0c-.14,0-.35-.07-.39.11S9.36,30.7,9.49,30.81Zm3,3.3h0Zm-.32-1h0l-.07,0S12.18,33.13,12.22,33.12Z" style="fill:#b3b3b3;stroke:#fff;stroke-miterlimit:10;stroke-width:0.25px"/><path d="M34.76,25.3l2.28,3c.05.14.14.25.3.21l1.27-.35a.82.82,0,0,0,.61-.13c.16,0,.39,0,.42-.12s-.13-.36-.29-.49a9.55,9.55,0,0,0-1.44-2c-.14-.36-.47-.59-.64-.91A.84.84,0,0,0,36,24.11l-.28.1-.75.1c-.9.15-.9.15-.34.87Z" style="fill:#b3b3b3;stroke:#fff;stroke-miterlimit:10;stroke-width:0.25px"/><path d="M48.91,63.48a7.74,7.74,0,0,0,3.49-.57,6.22,6.22,0,0,0,2.65-1.45.48.48,0,0,0,.32-.27,5.85,5.85,0,0,0,1.43-1.42,8.16,8.16,0,0,0,1.69-3.23.52.52,0,0,0,.12-.36,10.38,10.38,0,0,0,.16-4.47c-.05-.29-.17-.35-.42-.34l-5.72,0a4.87,4.87,0,0,1-.54,0c-.22,0-.23.1-.15.25A4.84,4.84,0,0,1,52,55.54a3,3,0,0,1-1.66,1.25l-.36.12H17c-1,0-1,0-1-1V51.15c.13-.3-.17-.7.21-.94h0c.15.14.34.07.51.07H40c.16,0,.36.11.48-.09a3.67,3.67,0,0,0,.37-.95l.84-1.56.14-.2a2.08,2.08,0,0,0,.47-.63h0a14.63,14.63,0,0,1,2.74-2.53l1-.56a1.1,1.1,0,0,0-.24-.06H10.06c-.53,0-.7.11-.69.67q0,15.84,0,31.68c0,.1,0,.2,0,.3,0,.3.07.43.39.42h5.87c.26,0,.38-.08.31-.36q0-6,0-12.09c0-.28,0-.55,0-.83l.2,0,.48,0H48.5Zm9.71-11.73v0l0,0Zm-.42.18h0Zm-5.45-.18h0ZM9.64,76.42h0Zm5.58,0h0S15.24,76.38,15.22,76.42Zm.51-25.83v0h0C15.67,50.63,15.7,50.6,15.73,50.59Zm0,5.35v0Z" style="fill:#b3b3b3;stroke:#fff;stroke-miterlimit:10;stroke-width:0.25px"/><path d="M90.16,43.7l-39.82,0c-.21,0-.44-.07-.63.1s-.56,0-.81.12a8.31,8.31,0,0,0-4.42,2.3,1.6,1.6,0,0,0-.5.47c-.21.16-.44.3-.5.59l-.12.12-.2.25a9.92,9.92,0,0,0-1.83,7.82c0,.22.07.35.35.35h6.8L48,55.2l-.17-.35A4.09,4.09,0,0,1,48,52.07l.61-.79.52-.47,1.27-.51H81.62a3.6,3.6,0,0,1,1.79.88A6.27,6.27,0,0,1,84,52.35h0a5.56,5.56,0,0,1,.09.82c0,.31.1.41.41.4l5.6,0h.12c.45.13.48-.13.48-.48,0-3,0-5.91,0-8.86C90.73,43.72,90.52,43.7,90.16,43.7ZM47.36,54h0Z" style="fill:#b3b3b3;stroke:#fff;stroke-miterlimit:10;stroke-width:0.25px"/><path d="M90.62,66.07h0a7.92,7.92,0,0,0-.74-3.18,7.31,7.31,0,0,0-1.58-2.53,6,6,0,0,0-2-1.69l-.24-.23A8.16,8.16,0,0,0,81.5,57a1.64,1.64,0,0,0-.93-.1q-10.27,0-20.57,0c-.14,0-.32-.1-.43.1a.13.13,0,0,1,.12,0h-.12a1.63,1.63,0,0,0-.27.7l-.47,1.09a20.75,20.75,0,0,1-2,2.65,1.23,1.23,0,0,0-.49.47.26.26,0,0,0-.24.2h0l-.49.39-1.43.84c.28.38.65.12,1,.15l.47,0,.42,0h24.2l.42,0,.57,0a3.48,3.48,0,0,1,2.91,3,4.5,4.5,0,0,1-.36,1.92h0a.16.16,0,0,0,0,.07l-.18.28-.64.68a3.63,3.63,0,0,1-2.14.77l-.42,0H30.25l-1.2-.37-.39-.2a3.16,3.16,0,0,1-1-1.75c0-.16.07-.39-.19-.44l.08-.23c.08-.47-.27-.35-.5-.35H21.63c-.18,0-.4-.09-.56.09h0a.52.52,0,0,0-.06.16c0,3,0,6.06,0,9.08-.12.49.09.6.56.6H80.3a2.85,2.85,0,0,0,1.23-.09,5.92,5.92,0,0,0,2.13-.35,6.14,6.14,0,0,0,1.67-.64,7,7,0,0,0,1.94-1.37,8.6,8.6,0,0,0,1.77-2c.16-.06.19-.2.23-.34a7.93,7.93,0,0,0,1.34-4.24,3.09,3.09,0,0,0,0-1.68ZM26.05,67.39h0Zm.15,0h.32C26.4,67.39,26.3,67.38,26.2,67.38Z" style="fill:#b3b3b3;stroke:#fff;stroke-miterlimit:10;stroke-width:0.25px"/><path d="M32.69,82.53c-.42-.08-.56.16-.55.55,0,.81,0,1.63,0,2.45,0,.28-.14.74.2.79s1,.27,1.49-.14a12.08,12.08,0,0,0,0-3.45C33.52,82.29,33.07,82.61,32.69,82.53Z" style="fill:#b3b3b3;stroke:#fff;stroke-miterlimit:10;stroke-width:0.25px"/><path d="M29.24,82.52c-.26,0-.37.11-.35.36l0,0h0l0,0a23.36,23.36,0,0,0,0,3.13c0,.17.06.38.31.36.44-.05.89.13,1.32-.1a8.26,8.26,0,0,0,.11-2.53C30.61,82.3,30.84,82.55,29.24,82.52Zm0,2.76v-.22a1.8,1.8,0,0,0,0,.22Z" style="fill:#b3b3b3;stroke:#fff;stroke-miterlimit:10;stroke-width:0.25px"/><path d="M78.28,82.63c-.09-.14-.25-.1-.38-.1H74.19c-.27-.05-.23.16-.23.3,0,1.08,0,2.16,0,3.23,0,.3.15.31.37.31H77.9c.44,0,.63-.21.63-.62,0-.92.06-1.83,0-2.75C78.55,82.82,78.43,82.72,78.28,82.63Zm-.5,3h0a.14.14,0,0,0,0-.06Z" style="fill:#b3b3b3;stroke:#fff;stroke-miterlimit:10;stroke-width:0.25px"/><path d="M14.14,82.52c-.77,0-1.55,0-2.32,0H10c-1.14,0-1.14,0-1,1.17,0,.22.08.3.32.3,1.61,0,3.22,0,4.83,0,.54,0,.62-.35.6-.81S14.62,82.51,14.14,82.52Z" style="fill:#b3b3b3;stroke:#fff;stroke-miterlimit:10;stroke-width:0.25px"/><path d="M87.16,86.7l3-2.19-3-2.26Z" style="fill:#b3b3b3;stroke:#fff;stroke-miterlimit:10;stroke-width:0.25px"/></svg>