<svg id="782bf878-2b48-4608-bb43-3c48bce3e0c9" data-name="Layer 1" xmlns="http://www.w3.org/2000/svg" viewBox="0 0 100 100"><title>clientes</title><g id="b73c8b0a-e7be-4454-baa9-48977a5910e3" data-name="58fc7967-49ee-4644-b3f6-2da372e2f50f"><g id="74a46dec-67bc-439f-84dc-1a0f6a69a4fe" data-name="93697dfc-5cf7-4d60-8655-4645f9815f05"><path d="M89.83,41.61a1.27,1.27,0,0,0-.22-.25.58.58,0,0,1-.18-.69.36.36,0,0,0-.11-.35l-4.53-5q-3-3.35-6-6.7t-6.23-6.9l-5.38-6c-.21-.23-.38-.53-.72-.61a.23.23,0,0,1-.11-.11.44.44,0,0,0-.47-.24H61.5c-.08,0-.22,0-.22.09,0,.22-.19.21-.32.28a.88.88,0,0,0-.29.18l-2.28,2.48c-.2.22-.22.22-.43,0L52.16,12a4.16,4.16,0,0,0-2.94-1.29,4,4,0,0,0-3,1.26L35.37,22.9,24.29,34l-6,6q-3.54,3.56-7.09,7.09a4.06,4.06,0,0,0-.11,5.74l.09.09,8.87,8.87,6.76,6.75,5.38,5.39,7.88,7.88L46.3,88a4.26,4.26,0,0,0,2.9,1.22,4.34,4.34,0,0,0,3-1.3q5-5,10.07-10.08l6.45-6.48L87.08,53a4.2,4.2,0,0,0,1-1.48,3.69,3.69,0,0,0,.33-1.79,4.5,4.5,0,0,0-.49-1.61.76.76,0,0,1-.07-.59c.22-.92.42-1.84.64-2.74a2.86,2.86,0,0,1,.34-.85c.32-.51.7-1,1-1.47A.62.62,0,0,0,89.83,41.61Zm-57.3,24.5-.1-.06ZM67.26,64.7c.09.11,0,.16-.07.21a1.52,1.52,0,0,0-.43.25c-.52.52-1,1.06-1.54,1.58-.34.36-.7.7-1.08,1s-.51.38-.78.55l-.22.15c-.18.16-.38.31-.57.47l-.24.3c-.26-.12-.43.16-.66.3-.39.23-.79.45-1.18.69a2.81,2.81,0,0,0-.35.34c-.09,0-.23-.1-.23.2-.26-.16-.4,0-.58.11s-.61.25-.91.37-.61.26-.92.38-.8.29-1.2.42-1,.31-1.49.44c-.31.08-.62.11-.93.17l-.39.08c-.36.06-.71.14-1.07.18-.65.06-1.31,0-2,.15a8,8,0,0,1-1.83.06c-.84,0-1.66-.12-2.49-.19a4.27,4.27,0,0,0-.78-.1,2.78,2.78,0,0,1-.88-.22c-.07,0-.14-.05-.18,0-.47.16-.8-.23-1.21-.28l-.41,0-.18,0-.71-.32s-.14,0-.21.1l-.34-.08.08-.17c-.37-.14-.74-.28-1.08-.44-.52-.24-1-.49-1.54-.75-.15-.07-.28-.13-.42.1-.07-.35-.33-.43-.55-.55s-.19-.1-.29,0a.19.19,0,0,1-.18,0,.37.37,0,0,1-.09-.19c0-.06,0-.17,0-.2-.59-.4-1.19-.78-1.8-1.18l-.08,0,0,.14,0,0-.15-.21a3.76,3.76,0,0,0-.25-.31c-.23-.21-.48-.41-.72-.63s-.57-.55-.86-.81a.29.29,0,0,0-.2,0,.38.38,0,0,1-.41-.32v0a.7.7,0,0,0-.14-.21h0a2.21,2.21,0,0,0-.18-.34c-.31-.34-.63-.67-.93-1a2.85,2.85,0,0,0-.25-.33c-.1-.09-.23-.12-.29-.21a4.71,4.71,0,0,0-.22-.45c-.08-.12-.06-.19.07-.24l.13,0c.68,0,1.37-.1,2.06-.13,1.12-.06,2.25-.1,3.38-.14l1.45,0,2-.07,1.71,0c.53,0,1.05,0,1.58,0h3l3.7,0h1.51c.33,0,.66,0,1,0h4c.52,0,1,0,1.56,0,.19,0,.39,0,.59,0,.42,0,.85.06,1.27.07h1.25l2.73,0c.32,0,.64,0,1,0l3.25.19a1.25,1.25,0,0,1,.41.14l-1.09,1.13a1.22,1.22,0,0,0,.12.16ZM74,61.13c-1.29-.08-2.57-.14-3.85-.24A37.81,37.81,0,0,0,64.7,61l-1.83.1c-.34,0-.53-.18-.55-.54a.59.59,0,0,1,.5-.7l1.7-.24a2.52,2.52,0,0,0,.62-.21,1.69,1.69,0,0,0,1-1.21,15,15,0,0,0,.33-3.77c0-1.17-.08-2.35-.12-3.52a.28.28,0,0,0-.25-.32c-.94-.15-1.88-.35-2.83-.44A58.43,58.43,0,0,0,54,50.12h0c-.43,0-.37,0-.37.4v6.7c0,.2,0,.4,0,.6a1.84,1.84,0,0,0,1,1.6,4.75,4.75,0,0,0,2.06.45l.37,0a.52.52,0,0,1,.5.6.57.57,0,0,1-.53.63c-.75,0-1.5,0-2.24-.1a40.83,40.83,0,0,0-5.07-.12c-1,.08-2,.14-3,.2A31.69,31.69,0,0,1,41.87,61a37.1,37.1,0,0,0-5.48.06c-1,.07-2.06.1-3.08.14a.62.62,0,0,1-.66-.37A.67.67,0,0,1,33,60a.59.59,0,0,1,.23-.05c.59-.08,1.19-.1,1.77-.23a3,3,0,0,0,2.38-2.46,6.13,6.13,0,0,0,.14-1.35c0-2,0-3.89,0-5.84a.27.27,0,0,0-.18-.26,3.57,3.57,0,0,0-4.56.9A10.5,10.5,0,0,0,30.92,54a21.92,21.92,0,0,0-.86,3.3,7.9,7.9,0,0,1-.81,2.32,3.85,3.85,0,0,1-2.7,2,5,5,0,0,1-3-.21A4,4,0,0,1,21,58.55a.75.75,0,0,1,.84-1c.26,0,.38.19.5.4a9.78,9.78,0,0,0,.75,1.18,1.06,1.06,0,0,0,1.57.1A2.16,2.16,0,0,0,25.51,58c.21-.82.39-1.65.62-2.45a12.12,12.12,0,0,1,1.93-4.13,6.17,6.17,0,0,1,3.22-2.34.13.13,0,0,0,.1,0c.08-.09.21-.18.22-.29s-.14-.2-.24-.23c-.35-.1-.71-.16-1.05-.26a7.19,7.19,0,0,1-3.76-2.41,5.59,5.59,0,0,1-1.16-3.31,7.77,7.77,0,0,1,.14-2.1,5.38,5.38,0,0,1,2-3.17,7.53,7.53,0,0,1,2.38-1.12c.46-.13.93-.22,1.4-.34v-.06l-.46,0s0,0,0,0a1.32,1.32,0,0,0,.81-.64c.21-.28.45-.53.63-.74a1,1,0,0,1,0-.35c0-.11.14-.1.26,0s.16-.06.23-.09,0-.18-.07-.25.13,0,.18,0a.58.58,0,0,0,.2-.18.32.32,0,0,0,0-.19h.27l.82-.63c.1-.09.19-.2.29-.3l.22-.18c.05,0,.13-.05.14-.09.11-.42.57-.37.81-.62a3.65,3.65,0,0,1,.74-.55c.25-.17.52-.32.78-.48l.85-.55.22-.1.64-.32.22-.1.42-.17-.13-.21c.28-.07.63.15.79-.23.15.11.26.11.37-.09l.65-.23a.05.05,0,0,0,0-.05c0-.31.13-.2.28-.09s.41,0,.47-.24c.17.15.3,0,.42-.06a.5.5,0,0,1,.31-.1,5.52,5.52,0,0,0,1-.21s.07-.1.08-.11a1.22,1.22,0,0,0,.32,0,7.9,7.9,0,0,0,1-.21,4.3,4.3,0,0,0,.6-.32c.12-.07.2-.06.16.15L47,27l.45-.06L49,26.86a1.32,1.32,0,0,1,.28,0,.39.39,0,0,0,.42-.12s.11,0,.17,0,0,.12,0,.15c-.34.39-.66.78-1,1.16l-2,2.15-2,2.14c-.9,1-1.81,2-2.72,2.93l-.2.25h.32c1.17,0,2.35-.09,3.52-.09.7,0,1.4.1,2.1.15a77.21,77.21,0,0,0,8.87-.07c.24,0,.5-.07.64.21a.74.74,0,0,1-.07.83.65.65,0,0,1-.41.21c-.39.07-.79.07-1.18.15a2.84,2.84,0,0,0-1.74,1,2.42,2.42,0,0,0-.43,1.37c0,.52,0,1,0,1.56,0,2,0,3.92,0,5.86,0,.2-.05.27-.25.3a22.65,22.65,0,0,0-3.63.81c-.18.06-.23,0-.23-.17q0-3.28-.08-6.55a6.8,6.8,0,0,0-.35-2.45,2.6,2.6,0,0,0-2.26-1.8c-.26,0-.52,0-.77-.06l-.45-.09-.17,0a3.63,3.63,0,0,0-2.15.74,2.61,2.61,0,0,0-1,1.67A26.36,26.36,0,0,0,42,43.48c0,.6,0,1.2,0,1.8,0,.19-.06.23-.23.22a19.15,19.15,0,0,0-3.86,0c-.21,0-.18-.12-.18-.24,0-1.44,0-2.88,0-4.32v-.69l-.09,0-5.5,6a.8.8,0,0,0,.25.11,8.68,8.68,0,0,0,1.58.26c1.1,0,2.19-.06,3.28-.11a16.07,16.07,0,0,1,5,.41,8.75,8.75,0,0,1,3.94,2.35l.09.13a.33.33,0,0,1-.14,0,13,13,0,0,0-4-.39c-.18,0-.23.07-.23.25q.06,4.22.13,8.43a1.77,1.77,0,0,0,.92,1.56,5.06,5.06,0,0,0,2.22.55,7.4,7.4,0,0,0,2.05-.05,3.45,3.45,0,0,0,1.34-.56,1.79,1.79,0,0,0,.76-1.49c.07-2,.12-4,.19-5.94,0-.37,0-.74,0-1.1,0-.18,0-.24-.22-.21l-3.9.42a.28.28,0,0,1-.15,0,1.33,1.33,0,0,1,.19-.14,19.59,19.59,0,0,1,6.2-2.31,45.74,45.74,0,0,1,8.58-.88c2,0,3.93,0,5.9.05.29,0,.29,0,.29-.29,0-2.17-.07-4.33-.11-6.5A11.61,11.61,0,0,0,66.15,39a2.58,2.58,0,0,0-2.34-2.15,6.4,6.4,0,0,0-.87-.08.59.59,0,0,1-.64-.55.65.65,0,0,1,0-.2c.09-.41.22-.53.64-.51l4.31.18a42,42,0,0,0,4.34-.1l2.24-.08c.44,0,.67.24.63.69a.57.57,0,0,1-.57.57c-.53.08-1.06.18-1.59.28a2,2,0,0,0-1.62,1.53,6.1,6.1,0,0,0-.24,1.65c0,5.87.09,11.75.15,17.62A1.56,1.56,0,0,0,71.16,59a3.42,3.42,0,0,0,1.85.79c.33,0,.66.07,1,.08a.56.56,0,0,1,.59.65.55.55,0,0,1-.49.61ZM26.16,51.46c0-.8,0-1.6,0-2.39,0-.59.09-1.17.14-1.76a.58.58,0,0,1,.07-.21c.06-.12.16-.15.26,0a8.78,8.78,0,0,0,2.81,1.88s0,0,.08.07l-3.57,3.87c0-.14,0-.23.06-.29C26.25,52.25,26.15,51.84,26.16,51.46Z" style="fill:#b3b3b3;stroke:#fff;stroke-miterlimit:10;stroke-width:0.0004480156729281334px"/><path d="M32.63,39a4.6,4.6,0,0,1,2.49-.77,8.6,8.6,0,0,1,1.68.08,4.63,4.63,0,0,1,.8.25,2.53,2.53,0,0,0,0-.38,1,1,0,0,0-.81-.92,7.37,7.37,0,0,0-3.17-.06,4.08,4.08,0,0,0-3.22,2.69A6.89,6.89,0,0,0,30,43a4.43,4.43,0,0,0,.44,1.74,3,3,0,0,0,1,1.12.28.28,0,0,0,0-.09A4.81,4.81,0,0,1,30.83,43a5.69,5.69,0,0,1,.49-2.39A4.13,4.13,0,0,1,32.63,39Z" style="fill:#b3b3b3;stroke:#fff;stroke-miterlimit:10;stroke-width:0.0004480156729281334px"/></g></g></svg>