<svg id="5be140a1-8fba-4b79-86ed-241a7f9700b2" data-name="Layer 1" xmlns="http://www.w3.org/2000/svg" viewBox="0 0 612 792"><defs><style>.db4e9c4e-1cff-4611-afa3-1dc69c5f76f5,.e8f51615-5cef-4418-97cf-626f43c1c1c7{fill:none;stroke:#2c3e50;stroke-miterlimit:10;}.e8f51615-5cef-4418-97cf-626f43c1c1c7{stroke-width:10px;}.be4fed56-5fe0-496c-a801-1db03350f676,.dcda9102-a347-4611-ab40-b2b5f5580213{fill:#2c3e50;}.be4fed56-5fe0-496c-a801-1db03350f676{fill-rule:evenodd;}.db4e9c4e-1cff-4611-afa3-1dc69c5f76f5{stroke-width:2px;}</style></defs><title>Artboard 1</title><rect id="ada745a5-8ab8-4695-90e8-aa4675c035a7" data-name="&lt;Rectangle&gt;" class="e8f51615-5cef-4418-97cf-626f43c1c1c7" x="84.38" y="159.49" width="443.24" height="297.3" rx="12" ry="12"/><path id="4e745893-861f-4641-9fd1-08e2fcd3f0bb" data-name="&lt;Path&gt;" class="be4fed56-5fe0-496c-a801-1db03350f676" d="M322.85,215.85v33.25a3.61,3.61,0,0,1-1.81,3.12c-60.56,35-114.12,79-162.57,138.26a3.61,3.61,0,0,1-2.79,1.33H99.26a3.62,3.62,0,0,0-1.53.34h0a3.62,3.62,0,0,1-5.14-3.28V173.46a3.62,3.62,0,0,1,5.26-3.23l55,28a3.62,3.62,0,0,1,2,3.23V311.09a3.62,3.62,0,0,0,6.15,2.57c47.34-46.37,99.53-78.44,156.9-101.18A3.62,3.62,0,0,1,322.85,215.85Z"/><path id="dc3436d6-4c34-4bbb-a0ca-33700aea74e1" data-name="&lt;Path&gt;" class="be4fed56-5fe0-496c-a801-1db03350f676" d="M306.12,177.69,271.3,195.37a13.73,13.73,0,0,0-7.51,12.24V356.85a13.73,13.73,0,0,0,7.94,12.45l34.82,16.19A13.73,13.73,0,0,0,326.06,373V189.92A13.73,13.73,0,0,0,306.12,177.69Z"/><path id="7084f77c-f896-49aa-9cb9-2860e7b82de4" data-name="&lt;Path&gt;" class="db4e9c4e-1cff-4611-afa3-1dc69c5f76f5" d="M404.39,390.76c12.39-2.36,68-5.64,81.52-15.8,39.68-29.76-92.19-43.6-97.26-83.37-4.33-34.07,62.14-89,98.6-111.79-69.79,24.61-137.5,53.14-192.33,90.86V224.83c57.85-27.92,120.79-53.35,191.52-53.94,8.13-.07,13.64-.11,16.92,0,3.67-1.58,4.54-1.31,3.37.43.82.32.33.83-1.27,1.61,0,0,0,0,0,0-11.67,13.3-76.78,66.3-71.86,96.7,1.15,7.17,7.19,13.53,19.92,18.94,32.07,13.63,46.35,23.18,54.25,31.92,5.3,5.87,8.71,11.49,10.51,16.8C532.07,378,449.94,408.72,404.39,390.76Z"/><path id="8aca4006-70c6-4a28-8a4b-a7adb09538d5" data-name="&lt;Compound Path&gt;" class="dcda9102-a347-4611-ab40-b2b5f5580213" d="M155.85,444.82q0,4.68-11.81,4.68h-36.4q-11.56,0-11.56-4.68V432.21h19.1v10.71h21.48V398.24h19.18Z"/><path id="2d7379a4-fc47-45a3-9659-4297ed324982" data-name="&lt;Compound Path&gt;" class="dcda9102-a347-4611-ab40-b2b5f5580213" d="M235.29,444.82q0,4.68-11.81,4.68H182.74q-11.64,0-11.64-4.68V398.24h19.18v44.68h25.82V398.24h19.18ZM228,387.37,204.14,396H190.37v-.26l14.1-8.68H228Z"/><path id="69948da1-7038-4a88-bbfe-906a8d099170" data-name="&lt;Compound Path&gt;" class="dcda9102-a347-4611-ab40-b2b5f5580213" d="M315.72,449.51H298.91l-30.74-32.27a8.83,8.83,0,0,1,1.23,3.7v28.56H250.71V398.24h16.81l30.74,31.61a8.83,8.83,0,0,1-1.23-3.7V398.24h18.69Z"/><path id="37ec106b-af5f-464e-a551-61da3bfa2aa6" data-name="&lt;Compound Path&gt;" class="db4e9c4e-1cff-4611-afa3-1dc69c5f76f5" d="M350.64,449.51H331.46V398.24h19.18Z"/><path id="4b9e442f-88a2-4701-a4ba-5ddc3719596e" data-name="&lt;Compound Path&gt;" class="db4e9c4e-1cff-4611-afa3-1dc69c5f76f5" d="M431.07,444.82q0,4.68-11.64,4.68H377.78q-11.4,0-11.4-4.68V403q0-4.72,11.4-4.72h41.65q11.64,0,11.64,4.72Zm-19.18-1.9v-38.1H385.57v38.1Z"/><path id="46997c51-4331-40e5-9871-44220bc31fa2" data-name="&lt;Compound Path&gt;" class="db4e9c4e-1cff-4611-afa3-1dc69c5f76f5" d="M512.15,449.51h-20L471,425.69v-4.62h18.86V404.83H465.67v44.68H446.48V398.24H497.4Q509,398.24,509,403V421.6q0,3.24-5.49,4.19a96.67,96.67,0,0,1-12.46.49Z"/></svg>