<svg xmlns="http://www.w3.org/2000/svg" viewBox="0 0 1200 1200"><defs><style>.\34 935e752-0a5e-4a72-8c0b-47c077da040c{fill:#fff;}.\33 f1a348e-660a-486e-ad28-11de1cf28dfb,.a3b92fd1-bccf-41df-aaac-5ee93865af98{fill:#ce2027;}.a3b92fd1-bccf-41df-aaac-5ee93865af98{font-size:100px;font-family:PTSans-BoldItalic, PT Sans;font-weight:700;font-style:italic;}.\39 bb41cf4-e6ee-4ff4-bcb6-e4ced507d251{letter-spacing:-0.1em;}.aa81d505-17d9-4a7f-9ee7-4ea2f13c1d18{letter-spacing:-0.03em;}</style></defs><title>Artboard 2</title><g id="3eb7188d-450b-465e-b31d-8ccf1b681428" data-name="Layer 2"><rect class="4935e752-0a5e-4a72-8c0b-47c077da040c" width="1200" height="1200"/><g id="7da3d59f-2d8b-4874-9d81-278b2b8cabf8" data-name="logotipo"><path class="3f1a348e-660a-486e-ad28-11de1cf28dfb" d="M1144.74,368.53c0,.18,0,.36,0,.54a34.22,34.22,0,0,1-4.6,17.16l-150.7,261a34.49,34.49,0,0,1-64.36-17.35,34.13,34.13,0,0,1,4.6-17.15l121.45-210.37a.17.17,0,0,0-.15-.25h-26.19a.17.17,0,0,0-.15.08l-142,246a34.49,34.49,0,0,1-64.36-17.35,34.18,34.18,0,0,1,4.6-17.15l122-211.32a.17.17,0,0,0-.15-.25H895.35a.17.17,0,0,0-.15.08L753.66,647.38A34.48,34.48,0,0,1,689.31,630a34.22,34.22,0,0,1,4.59-17.15L815.42,402.39a.17.17,0,0,0-.15-.25h-64a.17.17,0,0,0-.15.08L608.52,644.84a39.69,39.69,0,0,1-34.46,19.32h-.21a39.65,39.65,0,0,1-34.25-19.32L397,402.22a.17.17,0,0,0-.15-.08h-40.2a33.92,33.92,0,0,1-5.9.51H255a.23.23,0,0,0-.23.23V628.42c0,18.22-13.84,33.85-32,35.14a34.58,34.58,0,0,1-37-34.41V402.88a.23.23,0,0,0-.23-.23H90.27c-18.56,0-34.22-14.46-35-33q0-.56,0-1.11c0-.21,0-.42,0-.63v-.26a34.6,34.6,0,0,1,34.5-34.5H424.53a39.65,39.65,0,0,1,34.25,19.34L488,402.14l69.57,118.34a19.25,19.25,0,0,0,33,0l69.57-118.34,29.19-49.66a39.65,39.65,0,0,1,34.25-19.34h386.66a34.6,34.6,0,0,1,34.5,34.5c0,.29,0,.58,0,.87h0Z"/><text class="a3b92fd1-bccf-41df-aaac-5ee93865af98" transform="translate(80.11 839.56)"><tspan class="9bb41cf4-e6ee-4ff4-bcb6-e4ced507d251">T</tspan><tspan x="44.3" y="0">elevisão de Mo</tspan><tspan class="aa81d505-17d9-4a7f-9ee7-4ea2f13c1d18" x="648.79" y="0">ç</tspan><tspan x="687.29" y="0">ambique</tspan></text></g></g></svg>