<svg id="f62f5999-c19b-4cd9-949b-1d92612b3b6f" data-name="Camada 1" xmlns="http://www.w3.org/2000/svg" viewBox="0 0 1200 1200"><defs><style>.\33 2a728ea-d6c9-4fd1-9e9a-1948c8bab7cf{fill:#fff;}.f8ae7524-f4c2-4155-a8d6-49c383e64e41{fill:#cf000f;}</style></defs><title>Prancheta 1</title><rect id="79a1f661-d211-41a1-9b27-4f8e40ff9388" data-name="&lt;Rectangle&gt;" class="32a728ea-d6c9-4fd1-9e9a-1948c8bab7cf" width="1200" height="1200"/><g id="9751ead8-af60-4e04-976f-5b3938d8c3ce" data-name="&lt;Group&gt;"><g id="58666127-d8b4-4826-95fb-da45a3bbaa15" data-name="&lt;Group&gt;"><path id="08b192a0-c8e1-4df6-90cc-3d935f3862cd" data-name="&lt;Compound Path&gt;" class="f8ae7524-f4c2-4155-a8d6-49c383e64e41" d="M339.29,521.9v20.4a56,56,0,0,0-30.4-8.4q-11,0-17.3,4.9a15.56,15.56,0,0,0-6.3,12.9,15.37,15.37,0,0,0,6.2,12.8q6.2,4.8,19,10.4,8.4,3.6,13.1,6.2a89,89,0,0,1,10.8,7.3,29,29,0,0,1,9,11.2,36.27,36.27,0,0,1,2.9,14.9q0,17.8-12.6,28t-32.6,10.2q-22.2,0-36.8-8.6V622.7q15.8,11.8,36.6,11.8,11,0,17.4-5.1t6.4-14.1a15,15,0,0,0-3.8-9.9,27.59,27.59,0,0,0-8.2-6.8q-4.4-2.3-13.2-6.3-5.2-2.4-7.3-3.4t-6.9-3.6a53.3,53.3,0,0,1-7.1-4.4q-2.3-1.8-5.7-5a21.54,21.54,0,0,1-4.9-6.4,55.55,55.55,0,0,1-2.8-7.5,31.92,31.92,0,0,1-1.3-9.3q0-17.2,12.5-27.2t32.3-10Q326.48,515.5,339.29,521.9Z"/><path id="cbcfa850-2098-45e0-84ae-24ac6ae7a612" data-name="&lt;Compound Path&gt;" class="f8ae7524-f4c2-4155-a8d6-49c383e64e41" d="M389.49,509.9v57.4q8.6-18.8,31.4-18.8,14.8,0,23.8,9.2t9,25.6v68h-19.6v-64q0-10.4-5.3-16.1t-13.9-5.7q-10,0-17.7,7.6t-7.7,23.2v55h-19.6V509.9Z"/><path id="8d399d13-e6ec-46d8-976b-79551269066c" data-name="&lt;Compound Path&gt;" class="f8ae7524-f4c2-4155-a8d6-49c383e64e41" d="M522.49,653.1q-22.4,0-35.2-14.6t-12.8-37q0-22.8,13.2-37.9t34.8-15.1q23.2,0,35.8,14.7t12.6,37.5q0,22.8-12.9,37.6T522.49,653.1Zm-.2-88q-13,0-20.2,10.3t-7.2,25.5q0,15,7.4,25.3a23.55,23.55,0,0,0,20.2,10.3q13.6,0,20.7-10t7.1-25.4q0-15.8-6.8-25.9T522.29,565.1Z"/><path id="a9b5d3ec-a5de-4cc9-a16a-678da9dd831a" data-name="&lt;Compound Path&gt;" class="f8ae7524-f4c2-4155-a8d6-49c383e64e41" d="M612.48,549.9v15.6q10.4-17,31.2-17,20,0,31.6,14.5t11.6,36.9q0,23-11.9,37.9t-31.7,14.9q-20.2,0-30.8-16.8v54.2h-19.6V549.9Zm27.2,85.6a24,24,0,0,0,19.4-9.3q7.6-9.3,7.6-26.1,0-15.8-7.4-25.1t-18.8-9.3a26.92,26.92,0,0,0-19.7,8.3q-8.3,8.3-8.3,26.3,0,17.6,8.3,26.4T639.68,635.5Z"/></g><g id="eceaf808-915e-46d7-a86b-7a0f57626fd5" data-name="&lt;Group&gt;"><g id="3b393dc1-3854-4acf-bcad-a1ccd866350a" data-name="&lt;Group&gt;"><path id="dd0456e1-0d78-45e9-aa26-805bbd526265" data-name="&lt;Path&gt;" class="f8ae7524-f4c2-4155-a8d6-49c383e64e41" d="M867.47,738a22.81,22.81,0,1,0,6.68-16.13A22,22,0,0,0,867.47,738Z"/><path id="8d266edc-ee94-406b-ab2b-fad0f85ac128" data-name="&lt;Path&gt;" class="f8ae7524-f4c2-4155-a8d6-49c383e64e41" d="M932.51,536.09a11,11,0,0,0-8-3.39h-214q-.18-1.25-.8-4.54t-1-5.26a31.43,31.43,0,0,0-1.34-4.72,14.21,14.21,0,0,0-2.32-4.37,11.37,11.37,0,0,0-3.56-2.76,10.87,10.87,0,0,0-5.08-1.16H650.83a11.4,11.4,0,0,0,0,22.8h36.34l31.53,146.63q-.35.71-3.65,6.77t-5.25,10.6a19.57,19.57,0,0,0-2,7,11.56,11.56,0,0,0,11.4,11.4H901.68a11.4,11.4,0,0,0,0-22.81H737.77q4.28-8.55,4.28-11.4a19.25,19.25,0,0,0-.45-3.92q-.45-2.13-1.07-4.72t-.8-3.83l186-21.74a11.06,11.06,0,0,0,7.3-3.83,11.23,11.23,0,0,0,2.85-7.57V544.11A11,11,0,0,0,932.51,536.09Z"/><path id="aaedcef4-ed67-4d12-8767-abcc0b1bc0d9" data-name="&lt;Path&gt;" class="f8ae7524-f4c2-4155-a8d6-49c383e64e41" d="M707.84,738a22.81,22.81,0,1,0,6.68-16.13A22,22,0,0,0,707.84,738Z"/></g><g id="232ffb8b-f0e4-422e-92e1-1a3306522b0c" data-name="&lt;Group&gt;"><path id="465c4104-c9db-4377-86a1-c78e45a3d89a" data-name="&lt;Compound Path&gt;" class="32a728ea-d6c9-4fd1-9e9a-1948c8bab7cf" d="M753.28,571.49v10.31q4.63-10.88,16-10.89a17.54,17.54,0,0,1,3.24.23v9a15.69,15.69,0,0,0-5-.81q-6.14,0-10.19,5.67a21.93,21.93,0,0,0-4.05,13.09V630.2h-9.15l.12-58.71Z"/><path id="95db353a-8b66-46b9-bd2b-7a35c055b348" data-name="&lt;Compound Path&gt;" class="32a728ea-d6c9-4fd1-9e9a-1948c8bab7cf" d="M782.75,557.3a5.73,5.73,0,0,1-1.68-4.23,5.93,5.93,0,0,1,1.68-4.28,5.63,5.63,0,0,1,4.23-1.74,5.93,5.93,0,0,1,6,6,5.63,5.63,0,0,1-1.74,4.23A5.93,5.93,0,0,1,787,559,5.73,5.73,0,0,1,782.75,557.3Zm-.29,72.9V571.49h9.15V630.2Z"/><path id="0ee9b7c6-e8ee-4b80-871e-ec873a841c60" data-name="&lt;Compound Path&gt;" class="32a728ea-d6c9-4fd1-9e9a-1948c8bab7cf" d="M821.6,578.9v34.39q0,9.38,8.8,9.38a12.77,12.77,0,0,0,8-2.66v8.69a17.6,17.6,0,0,1-8.57,2.08q-17.37,0-17.37-17.72V578.9h-9.38v-7.41h9.38V556.89h9.15v14.59h16.21v7.41Z"/><path id="9db169fb-91b3-4d08-b9c6-aec444e65d73" data-name="&lt;Compound Path&gt;" class="32a728ea-d6c9-4fd1-9e9a-1948c8bab7cf" d="M894.56,618.62v8.57q-6.83,3.59-16.68,3.59-13.32,0-21.48-8.16T848.24,601q0-14,7.3-22.12a24.1,24.1,0,0,1,18.76-8.11q11,0,17.49,7.06t6.49,20a37.61,37.61,0,0,1-.58,6.83H857.62q1,8.69,6.6,13.32t14.59,4.63Q888.65,622.67,894.56,618.62Zm-5.44-21.54v-2.32q0-7.3-3.94-11.64t-10.89-4.34a15.11,15.11,0,0,0-11.23,4.75q-4.63,4.75-5.44,13.55Z"/></g></g></g></svg>