<svg xmlns="http://www.w3.org/2000/svg" viewBox="0 0 1920 1080"><defs><style>.e4939d3b-205c-4a26-8457-3c16665bccc4{isolation:isolate;}.\38 c34bbee-e7d7-4503-b7bb-196cbf095e52{fill:#fff;}.\30 bf7e708-f08f-427b-b7cd-d1552fcd2e53,.b4f1a5ae-e725-496e-836a-1cfbc09dcba4{fill:#f39c12;}.\34 1d1f290-5677-470a-aece-213a8ce86da5,.\39 40d20c6-efda-4a31-9339-9d034ac726ae,.aab1bff6-aced-493c-aa81-023c9f1daf14,.b4f1a5ae-e725-496e-836a-1cfbc09dcba4,.bab8c7f2-2912-4f57-934c-04d247f41edc{opacity:0.2;mix-blend-mode:multiply;}.\30 5665b21-ee46-4cf1-93ee-d83f6dc93392,.\39 40d20c6-efda-4a31-9339-9d034ac726ae{fill:#006064;}.\34 1d1f290-5677-470a-aece-213a8ce86da5,.\39 310b8c2-1e22-4f22-96cb-e797bd62ace3{fill:#e63b16;}.\33 873ff7d-b3a0-44a1-ae91-da23bd9f71b0,.bab8c7f2-2912-4f57-934c-04d247f41edc{fill:#34495e;}.\31 8c450bc-352e-494a-b4f3-24cc6f0e0c4a,.aab1bff6-aced-493c-aa81-023c9f1daf14{fill:#16a085;}</style></defs><title>Artboard 1</title><g class="e4939d3b-205c-4a26-8457-3c16665bccc4"><g id="91fe5339-f209-4e36-b0c6-05b08d5417da" data-name="Layer 1"><rect class="8c34bbee-e7d7-4503-b7bb-196cbf095e52" x="23" y="21.25" width="938" height="519"/><path class="0bf7e708-f08f-427b-b7cd-d1552fcd2e53" d="M691.31,362.68A81.74,81.74,0,0,1,664,358a123,123,0,0,1-172,19.16A123,123,0,0,1,320,358,82,82,0,0,1,210.7,280.71v0A82,82,0,0,0,320,358.07a123,123,0,0,0,172,19.16,123,123,0,0,0,172-19.16,82,82,0,0,0,109.34-77.32v0A82,82,0,0,1,691.31,362.68Z"/><path class="0bf7e708-f08f-427b-b7cd-d1552fcd2e53" d="M691.31,198.75A81.74,81.74,0,0,0,664,203.43a123,123,0,0,0-172-19.16,123,123,0,0,0-172,19.16,82,82,0,0,0-109.32,76.32H773.28A82,82,0,0,0,691.31,198.75Z"/><path class="b4f1a5ae-e725-496e-836a-1cfbc09dcba4" d="M773.31,280.68c0-.31,0-.62,0-.93h0c0,.32,0,.64,0,1Z"/><path class="b4f1a5ae-e725-496e-836a-1cfbc09dcba4" d="M210.72,279.75c0,.31,0,.62,0,.93v0c0-.32,0-.64,0-1Z"/><path class="0bf7e708-f08f-427b-b7cd-d1552fcd2e53" d="M292.69,362.68A81.74,81.74,0,0,0,320,358a123,123,0,0,0,172,19.16A123,123,0,0,0,664,358,82,82,0,0,0,773.3,280.71c0-.32,0-.64,0-1H210.72c0,.32,0,.64,0,1A82,82,0,0,0,292.69,362.68Z"/><path class="b4f1a5ae-e725-496e-836a-1cfbc09dcba4" d="M292.69,362.68A81.74,81.74,0,0,0,320,358a123,123,0,0,0,172,19.16A123,123,0,0,0,664,358,82,82,0,0,0,773.3,280.71c0-.32,0-.64,0-1H210.72c0,.32,0,.64,0,1A82,82,0,0,0,292.69,362.68Z"/><path class="8c34bbee-e7d7-4503-b7bb-196cbf095e52" d="M303.5,356.25v-151h9v106h368v9h-351v36h-9v-36h-8v36Zm26-151v89h351v9h-360v-98Z"/><path class="8c34bbee-e7d7-4503-b7bb-196cbf095e52" d="M401.7,237.11a24.33,24.33,0,0,0-8.23-6.49,23.77,23.77,0,0,0-10.64-2.42,24.08,24.08,0,0,0-9.4,1.85,24.39,24.39,0,0,0-7.7,5.06,23.83,23.83,0,0,0-5.17,7.47,22.86,22.86,0,0,0,0,18.19,23.36,23.36,0,0,0,5.17,7.43,24.7,24.7,0,0,0,7.7,5,24.06,24.06,0,0,0,9.4,1.85,23.75,23.75,0,0,0,10.64-2.42,24.32,24.32,0,0,0,8.23-6.49l3.47,2.72h.08a28.78,28.78,0,0,1-9.74,7.92,28.77,28.77,0,0,1-23.77.72,28.9,28.9,0,0,1-15.25-15,27,27,0,0,1,0-21.66,28.68,28.68,0,0,1,26.34-17.09,28.44,28.44,0,0,1,22.42,10.64l-.08.08Zm-18.87-.45A15.77,15.77,0,0,0,371.89,241a14.89,14.89,0,0,0-3.32,4.79,14.42,14.42,0,0,0-1.21,5.85,14.15,14.15,0,0,0,1.21,5.81,15,15,0,0,0,3.32,4.75,15.76,15.76,0,0,0,10.94,4.38,15.2,15.2,0,0,0,6.83-1.55,15.71,15.71,0,0,0,5.25-4.11l3.55,2.72a19.93,19.93,0,0,1-15.62,7.4,20.1,20.1,0,0,1-14.11-5.66,19.28,19.28,0,0,1-4.26-6.19,19.17,19.17,0,0,1,0-15.09,19.31,19.31,0,0,1,4.26-6.19,20.64,20.64,0,0,1,6.34-4.19,20.08,20.08,0,0,1,23.4,5.85l-3.55,2.79a16.21,16.21,0,0,0-5.28-4.19A15,15,0,0,0,382.83,236.66Z"/><path class="8c34bbee-e7d7-4503-b7bb-196cbf095e52" d="M410.91,224.28H448v4.45h-32.6v17.66h4V232.73H448v4.45H423.81v9.21h10.26v4.45H410.91V224.28Zm12.91,42.26H448V271H410.91V254.92h23.17v4.45H423.81Zm-12.91,8.6H448v4.45H410.91Zm8.45-15.77h-4v7.17h4Z"/><path class="8c34bbee-e7d7-4503-b7bb-196cbf095e52" d="M488.72,266.62v4.45H454.53V224.28H459v42.34h4.23V224.28h4.45v42.34Zm-34.19,8.53h34.19v4.45H454.53Z"/><path class="8c34bbee-e7d7-4503-b7bb-196cbf095e52" d="M495.21,224.28h37.06v4.45h-32.6v17.66h4V232.73h28.6v4.45H508.11v9.21h10.26v4.45H495.21V224.28Zm12.91,42.26h24.15V271H495.21V254.92h23.17v4.45H508.11Zm-12.91,8.6h37.06v4.45H495.21Zm8.45-15.77h-4v7.17h4Z"/><path class="8c34bbee-e7d7-4503-b7bb-196cbf095e52" d="M577.24,248.2a17.66,17.66,0,0,1,4.79,6,17.77,17.77,0,0,1,.38,14.64,17.53,17.53,0,0,1-9.4,9.4,17.18,17.18,0,0,1-6.87,1.4H538.83V252.88h27.32a8.59,8.59,0,0,1,3.51.72,9.42,9.42,0,0,1,4.83,4.83,8.95,8.95,0,0,1,0,7,9.43,9.43,0,0,1-4.83,4.83,8.58,8.58,0,0,1-3.51.72H547.28V257.34h-4v17.81h22.87a13.08,13.08,0,0,0,5.13-1,12.72,12.72,0,0,0,4.19-2.83,14,14,0,0,0,2.83-4.23,13,13,0,0,0,0-10.26,14,14,0,0,0-2.83-4.23,13.23,13.23,0,0,0-4.19-2.87,12.68,12.68,0,0,0-5.13-1.06H538.83V224.28h23.62a16.24,16.24,0,0,1,6.42,1.28,16.5,16.5,0,0,1,8.83,8.83,16.24,16.24,0,0,1,1.28,6.42A17,17,0,0,1,577.24,248.2Zm-34-4h4v-11.4h15.17a7.46,7.46,0,0,1,3.09.65,8.13,8.13,0,0,1,4.19,4.22,7.59,7.59,0,0,1,.64,3.11,7.83,7.83,0,0,1-.91,3.8,11,11,0,0,1,2,.49q1,.34,2,.72a12,12,0,0,0,1.06-5,11.7,11.7,0,0,0-.94-4.68,12.26,12.26,0,0,0-6.45-6.45,11.7,11.7,0,0,0-4.68-.94H543.28Zm20.15,0a3.55,3.55,0,0,0,1.81-1.32,3.48,3.48,0,0,0,.68-2.08,3.43,3.43,0,0,0-1-2.53,3.34,3.34,0,0,0-2.45-1H551.73v6.94h11.7Zm-11.7,22.34h14.42a4.49,4.49,0,0,0,3.25-1.32,4.65,4.65,0,0,0,0-6.57,4.5,4.5,0,0,0-3.25-1.32H551.73Z"/><path class="8c34bbee-e7d7-4503-b7bb-196cbf095e52" d="M613.62,246a52.07,52.07,0,0,1,6.6,3,22.74,22.74,0,0,1,5.09,3.7,15.1,15.1,0,0,1,3.28,4.75,15.46,15.46,0,0,1,1.17,6.23,13.9,13.9,0,0,1-6.11,11.92q-5.51,4-14.41,4a31,31,0,0,1-8.23-1,25,25,0,0,1-6.15-2.53,20.32,20.32,0,0,1-4.34-3.36,25.27,25.27,0,0,1-2.79-3.4l3.7-2.42a15,15,0,0,0,4.08,4.34,20.19,20.19,0,0,0,4.79,2.49,21.63,21.63,0,0,0,4.79,1.13,37.26,37.26,0,0,0,4.15.26,26.05,26.05,0,0,0,6.64-.79,15.46,15.46,0,0,0,5.21-2.38,9.79,9.79,0,0,0,4.23-8.32,12.15,12.15,0,0,0-.68-4.2,9.87,9.87,0,0,0-2.26-3.48,18.47,18.47,0,0,0-4.11-3.06A47.84,47.84,0,0,0,612,250l-3.7-1.44q-2-.76-3.66-1.55a13,13,0,0,1-3-1.93,8.53,8.53,0,0,1-2.08-2.61,7.8,7.8,0,0,1-.75-3.59,6.67,6.67,0,0,1,2.6-5.48,10.75,10.75,0,0,1,6.91-2.08,14.39,14.39,0,0,1,6.45,1.27,11.49,11.49,0,0,1,4.42,4.17l-3.7,2.42a6.59,6.59,0,0,0-2.75-2.57,9.89,9.89,0,0,0-4.34-.83,8.3,8.3,0,0,0-2.64.34,4.31,4.31,0,0,0-1.55.87,2.7,2.7,0,0,0-.94,2,4.4,4.4,0,0,0,.23,1.47,3,3,0,0,0,.94,1.25,11.05,11.05,0,0,0,2,1.28A35.07,35.07,0,0,0,610,244.5Zm-4.53,26.11a19.49,19.49,0,0,1-8.6-1.7,16.07,16.07,0,0,1-6.11-5.55l3.7-2.42a20.51,20.51,0,0,0,1.77,2.11,8.48,8.48,0,0,0,2.26,1.66,12.45,12.45,0,0,0,3,1.06,18.39,18.39,0,0,0,4,.38q.68,0,1.92-.11a12.36,12.36,0,0,0,2.49-.49,6.13,6.13,0,0,0,2.19-1.17,2.66,2.66,0,0,0,.94-2.15,4.08,4.08,0,0,0-.38-1.77,4.72,4.72,0,0,0-1.28-1.55,13.52,13.52,0,0,0-2.45-1.55,42.07,42.07,0,0,0-3.89-1.7l-3.77-1.43a51.62,51.62,0,0,1-5.47-2.53,21.52,21.52,0,0,1-4.64-3.32,14,14,0,0,1-4.45-10.75,14,14,0,0,1,5-10.83,17.63,17.63,0,0,1,5.66-3.13,21.74,21.74,0,0,1,7.13-1.13q11.62,0,17.51,8.38L622,234.92q-4.53-6.41-13.89-6.42a17.47,17.47,0,0,0-5.4.79,13.43,13.43,0,0,0-4.23,2.19,9.83,9.83,0,0,0-2.76,3.36,9.48,9.48,0,0,0-1,4.3,11.88,11.88,0,0,0,.6,3.92,8.88,8.88,0,0,0,2,3.21A15.6,15.6,0,0,0,601,249a44.23,44.23,0,0,0,5.51,2.57l3.7,1.43q2.26.91,4.23,1.85a17.07,17.07,0,0,1,3.43,2.15,9.33,9.33,0,0,1,2.34,2.83,8.15,8.15,0,0,1,.87,3.89,7.67,7.67,0,0,1-.64,3,7.44,7.44,0,0,1-2,2.72,10.25,10.25,0,0,1-3.7,1.92A19.1,19.1,0,0,1,609.09,272.13Z"/></g><g id="3752d49d-e310-457d-b4ff-4de441e7e3cf" data-name="Layer 4"><rect class="8c34bbee-e7d7-4503-b7bb-196cbf095e52" x="959.67" y="542" width="938" height="519"/><path class="05665b21-ee46-4cf1-93ee-d83f6dc93392" d="M1628,883.43a81.74,81.74,0,0,1-27.34-4.68,123,123,0,0,1-172,19.16,123,123,0,0,1-172-19.16,82,82,0,0,1-109.34-77.28v0a82,82,0,0,0,109.34,77.32,123,123,0,0,0,172,19.16,123,123,0,0,0,172-19.16A82,82,0,0,0,1710,801.5v0A82,82,0,0,1,1628,883.43Z"/><path class="05665b21-ee46-4cf1-93ee-d83f6dc93392" d="M1628,719.5a81.74,81.74,0,0,0-27.34,4.68,123,123,0,0,0-172-19.16,123,123,0,0,0-172,19.16,82,82,0,0,0-109.32,76.32h562.56A82,82,0,0,0,1628,719.5Z"/><path class="940d20c6-efda-4a31-9339-9d034ac726ae" d="M1710,801.43c0-.31,0-.62,0-.93h0c0,.32,0,.64,0,1Z"/><path class="940d20c6-efda-4a31-9339-9d034ac726ae" d="M1147.38,800.5c0,.31,0,.62,0,.93v0c0-.32,0-.64,0-1Z"/><path class="05665b21-ee46-4cf1-93ee-d83f6dc93392" d="M1229.36,883.43a81.74,81.74,0,0,0,27.34-4.68,123,123,0,0,0,172,19.16,123,123,0,0,0,172-19.16A82,82,0,0,0,1710,801.46c0-.32,0-.64,0-1H1147.39c0,.32,0,.64,0,1A82,82,0,0,0,1229.36,883.43Z"/><path class="940d20c6-efda-4a31-9339-9d034ac726ae" d="M1229.36,883.43a81.74,81.74,0,0,0,27.34-4.68,123,123,0,0,0,172,19.16,123,123,0,0,0,172-19.16A82,82,0,0,0,1710,801.46c0-.32,0-.64,0-1H1147.39c0,.32,0,.64,0,1A82,82,0,0,0,1229.36,883.43Z"/><path class="8c34bbee-e7d7-4503-b7bb-196cbf095e52" d="M1240.17,877V726h9V832h368v9h-351v36h-9V841h-8v36Zm26-151v89h351v9h-360V726Z"/><path class="8c34bbee-e7d7-4503-b7bb-196cbf095e52" d="M1338.37,757.86a24.33,24.33,0,0,0-8.23-6.49A23.77,23.77,0,0,0,1319.5,749a24.08,24.08,0,0,0-9.4,1.85,24.39,24.39,0,0,0-7.7,5.06,23.83,23.83,0,0,0-5.17,7.47,22.86,22.86,0,0,0,0,18.19,23.36,23.36,0,0,0,5.17,7.43,24.7,24.7,0,0,0,7.7,5,24.06,24.06,0,0,0,9.4,1.85,23.75,23.75,0,0,0,10.64-2.42,24.32,24.32,0,0,0,8.23-6.49l3.47,2.72h.08a28.78,28.78,0,0,1-9.74,7.92,28.77,28.77,0,0,1-23.77.72,28.9,28.9,0,0,1-15.25-15,27,27,0,0,1,0-21.66,28.68,28.68,0,0,1,26.34-17.09,28.44,28.44,0,0,1,22.42,10.64l-.08.08Zm-18.87-.45a15.77,15.77,0,0,0-10.94,4.38,14.89,14.89,0,0,0-3.32,4.79,14.42,14.42,0,0,0-1.21,5.85,14.15,14.15,0,0,0,1.21,5.81,15,15,0,0,0,3.32,4.75,15.76,15.76,0,0,0,10.94,4.38,15.2,15.2,0,0,0,6.83-1.55,15.71,15.71,0,0,0,5.25-4.11l3.55,2.72a19.93,19.93,0,0,1-15.62,7.4,20.1,20.1,0,0,1-14.11-5.66,19.28,19.28,0,0,1-4.26-6.19,19.17,19.17,0,0,1,0-15.09,19.31,19.31,0,0,1,4.26-6.19,20.64,20.64,0,0,1,6.34-4.19,20.08,20.08,0,0,1,23.4,5.85l-3.55,2.79a16.21,16.21,0,0,0-5.28-4.19A15,15,0,0,0,1319.5,757.41Z"/><path class="8c34bbee-e7d7-4503-b7bb-196cbf095e52" d="M1347.57,745h37.06v4.45H1352v17.66h4V753.48h28.6v4.45h-24.15v9.21h10.26v4.45h-23.17V745Zm12.91,42.26h24.15v4.45h-37.06V775.67h23.17v4.45h-10.26Zm-12.91,8.6h37.06v4.45h-37.06Zm8.45-15.77h-4v7.17h4Z"/><path class="8c34bbee-e7d7-4503-b7bb-196cbf095e52" d="M1425.38,787.37v4.45H1391.2V745h4.45v42.34h4.23V745h4.45v42.34Zm-34.19,8.53h34.19v4.45H1391.2Z"/><path class="8c34bbee-e7d7-4503-b7bb-196cbf095e52" d="M1431.87,745h37.06v4.45h-32.6v17.66h4V753.48h28.6v4.45h-24.15v9.21H1455v4.45h-23.17V745Zm12.91,42.26h24.15v4.45h-37.06V775.67H1455v4.45h-10.26Zm-12.91,8.6h37.06v4.45h-37.06Zm8.45-15.77h-4v7.17h4Z"/><path class="8c34bbee-e7d7-4503-b7bb-196cbf095e52" d="M1513.91,769a17.66,17.66,0,0,1,4.79,6,17.77,17.77,0,0,1,.38,14.64,17.53,17.53,0,0,1-9.4,9.4,17.18,17.18,0,0,1-6.87,1.4H1475.5V773.63h27.32a8.59,8.59,0,0,1,3.51.72,9.42,9.42,0,0,1,4.83,4.83,8.95,8.95,0,0,1,0,7,9.43,9.43,0,0,1-4.83,4.83,8.58,8.58,0,0,1-3.51.72h-18.87V778.09h-4V795.9h22.87a13.08,13.08,0,0,0,5.13-1,12.72,12.72,0,0,0,4.19-2.83,14,14,0,0,0,2.83-4.23,13,13,0,0,0,0-10.26,14,14,0,0,0-2.83-4.23,13.23,13.23,0,0,0-4.19-2.87,12.68,12.68,0,0,0-5.13-1.06H1475.5V745h23.62a16.24,16.24,0,0,1,6.42,1.28,16.5,16.5,0,0,1,8.83,8.83,16.24,16.24,0,0,1,1.28,6.42A17,17,0,0,1,1513.91,769Zm-34-4h4v-11.4h15.17a7.46,7.46,0,0,1,3.09.65,8.13,8.13,0,0,1,4.19,4.22,7.59,7.59,0,0,1,.64,3.11,7.83,7.83,0,0,1-.91,3.8,11,11,0,0,1,2,.49q1,.34,2,.72a12,12,0,0,0,1.06-5,11.7,11.7,0,0,0-.94-4.68,12.26,12.26,0,0,0-6.45-6.45,11.7,11.7,0,0,0-4.68-.94h-19.17Zm20.15,0a3.55,3.55,0,0,0,1.81-1.32,3.48,3.48,0,0,0,.68-2.08,3.43,3.43,0,0,0-1-2.53,3.34,3.34,0,0,0-2.45-1H1488.4V765h11.7Zm-11.7,22.34h14.42a4.49,4.49,0,0,0,3.25-1.32,4.65,4.65,0,0,0,0-6.57,4.5,4.5,0,0,0-3.25-1.32H1488.4Z"/><path class="8c34bbee-e7d7-4503-b7bb-196cbf095e52" d="M1550.29,766.76a52.07,52.07,0,0,1,6.6,3,22.74,22.74,0,0,1,5.09,3.7,15.1,15.1,0,0,1,3.28,4.75,15.46,15.46,0,0,1,1.17,6.23,13.9,13.9,0,0,1-6.11,11.92q-5.51,4-14.41,4a31,31,0,0,1-8.23-1,25,25,0,0,1-6.15-2.53,20.32,20.32,0,0,1-4.34-3.36,25.27,25.27,0,0,1-2.79-3.4l3.7-2.42a15,15,0,0,0,4.08,4.34,20.19,20.19,0,0,0,4.79,2.49,21.63,21.63,0,0,0,4.79,1.13,37.26,37.26,0,0,0,4.15.26,26.05,26.05,0,0,0,6.64-.79,15.46,15.46,0,0,0,5.21-2.38,9.79,9.79,0,0,0,4.23-8.32,12.15,12.15,0,0,0-.68-4.2,9.87,9.87,0,0,0-2.26-3.48,18.47,18.47,0,0,0-4.11-3.06,47.84,47.84,0,0,0-6.23-2.87l-3.7-1.44q-2-.76-3.66-1.55a13,13,0,0,1-3-1.93,8.53,8.53,0,0,1-2.08-2.61,7.8,7.8,0,0,1-.75-3.59,6.67,6.67,0,0,1,2.6-5.48,10.75,10.75,0,0,1,6.91-2.08,14.39,14.39,0,0,1,6.45,1.27,11.49,11.49,0,0,1,4.42,4.17l-3.7,2.42a6.59,6.59,0,0,0-2.75-2.57,9.89,9.89,0,0,0-4.34-.83,8.3,8.3,0,0,0-2.64.34,4.31,4.31,0,0,0-1.55.87,2.7,2.7,0,0,0-.94,2,4.4,4.4,0,0,0,.23,1.47,3,3,0,0,0,.94,1.25,11.05,11.05,0,0,0,2,1.28,35.07,35.07,0,0,0,3.51,1.51Zm-4.53,26.11a19.49,19.49,0,0,1-8.6-1.7,16.07,16.07,0,0,1-6.11-5.55l3.7-2.42a20.51,20.51,0,0,0,1.77,2.11,8.48,8.48,0,0,0,2.26,1.66,12.45,12.45,0,0,0,3,1.06,18.39,18.39,0,0,0,4,.38q.68,0,1.92-.11a12.36,12.36,0,0,0,2.49-.49,6.13,6.13,0,0,0,2.19-1.17,2.66,2.66,0,0,0,.94-2.15,4.08,4.08,0,0,0-.38-1.77,4.72,4.72,0,0,0-1.28-1.55,13.52,13.52,0,0,0-2.45-1.55,42.07,42.07,0,0,0-3.89-1.7l-3.77-1.43a51.62,51.62,0,0,1-5.47-2.53,21.52,21.52,0,0,1-4.64-3.32A14,14,0,0,1,1527,759.9a14,14,0,0,1,5-10.83,17.63,17.63,0,0,1,5.66-3.13,21.74,21.74,0,0,1,7.13-1.13q11.62,0,17.51,8.38l-3.62,2.49q-4.53-6.41-13.89-6.42a17.47,17.47,0,0,0-5.4.79,13.43,13.43,0,0,0-4.23,2.19,9.83,9.83,0,0,0-2.76,3.36,9.48,9.48,0,0,0-1,4.3,11.88,11.88,0,0,0,.6,3.92,8.88,8.88,0,0,0,2,3.21,15.6,15.6,0,0,0,3.66,2.75,44.23,44.23,0,0,0,5.51,2.57l3.7,1.43q2.26.91,4.23,1.85a17.07,17.07,0,0,1,3.43,2.15,9.33,9.33,0,0,1,2.34,2.83,8.15,8.15,0,0,1,.87,3.89,7.67,7.67,0,0,1-.64,3,7.44,7.44,0,0,1-2,2.72,10.25,10.25,0,0,1-3.7,1.92A19.1,19.1,0,0,1,1545.76,792.88Z"/></g><g id="b654f77e-fa71-42ce-bf68-ef33b7649d08" data-name="Layer 2"><rect class="8c34bbee-e7d7-4503-b7bb-196cbf095e52" x="961.5" y="20.75" width="938" height="519"/><path class="9310b8c2-1e22-4f22-96cb-e797bd62ace3" d="M1629.81,362.18a81.74,81.74,0,0,1-27.34-4.68,123,123,0,0,1-172,19.16,123,123,0,0,1-172-19.16,82,82,0,0,1-109.34-77.28v0a82,82,0,0,0,109.34,77.32,123,123,0,0,0,172,19.16,123,123,0,0,0,172-19.16,82,82,0,0,0,109.34-77.32v0A82,82,0,0,1,1629.81,362.18Z"/><path class="9310b8c2-1e22-4f22-96cb-e797bd62ace3" d="M1629.81,198.25a81.74,81.74,0,0,0-27.34,4.68,123,123,0,0,0-172-19.16,123,123,0,0,0-172,19.16,82,82,0,0,0-109.32,76.32h562.56A82,82,0,0,0,1629.81,198.25Z"/><path class="41d1f290-5677-470a-aece-213a8ce86da5" d="M1711.81,280.18c0-.31,0-.62,0-.93h0c0,.32,0,.64,0,1Z"/><path class="41d1f290-5677-470a-aece-213a8ce86da5" d="M1149.22,279.25c0,.31,0,.62,0,.93v0c0-.32,0-.64,0-1Z"/><path class="9310b8c2-1e22-4f22-96cb-e797bd62ace3" d="M1231.19,362.18a81.74,81.74,0,0,0,27.34-4.68,123,123,0,0,0,172,19.16,123,123,0,0,0,172-19.16,82,82,0,0,0,109.34-77.28c0-.32,0-.64,0-1H1149.22c0,.32,0,.64,0,1A82,82,0,0,0,1231.19,362.18Z"/><path class="41d1f290-5677-470a-aece-213a8ce86da5" d="M1231.19,362.18a81.74,81.74,0,0,0,27.34-4.68,123,123,0,0,0,172,19.16,123,123,0,0,0,172-19.16,82,82,0,0,0,109.34-77.28c0-.32,0-.64,0-1H1149.22c0,.32,0,.64,0,1A82,82,0,0,0,1231.19,362.18Z"/><path class="8c34bbee-e7d7-4503-b7bb-196cbf095e52" d="M1242,355.75v-151h9v106h368v9H1268v36h-9v-36h-8v36Zm26-151v89h351v9H1259v-98Z"/><path class="8c34bbee-e7d7-4503-b7bb-196cbf095e52" d="M1340.2,236.61a24.33,24.33,0,0,0-8.23-6.49,23.77,23.77,0,0,0-10.64-2.42,24.08,24.08,0,0,0-9.4,1.85,24.39,24.39,0,0,0-7.7,5.06,23.83,23.83,0,0,0-5.17,7.47,22.86,22.86,0,0,0,0,18.19,23.36,23.36,0,0,0,5.17,7.43,24.7,24.7,0,0,0,7.7,5,24.06,24.06,0,0,0,9.4,1.85,23.75,23.75,0,0,0,10.64-2.42,24.32,24.32,0,0,0,8.23-6.49l3.47,2.72h.08a28.78,28.78,0,0,1-9.74,7.92,28.77,28.77,0,0,1-23.77.72A28.9,28.9,0,0,1,1295,262a27,27,0,0,1,0-21.66,28.68,28.68,0,0,1,26.34-17.09,28.44,28.44,0,0,1,22.42,10.64l-.08.08Zm-18.87-.45a15.77,15.77,0,0,0-10.94,4.38,14.89,14.89,0,0,0-3.32,4.79,14.42,14.42,0,0,0-1.21,5.85,14.15,14.15,0,0,0,1.21,5.81,15,15,0,0,0,3.32,4.75,15.76,15.76,0,0,0,10.94,4.38,15.2,15.2,0,0,0,6.83-1.55,15.71,15.71,0,0,0,5.25-4.11l3.55,2.72a19.93,19.93,0,0,1-15.62,7.4,20.1,20.1,0,0,1-14.11-5.66,19.28,19.28,0,0,1-4.26-6.19,19.17,19.17,0,0,1,0-15.09,19.31,19.31,0,0,1,4.26-6.19,20.64,20.64,0,0,1,6.34-4.19,20.08,20.08,0,0,1,23.4,5.85l-3.55,2.79a16.21,16.21,0,0,0-5.28-4.19A15,15,0,0,0,1321.33,236.16Z"/><path class="8c34bbee-e7d7-4503-b7bb-196cbf095e52" d="M1349.41,223.78h37.06v4.45h-32.6v17.66h4V232.23h28.6v4.45h-24.15v9.21h10.26v4.45h-23.17V223.78ZM1362.31,266h24.15v4.45h-37.06V254.42h23.17v4.45h-10.26Zm-12.91,8.6h37.06v4.45h-37.06Zm8.45-15.77h-4V266h4Z"/><path class="8c34bbee-e7d7-4503-b7bb-196cbf095e52" d="M1427.22,266.12v4.45H1393V223.78h4.45v42.34h4.23V223.78h4.45v42.34ZM1393,274.65h34.19v4.45H1393Z"/><path class="8c34bbee-e7d7-4503-b7bb-196cbf095e52" d="M1433.71,223.78h37.06v4.45h-32.6v17.66h4V232.23h28.6v4.45h-24.15v9.21h10.26v4.45h-23.17V223.78ZM1446.61,266h24.15v4.45h-37.06V254.42h23.17v4.45h-10.26Zm-12.91,8.6h37.06v4.45h-37.06Zm8.45-15.77h-4V266h4Z"/><path class="8c34bbee-e7d7-4503-b7bb-196cbf095e52" d="M1515.74,247.7a17.66,17.66,0,0,1,4.79,6,17.77,17.77,0,0,1,.38,14.64,17.53,17.53,0,0,1-9.4,9.4,17.18,17.18,0,0,1-6.87,1.4h-27.32V252.38h27.32a8.59,8.59,0,0,1,3.51.72,9.42,9.42,0,0,1,4.83,4.83,8.95,8.95,0,0,1,0,7,9.43,9.43,0,0,1-4.83,4.83,8.58,8.58,0,0,1-3.51.72h-18.87V256.84h-4v17.81h22.87a13.08,13.08,0,0,0,5.13-1,12.72,12.72,0,0,0,4.19-2.83,14,14,0,0,0,2.83-4.23,13,13,0,0,0,0-10.26,14,14,0,0,0-2.83-4.23,13.23,13.23,0,0,0-4.19-2.87,12.68,12.68,0,0,0-5.13-1.06h-27.32V223.78H1501a16.24,16.24,0,0,1,6.42,1.28,16.5,16.5,0,0,1,8.83,8.83,16.24,16.24,0,0,1,1.28,6.42A17,17,0,0,1,1515.74,247.7Zm-34-4h4v-11.4H1501a7.46,7.46,0,0,1,3.09.65,8.13,8.13,0,0,1,4.19,4.22,7.59,7.59,0,0,1,.64,3.11,7.83,7.83,0,0,1-.91,3.8,11,11,0,0,1,2,.49q1,.34,2,.72a12,12,0,0,0,1.06-5,11.7,11.7,0,0,0-.94-4.68,12.26,12.26,0,0,0-6.45-6.45,11.7,11.7,0,0,0-4.68-.94h-19.17Zm20.15,0a3.55,3.55,0,0,0,1.81-1.32,3.48,3.48,0,0,0,.68-2.08,3.43,3.43,0,0,0-1-2.53,3.34,3.34,0,0,0-2.45-1h-10.72v6.94h11.7ZM1490.23,266h14.42a4.49,4.49,0,0,0,3.25-1.32,4.65,4.65,0,0,0,0-6.57,4.5,4.5,0,0,0-3.25-1.32h-14.42Z"/><path class="8c34bbee-e7d7-4503-b7bb-196cbf095e52" d="M1552.12,245.51a52.07,52.07,0,0,1,6.6,3,22.74,22.74,0,0,1,5.09,3.7,15.1,15.1,0,0,1,3.28,4.75,15.46,15.46,0,0,1,1.17,6.23,13.9,13.9,0,0,1-6.11,11.92q-5.51,4-14.41,4a31,31,0,0,1-8.23-1,25,25,0,0,1-6.15-2.53,20.32,20.32,0,0,1-4.34-3.36,25.27,25.27,0,0,1-2.79-3.4l3.7-2.42a15,15,0,0,0,4.08,4.34,20.19,20.19,0,0,0,4.79,2.49,21.63,21.63,0,0,0,4.79,1.13,37.26,37.26,0,0,0,4.15.26,26.05,26.05,0,0,0,6.64-.79,15.46,15.46,0,0,0,5.21-2.38,9.79,9.79,0,0,0,4.23-8.32,12.15,12.15,0,0,0-.68-4.2,9.87,9.87,0,0,0-2.26-3.48,18.47,18.47,0,0,0-4.11-3.06,47.84,47.84,0,0,0-6.23-2.87l-3.7-1.44q-2-.76-3.66-1.55a13,13,0,0,1-3-1.93,8.53,8.53,0,0,1-2.08-2.61,7.8,7.8,0,0,1-.75-3.59,6.67,6.67,0,0,1,2.6-5.48,10.75,10.75,0,0,1,6.91-2.08,14.39,14.39,0,0,1,6.45,1.27,11.49,11.49,0,0,1,4.42,4.17l-3.7,2.42a6.59,6.59,0,0,0-2.75-2.57,9.89,9.89,0,0,0-4.34-.83,8.3,8.3,0,0,0-2.64.34,4.31,4.31,0,0,0-1.55.87,2.7,2.7,0,0,0-.94,2A4.4,4.4,0,0,0,1542,240a3,3,0,0,0,.94,1.25,11.05,11.05,0,0,0,2,1.28,35.07,35.07,0,0,0,3.51,1.51Zm-4.53,26.11a19.49,19.49,0,0,1-8.6-1.7,16.07,16.07,0,0,1-6.11-5.55l3.7-2.42a20.51,20.51,0,0,0,1.77,2.11,8.48,8.48,0,0,0,2.26,1.66,12.45,12.45,0,0,0,3,1.06,18.39,18.39,0,0,0,4,.38q.68,0,1.92-.11a12.36,12.36,0,0,0,2.49-.49,6.13,6.13,0,0,0,2.19-1.17,2.66,2.66,0,0,0,.94-2.15,4.08,4.08,0,0,0-.38-1.77,4.72,4.72,0,0,0-1.28-1.55,13.52,13.52,0,0,0-2.45-1.55,42.07,42.07,0,0,0-3.89-1.7l-3.77-1.43a51.62,51.62,0,0,1-5.47-2.53,21.52,21.52,0,0,1-4.64-3.32,14,14,0,0,1-4.45-10.75,14,14,0,0,1,5-10.83,17.63,17.63,0,0,1,5.66-3.13,21.74,21.74,0,0,1,7.13-1.13q11.62,0,17.51,8.38l-3.62,2.49Q1556,228,1546.61,228a17.47,17.47,0,0,0-5.4.79A13.43,13.43,0,0,0,1537,231a9.83,9.83,0,0,0-2.76,3.36,9.48,9.48,0,0,0-1,4.3,11.88,11.88,0,0,0,.6,3.92,8.88,8.88,0,0,0,2,3.21,15.6,15.6,0,0,0,3.66,2.75,44.23,44.23,0,0,0,5.51,2.57l3.7,1.43q2.26.91,4.23,1.85a17.07,17.07,0,0,1,3.43,2.15,9.33,9.33,0,0,1,2.34,2.83,8.15,8.15,0,0,1,.87,3.89,7.67,7.67,0,0,1-.64,3,7.44,7.44,0,0,1-2,2.72,10.25,10.25,0,0,1-3.7,1.92A19.1,19.1,0,0,1,1547.59,271.63Z"/></g><g id="4080b9a6-7df0-4fde-a3dc-6112ef3cbf2b" data-name="Layer 3"><rect class="8c34bbee-e7d7-4503-b7bb-196cbf095e52" x="19.5" y="541.25" width="938" height="519"/><path class="3873ff7d-b3a0-44a1-ae91-da23bd9f71b0" d="M687.81,882.68A81.74,81.74,0,0,1,660.46,878a123,123,0,0,1-172,19.16,123,123,0,0,1-172-19.16A82,82,0,0,1,207.2,800.71v0a82,82,0,0,0,109.34,77.32,123,123,0,0,0,172,19.16,123,123,0,0,0,172-19.16,82,82,0,0,0,109.34-77.32v0A82,82,0,0,1,687.81,882.68Z"/><path class="3873ff7d-b3a0-44a1-ae91-da23bd9f71b0" d="M687.81,718.75a81.74,81.74,0,0,0-27.34,4.68,123,123,0,0,0-172-19.16,123,123,0,0,0-172,19.16,82,82,0,0,0-109.32,76.32H769.78A82,82,0,0,0,687.81,718.75Z"/><path class="bab8c7f2-2912-4f57-934c-04d247f41edc" d="M769.81,800.68c0-.31,0-.62,0-.93h0c0,.32,0,.64,0,1Z"/><path class="bab8c7f2-2912-4f57-934c-04d247f41edc" d="M207.22,799.75c0,.31,0,.62,0,.93v0c0-.32,0-.64,0-1Z"/><path class="3873ff7d-b3a0-44a1-ae91-da23bd9f71b0" d="M289.19,882.68A81.74,81.74,0,0,0,316.54,878a123,123,0,0,0,172,19.16,123,123,0,0,0,172-19.16A82,82,0,0,0,769.8,800.71c0-.32,0-.64,0-1H207.22c0,.32,0,.64,0,1A82,82,0,0,0,289.19,882.68Z"/><path class="bab8c7f2-2912-4f57-934c-04d247f41edc" d="M289.19,882.68A81.74,81.74,0,0,0,316.54,878a123,123,0,0,0,172,19.16,123,123,0,0,0,172-19.16A82,82,0,0,0,769.8,800.71c0-.32,0-.64,0-1H207.22c0,.32,0,.64,0,1A82,82,0,0,0,289.19,882.68Z"/><path class="8c34bbee-e7d7-4503-b7bb-196cbf095e52" d="M300.5,876.75v-151h9v106h368v9h-351v36h-9v-36h-8v36Zm26-151v89h351v9h-360v-98Z"/><path class="8c34bbee-e7d7-4503-b7bb-196cbf095e52" d="M398.2,757a24.33,24.33,0,0,0-8.23-6.49,23.77,23.77,0,0,0-10.64-2.42,24.08,24.08,0,0,0-9.4,1.85,24.39,24.39,0,0,0-7.7,5.06,23.83,23.83,0,0,0-5.17,7.47,22.86,22.86,0,0,0,0,18.19,23.36,23.36,0,0,0,5.17,7.43,24.7,24.7,0,0,0,7.7,5,24.06,24.06,0,0,0,9.4,1.85A23.75,23.75,0,0,0,390,792.52,24.32,24.32,0,0,0,398.2,786l3.47,2.72h.08a28.78,28.78,0,0,1-9.74,7.92,28.77,28.77,0,0,1-23.77.72,28.9,28.9,0,0,1-15.25-15,27,27,0,0,1,0-21.66,28.68,28.68,0,0,1,26.34-17.09,28.44,28.44,0,0,1,22.42,10.64l-.08.08Zm-18.87-.32A15.77,15.77,0,0,0,368.39,761a14.89,14.89,0,0,0-3.32,4.79,14.42,14.42,0,0,0-1.21,5.85,14.15,14.15,0,0,0,1.21,5.81,15,15,0,0,0,3.32,4.75,15.76,15.76,0,0,0,10.94,4.38,15.2,15.2,0,0,0,6.83-1.55,15.71,15.71,0,0,0,5.25-4.11l3.55,2.72a19.93,19.93,0,0,1-15.62,7.4,20.1,20.1,0,0,1-14.11-5.66,19.28,19.28,0,0,1-4.26-6.19,19.17,19.17,0,0,1,0-15.09,19.31,19.31,0,0,1,4.26-6.19,20.64,20.64,0,0,1,6.34-4.19A20.08,20.08,0,0,1,395,759.6l-3.55,2.79a16.21,16.21,0,0,0-5.28-4.19A15,15,0,0,0,379.33,756.66Z"/><path class="8c34bbee-e7d7-4503-b7bb-196cbf095e52" d="M407.5,743.75h37v5h-33v18h4v-14h29v5h-24v9h10v4h-23v-27Zm13,43h24v4h-37v-16h23v5h-10Zm-13,9h37v4h-37Zm8-16h-4v7h4Z"/><path class="8c34bbee-e7d7-4503-b7bb-196cbf095e52" d="M485.5,786.75v4h-34v-47h4v43h4v-43h5v43Zm-34,9h34v4h-34Z"/><path class="8c34bbee-e7d7-4503-b7bb-196cbf095e52" d="M491.5,743.75h37v5h-32v18h3v-14h29v5h-24v9h10v4h-23v-27Zm13,43h24v4h-37v-16h23v5h-10Zm-13,9h37v4h-37Zm9-16h-4v7h4Z"/><path class="8c34bbee-e7d7-4503-b7bb-196cbf095e52" d="M573.69,768.54a17.55,17.55,0,0,1,4.76,5.93,17.67,17.67,0,0,1,.38,14.56,17.43,17.43,0,0,1-9.34,9.34,17.08,17.08,0,0,1-6.83,1.39H535.5v-27h27.15a8.54,8.54,0,0,1,3.49.71,9.37,9.37,0,0,1,4.8,4.8,8.89,8.89,0,0,1,0,7,9.37,9.37,0,0,1-4.8,4.8,8.53,8.53,0,0,1-3.49.71H543.5v-14h-4v18h23.15a8.36,8.36,0,0,0,5.13-.62A12.72,12.72,0,0,0,572,791.3a14,14,0,0,0,2.83-4.23,13,13,0,0,0,0-10.26,14,14,0,0,0-2.83-4.23,13.23,13.23,0,0,0-4.19-2.87,11.22,11.22,0,0,0-5.13-1H535.5v-24H559a16.14,16.14,0,0,1,6.38,1.28,16.4,16.4,0,0,1,8.78,8.78,16.14,16.14,0,0,1,1.28,6.38A16.86,16.86,0,0,1,573.69,768.54Zm-34.19-4.79h4v-11h14.89a7.32,7.32,0,0,1,3,.63,8,8,0,0,1,4.11,4.14,7.45,7.45,0,0,1,.63,3.06,7.69,7.69,0,0,1-.89,3.73,10.82,10.82,0,0,1,2,.48q1,.33,1.93.7a11.74,11.74,0,0,0,1-4.89,11.49,11.49,0,0,0-.93-4.59,12,12,0,0,0-6.33-6.33,11.49,11.49,0,0,0-4.59-.93H539.5Zm20.79,0a3.58,3.58,0,0,0,1.83-1.33,3.62,3.62,0,0,0-.9-5.11,3.29,3.29,0,0,0-1.91-.56H548.5v7h11.79Zm-11.79,23h13.88a4.8,4.8,0,0,0,3.08-1,4.53,4.53,0,0,0,0-7,4.79,4.79,0,0,0-3.08-1H548.5Z"/><path class="8c34bbee-e7d7-4503-b7bb-196cbf095e52" d="M610.12,766a52.07,52.07,0,0,1,6.6,3,22.74,22.74,0,0,1,5.09,3.7,15.1,15.1,0,0,1,3.28,4.75,15.46,15.46,0,0,1,1.17,6.23,13.9,13.9,0,0,1-6.11,11.92q-5.51,4-14.41,4a31,31,0,0,1-8.23-1,25,25,0,0,1-6.15-2.53,20.32,20.32,0,0,1-4.34-3.36,25.27,25.27,0,0,1-2.79-3.4l3.7-2.42a15,15,0,0,0,4.08,4.34,20.19,20.19,0,0,0,4.79,2.49,21.63,21.63,0,0,0,4.79,1.13,37.26,37.26,0,0,0,4.15.26,26.05,26.05,0,0,0,6.64-.79,15.46,15.46,0,0,0,5.21-2.38,9.79,9.79,0,0,0,4.23-8.32,12.15,12.15,0,0,0-.68-4.2,9.87,9.87,0,0,0-2.26-3.48,18.47,18.47,0,0,0-4.11-3.06,47.84,47.84,0,0,0-6.23-2.87l-3.7-1.44q-2-.76-3.66-1.55a13,13,0,0,1-3-1.93,8.53,8.53,0,0,1-2.08-2.61,7.8,7.8,0,0,1-.75-3.59,6.67,6.67,0,0,1,2.6-5.48,10.75,10.75,0,0,1,6.91-2.08,14.39,14.39,0,0,1,6.45,1.27,11.49,11.49,0,0,1,4.42,4.17l-3.7,2.42a6.59,6.59,0,0,0-2.75-2.57,9.89,9.89,0,0,0-4.34-.83,8.3,8.3,0,0,0-2.64.34,4.31,4.31,0,0,0-1.55.87,2.7,2.7,0,0,0-.94,2,4.4,4.4,0,0,0,.23,1.47,3,3,0,0,0,.94,1.25,11.05,11.05,0,0,0,2,1.28,35.07,35.07,0,0,0,3.51,1.51Zm-4.53,26.11a19.49,19.49,0,0,1-8.6-1.7,16.07,16.07,0,0,1-6.11-5.55l3.7-2.42a20.51,20.51,0,0,0,1.77,2.11,8.48,8.48,0,0,0,2.26,1.66,12.45,12.45,0,0,0,3,1.06,18.39,18.39,0,0,0,4,.38q.68,0,1.92-.11a12.36,12.36,0,0,0,2.49-.49,6.13,6.13,0,0,0,2.19-1.17,2.66,2.66,0,0,0,.94-2.15,4.08,4.08,0,0,0-.38-1.77,4.72,4.72,0,0,0-1.28-1.55,13.52,13.52,0,0,0-2.45-1.55,42.07,42.07,0,0,0-3.89-1.7l-3.77-1.43a51.62,51.62,0,0,1-5.47-2.53,21.52,21.52,0,0,1-4.64-3.32,14,14,0,0,1-4.45-10.75,14,14,0,0,1,5-10.83,17.63,17.63,0,0,1,5.66-3.13,21.74,21.74,0,0,1,7.13-1.13q11.62,0,17.51,8.38l-3.62,2.49q-4.53-6.41-13.89-6.42a17.47,17.47,0,0,0-5.4.79,13.43,13.43,0,0,0-4.23,2.19,9.83,9.83,0,0,0-2.76,3.36,9.48,9.48,0,0,0-1,4.3,11.88,11.88,0,0,0,.6,3.92,8.88,8.88,0,0,0,2,3.21,15.6,15.6,0,0,0,3.66,2.75A44.23,44.23,0,0,0,603,771.6l3.7,1.43q2.26.91,4.23,1.85a17.07,17.07,0,0,1,3.43,2.15,9.33,9.33,0,0,1,2.34,2.83,8.15,8.15,0,0,1,.87,3.89,7.67,7.67,0,0,1-.64,3,7.44,7.44,0,0,1-2,2.72,10.25,10.25,0,0,1-3.7,1.92A19.1,19.1,0,0,1,605.59,792.13Z"/></g><g id="2ca9b516-7bd3-43a6-8f18-c671f4fa1eb3" data-name="Layer 5"><rect class="8c34bbee-e7d7-4503-b7bb-196cbf095e52" x="773" y="405" width="377" height="273"/><path class="18c450bc-352e-494a-b4f3-24cc6f0e0c4a" d="M1075.43,589.27a46.42,46.42,0,0,1-15.53-2.66,69.85,69.85,0,0,1-97.65,10.88,69.85,69.85,0,0,1-97.65-10.88,46.58,46.58,0,0,1-62.1-43.89v0a46.58,46.58,0,0,0,62.1,43.91,69.85,69.85,0,0,0,97.65,10.88,69.85,69.85,0,0,0,97.65-10.88,46.58,46.58,0,0,0,62.1-43.91v0A46.57,46.57,0,0,1,1075.43,589.27Z"/><path class="18c450bc-352e-494a-b4f3-24cc6f0e0c4a" d="M1075.43,496.18a46.42,46.42,0,0,0-15.53,2.66A69.85,69.85,0,0,0,962.25,488a69.85,69.85,0,0,0-97.65,10.88,46.58,46.58,0,0,0-62.08,43.34H1122A46.56,46.56,0,0,0,1075.43,496.18Z"/><path class="aab1bff6-aced-493c-aa81-023c9f1daf14" d="M1122,542.71c0-.18,0-.35,0-.53h0c0,.18,0,.36,0,.55Z"/><path class="aab1bff6-aced-493c-aa81-023c9f1daf14" d="M802.51,542.18c0,.18,0,.35,0,.53v0c0-.18,0-.36,0-.55Z"/><path class="18c450bc-352e-494a-b4f3-24cc6f0e0c4a" d="M849.07,589.27a46.42,46.42,0,0,0,15.53-2.66,69.85,69.85,0,0,0,97.65,10.88,69.85,69.85,0,0,0,97.65-10.88,46.58,46.58,0,0,0,62.1-43.89c0-.18,0-.36,0-.55H802.51c0,.18,0,.36,0,.55A46.57,46.57,0,0,0,849.07,589.27Z"/><path class="aab1bff6-aced-493c-aa81-023c9f1daf14" d="M849.07,589.27a46.42,46.42,0,0,0,15.53-2.66,69.85,69.85,0,0,0,97.65,10.88,69.85,69.85,0,0,0,97.65-10.88,46.58,46.58,0,0,0,62.1-43.89c0-.18,0-.36,0-.55H802.51c0,.18,0,.36,0,.55A46.57,46.57,0,0,0,849.07,589.27Z"/><path class="8c34bbee-e7d7-4503-b7bb-196cbf095e52" d="M855.2,585.63V499.87h5.11v60.2h209v5.11H870v20.44h-5.11V565.18h-4.54v20.44ZM870,499.87v50.54H1069.3v5.11H864.86V499.87Z"/><path class="8c34bbee-e7d7-4503-b7bb-196cbf095e52" d="M911,518a13.82,13.82,0,0,0-4.67-3.69,13.5,13.5,0,0,0-6-1.37,13.68,13.68,0,0,0-5.34,1.05,13.85,13.85,0,0,0-4.37,2.87,13.53,13.53,0,0,0-2.94,4.24,13,13,0,0,0,0,10.33,13.26,13.26,0,0,0,2.94,4.22,14,14,0,0,0,4.37,2.85,13.66,13.66,0,0,0,5.34,1.05,13.49,13.49,0,0,0,6-1.37,13.81,13.81,0,0,0,4.67-3.69l2,1.54h0a16.34,16.34,0,0,1-5.53,4.5,16.34,16.34,0,0,1-13.5.41,16.41,16.41,0,0,1-8.66-8.53,15.35,15.35,0,0,1,0-12.3,16.29,16.29,0,0,1,15-9.71,16.15,16.15,0,0,1,12.73,6l0,0Zm-10.71-.26A9,9,0,0,0,894,520.2a8.46,8.46,0,0,0-1.89,2.72,8.19,8.19,0,0,0-.69,3.32,8,8,0,0,0,.69,3.3,8.52,8.52,0,0,0,1.89,2.7,9,9,0,0,0,6.21,2.49,8.63,8.63,0,0,0,3.88-.88,8.92,8.92,0,0,0,3-2.34l2,1.54a11.32,11.32,0,0,1-8.87,4.2,11.42,11.42,0,0,1-8-3.21,11,11,0,0,1-2.42-3.51,10.89,10.89,0,0,1,0-8.57,11,11,0,0,1,2.42-3.51,11.72,11.72,0,0,1,3.6-2.38,11.4,11.4,0,0,1,13.29,3.32l-2,1.59a9.2,9.2,0,0,0-3-2.38A8.51,8.51,0,0,0,900.25,517.71Z"/><path class="8c34bbee-e7d7-4503-b7bb-196cbf095e52" d="M916.2,510.68h21v2.53H918.73v10H921v-7.76h16.24V518H923.53v5.23h5.83v2.53H916.2V510.68Zm7.33,24h13.72v2.53h-21v-9.13h13.16v2.53h-5.83Zm-7.33,4.89h21v2.53h-21Zm4.8-9h-2.27v4.07H921Z"/><path class="8c34bbee-e7d7-4503-b7bb-196cbf095e52" d="M960.39,534.72v2.53H941V510.68h2.53v24h2.4v-24h2.53v24ZM941,539.57h19.42v2.53H941Z"/><path class="8c34bbee-e7d7-4503-b7bb-196cbf095e52" d="M964.07,510.68h21v2.53H966.6v10h2.27v-7.76h16.24V518H971.4v5.23h5.83v2.53H964.07V510.68Zm7.33,24h13.72v2.53h-21v-9.13h13.16v2.53H971.4Zm-7.33,4.89h21v2.53h-21Zm4.8-9H966.6v4.07h2.27Z"/><path class="8c34bbee-e7d7-4503-b7bb-196cbf095e52" d="M1010.66,524.27a10,10,0,0,1,2.72,3.39,10.09,10.09,0,0,1,.21,8.31,10,10,0,0,1-5.34,5.34,9.76,9.76,0,0,1-3.9.79H988.84V526.92h15.52a4.88,4.88,0,0,1,2,.41,5.35,5.35,0,0,1,2.74,2.74,5.08,5.08,0,0,1,0,4,5.36,5.36,0,0,1-2.74,2.74,4.87,4.87,0,0,1-2,.41H993.64v-7.76h-2.27v10.11h13a7.43,7.43,0,0,0,2.91-.58,7.23,7.23,0,0,0,2.38-1.61,8,8,0,0,0,1.61-2.4,7.38,7.38,0,0,0,0-5.83,8,8,0,0,0-1.61-2.4,7.51,7.51,0,0,0-2.38-1.63,7.2,7.2,0,0,0-2.91-.6H988.84V510.68h13.41a9.22,9.22,0,0,1,3.64.73,9.37,9.37,0,0,1,5,5,9.22,9.22,0,0,1,.73,3.64A9.63,9.63,0,0,1,1010.66,524.27ZM991.37,522h2.27v-6.47h8.61a4.23,4.23,0,0,1,1.76.37,4.62,4.62,0,0,1,2.38,2.39,4.31,4.31,0,0,1,.36,1.77,4.45,4.45,0,0,1-.51,2.16,6.26,6.26,0,0,1,1.16.28l1.11.41a6.8,6.8,0,0,0,.6-2.83,6.65,6.65,0,0,0-.54-2.66,7,7,0,0,0-3.66-3.66,6.65,6.65,0,0,0-2.66-.54H991.37Zm11.44,0a2,2,0,0,0,1-.75,2,2,0,0,0,.39-1.18,2,2,0,0,0-.58-1.44,1.9,1.9,0,0,0-1.39-.58h-6.09V522h6.64Zm-6.64,12.69h8.19a2.55,2.55,0,0,0,1.84-.75,2.64,2.64,0,0,0,0-3.73,2.55,2.55,0,0,0-1.84-.75h-8.19Z"/><path class="8c34bbee-e7d7-4503-b7bb-196cbf095e52" d="M1031.32,523a29.57,29.57,0,0,1,3.75,1.69,12.91,12.91,0,0,1,2.89,2.1,8.57,8.57,0,0,1,1.86,2.7,8.78,8.78,0,0,1,.66,3.54,7.89,7.89,0,0,1-3.47,6.77,13.61,13.61,0,0,1-8.19,2.27,17.59,17.59,0,0,1-4.67-.56,14.22,14.22,0,0,1-3.49-1.44,11.54,11.54,0,0,1-2.46-1.91,14.35,14.35,0,0,1-1.59-1.93l2.1-1.37a8.52,8.52,0,0,0,2.31,2.46,11.47,11.47,0,0,0,2.72,1.41,12.28,12.28,0,0,0,2.72.64,21.16,21.16,0,0,0,2.36.15,14.8,14.8,0,0,0,3.77-.45,8.78,8.78,0,0,0,3-1.35A5.56,5.56,0,0,0,1038,533a6.9,6.9,0,0,0-.39-2.38,5.6,5.6,0,0,0-1.29-2,10.49,10.49,0,0,0-2.34-1.74,27.17,27.17,0,0,0-3.54-1.63l-2.1-.82q-1.12-.43-2.08-.88a7.41,7.41,0,0,1-1.71-1.09,4.85,4.85,0,0,1-1.18-1.48,4.43,4.43,0,0,1-.43-2,3.79,3.79,0,0,1,1.48-3.11,6.1,6.1,0,0,1,3.92-1.18,8.17,8.17,0,0,1,3.66.72,6.52,6.52,0,0,1,2.51,2.37l-2.1,1.37a3.74,3.74,0,0,0-1.56-1.46,5.62,5.62,0,0,0-2.46-.47,4.71,4.71,0,0,0-1.5.19,2.45,2.45,0,0,0-.88.49,1.53,1.53,0,0,0-.54,1.11,2.5,2.5,0,0,0,.13.84,1.68,1.68,0,0,0,.54.71,6.28,6.28,0,0,0,1.16.73,19.92,19.92,0,0,0,2,.86Zm-2.57,14.83a11.07,11.07,0,0,1-4.89-1,9.13,9.13,0,0,1-3.47-3.15l2.1-1.37a11.64,11.64,0,0,0,1,1.2,4.81,4.81,0,0,0,1.29.94,7.07,7.07,0,0,0,1.71.6,10.44,10.44,0,0,0,2.25.21q.39,0,1.09-.06a7,7,0,0,0,1.41-.28,3.48,3.48,0,0,0,1.24-.66,1.51,1.51,0,0,0,.54-1.22,2.32,2.32,0,0,0-.21-1,2.68,2.68,0,0,0-.73-.88,7.68,7.68,0,0,0-1.39-.88,23.89,23.89,0,0,0-2.21-1l-2.14-.81a29.32,29.32,0,0,1-3.11-1.44,12.22,12.22,0,0,1-2.64-1.89,7.92,7.92,0,0,1-2.53-6.11,7.93,7.93,0,0,1,2.85-6.15,10,10,0,0,1,3.21-1.78,12.35,12.35,0,0,1,4.05-.64q6.6,0,9.94,4.76l-2.06,1.41q-2.57-3.64-7.89-3.64a9.92,9.92,0,0,0-3.06.45,7.63,7.63,0,0,0-2.4,1.24,5.58,5.58,0,0,0-1.56,1.91,5.38,5.38,0,0,0-.56,2.44,6.75,6.75,0,0,0,.34,2.23,5,5,0,0,0,1.14,1.82,8.86,8.86,0,0,0,2.08,1.56,25.12,25.12,0,0,0,3.13,1.46l2.1.81q1.29.51,2.4,1.05a9.69,9.69,0,0,1,2,1.22,5.3,5.3,0,0,1,1.33,1.61,4.63,4.63,0,0,1,.49,2.21,4.36,4.36,0,0,1-.36,1.71,4.22,4.22,0,0,1-1.16,1.54,5.82,5.82,0,0,1-2.1,1.09A10.84,10.84,0,0,1,1028.75,537.85Z"/></g></g></svg>