<svg id="183365cf-5789-4ba9-a0ac-215390567d54" data-name="Layer 4" xmlns="http://www.w3.org/2000/svg" viewBox="0 0 707 512"><defs><style>.\39 8c3165f-91d4-4285-a44a-83603ddb8567{fill:none;}.bfab51f8-47ea-4c6d-ab68-4d58528bd767{fill:#e74c3c;}</style></defs><title>Artboard 5</title><line class="98c3165f-91d4-4285-a44a-83603ddb8567" x1="344.19" y1="254" x2="342.15" y2="242.06"/><polygon class="bfab51f8-47ea-4c6d-ab68-4d58528bd767" points="326.99 203.34 325.95 203.34 326.47 202.28 326.99 203.34"/><path class="bfab51f8-47ea-4c6d-ab68-4d58528bd767" d="M355,298.57c-11.59-15.35-26-14.72-32.58-7.83-6.58,7.52,7.2,12.53-3.13,26.62-1.88,2.2,2.82-.94,3.13-1.25,3.45-3.45,5-8.46,5-15.35-.31-6,2.51-9.08,8.46-9.08,17.85.62,30.07,28.19,16.91,50.43-15.66,26.62-49.17,34.46-80.18,20.36a148.51,148.51,0,0,1-13.79-8.77,131.45,131.45,0,0,1-22.86-22.87c-13.16,22.87-36,20-46.68,11.59v30.07H277v-7.2c35.4,14.09,69.54-.63,81.13-28.51C363.11,323,362.17,310.16,355,298.57ZM189.26,88.48V335.95c11.59,11.59,32.9,7.52,42.61-9.71,0-.31,0-.62.31-.62-43.23-61.4-29.76-154.75,44.79-207V88.48ZM344.37,270.16c-5-3.46-15.12-3.14-15.43-13.18a19.39,19.39,0,0,1,.38-5.16l-2.88-1.51-18.82,9.88,3.6-21L296,224.4l18.28-2.65a63.48,63.48,0,0,1-21-18.4H277v-80c-27.71,20.08-77.16,69.65-62.36,150.89,14.8,4.71,33.39,26.36,23.31,52.39A112.51,112.51,0,0,0,277,359.26v-86h70.86A16.41,16.41,0,0,0,344.37,270.16ZM425.59,231c2.8,5.94,19.28,11.26,35.15-1.26V159.07a18.3,18.3,0,0,1-.95-10.83.31.31,0,0,1,.32-.32c-24.55-24.85-59.17-27.39-88.12-13.38v2.55c12.9-1.27,23.6,3.19,31.47,13.06,12,15.93,5,27.71,7.55,31.22a6,6,0,0,0,5.66,3.18h.63c2.21,0,2.21.64.63,1.91a4.13,4.13,0,0,1-2.2,1,7,7,0,0,1-7.24-3.82c-4.09,8.6-10.38,14.33-19.19,16.24-.63,0-.63.32-1.26.32a46.59,46.59,0,0,1-34.15,27.21l-6.44,6.26a44.5,44.5,0,0,1,14.87-3c43.15,0,72.12,52.7,48.5,98.19-8.5,16.94-21.1,29.49-37.79,38.58v5.08h87.71V237c-2.8,1.57-4.05,2.51-4.36,2.51-20.53,11.89-41,5.63-51.94-6.89h-.31c-12.75-15.65-8.4-35.37,3.11-41.31,9-6.26,19.28-1.26,16.49,6.26a11.44,11.44,0,0,0-.32,3.44c-.31,3.75,3.43,6.26,2.18,7.51-1.86,1.88-12.13-5.63-10.26-12.21.31-1.25.62-2.19.62-2.19-.93-1.25-3.73-2.19-8.09.94-15.55,10.64-8.71,39.44,14.62,46.33,13.37,3.75,24.26,0,25.5-.63-10.88,2.82-29.54.94-33-13.15-3.11-12.52,10.88-7.82,12.44-26.29,0-.62.31-1.25.93-1.25.93-.31,1.24.31,2.49,2.19,0,.31.62,1.57.62,1.88C439.28,227.26,422.79,226,425.59,231ZM215.84,277.68A120.55,120.55,0,0,0,234,320.59C239,299.92,227.74,285.21,215.84,277.68Zm83-74.34c5,3.44,11,2.82,14.41,0ZM372,196.77v6.58H327l8.88,18L354,224c9.26-2.12,19-7.24,27.4-17.83a57.54,57.54,0,0,0,3.14-5.64A21.81,21.81,0,0,1,372,196.77Zm-53.57,6.58C315,209,310,211.17,303.07,209.6a58.64,58.64,0,0,0,14.69,10.3l8.19-16.56Zm68,101.59c-3.75-.63-6.89,2.51-14.4,3.45V353.8C397.05,333.45,395.79,306.18,386.39,304.93Zm-14.4-151v13.64a9.32,9.32,0,0,1,12.34,3.25c2.27,4.55-2.27,8.77.65,9.1.32.32.65,1,1,1.29,0,.33-.32.65-.65,1a.31.31,0,0,0-.32.32c-.33,0-.33.33-.65.33l-2.27.65h-.65c-7.47-4.87,1-7.15-.33-10.72-1.62-3.57-4.55-4.22-9.09-1.63v21.77c1.62,1.62,5.19,4.87,13.31,5.2h1C393.75,179,385.95,161.41,372,153.95Zm29.87,18.12c-2.23-.64-3.5-1.59-2.86-2.23,0-.31.31-.63.95-1h.64c4.13.32,7.3-2.54,6.35-7.63,0-4.13-12.07-23.83-34-21.6H372v11.44c14.61,6.67,24.78,24.78,17.47,46.39,15.89-3.81,18.12-19.07,19.07-20.66a71.28,71.28,0,0,0,.32-8.57C406.94,170.79,404.72,172.07,401.86,172.07ZM372,88.48v1.26A1.15,1.15,0,0,1,373.24,91c-.31.63-.62,1-1.25,1v40.64A85,85,0,0,1,418.25,125h.31c16.68,2.52,30.53,9.13,42.18,19.84V88.48ZM344.19,254c6.92,3.19,9.58,11.53,10.19,19.3H372v10.65c9.28-3.13,16.33-4.38,24,3.76V288c16.65,18.16,5.12,51-17.61,69.53-1.92,1.26-3.84,2.82-6.4,4.39v1.57c47.7-26,57.95-86.77,20.49-117.47-19.38-15.76-41.13-12-50.33-4Z"/><path class="bfab51f8-47ea-4c6d-ab68-4d58528bd767" d="M145,383.16c-1.83-4.45-7.25-6.8-12.87-4.55v-1.15H118.23v4.8c1.69-1.35,5.31-1.8,7.4,1.85a20.85,20.85,0,0,1,3.63-3.65,23.48,23.48,0,0,1,2.19-1.4c4.92-2.25,10.23-1,12.72,3.25,2.09,3.55.15,8-2.68,8a1.21,1.21,0,0,1-1.35-1.45,3.33,3.33,0,0,0-.79-2.45c0-.05-.8-.55-.5-.2,1.64,2.25-.55,3,.5,4.25s3.33,1.2,5.17-1.25A6.73,6.73,0,0,0,145,383.16Zm-20,1.75c-.05,0-.05,0-.05-.1-1.54-2.75-4.92-3.4-6.75-1.55v39.5h13.91V418C120.31,409.61,118.18,394.72,125,384.91Zm27.74,21.5c-1.84-.95-2.54-4.1-.5-6.6h.05a6.47,6.47,0,0,1,8.3-1.1s.25.15.7.4V377.47h-14v.85a14,14,0,0,1,6,6.15c3.73,7.25-.84,15.65-7.65,15.65-2.39,0-5.42-1.55-5.27-4.2,0-1.6,1.64-1.55,2.44-2.1a2.35,2.35,0,0,0,.54-.5H132.14v-13.7a17.85,17.85,0,0,0-6.16,5.2,6.46,6.46,0,0,1-3.68,8.35c-2.33,13,5.47,20.85,9.84,24.05V404.47h2.74a10.19,10.19,0,0,1,4.37-3.4,2.09,2.09,0,0,0,.35-3.2c-.15-.25.15-.5.79.15a2.38,2.38,0,0,1,.1,2.7,8.54,8.54,0,0,1,7.8,2,8,8,0,0,1,1.54,2.25c.1,0,.1,0,.2,0a4.3,4.3,0,0,1,3,2.55,1.11,1.11,0,0,1,1.15-.6.67.67,0,0,1,.35.15c.24.2.24.3-.1.3h-.1a1,1,0,0,0-.9.5c-.4.55.7,2.4-1.19,4.9a5.37,5.37,0,0,1-5,2v.4a11.92,11.92,0,0,0,13.92-2.1,0,0,0,0,1-.05,0,2.85,2.85,0,0,1,.15-1.7V400.27c-2.54-2-5.17-1.15-5.62-.2-.45.8,2.19.6.94,4.3,0,0-.1.25-.1.3-.2.3-.24.4-.39.35s-.15-.1-.15-.2c-.25-3-2.49-2.2-2-4.2.55-2.25,3.53-2.55,5.27-2.1a6.68,6.68,0,0,0-4.08-.1c-3.73,1.1-4.82,5.7-2.33,7.4.69.5,1.14.35,1.29.15,0,0,0-.15-.1-.35-.3-1,1.34-2.25,1.64-2s-.4.6-.35,1.2a1.87,1.87,0,0,0,.05.55C155.85,406.61,154.21,407.41,152.77,406.41Zm-27.44-20.7a19.43,19.43,0,0,0-2.88,6.85A6.17,6.17,0,0,0,125.33,385.72Zm10.29,18.75h2.29A1.93,1.93,0,0,0,135.62,404.47Zm13.67.45a9,9,0,0,0-.5-.9c-3.93-5-9.79-2.35-9.79-2.35a9.81,9.81,0,0,0-2.63,1.8,2.05,2.05,0,0,1,2.43,1h8.5v1A3.46,3.46,0,0,1,149.29,404.91Zm-2-26v.25c.4.25.7.5,1,.7,3.53,3,5.32,8.2,2.74,11.1v0c-1.2,1.3-2.29,1.1-3.73.6v1.7h-2.73c-.1,1.3-.55,2.7-1.74,3.15a2.35,2.35,0,0,0-.75.3.54.54,0,0,0-.1.4c.25,1.85,4.67,3.7,8.5.5C156.3,392.77,154.71,383.07,147.3,378.91Zm0,1.5v7.25c1.19.15,1.69.65,2.29.55C151.08,388,151.28,383.66,147.3,380.41Zm2.19,24.9h-.15a2.8,2.8,0,0,0-2,.8v3.35c.7.4,1.14.3,1.39-.25s-1.09-.9.05-1.65h.1l.35.1c.05,0,.05.05.1.05a0,0,0,0,0,.05,0s.1.1.1.15-.1.15-.15.2c-.45,0,.25.7-.1,1.4a1.42,1.42,0,0,1-1.89.5v2.1A5.3,5.3,0,0,0,149.49,405.32Zm2.48,4.1a1.29,1.29,0,0,1,1.09.6c0-.5,0-1,0-1.35a4.28,4.28,0,0,0-3-3.25,5.73,5.73,0,0,1-2.73,7.3v1.8h.15a5.14,5.14,0,0,0,5.32-3.4.92.92,0,0,0-1-1.2h-.1q-.15-.07-.15-.15C151.42,409.66,151.62,409.52,152,409.41Zm2.69,7.55h0a13.39,13.39,0,0,1-7.31-1.2v6.45c.1,0,.15,0,.2.15a.18.18,0,0,1-.2.2v.2h14v-9A12.24,12.24,0,0,1,154.66,417Z"/><path class="bfab51f8-47ea-4c6d-ab68-4d58528bd767" d="M195.65,405.57c-.24.65,1.5.15,1,2.85,0,.1-.1.15-.1.25s0,.1,0,.15-.1.15-.15.1-.1,0-.1-.15c-.35-1.55-1.19-1.35-1.59-1.9a.85.85,0,0,1-.2-.75c.3-1.8,2.44-2,3.43-2a4.64,4.64,0,0,0-2.83.3c-2.44,1.1-2.79,4.4-.9,5.3.4.2.65.2.85,0a0,0,0,0,0,0,0c0-.2-.55-.75.44-1.6,0,0,.3-.25.4-.15s-.2.5-.15.9.2.35.2.7c0,1-1.74,1.1-2.58,0a3.08,3.08,0,0,1-.15-3.95,4.48,4.48,0,0,1,5.61-1.55,5.72,5.72,0,0,1,2,1.5l.35.45c-.15-6.2-3.68-16.25-18.44-16.25-5.61,0-10,1.6-13.37,4.75a16.26,16.26,0,0,0-4.92,12.15,15.93,15.93,0,0,0,5.82,12.8c3.18,2.6,7.3,3.9,12.47,3.9a23.08,23.08,0,0,0,8.65-1.5,16.22,16.22,0,0,1-10.69-2.1c-9.14-5.15-11.08-15.2-7.55-21.9a0,0,0,0,1,0-.05c-.84-1.15-3.23-2.65-5.17.05-.1.1-.15.15-.2.1s-.1-.1-.05-.3a2.47,2.47,0,0,1,2.09-1.85,3.51,3.51,0,0,1,3.73,1.45,13.34,13.34,0,0,1,2.13-2.8,11.29,11.29,0,0,1,2.69-2,10.34,10.34,0,0,1,9.14-1.3,9.72,9.72,0,0,1,4.92,3.65c3.48,4.7.9,11-3.53,11.6v.65a5.15,5.15,0,0,1,3.19,2.3h.15a3.11,3.11,0,0,1,2.28,1.5.89.89,0,0,1,.7-.55c.1,0,.2.05.29.05v0c.2.1.2.2,0,.2h-.05a.64.64,0,0,0-.65.75,3.86,3.86,0,0,1-.3,3.15v0a4,4,0,0,1-3.83,1.85l-.11,0a8.32,8.32,0,0,0,8.17-.63,16.39,16.39,0,0,0,2.53-8.9C199.33,403.82,195.95,404.36,195.65,405.57Zm-4.92-9.6a6.83,6.83,0,0,0-6.46-4.25,11.52,11.52,0,0,0-10.43,6.1,4.58,4.58,0,0,1-1.79,6.1v1.2c0,8.9,7,14.5,13.32,16.15-.35-.2-.75-.4-1.15-.65a7.94,7.94,0,0,1-3.38-5.8,5.23,5.23,0,0,1-2.33-1.7c-1.15-1.4-1.74-3.5-1.74-6.4,0-7,3.73-8.4,6.21-8.4a5.11,5.11,0,0,1,3.23,1.15c1.79-2.2,3.33-1.55,3.33-1.55a1.72,1.72,0,0,0,.85.05C190.78,397.86,191.08,396.91,190.73,396Zm-17.24,2.55a13.33,13.33,0,0,0-1.39,5A4.35,4.35,0,0,0,173.49,398.52Zm13.62,14.75a5.52,5.52,0,0,1-4.23,1.9,6.65,6.65,0,0,1-1.74-.25c0,.7,1.14,7,8.6,7,1.39,0,2.19-.45,2.29-.2v.05a15.47,15.47,0,0,0,6.21-5.2C192.72,419.47,186.61,415.47,187.11,413.27Zm6.31-15.45a9.07,9.07,0,0,0-7.61-6.55,9.3,9.3,0,0,1,2.89,1.1c2.38,1.5,4.62,4.9,2.88,7.4-1,1.55-2.34.6-3.68.65a2.51,2.51,0,0,0-.6.1,9.15,9.15,0,0,1,1.59,5.5,5.87,5.87,0,0,0,.8-.2C192.87,404.72,194.21,401,193.42,397.82Zm-1.59,12h-.05c-2,.4-2.24,2.45-1.05,3q.75.3.9-.3c.1-.4-.8-.5-.1-1.15l.05,0h0c.25.1.35.1.25,0h0a0,0,0,0,0,.05,0c.05.05.05.05.05.1s0,.15-.05.15c-.3.15.19.45.05,1v0a1,1,0,0,1-1.4.45h0a1.57,1.57,0,0,1-.79-2,2.25,2.25,0,0,1,1.89-1.6,5.08,5.08,0,0,0-2.79-2,10.87,10.87,0,0,1-1.14,4.85c.4-.25,1-.25.75-.8-.15-.25.35-.3.79.1v.05c.15.75-.05,1.15-.69,1.15h0a.87.87,0,0,0-.75,1.5c.7,1,2.93,1.55,4.28-1A4,4,0,0,0,191.83,409.77Zm2,2.9h-.05c-.05,0-.1,0-.1,0a.09.09,0,0,1,0-.15.79.79,0,0,1,1,.15,2.9,2.9,0,0,0-2.48-2.85,4.19,4.19,0,0,1,.14,3.75c-.84,1.65-2.08,2.35-3.67,2a4,4,0,0,0,2.63.8,3.81,3.81,0,0,0,3.18-2.25,1.93,1.93,0,0,1,.1-.55v-.05a.62.62,0,0,0-.1-.5A.73.73,0,0,0,193.82,412.66Z"/><path class="bfab51f8-47ea-4c6d-ab68-4d58528bd767" d="M214.64,398.86c.1,0,.3-.1.4-.1h0c2.49-.7,3.58-.1,4.08.35h2.53a6.38,6.38,0,0,0-1.54-7.2A11.07,11.07,0,0,0,209,389a2.82,2.82,0,0,0-.2.6,4.32,4.32,0,0,1-5,2.4h-.15a12.91,12.91,0,0,0-1.64,1.7v5.45h4.53v3.7a7.6,7.6,0,0,1,3,.15,1.33,1.33,0,0,0,1.44-1.45v-.15c0-.2.35,0,.35.45a1.48,1.48,0,0,1-1,1.45,5.81,5.81,0,0,1,3.38,4.2,5.46,5.46,0,0,1-.1,1.8.11.11,0,0,0,.1.1,2.83,2.83,0,0,1,.55,2.6.7.7,0,0,1,1,.35c.05.15,0,.2-.15.1a.78.78,0,0,0-.74-.15c-.4.2-.6,1.6-2.59,2.15a3.61,3.61,0,0,1-3.82-1.3s0,0,0,0a7.89,7.89,0,0,0,8.43,5.11l0-.05A1.92,1.92,0,0,1,219,417c.1,0,.15.1.25.1a5.8,5.8,0,0,0,2.14-2.75c-2.24,0-2.49-1.45-2.49-3.8V409c-.15,0-.35.15-.35.25-.15.15.85,1.1-1,2.5a.73.73,0,0,0-.2.1.39.39,0,0,1-.15,0c-.64.2.25-.6.2-1.4a11.73,11.73,0,0,1-.2-1.2.94.94,0,0,1,.4-.65,1.77,1.77,0,0,1,1.34-.35v-.35a3.32,3.32,0,0,0-3.23.6c-1.79,1.65-.4,3.25-.15,3s.3-.8,1.39-.75H217c.15,0,.2.1.2.15s-.5.2-.69.5-.2.8-.75.8c-1,0-1.44-1.3-1.39-1.9,0-1.45.89-2.4,2.58-2.8a4.84,4.84,0,0,1,1.89,0v-1.9a5.71,5.71,0,0,1-5.61-.65c-1.15-.9-2.29-3-1.15-4.35a1.45,1.45,0,0,1,.8-.45c.3,0,1.14.3,1.34.3a2,2,0,0,0,1.39-.45.15.15,0,0,1,.2,0c.15.2-.15.45-.15.5s0,0,0,.1c-.45.6-1.39,1.6-2.38,1.25h-.1a.76.76,0,0,0-.4-.1c-.25,0-.65.65,0,1.85.94,1.55,3.23,2.65,6.11,1.55v-2.9c-.94-.2-1.34-1.4-2-2-1-.9-2.63-.75-2.63-1S214.49,399,214.64,398.86ZM202,390.11v2.8a17.84,17.84,0,0,1,3.23-2.8Zm1.94,1.55h.35a4,4,0,0,0,3.93-2.45A13.59,13.59,0,0,0,203.95,391.66Zm2.59-7.45v.4a3.27,3.27,0,0,1,2.48,3.85,11.91,11.91,0,0,1,3.33-.45h.05a14.44,14.44,0,0,1,6.46,1.75v-11.9Zm0,1v4.2a10,10,0,0,1,1.83-.75v-.1A2.66,2.66,0,0,0,206.54,385.22Zm18.58,28.3a18,18,0,0,1-3.33.8,9.84,9.84,0,0,1-1,1.85,7,7,0,0,1-1.24,1.1,1.78,1.78,0,0,1,.84,1.7c-.1.65-.39,1-.84,1.15l-.05,0c-.55,0,.1-.4.35-.75a1.61,1.61,0,0,0,.09-.85,1.56,1.56,0,0,0-.74-1,7,7,0,0,1-7.8,0,8.93,8.93,0,0,1-4.43-7.65,1.76,1.76,0,0,1,.9-1.55c1-.4,1.64.7,1.94,0a.13.13,0,0,1,.15-.15c.05,0,.09.1.19.25a1.46,1.46,0,0,0,.1.45v0c-.15.15-.59,1-1.24.3a1,1,0,0,0-.89-.35c-.9.35-.8,1.4-.5,2,1.34,2.25,4.87,1.4,5.67-1.55-.05,0-.05,0-.05,0a2.12,2.12,0,0,0-1.1-.4c-1.14,0-2,.8-1.64,1.8.35.75,1.1.55.95,0,0-.35.15-.5.59-.4l.2.25v0c.05,0,.05,0,0,.1s-.25,0-.3.1c-.34,1.15-1.44.85-1.74,0v0a1.48,1.48,0,0,1,.8-2,2,2,0,0,1,2.33.25,4,4,0,0,0,.1-.75,5.35,5.35,0,0,0-3.77-5A7.13,7.13,0,0,0,207,403a1.36,1.36,0,0,1,.7,2,.11.11,0,0,1-.2,0v-.15a1.38,1.38,0,0,0-1-1.5v7.15c0,3.6.34,6.25,1,7.8,2,4.6,6.46,4.75,9.94,4.75a40.07,40.07,0,0,0,8.5-1Zm-11.63-4a4,4,0,0,1-2.38,2.7h0a3,3,0,0,1-3.78-1.15,3.83,3.83,0,0,0,1.24,2.25,3.48,3.48,0,0,0,4.18.35.63.63,0,0,0,0-1.05c-.05,0-.1,0-.1-.15s0-.1.15-.1.15.05.25.1a.75.75,0,0,1,.34.7,1.94,1.94,0,0,0,.5-.7c.05-.15.05-.2.1-.25A2.59,2.59,0,0,0,213.49,409.57Zm3.23,8.55a7.58,7.58,0,0,0,1.89-.65.62.62,0,0,1,.15-.1A1.82,1.82,0,0,0,216.72,418.11Zm2.69-28a9.53,9.53,0,0,1,4.22,9h1.94v-9Zm2.09,2.45a8,8,0,0,1,1.19,6.55h.59A9.08,9.08,0,0,0,221.5,392.57Z"/><path class="bfab51f8-47ea-4c6d-ab68-4d58528bd767" d="M262.3,401.16l-.05,0a2.13,2.13,0,0,1-1.19-2.75c.14-.2.14-.25.14-.25-1.83-3-6.31-3.75-8.15-1.15-.64,1.15-.29,1.65-.1,1.65.2.15,1.25-.8,2.54,1.2l.05,0c0,.15.15.15.15.3s-.15.35-.25.2a2.24,2.24,0,0,0-1.19-.45c-.7,0-1.25.55-1.94-.25-1.05-1.3.2-3.1,1.19-3.85h-.05c-2.29,1.5-2.63,4.4-1.29,5.85,1.64,1.9,3.28.6,3.13.25-.15-.15-.84-.1-.79-1.5,0,0,0,0,0-.15s.1-.25.15-.25c.2,0,.1.5.55.8s.8.2.8.8c0,1.1-1.45,1.45-2,1.4-1.59-.1-2.54-1-2.89-2.8a4.62,4.62,0,0,1,3-5.05,6.22,6.22,0,0,1,6.11,1.3,7.15,7.15,0,0,1,1.14,1.3l.1-.1c-4.32-8-13.22-8-16.85-8-5.66,0-10,1.55-13.26,4.7a16.25,16.25,0,0,0-4.83,12.2,19.44,19.44,0,0,0,.4,3.9,5,5,0,0,1,.35-.75,3.53,3.53,0,0,1,3.68-1.55,15.41,15.41,0,0,1-.4-3.55,13,13,0,0,1,.55-3.35,10.53,10.53,0,0,1,5.71-7.35c3-1.4,8.15-1.85,11.38,2.35a8.84,8.84,0,0,1,1.15,2.4,8.58,8.58,0,0,1,1.78,5h-2.38a4.33,4.33,0,0,1-.35.5c-.89,1.1-3.08,2.4-4.57,1.1a1,1,0,0,1-.45-.85,2.51,2.51,0,0,1,.15-.7v0h-4.47c.1-1.1.45-4.65,3.63-6.15a6.32,6.32,0,0,0,.94-.7c.4-.75-.89-1.85-2.73-2.25a7.26,7.26,0,0,0-6.07,2,11.69,11.69,0,0,0-3.33,11.75,4.33,4.33,0,0,0,.6.25,4.66,4.66,0,0,1,2.44,5.3.39.39,0,0,0-.05.15,10.58,10.58,0,0,0,.79.9c5.72,5.85,14.31,6.1,20.92,2.3-.29.1-.69.2-1.24.35h-.05a8.06,8.06,0,0,1-6.81-2.05,6.81,6.81,0,0,1-2.83.6c-2.09,0-5.61-.85-6.26-6.5h6.86a5.86,5.86,0,0,1,.25-1.5,1.39,1.39,0,0,0-1.45-1.6h-.15c-.29,0,0-.35.45-.35a1.62,1.62,0,0,1,1.49,1.1,6.2,6.2,0,0,1,4.48-3.45,5.91,5.91,0,0,1,1.94.15l.09-.1a2.87,2.87,0,0,1,2.69-.55.79.79,0,0,1,.4-1.05h0c.14,0,.19.05.09.2a.66.66,0,0,0-.19.75c.19.5,1.64.7,2.18,2.8a4,4,0,0,1-1,3.6h.6A8.39,8.39,0,0,0,262.3,401.16ZM260.66,414a18.49,18.49,0,0,1-17.25,5.75c-6-1.25-10.78-5.7-12.22-10.9h-.1a3.24,3.24,0,0,0-2.34.4,2.77,2.77,0,0,0-1.39,2.9,16.46,16.46,0,0,0,1.59,3.6c3.28,5.4,7.8,7.5,16.05,7.5,4.92,0,8.65-.7,11.23-2.05a17.59,17.59,0,0,0,6.71-6.95Zm-28.93-5a14.73,14.73,0,0,0,2.49,4.55.74.74,0,0,1,.05-.3A4.28,4.28,0,0,0,231.73,409Zm16.95-11.15c-1.94-4.55-8.1-6.35-13-2.85,3.73-2.5,9.19-1.5,10.09,1.9a6.34,6.34,0,0,1,3,1.1C248.73,398,248.68,397.91,248.68,397.86Zm-3.43,5.7a1,1,0,0,1-.1.45c0,.1-.15.35-.1.55.1.55,1.84.65,3.08-1Zm7.66.65a2.12,2.12,0,0,0-.3,2.25c.79,1.5,2.53.7,2.08-.15-.24-.3-1,.15-.84-.75v0c.15-.15.2-.1.3-.2h0a.18.18,0,0,1,.15,0v.15c-.2.25.44.1.74.65a1.07,1.07,0,0,1-.69,1.35h-.05a1.53,1.53,0,0,1-2-.9,2.2,2.2,0,0,1,.25-2.5c-3.23-.65-6.27,2.2-6.41,5.4h5.51c-.1-.8.75-1.35.05-1.65-.05,0-.1,0-.1-.15,0-.25.6-.25.75-.3.15.15,1,.65.3,1.35-.3.25-.45.5-.4.75h2.88C256.43,407.82,255.59,405,252.91,404.22Zm-2,8.85a7.41,7.41,0,0,1-2.44,2.2,7.76,7.76,0,0,0,5.17,2,9.28,9.28,0,0,0,6.71-3.3Zm6.61-8.15c-.55-.75-1.1.1-1.25.1s0,0,0-.1v0a.45.45,0,0,1,0-.25.93.93,0,0,1,.8-.35c-.3-.25-.55-.4-.75-.55a2.82,2.82,0,0,0-3.08.25,4.05,4.05,0,0,1,2.74,2.6,3.78,3.78,0,0,1-.25,3h1.19A3.66,3.66,0,0,0,257.48,404.91Zm4.22-6.85s0,0,0,.1c2.54,4.3.4,9-3.13,11.3a0,0,0,0,0-.05,0h5.17v-1.4A22.63,22.63,0,0,0,261.7,398.07Zm-.1.7a.26.26,0,0,1-.1-.2,1.87,1.87,0,0,0,.7,2.2h.05A11.76,11.76,0,0,0,261.6,398.77Z"/><path class="bfab51f8-47ea-4c6d-ab68-4d58528bd767" d="M265.67,378.32v9.5l1.15-.25a17.59,17.59,0,0,1,4,0,5,5,0,0,1,2.79-.7.18.18,0,0,1,.15,0,16.56,16.56,0,0,0,3.52-8.55Zm0,10v3.5a9.87,9.87,0,0,0,3-1,3.69,3.69,0,0,1,.1-.6,4.13,4.13,0,0,1,1.34-2.2A11.9,11.9,0,0,0,265.67,388.36Zm5.67,10.15c.2,0,3.28-1.8,5,0,0,0,.7,1.25,1.64.3v-5.75a9.42,9.42,0,0,0-5.22-4.4,13,13,0,0,1-3.43,2.45v.1a3.16,3.16,0,0,0,2.93,3.3,4.41,4.41,0,0,0,1.4-.3c.84-.2-.45,1.6-2.74.65a3.5,3.5,0,0,1-2.23-3.4,16.64,16.64,0,0,1-3,1v11.35h.7a1.42,1.42,0,0,0,1.29-1.75s0,0,0-.15a.13.13,0,0,1,.25,0,1.5,1.5,0,0,1-.6,2.15c3.19.9,4.68,3.4,4.48,5.8.05,0,.05,0,.15,0a3.19,3.19,0,0,1,1,2.6.82.82,0,0,1,1.09.2v.05q.08.22-.15.15s-.09,0-.09,0a.6.6,0,0,0-.7,0c-.5.3-.35,1.8-2.39,2.7a3.88,3.88,0,0,1-4.27-.7,8.34,8.34,0,0,0,9.79,3.9v-.05A2.2,2.2,0,0,1,278,417v-8.5a1.27,1.27,0,0,0-.94.15c-.1.1-.15.15-.15.2a1.54,1.54,0,0,0,.2.45c.54,1.15-1,2.5-1,2.5a.72.72,0,0,1-.15.1c-.2.05-.35,0-.25-.2.7-1.45-.14-2-.14-2.5s.69-1.75,2.48-1.3v-.25a3.61,3.61,0,0,0-4.22,1c-1.4,1.75-.3,3.2.24,3.2.35,0-.1-.9,1.45-1.1h.14c.15,0,.25,0,.25.15s0,.1-.1.15c-1,.5-.29,1.25-1.19,1.45-1.09.2-1.69-1.1-1.79-1.75-.35-2.9,2.83-4.25,5.22-3.45v-3.2c-4.42,4-9.59,1-9.59-2.1a1.5,1.5,0,0,1,1.79-1.65c1.64.4,2.38-1.3,2.38-.5a.29.29,0,0,1-.05.2.3.3,0,0,1-.05.2s-.89,2.1-2.33,1.8h-.1a.81.81,0,0,0-.5,0c-.2,0-.6.8.35,2,2,2.3,6,1.85,8.1-.5v-2.65a7.69,7.69,0,0,1-.89.55h0c-1.69.7-2.34-.9-3.43-1.65a4.49,4.49,0,0,0-2.69-.55C270.4,399.22,270.84,398.82,271.34,398.52Zm-2.43,11.25a2.22,2.22,0,0,1,2.53-.2v-.75c-.89-4.5-5.37-4.65-5.42-4.7h-.35v5.65c.9-.45,1.69.45,1.89-.35,0-.1,0-.15.1-.15.25,0,.4.6.45.7v0c-.3.75-.75.9-1.24.55v0a1.1,1.1,0,0,0-1-.2c-.1,0-.15.1-.2.1v2.05h.05c1.54,1.95,5.27.9,5.72-2.55a.15.15,0,0,0-.1,0,2,2,0,0,0-2.24.15c-1.24,1.1-.24,2.65.5,2.1a.45.45,0,0,0,.1-.45v0c-.1-.3.05-.5.5-.55h.05a1.11,1.11,0,0,1,.25.2s0,0,.05.1-.05.2-.15.2c-.35,0-.05.5-.55.85a1,1,0,0,1-1.44-.4v0A1.6,1.6,0,0,1,268.91,409.77Zm2.83.4a4.3,4.3,0,0,1-2.14,3.2,3.25,3.25,0,0,1-3.93-.25v.35a3.88,3.88,0,0,0,5.47,1.55l.4-.35a.69.69,0,0,0,.25-.5.72.72,0,0,0-.4-.65s-.1,0-.1,0-.05-.05-.05-.1.05,0,.1-.1h0c.2,0,.6.15.75.75.09-.2.24-.5.39-.85A2.92,2.92,0,0,0,271.74,410.16Zm-6.07,4.15v8.45H278v-4.45C273,421.32,267.51,418.07,265.67,414.32Zm5.22-26.15a3.93,3.93,0,0,0-1.44,2.35,13.18,13.18,0,0,0,2.78-2A12.56,12.56,0,0,0,270.89,388.16Zm2.29-.95a5.93,5.93,0,0,0-1.44.45,6.46,6.46,0,0,1,1.09.25c.15-.15.35-.4.65-.7Zm4.57-8.9a17.07,17.07,0,0,1-4.37,9.75,11.17,11.17,0,0,1,4.62,3v-12.8Zm-1.14,40.25v0c.5-.25.94-.5,1.39-.75v-.4A2,2,0,0,0,276.61,418.57Zm.64-27.75q.23.3.75.9v-.1C277.75,391.36,277.5,391.07,277.25,390.82Z"/><path class="bfab51f8-47ea-4c6d-ab68-4d58528bd767" d="M372.72,377.47v3.65a4.05,4.05,0,0,1,1.76-.25,4.69,4.69,0,0,1,4.25,3.3,21.66,21.66,0,0,1,3.9-2.85,18.37,18.37,0,0,1,4.3-1.5,15.13,15.13,0,0,1,12.45,1.8v0a13.24,13.24,0,0,1,4.6,5.5h6.25v-9.7Zm0,4.45v13.45a20.41,20.41,0,0,1,5.3-10.5C377.62,383.61,375.87,380.86,372.72,381.91Zm16.56,40.5a25.55,25.55,0,0,1-15.81-15.95,16,16,0,0,1-.75-3v19.25h17.76C390.13,422.66,389.73,422.57,389.28,422.41Zm15.6-28a12.63,12.63,0,0,1-.7,2.2,9.38,9.38,0,0,1-4.9,4.9,7.22,7.22,0,0,1-4.2.5c-2.15-.35-4.85-2.2-4.35-4.65.3-1.45,1.65-1.2,2.6-1.6a2.91,2.91,0,0,0,1.35-1.35h-7.91v-7.2h14.71c-.1-.2-.1-.2-.1-.3A9.71,9.71,0,0,0,395,381a15.64,15.64,0,0,0-16,3.85c0,.2,0,.5.09.85v0a6.22,6.22,0,0,1-4.75,6.35,21.68,21.68,0,0,0-1.2,10A24.13,24.13,0,0,0,385,419.82a10.3,10.3,0,0,1-1.19-1.25,10.52,10.52,0,0,1-1.51-11.35,10.1,10.1,0,0,1,6.66-5.3,1.46,1.46,0,0,0,.8-.65,2.07,2.07,0,0,0,0-2.3c-.05-.05-.05-.1.05-.15s.45.15.7.45a2.2,2.2,0,0,1-.35,2.55,8.43,8.43,0,0,1,5.9,1.75h4.5a6.47,6.47,0,0,1,.8-.9,6.13,6.13,0,0,1,7.15-.4v-7.9Zm-26.65-8.7a17.68,17.68,0,0,0-3.71,5.85A5.78,5.78,0,0,0,378.23,385.66Zm33.45,21.65c-1.45-3.2-4.25-3.9-5.95-2.65s.85,2.7-1.8,5c-.2.2-.15.25.15.1s1.7-.6,2.15-3,3.45-1.65,4.5.45a7.78,7.78,0,0,1,.85,3,8.11,8.11,0,0,1-1.25,4.2,10.48,10.48,0,0,1-9.25,4.5c-5.25-.2-9.35-3.7-10.65-6.45h-3.66v-8a2.1,2.1,0,0,0-2.29.45,13.24,13.24,0,0,0-1,1,10.23,10.23,0,0,0-.39,10.85,12.46,12.46,0,0,0,10.35,5.9h17.45v-8.3A8,8,0,0,0,411.68,407.32Zm-22.3-5a10.22,10.22,0,0,0-3.4,1.4,2.55,2.55,0,0,1,.79.1v-.25h8.56A8.3,8.3,0,0,0,389.38,402.32Zm1.85,10.2c1.25,1.5,3.5,1.4,5.2,0Zm9,0s0,0-.05,0h-3c-1.15,1.15-3.35,2.4-5.55,1.1l.35.45a5.72,5.72,0,0,0,3.7,1.7,4.84,4.84,0,0,0,4.45-2.4A1.06,1.06,0,0,0,400.23,412.57Zm1.2-18.2c-1.65,1.3-2.9.2-3.5,0h-2.75v.6a6.66,6.66,0,0,1-.65,2,2,2,0,0,1-1.55,1.2s-.85.05-.85.55a1.86,1.86,0,0,0,.45,1.15c3.2,3.45,10.3,1,11.75-5.5Zm-.55,18.15a5.19,5.19,0,0,1-7.1,3.2h-.05l-.2-.1a11.44,11.44,0,0,0,14.2.8v0a2.81,2.81,0,0,1,2.45-3.2c.2,0,.35-.1.4-.1.1-.2.2-.35.3-.55ZM397.18,381a13.74,13.74,0,0,1,3.35,2.6,11.68,11.68,0,0,1,2.15,3.6h.75A12.56,12.56,0,0,0,397.18,381Zm3.9,22.6h1.8c.75-1.6,3.15-2,5.2-1.1C406.33,401.57,403.13,401.11,401.08,403.57Zm3.45-.15a.18.18,0,0,0-.05.15h4.05v-.15C407.18,402.61,405.13,402.47,404.53,403.41Zm3.65,12.6v0a8.75,8.75,0,0,0,2.05-2.35A2.61,2.61,0,0,0,408.18,416Z"/><path class="bfab51f8-47ea-4c6d-ab68-4d58528bd767" d="M420.22,413.66a3.93,3.93,0,0,1-.55-.9l-6.2.6a11.29,11.29,0,0,0,4.8,7.15c2.45,1.65,6.65,2.45,12.55,2.45,1.85,0,3.6-.1,5.16-.25A19.09,19.09,0,0,1,420.22,413.66Zm-.5-16.75a.17.17,0,0,1-.05-.1,2.94,2.94,0,0,0-4-1.35,9.33,9.33,0,0,0-.85,3.95,8.52,8.52,0,0,0,2.9,6.5A15.15,15.15,0,0,1,419.72,396.91Zm10.75-7.55c-7.1,0-11.55,1.35-14.3,5.3a3.53,3.53,0,0,1,4,1.6,15.79,15.79,0,0,1,2.4-2.75,14,14,0,0,1,2.9-2c6.8-4,15,.25,15.81,6.9l5.35-.55C443.58,390.16,438.23,389.36,430.47,389.36Zm17.21,22.45a8.75,8.75,0,0,0-3.16-6.75c-1.69,0-2.09.9-1.89,1,0,.2,1.5.45.89,2.8,0,.05,0,.15,0,.25a.15.15,0,0,0-.05.1c-.1.1-.16.15-.2.15-.21,0-.15-.9-.65-1.4a2.57,2.57,0,0,0-.51-.4,1.55,1.55,0,0,1-.5-.4c-.44-.6-.14-2.4,2.36-2.65-.1,0-.16,0-.2-.15-4.16.15-4.91,4.6-2.8,5.75.34.2.59.25.84.1a0,0,0,0,1,.05,0c.06-.2-.55-.75.56-1.65.1,0,.3-.25.45-.1v.15a.89.89,0,0,0-.2.7c0,.4.14.5.14.8a.51.51,0,0,1-.25.45.66.66,0,0,1-.5.25c-1.54.35-3.75-2.15-1.84-4.9a4.61,4.61,0,0,1,3.15-1.8c-.45-.25-1.06-.55-1.85-.9l-1-.35c-2.71,5.45-9,4-9.16,1,0-1.15.95-1.15,1.65-1.65a1.9,1.9,0,0,0,.6-.8l-1.2-.15H432c-4.45-.55-6.15-1.15-6.15-2.85,0-1,.65-2.55,4-2.55a5.07,5.07,0,0,1,4.61,2.15,2.57,2.57,0,0,1,2.25-.3,1.49,1.49,0,0,0,.79,0c.55-.1,1.1-1.4-.2-3.55a7.33,7.33,0,0,0-5.75-3.15,11.94,11.94,0,0,0-11.15,5.7,4.67,4.67,0,0,1-2.15,6.2,15.09,15.09,0,0,0,0,3.4c1.5,1.25,3.25,2,10.05,3.3a7.57,7.57,0,0,1,2.55-2.1,1.45,1.45,0,0,0,.15-2.2.11.11,0,0,1-.1-.1.09.09,0,0,1,0-.15c.25-.35,1.5,1,.8,2.15a5.89,5.89,0,0,1,7,2.45h.09a3.4,3.4,0,0,1,2.36,1.7.73.73,0,0,1,.75-.5.48.48,0,0,1,.25.05h.05c.15.15.15.25-.05.25h-.11a.7.7,0,0,0-.64.4c-.2.4.64,1.7-.5,3.6a4.08,4.08,0,0,1-4.06,1.7h0l-.14,0a8.67,8.67,0,0,0,10.4-1.65c0-.15,0-.15.15-.55a2.32,2.32,0,0,1,.4-1.8A6.09,6.09,0,0,0,447.68,411.82ZM420,397.47a13.35,13.35,0,0,0-1.65,5S421.17,400.47,420,397.47Zm10,23.3a8.07,8.07,0,0,1-3.25-6.5,7.22,7.22,0,0,1-1.05-2l-5.55.5a18.14,18.14,0,0,0,11,8.8C430.87,421.36,430.52,421.11,430,420.77Zm4.5-5a.12.12,0,0,1-.1-.1,7.22,7.22,0,0,1-2.95.55c-2.65,0-3.85-1-4.4-1.6,0,4.45,4.8,8.45,10.16,7.6.39,0,.64-.2.79,0v0c6.61-1.5,8.36-5.65,8.66-6.25A9.32,9.32,0,0,1,434.52,415.82Zm3.35-6.7a5.69,5.69,0,0,0-6.65-1.3l-.5.2a11.66,11.66,0,0,0-1.8,1.4,1.61,1.61,0,0,1,1.85.6.15.15,0,0,0,.05.1c3.45.65,4.8,1,5.41,2.25a1.87,1.87,0,0,1,0-1.1,2.38,2.38,0,0,1,2-1.55Zm-8.4.75.17,0S429.55,409.86,429.47,409.86Zm4.76-8.35c.09,2.4-1.16,2.6-1.21,2.6-.4.2-.4.3-.4.5.2,1.1,2.11,1.7,3.81,1.25a6,6,0,0,0,3.64-3.15A37.06,37.06,0,0,0,434.23,401.52Zm6.59-3a9.32,9.32,0,0,0-7.65-7.9,10.28,10.28,0,0,1,3,1.35c1.11.8,4.06,3.4,3.15,6.7Zm-.44,14.6c-.06,0-.06,0-.11,0l-.09-.1s0-.1.05-.15a.31.31,0,0,1,.25-.1.78.78,0,0,1,.79.3,4.36,4.36,0,0,0-.2-1.2,2.72,2.72,0,0,0-2.2-1.85,4.44,4.44,0,0,1,0,3.85,3.49,3.49,0,0,1-3.9,1.85,4.25,4.25,0,0,0,2.6.9,3.78,3.78,0,0,0,3.46-2.15l.2-.5v0A.71.71,0,0,0,440.38,413.11Zm-2-3.1h-.06a2.12,2.12,0,0,0-1.85,1.3c-.45,1.65,1.25,2.45,1.6,1.5a.62.62,0,0,0-.19-.4c-.45-.35.05-.65.19-.8l.06,0h.19c.06.05.06.05.11.05h0c.05.1.05.1.05.15a.11.11,0,0,1-.09.1c-.25.2.2.5,0,1-.46.9-1.8.6-2.16-.35a1.88,1.88,0,0,1,0,.55,2.41,2.41,0,0,1-1.3,2.15,2.91,2.91,0,0,0,3.41-1.65A3.94,3.94,0,0,0,438.43,410Z"/><path class="bfab51f8-47ea-4c6d-ab68-4d58528bd767" d="M461.62,398.86c.1,0,.3-.1.4-.1h.05c2.5-.7,3.6-.1,4.1.35h2.56a6.38,6.38,0,0,0-1.56-7.2A11.19,11.19,0,0,0,455.92,389a2.83,2.83,0,0,0-.2.6,4.35,4.35,0,0,1-5,2.4h-.15a12.48,12.48,0,0,0-1.65,1.7v5.45h4.55v3.7a7.69,7.69,0,0,1,3,.15,1.34,1.34,0,0,0,1.45-1.45v-.15c0-.2.35,0,.35.45a1.48,1.48,0,0,1-1,1.45,5.85,5.85,0,0,1,3.4,4.2,5.46,5.46,0,0,1-.1,1.8.11.11,0,0,0,.1.1,2.83,2.83,0,0,1,.55,2.6.71.71,0,0,1,1,.35c.05.15,0,.2-.15.1a.81.81,0,0,0-.75-.15c-.4.2-.6,1.6-2.6,2.15a3.65,3.65,0,0,1-3.85-1.3s0,0,0,0a7.94,7.94,0,0,0,8.48,5.11l.05-.05A2,2,0,0,1,466,417a.46.46,0,0,0,.25.1,5.8,5.8,0,0,0,2.14-2.75c-2.25,0-2.5-1.45-2.5-3.8V409c-.14,0-.35.15-.35.25s.85,1.1-1.05,2.5a.73.73,0,0,0-.2.1.39.39,0,0,1-.15,0c-.65.2.25-.6.2-1.4a11.74,11.74,0,0,1-.2-1.2.94.94,0,0,1,.4-.65,1.79,1.79,0,0,1,1.35-.35v-.35a3.35,3.35,0,0,0-3.25.6c-1.8,1.65-.4,3.25-.15,3s.3-.8,1.4-.75H464c.15,0,.2.1.2.15s-.5.2-.7.5-.2.8-.75.8c-1.05,0-1.45-1.3-1.4-1.9,0-1.45.9-2.4,2.6-2.8a4.89,4.89,0,0,1,1.9,0v-1.9a5.79,5.79,0,0,1-5.65-.65c-1.15-.9-2.3-3-1.15-4.35a1.45,1.45,0,0,1,.8-.45c.3,0,1.15.3,1.35.3a2,2,0,0,0,1.4-.45.15.15,0,0,1,.2,0c.15.2-.15.45-.15.5s0,0,0,.1c-.45.6-1.4,1.6-2.4,1.25h-.1a.76.76,0,0,0-.4-.1c-.25,0-.65.65,0,1.85.95,1.55,3.25,2.65,6.15,1.55v-2.9c-1-.2-1.35-1.4-2.05-2-1.05-.9-2.65-.75-2.65-1S461.47,399,461.62,398.86Zm-12.7-8.75v2.8a17.73,17.73,0,0,1,3.25-2.8Zm2,1.55h.35a4,4,0,0,0,3.95-2.45A13.68,13.68,0,0,0,450.87,391.66Zm2.6-7.45v.4a3.28,3.28,0,0,1,2.5,3.85,12.05,12.05,0,0,1,3.35-.45h.05a14.59,14.59,0,0,1,6.5,1.75v-11.9Zm0,1v4.2a10.08,10.08,0,0,1,1.85-.75v-.1A2.67,2.67,0,0,0,453.47,385.22Zm18.71,28.3a18.37,18.37,0,0,1-3.36.8,10.11,10.11,0,0,1-1.05,1.85,6.78,6.78,0,0,1-1.25,1.1,1.77,1.77,0,0,1,.85,1.7c-.1.65-.39,1-.85,1.15l0,0c-.56,0,.09-.4.34-.75a1.51,1.51,0,0,0,.1-.85,1.61,1.61,0,0,0-.75-1,7.11,7.11,0,0,1-7.85,0,8.91,8.91,0,0,1-4.45-7.65,1.76,1.76,0,0,1,.9-1.55c1-.4,1.65.7,1.95,0a.13.13,0,0,1,.15-.15s.1.1.2.25a1.46,1.46,0,0,0,.1.45v0c-.15.15-.6,1-1.25.3a1,1,0,0,0-.9-.35c-.9.35-.8,1.4-.5,2,1.35,2.25,4.9,1.4,5.7-1.55-.05,0-.05,0-.05,0a2.12,2.12,0,0,0-1.1-.4c-1.15,0-2,.8-1.65,1.8.35.75,1.1.55,1,0-.05-.35.15-.5.6-.4l.2.25v0c.05,0,.05,0,0,.1s-.25,0-.3.1c-.35,1.15-1.45.85-1.75,0v0a1.48,1.48,0,0,1,.8-2,2,2,0,0,1,2.35.25,6.94,6.94,0,0,0,.1-.75,5.35,5.35,0,0,0-3.8-5,7.16,7.16,0,0,0-2.6-.3,1.36,1.36,0,0,1,.7,2,.11.11,0,0,1-.2,0v-.15a1.38,1.38,0,0,0-1-1.5v7.15c0,3.6.35,6.25,1.05,7.8,2,4.6,6.5,4.75,10,4.75a40.44,40.44,0,0,0,8.55-1Zm-11.71-4a4.06,4.06,0,0,1-2.4,2.7H458a3,3,0,0,1-3.8-1.15,3.8,3.8,0,0,0,1.25,2.25,3.51,3.51,0,0,0,4.2.35.63.63,0,0,0,0-1.05c-.05,0-.1,0-.1-.15s.05-.1.15-.1.15.05.25.1a.76.76,0,0,1,.35.7,1.94,1.94,0,0,0,.5-.7c.05-.15.05-.2.1-.25A2.59,2.59,0,0,0,460.47,409.57Zm3.25,8.55a7.79,7.79,0,0,0,1.9-.65.61.61,0,0,1,.15-.1A1.83,1.83,0,0,0,463.72,418.11Zm2.7-28a9.5,9.5,0,0,1,4.26,9h1.95v-9Zm2.1,2.45a7.91,7.91,0,0,1,1.21,6.55h.59A9,9,0,0,0,468.52,392.57Z"/><path class="bfab51f8-47ea-4c6d-ab68-4d58528bd767" d="M484.52,411.66a2.28,2.28,0,0,0-.6,3c.25.35.75.55.75.4a1,1,0,0,0,.05-.25c0-.4.35-.7,1-.85h.1c.15,0,.2,0,.25.1,0-1.13-.94-1.3-.35-2.15a2.22,2.22,0,0,1,2.4-.6v-.15A3.36,3.36,0,0,0,484.52,411.66Zm10.6-21.55c-3.75,0-5.85,1.8-7.85,6v-5.3H475.72v4a11.2,11.2,0,0,1,2.85-.4,9.27,9.27,0,0,1,7.75,2.8,8.6,8.6,0,0,1,2.4,4.9,7,7,0,0,1-1.25,5.3c-3.8,5.2-10,1.6-8.7-1.25a1.11,1.11,0,0,1,1.2-.65,2.26,2.26,0,0,0,.65,0c.8-.15,1.35-1.25,1.35-.65v.2s-.05,0-.05.1v.1c-.3.75-.85,1.8-1.8,1.8H480c-.2,0-.35,0-.4,0-.55.25.2,2.15,2.35,2.5,5.55,1,9.85-7.85,3-13.1a8.22,8.22,0,0,1,1.85,2.1c1.15,2,1.75,5.6-.8,7-1.4.8-2-.45-3.15-1h-.05a3.54,3.54,0,0,0-2.35-.15c-.7,0,.4-.8.4-.8,3.1-1.9,4.3-.35,4.35-.35a1,1,0,0,0,.6.35.51.51,0,0,0,.45-.1c1.2-1,1.2-5.2-2.7-7.35a10.09,10.09,0,0,0-7.85-.9v13.8a8,8,0,0,1,1.3-.2,1.2,1.2,0,0,0,.9-1.65v-.15s0-.1.05-.1a.39.39,0,0,1,.15,0,1.35,1.35,0,0,1-.3,2,5.18,5.18,0,0,1,4.15,2.8,5.78,5.78,0,0,1,.4,1.6,3,3,0,0,1,1.35,2.25.68.68,0,0,1,.95,0v0c.05.15.05.2-.1.15s-.1,0-.1,0a.74.74,0,0,0-.65.1c-.35.25-.05,1.55-1.7,2.65a3.49,3.49,0,0,1-3.8-.15l-.1-.1a7.52,7.52,0,0,0,5.8,3,7,7,0,0,0,3.2-.7,2,2,0,0,1,.9-1.4v-7.5c-1-.25-1.35.15-1.35.35.4.6.65,1.25-.3,2.5a0,0,0,0,1-.05,0,.39.39,0,0,1-.2.2c-.1,0-.15,0-.2,0s-.1,0-.05-.15a2.22,2.22,0,0,0,.1-.67c0,.12-.36.19-.5.57s.1.75-.45.9h-.05c-1,.35-1.6-.9-1.7-1.25v0a2.58,2.58,0,0,1,1.55-3.15,3.76,3.76,0,0,1,3.2-.2c.15-7.55,1.86-11.2,5.65-11.2a9.57,9.57,0,0,1,3.46.9l3.85-8.8A13.26,13.26,0,0,0,495.12,390.11Zm-12.5,31.35c-3.9-.9-5.9-4.4-6.05-5.65a1.51,1.51,0,0,1,.4-1.55c.8-.65,1.7.15,1.7-.6,0-.1.05-.15.1-.15s.35.35.5.55l-.05,0c-.2.7-.55.9-1,.6-1.2-.7-1.75.85-.8,1.8,1.9,1.75,4.7-.15,4.65-2.9a2.39,2.39,0,0,0-1.1-.1c-.8.15-1.75,1.15-1.05,2,.3.35.6.45.85.15s-.4-.75.4-1h.05l.25.2.05,0a.13.13,0,0,1-.15.15c-.1,0-.1.05-.1.1q0,.9-.75.9a.91.91,0,0,1-.8-.4,1.37,1.37,0,0,1,.15-2,2,2,0,0,1,2.2-.45c-.3-2.5-2.45-3.9-4.85-4.1h-.45a5.2,5.2,0,0,0-1.05.15v.8a1,1,0,0,1,.3.6h.05a1.11,1.11,0,0,1-.05.45v0c-.05,0-.1,0-.15,0s-.05,0-.1,0v-.15s-.05-.1-.05-.15v11.45a7.1,7.1,0,0,0,1.5.45,0,0,0,0,1,.05.05h10.85v-2.4A7,7,0,0,1,482.62,421.47Zm-6.9,1.3v.2h.75A4.16,4.16,0,0,0,475.72,422.77Zm6.7-9a3.83,3.83,0,0,1-1.5,3c-1.35,1-2.6,1-3.7,0a2.44,2.44,0,0,1,.15.35,3.37,3.37,0,0,0,5.35.6c.05,0,.05,0,.05-.1a.54.54,0,0,0,.1-.4.69.69,0,0,0-.4-.5c-.05,0-.1,0-.1,0s-.05,0-.05-.05a.11.11,0,0,1,.1-.1v0a.79.79,0,0,1,.75.6c.1-.25.15-.5.25-.8A2.49,2.49,0,0,0,482.42,413.82Zm5.15,6.7a3.59,3.59,0,0,0,.55-.35v-.45A2.09,2.09,0,0,0,487.57,420.52Z"/><path class="bfab51f8-47ea-4c6d-ab68-4d58528bd767" d="M534.83,401.16l-.05,0a2.12,2.12,0,0,1-1.2-2.75c.15-.2.15-.25.15-.25-1.85-3-6.35-3.75-8.21-1.15-.65,1.15-.29,1.65-.09,1.65.2.15,1.25-.8,2.55,1.2l0,0c0,.15.16.15.16.3s-.16.35-.25.2a2.27,2.27,0,0,0-1.2-.45c-.71,0-1.25.55-2-.25-1-1.3.21-3.1,1.21-3.85h-.05c-2.31,1.5-2.66,4.4-1.31,5.85,1.65,1.9,3.31.6,3.15.25-.14-.15-.84-.1-.79-1.5,0,0,0,0,0-.15s.11-.25.16-.25.09.5.55.8c.29.25.79.2.79.8,0,1.1-1.45,1.45-2,1.4-1.59-.1-2.54-1-2.9-2.8a4.62,4.62,0,0,1,3-5.05,6.28,6.28,0,0,1,6.15,1.3,7.57,7.57,0,0,1,1.15,1.3l.1-.1c-4.35-8-13.3-8-17-8-5.7,0-10.1,1.55-13.35,4.7a16.23,16.23,0,0,0-4.85,12.2,19.44,19.44,0,0,0,.4,3.9,5,5,0,0,1,.35-.75,3.56,3.56,0,0,1,3.7-1.55,15.41,15.41,0,0,1-.4-3.55,13,13,0,0,1,.55-3.35,10.56,10.56,0,0,1,5.75-7.35c3-1.4,8.2-1.85,11.45,2.35a8.84,8.84,0,0,1,1.15,2.4,8.58,8.58,0,0,1,1.8,5h-2.39a4.33,4.33,0,0,1-.36.5c-.89,1.1-3.1,2.4-4.6,1.1a1,1,0,0,1-.45-.85,2.51,2.51,0,0,1,.15-.7v0h-4.5c.1-1.1.45-4.65,3.65-6.15a6.31,6.31,0,0,0,.95-.7c.4-.75-.9-1.85-2.75-2.25a7.32,7.32,0,0,0-6.1,2,11.63,11.63,0,0,0-3.35,11.75,4.33,4.33,0,0,0,.6.25,4.65,4.65,0,0,1,2.45,5.3.39.39,0,0,0,0,.15c.25.3.5.6.8.9,5.75,5.85,14.4,6.1,21.06,2.3-.3.1-.71.2-1.25.35h-.05a8.16,8.16,0,0,1-6.86-2.05,6.91,6.91,0,0,1-2.85.6c-2.1,0-5.65-.85-6.3-6.5h6.9a5.86,5.86,0,0,1,.25-1.5,1.39,1.39,0,0,0-1.45-1.6H517c-.3,0-.05-.35.45-.35a1.64,1.64,0,0,1,1.5,1.1,6.22,6.22,0,0,1,4.51-3.45,6,6,0,0,1,1.95.15l.1-.1a2.89,2.89,0,0,1,2.7-.55.79.79,0,0,1,.4-1.05h0c.14,0,.2.05.1.2a.67.67,0,0,0-.21.75c.21.5,1.66.7,2.21,2.8a4,4,0,0,1-1,3.6h.6A8.37,8.37,0,0,0,534.83,401.16ZM533.18,414a18.67,18.67,0,0,1-17.36,5.75c-6.05-1.25-10.85-5.7-12.3-10.9h-.1a3.27,3.27,0,0,0-2.35.4,2.76,2.76,0,0,0-1.4,2.9,16.5,16.5,0,0,0,1.6,3.6c3.3,5.4,7.85,7.5,16.15,7.5,5,0,8.71-.7,11.31-2.05a17.74,17.74,0,0,0,6.75-6.95Zm-29.11-5a14.72,14.72,0,0,0,2.5,4.55.74.74,0,0,1,.05-.3A4.27,4.27,0,0,0,504.07,409Zm17.05-11.15c-2-4.55-8.15-6.35-13.1-2.85,3.75-2.5,9.25-1.5,10.15,1.9a6.49,6.49,0,0,1,3.06,1.1C521.17,398,521.12,397.91,521.12,397.86Zm-3.45,5.7a1,1,0,0,1-.1.45c0,.1-.15.35-.1.55.1.55,1.85.65,3.1-1Zm7.71.65a2.12,2.12,0,0,0-.31,2.25c.81,1.5,2.56.7,2.11-.15-.25-.3-1,.15-.86-.75v0c.16-.15.2-.1.31-.2h.05a.16.16,0,0,1,.14,0v.15c-.19.25.45.1.75.65a1.07,1.07,0,0,1-.69,1.35h-.06a1.54,1.54,0,0,1-2-.9,2.22,2.22,0,0,1,.25-2.5c-3.25-.65-6.3,2.2-6.45,5.4h5.56c-.11-.8.75-1.35.05-1.65-.05,0-.11,0-.11-.15,0-.25.61-.25.75-.3.15.15,1.06.65.31,1.35-.31.25-.45.5-.41.75h2.91C528.93,407.82,528.08,405,525.38,404.22Zm-2.06,8.85a7.39,7.39,0,0,1-2.45,2.2,7.83,7.83,0,0,0,5.2,2,9.35,9.35,0,0,0,6.76-3.3Zm6.66-8.15c-.55-.75-1.1.1-1.25.1s-.05,0-.05-.1v0a.37.37,0,0,1,.05-.25.93.93,0,0,1,.79-.35,8.57,8.57,0,0,0-.75-.55,2.83,2.83,0,0,0-3.09.25,4.07,4.07,0,0,1,2.75,2.6,3.74,3.74,0,0,1-.25,3h1.2A3.65,3.65,0,0,0,530,404.91Zm4.25-6.85s0,0-.05.1c2.55,4.3.4,9-3.16,11.3,0,0,0,0,0,0h5.2v-1.4A22.48,22.48,0,0,0,534.23,398.07Zm-.1.7a.26.26,0,0,1-.1-.2,1.87,1.87,0,0,0,.7,2.2h.05A11.75,11.75,0,0,0,534.13,398.77Z"/><path class="bfab51f8-47ea-4c6d-ab68-4d58528bd767" d="M538.22,378.32v9.5l1.15-.25a17.85,17.85,0,0,1,4,0,5,5,0,0,1,2.8-.7.18.18,0,0,1,.15,0,16.56,16.56,0,0,0,3.55-8.55Zm0,10v3.5a9.93,9.93,0,0,0,3.05-1,3.69,3.69,0,0,1,.1-.6,4.21,4.21,0,0,1,1.35-2.2A12,12,0,0,0,538.22,388.36Zm5.7,10.15c.2,0,3.3-1.8,5.05,0,0,0,.7,1.25,1.65.3v-5.75a9.48,9.48,0,0,0-5.25-4.4,13.09,13.09,0,0,1-3.45,2.45v.1a3.17,3.17,0,0,0,3,3.3,4.41,4.41,0,0,0,1.4-.3c.85-.2-.45,1.6-2.75.65a3.5,3.5,0,0,1-2.25-3.4,16.74,16.74,0,0,1-3.05,1v11.35h.7a1.42,1.42,0,0,0,1.3-1.75s-.05,0-.05-.15a.13.13,0,0,1,.25,0,1.5,1.5,0,0,1-.6,2.15c3.2.9,4.7,3.4,4.5,5.8.05,0,.05,0,.15,0a3.17,3.17,0,0,1,1.05,2.6.84.84,0,0,1,1.1.2v.05q.07.22-.15.15c-.05,0-.1,0-.1,0a.6.6,0,0,0-.7,0c-.5.3-.35,1.8-2.4,2.7a3.93,3.93,0,0,1-4.3-.7,8.42,8.42,0,0,0,9.85,3.9v-.05a2.19,2.19,0,0,1,1.8-1.65v-8.5a1.31,1.31,0,0,0-1,.15c-.1.1-.15.15-.15.2a1.54,1.54,0,0,0,.2.45c.55,1.15-1,2.5-1.05,2.5a.71.71,0,0,1-.15.1c-.2.05-.35,0-.25-.2.7-1.45-.15-2-.15-2.5s.7-1.75,2.5-1.3v-.25a3.66,3.66,0,0,0-4.25,1c-1.4,1.75-.3,3.2.25,3.2.35,0-.1-.9,1.45-1.1h.15c.15,0,.25,0,.25.15s0,.1-.1.15c-1.05.5-.3,1.25-1.2,1.45-1.1.2-1.7-1.1-1.8-1.75-.35-2.9,2.85-4.25,5.25-3.45v-3.2c-4.45,4-9.65,1-9.65-2.1a1.51,1.51,0,0,1,1.8-1.65c1.65.4,2.4-1.3,2.4-.5a.29.29,0,0,1,0,.2.3.3,0,0,1-.05.2s-.9,2.1-2.35,1.8h-.1a.81.81,0,0,0-.5,0c-.2,0-.6.8.35,2,2,2.3,6,1.85,8.15-.5v-2.65a7.08,7.08,0,0,1-.9.55h-.05c-1.7.7-2.35-.9-3.45-1.65a4.52,4.52,0,0,0-2.7-.55C543,399.22,543.42,398.82,543.92,398.52Zm-2.45,11.25a2.25,2.25,0,0,1,2.55-.2v-.75c-.9-4.5-5.4-4.65-5.45-4.7h-.35v5.65c.9-.45,1.7.45,1.9-.35,0-.1,0-.15.1-.15.25,0,.4.6.45.7v0c-.3.75-.75.9-1.25.55v0a1.1,1.1,0,0,0-1-.2c-.1,0-.15.1-.2.1v2.05h.05c1.55,1.95,5.3.9,5.75-2.55a.16.16,0,0,0-.1,0,2,2,0,0,0-2.25.15c-1.25,1.1-.25,2.65.5,2.1a.45.45,0,0,0,.1-.45v0c-.1-.3.05-.5.5-.55h.05a1.11,1.11,0,0,1,.25.2s0,0,.05.1-.05.2-.15.2c-.35,0-.05.5-.55.85A1,1,0,0,1,541,412v0A1.6,1.6,0,0,1,541.47,409.77Zm2.85.4a4.3,4.3,0,0,1-2.15,3.2,3.28,3.28,0,0,1-3.95-.25v.35a3.91,3.91,0,0,0,5.5,1.55l.4-.35a.69.69,0,0,0,.25-.5.72.72,0,0,0-.4-.65c-.05,0-.1,0-.1,0s-.05-.05-.05-.1.05,0,.1-.1H544c.2,0,.6.15.75.75.1-.2.25-.5.4-.85A2.91,2.91,0,0,0,544.32,410.16Zm-6.1,4.15v8.45h12.4v-4.45C545.62,421.32,540.07,418.07,538.22,414.32Zm5.25-26.15a3.9,3.9,0,0,0-1.45,2.35,13.51,13.51,0,0,0,2.8-2A13.41,13.41,0,0,0,543.47,388.16Zm2.3-.95a6.16,6.16,0,0,0-1.45.45,6.53,6.53,0,0,1,1.1.25c.15-.15.35-.4.65-.7Zm4.6-8.9a17,17,0,0,1-4.4,9.75,11.27,11.27,0,0,1,4.65,3v-12.8Zm-1.15,40.25v0c.5-.25.95-.5,1.4-.75v-.4A2.06,2.06,0,0,0,549.22,418.57Zm.65-27.75q.22.3.75.9v-.1C550.37,391.36,550.12,391.07,549.87,390.82Z"/><path class="bfab51f8-47ea-4c6d-ab68-4d58528bd767" d="M567.12,404l-.15-.35c-.7.15-1.5.3-2.35.5l-2.8.55c-5.75,1.15-10.1,3.3-10.1,9.55,0,4.55,3.15,8.15,8.5,9a1.49,1.49,0,0,0,.9-1.55v0c-6.25-2.45-6.3-10.7-2-14.65,1.45-1.4,2.4-1,2.7-.85,1,.65.55,1.9,1.3,1.65.2-.1.4.1-.2.7h0v0q-1.2.07-1.05-.9c.25-1.1-.75-1.35-1.4-1-1.2.7-1.95,2.8.4,4.45a3.79,3.79,0,0,0,3.65.3v0c0-1.75-2.05-2.8-2.9-1.5-.3.45-.25.8.1,1s.8-.8,1.2.1V411a.38.38,0,0,1-.1.2c0,.05,0,.15-.15.15s-.1-.25-.25-.2c-1.1.45-1.65-.55-1.15-1.45a1.67,1.67,0,0,1,2.2-.55,2.19,2.19,0,0,1,1.3,2.15c.45-.15.4-.25,1.05-.65C568.87,408,567.12,404,567.12,404Zm2.2-14.15c-12.9,0-15.55,4.8-16.6,9.9L555,400c5.95-9.25,17.05-10.85,24.15-5.75a3.26,3.26,0,0,0,1.95-3C579,390.41,575.82,389.86,569.32,389.86Zm9.85,5a1.41,1.41,0,0,1-.65.2,4.59,4.59,0,0,1-5.2-2.85,15.91,15.91,0,0,0-7.6.15,17.39,17.39,0,0,0-10.3,7.65l1.75.2a7.76,7.76,0,0,1,7.5.35c.6-1.6,1.5-3.4,6.3-3.4,3.2,0,4.2,1.15,4.2,4.1a43.6,43.6,0,0,1-7.9,2.25l.15.3a1.43,1.43,0,0,0,2.3.65c.05,0,.1-.1.25,0s.1.25-.3.55v0a1.62,1.62,0,0,1-1.85,0,6.13,6.13,0,0,1-1.15,5.1,15.36,15.36,0,0,1,1.55-.55,2.73,2.73,0,0,1-.05-.9c0-1.3,1-3.8,3-3.7,1.15.1,1,1,1.45,1.7v0c.45.75,1.4.8,1.4,1,0,0,0,.1-.05.1a1.69,1.69,0,0,0,.4-.15c-.2-1.1-1.25-2-.4-1.85l.3.15a1.09,1.09,0,0,0,.25.15s.05,0,.15.1a9.51,9.51,0,0,1,1.7,2,2.53,2.53,0,0,1,.35,2.6,3.32,3.32,0,0,0-.2.8c.1.35.75,1,1.95.7a7,7,0,0,0,5.25-5.9A11.84,11.84,0,0,0,579.17,394.91Zm-10.5,21.7a1.89,1.89,0,0,1-.6,0,7.46,7.46,0,0,1-1.05-.1,2.41,2.41,0,0,1-1.95,0l-.1,0c-.05,0-.1-.05-.15-.05s-.25-.2-.2-.3,0-.1.15-.1a2.44,2.44,0,0,0,.6,0l-.25-.25c-.1,0-.15-.05-.2-.15s-.1,0-.2,0c-.45,0-.75.4-1.2-.15s-.2-1.45.55-2.2c.05,0,.05-.1.05-.25a2.94,2.94,0,0,1-1.3,1,.82.82,0,0,1,.35,1.05c-.1.1-.2.2-.25-.05v0a.63.63,0,0,0-.65-.75,3.81,3.81,0,0,1-3.15-.8,4,4,0,0,1-1.3-4.15s.05-.1.05-.15a8.49,8.49,0,0,0,.9,10.6h.05a2.23,2.23,0,0,1,2.65,1.45v0a2,2,0,0,0,.1.3c2.9,1.15,7.35-.6,7.2-4.15A4.15,4.15,0,0,0,568.67,416.61Zm-4.75-16a7.41,7.41,0,0,0-6.15-.25l6.7.7s.05,0,.05-.1Zm-3.35,10.8a3.23,3.23,0,0,1-1.45-4,1.89,1.89,0,0,0-.25.3,3.86,3.86,0,0,0,1.4,6h.05a.69.69,0,0,0,.9-.7v-.05c0-.1.1-.15.25,0a.87.87,0,0,0,.05.25.82.82,0,0,1-.4.75,3,3,0,0,0,.95,0,2.9,2.9,0,0,0,2.3-2.1A4.09,4.09,0,0,1,560.57,411.36Zm-1.45,8.55h-.05a7.67,7.67,0,0,0,1.95,1.25A2,2,0,0,0,559.12,419.91Zm28.1-4v-14.2a14.46,14.46,0,0,0-.9-4.8,9,9,0,0,0-4.65-5.3,3.46,3.46,0,0,1-2,3,18.4,18.4,0,0,1,2.55,2.65,14.22,14.22,0,0,1,1.55,3c3.75,8-2.95,16.6-10.6,14.55h0a8.76,8.76,0,0,1-3.35,1.65c.15,3.55-3.15,5.8-6.45,5.6h-.05a4.88,4.88,0,0,1-1.65-.35,1.9,1.9,0,0,1-.7,1.55,15.4,15.4,0,0,0,2.55.2c7.45,0,10.55-2.85,12.4-4.7a8.88,8.88,0,0,0,1.35,4h11.55A12.61,12.61,0,0,1,587.22,415.91Zm-23.1-2.2a.92.92,0,0,0-.25.9,0,0,0,0,0,0,0h.25c.05,0,.1,0,.15,0A2.39,2.39,0,0,1,564.12,413.72Zm9.55-5.7c-.1,0-.15,0-.2,0h-.1a4.7,4.7,0,0,1-1.55-.3,1.36,1.36,0,0,1-1-1c-.05,0-.05-.1-.05-.1-.15-.45-.3-.5-.5-.5-.95.1-1.75,1.75-1.55,3.3l1.2-.35c1.4-.35,2.7-.75,3.8-1.1Zm-4.25,8.55h-.2a4.52,4.52,0,0,1-.05,1.85A4.49,4.49,0,0,0,569.42,416.57Zm13-5.75c-1.85,2.15-5.45,3.85-7.75,2a5.2,5.2,0,0,1-1.2,1.75,7.43,7.43,0,0,0,2.8.25c5-.55,7.1-4.75,7.75-6.7A10.71,10.71,0,0,1,582.42,410.82ZM578,394.11a14.11,14.11,0,0,0-4.2-1.75,4.27,4.27,0,0,0,4.75,2.1Z"/></svg>