<svg xmlns="http://www.w3.org/2000/svg" viewBox="0 0 461 195"><defs><style>.\33 5ec945a-c956-4935-91de-e2f34653ce4a{fill:none;stroke:#fff;stroke-miterlimit:10;stroke-width:5px;}.d1ea9875-0cc1-43f6-a6c7-1f30b7fab186{fill:#fff;}</style></defs><title>Asset 4</title><g id="45119745-baa7-43cd-be71-aa1d92e859a9" data-name="Layer 2"><g id="b672d720-f6d4-4fc6-937d-a0613e4203a8" data-name="Layer 1"><rect class="35ec945a-c956-4935-91de-e2f34653ce4a" x="2.5" y="2.5" width="456" height="190" rx="12" ry="12"/><path class="d1ea9875-0cc1-43f6-a6c7-1f30b7fab186" d="M180.06,52a9.55,9.55,0,0,1-.68,3.64,8.52,8.52,0,0,1-1.92,2.89,8.7,8.7,0,0,1-3,1.9,10.55,10.55,0,0,1-3.87.68h-7.08V42.86h7.08a10.46,10.46,0,0,1,3.87.69,8.83,8.83,0,0,1,3,1.9,8.46,8.46,0,0,1,1.92,2.88A9.52,9.52,0,0,1,180.06,52Zm-4.32,0a7.93,7.93,0,0,0-.35-2.44,5.2,5.2,0,0,0-1-1.84,4.37,4.37,0,0,0-1.61-1.16,5.45,5.45,0,0,0-2.16-.41h-2.83V57.82h2.83a5.45,5.45,0,0,0,2.16-.41,4.37,4.37,0,0,0,1.61-1.16,5.2,5.2,0,0,0,1-1.84A8,8,0,0,0,175.74,52Z"/><path class="d1ea9875-0cc1-43f6-a6c7-1f30b7fab186" d="M187.64,47.91a6.68,6.68,0,0,1,2.36.4,5.12,5.12,0,0,1,1.84,1.16,5.3,5.3,0,0,1,1.2,1.87,6.85,6.85,0,0,1,.43,2.51,5.38,5.38,0,0,1,0,.71,1.12,1.12,0,0,1-.14.44.52.52,0,0,1-.27.23,1.25,1.25,0,0,1-.43.06h-7.48a3.65,3.65,0,0,0,1,2.36,2.94,2.94,0,0,0,2.06.73,3.69,3.69,0,0,0,1.16-.16,5.9,5.9,0,0,0,.87-.36l.7-.36a1.45,1.45,0,0,1,.67-.16.8.8,0,0,1,.7.34L193.39,59a5.76,5.76,0,0,1-1.29,1.12,6.69,6.69,0,0,1-1.42.67,7.7,7.7,0,0,1-1.46.34,11,11,0,0,1-1.39.09,7.28,7.28,0,0,1-2.56-.44,5.87,5.87,0,0,1-2.09-1.32,6.22,6.22,0,0,1-1.41-2.17,8.11,8.11,0,0,1-.52-3,6.85,6.85,0,0,1,.44-2.46A6,6,0,0,1,185,48.42,6.64,6.64,0,0,1,187.64,47.91Zm.08,2.68a2.33,2.33,0,0,0-1.74.63,3.28,3.28,0,0,0-.83,1.82H190a3.43,3.43,0,0,0-.12-.9,2.19,2.19,0,0,0-.39-.78,2,2,0,0,0-.71-.56A2.42,2.42,0,0,0,187.71,50.58Z"/><path class="d1ea9875-0cc1-43f6-a6c7-1f30b7fab186" d="M203.61,50.95a1,1,0,0,1-.32.34.84.84,0,0,1-.43.1,1.37,1.37,0,0,1-.55-.12l-.59-.26a6.56,6.56,0,0,0-.72-.26,3.21,3.21,0,0,0-.91-.12,1.93,1.93,0,0,0-1.13.28.91.91,0,0,0-.39.78.78.78,0,0,0,.26.6,2.35,2.35,0,0,0,.68.42,9.21,9.21,0,0,0,1,.34l1.1.36a9.78,9.78,0,0,1,1.1.47,4.11,4.11,0,0,1,1,.66,3,3,0,0,1,.68,1,3.24,3.24,0,0,1,.26,1.35,4.44,4.44,0,0,1-.35,1.77,3.77,3.77,0,0,1-1,1.4,4.94,4.94,0,0,1-1.71.91,7.71,7.71,0,0,1-2.34.33,7.16,7.16,0,0,1-1.33-.12,9.17,9.17,0,0,1-1.28-.34,7,7,0,0,1-1.14-.51,5,5,0,0,1-.9-.63l.9-1.43a1.29,1.29,0,0,1,.39-.39,1.07,1.07,0,0,1,.59-.14,1.22,1.22,0,0,1,.61.15l.58.32a4.83,4.83,0,0,0,.73.33,3.17,3.17,0,0,0,1.06.15,2.69,2.69,0,0,0,.76-.09,1.35,1.35,0,0,0,.5-.26,1,1,0,0,0,.36-.77.84.84,0,0,0-.26-.64,2.29,2.29,0,0,0-.69-.43,8.49,8.49,0,0,0-1-.34q-.54-.16-1.11-.36a8.94,8.94,0,0,1-1.11-.48,3.8,3.8,0,0,1-1-.71,3.33,3.33,0,0,1-.69-1.06,4.24,4.24,0,0,1,.06-3.08,3.65,3.65,0,0,1,1-1.31,4.69,4.69,0,0,1,1.6-.89,6.92,6.92,0,0,1,2.25-.33,7.26,7.26,0,0,1,1.36.13,6.94,6.94,0,0,1,1.23.35,5.87,5.87,0,0,1,1,.53,5,5,0,0,1,.84.67Z"/><path class="d1ea9875-0cc1-43f6-a6c7-1f30b7fab186" d="M211.14,44.56a2,2,0,0,1-.19.87,2.29,2.29,0,0,1-.51.71,2.5,2.5,0,0,1-.76.49,2.34,2.34,0,0,1-.92.18,2.17,2.17,0,0,1-.89-.18,2.49,2.49,0,0,1-.73-.49,2.25,2.25,0,0,1-.5-.71,2.11,2.11,0,0,1-.18-.87,2.18,2.18,0,0,1,.18-.89,2.3,2.3,0,0,1,.5-.73,2.35,2.35,0,0,1,.73-.49,2.24,2.24,0,0,1,.89-.18,2.42,2.42,0,0,1,.92.18A2.35,2.35,0,0,1,211,43.67,2.12,2.12,0,0,1,211.14,44.56Zm-.45,3.55v13h-3.87v-13Z"/><path class="d1ea9875-0cc1-43f6-a6c7-1f30b7fab186" d="M218.39,47.88a7.17,7.17,0,0,1,1.56.16,6.24,6.24,0,0,1,1.36.46h3.91v1.41a.7.7,0,0,1-.18.51,1.24,1.24,0,0,1-.62.29l-1,.21a3.91,3.91,0,0,1,.17,1.16,3.72,3.72,0,0,1-.41,1.75,4,4,0,0,1-1.11,1.32,5.19,5.19,0,0,1-1.67.84,7,7,0,0,1-2.06.29,8.29,8.29,0,0,1-1.15-.08.71.71,0,0,0-.42.58.49.49,0,0,0,.34.47,3.2,3.2,0,0,0,.91.2q.56.06,1.29.06t1.47.07a11.56,11.56,0,0,1,1.47.23,3.94,3.94,0,0,1,1.29.53,2.75,2.75,0,0,1,.91,1,3.13,3.13,0,0,1,.34,1.55,3.77,3.77,0,0,1-.42,1.72,4.5,4.5,0,0,1-1.25,1.49,6.54,6.54,0,0,1-2,1,8.79,8.79,0,0,1-2.75.4,10.57,10.57,0,0,1-2.63-.29,6.37,6.37,0,0,1-1.84-.76,3.2,3.2,0,0,1-1.08-1.08,2.54,2.54,0,0,1-.35-1.28,2.12,2.12,0,0,1,.53-1.46,3.49,3.49,0,0,1,1.44-.93,2.19,2.19,0,0,1-.7-.74,2.23,2.23,0,0,1-.26-1.14,2,2,0,0,1,.1-.6,2.22,2.22,0,0,1,.31-.62,3.15,3.15,0,0,1,.54-.57,3.53,3.53,0,0,1,.78-.49,4.24,4.24,0,0,1-1.59-1.43,3.95,3.95,0,0,1-.17-3.82A4,4,0,0,1,214.58,49a5.32,5.32,0,0,1,1.69-.84A7.29,7.29,0,0,1,218.39,47.88Zm2.88,13.63a.69.69,0,0,0-.19-.51,1.38,1.38,0,0,0-.53-.31,3.63,3.63,0,0,0-.78-.17,8.35,8.35,0,0,0-1-.05h-1.06a5.59,5.59,0,0,1-1.09-.11,2.53,2.53,0,0,0-.59.56,1.13,1.13,0,0,0-.23.7,1.06,1.06,0,0,0,.12.5,1,1,0,0,0,.42.39,2.78,2.78,0,0,0,.81.26,7.23,7.23,0,0,0,1.28.09,7.62,7.62,0,0,0,1.38-.1,2.87,2.87,0,0,0,.86-.28,1,1,0,0,0,.44-.43A1.2,1.2,0,0,0,221.26,61.52Zm-2.87-7.61a1.6,1.6,0,0,0,1.83-1.73,1.71,1.71,0,0,0-.43-1.24,2.38,2.38,0,0,0-2.79,0,1.71,1.71,0,0,0-.43,1.24,2.11,2.11,0,0,0,.11.69,1.43,1.43,0,0,0,.33.54,1.55,1.55,0,0,0,.57.36A2.28,2.28,0,0,0,218.39,53.91Z"/><path class="d1ea9875-0cc1-43f6-a6c7-1f30b7fab186" d="M226.89,61.07v-13h2.4a1.07,1.07,0,0,1,.61.16.86.86,0,0,1,.34.49l.23.75a9.35,9.35,0,0,1,.77-.65,4.52,4.52,0,0,1,.86-.51,5.08,5.08,0,0,1,1-.33,5.3,5.3,0,0,1,1.16-.12,4.55,4.55,0,0,1,1.88.37,3.91,3.91,0,0,1,1.38,1,4.42,4.42,0,0,1,.85,1.56,6.46,6.46,0,0,1,.29,2v8.24h-3.87V52.83a2.27,2.27,0,0,0-.44-1.48,1.57,1.57,0,0,0-1.29-.53,2.7,2.7,0,0,0-1.2.27,4.67,4.67,0,0,0-1.08.74v9.24Z"/><path class="d1ea9875-0cc1-43f6-a6c7-1f30b7fab186" d="M244.84,42.86h3.55a1.6,1.6,0,0,1,.92.25,1.14,1.14,0,0,1,.48.66l2.5,9.5q.12.46.25,1a9,9,0,0,1,.19,1.1q.12-.59.28-1.11l.29-1,3-9.5a1.31,1.31,0,0,1,.48-.63,1.43,1.43,0,0,1,.89-.28h1.25a1.57,1.57,0,0,1,.91.24,1.26,1.26,0,0,1,.49.67l2.93,9.5.29.93q.15.49.26,1.06.1-.55.21-1t.22-.94l2.5-9.5a1.19,1.19,0,0,1,.47-.64,1.48,1.48,0,0,1,.9-.27h3.33l-5.62,18.21h-3.83l-3.42-11.29q-.09-.26-.18-.57t-.18-.66q-.09.35-.18.66t-.18.57l-3.47,11.29h-3.83Z"/><path class="d1ea9875-0cc1-43f6-a6c7-1f30b7fab186" d="M277.91,47.91a6.68,6.68,0,0,1,2.36.4,5.12,5.12,0,0,1,1.84,1.16,5.3,5.3,0,0,1,1.2,1.87,6.85,6.85,0,0,1,.43,2.51,5.38,5.38,0,0,1,0,.71,1.12,1.12,0,0,1-.14.44.52.52,0,0,1-.27.23,1.25,1.25,0,0,1-.43.06h-7.48a3.65,3.65,0,0,0,1,2.36,2.94,2.94,0,0,0,2.06.73,3.69,3.69,0,0,0,1.16-.16,5.9,5.9,0,0,0,.87-.36l.7-.36a1.45,1.45,0,0,1,.67-.16.8.8,0,0,1,.7.34L283.66,59a5.76,5.76,0,0,1-1.29,1.12,6.69,6.69,0,0,1-1.42.67,7.7,7.7,0,0,1-1.46.34,11,11,0,0,1-1.39.09,7.28,7.28,0,0,1-2.56-.44,5.87,5.87,0,0,1-2.09-1.32A6.22,6.22,0,0,1,272,57.33a8.11,8.11,0,0,1-.52-3,6.85,6.85,0,0,1,.44-2.46,6,6,0,0,1,3.29-3.42A6.64,6.64,0,0,1,277.91,47.91Zm.08,2.68a2.33,2.33,0,0,0-1.74.63,3.28,3.28,0,0,0-.83,1.82h4.84a3.43,3.43,0,0,0-.12-.9,2.19,2.19,0,0,0-.39-.78,2,2,0,0,0-.71-.56A2.42,2.42,0,0,0,278,50.58Z"/><path class="d1ea9875-0cc1-43f6-a6c7-1f30b7fab186" d="M286,61.07V42.36h3.88v7.13a5.92,5.92,0,0,1,1.64-1.14,5,5,0,0,1,2.16-.43,4.08,4.08,0,0,1,1.88.44A4.23,4.23,0,0,1,297,49.63a6.5,6.5,0,0,1,1,2.07,10,10,0,0,1,.36,2.79,8.62,8.62,0,0,1-.41,2.7,6.76,6.76,0,0,1-1.14,2.15A5.23,5.23,0,0,1,295,60.76a4.94,4.94,0,0,1-2.26.51,4.3,4.3,0,0,1-1-.11,3.51,3.51,0,0,1-.84-.32,3.56,3.56,0,0,1-.7-.49,7.89,7.89,0,0,1-.62-.62l-.14.65a.83.83,0,0,1-.32.55,1.1,1.1,0,0,1-.61.15Zm6.33-10.25a3.37,3.37,0,0,0-.77.08,2.83,2.83,0,0,0-.64.23,2.42,2.42,0,0,0-.54.38,5.64,5.64,0,0,0-.5.53v5.5a2.45,2.45,0,0,0,1,.68,3,3,0,0,0,1.08.19,2.28,2.28,0,0,0,1-.21,2,2,0,0,0,.78-.68,3.63,3.63,0,0,0,.52-1.22,7.63,7.63,0,0,0,.19-1.82,8.43,8.43,0,0,0-.15-1.73,3.58,3.58,0,0,0-.42-1.13,1.63,1.63,0,0,0-.64-.62A1.85,1.85,0,0,0,292.29,50.82Z"/><path class="d1ea9875-0cc1-43f6-a6c7-1f30b7fab186" d="M165.33,82a9.55,9.55,0,0,1-.68,3.64,8.52,8.52,0,0,1-1.92,2.89,8.7,8.7,0,0,1-3,1.9,10.55,10.55,0,0,1-3.87.68H148.8V72.86h7.08a10.46,10.46,0,0,1,3.87.69,8.83,8.83,0,0,1,3,1.9,8.46,8.46,0,0,1,1.92,2.88A9.52,9.52,0,0,1,165.33,82ZM161,82a7.93,7.93,0,0,0-.35-2.44,5.2,5.2,0,0,0-1-1.84A4.37,4.37,0,0,0,158,76.52a5.45,5.45,0,0,0-2.16-.41h-2.83V87.82h2.83a5.45,5.45,0,0,0,2.16-.41,4.37,4.37,0,0,0,1.61-1.16,5.2,5.2,0,0,0,1-1.84A8,8,0,0,0,161,82Z"/><path class="d1ea9875-0cc1-43f6-a6c7-1f30b7fab186" d="M172.9,77.91a6.68,6.68,0,0,1,2.36.4,5.12,5.12,0,0,1,1.84,1.16,5.3,5.3,0,0,1,1.2,1.87,6.85,6.85,0,0,1,.43,2.51,5.38,5.38,0,0,1,0,.71,1.12,1.12,0,0,1-.14.44.52.52,0,0,1-.27.23,1.25,1.25,0,0,1-.43.06h-7.48a3.65,3.65,0,0,0,1,2.36,2.94,2.94,0,0,0,2.06.73,3.69,3.69,0,0,0,1.16-.16,5.9,5.9,0,0,0,.87-.36l.7-.36a1.45,1.45,0,0,1,.67-.16.8.8,0,0,1,.7.34L178.65,89a5.76,5.76,0,0,1-1.29,1.12,6.69,6.69,0,0,1-1.42.67,7.7,7.7,0,0,1-1.46.34,11,11,0,0,1-1.39.09,7.28,7.28,0,0,1-2.56-.44,5.87,5.87,0,0,1-2.09-1.32A6.22,6.22,0,0,1,167,87.33a8.11,8.11,0,0,1-.52-3,6.85,6.85,0,0,1,.44-2.46,6,6,0,0,1,3.29-3.42A6.64,6.64,0,0,1,172.9,77.91Zm.08,2.68a2.33,2.33,0,0,0-1.74.63,3.28,3.28,0,0,0-.83,1.82h4.84a3.43,3.43,0,0,0-.12-.9,2.19,2.19,0,0,0-.39-.78,2,2,0,0,0-.71-.56A2.42,2.42,0,0,0,173,80.58Z"/><path class="d1ea9875-0cc1-43f6-a6c7-1f30b7fab186" d="M188.88,80.95a1,1,0,0,1-.32.34.84.84,0,0,1-.43.1,1.37,1.37,0,0,1-.55-.12L187,81a6.56,6.56,0,0,0-.72-.26,3.21,3.21,0,0,0-.91-.12,1.93,1.93,0,0,0-1.13.28.91.91,0,0,0-.39.78.78.78,0,0,0,.26.6,2.35,2.35,0,0,0,.68.42,9.21,9.21,0,0,0,1,.34l1.1.36a9.78,9.78,0,0,1,1.1.47,4.11,4.11,0,0,1,1,.66,3,3,0,0,1,.68,1,3.24,3.24,0,0,1,.26,1.35,4.44,4.44,0,0,1-.35,1.77,3.77,3.77,0,0,1-1,1.4,4.94,4.94,0,0,1-1.71.91,7.71,7.71,0,0,1-2.34.33,7.16,7.16,0,0,1-1.33-.12,9.17,9.17,0,0,1-1.28-.34,7,7,0,0,1-1.14-.51,5,5,0,0,1-.9-.63l.9-1.43a1.29,1.29,0,0,1,.39-.39,1.07,1.07,0,0,1,.59-.14,1.22,1.22,0,0,1,.61.15l.58.32a4.83,4.83,0,0,0,.73.33,3.17,3.17,0,0,0,1.06.15,2.69,2.69,0,0,0,.76-.09,1.35,1.35,0,0,0,.5-.26,1,1,0,0,0,.36-.77.84.84,0,0,0-.26-.64,2.29,2.29,0,0,0-.69-.43,8.49,8.49,0,0,0-1-.34q-.54-.16-1.11-.36a8.94,8.94,0,0,1-1.11-.48,3.8,3.8,0,0,1-1-.71,3.33,3.33,0,0,1-.69-1.06,4.24,4.24,0,0,1,.06-3.08,3.65,3.65,0,0,1,1-1.31,4.69,4.69,0,0,1,1.6-.89,6.92,6.92,0,0,1,2.25-.33,7.26,7.26,0,0,1,1.36.13,6.94,6.94,0,0,1,1.23.35,5.87,5.87,0,0,1,1,.53,5,5,0,0,1,.84.67Z"/><path class="d1ea9875-0cc1-43f6-a6c7-1f30b7fab186" d="M196.4,74.56a2,2,0,0,1-.19.87,2.29,2.29,0,0,1-.51.71,2.5,2.5,0,0,1-.76.49,2.34,2.34,0,0,1-.92.18,2.17,2.17,0,0,1-.89-.18,2.49,2.49,0,0,1-.73-.49,2.25,2.25,0,0,1-.5-.71,2.11,2.11,0,0,1-.18-.87,2.18,2.18,0,0,1,.18-.89,2.3,2.3,0,0,1,.5-.73,2.35,2.35,0,0,1,.73-.49,2.24,2.24,0,0,1,.89-.18,2.42,2.42,0,0,1,.92.18,2.35,2.35,0,0,1,1.27,1.21A2.12,2.12,0,0,1,196.4,74.56ZM196,78.11v13h-3.87v-13Z"/><path class="d1ea9875-0cc1-43f6-a6c7-1f30b7fab186" d="M203.65,77.88a7.17,7.17,0,0,1,1.56.16,6.24,6.24,0,0,1,1.36.46h3.91v1.41a.7.7,0,0,1-.18.51,1.24,1.24,0,0,1-.62.29l-1,.21a3.91,3.91,0,0,1,.17,1.16,3.72,3.72,0,0,1-.41,1.75,4,4,0,0,1-1.11,1.32,5.19,5.19,0,0,1-1.67.84,7,7,0,0,1-2.06.29,8.29,8.29,0,0,1-1.15-.08.71.71,0,0,0-.42.58.49.49,0,0,0,.34.47,3.2,3.2,0,0,0,.91.2q.56.06,1.29.06t1.47.07a11.56,11.56,0,0,1,1.47.23,3.94,3.94,0,0,1,1.29.53,2.75,2.75,0,0,1,.91,1,3.13,3.13,0,0,1,.34,1.55,3.77,3.77,0,0,1-.42,1.72,4.5,4.5,0,0,1-1.25,1.49,6.54,6.54,0,0,1-2,1,8.79,8.79,0,0,1-2.75.4,10.57,10.57,0,0,1-2.63-.29,6.37,6.37,0,0,1-1.84-.76,3.2,3.2,0,0,1-1.08-1.08,2.54,2.54,0,0,1-.35-1.28,2.12,2.12,0,0,1,.53-1.46,3.49,3.49,0,0,1,1.44-.93A2.19,2.19,0,0,1,199,89a2.23,2.23,0,0,1-.26-1.14,2,2,0,0,1,.1-.6,2.22,2.22,0,0,1,.31-.62,3.15,3.15,0,0,1,.54-.57,3.53,3.53,0,0,1,.78-.49,4.24,4.24,0,0,1-1.59-1.43,3.95,3.95,0,0,1-.17-3.82A4,4,0,0,1,199.84,79a5.32,5.32,0,0,1,1.69-.84A7.29,7.29,0,0,1,203.65,77.88Zm2.88,13.63a.69.69,0,0,0-.19-.51,1.38,1.38,0,0,0-.53-.31,3.63,3.63,0,0,0-.78-.17,8.35,8.35,0,0,0-1-.05H203a5.59,5.59,0,0,1-1.09-.11,2.53,2.53,0,0,0-.59.56,1.13,1.13,0,0,0-.23.7,1.06,1.06,0,0,0,.12.5,1,1,0,0,0,.42.39,2.78,2.78,0,0,0,.81.26,7.23,7.23,0,0,0,1.28.09,7.62,7.62,0,0,0,1.38-.1,2.87,2.87,0,0,0,.86-.28,1,1,0,0,0,.44-.43A1.2,1.2,0,0,0,206.53,91.52Zm-2.87-7.61a1.6,1.6,0,0,0,1.83-1.73,1.71,1.71,0,0,0-.43-1.24,2.38,2.38,0,0,0-2.79,0,1.71,1.71,0,0,0-.43,1.24,2.11,2.11,0,0,0,.11.69,1.43,1.43,0,0,0,.33.54,1.55,1.55,0,0,0,.57.36A2.28,2.28,0,0,0,203.65,83.91Z"/><path class="d1ea9875-0cc1-43f6-a6c7-1f30b7fab186" d="M212.15,91.07v-13h2.4a1.07,1.07,0,0,1,.61.16.86.86,0,0,1,.34.49l.23.75a9.35,9.35,0,0,1,.77-.65,4.52,4.52,0,0,1,.86-.51,5.08,5.08,0,0,1,1-.33,5.3,5.3,0,0,1,1.16-.12,4.55,4.55,0,0,1,1.88.37,3.91,3.91,0,0,1,1.38,1,4.42,4.42,0,0,1,.85,1.56,6.46,6.46,0,0,1,.29,2v8.24H220V82.83a2.27,2.27,0,0,0-.44-1.48,1.57,1.57,0,0,0-1.29-.53,2.7,2.7,0,0,0-1.2.27,4.67,4.67,0,0,0-1.08.74v9.24Z"/><path class="d1ea9875-0cc1-43f6-a6c7-1f30b7fab186" d="M240,88a7.18,7.18,0,0,0,1.55-.15,7.53,7.53,0,0,0,1.28-.4V84.71h-1.8a.87.87,0,0,1-.62-.21.71.71,0,0,1-.23-.54V81.63h6.48v7.69a9.49,9.49,0,0,1-1.46.88,9.39,9.39,0,0,1-1.61.61,11.9,11.9,0,0,1-1.83.35,18,18,0,0,1-2.08.11,9.55,9.55,0,0,1-3.7-.71,8.86,8.86,0,0,1-4.89-4.9,9.6,9.6,0,0,1-.71-3.71,10.09,10.09,0,0,1,.67-3.74A8.43,8.43,0,0,1,233,75.27a8.75,8.75,0,0,1,3-1.93,11,11,0,0,1,4-.69,11.6,11.6,0,0,1,2.14.19,10.52,10.52,0,0,1,1.84.51,8.51,8.51,0,0,1,1.54.77,8.37,8.37,0,0,1,1.25,1L245.6,77a1.35,1.35,0,0,1-.42.41,1,1,0,0,1-.53.15,1.46,1.46,0,0,1-.77-.25q-.5-.3-.94-.52a5.75,5.75,0,0,0-.91-.36,5.94,5.94,0,0,0-1-.2,9.5,9.5,0,0,0-1.15-.06,5.25,5.25,0,0,0-2.14.42,4.58,4.58,0,0,0-1.62,1.18,5.33,5.33,0,0,0-1,1.83,7.37,7.37,0,0,0-.36,2.38,7.66,7.66,0,0,0,.4,2.57,5.53,5.53,0,0,0,1.11,1.9,4.7,4.7,0,0,0,1.67,1.18A5.43,5.43,0,0,0,240,88Z"/><path class="d1ea9875-0cc1-43f6-a6c7-1f30b7fab186" d="M249.27,91.07v-13h2.3a2,2,0,0,1,.48,0,.86.86,0,0,1,.33.16.66.66,0,0,1,.2.28,2.52,2.52,0,0,1,.12.43l.21,1.21a6.35,6.35,0,0,1,1.6-1.74,3.25,3.25,0,0,1,1.94-.64,2.24,2.24,0,0,1,1.43.42l-.5,2.85a.56.56,0,0,1-.2.37.68.68,0,0,1-.4.11,2.68,2.68,0,0,1-.5-.06,3.86,3.86,0,0,0-.72-.06,2.66,2.66,0,0,0-2.4,1.63v8Z"/><path class="d1ea9875-0cc1-43f6-a6c7-1f30b7fab186" d="M268.3,91.07a1.82,1.82,0,0,1-.83-.15,1.15,1.15,0,0,1-.47-.62l-.27-.71q-.49.41-.94.72a5.88,5.88,0,0,1-.93.53,4.58,4.58,0,0,1-1,.33,6.32,6.32,0,0,1-1.21.11A5.27,5.27,0,0,1,261,91a3.36,3.36,0,0,1-1.23-.68,3,3,0,0,1-.78-1.12,4.07,4.07,0,0,1-.27-1.55,3.26,3.26,0,0,1,.35-1.42,3.5,3.5,0,0,1,1.21-1.32,7.7,7.7,0,0,1,2.33-1,14.21,14.21,0,0,1,3.69-.4V83a2.42,2.42,0,0,0-.47-1.66,1.72,1.72,0,0,0-1.33-.51,3.53,3.53,0,0,0-1.12.15,5.11,5.11,0,0,0-.78.34l-.67.34a1.85,1.85,0,0,1-.78.15,1.17,1.17,0,0,1-.68-.19,1.43,1.43,0,0,1-.44-.48l-.7-1.21a7.88,7.88,0,0,1,2.61-1.54,9.12,9.12,0,0,1,3.07-.51,5.61,5.61,0,0,1,2.12.38,4.56,4.56,0,0,1,1.6,1.06,4.64,4.64,0,0,1,1,1.62,5.81,5.81,0,0,1,.35,2v8.1Zm-4.45-2.36a3.08,3.08,0,0,0,1.31-.26,4,4,0,0,0,1.14-.85V85.82a10,10,0,0,0-1.91.15,4.61,4.61,0,0,0-1.19.38,1.44,1.44,0,0,0-.61.52,1.23,1.23,0,0,0-.17.63,1.1,1.1,0,0,0,.36.94A1.75,1.75,0,0,0,263.85,88.71Zm6-16.05-3.25,3.29a1.93,1.93,0,0,1-.55.41,1.72,1.72,0,0,1-.7.12H263l1.7-3.06a1.68,1.68,0,0,1,.5-.56,1.58,1.58,0,0,1,.88-.19Z"/><path class="d1ea9875-0cc1-43f6-a6c7-1f30b7fab186" d="M273.4,91.07V80.77l-.85-.18a1.74,1.74,0,0,1-.71-.31.75.75,0,0,1-.27-.62V78.13h1.83v-.19a6,6,0,0,1,.41-2.22,4.73,4.73,0,0,1,1.26-1.81,6.13,6.13,0,0,1,2.17-1.22,9.77,9.77,0,0,1,3.14-.45q.56,0,1.16.06a6.74,6.74,0,0,1,1,.17l-.12,2a.44.44,0,0,1-.31.41,1.85,1.85,0,0,1-.61.1,9.61,9.61,0,0,0-2.15.2,3.37,3.37,0,0,0-1.34.59,2.05,2.05,0,0,0-.69,1,4.32,4.32,0,0,0-.19,1.35v.06h8.22V91.07H281.5V80.78h-4.22V91.07Z"/><path class="d1ea9875-0cc1-43f6-a6c7-1f30b7fab186" d="M297.9,81.18a2.16,2.16,0,0,1-.34.34.75.75,0,0,1-.46.13,1,1,0,0,1-.52-.14l-.52-.31a3.93,3.93,0,0,0-.67-.31,2.9,2.9,0,0,0-1-.14,2.69,2.69,0,0,0-1.23.26,2.27,2.27,0,0,0-.86.75,3.4,3.4,0,0,0-.5,1.19,7.13,7.13,0,0,0-.16,1.59,4.85,4.85,0,0,0,.72,2.86,2.31,2.31,0,0,0,2,1,2.76,2.76,0,0,0,1.07-.17,3.22,3.22,0,0,0,.67-.37l.51-.38a.94.94,0,0,1,.58-.17.8.8,0,0,1,.7.34L299,89a6.14,6.14,0,0,1-1.26,1.12,6.32,6.32,0,0,1-1.36.67,7,7,0,0,1-1.39.34,10.26,10.26,0,0,1-1.36.09,5.85,5.85,0,0,1-2.27-.45,5.56,5.56,0,0,1-1.9-1.31,6.25,6.25,0,0,1-1.3-2.11,7.88,7.88,0,0,1-.48-2.85,8,8,0,0,1,.42-2.62,5.93,5.93,0,0,1,1.24-2.11,5.76,5.76,0,0,1,2-1.41,7.1,7.1,0,0,1,2.79-.51,6.81,6.81,0,0,1,2.67.49,6.41,6.41,0,0,1,2.08,1.42Z"/><path class="d1ea9875-0cc1-43f6-a6c7-1f30b7fab186" d="M306.47,77.91a7.49,7.49,0,0,1,2.69.46,5.9,5.9,0,0,1,2.08,1.33,6,6,0,0,1,1.35,2.09,7.56,7.56,0,0,1,.48,2.77,7.7,7.7,0,0,1-.48,2.79,6,6,0,0,1-1.35,2.11,5.93,5.93,0,0,1-2.08,1.34,7.39,7.39,0,0,1-2.69.47,7.48,7.48,0,0,1-2.71-.47,6,6,0,0,1-2.1-1.34,5.91,5.91,0,0,1-1.36-2.11,7.68,7.68,0,0,1-.48-2.79,7.54,7.54,0,0,1,.48-2.77,5.87,5.87,0,0,1,1.36-2.09,6,6,0,0,1,2.1-1.33A7.58,7.58,0,0,1,306.47,77.91Zm0,10.49a2.2,2.2,0,0,0,2-.94,6.81,6.81,0,0,0,0-5.73,2.21,2.21,0,0,0-2-.94,2.26,2.26,0,0,0-2,.94,6.76,6.76,0,0,0,0,5.73A2.25,2.25,0,0,0,306.47,88.4Z"/><path class="d1ea9875-0cc1-43f6-a6c7-1f30b7fab186" d="M142,102.86v3.25h-7.48v4.25h5.73v3.13h-5.73v4.34H142v3.25H130.29V102.86Z"/><path class="d1ea9875-0cc1-43f6-a6c7-1f30b7fab186" d="M144.42,121.07v-13h2.4a1.07,1.07,0,0,1,.61.16.86.86,0,0,1,.34.49l.21.7a7.12,7.12,0,0,1,.67-.62,4.36,4.36,0,0,1,.76-.49,4.09,4.09,0,0,1,1.91-.44,3,3,0,0,1,1.94.61,3.79,3.79,0,0,1,1.17,1.62,3.82,3.82,0,0,1,.79-1,4.3,4.3,0,0,1,1-.69,4.91,4.91,0,0,1,1.15-.39,5.91,5.91,0,0,1,1.21-.12,5.48,5.48,0,0,1,2,.33,3.77,3.77,0,0,1,1.44,1,4.15,4.15,0,0,1,.88,1.55,6.68,6.68,0,0,1,.3,2.08v8.24h-3.87v-8.24q0-2-1.72-2a1.77,1.77,0,0,0-1.31.52,2,2,0,0,0-.52,1.49v8.24h-3.87v-8.24a2.21,2.21,0,0,0-.44-1.56,1.72,1.72,0,0,0-1.29-.45,2.17,2.17,0,0,0-1,.24,3.6,3.6,0,0,0-.88.64v9.38Z"/><path class="d1ea9875-0cc1-43f6-a6c7-1f30b7fab186" d="M174.89,121.07a1.8,1.8,0,0,1-.83-.15,1.14,1.14,0,0,1-.47-.62l-.28-.71q-.49.41-.94.72a5.87,5.87,0,0,1-.93.53,4.6,4.6,0,0,1-1,.33,6.35,6.35,0,0,1-1.21.11,5.25,5.25,0,0,1-1.61-.23,3.34,3.34,0,0,1-1.23-.68,3,3,0,0,1-.78-1.12,4.06,4.06,0,0,1-.28-1.55,3.26,3.26,0,0,1,.35-1.42,3.49,3.49,0,0,1,1.21-1.32,7.72,7.72,0,0,1,2.33-1,14.21,14.21,0,0,1,3.69-.4V113a2.41,2.41,0,0,0-.47-1.66,1.71,1.71,0,0,0-1.33-.51A3.51,3.51,0,0,0,170,111a5,5,0,0,0-.78.34l-.67.34a1.84,1.84,0,0,1-.78.15,1.17,1.17,0,0,1-.68-.19,1.43,1.43,0,0,1-.44-.48l-.7-1.21a7.85,7.85,0,0,1,2.61-1.54,9.13,9.13,0,0,1,3.07-.51,5.59,5.59,0,0,1,2.12.38,4.55,4.55,0,0,1,1.6,1.06,4.64,4.64,0,0,1,1,1.62,5.82,5.82,0,0,1,.35,2.05v8.1Zm-4.45-2.36a3.08,3.08,0,0,0,1.31-.26,4,4,0,0,0,1.14-.85v-1.78A10,10,0,0,0,171,116a4.6,4.6,0,0,0-1.19.38,1.44,1.44,0,0,0-.61.52,1.23,1.23,0,0,0-.17.63,1.1,1.1,0,0,0,.36.94A1.76,1.76,0,0,0,170.44,118.71Z"/><path class="d1ea9875-0cc1-43f6-a6c7-1f30b7fab186" d="M183.86,104.56a2,2,0,0,1-.19.87,2.29,2.29,0,0,1-.51.71,2.52,2.52,0,0,1-.76.49,2.34,2.34,0,0,1-.92.18,2.18,2.18,0,0,1-.89-.18,2.51,2.51,0,0,1-.73-.49,2.27,2.27,0,0,1-.5-.71,2.12,2.12,0,0,1-.18-.87,2.19,2.19,0,0,1,.18-.89,2.32,2.32,0,0,1,.5-.73,2.37,2.37,0,0,1,.73-.49,2.26,2.26,0,0,1,.89-.17,2.43,2.43,0,0,1,.92.17,2.38,2.38,0,0,1,.76.49,2.34,2.34,0,0,1,.51.73A2.11,2.11,0,0,1,183.86,104.56Zm-.45,3.55v13h-3.87v-13Z"/><path class="d1ea9875-0cc1-43f6-a6c7-1f30b7fab186" d="M190.54,102.36v18.71h-3.87V102.36Z"/><path class="d1ea9875-0cc1-43f6-a6c7-1f30b7fab186" d="M202.71,115v6.09h-4.23V102.86h6.42a10.58,10.58,0,0,1,3.31.46,6.35,6.35,0,0,1,2.28,1.26,4.9,4.9,0,0,1,1.32,1.89,6.4,6.4,0,0,1,.42,2.35,6.9,6.9,0,0,1-.44,2.5,5,5,0,0,1-1.34,2,6.3,6.3,0,0,1-2.28,1.27,10.45,10.45,0,0,1-3.27.46Zm0-3.19h2.2a2.68,2.68,0,0,0,3.1-3,3.29,3.29,0,0,0-.19-1.14,2.31,2.31,0,0,0-.57-.88,2.55,2.55,0,0,0-1-.57,4.25,4.25,0,0,0-1.38-.2h-2.2Z"/><path class="d1ea9875-0cc1-43f6-a6c7-1f30b7fab186" d="M214.44,121.07v-13h2.3a2,2,0,0,1,.48.05.84.84,0,0,1,.33.16.66.66,0,0,1,.2.28,2.49,2.49,0,0,1,.12.42l.21,1.21a6.35,6.35,0,0,1,1.6-1.74,3.25,3.25,0,0,1,1.94-.64,2.23,2.23,0,0,1,1.42.43l-.5,2.85a.56.56,0,0,1-.2.37.68.68,0,0,1-.4.11,2.68,2.68,0,0,1-.5-.06,3.83,3.83,0,0,0-.73-.06,2.66,2.66,0,0,0-2.4,1.63v8Z"/><path class="d1ea9875-0cc1-43f6-a6c7-1f30b7fab186" d="M230.54,107.91a7.5,7.5,0,0,1,2.69.46,5.9,5.9,0,0,1,2.08,1.33,6,6,0,0,1,1.35,2.09,7.55,7.55,0,0,1,.48,2.77,7.68,7.68,0,0,1-.48,2.79,6,6,0,0,1-1.35,2.11,5.93,5.93,0,0,1-2.08,1.34,7.4,7.4,0,0,1-2.69.47,7.48,7.48,0,0,1-2.71-.47,6,6,0,0,1-2.1-1.34,5.92,5.92,0,0,1-1.36-2.11,7.68,7.68,0,0,1-.48-2.79,7.55,7.55,0,0,1,.48-2.77,5.89,5.89,0,0,1,1.36-2.09,6,6,0,0,1,2.1-1.33A7.59,7.59,0,0,1,230.54,107.91Zm0,10.49a2.2,2.2,0,0,0,2-.94,6.82,6.82,0,0,0,0-5.73,2.21,2.21,0,0,0-2-.94,2.26,2.26,0,0,0-2,.94,6.76,6.76,0,0,0,0,5.73A2.25,2.25,0,0,0,230.54,118.4Z"/><path class="d1ea9875-0cc1-43f6-a6c7-1f30b7fab186" d="M239.84,121.07v-10.3l-.85-.17a1.77,1.77,0,0,1-.71-.31.75.75,0,0,1-.27-.62v-1.53h1.83v-.19a6.07,6.07,0,0,1,.41-2.22,4.73,4.73,0,0,1,1.26-1.81,6.15,6.15,0,0,1,2.17-1.22,9.77,9.77,0,0,1,3.14-.45q.56,0,1.16.06a6.68,6.68,0,0,1,1,.17l-.12,2a.44.44,0,0,1-.31.41,1.86,1.86,0,0,1-.61.1,9.65,9.65,0,0,0-2.15.2,3.38,3.38,0,0,0-1.34.59,2.06,2.06,0,0,0-.69,1,4.32,4.32,0,0,0-.19,1.35v.06h8.22v12.94h-3.87V110.78h-4.22v10.29Z"/><path class="d1ea9875-0cc1-43f6-a6c7-1f30b7fab186" d="M262.91,110.95a1,1,0,0,1-.32.34.84.84,0,0,1-.43.1,1.37,1.37,0,0,1-.55-.12L261,111a6.4,6.4,0,0,0-.72-.26,3.21,3.21,0,0,0-.91-.12,1.93,1.93,0,0,0-1.13.28.91.91,0,0,0-.39.78.78.78,0,0,0,.26.6,2.3,2.3,0,0,0,.68.42,9.34,9.34,0,0,0,1,.34l1.1.36a10,10,0,0,1,1.1.47,4.14,4.14,0,0,1,1,.66,3,3,0,0,1,.68,1,3.24,3.24,0,0,1,.26,1.35,4.44,4.44,0,0,1-.35,1.78,3.76,3.76,0,0,1-1,1.4,4.94,4.94,0,0,1-1.71.91,7.71,7.71,0,0,1-2.34.33,7.15,7.15,0,0,1-1.32-.12,9.1,9.1,0,0,1-1.28-.34,7,7,0,0,1-1.14-.51,5,5,0,0,1-.9-.63l.9-1.42a1.31,1.31,0,0,1,.39-.39,1.08,1.08,0,0,1,.59-.14,1.23,1.23,0,0,1,.61.15l.58.33a4.74,4.74,0,0,0,.73.33,3.17,3.17,0,0,0,1.06.15,2.68,2.68,0,0,0,.76-.09,1.35,1.35,0,0,0,.5-.26,1,1,0,0,0,.36-.77.84.84,0,0,0-.26-.64,2.29,2.29,0,0,0-.69-.43,8.34,8.34,0,0,0-1-.34q-.54-.16-1.11-.36a9,9,0,0,1-1.11-.48,3.79,3.79,0,0,1-1-.71,3.3,3.3,0,0,1-.69-1.06,3.91,3.91,0,0,1-.26-1.51,4,4,0,0,1,.32-1.57,3.64,3.64,0,0,1,1-1.31,4.69,4.69,0,0,1,1.6-.89,6.92,6.92,0,0,1,2.25-.33,7.18,7.18,0,0,1,1.36.13,6.88,6.88,0,0,1,1.23.35,6,6,0,0,1,1,.53,5,5,0,0,1,.84.67Z"/><path class="d1ea9875-0cc1-43f6-a6c7-1f30b7fab186" d="M273.91,110.95a1,1,0,0,1-.32.34.84.84,0,0,1-.43.1,1.37,1.37,0,0,1-.55-.12L272,111a6.4,6.4,0,0,0-.72-.26,3.21,3.21,0,0,0-.91-.12,1.93,1.93,0,0,0-1.13.28.91.91,0,0,0-.39.78.78.78,0,0,0,.26.6,2.3,2.3,0,0,0,.68.42,9.34,9.34,0,0,0,1,.34l1.1.36a10,10,0,0,1,1.1.47,4.14,4.14,0,0,1,1,.66,3,3,0,0,1,.68,1,3.24,3.24,0,0,1,.26,1.35,4.44,4.44,0,0,1-.35,1.78,3.76,3.76,0,0,1-1,1.4,4.94,4.94,0,0,1-1.71.91,7.71,7.71,0,0,1-2.34.33,7.15,7.15,0,0,1-1.32-.12,9.1,9.1,0,0,1-1.28-.34,7,7,0,0,1-1.14-.51,5,5,0,0,1-.9-.63l.9-1.42a1.31,1.31,0,0,1,.39-.39,1.08,1.08,0,0,1,.59-.14,1.23,1.23,0,0,1,.61.15l.58.33a4.74,4.74,0,0,0,.73.33,3.17,3.17,0,0,0,1.06.15,2.68,2.68,0,0,0,.76-.09,1.35,1.35,0,0,0,.5-.26,1,1,0,0,0,.36-.77.84.84,0,0,0-.26-.64,2.29,2.29,0,0,0-.69-.43,8.34,8.34,0,0,0-1-.34q-.54-.16-1.11-.36a9,9,0,0,1-1.11-.48,3.79,3.79,0,0,1-1-.71,3.3,3.3,0,0,1-.69-1.06,3.91,3.91,0,0,1-.26-1.51,4,4,0,0,1,.32-1.57,3.64,3.64,0,0,1,1-1.31,4.69,4.69,0,0,1,1.6-.89,6.92,6.92,0,0,1,2.25-.33,7.18,7.18,0,0,1,1.36.13,6.88,6.88,0,0,1,1.23.35,6,6,0,0,1,1,.53,5,5,0,0,1,.84.67Z"/><path class="d1ea9875-0cc1-43f6-a6c7-1f30b7fab186" d="M281.44,104.56a2,2,0,0,1-.19.87,2.29,2.29,0,0,1-.51.71,2.51,2.51,0,0,1-.76.49,2.34,2.34,0,0,1-.92.18,2.17,2.17,0,0,1-.89-.18,2.5,2.5,0,0,1-.73-.49,2.25,2.25,0,0,1-.5-.71,2.1,2.1,0,0,1-.18-.87,2.17,2.17,0,0,1,.18-.89,2.31,2.31,0,0,1,.5-.73,2.36,2.36,0,0,1,.73-.49,2.25,2.25,0,0,1,.89-.17,2.43,2.43,0,0,1,.92.17,2.37,2.37,0,0,1,.76.49,2.34,2.34,0,0,1,.51.73A2.11,2.11,0,0,1,281.44,104.56Zm-.45,3.55v13h-3.87v-13Z"/><path class="d1ea9875-0cc1-43f6-a6c7-1f30b7fab186" d="M289.89,107.91a7.5,7.5,0,0,1,2.69.46,5.9,5.9,0,0,1,2.08,1.33,6,6,0,0,1,1.35,2.09,7.57,7.57,0,0,1,.48,2.77,7.7,7.7,0,0,1-.48,2.79,6,6,0,0,1-1.35,2.11,5.93,5.93,0,0,1-2.08,1.34,7.39,7.39,0,0,1-2.69.47,7.48,7.48,0,0,1-2.71-.47,6,6,0,0,1-2.1-1.34,5.91,5.91,0,0,1-1.36-2.11,7.68,7.68,0,0,1-.48-2.79,7.55,7.55,0,0,1,.48-2.77,5.88,5.88,0,0,1,1.36-2.09,6,6,0,0,1,2.1-1.33A7.59,7.59,0,0,1,289.89,107.91Zm0,10.49a2.2,2.2,0,0,0,2-.94,6.81,6.81,0,0,0,0-5.73,2.21,2.21,0,0,0-2-.94,2.26,2.26,0,0,0-2,.94,6.76,6.76,0,0,0,0,5.73A2.25,2.25,0,0,0,289.89,118.4Z"/><path class="d1ea9875-0cc1-43f6-a6c7-1f30b7fab186" d="M298.61,121.07v-13H301a1.07,1.07,0,0,1,.61.16.87.87,0,0,1,.34.49l.22.75a9.3,9.3,0,0,1,.78-.65,4.6,4.6,0,0,1,.86-.51,5.08,5.08,0,0,1,1-.33,5.3,5.3,0,0,1,1.16-.12,4.55,4.55,0,0,1,1.88.37,3.91,3.91,0,0,1,1.38,1,4.43,4.43,0,0,1,.85,1.56,6.49,6.49,0,0,1,.29,2v8.24h-3.87v-8.24a2.27,2.27,0,0,0-.44-1.48,1.57,1.57,0,0,0-1.29-.53,2.69,2.69,0,0,0-1.2.28,4.64,4.64,0,0,0-1.08.74v9.24Z"/><path class="d1ea9875-0cc1-43f6-a6c7-1f30b7fab186" d="M322.06,121.07a1.81,1.81,0,0,1-.83-.15,1.14,1.14,0,0,1-.47-.62l-.27-.71q-.49.41-.94.72a5.84,5.84,0,0,1-.93.53,4.58,4.58,0,0,1-1,.33,6.36,6.36,0,0,1-1.21.11,5.25,5.25,0,0,1-1.61-.23,3.35,3.35,0,0,1-1.23-.68,3,3,0,0,1-.78-1.12,4.07,4.07,0,0,1-.27-1.55,3.26,3.26,0,0,1,.35-1.42,3.5,3.5,0,0,1,1.21-1.32,7.71,7.71,0,0,1,2.33-1,14.21,14.21,0,0,1,3.69-.4V113a2.41,2.41,0,0,0-.47-1.66,1.72,1.72,0,0,0-1.33-.51,3.52,3.52,0,0,0-1.12.15,5.06,5.06,0,0,0-.78.34l-.67.34a1.85,1.85,0,0,1-.78.15,1.17,1.17,0,0,1-.68-.19,1.43,1.43,0,0,1-.44-.48l-.7-1.21a7.86,7.86,0,0,1,2.61-1.54,9.12,9.12,0,0,1,3.07-.51,5.6,5.6,0,0,1,2.12.38,4.56,4.56,0,0,1,1.6,1.06,4.64,4.64,0,0,1,1,1.62,5.82,5.82,0,0,1,.35,2.05v8.1Zm-4.45-2.36a3.08,3.08,0,0,0,1.31-.26,4,4,0,0,0,1.14-.85v-1.78a10,10,0,0,0-1.91.15,4.61,4.61,0,0,0-1.19.38,1.45,1.45,0,0,0-.61.52,1.23,1.23,0,0,0-.17.63,1.1,1.1,0,0,0,.36.94A1.76,1.76,0,0,0,317.61,118.71Z"/><path class="d1ea9875-0cc1-43f6-a6c7-1f30b7fab186" d="M330.59,102.36v18.71h-3.87V102.36Z"/><path class="d1ea9875-0cc1-43f6-a6c7-1f30b7fab186" d="M142.36,146.36a.86.86,0,0,1,.3.06.82.82,0,0,1,.29.19l1.67,1.76a7,7,0,0,1-2.76,2.17,9.65,9.65,0,0,1-3.92.73,9.34,9.34,0,0,1-3.72-.71,8,8,0,0,1-2.79-2,8.58,8.58,0,0,1-1.76-3,10.9,10.9,0,0,1-.61-3.71,9.77,9.77,0,0,1,.7-3.74,8.73,8.73,0,0,1,2-2.94,8.82,8.82,0,0,1,3-1.92,10.47,10.47,0,0,1,3.86-.69,9.9,9.9,0,0,1,1.93.18,9.52,9.52,0,0,1,1.69.5,8,8,0,0,1,1.45.76,7,7,0,0,1,1.18,1L143.43,137a1.79,1.79,0,0,1-.32.32.85.85,0,0,1-.53.14.93.93,0,0,1-.42-.1,4.52,4.52,0,0,1-.42-.24l-.49-.31a3.81,3.81,0,0,0-.64-.31,5.36,5.36,0,0,0-.86-.24,5.91,5.91,0,0,0-1.16-.1,5.29,5.29,0,0,0-2.1.41,4.6,4.6,0,0,0-1.63,1.16,5.4,5.4,0,0,0-1.06,1.83,7.19,7.19,0,0,0-.38,2.41,7.5,7.5,0,0,0,.38,2.49,5.45,5.45,0,0,0,1,1.83,4.4,4.4,0,0,0,1.53,1.13,4.58,4.58,0,0,0,1.88.39,9.08,9.08,0,0,0,1-.06,4.36,4.36,0,0,0,.88-.19,4.06,4.06,0,0,0,.78-.36,5.25,5.25,0,0,0,.74-.54,1.5,1.5,0,0,1,.33-.21A.85.85,0,0,1,142.36,146.36Z"/><path class="d1ea9875-0cc1-43f6-a6c7-1f30b7fab186" d="M152.33,137.91a7.5,7.5,0,0,1,2.69.46,5.9,5.9,0,0,1,2.08,1.33,6,6,0,0,1,1.35,2.09,7.55,7.55,0,0,1,.48,2.77,7.68,7.68,0,0,1-.48,2.79,6,6,0,0,1-1.35,2.11A5.93,5.93,0,0,1,155,150.8a7.4,7.4,0,0,1-2.69.47,7.48,7.48,0,0,1-2.71-.47,6,6,0,0,1-2.1-1.34,5.92,5.92,0,0,1-1.36-2.11,7.68,7.68,0,0,1-.48-2.79,7.55,7.55,0,0,1,.48-2.77,5.89,5.89,0,0,1,1.36-2.09,6,6,0,0,1,2.1-1.33A7.59,7.59,0,0,1,152.33,137.91Zm0,10.49a2.2,2.2,0,0,0,2-.94,6.82,6.82,0,0,0,0-5.73,2.21,2.21,0,0,0-2-.94,2.26,2.26,0,0,0-2,.94,6.76,6.76,0,0,0,0,5.73A2.25,2.25,0,0,0,152.33,148.4Z"/><path class="d1ea9875-0cc1-43f6-a6c7-1f30b7fab186" d="M161.05,151.07v-13h2.4a1.07,1.07,0,0,1,.61.16.87.87,0,0,1,.34.49l.22.75a9.3,9.3,0,0,1,.78-.65,4.6,4.6,0,0,1,.86-.51,5.08,5.08,0,0,1,1-.33,5.3,5.3,0,0,1,1.16-.12,4.55,4.55,0,0,1,1.88.37,3.91,3.91,0,0,1,1.38,1,4.43,4.43,0,0,1,.85,1.56,6.49,6.49,0,0,1,.29,2v8.24h-3.87v-8.24a2.27,2.27,0,0,0-.44-1.48,1.57,1.57,0,0,0-1.29-.53,2.69,2.69,0,0,0-1.2.28,4.64,4.64,0,0,0-1.08.74v9.24Z"/><path class="d1ea9875-0cc1-43f6-a6c7-1f30b7fab186" d="M183.48,140.95a1,1,0,0,1-.32.34.84.84,0,0,1-.43.1,1.36,1.36,0,0,1-.55-.12l-.59-.26a6.47,6.47,0,0,0-.72-.26,3.21,3.21,0,0,0-.91-.12,1.93,1.93,0,0,0-1.13.28.91.91,0,0,0-.39.78.78.78,0,0,0,.26.6,2.32,2.32,0,0,0,.68.42,9.32,9.32,0,0,0,1,.34l1.1.36a10,10,0,0,1,1.1.47,4.12,4.12,0,0,1,1,.66,3,3,0,0,1,.68,1,3.24,3.24,0,0,1,.26,1.35,4.44,4.44,0,0,1-.35,1.78,3.77,3.77,0,0,1-1,1.4,5,5,0,0,1-1.71.91,7.71,7.71,0,0,1-2.34.33,7.16,7.16,0,0,1-1.33-.12,9.17,9.17,0,0,1-1.28-.34,7,7,0,0,1-1.14-.51,5,5,0,0,1-.9-.63l.9-1.42a1.3,1.3,0,0,1,.39-.39,1.07,1.07,0,0,1,.59-.14,1.22,1.22,0,0,1,.61.15l.58.33a4.78,4.78,0,0,0,.73.33,3.18,3.18,0,0,0,1.06.15,2.69,2.69,0,0,0,.76-.09,1.35,1.35,0,0,0,.5-.26,1,1,0,0,0,.36-.77.84.84,0,0,0-.26-.64,2.29,2.29,0,0,0-.69-.43,8.4,8.4,0,0,0-1-.34q-.54-.16-1.11-.36a9,9,0,0,1-1.11-.48,3.79,3.79,0,0,1-1-.71,3.32,3.32,0,0,1-.69-1.06,4.24,4.24,0,0,1,.06-3.08,3.65,3.65,0,0,1,1-1.31,4.69,4.69,0,0,1,1.6-.89,6.92,6.92,0,0,1,2.25-.33,7.18,7.18,0,0,1,1.36.13,6.86,6.86,0,0,1,1.23.35,5.9,5.9,0,0,1,1,.53,5,5,0,0,1,.84.67Z"/><path class="d1ea9875-0cc1-43f6-a6c7-1f30b7fab186" d="M190.18,138.11v8.23a2.26,2.26,0,0,0,.44,1.49,1.58,1.58,0,0,0,1.29.53,2.76,2.76,0,0,0,1.19-.26,4.44,4.44,0,0,0,1.08-.74v-9.24h3.88v13h-2.4a.91.91,0,0,1-1-.65l-.24-.75a7.4,7.4,0,0,1-.78.66,4.65,4.65,0,0,1-.86.5,5.08,5.08,0,0,1-1,.33,5.21,5.21,0,0,1-1.15.12,4.53,4.53,0,0,1-1.88-.37,3.85,3.85,0,0,1-1.38-1,4.49,4.49,0,0,1-.85-1.56,6.44,6.44,0,0,1-.29-2v-8.23Z"/><path class="d1ea9875-0cc1-43f6-a6c7-1f30b7fab186" d="M205.05,132.36v18.71h-3.87V132.36Z"/><path class="d1ea9875-0cc1-43f6-a6c7-1f30b7fab186" d="M212.73,151.27a4.58,4.58,0,0,1-1.63-.27,3.15,3.15,0,0,1-1.92-2,4.61,4.61,0,0,1-.25-1.56v-6.7h-1.1a.7.7,0,0,1-.72-.76v-1.51l2.06-.4.76-3.16a.77.77,0,0,1,.85-.6h2v3.79H216v2.65H212.8v6.44a1.2,1.2,0,0,0,.22.74.74.74,0,0,0,.63.29,1.24,1.24,0,0,0,.36,0l.25-.1.2-.1a.52.52,0,0,1,.22,0,.45.45,0,0,1,.28.08,1,1,0,0,1,.22.26l1.17,1.84a5.35,5.35,0,0,1-1.69.84A6.7,6.7,0,0,1,212.73,151.27Z"/><path class="d1ea9875-0cc1-43f6-a6c7-1f30b7fab186" d="M224,137.91a7.5,7.5,0,0,1,2.69.46,5.9,5.9,0,0,1,2.08,1.33,6,6,0,0,1,1.35,2.09,7.57,7.57,0,0,1,.48,2.77,7.7,7.7,0,0,1-.48,2.79,6,6,0,0,1-1.35,2.11,5.93,5.93,0,0,1-2.08,1.34,7.39,7.39,0,0,1-2.69.47,7.48,7.48,0,0,1-2.71-.47,6,6,0,0,1-2.1-1.34,5.91,5.91,0,0,1-1.36-2.11,7.68,7.68,0,0,1-.48-2.79,7.55,7.55,0,0,1,.48-2.77,5.88,5.88,0,0,1,1.36-2.09,6,6,0,0,1,2.1-1.33A7.59,7.59,0,0,1,224,137.91Zm0,10.49a2.2,2.2,0,0,0,2-.94,6.81,6.81,0,0,0,0-5.73,2.21,2.21,0,0,0-2-.94,2.26,2.26,0,0,0-2,.94,6.76,6.76,0,0,0,0,5.73A2.25,2.25,0,0,0,224,148.4Z"/><path class="d1ea9875-0cc1-43f6-a6c7-1f30b7fab186" d="M232.67,151.07v-13H235a2,2,0,0,1,.48.05.84.84,0,0,1,.33.16.66.66,0,0,1,.2.28,2.5,2.5,0,0,1,.12.42l.21,1.21a6.35,6.35,0,0,1,1.6-1.74,3.25,3.25,0,0,1,1.94-.64,2.24,2.24,0,0,1,1.43.43l-.5,2.85a.56.56,0,0,1-.2.37.68.68,0,0,1-.4.11,2.68,2.68,0,0,1-.5-.06,3.82,3.82,0,0,0-.72-.06,2.66,2.66,0,0,0-2.4,1.63v8Z"/><path class="d1ea9875-0cc1-43f6-a6c7-1f30b7fab186" d="M247.45,134.56a2,2,0,0,1-.19.87,2.29,2.29,0,0,1-.51.71,2.5,2.5,0,0,1-.76.49,2.36,2.36,0,0,1-.92.18,2.19,2.19,0,0,1-.89-.18,2.49,2.49,0,0,1-.73-.49,2.25,2.25,0,0,1-.5-.71,2.1,2.1,0,0,1-.18-.87,2.18,2.18,0,0,1,.18-.89,2.3,2.3,0,0,1,.5-.72,2.34,2.34,0,0,1,.73-.49,2.24,2.24,0,0,1,.89-.17,2.41,2.41,0,0,1,.92.17,2.35,2.35,0,0,1,1.27,1.21A2.12,2.12,0,0,1,247.45,134.56Zm-.45,3.55v13h-3.87v-13Z"/><path class="d1ea9875-0cc1-43f6-a6c7-1f30b7fab186" d="M259.08,151.07a1.81,1.81,0,0,1-.83-.15,1.14,1.14,0,0,1-.47-.62l-.27-.71q-.49.41-.94.72a5.84,5.84,0,0,1-.93.53,4.58,4.58,0,0,1-1,.33,6.36,6.36,0,0,1-1.21.11,5.25,5.25,0,0,1-1.61-.23,3.35,3.35,0,0,1-1.23-.68,3,3,0,0,1-.78-1.12,4.07,4.07,0,0,1-.27-1.55,3.26,3.26,0,0,1,.35-1.42,3.5,3.5,0,0,1,1.21-1.32,7.71,7.71,0,0,1,2.33-1,14.21,14.21,0,0,1,3.69-.4V143a2.41,2.41,0,0,0-.47-1.66,1.72,1.72,0,0,0-1.33-.51,3.52,3.52,0,0,0-1.12.15,5.06,5.06,0,0,0-.78.34l-.67.34a1.85,1.85,0,0,1-.78.15,1.17,1.17,0,0,1-.68-.19,1.43,1.43,0,0,1-.44-.48l-.7-1.21a7.86,7.86,0,0,1,2.61-1.54,9.12,9.12,0,0,1,3.07-.51,5.62,5.62,0,0,1,2.12.38,4.56,4.56,0,0,1,1.6,1.06,4.64,4.64,0,0,1,1,1.62,5.82,5.82,0,0,1,.35,2.05v8.1Zm-4.45-2.36a3.08,3.08,0,0,0,1.31-.26,4,4,0,0,0,1.14-.85v-1.78a10,10,0,0,0-1.91.15,4.61,4.61,0,0,0-1.19.38,1.45,1.45,0,0,0-.61.52,1.23,1.23,0,0,0-.17.63,1.1,1.1,0,0,0,.36.94A1.76,1.76,0,0,0,254.63,148.71Z"/><path class="d1ea9875-0cc1-43f6-a6c7-1f30b7fab186" d="M277.52,151.07a1.07,1.07,0,0,1-.61-.16.87.87,0,0,1-.34-.49l-.3-1a7.57,7.57,0,0,1-.81.75,5.09,5.09,0,0,1-.92.58,4.8,4.8,0,0,1-1.06.38,5.45,5.45,0,0,1-1.23.13,4,4,0,0,1-1.87-.45,4.31,4.31,0,0,1-1.49-1.3,6.55,6.55,0,0,1-1-2.08,10.12,10.12,0,0,1-.36-2.81,8.75,8.75,0,0,1,.4-2.69,6.61,6.61,0,0,1,1.13-2.15,5.25,5.25,0,0,1,1.76-1.42,5,5,0,0,1,2.26-.51,4.36,4.36,0,0,1,1.69.29,4.92,4.92,0,0,1,1.26.77v-6.56h3.88v18.71Zm-3.93-2.78a3.33,3.33,0,0,0,.77-.08A2.66,2.66,0,0,0,275,148a2.73,2.73,0,0,0,.54-.37,4.65,4.65,0,0,0,.51-.52v-5.5a2.56,2.56,0,0,0-1-.68,3,3,0,0,0-1.07-.19,2.29,2.29,0,0,0-1,.21,2,2,0,0,0-.78.68,3.63,3.63,0,0,0-.52,1.22,7.57,7.57,0,0,0-.19,1.81,8.34,8.34,0,0,0,.15,1.72,3.54,3.54,0,0,0,.42,1.13,1.62,1.62,0,0,0,.64.62A1.85,1.85,0,0,0,273.6,148.3Z"/><path class="d1ea9875-0cc1-43f6-a6c7-1f30b7fab186" d="M288.47,137.91a6.68,6.68,0,0,1,2.36.4,5.11,5.11,0,0,1,1.84,1.16,5.29,5.29,0,0,1,1.2,1.87,6.85,6.85,0,0,1,.43,2.51,5.38,5.38,0,0,1,0,.71,1.12,1.12,0,0,1-.14.44.53.53,0,0,1-.27.23,1.27,1.27,0,0,1-.43.06h-7.48a3.65,3.65,0,0,0,1,2.36,2.93,2.93,0,0,0,2.06.73,3.69,3.69,0,0,0,1.16-.16,6,6,0,0,0,.87-.36l.7-.36a1.47,1.47,0,0,1,.67-.16.8.8,0,0,1,.7.34l1.13,1.39a5.74,5.74,0,0,1-1.29,1.12,6.71,6.71,0,0,1-1.42.67,7.67,7.67,0,0,1-1.46.34,11,11,0,0,1-1.39.09,7.27,7.27,0,0,1-2.56-.44,5.86,5.86,0,0,1-2.09-1.32,6.22,6.22,0,0,1-1.41-2.17,8.11,8.11,0,0,1-.52-3,6.84,6.84,0,0,1,.44-2.46,6,6,0,0,1,3.29-3.43A6.66,6.66,0,0,1,288.47,137.91Zm.08,2.67a2.33,2.33,0,0,0-1.74.63A3.28,3.28,0,0,0,286,143h4.84a3.43,3.43,0,0,0-.12-.9,2.19,2.19,0,0,0-.39-.78,2,2,0,0,0-.71-.56A2.42,2.42,0,0,0,288.55,140.58Z"/><path class="d1ea9875-0cc1-43f6-a6c7-1f30b7fab186" d="M314.57,132.86v3.35h-5.12v14.86h-4.22V136.21H300.1v-3.35Z"/><path class="d1ea9875-0cc1-43f6-a6c7-1f30b7fab186" d="M313.32,149.11a2.07,2.07,0,0,1,.17-.84,2.1,2.1,0,0,1,.46-.67,2.2,2.2,0,0,1,.69-.46,2.23,2.23,0,0,1,.88-.17,2.2,2.2,0,0,1,.86.17,2.29,2.29,0,0,1,.7.46,2.07,2.07,0,0,1,.64,1.51,2.12,2.12,0,0,1-.17.84,2,2,0,0,1-.47.68,2.2,2.2,0,0,1-.7.45,2.27,2.27,0,0,1-.86.16,2.3,2.3,0,0,1-.87-.16,2.12,2.12,0,0,1-.69-.45,2.09,2.09,0,0,1-.46-.68A2.12,2.12,0,0,1,313.32,149.11Z"/><path class="d1ea9875-0cc1-43f6-a6c7-1f30b7fab186" d="M324.6,151.07h-4.25V132.86h4.25Z"/><path class="d1ea9875-0cc1-43f6-a6c7-1f30b7fab186" d="M327.22,149.11a2.07,2.07,0,0,1,.17-.84,2.1,2.1,0,0,1,.46-.67,2.2,2.2,0,0,1,.69-.46,2.23,2.23,0,0,1,.88-.17,2.2,2.2,0,0,1,.86.17,2.29,2.29,0,0,1,.7.46,2.07,2.07,0,0,1,.64,1.51,2.12,2.12,0,0,1-.17.84,2,2,0,0,1-.47.68,2.2,2.2,0,0,1-.7.45,2.27,2.27,0,0,1-.86.16,2.3,2.3,0,0,1-.87-.16,2.12,2.12,0,0,1-.69-.45,2.09,2.09,0,0,1-.46-.68A2.12,2.12,0,0,1,327.22,149.11Z"/></g></g></svg>