<svg xmlns="http://www.w3.org/2000/svg" viewBox="0 0 312 118"><defs><style>.\32 60eb544-f737-438a-9f3d-ccaf984232e9{fill:none;stroke:#c33;stroke-miterlimit:10;}.\34 ed1662b-a073-4d69-a7d2-9ed9c1a051d9{fill:#c33;}</style></defs><title>Asset 3</title><g id="03853d51-a40b-468b-8b18-1ac13b8d7609" data-name="Layer 2"><g id="0f94160c-4e81-4ff1-8aba-b3a37f876e77" data-name="Layer 1"><rect class="260eb544-f737-438a-9f3d-ccaf984232e9" x="0.5" y="0.5" width="311" height="117" rx="12" ry="12"/><path class="4ed1662b-a073-4d69-a7d2-9ed9c1a051d9" d="M131.79,37.14a4.59,4.59,0,0,1-.33,1.75,4.09,4.09,0,0,1-.92,1.39,4.19,4.19,0,0,1-1.43.91,5.07,5.07,0,0,1-1.86.33h-3.4V32.77h3.4a5,5,0,0,1,1.86.33,4.25,4.25,0,0,1,1.43.91,4.06,4.06,0,0,1,.92,1.38A4.57,4.57,0,0,1,131.79,37.14Zm-2.08,0a3.79,3.79,0,0,0-.17-1.17,2.51,2.51,0,0,0-.48-.89,2.1,2.1,0,0,0-.77-.56,2.62,2.62,0,0,0-1-.2H125.9V40h1.36a2.62,2.62,0,0,0,1-.19,2.1,2.1,0,0,0,.77-.56,2.51,2.51,0,0,0,.48-.88A3.82,3.82,0,0,0,129.71,37.14Z"/><path class="4ed1662b-a073-4d69-a7d2-9ed9c1a051d9" d="M135.43,35.19a3.2,3.2,0,0,1,1.13.19,2.46,2.46,0,0,1,.88.56,2.54,2.54,0,0,1,.58.9,3.3,3.3,0,0,1,.21,1.2,2.69,2.69,0,0,1,0,.34.55.55,0,0,1-.07.21.25.25,0,0,1-.13.11.59.59,0,0,1-.21,0h-3.59a1.75,1.75,0,0,0,.47,1.13,1.41,1.41,0,0,0,1,.35,1.77,1.77,0,0,0,.56-.08,2.84,2.84,0,0,0,.42-.17l.34-.17a.7.7,0,0,1,.32-.08.38.38,0,0,1,.34.16l.54.67a2.71,2.71,0,0,1-.62.54,3.18,3.18,0,0,1-.68.32,3.72,3.72,0,0,1-.7.16,5.22,5.22,0,0,1-.67,0,3.5,3.5,0,0,1-1.23-.21,2.81,2.81,0,0,1-1-.63,3,3,0,0,1-.68-1,3.9,3.9,0,0,1-.25-1.45,3.3,3.3,0,0,1,.21-1.18,2.94,2.94,0,0,1,.61-1,2.91,2.91,0,0,1,1-.67A3.19,3.19,0,0,1,135.43,35.19Zm0,1.28a1.12,1.12,0,0,0-.83.3,1.58,1.58,0,0,0-.4.87h2.32a1.64,1.64,0,0,0-.06-.43,1,1,0,0,0-.19-.37,1,1,0,0,0-.34-.27A1.17,1.17,0,0,0,135.46,36.48Z"/><path class="4ed1662b-a073-4d69-a7d2-9ed9c1a051d9" d="M143.09,36.65a.48.48,0,0,1-.15.16.4.4,0,0,1-.21,0,.66.66,0,0,1-.26-.06l-.29-.12-.34-.12a1.54,1.54,0,0,0-.44-.06.93.93,0,0,0-.54.13.43.43,0,0,0-.19.38.38.38,0,0,0,.12.29,1.11,1.11,0,0,0,.33.2l.46.17.53.17a4.56,4.56,0,0,1,.53.22,2,2,0,0,1,.46.32,1.42,1.42,0,0,1,.33.46,1.55,1.55,0,0,1,.12.65,2.15,2.15,0,0,1-.17.85,1.82,1.82,0,0,1-.5.67,2.37,2.37,0,0,1-.82.44,3.69,3.69,0,0,1-1.12.16,3.42,3.42,0,0,1-.64-.06,4.51,4.51,0,0,1-.62-.16,3.39,3.39,0,0,1-.55-.24,2.41,2.41,0,0,1-.43-.3l.43-.68a.62.62,0,0,1,.19-.19.52.52,0,0,1,.28-.07.59.59,0,0,1,.29.07l.28.16a2.24,2.24,0,0,0,.35.16,1.52,1.52,0,0,0,.51.07,1.28,1.28,0,0,0,.37,0,.66.66,0,0,0,.24-.12.5.5,0,0,0,.13-.17.49.49,0,0,0,0-.2.4.4,0,0,0-.13-.31,1.09,1.09,0,0,0-.33-.21,3.87,3.87,0,0,0-.46-.16l-.53-.17a4.44,4.44,0,0,1-.53-.23,1.83,1.83,0,0,1-.46-.34,1.59,1.59,0,0,1-.33-.51,1.88,1.88,0,0,1-.13-.73,1.9,1.9,0,0,1,.15-.75,1.75,1.75,0,0,1,.46-.63,2.27,2.27,0,0,1,.77-.43,3.31,3.31,0,0,1,1.08-.16,3.47,3.47,0,0,1,.65.06,3.3,3.3,0,0,1,.59.17,2.7,2.7,0,0,1,.5.25,2.44,2.44,0,0,1,.4.32Z"/><path class="4ed1662b-a073-4d69-a7d2-9ed9c1a051d9" d="M146.71,33.59a1,1,0,0,1-.09.42,1.09,1.09,0,0,1-.25.34,1.2,1.2,0,0,1-.36.23,1.12,1.12,0,0,1-.44.09,1,1,0,0,1-.43-.09,1.21,1.21,0,0,1-.35-.23,1.09,1.09,0,0,1-.24-.34,1,1,0,0,1-.09-.42,1,1,0,0,1,.09-.43,1.1,1.1,0,0,1,.24-.35,1.15,1.15,0,0,1,.35-.23,1.08,1.08,0,0,1,.43-.08,1.17,1.17,0,0,1,.44.08,1.15,1.15,0,0,1,.36.23,1.1,1.1,0,0,1,.25.35A1,1,0,0,1,146.71,33.59Zm-.22,1.7v6.22h-1.86V35.29Z"/><path class="4ed1662b-a073-4d69-a7d2-9ed9c1a051d9" d="M150.19,35.18a3.46,3.46,0,0,1,.75.08,3,3,0,0,1,.65.22h1.88v.68a.34.34,0,0,1-.09.25.59.59,0,0,1-.3.14l-.46.1a1.85,1.85,0,0,1,.08.56,1.78,1.78,0,0,1-.19.84,1.92,1.92,0,0,1-.53.63,2.49,2.49,0,0,1-.8.4,3.35,3.35,0,0,1-1,.14,4.11,4.11,0,0,1-.55,0,.34.34,0,0,0-.2.28.24.24,0,0,0,.17.23,1.56,1.56,0,0,0,.43.1,6.1,6.1,0,0,0,.62,0q.35,0,.71,0a5.68,5.68,0,0,1,.71.11,1.9,1.9,0,0,1,.62.25,1.32,1.32,0,0,1,.43.47,1.5,1.5,0,0,1,.17.74,1.81,1.81,0,0,1-.2.82,2.15,2.15,0,0,1-.6.72,3.12,3.12,0,0,1-1,.5,4.22,4.22,0,0,1-1.32.19,5.09,5.09,0,0,1-1.26-.14,3.11,3.11,0,0,1-.88-.36,1.54,1.54,0,0,1-.52-.52,1.22,1.22,0,0,1-.17-.61,1,1,0,0,1,.25-.7,1.67,1.67,0,0,1,.69-.45,1,1,0,0,1-.34-.35,1.07,1.07,0,0,1-.13-.54,1,1,0,0,1,0-.29,1.05,1.05,0,0,1,.15-.3,1.53,1.53,0,0,1,.26-.28,1.69,1.69,0,0,1,.37-.23,2,2,0,0,1-.76-.68,1.89,1.89,0,0,1-.08-1.83,1.9,1.9,0,0,1,.54-.64,2.57,2.57,0,0,1,.81-.4A3.51,3.51,0,0,1,150.19,35.18Zm1.38,6.54a.33.33,0,0,0-.09-.25.67.67,0,0,0-.25-.15,1.76,1.76,0,0,0-.37-.08l-.46,0h-.51a2.67,2.67,0,0,1-.52-.05,1.21,1.21,0,0,0-.29.27.54.54,0,0,0-.11.33A.51.51,0,0,0,149,42a.46.46,0,0,0,.2.19,1.34,1.34,0,0,0,.39.12,3.45,3.45,0,0,0,.62,0,3.59,3.59,0,0,0,.66,0,1.34,1.34,0,0,0,.41-.13.49.49,0,0,0,.21-.21A.58.58,0,0,0,151.57,41.73Zm-1.38-3.65a.77.77,0,0,0,.88-.83.82.82,0,0,0-.21-.59,1.14,1.14,0,0,0-1.34,0,.82.82,0,0,0-.21.59,1,1,0,0,0,.05.33.69.69,0,0,0,.16.26.75.75,0,0,0,.27.17A1.11,1.11,0,0,0,150.19,38.07Z"/><path class="4ed1662b-a073-4d69-a7d2-9ed9c1a051d9" d="M154.27,41.51V35.29h1.15a.52.52,0,0,1,.29.08.42.42,0,0,1,.17.23L156,36a4.44,4.44,0,0,1,.37-.31,2.2,2.2,0,0,1,.41-.24,2.47,2.47,0,0,1,.47-.16,2.6,2.6,0,0,1,.55-.06,2.19,2.19,0,0,1,.9.18,1.89,1.89,0,0,1,.66.49,2.14,2.14,0,0,1,.41.75,3.12,3.12,0,0,1,.14.95v4H158v-4a1.08,1.08,0,0,0-.21-.71.75.75,0,0,0-.62-.25,1.29,1.29,0,0,0-.58.13,2.24,2.24,0,0,0-.52.35v4.43Z"/><path class="4ed1662b-a073-4d69-a7d2-9ed9c1a051d9" d="M162.88,32.77h1.7a.77.77,0,0,1,.44.12.55.55,0,0,1,.23.32l1.2,4.56q.06.22.12.47a4.2,4.2,0,0,1,.09.53q.06-.28.13-.53l.14-.47,1.42-4.56a.62.62,0,0,1,.23-.3.69.69,0,0,1,.43-.13h.6a.75.75,0,0,1,.43.12.6.6,0,0,1,.24.32l1.4,4.56.14.45q.07.24.13.51c0-.18.06-.34.1-.5s.07-.31.11-.45l1.2-4.56a.57.57,0,0,1,.23-.31.71.71,0,0,1,.43-.13h1.6l-2.7,8.74h-1.84l-1.64-5.42-.09-.28-.09-.32c0,.11-.06.22-.09.32l-.09.28-1.67,5.42h-1.84Z"/><path class="4ed1662b-a073-4d69-a7d2-9ed9c1a051d9" d="M178.76,35.19a3.21,3.21,0,0,1,1.13.19,2.46,2.46,0,0,1,.88.56,2.55,2.55,0,0,1,.58.9,3.3,3.3,0,0,1,.21,1.2,2.66,2.66,0,0,1,0,.34.55.55,0,0,1-.07.21.25.25,0,0,1-.13.11.59.59,0,0,1-.21,0h-3.59a1.75,1.75,0,0,0,.47,1.13,1.41,1.41,0,0,0,1,.35,1.78,1.78,0,0,0,.56-.08A2.84,2.84,0,0,0,180,40l.34-.17a.7.7,0,0,1,.32-.08.39.39,0,0,1,.34.16l.54.67a2.76,2.76,0,0,1-.62.54,3.21,3.21,0,0,1-.68.32,3.71,3.71,0,0,1-.7.16,5.23,5.23,0,0,1-.67,0,3.5,3.5,0,0,1-1.23-.21,2.81,2.81,0,0,1-1-.63,3,3,0,0,1-.68-1,3.9,3.9,0,0,1-.25-1.45,3.28,3.28,0,0,1,.21-1.18,2.87,2.87,0,0,1,1.58-1.64A3.18,3.18,0,0,1,178.76,35.19Zm0,1.28a1.12,1.12,0,0,0-.83.3,1.57,1.57,0,0,0-.4.87h2.32a1.64,1.64,0,0,0-.06-.43,1,1,0,0,0-.19-.37,1,1,0,0,0-.34-.27A1.17,1.17,0,0,0,178.79,36.48Z"/><path class="4ed1662b-a073-4d69-a7d2-9ed9c1a051d9" d="M182.62,41.51v-9h1.86v3.42a2.83,2.83,0,0,1,.79-.55,2.42,2.42,0,0,1,1-.21,2,2,0,0,1,.9.21,2,2,0,0,1,.71.62,3.08,3.08,0,0,1,.47,1,4.78,4.78,0,0,1,.17,1.34,4.14,4.14,0,0,1-.2,1.3,3.27,3.27,0,0,1-.55,1,2.53,2.53,0,0,1-.84.68,2.38,2.38,0,0,1-1.08.25,2.06,2.06,0,0,1-.5-.05,1.68,1.68,0,0,1-.74-.39,3.75,3.75,0,0,1-.3-.3l-.07.31a.4.4,0,0,1-.15.26.53.53,0,0,1-.29.07Zm3-4.92a1.59,1.59,0,0,0-.37,0,1.32,1.32,0,0,0-.31.11,1.14,1.14,0,0,0-.26.18,2.65,2.65,0,0,0-.24.25v2.64a1.17,1.17,0,0,0,.46.33,1.44,1.44,0,0,0,.52.09,1.1,1.1,0,0,0,.47-.1,1,1,0,0,0,.38-.33,1.73,1.73,0,0,0,.25-.58,3.64,3.64,0,0,0,.09-.88,4,4,0,0,0-.07-.83,1.7,1.7,0,0,0-.2-.54.78.78,0,0,0-.31-.3A.88.88,0,0,0,185.66,36.59Z"/><path class="4ed1662b-a073-4d69-a7d2-9ed9c1a051d9" d="M127.35,52.39c.07.16.15.33.21.5q.1-.27.22-.51t.23-.48l2.24-4.42a.73.73,0,0,1,.12-.18.41.41,0,0,1,.14-.09.51.51,0,0,1,.18,0h1.78v8.74h-1.79v-5c0-.24,0-.51,0-.79l-2.32,4.49a.76.76,0,0,1-.29.32.8.8,0,0,1-.42.11h-.28a.8.8,0,0,1-.42-.11.76.76,0,0,1-.29-.32l-2.33-4.5c0,.14,0,.28,0,.42s0,.27,0,.38v5h-1.79V47.18h1.78a.5.5,0,0,1,.18,0,.41.41,0,0,1,.14.09.73.73,0,0,1,.12.18l2.25,4.44Q127.24,52.14,127.35,52.39Z"/><path class="4ed1662b-a073-4d69-a7d2-9ed9c1a051d9" d="M136.69,49.59a3.59,3.59,0,0,1,1.29.22,2.84,2.84,0,0,1,1,.64,2.87,2.87,0,0,1,.65,1,3.62,3.62,0,0,1,.23,1.33,3.68,3.68,0,0,1-.23,1.34,2.89,2.89,0,0,1-.65,1,2.84,2.84,0,0,1-1,.64,3.55,3.55,0,0,1-1.29.23,3.59,3.59,0,0,1-1.3-.23,2.9,2.9,0,0,1-1-.64,2.85,2.85,0,0,1-.65-1,3.7,3.7,0,0,1-.23-1.34,3.64,3.64,0,0,1,.23-1.33,2.83,2.83,0,0,1,.65-1,2.9,2.9,0,0,1,1-.64A3.63,3.63,0,0,1,136.69,49.59Zm0,5a1.06,1.06,0,0,0,.94-.45,3.27,3.27,0,0,0,0-2.75,1.06,1.06,0,0,0-.94-.45,1.08,1.08,0,0,0-1,.45,3.25,3.25,0,0,0,0,2.75A1.08,1.08,0,0,0,136.69,54.63Z"/><path class="4ed1662b-a073-4d69-a7d2-9ed9c1a051d9" d="M140.88,55.91v-9h1.86v3.42a2.83,2.83,0,0,1,.79-.55,2.4,2.4,0,0,1,1-.21,2,2,0,0,1,.9.21,2,2,0,0,1,.71.61,3.15,3.15,0,0,1,.47,1,4.79,4.79,0,0,1,.17,1.34,4.13,4.13,0,0,1-.2,1.3,3.24,3.24,0,0,1-.55,1,2.51,2.51,0,0,1-.84.68,2.37,2.37,0,0,1-1.08.25,2.07,2.07,0,0,1-.5-.05,1.67,1.67,0,0,1-.74-.39,3.93,3.93,0,0,1-.3-.3l-.07.31a.4.4,0,0,1-.15.26.53.53,0,0,1-.29.07Zm3-4.92a1.63,1.63,0,0,0-.37,0,1.38,1.38,0,0,0-.31.11,1.15,1.15,0,0,0-.26.18,2.77,2.77,0,0,0-.24.25v2.64a1.17,1.17,0,0,0,.46.33,1.44,1.44,0,0,0,.52.09,1.09,1.09,0,0,0,.47-.1,1,1,0,0,0,.38-.33,1.76,1.76,0,0,0,.25-.58,3.68,3.68,0,0,0,.09-.88,4,4,0,0,0-.07-.83,1.71,1.71,0,0,0-.2-.54.78.78,0,0,0-.31-.3A.89.89,0,0,0,143.92,51Z"/><path class="4ed1662b-a073-4d69-a7d2-9ed9c1a051d9" d="M150,48a1,1,0,0,1-.09.42,1.11,1.11,0,0,1-.25.34,1.2,1.2,0,0,1-.36.23,1.13,1.13,0,0,1-.44.09,1.05,1.05,0,0,1-.43-.09,1.17,1.17,0,0,1-.35-.23,1.06,1.06,0,0,1-.24-.34,1,1,0,0,1-.09-.42,1.05,1.05,0,0,1,.09-.43,1.1,1.1,0,0,1,.24-.35,1.12,1.12,0,0,1,.35-.23,1.09,1.09,0,0,1,.43-.08,1.17,1.17,0,0,1,.44.08,1.12,1.12,0,0,1,.61.58A1,1,0,0,1,150,48Zm-.22,1.7v6.22H147.9V49.69Z"/><path class="4ed1662b-a073-4d69-a7d2-9ed9c1a051d9" d="M153.18,46.93v9h-1.86v-9Z"/><path class="4ed1662b-a073-4d69-a7d2-9ed9c1a051d9" d="M157.34,49.59a3.21,3.21,0,0,1,1.13.19,2.46,2.46,0,0,1,.88.56,2.56,2.56,0,0,1,.58.9,3.3,3.3,0,0,1,.21,1.2,2.66,2.66,0,0,1,0,.34.55.55,0,0,1-.07.21.25.25,0,0,1-.13.11.61.61,0,0,1-.21,0h-3.59a1.76,1.76,0,0,0,.47,1.13,1.41,1.41,0,0,0,1,.35,1.75,1.75,0,0,0,.56-.08,2.73,2.73,0,0,0,.42-.17l.34-.17a.7.7,0,0,1,.32-.08.38.38,0,0,1,.34.16l.54.67a2.81,2.81,0,0,1-.62.54,3.26,3.26,0,0,1-.68.32,3.71,3.71,0,0,1-.7.16,5.23,5.23,0,0,1-.67,0,3.48,3.48,0,0,1-1.23-.21,2.81,2.81,0,0,1-1-.63,3,3,0,0,1-.68-1,3.9,3.9,0,0,1-.25-1.45,3.27,3.27,0,0,1,.21-1.18,2.87,2.87,0,0,1,1.58-1.64A3.18,3.18,0,0,1,157.34,49.59Zm0,1.28a1.12,1.12,0,0,0-.83.3,1.57,1.57,0,0,0-.4.87h2.32a1.64,1.64,0,0,0-.06-.43,1.05,1.05,0,0,0-.19-.37,1,1,0,0,0-.34-.27A1.16,1.16,0,0,0,157.38,50.88Z"/><path class="4ed1662b-a073-4d69-a7d2-9ed9c1a051d9" d="M161.09,51.51h3.24V53h-3.24Z"/><path class="4ed1662b-a073-4d69-a7d2-9ed9c1a051d9" d="M171.28,47.17v1.56h-3.59v2.21h3v1.57h-3v3.4h-2V47.17Z"/><path class="4ed1662b-a073-4d69-a7d2-9ed9c1a051d9" d="M174.47,48a1,1,0,0,1-.09.42,1.08,1.08,0,0,1-.25.34,1.18,1.18,0,0,1-.36.23,1.14,1.14,0,0,1-.44.09,1.05,1.05,0,0,1-.43-.09,1.19,1.19,0,0,1-.35-.23,1.08,1.08,0,0,1-.24-.34,1,1,0,0,1-.09-.42,1,1,0,0,1,.09-.43,1.12,1.12,0,0,1,.24-.35,1.13,1.13,0,0,1,.35-.23,1.08,1.08,0,0,1,.43-.08,1.17,1.17,0,0,1,.44.08,1.12,1.12,0,0,1,.61.58A1,1,0,0,1,174.47,48Zm-.22,1.7v6.22h-1.86V49.69Z"/><path class="4ed1662b-a073-4d69-a7d2-9ed9c1a051d9" d="M175.75,55.91V49.69h1.1l.23,0a.42.42,0,0,1,.16.08.31.31,0,0,1,.1.14,1.15,1.15,0,0,1,.06.2l.1.58a3,3,0,0,1,.77-.83,1.56,1.56,0,0,1,.93-.31,1.07,1.07,0,0,1,.68.2l-.24,1.37a.27.27,0,0,1-.1.18.33.33,0,0,1-.19.05l-.24,0a1.82,1.82,0,0,0-.35,0,1.28,1.28,0,0,0-1.15.78v3.82Z"/><path class="4ed1662b-a073-4d69-a7d2-9ed9c1a051d9" d="M184.51,51.05a.48.48,0,0,1-.15.16.4.4,0,0,1-.21,0,.66.66,0,0,1-.26-.06l-.29-.12-.34-.12a1.54,1.54,0,0,0-.44-.06.93.93,0,0,0-.54.13.43.43,0,0,0-.19.38.38.38,0,0,0,.12.29,1.12,1.12,0,0,0,.33.2l.46.17.53.17a4.57,4.57,0,0,1,.53.23,2,2,0,0,1,.46.32,1.43,1.43,0,0,1,.33.46,1.56,1.56,0,0,1,.12.65,2.14,2.14,0,0,1-.17.85,1.81,1.81,0,0,1-.5.67,2.38,2.38,0,0,1-.82.44,3.72,3.72,0,0,1-1.12.16,3.42,3.42,0,0,1-.64-.06,4.38,4.38,0,0,1-.62-.16,3.23,3.23,0,0,1-.55-.24,2.36,2.36,0,0,1-.43-.3l.43-.68a.63.63,0,0,1,.19-.19.52.52,0,0,1,.28-.07.59.59,0,0,1,.29.07l.28.16a2.33,2.33,0,0,0,.35.16,1.53,1.53,0,0,0,.51.07,1.28,1.28,0,0,0,.37,0,.63.63,0,0,0,.24-.12.49.49,0,0,0,.13-.17.48.48,0,0,0,0-.2.41.41,0,0,0-.13-.31,1.11,1.11,0,0,0-.33-.21,4.25,4.25,0,0,0-.46-.16l-.53-.17a4.28,4.28,0,0,1-.53-.23,1.83,1.83,0,0,1-.46-.34,1.59,1.59,0,0,1-.33-.51,1.87,1.87,0,0,1-.13-.73,1.9,1.9,0,0,1,.15-.75,1.74,1.74,0,0,1,.46-.63,2.25,2.25,0,0,1,.77-.43,3.34,3.34,0,0,1,1.08-.16,3.47,3.47,0,0,1,.65.06,3.3,3.3,0,0,1,.59.17,2.83,2.83,0,0,1,.5.25,2.44,2.44,0,0,1,.4.32Z"/><path class="4ed1662b-a073-4d69-a7d2-9ed9c1a051d9" d="M188.17,56a2.2,2.2,0,0,1-.78-.13,1.56,1.56,0,0,1-.57-.37,1.58,1.58,0,0,1-.35-.57,2.21,2.21,0,0,1-.12-.75V51h-.53a.34.34,0,0,1-.35-.37v-.73l1-.19.37-1.52a.37.37,0,0,1,.41-.29h1V49.7h1.51V51h-1.51v3.09a.58.58,0,0,0,.1.36.35.35,0,0,0,.3.14l.17,0,.12,0,.1,0,.1,0a.22.22,0,0,1,.14,0,.52.52,0,0,1,.1.12l.56.88a2.58,2.58,0,0,1-.81.4A3.22,3.22,0,0,1,188.17,56Z"/><path class="4ed1662b-a073-4d69-a7d2-9ed9c1a051d9" d="M113.46,65.94a4.59,4.59,0,0,1-.33,1.75,4.09,4.09,0,0,1-.92,1.39,4.18,4.18,0,0,1-1.43.91,5.07,5.07,0,0,1-1.86.33h-3.4V61.57h3.4a5,5,0,0,1,1.86.33,4.24,4.24,0,0,1,1.43.91,4.06,4.06,0,0,1,.92,1.38A4.57,4.57,0,0,1,113.46,65.94Zm-2.08,0a3.82,3.82,0,0,0-.17-1.17,2.51,2.51,0,0,0-.48-.89,2.1,2.1,0,0,0-.77-.56,2.62,2.62,0,0,0-1-.2h-1.36v5.62h1.36a2.62,2.62,0,0,0,1-.19,2.09,2.09,0,0,0,.77-.56,2.51,2.51,0,0,0,.48-.88A3.85,3.85,0,0,0,111.39,65.94Z"/><path class="4ed1662b-a073-4d69-a7d2-9ed9c1a051d9" d="M117.1,64a3.21,3.21,0,0,1,1.13.19,2.46,2.46,0,0,1,.88.56,2.55,2.55,0,0,1,.58.9,3.3,3.3,0,0,1,.21,1.2,2.66,2.66,0,0,1,0,.34.55.55,0,0,1-.07.21.25.25,0,0,1-.13.11.59.59,0,0,1-.21,0h-3.59a1.75,1.75,0,0,0,.47,1.13,1.41,1.41,0,0,0,1,.35,1.78,1.78,0,0,0,.56-.08,2.84,2.84,0,0,0,.42-.17l.34-.17a.7.7,0,0,1,.32-.08.39.39,0,0,1,.34.16l.54.67a2.76,2.76,0,0,1-.62.54,3.21,3.21,0,0,1-.68.32,3.71,3.71,0,0,1-.7.16,5.23,5.23,0,0,1-.67,0,3.5,3.5,0,0,1-1.23-.21,2.81,2.81,0,0,1-1-.63,3,3,0,0,1-.68-1,3.9,3.9,0,0,1-.25-1.45,3.28,3.28,0,0,1,.21-1.18,2.87,2.87,0,0,1,1.58-1.64A3.18,3.18,0,0,1,117.1,64Zm0,1.28a1.12,1.12,0,0,0-.83.3,1.57,1.57,0,0,0-.4.87h2.32a1.64,1.64,0,0,0-.06-.43,1,1,0,0,0-.19-.37,1,1,0,0,0-.34-.27A1.17,1.17,0,0,0,117.13,65.28Z"/><path class="4ed1662b-a073-4d69-a7d2-9ed9c1a051d9" d="M124.76,65.45a.48.48,0,0,1-.15.16.4.4,0,0,1-.21,0,.66.66,0,0,1-.26-.06l-.28-.12-.35-.12a1.53,1.53,0,0,0-.44-.06.93.93,0,0,0-.54.13.44.44,0,0,0-.19.38.38.38,0,0,0,.12.29,1.12,1.12,0,0,0,.33.2,4.31,4.31,0,0,0,.46.17l.53.17a4.62,4.62,0,0,1,.53.22,2,2,0,0,1,.46.32,1.4,1.4,0,0,1,.33.46,1.55,1.55,0,0,1,.12.65,2.13,2.13,0,0,1-.17.85,1.8,1.8,0,0,1-.5.67,2.37,2.37,0,0,1-.82.44,3.68,3.68,0,0,1-1.12.16,3.42,3.42,0,0,1-.64-.06,4.51,4.51,0,0,1-.62-.16,3.43,3.43,0,0,1-.55-.24,2.4,2.4,0,0,1-.43-.3l.43-.68a.61.61,0,0,1,.19-.19.52.52,0,0,1,.28-.07.59.59,0,0,1,.29.07l.28.16a2.25,2.25,0,0,0,.35.16,1.52,1.52,0,0,0,.51.07,1.28,1.28,0,0,0,.37,0,.65.65,0,0,0,.24-.12.49.49,0,0,0,.13-.17.5.5,0,0,0,0-.2.4.4,0,0,0-.13-.31,1.09,1.09,0,0,0-.33-.21,3.89,3.89,0,0,0-.47-.16l-.53-.17a4.31,4.31,0,0,1-.53-.23,1.83,1.83,0,0,1-.46-.34,1.57,1.57,0,0,1-.33-.51,1.88,1.88,0,0,1-.13-.73,1.9,1.9,0,0,1,.15-.75,1.77,1.77,0,0,1,.46-.63,2.25,2.25,0,0,1,.77-.43A3.31,3.31,0,0,1,123,64a3.46,3.46,0,0,1,.65.06,3.31,3.31,0,0,1,.59.17,2.77,2.77,0,0,1,.5.25,2.43,2.43,0,0,1,.4.32Z"/><path class="4ed1662b-a073-4d69-a7d2-9ed9c1a051d9" d="M128.38,62.39a1,1,0,0,1-.09.42,1.12,1.12,0,0,1-.25.34,1.21,1.21,0,0,1-.36.23,1.12,1.12,0,0,1-.44.09,1,1,0,0,1-.43-.09,1.19,1.19,0,0,1-.35-.23,1.07,1.07,0,0,1-.24-.34,1,1,0,0,1-.09-.42,1.06,1.06,0,0,1,.09-.43,1.09,1.09,0,0,1,.24-.35,1.14,1.14,0,0,1,.35-.23,1.09,1.09,0,0,1,.43-.08,1.15,1.15,0,0,1,.8.32,1.14,1.14,0,0,1,.25.35A1,1,0,0,1,128.38,62.39Zm-.22,1.7v6.22H126.3V64.09Z"/><path class="4ed1662b-a073-4d69-a7d2-9ed9c1a051d9" d="M131.86,64a3.44,3.44,0,0,1,.75.08,3,3,0,0,1,.65.22h1.88V65a.34.34,0,0,1-.09.25.6.6,0,0,1-.3.14l-.46.1a1.88,1.88,0,0,1,.08.56,1.79,1.79,0,0,1-.2.84,1.9,1.9,0,0,1-.53.63,2.49,2.49,0,0,1-.8.4,3.35,3.35,0,0,1-1,.14,4.08,4.08,0,0,1-.55,0,.34.34,0,0,0-.2.28.24.24,0,0,0,.17.23,1.57,1.57,0,0,0,.43.1,6.12,6.12,0,0,0,.62,0q.35,0,.71,0a5.66,5.66,0,0,1,.71.11,1.88,1.88,0,0,1,.62.25,1.32,1.32,0,0,1,.44.47,1.51,1.51,0,0,1,.17.74,1.81,1.81,0,0,1-.2.82,2.15,2.15,0,0,1-.6.72,3.11,3.11,0,0,1-1,.5,4.23,4.23,0,0,1-1.32.19,5.07,5.07,0,0,1-1.26-.14,3.08,3.08,0,0,1-.88-.36,1.54,1.54,0,0,1-.52-.52,1.23,1.23,0,0,1-.17-.61,1,1,0,0,1,.25-.7,1.68,1.68,0,0,1,.69-.45,1,1,0,0,1-.34-.35,1.07,1.07,0,0,1-.13-.54,1,1,0,0,1,0-.29,1.05,1.05,0,0,1,.15-.3,1.47,1.47,0,0,1,.26-.28,1.65,1.65,0,0,1,.37-.23,2,2,0,0,1-.77-.68,1.9,1.9,0,0,1-.08-1.83,1.92,1.92,0,0,1,.54-.64,2.58,2.58,0,0,1,.81-.4A3.5,3.5,0,0,1,131.86,64Zm1.38,6.54a.33.33,0,0,0-.09-.25.65.65,0,0,0-.25-.15,1.76,1.76,0,0,0-.37-.08l-.46,0h-.51A2.68,2.68,0,0,1,131,70a1.21,1.21,0,0,0-.28.27.54.54,0,0,0-.11.33.51.51,0,0,0,.06.24.47.47,0,0,0,.2.19,1.34,1.34,0,0,0,.39.12,3.45,3.45,0,0,0,.62,0,3.6,3.6,0,0,0,.66,0A1.36,1.36,0,0,0,133,71a.5.5,0,0,0,.21-.21A.57.57,0,0,0,133.24,70.53Zm-1.38-3.65a.77.77,0,0,0,.88-.83.82.82,0,0,0-.21-.59,1.14,1.14,0,0,0-1.34,0A.82.82,0,0,0,131,66a1,1,0,0,0,.05.33.7.7,0,0,0,.16.26.76.76,0,0,0,.27.17A1.1,1.1,0,0,0,131.86,66.87Z"/><path class="4ed1662b-a073-4d69-a7d2-9ed9c1a051d9" d="M135.94,70.31V64.09h1.15a.52.52,0,0,1,.29.08.42.42,0,0,1,.17.23l.11.36a4.44,4.44,0,0,1,.37-.31,2.2,2.2,0,0,1,.41-.24,2.47,2.47,0,0,1,.47-.16,2.6,2.6,0,0,1,.56-.06,2.19,2.19,0,0,1,.9.18,1.87,1.87,0,0,1,.66.49,2.11,2.11,0,0,1,.41.75,3.12,3.12,0,0,1,.14.95v4h-1.86v-4a1.09,1.09,0,0,0-.21-.71.76.76,0,0,0-.62-.25,1.3,1.3,0,0,0-.58.13,2.26,2.26,0,0,0-.52.35v4.43Z"/><path class="4ed1662b-a073-4d69-a7d2-9ed9c1a051d9" d="M147.24,67.08v3.23h-2V61.57h2.84a5.84,5.84,0,0,1,1.62.2,3,3,0,0,1,1.09.54,2.06,2.06,0,0,1,.62.82,2.73,2.73,0,0,1,.19,1,2.76,2.76,0,0,1-.11.8,2.4,2.4,0,0,1-.34.7,2.62,2.62,0,0,1-.55.57,2.94,2.94,0,0,1-.75.41,2,2,0,0,1,.38.25,1.5,1.5,0,0,1,.31.37l1.86,3h-1.84a.78.78,0,0,1-.73-.38l-1.45-2.54a.61.61,0,0,0-.23-.24.75.75,0,0,0-.36-.07Zm0-1.4h.82a2.08,2.08,0,0,0,.71-.11,1.28,1.28,0,0,0,.48-.29,1.11,1.11,0,0,0,.27-.43,1.68,1.68,0,0,0,.08-.54,1.13,1.13,0,0,0-.37-.9,1.75,1.75,0,0,0-1.16-.32h-.82Z"/><path class="4ed1662b-a073-4d69-a7d2-9ed9c1a051d9" d="M155.86,64a3.2,3.2,0,0,1,1.13.19,2.46,2.46,0,0,1,.88.56,2.54,2.54,0,0,1,.58.9,3.3,3.3,0,0,1,.21,1.2,2.69,2.69,0,0,1,0,.34.55.55,0,0,1-.07.21.25.25,0,0,1-.13.11.59.59,0,0,1-.21,0h-3.59a1.75,1.75,0,0,0,.47,1.13,1.41,1.41,0,0,0,1,.35,1.77,1.77,0,0,0,.56-.08,2.84,2.84,0,0,0,.42-.17l.34-.17a.7.7,0,0,1,.32-.08.38.38,0,0,1,.34.16l.54.67a2.71,2.71,0,0,1-.62.54,3.18,3.18,0,0,1-.68.32,3.72,3.72,0,0,1-.7.16,5.22,5.22,0,0,1-.67,0,3.5,3.5,0,0,1-1.23-.21,2.81,2.81,0,0,1-1-.63,3,3,0,0,1-.68-1,3.9,3.9,0,0,1-.25-1.45,3.3,3.3,0,0,1,.21-1.18,2.94,2.94,0,0,1,.61-1,2.91,2.91,0,0,1,1-.67A3.19,3.19,0,0,1,155.86,64Zm0,1.28a1.12,1.12,0,0,0-.83.3,1.58,1.58,0,0,0-.4.87H157a1.64,1.64,0,0,0-.06-.43,1,1,0,0,0-.19-.37,1,1,0,0,0-.34-.27A1.17,1.17,0,0,0,155.89,65.28Z"/><path class="4ed1662b-a073-4d69-a7d2-9ed9c1a051d9" d="M163.52,65.45a.48.48,0,0,1-.15.16.4.4,0,0,1-.21,0,.66.66,0,0,1-.26-.06l-.29-.12-.34-.12a1.54,1.54,0,0,0-.44-.06.93.93,0,0,0-.54.13.43.43,0,0,0-.19.38.38.38,0,0,0,.12.29,1.11,1.11,0,0,0,.33.2l.46.17.53.17a4.56,4.56,0,0,1,.53.22,2,2,0,0,1,.46.32,1.42,1.42,0,0,1,.33.46,1.55,1.55,0,0,1,.12.65,2.15,2.15,0,0,1-.17.85,1.82,1.82,0,0,1-.5.67,2.37,2.37,0,0,1-.82.44,3.69,3.69,0,0,1-1.12.16,3.42,3.42,0,0,1-.64-.06,4.51,4.51,0,0,1-.62-.16,3.39,3.39,0,0,1-.55-.24,2.41,2.41,0,0,1-.43-.3l.43-.68a.62.62,0,0,1,.19-.19.52.52,0,0,1,.28-.07.59.59,0,0,1,.29.07l.28.16a2.24,2.24,0,0,0,.35.16,1.52,1.52,0,0,0,.51.07,1.28,1.28,0,0,0,.37,0,.66.66,0,0,0,.24-.12.5.5,0,0,0,.13-.17.49.49,0,0,0,0-.2.4.4,0,0,0-.13-.31,1.09,1.09,0,0,0-.33-.21,3.87,3.87,0,0,0-.46-.16l-.53-.17a4.44,4.44,0,0,1-.53-.23,1.83,1.83,0,0,1-.46-.34,1.59,1.59,0,0,1-.33-.51,1.88,1.88,0,0,1-.13-.73,1.9,1.9,0,0,1,.15-.75,1.75,1.75,0,0,1,.46-.63,2.27,2.27,0,0,1,.77-.43A3.31,3.31,0,0,1,161.8,64a3.47,3.47,0,0,1,.65.06,3.3,3.3,0,0,1,.59.17,2.7,2.7,0,0,1,.5.25,2.44,2.44,0,0,1,.4.32Z"/><path class="4ed1662b-a073-4d69-a7d2-9ed9c1a051d9" d="M165,72.29v-8.2h1.15a.52.52,0,0,1,.29.08.42.42,0,0,1,.17.23l.14.46a3.2,3.2,0,0,1,.39-.36,2.55,2.55,0,0,1,.44-.28,2.45,2.45,0,0,1,.51-.18,2.54,2.54,0,0,1,.6-.07,1.91,1.91,0,0,1,.9.22,2.06,2.06,0,0,1,.71.62,3.12,3.12,0,0,1,.47,1,4.81,4.81,0,0,1,.17,1.34,4.14,4.14,0,0,1-.2,1.3,3.27,3.27,0,0,1-.55,1,2.53,2.53,0,0,1-.84.68,2.38,2.38,0,0,1-1.08.25,2.12,2.12,0,0,1-.82-.14,2.2,2.2,0,0,1-.6-.37v2.39Zm3-6.89a1.59,1.59,0,0,0-.37,0,1.32,1.32,0,0,0-.31.11,1.14,1.14,0,0,0-.26.18,2.65,2.65,0,0,0-.24.25v2.64a1.17,1.17,0,0,0,.46.33,1.44,1.44,0,0,0,.52.09,1.1,1.1,0,0,0,.47-.1,1,1,0,0,0,.38-.33,1.73,1.73,0,0,0,.25-.58,3.64,3.64,0,0,0,.09-.88,4,4,0,0,0-.07-.83,1.7,1.7,0,0,0-.2-.54.78.78,0,0,0-.31-.3A.88.88,0,0,0,168,65.39Z"/><path class="4ed1662b-a073-4d69-a7d2-9ed9c1a051d9" d="M174.71,64a3.61,3.61,0,0,1,1.29.22,2.79,2.79,0,0,1,1.65,1.64,3.64,3.64,0,0,1,.23,1.33,3.71,3.71,0,0,1-.23,1.34A2.8,2.8,0,0,1,176,70.18a3.56,3.56,0,0,1-1.29.22,3.6,3.6,0,0,1-1.3-.22,2.9,2.9,0,0,1-1-.64,2.83,2.83,0,0,1-.65-1,3.69,3.69,0,0,1-.23-1.34,3.62,3.62,0,0,1,.23-1.33,2.81,2.81,0,0,1,.65-1,2.88,2.88,0,0,1,1-.64A3.65,3.65,0,0,1,174.71,64Zm0,5a1.06,1.06,0,0,0,.95-.45,3.28,3.28,0,0,0,0-2.75,1.06,1.06,0,0,0-.95-.45,1.08,1.08,0,0,0-1,.45,3.25,3.25,0,0,0,0,2.75A1.08,1.08,0,0,0,174.71,69Z"/><path class="4ed1662b-a073-4d69-a7d2-9ed9c1a051d9" d="M178.9,70.31V64.09H180a.52.52,0,0,1,.29.08.42.42,0,0,1,.17.23l.11.36a4.44,4.44,0,0,1,.37-.31,2.2,2.2,0,0,1,.41-.24,2.47,2.47,0,0,1,.47-.16,2.6,2.6,0,0,1,.55-.06,2.19,2.19,0,0,1,.9.18,1.89,1.89,0,0,1,.66.49,2.14,2.14,0,0,1,.41.75,3.12,3.12,0,0,1,.14.95v4h-1.86v-4a1.08,1.08,0,0,0-.21-.71.75.75,0,0,0-.62-.25,1.29,1.29,0,0,0-.58.13,2.24,2.24,0,0,0-.52.35v4.43Z"/><path class="4ed1662b-a073-4d69-a7d2-9ed9c1a051d9" d="M189.66,65.45a.48.48,0,0,1-.15.16.4.4,0,0,1-.21,0,.66.66,0,0,1-.26-.06l-.28-.12-.35-.12a1.53,1.53,0,0,0-.44-.06.93.93,0,0,0-.54.13.44.44,0,0,0-.19.38.38.38,0,0,0,.12.29,1.12,1.12,0,0,0,.33.2,4.31,4.31,0,0,0,.46.17l.53.17a4.62,4.62,0,0,1,.53.22,2,2,0,0,1,.46.32,1.4,1.4,0,0,1,.33.46,1.55,1.55,0,0,1,.12.65,2.13,2.13,0,0,1-.17.85,1.8,1.8,0,0,1-.5.67,2.37,2.37,0,0,1-.82.44,3.68,3.68,0,0,1-1.12.16,3.42,3.42,0,0,1-.64-.06,4.51,4.51,0,0,1-.62-.16,3.43,3.43,0,0,1-.55-.24,2.4,2.4,0,0,1-.43-.3l.43-.68a.61.61,0,0,1,.19-.19.52.52,0,0,1,.28-.07.59.59,0,0,1,.29.07l.28.16a2.25,2.25,0,0,0,.35.16,1.52,1.52,0,0,0,.51.07,1.28,1.28,0,0,0,.37,0,.65.65,0,0,0,.24-.12.49.49,0,0,0,.13-.17.5.5,0,0,0,0-.2.4.4,0,0,0-.13-.31,1.09,1.09,0,0,0-.33-.21,3.89,3.89,0,0,0-.47-.16l-.53-.17a4.31,4.31,0,0,1-.53-.23,1.83,1.83,0,0,1-.46-.34,1.57,1.57,0,0,1-.33-.51,1.88,1.88,0,0,1-.13-.73,1.9,1.9,0,0,1,.15-.75,1.77,1.77,0,0,1,.46-.63,2.25,2.25,0,0,1,.77-.43,3.31,3.31,0,0,1,1.08-.16,3.46,3.46,0,0,1,.65.06,3.31,3.31,0,0,1,.59.17,2.77,2.77,0,0,1,.5.25,2.43,2.43,0,0,1,.4.32Z"/><path class="4ed1662b-a073-4d69-a7d2-9ed9c1a051d9" d="M193.27,62.39a1,1,0,0,1-.09.42,1.12,1.12,0,0,1-.25.34,1.21,1.21,0,0,1-.36.23,1.12,1.12,0,0,1-.44.09,1,1,0,0,1-.43-.09,1.19,1.19,0,0,1-.35-.23,1.07,1.07,0,0,1-.24-.34,1,1,0,0,1-.09-.42,1.06,1.06,0,0,1,.09-.43,1.09,1.09,0,0,1,.24-.35,1.14,1.14,0,0,1,.35-.23,1.09,1.09,0,0,1,.43-.08,1.15,1.15,0,0,1,.8.32,1.14,1.14,0,0,1,.25.35A1,1,0,0,1,193.27,62.39Zm-.22,1.7v6.22H191.2V64.09Z"/><path class="4ed1662b-a073-4d69-a7d2-9ed9c1a051d9" d="M198,70.31h-1.69l-2.41-6.22h1.55a.57.57,0,0,1,.33.09.46.46,0,0,1,.18.23l.86,2.79.2.67c.06.22.11.43.16.65,0-.22.1-.43.16-.65l.2-.67.9-2.79a.47.47,0,0,1,.18-.23.53.53,0,0,1,.31-.09h1.48Z"/><path class="4ed1662b-a073-4d69-a7d2-9ed9c1a051d9" d="M203.72,64a3.61,3.61,0,0,1,1.29.22,2.79,2.79,0,0,1,1.65,1.64,3.64,3.64,0,0,1,.23,1.33,3.71,3.71,0,0,1-.23,1.34A2.8,2.8,0,0,1,205,70.18a3.56,3.56,0,0,1-1.29.22,3.6,3.6,0,0,1-1.3-.22,2.9,2.9,0,0,1-1-.64,2.83,2.83,0,0,1-.65-1,3.69,3.69,0,0,1-.23-1.34,3.62,3.62,0,0,1,.23-1.33,2.81,2.81,0,0,1,.65-1,2.88,2.88,0,0,1,1-.64A3.65,3.65,0,0,1,203.72,64Zm0,5a1.06,1.06,0,0,0,.95-.45,3.28,3.28,0,0,0,0-2.75,1.06,1.06,0,0,0-.95-.45,1.08,1.08,0,0,0-1,.45,3.25,3.25,0,0,0,0,2.75A1.08,1.08,0,0,0,203.72,69Z"/><path class="4ed1662b-a073-4d69-a7d2-9ed9c1a051d9" d="M75.38,84.71H73.81a.72.72,0,0,1-.43-.12.64.64,0,0,1-.24-.32l-.52-1.52H69.3l-.52,1.52a.69.69,0,0,1-.66.44H66.54L69.92,76H72Zm-5.62-3.34h2.39L71.35,79l-.18-.54q-.11-.31-.21-.67c-.06.24-.13.47-.2.68s-.13.39-.19.54Z"/><path class="4ed1662b-a073-4d69-a7d2-9ed9c1a051d9" d="M80.79,81.19q.11.25.21.5.1-.26.22-.51t.23-.48l2.24-4.42a.74.74,0,0,1,.12-.18A.4.4,0,0,1,84,76a.48.48,0,0,1,.18,0h1.78v8.74H84.13v-5c0-.24,0-.51,0-.79l-2.32,4.49a.77.77,0,0,1-.29.32.81.81,0,0,1-.42.11h-.28a.81.81,0,0,1-.42-.11.77.77,0,0,1-.29-.32l-2.33-4.5c0,.14,0,.28,0,.42s0,.26,0,.38v5H76.09V76h1.78A.48.48,0,0,1,78,76a.39.39,0,0,1,.14.09.74.74,0,0,1,.12.18l2.25,4.44Q80.68,80.94,80.79,81.19Z"/><path class="4ed1662b-a073-4d69-a7d2-9ed9c1a051d9" d="M89.38,81.79v2.92h-2V76h3.08a5.1,5.1,0,0,1,1.59.22,3.05,3.05,0,0,1,1.09.6,2.36,2.36,0,0,1,.63.91,3.08,3.08,0,0,1,.2,1.13,3.3,3.3,0,0,1-.21,1.2,2.4,2.4,0,0,1-.64.94,3,3,0,0,1-1.09.61,5,5,0,0,1-1.57.22Zm0-1.53h1.06a1.29,1.29,0,0,0,1.49-1.43,1.59,1.59,0,0,0-.09-.55,1.12,1.12,0,0,0-.27-.42,1.22,1.22,0,0,0-.46-.27,2,2,0,0,0-.66-.1H89.38Z"/><path class="4ed1662b-a073-4d69-a7d2-9ed9c1a051d9" d="M98.7,81a10.24,10.24,0,0,0,.07,1.19,10.6,10.6,0,0,0,.2,1.18,10.83,10.83,0,0,0,.33,1.13,9.93,9.93,0,0,0,.44,1.06.75.75,0,0,1,.08.32.34.34,0,0,1-.08.23.78.78,0,0,1-.19.16l-.83.48a9.91,9.91,0,0,1-1.26-2.78,10.2,10.2,0,0,1-.29-1.46,12.24,12.24,0,0,1,0-3A10.23,10.23,0,0,1,97.47,78,10,10,0,0,1,98,76.57a10.31,10.31,0,0,1,.75-1.37l.83.48a.83.83,0,0,1,.18.16.34.34,0,0,1,.08.23.54.54,0,0,1,0,.14,1,1,0,0,1-.07.17,8.43,8.43,0,0,0-.44,1.05,10.69,10.69,0,0,0-.52,2.33A11,11,0,0,0,98.7,81Z"/><path class="4ed1662b-a073-4d69-a7d2-9ed9c1a051d9" d="M109.06,84.71h-1.57a.72.72,0,0,1-.43-.12.64.64,0,0,1-.24-.32l-.52-1.52H103l-.52,1.52a.69.69,0,0,1-.66.44h-1.58L103.6,76h2.08Zm-5.62-3.34h2.39L105,79l-.18-.54q-.11-.31-.21-.67c-.06.24-.13.47-.2.68s-.13.39-.19.54Z"/><path class="4ed1662b-a073-4d69-a7d2-9ed9c1a051d9" d="M114.26,80a1,1,0,0,1-.16.16.36.36,0,0,1-.22.06.48.48,0,0,1-.25-.07l-.25-.15a1.9,1.9,0,0,0-.32-.15,1.39,1.39,0,0,0-.46-.07,1.3,1.3,0,0,0-.59.13,1.1,1.1,0,0,0-.41.36,1.66,1.66,0,0,0-.24.57,3.45,3.45,0,0,0-.08.77,2.33,2.33,0,0,0,.34,1.37,1.11,1.11,0,0,0,1,.48,1.32,1.32,0,0,0,.51-.08,1.52,1.52,0,0,0,.32-.18l.24-.18a.45.45,0,0,1,.28-.08.38.38,0,0,1,.34.16l.54.67a2.89,2.89,0,0,1-.61.54,3,3,0,0,1-.65.32,3.37,3.37,0,0,1-.67.16,4.88,4.88,0,0,1-.65,0,2.81,2.81,0,0,1-1.09-.22,2.68,2.68,0,0,1-.91-.63,3,3,0,0,1-.62-1,4.1,4.1,0,0,1,0-2.62,2.84,2.84,0,0,1,.59-1,2.76,2.76,0,0,1,1-.67,3.4,3.4,0,0,1,1.34-.25,3.27,3.27,0,0,1,1.28.23,3.07,3.07,0,0,1,1,.68Z"/><path class="4ed1662b-a073-4d69-a7d2-9ed9c1a051d9" d="M120.09,80a1,1,0,0,1-.16.16.36.36,0,0,1-.22.06.48.48,0,0,1-.25-.07l-.25-.15a1.9,1.9,0,0,0-.32-.15,1.39,1.39,0,0,0-.46-.07,1.3,1.3,0,0,0-.59.13,1.1,1.1,0,0,0-.41.36,1.66,1.66,0,0,0-.24.57,3.45,3.45,0,0,0-.08.77,2.33,2.33,0,0,0,.34,1.37,1.11,1.11,0,0,0,1,.48,1.32,1.32,0,0,0,.51-.08,1.52,1.52,0,0,0,.32-.18l.24-.18a.45.45,0,0,1,.28-.08.38.38,0,0,1,.34.16l.54.67a2.89,2.89,0,0,1-.61.54,3,3,0,0,1-.65.32,3.37,3.37,0,0,1-.67.16,4.88,4.88,0,0,1-.65,0,2.81,2.81,0,0,1-1.09-.22A2.68,2.68,0,0,1,116,84a3,3,0,0,1-.62-1,4.1,4.1,0,0,1,0-2.62,2.84,2.84,0,0,1,.59-1,2.76,2.76,0,0,1,1-.67,3.4,3.4,0,0,1,1.34-.25,3.27,3.27,0,0,1,1.28.23,3.07,3.07,0,0,1,1,.68Z"/><path class="4ed1662b-a073-4d69-a7d2-9ed9c1a051d9" d="M124.1,78.39a3.21,3.21,0,0,1,1.13.19,2.46,2.46,0,0,1,.88.56,2.55,2.55,0,0,1,.58.9,3.3,3.3,0,0,1,.21,1.2,2.66,2.66,0,0,1,0,.34.55.55,0,0,1-.07.21.25.25,0,0,1-.13.11.59.59,0,0,1-.21,0h-3.59a1.75,1.75,0,0,0,.47,1.13,1.41,1.41,0,0,0,1,.35,1.78,1.78,0,0,0,.56-.08,2.84,2.84,0,0,0,.42-.17l.34-.17a.7.7,0,0,1,.32-.08.39.39,0,0,1,.34.16l.54.67a2.76,2.76,0,0,1-.62.54,3.21,3.21,0,0,1-.68.32,3.71,3.71,0,0,1-.7.16,5.23,5.23,0,0,1-.67,0,3.5,3.5,0,0,1-1.23-.21,2.81,2.81,0,0,1-1-.63,3,3,0,0,1-.68-1,3.9,3.9,0,0,1-.25-1.45,3.28,3.28,0,0,1,.21-1.18,2.87,2.87,0,0,1,1.58-1.64A3.18,3.18,0,0,1,124.1,78.39Zm0,1.28a1.12,1.12,0,0,0-.83.3,1.57,1.57,0,0,0-.4.87h2.32a1.64,1.64,0,0,0-.06-.43A1,1,0,0,0,125,80a1,1,0,0,0-.34-.27A1.17,1.17,0,0,0,124.13,79.68Z"/><path class="4ed1662b-a073-4d69-a7d2-9ed9c1a051d9" d="M129.88,75.73v9H128v-9Z"/><path class="4ed1662b-a073-4d69-a7d2-9ed9c1a051d9" d="M134,78.39a3.2,3.2,0,0,1,1.13.19,2.46,2.46,0,0,1,.88.56,2.54,2.54,0,0,1,.58.9,3.3,3.3,0,0,1,.21,1.2,2.69,2.69,0,0,1,0,.34.55.55,0,0,1-.07.21.25.25,0,0,1-.13.11.59.59,0,0,1-.21,0h-3.59a1.75,1.75,0,0,0,.47,1.13,1.41,1.41,0,0,0,1,.35,1.77,1.77,0,0,0,.56-.08,2.84,2.84,0,0,0,.42-.17l.34-.17a.7.7,0,0,1,.32-.08.38.38,0,0,1,.34.16l.54.67a2.71,2.71,0,0,1-.62.54,3.18,3.18,0,0,1-.68.32,3.72,3.72,0,0,1-.7.16,5.22,5.22,0,0,1-.67,0,3.5,3.5,0,0,1-1.23-.21,2.81,2.81,0,0,1-1-.63,3,3,0,0,1-.68-1,3.9,3.9,0,0,1-.25-1.45,3.3,3.3,0,0,1,.21-1.18,2.94,2.94,0,0,1,.61-1,2.91,2.91,0,0,1,1-.67A3.19,3.19,0,0,1,134,78.39Zm0,1.28a1.12,1.12,0,0,0-.83.3,1.58,1.58,0,0,0-.4.87h2.32a1.64,1.64,0,0,0-.06-.43,1,1,0,0,0-.19-.37,1,1,0,0,0-.34-.27A1.17,1.17,0,0,0,134.08,79.68Z"/><path class="4ed1662b-a073-4d69-a7d2-9ed9c1a051d9" d="M137.91,84.71V78.49H139l.23,0a.4.4,0,0,1,.16.08.33.33,0,0,1,.1.13,1.22,1.22,0,0,1,.06.2l.1.58a3.06,3.06,0,0,1,.77-.83,1.56,1.56,0,0,1,.93-.31,1.08,1.08,0,0,1,.68.2l-.24,1.37a.27.27,0,0,1-.1.18.33.33,0,0,1-.19.05l-.24,0a1.89,1.89,0,0,0-.35,0,1.28,1.28,0,0,0-1.15.78v3.82Z"/><path class="4ed1662b-a073-4d69-a7d2-9ed9c1a051d9" d="M147,84.71a.87.87,0,0,1-.4-.07.55.55,0,0,1-.22-.3l-.13-.34c-.16.13-.31.25-.45.35a2.92,2.92,0,0,1-.45.25,2.21,2.21,0,0,1-.49.16,3,3,0,0,1-.58.05,2.52,2.52,0,0,1-.77-.11,1.61,1.61,0,0,1-.59-.33,1.46,1.46,0,0,1-.37-.54,2,2,0,0,1-.13-.74,1.57,1.57,0,0,1,.17-.68,1.69,1.69,0,0,1,.58-.64,3.72,3.72,0,0,1,1.12-.48,6.85,6.85,0,0,1,1.77-.19v-.27a1.16,1.16,0,0,0-.23-.8.82.82,0,0,0-.64-.25,1.7,1.7,0,0,0-.54.07,2.54,2.54,0,0,0-.37.16l-.32.16a.88.88,0,0,1-.37.07.57.57,0,0,1-.33-.09.7.7,0,0,1-.21-.23l-.34-.58a3.78,3.78,0,0,1,1.25-.74,4.38,4.38,0,0,1,1.47-.24,2.69,2.69,0,0,1,1,.18,2.19,2.19,0,0,1,.77.51,2.24,2.24,0,0,1,.48.78,2.78,2.78,0,0,1,.17,1v3.89Zm-2.14-1.13a1.47,1.47,0,0,0,.63-.13,2,2,0,0,0,.55-.41v-.85a4.73,4.73,0,0,0-.92.07,2.17,2.17,0,0,0-.57.18.68.68,0,0,0-.29.25.59.59,0,0,0-.08.3.53.53,0,0,0,.17.45A.84.84,0,0,0,144.91,83.58Z"/><path class="4ed1662b-a073-4d69-a7d2-9ed9c1a051d9" d="M151.4,84.81a2.2,2.2,0,0,1-.78-.13,1.51,1.51,0,0,1-.92-.94,2.21,2.21,0,0,1-.12-.75V79.77H149a.34.34,0,0,1-.35-.37v-.73l1-.19.37-1.52a.37.37,0,0,1,.41-.29h1V78.5h1.51v1.27h-1.51v3.09a.59.59,0,0,0,.1.36.36.36,0,0,0,.3.14l.17,0,.12,0,.1,0,.1,0a.22.22,0,0,1,.14,0,.52.52,0,0,1,.1.12l.56.88a2.58,2.58,0,0,1-.81.41A3.22,3.22,0,0,1,151.4,84.81Z"/><path class="4ed1662b-a073-4d69-a7d2-9ed9c1a051d9" d="M156.68,78.39a3.21,3.21,0,0,1,1.13.19,2.46,2.46,0,0,1,.88.56,2.55,2.55,0,0,1,.58.9,3.3,3.3,0,0,1,.21,1.2,2.66,2.66,0,0,1,0,.34.55.55,0,0,1-.07.21.25.25,0,0,1-.13.11.59.59,0,0,1-.21,0h-3.59a1.75,1.75,0,0,0,.47,1.13,1.41,1.41,0,0,0,1,.35,1.78,1.78,0,0,0,.56-.08,2.84,2.84,0,0,0,.42-.17l.34-.17a.7.7,0,0,1,.32-.08.39.39,0,0,1,.34.16l.54.67a2.76,2.76,0,0,1-.62.54,3.21,3.21,0,0,1-.68.32,3.71,3.71,0,0,1-.7.16,5.23,5.23,0,0,1-.67,0,3.5,3.5,0,0,1-1.23-.21,2.81,2.81,0,0,1-1-.63,3,3,0,0,1-.68-1,3.9,3.9,0,0,1-.25-1.45,3.28,3.28,0,0,1,.21-1.18,2.87,2.87,0,0,1,1.58-1.64A3.18,3.18,0,0,1,156.68,78.39Zm0,1.28a1.12,1.12,0,0,0-.83.3,1.57,1.57,0,0,0-.4.87h2.32a1.64,1.64,0,0,0-.06-.43,1,1,0,0,0-.19-.37,1,1,0,0,0-.34-.27A1.17,1.17,0,0,0,156.71,79.68Z"/><path class="4ed1662b-a073-4d69-a7d2-9ed9c1a051d9" d="M164.91,84.71a.52.52,0,0,1-.29-.08.42.42,0,0,1-.17-.23l-.14-.47a3.74,3.74,0,0,1-.39.36,2.51,2.51,0,0,1-.44.28,2.34,2.34,0,0,1-.51.18,2.63,2.63,0,0,1-.59.06,1.92,1.92,0,0,1-.9-.22,2.08,2.08,0,0,1-.71-.62,3.14,3.14,0,0,1-.47-1,4.84,4.84,0,0,1-.17-1.35,4.2,4.2,0,0,1,.19-1.29,3.16,3.16,0,0,1,.54-1,2.53,2.53,0,0,1,.84-.68,2.41,2.41,0,0,1,1.09-.25,2.09,2.09,0,0,1,.81.14,2.33,2.33,0,0,1,.6.37V75.73h1.86v9ZM163,83.38a1.59,1.59,0,0,0,.37,0A1.29,1.29,0,0,0,164,83a2.4,2.4,0,0,0,.24-.25V80.16a1.23,1.23,0,0,0-.46-.33,1.41,1.41,0,0,0-.51-.09,1.09,1.09,0,0,0-.47.1,1,1,0,0,0-.37.33,1.72,1.72,0,0,0-.25.58,3.6,3.6,0,0,0-.09.87,4,4,0,0,0,.07.83,1.69,1.69,0,0,0,.2.54.79.79,0,0,0,.31.3A.9.9,0,0,0,163,83.38Z"/><path class="4ed1662b-a073-4d69-a7d2-9ed9c1a051d9" d="M174.52,81.19q.11.25.21.5.1-.26.22-.51t.23-.48l2.24-4.42a.74.74,0,0,1,.12-.18.4.4,0,0,1,.14-.09.48.48,0,0,1,.18,0h1.78v8.74h-1.79v-5c0-.24,0-.51,0-.79l-2.32,4.49a.77.77,0,0,1-.29.32.81.81,0,0,1-.42.11h-.28a.81.81,0,0,1-.42-.11.77.77,0,0,1-.29-.32l-2.33-4.5c0,.14,0,.28,0,.42s0,.26,0,.38v5h-1.79V76h1.78a.48.48,0,0,1,.18,0,.39.39,0,0,1,.14.09.74.74,0,0,1,.12.18l2.25,4.44Q174.41,80.94,174.52,81.19Z"/><path class="4ed1662b-a073-4d69-a7d2-9ed9c1a051d9" d="M183.86,78.39a3.61,3.61,0,0,1,1.29.22,2.82,2.82,0,0,1,1,.64,2.85,2.85,0,0,1,.65,1,3.62,3.62,0,0,1,.23,1.33,3.69,3.69,0,0,1-.23,1.34,2.87,2.87,0,0,1-.65,1,2.84,2.84,0,0,1-1,.64,3.57,3.57,0,0,1-1.29.22,3.61,3.61,0,0,1-1.3-.22,2.91,2.91,0,0,1-1-.64,2.83,2.83,0,0,1-.65-1,3.71,3.71,0,0,1-.23-1.34,3.64,3.64,0,0,1,.23-1.33,2.81,2.81,0,0,1,.65-1,2.89,2.89,0,0,1,1-.64A3.65,3.65,0,0,1,183.86,78.39Zm0,5a1.06,1.06,0,0,0,.94-.45,3.27,3.27,0,0,0,0-2.75,1.06,1.06,0,0,0-.94-.45,1.09,1.09,0,0,0-1,.45,3.25,3.25,0,0,0,0,2.75A1.08,1.08,0,0,0,183.86,83.43Z"/><path class="4ed1662b-a073-4d69-a7d2-9ed9c1a051d9" d="M188,84.71v-9h1.86v3.42a2.83,2.83,0,0,1,.79-.55,2.42,2.42,0,0,1,1-.21,2,2,0,0,1,.9.21,2,2,0,0,1,.71.62,3.08,3.08,0,0,1,.47,1,4.78,4.78,0,0,1,.17,1.34,4.14,4.14,0,0,1-.2,1.3,3.27,3.27,0,0,1-.55,1,2.53,2.53,0,0,1-.84.68,2.38,2.38,0,0,1-1.08.25,2.06,2.06,0,0,1-.5-.05,1.68,1.68,0,0,1-.74-.39,3.75,3.75,0,0,1-.3-.3l-.07.31a.4.4,0,0,1-.15.26.53.53,0,0,1-.29.07Zm3-4.92a1.59,1.59,0,0,0-.37,0,1.32,1.32,0,0,0-.31.11,1.14,1.14,0,0,0-.26.18,2.65,2.65,0,0,0-.24.25V83a1.17,1.17,0,0,0,.46.33,1.44,1.44,0,0,0,.52.09,1.1,1.1,0,0,0,.47-.1,1,1,0,0,0,.38-.33,1.73,1.73,0,0,0,.25-.58,3.64,3.64,0,0,0,.09-.88,4,4,0,0,0-.07-.83,1.7,1.7,0,0,0-.2-.54.78.78,0,0,0-.31-.3A.88.88,0,0,0,191.08,79.79Z"/><path class="4ed1662b-a073-4d69-a7d2-9ed9c1a051d9" d="M197.14,76.79a1,1,0,0,1-.09.42,1.09,1.09,0,0,1-.25.34,1.2,1.2,0,0,1-.36.23,1.12,1.12,0,0,1-.44.09,1,1,0,0,1-.43-.09,1.21,1.21,0,0,1-.35-.23,1.09,1.09,0,0,1-.24-.34,1,1,0,0,1-.09-.42,1,1,0,0,1,.09-.43,1.1,1.1,0,0,1,.24-.35,1.15,1.15,0,0,1,.35-.23,1.08,1.08,0,0,1,.43-.08,1.17,1.17,0,0,1,.44.08,1.15,1.15,0,0,1,.36.23,1.1,1.1,0,0,1,.25.35A1,1,0,0,1,197.14,76.79Zm-.22,1.7v6.22h-1.86V78.49Z"/><path class="4ed1662b-a073-4d69-a7d2-9ed9c1a051d9" d="M200.35,75.73v9h-1.86v-9Z"/><path class="4ed1662b-a073-4d69-a7d2-9ed9c1a051d9" d="M204.51,78.39a3.21,3.21,0,0,1,1.13.19,2.46,2.46,0,0,1,.88.56,2.55,2.55,0,0,1,.58.9,3.3,3.3,0,0,1,.21,1.2,2.66,2.66,0,0,1,0,.34.55.55,0,0,1-.07.21.25.25,0,0,1-.13.11.59.59,0,0,1-.21,0H203.3a1.75,1.75,0,0,0,.47,1.13,1.41,1.41,0,0,0,1,.35,1.78,1.78,0,0,0,.56-.08,2.84,2.84,0,0,0,.42-.17l.34-.17a.7.7,0,0,1,.32-.08.39.39,0,0,1,.34.16l.54.67a2.76,2.76,0,0,1-.62.54,3.21,3.21,0,0,1-.68.32,3.71,3.71,0,0,1-.7.16,5.23,5.23,0,0,1-.67,0,3.5,3.5,0,0,1-1.23-.21,2.81,2.81,0,0,1-1-.63,3,3,0,0,1-.68-1,3.9,3.9,0,0,1-.25-1.45,3.28,3.28,0,0,1,.21-1.18,2.87,2.87,0,0,1,1.58-1.64A3.18,3.18,0,0,1,204.51,78.39Zm0,1.28a1.12,1.12,0,0,0-.83.3,1.57,1.57,0,0,0-.4.87h2.32a1.64,1.64,0,0,0-.06-.43,1,1,0,0,0-.19-.37,1,1,0,0,0-.34-.27A1.17,1.17,0,0,0,204.54,79.68Z"/><path class="4ed1662b-a073-4d69-a7d2-9ed9c1a051d9" d="M212.72,81.79v2.92h-2V76h3.08a5.11,5.11,0,0,1,1.59.22,3.06,3.06,0,0,1,1.09.6,2.35,2.35,0,0,1,.63.91,3.08,3.08,0,0,1,.2,1.13,3.32,3.32,0,0,1-.21,1.2,2.41,2.41,0,0,1-.64.94,3,3,0,0,1-1.09.61,5,5,0,0,1-1.57.22Zm0-1.53h1.06a1.49,1.49,0,0,0,1.14-.38,1.5,1.5,0,0,0,.35-1.06,1.57,1.57,0,0,0-.09-.55,1.12,1.12,0,0,0-.27-.42,1.22,1.22,0,0,0-.46-.27,2,2,0,0,0-.66-.1h-1.06Z"/><path class="4ed1662b-a073-4d69-a7d2-9ed9c1a051d9" d="M222.34,84.71a.87.87,0,0,1-.4-.07.55.55,0,0,1-.23-.3l-.13-.34c-.16.13-.31.25-.45.35a2.88,2.88,0,0,1-.45.25,2.19,2.19,0,0,1-.49.16,3,3,0,0,1-.58.05,2.54,2.54,0,0,1-.77-.11,1.62,1.62,0,0,1-.59-.33,1.44,1.44,0,0,1-.37-.54,2,2,0,0,1-.13-.74,1.56,1.56,0,0,1,.17-.68,1.67,1.67,0,0,1,.58-.64,3.7,3.7,0,0,1,1.12-.48,6.84,6.84,0,0,1,1.77-.19v-.27a1.16,1.16,0,0,0-.22-.8.82.82,0,0,0-.64-.25,1.71,1.71,0,0,0-.54.07,2.59,2.59,0,0,0-.37.16l-.32.16a.89.89,0,0,1-.37.07.57.57,0,0,1-.33-.09.7.7,0,0,1-.21-.23l-.34-.58a3.78,3.78,0,0,1,1.25-.74,4.38,4.38,0,0,1,1.47-.24,2.7,2.7,0,0,1,1,.18,2.19,2.19,0,0,1,.77.51,2.24,2.24,0,0,1,.48.78,2.81,2.81,0,0,1,.17,1v3.89Zm-2.14-1.13a1.47,1.47,0,0,0,.63-.13,2,2,0,0,0,.55-.41v-.85a4.74,4.74,0,0,0-.92.07,2.18,2.18,0,0,0-.57.18.7.7,0,0,0-.29.25.59.59,0,0,0-.08.3.53.53,0,0,0,.17.45A.84.84,0,0,0,220.21,83.58Z"/><path class="4ed1662b-a073-4d69-a7d2-9ed9c1a051d9" d="M226.71,78.38a3.44,3.44,0,0,1,.75.08,3,3,0,0,1,.65.22H230v.68a.34.34,0,0,1-.09.25.6.6,0,0,1-.3.14l-.46.1a1.88,1.88,0,0,1,.08.56,1.79,1.79,0,0,1-.2.84,1.9,1.9,0,0,1-.53.63,2.49,2.49,0,0,1-.8.4,3.35,3.35,0,0,1-1,.14,4.08,4.08,0,0,1-.55,0,.34.34,0,0,0-.2.28.24.24,0,0,0,.17.23,1.57,1.57,0,0,0,.43.1,6.12,6.12,0,0,0,.62,0q.35,0,.71,0a5.66,5.66,0,0,1,.71.11,1.88,1.88,0,0,1,.62.25,1.32,1.32,0,0,1,.44.47,1.51,1.51,0,0,1,.17.74,1.81,1.81,0,0,1-.2.82,2.15,2.15,0,0,1-.6.72,3.11,3.11,0,0,1-1,.5,4.23,4.23,0,0,1-1.32.19,5.07,5.07,0,0,1-1.26-.14,3.08,3.08,0,0,1-.88-.36,1.54,1.54,0,0,1-.52-.52,1.23,1.23,0,0,1-.17-.61,1,1,0,0,1,.25-.7,1.68,1.68,0,0,1,.69-.45,1,1,0,0,1-.34-.35,1.07,1.07,0,0,1-.13-.54,1,1,0,0,1,0-.29,1.05,1.05,0,0,1,.15-.3,1.47,1.47,0,0,1,.26-.28,1.65,1.65,0,0,1,.37-.23,2,2,0,0,1-.77-.68,1.9,1.9,0,0,1-.08-1.83,1.92,1.92,0,0,1,.54-.64,2.58,2.58,0,0,1,.81-.4A3.5,3.5,0,0,1,226.71,78.38Zm1.38,6.54a.33.33,0,0,0-.09-.25.65.65,0,0,0-.25-.15,1.76,1.76,0,0,0-.37-.08l-.46,0h-.51a2.68,2.68,0,0,1-.52-.05,1.21,1.21,0,0,0-.28.27.54.54,0,0,0-.11.33.51.51,0,0,0,.06.24.47.47,0,0,0,.2.19,1.34,1.34,0,0,0,.39.12,3.45,3.45,0,0,0,.62,0,3.6,3.6,0,0,0,.66,0,1.36,1.36,0,0,0,.41-.13.5.5,0,0,0,.21-.21A.57.57,0,0,0,228.09,84.93Zm-1.38-3.65a.77.77,0,0,0,.88-.83.82.82,0,0,0-.21-.59,1.14,1.14,0,0,0-1.34,0,.82.82,0,0,0-.21.59,1,1,0,0,0,.05.33A.7.7,0,0,0,226,81a.76.76,0,0,0,.27.17A1.1,1.1,0,0,0,226.71,81.27Z"/><path class="4ed1662b-a073-4d69-a7d2-9ed9c1a051d9" d="M233.45,78.39a3.2,3.2,0,0,1,1.13.19,2.46,2.46,0,0,1,.88.56,2.54,2.54,0,0,1,.58.9,3.3,3.3,0,0,1,.21,1.2,2.69,2.69,0,0,1,0,.34.55.55,0,0,1-.07.21.25.25,0,0,1-.13.11.59.59,0,0,1-.21,0h-3.59a1.75,1.75,0,0,0,.47,1.13,1.41,1.41,0,0,0,1,.35,1.77,1.77,0,0,0,.56-.08,2.84,2.84,0,0,0,.42-.17L235,83a.7.7,0,0,1,.32-.08.38.38,0,0,1,.34.16l.54.67a2.71,2.71,0,0,1-.62.54,3.18,3.18,0,0,1-.68.32,3.72,3.72,0,0,1-.7.16,5.22,5.22,0,0,1-.67,0,3.5,3.5,0,0,1-1.23-.21,2.81,2.81,0,0,1-1-.63,3,3,0,0,1-.68-1,3.9,3.9,0,0,1-.25-1.45,3.3,3.3,0,0,1,.21-1.18,2.94,2.94,0,0,1,.61-1,2.91,2.91,0,0,1,1-.67A3.19,3.19,0,0,1,233.45,78.39Zm0,1.28a1.12,1.12,0,0,0-.83.3,1.58,1.58,0,0,0-.4.87h2.32a1.64,1.64,0,0,0-.06-.43,1,1,0,0,0-.19-.37,1,1,0,0,0-.34-.27A1.17,1.17,0,0,0,233.49,79.68Z"/><path class="4ed1662b-a073-4d69-a7d2-9ed9c1a051d9" d="M241.12,79.85A.48.48,0,0,1,241,80a.4.4,0,0,1-.21,0,.66.66,0,0,1-.26-.06l-.29-.12-.34-.12a1.54,1.54,0,0,0-.44-.06.93.93,0,0,0-.54.13.43.43,0,0,0-.19.38.38.38,0,0,0,.12.29,1.11,1.11,0,0,0,.33.2l.46.17.53.17a4.56,4.56,0,0,1,.53.22,2,2,0,0,1,.46.32,1.42,1.42,0,0,1,.33.46,1.55,1.55,0,0,1,.12.65,2.15,2.15,0,0,1-.17.85,1.82,1.82,0,0,1-.5.67,2.37,2.37,0,0,1-.82.44,3.69,3.69,0,0,1-1.12.16,3.42,3.42,0,0,1-.64-.06,4.51,4.51,0,0,1-.62-.16,3.39,3.39,0,0,1-.55-.24,2.41,2.41,0,0,1-.43-.3l.43-.68a.62.62,0,0,1,.19-.19.52.52,0,0,1,.28-.07.59.59,0,0,1,.29.07l.28.16a2.24,2.24,0,0,0,.35.16,1.52,1.52,0,0,0,.51.07,1.28,1.28,0,0,0,.37,0,.66.66,0,0,0,.24-.12.5.5,0,0,0,.13-.17.49.49,0,0,0,0-.2.4.4,0,0,0-.13-.31,1.09,1.09,0,0,0-.33-.21,3.87,3.87,0,0,0-.46-.16l-.53-.17a4.44,4.44,0,0,1-.53-.23,1.83,1.83,0,0,1-.46-.34,1.59,1.59,0,0,1-.33-.51,1.88,1.88,0,0,1-.13-.73,1.9,1.9,0,0,1,.15-.75,1.75,1.75,0,0,1,.46-.63,2.27,2.27,0,0,1,.77-.43,3.31,3.31,0,0,1,1.08-.16,3.47,3.47,0,0,1,.65.06,3.3,3.3,0,0,1,.59.17,2.7,2.7,0,0,1,.5.25,2.44,2.44,0,0,1,.4.32Z"/><path class="4ed1662b-a073-4d69-a7d2-9ed9c1a051d9" d="M243.39,81a11,11,0,0,0-.07-1.2,10.61,10.61,0,0,0-.52-2.33,8.43,8.43,0,0,0-.44-1.05.92.92,0,0,1-.07-.17.54.54,0,0,1,0-.14.34.34,0,0,1,.08-.23.83.83,0,0,1,.18-.16l.83-.48A10,10,0,0,1,244.61,78a11.58,11.58,0,0,1,0,5.94,9.89,9.89,0,0,1-1.26,2.78l-.83-.48a.78.78,0,0,1-.19-.16.34.34,0,0,1-.08-.23.75.75,0,0,1,.08-.32,10.14,10.14,0,0,0,.44-1.06,10.59,10.59,0,0,0,.33-1.13,10.62,10.62,0,0,0,.27-2.38Z"/></g></g></svg>