<svg xmlns="http://www.w3.org/2000/svg" viewBox="0 0 358 146"><defs><style>.\33 75efc4f-9289-4030-8036-a368268cc61d{fill:#444;}</style></defs><title>Asset 1</title><g id="7c1a34f0-7332-42c6-afeb-97a58f059938" data-name="Layer 2"><g id="b1b91511-7144-4b8e-9502-a44b729288ca" data-name="Layer 1"><path class="375efc4f-9289-4030-8036-a368268cc61d" d="M346,1a11,11,0,0,1,11,11V134a11,11,0,0,1-11,11H12A11,11,0,0,1,1,134V12A11,11,0,0,1,12,1H346m0-1H12A12,12,0,0,0,0,12V134a12,12,0,0,0,12,12H346a12,12,0,0,0,12-12V12A12,12,0,0,0,346,0Z"/><path class="375efc4f-9289-4030-8036-a368268cc61d" d="M116,33.14h-2.55V22.21H116Z"/><path class="375efc4f-9289-4030-8036-a368268cc61d" d="M123.48,33.14a.64.64,0,0,1-.36-.1.52.52,0,0,1-.21-.29l-.18-.59a4.62,4.62,0,0,1-.49.45,3.09,3.09,0,0,1-.55.35,2.92,2.92,0,0,1-.64.22,3.27,3.27,0,0,1-.74.08,2.39,2.39,0,0,1-1.12-.27,2.59,2.59,0,0,1-.89-.78,3.93,3.93,0,0,1-.59-1.25,6.06,6.06,0,0,1-.21-1.68,5.24,5.24,0,0,1,.24-1.62,4,4,0,0,1,.68-1.29,3.15,3.15,0,0,1,1.05-.85,3,3,0,0,1,1.36-.31,2.59,2.59,0,0,1,1,.18,2.94,2.94,0,0,1,.75.46V21.92h2.32V33.14Zm-2.35-1.67a2,2,0,0,0,.46,0,1.59,1.59,0,0,0,.71-.36,2.94,2.94,0,0,0,.3-.32v-3.3A1.55,1.55,0,0,0,122,27a1.79,1.79,0,0,0-.64-.12,1.37,1.37,0,0,0-.59.13,1.2,1.2,0,0,0-.47.41,2.18,2.18,0,0,0-.31.73,4.54,4.54,0,0,0-.11,1.09,5,5,0,0,0,.09,1,2.13,2.13,0,0,0,.25.68,1,1,0,0,0,.39.37A1.1,1.1,0,0,0,121.12,31.48Z"/><path class="375efc4f-9289-4030-8036-a368268cc61d" d="M130,25.25a4,4,0,0,1,1.41.24,3.07,3.07,0,0,1,1.1.7,3.18,3.18,0,0,1,.72,1.12,4.12,4.12,0,0,1,.26,1.5,3.36,3.36,0,0,1,0,.43.69.69,0,0,1-.08.26.32.32,0,0,1-.16.13.77.77,0,0,1-.26,0h-4.49a2.19,2.19,0,0,0,.59,1.41,1.76,1.76,0,0,0,1.24.44,2.21,2.21,0,0,0,.7-.1,3.45,3.45,0,0,0,.52-.22L132,31a.87.87,0,0,1,.4-.1.48.48,0,0,1,.42.2l.68.83a3.46,3.46,0,0,1-.78.67,4,4,0,0,1-.85.41,4.59,4.59,0,0,1-.88.2,6.48,6.48,0,0,1-.84.06,4.36,4.36,0,0,1-1.53-.27,3.52,3.52,0,0,1-1.25-.79,3.73,3.73,0,0,1-.85-1.3,4.88,4.88,0,0,1-.31-1.82,4.1,4.1,0,0,1,.27-1.48,3.59,3.59,0,0,1,2-2.05A4,4,0,0,1,130,25.25Zm0,1.6a1.4,1.4,0,0,0-1,.38,2,2,0,0,0-.5,1.09h2.9a2.05,2.05,0,0,0-.07-.54,1.32,1.32,0,0,0-.23-.47,1.19,1.19,0,0,0-.42-.33A1.45,1.45,0,0,0,130.09,26.85Z"/><path class="375efc4f-9289-4030-8036-a368268cc61d" d="M134.88,33.14V25.37h1.44a.64.64,0,0,1,.36.1.52.52,0,0,1,.21.29l.13.45a5.78,5.78,0,0,1,.46-.39,2.7,2.7,0,0,1,.51-.3,3,3,0,0,1,.59-.2,3.16,3.16,0,0,1,.69-.07,2.73,2.73,0,0,1,1.13.22,2.34,2.34,0,0,1,.83.61,2.65,2.65,0,0,1,.51.94,3.89,3.89,0,0,1,.17,1.18v4.94H139.6V28.2a1.36,1.36,0,0,0-.26-.89.94.94,0,0,0-.77-.32,1.63,1.63,0,0,0-.72.17,2.82,2.82,0,0,0-.65.44v5.54Z"/><path class="375efc4f-9289-4030-8036-a368268cc61d" d="M146.31,33.26a2.74,2.74,0,0,1-1-.16,1.89,1.89,0,0,1-1.15-1.17A2.77,2.77,0,0,1,144,31V27h-.66a.42.42,0,0,1-.44-.46v-.91l1.24-.24.46-1.9a.46.46,0,0,1,.51-.36h1.21v2.27h1.89V27h-1.89v3.86a.73.73,0,0,0,.13.45.44.44,0,0,0,.38.18.74.74,0,0,0,.21,0l.15-.06.12-.06a.3.3,0,0,1,.13,0,.27.27,0,0,1,.17,0,.61.61,0,0,1,.13.15l.71,1.1a3.22,3.22,0,0,1-1,.51A4,4,0,0,1,146.31,33.26Z"/><path class="375efc4f-9289-4030-8036-a368268cc61d" d="M152.25,23.24a1.22,1.22,0,0,1-.11.52,1.37,1.37,0,0,1-.31.43,1.49,1.49,0,0,1-.45.29,1.41,1.41,0,0,1-.55.11,1.31,1.31,0,0,1-.53-.11,1.48,1.48,0,0,1-.44-.29,1.35,1.35,0,0,1-.3-.43,1.26,1.26,0,0,1-.11-.52,1.31,1.31,0,0,1,.11-.53,1.39,1.39,0,0,1,.3-.43,1.41,1.41,0,0,1,.44-.29,1.36,1.36,0,0,1,.53-.1,1.46,1.46,0,0,1,.55.1,1.42,1.42,0,0,1,.45.29,1.41,1.41,0,0,1,.31.43A1.27,1.27,0,0,1,152.25,23.24ZM152,25.37v7.78h-2.32V25.37Z"/><path class="375efc4f-9289-4030-8036-a368268cc61d" d="M159.31,33.14a.64.64,0,0,1-.36-.1.52.52,0,0,1-.21-.29l-.18-.59a4.62,4.62,0,0,1-.49.45,3.09,3.09,0,0,1-.55.35,2.92,2.92,0,0,1-.64.22,3.27,3.27,0,0,1-.74.08A2.39,2.39,0,0,1,155,33a2.59,2.59,0,0,1-.89-.78,3.93,3.93,0,0,1-.59-1.25,6.06,6.06,0,0,1-.21-1.68,5.24,5.24,0,0,1,.24-1.62,4,4,0,0,1,.68-1.29,3.15,3.15,0,0,1,1.05-.85,3,3,0,0,1,1.36-.31,2.59,2.59,0,0,1,1,.18,2.94,2.94,0,0,1,.75.46V21.92h2.32V33.14ZM157,31.48a2,2,0,0,0,.46,0,1.59,1.59,0,0,0,.71-.36,2.94,2.94,0,0,0,.3-.32v-3.3a1.55,1.55,0,0,0-.57-.41,1.79,1.79,0,0,0-.64-.12,1.37,1.37,0,0,0-.59.13,1.2,1.2,0,0,0-.47.41,2.18,2.18,0,0,0-.31.73,4.54,4.54,0,0,0-.11,1.09,5,5,0,0,0,.09,1,2.13,2.13,0,0,0,.25.68,1,1,0,0,0,.39.37A1.1,1.1,0,0,0,157,31.48Z"/><path class="375efc4f-9289-4030-8036-a368268cc61d" d="M167.92,33.14a1.09,1.09,0,0,1-.5-.09.69.69,0,0,1-.28-.37l-.17-.43q-.29.25-.56.44a3.61,3.61,0,0,1-.56.32,2.76,2.76,0,0,1-.61.2,3.83,3.83,0,0,1-.72.06,3.16,3.16,0,0,1-1-.14,2,2,0,0,1-.74-.41,1.79,1.79,0,0,1-.47-.67,2.44,2.44,0,0,1-.17-.93,2,2,0,0,1,.21-.85,2.1,2.1,0,0,1,.73-.79,4.63,4.63,0,0,1,1.4-.6,8.55,8.55,0,0,1,2.21-.24V28.3a1.45,1.45,0,0,0-.28-1,1,1,0,0,0-.8-.31,2.1,2.1,0,0,0-.68.09,3,3,0,0,0-.47.2l-.4.2a1.09,1.09,0,0,1-.46.09.7.7,0,0,1-.41-.12.86.86,0,0,1-.27-.29l-.42-.73a4.74,4.74,0,0,1,1.56-.93,5.49,5.49,0,0,1,1.84-.3,3.37,3.37,0,0,1,1.27.23,2.75,2.75,0,0,1,1,.64,2.79,2.79,0,0,1,.6,1,3.49,3.49,0,0,1,.21,1.23v4.86Zm-2.67-1.42a1.84,1.84,0,0,0,.79-.16,2.39,2.39,0,0,0,.68-.51V30a6,6,0,0,0-1.15.09,2.77,2.77,0,0,0-.71.23.87.87,0,0,0-.36.31.74.74,0,0,0-.1.38.66.66,0,0,0,.22.56A1.05,1.05,0,0,0,165.25,31.72Z"/><path class="375efc4f-9289-4030-8036-a368268cc61d" d="M176.1,33.14a.64.64,0,0,1-.36-.1.52.52,0,0,1-.21-.29l-.18-.59a4.62,4.62,0,0,1-.49.45,3.09,3.09,0,0,1-.55.35,2.92,2.92,0,0,1-.64.22,3.27,3.27,0,0,1-.74.08,2.39,2.39,0,0,1-1.12-.27,2.59,2.59,0,0,1-.89-.78,3.93,3.93,0,0,1-.59-1.25,6.06,6.06,0,0,1-.21-1.68,5.24,5.24,0,0,1,.24-1.62,4,4,0,0,1,.68-1.29,3.15,3.15,0,0,1,1.05-.85,3,3,0,0,1,1.36-.31,2.59,2.59,0,0,1,1,.18,2.94,2.94,0,0,1,.75.46V21.92h2.32V33.14Zm-2.35-1.67a2,2,0,0,0,.46,0,1.59,1.59,0,0,0,.71-.36,2.94,2.94,0,0,0,.3-.32v-3.3a1.55,1.55,0,0,0-.57-.41,1.79,1.79,0,0,0-.64-.12,1.37,1.37,0,0,0-.59.13,1.2,1.2,0,0,0-.47.41,2.18,2.18,0,0,0-.31.73,4.54,4.54,0,0,0-.11,1.09,5,5,0,0,0,.09,1,2.13,2.13,0,0,0,.25.68,1,1,0,0,0,.39.37A1.1,1.1,0,0,0,173.74,31.48Z"/><path class="375efc4f-9289-4030-8036-a368268cc61d" d="M182.67,25.25a4,4,0,0,1,1.41.24,3.07,3.07,0,0,1,1.1.7,3.18,3.18,0,0,1,.72,1.12,4.12,4.12,0,0,1,.26,1.5,3.36,3.36,0,0,1,0,.43.69.69,0,0,1-.08.26.32.32,0,0,1-.16.13.77.77,0,0,1-.26,0h-4.49a2.19,2.19,0,0,0,.59,1.41,1.76,1.76,0,0,0,1.24.44,2.21,2.21,0,0,0,.7-.1,3.45,3.45,0,0,0,.52-.22l.42-.22a.87.87,0,0,1,.4-.1.48.48,0,0,1,.42.2l.68.83a3.46,3.46,0,0,1-.78.67,4,4,0,0,1-.85.41,4.59,4.59,0,0,1-.88.2,6.48,6.48,0,0,1-.84.06,4.36,4.36,0,0,1-1.53-.27,3.52,3.52,0,0,1-1.25-.79,3.73,3.73,0,0,1-.85-1.3,4.88,4.88,0,0,1-.31-1.82,4.1,4.1,0,0,1,.27-1.48,3.59,3.59,0,0,1,2-2.05A4,4,0,0,1,182.67,25.25Zm0,1.6a1.4,1.4,0,0,0-1,.38,2,2,0,0,0-.5,1.09h2.9a2.05,2.05,0,0,0-.07-.54,1.32,1.32,0,0,0-.23-.47,1.19,1.19,0,0,0-.42-.33A1.45,1.45,0,0,0,182.71,26.85Z"/><path class="375efc4f-9289-4030-8036-a368268cc61d" d="M192.25,27.07a.59.59,0,0,1-.19.2.5.5,0,0,1-.26.06.82.82,0,0,1-.33-.07l-.36-.15-.43-.15a1.94,1.94,0,0,0-.55-.07,1.16,1.16,0,0,0-.68.17.54.54,0,0,0-.24.47.47.47,0,0,0,.15.36,1.42,1.42,0,0,0,.41.25,5.56,5.56,0,0,0,.58.21l.66.22a5.93,5.93,0,0,1,.66.28,2.47,2.47,0,0,1,.58.4,1.78,1.78,0,0,1,.41.57,2,2,0,0,1,.15.81,2.66,2.66,0,0,1-.21,1.06,2.26,2.26,0,0,1-.63.84,3,3,0,0,1-1,.55,4.64,4.64,0,0,1-1.41.2,4.29,4.29,0,0,1-.79-.08A5.49,5.49,0,0,1,188,33a4.22,4.22,0,0,1-.69-.3,3,3,0,0,1-.54-.38l.54-.86a.78.78,0,0,1,.23-.24.65.65,0,0,1,.35-.09.74.74,0,0,1,.36.09l.35.2a2.92,2.92,0,0,0,.44.2,1.91,1.91,0,0,0,.63.09,1.59,1.59,0,0,0,.46-.06.81.81,0,0,0,.3-.15.62.62,0,0,0,.17-.22.61.61,0,0,0,.05-.25.51.51,0,0,0-.16-.38,1.39,1.39,0,0,0-.41-.26,5,5,0,0,0-.58-.2l-.66-.21a5.35,5.35,0,0,1-.66-.29,2.28,2.28,0,0,1-.58-.43,2,2,0,0,1-.41-.63,2.34,2.34,0,0,1-.16-.91,2.37,2.37,0,0,1,.19-.94,2.19,2.19,0,0,1,.57-.78,2.81,2.81,0,0,1,1-.54,4.17,4.17,0,0,1,1.35-.2,4.36,4.36,0,0,1,.81.08,4.13,4.13,0,0,1,.74.21,3.56,3.56,0,0,1,.63.32,3.08,3.08,0,0,1,.5.4Z"/><path class="375efc4f-9289-4030-8036-a368268cc61d" d="M196.09,22.21h2a.9.9,0,0,1,.54.15.82.82,0,0,1,.3.4l2.12,5.85c.09.25.19.53.29.83s.19.62.27.94q.11-.49.24-.94c.09-.3.18-.58.27-.83l2.1-5.85a.87.87,0,0,1,.83-.55h2.06l-4.38,10.93h-2.29Z"/><path class="375efc4f-9289-4030-8036-a368268cc61d" d="M210.72,23.24a1.22,1.22,0,0,1-.11.52,1.37,1.37,0,0,1-.31.43,1.5,1.5,0,0,1-.45.29,1.41,1.41,0,0,1-.55.11,1.31,1.31,0,0,1-.53-.11,1.47,1.47,0,0,1-.44-.29,1.35,1.35,0,0,1-.3-.43,1.26,1.26,0,0,1-.11-.52,1.31,1.31,0,0,1,.11-.53,1.39,1.39,0,0,1,.3-.43,1.4,1.4,0,0,1,.44-.29,1.36,1.36,0,0,1,.53-.1,1.47,1.47,0,0,1,.55.1,1.42,1.42,0,0,1,.45.29,1.41,1.41,0,0,1,.31.43A1.27,1.27,0,0,1,210.72,23.24Zm-.27,2.13v7.78h-2.33V25.37Z"/><path class="375efc4f-9289-4030-8036-a368268cc61d" d="M217.08,27.07a.6.6,0,0,1-.19.2.5.5,0,0,1-.26.06.82.82,0,0,1-.33-.07l-.36-.15a3.76,3.76,0,0,0-.43-.15,2,2,0,0,0-.55-.07,1.16,1.16,0,0,0-.68.17.54.54,0,0,0-.24.47.47.47,0,0,0,.15.36,1.41,1.41,0,0,0,.41.25,5.51,5.51,0,0,0,.58.21l.66.22a5.85,5.85,0,0,1,.66.28,2.48,2.48,0,0,1,.58.4,1.77,1.77,0,0,1,.41.57,2,2,0,0,1,.15.81,2.66,2.66,0,0,1-.21,1.06,2.28,2.28,0,0,1-.63.84,3,3,0,0,1-1,.55,4.63,4.63,0,0,1-1.41.2,4.3,4.3,0,0,1-.79-.08,5.48,5.48,0,0,1-.77-.2,4.19,4.19,0,0,1-.69-.3,3,3,0,0,1-.54-.38l.54-.86a.79.79,0,0,1,.23-.24.65.65,0,0,1,.35-.09.74.74,0,0,1,.36.09l.35.2a2.9,2.9,0,0,0,.44.2,1.92,1.92,0,0,0,.63.09,1.6,1.6,0,0,0,.46-.06.82.82,0,0,0,.3-.15.6.6,0,0,0,.22-.46.5.5,0,0,0-.16-.38,1.37,1.37,0,0,0-.41-.26,5.12,5.12,0,0,0-.58-.2l-.66-.21a5.36,5.36,0,0,1-.66-.29,2.26,2.26,0,0,1-.58-.43,2,2,0,0,1-.41-.63,2.33,2.33,0,0,1-.16-.91,2.38,2.38,0,0,1,.19-.94,2.19,2.19,0,0,1,.57-.78,2.81,2.81,0,0,1,1-.54,4.17,4.17,0,0,1,1.35-.2,4.35,4.35,0,0,1,.81.08,4.17,4.17,0,0,1,.74.21,3.59,3.59,0,0,1,.63.32,3.09,3.09,0,0,1,.5.4Z"/><path class="375efc4f-9289-4030-8036-a368268cc61d" d="M221.1,25.37V30.3a1.36,1.36,0,0,0,.26.89,1,1,0,0,0,.77.32,1.65,1.65,0,0,0,.72-.16,2.64,2.64,0,0,0,.65-.44V25.37h2.32v7.78h-1.44a.55.55,0,0,1-.57-.39l-.14-.45a4.45,4.45,0,0,1-.46.39,2.84,2.84,0,0,1-.51.3,3.06,3.06,0,0,1-.59.2,3.1,3.1,0,0,1-.69.07,2.72,2.72,0,0,1-1.13-.22,2.33,2.33,0,0,1-.83-.62,2.72,2.72,0,0,1-.51-.94,3.87,3.87,0,0,1-.17-1.19V25.37Z"/><path class="375efc4f-9289-4030-8036-a368268cc61d" d="M233,33.14a1.09,1.09,0,0,1-.5-.09.68.68,0,0,1-.28-.37l-.17-.43q-.29.25-.56.44a3.64,3.64,0,0,1-.56.32,2.77,2.77,0,0,1-.61.2,3.83,3.83,0,0,1-.72.06,3.16,3.16,0,0,1-1-.14,2,2,0,0,1-.74-.41,1.8,1.8,0,0,1-.47-.67,2.45,2.45,0,0,1-.17-.93,2,2,0,0,1,.21-.85,2.1,2.1,0,0,1,.73-.79,4.64,4.64,0,0,1,1.4-.6,8.55,8.55,0,0,1,2.21-.24V28.3a1.45,1.45,0,0,0-.28-1,1,1,0,0,0-.8-.31,2.1,2.1,0,0,0-.68.09,3,3,0,0,0-.47.2l-.4.2a1.09,1.09,0,0,1-.46.09.7.7,0,0,1-.41-.12.86.86,0,0,1-.27-.29l-.42-.73a4.74,4.74,0,0,1,1.56-.93,5.49,5.49,0,0,1,1.84-.3,3.37,3.37,0,0,1,1.27.23,2.75,2.75,0,0,1,1,.64,2.81,2.81,0,0,1,.6,1,3.5,3.5,0,0,1,.21,1.23v4.86Zm-2.67-1.42a1.84,1.84,0,0,0,.79-.16,2.38,2.38,0,0,0,.68-.51V30a6,6,0,0,0-1.15.09,2.76,2.76,0,0,0-.71.23.87.87,0,0,0-.36.31.74.74,0,0,0-.1.38.66.66,0,0,0,.22.56A1.06,1.06,0,0,0,230.32,31.72Z"/><path class="375efc4f-9289-4030-8036-a368268cc61d" d="M238.38,23.24a1.22,1.22,0,0,1-.11.52,1.37,1.37,0,0,1-.31.43,1.5,1.5,0,0,1-.45.29,1.41,1.41,0,0,1-.55.11,1.31,1.31,0,0,1-.53-.11,1.47,1.47,0,0,1-.44-.29,1.35,1.35,0,0,1-.3-.43,1.26,1.26,0,0,1-.11-.52,1.31,1.31,0,0,1,.11-.53,1.39,1.39,0,0,1,.3-.43,1.4,1.4,0,0,1,.44-.29,1.36,1.36,0,0,1,.53-.1,1.47,1.47,0,0,1,.55.1,1.42,1.42,0,0,1,.45.29,1.41,1.41,0,0,1,.31.43A1.27,1.27,0,0,1,238.38,23.24Zm-.27,2.13v7.78h-2.33V25.37Z"/><path class="375efc4f-9289-4030-8036-a368268cc61d" d="M244.74,27.07a.6.6,0,0,1-.19.2.5.5,0,0,1-.26.06.82.82,0,0,1-.33-.07l-.36-.15a3.76,3.76,0,0,0-.43-.15,2,2,0,0,0-.55-.07,1.16,1.16,0,0,0-.68.17.54.54,0,0,0-.24.47.47.47,0,0,0,.15.36,1.41,1.41,0,0,0,.41.25,5.51,5.51,0,0,0,.58.21l.66.22a5.85,5.85,0,0,1,.66.28,2.48,2.48,0,0,1,.58.4,1.77,1.77,0,0,1,.41.57,2,2,0,0,1,.15.81,2.66,2.66,0,0,1-.21,1.06,2.28,2.28,0,0,1-.63.84,3,3,0,0,1-1,.55,4.63,4.63,0,0,1-1.41.2,4.3,4.3,0,0,1-.79-.08,5.48,5.48,0,0,1-.77-.2,4.19,4.19,0,0,1-.69-.3,3,3,0,0,1-.54-.38l.54-.86a.79.79,0,0,1,.23-.24.65.65,0,0,1,.35-.09.74.74,0,0,1,.36.09l.35.2a2.9,2.9,0,0,0,.44.2,1.92,1.92,0,0,0,.63.09,1.6,1.6,0,0,0,.46-.06.82.82,0,0,0,.3-.15.6.6,0,0,0,.22-.46.5.5,0,0,0-.16-.38,1.37,1.37,0,0,0-.41-.26,5.12,5.12,0,0,0-.58-.2l-.66-.21a5.36,5.36,0,0,1-.66-.29,2.26,2.26,0,0,1-.58-.43,2,2,0,0,1-.41-.63,2.33,2.33,0,0,1-.16-.91,2.38,2.38,0,0,1,.19-.94,2.19,2.19,0,0,1,.57-.78,2.81,2.81,0,0,1,1-.54,4.17,4.17,0,0,1,1.35-.2,4.35,4.35,0,0,1,.81.08,4.17,4.17,0,0,1,.74.21,3.59,3.59,0,0,1,.63.32,3.09,3.09,0,0,1,.5.4Z"/><path class="375efc4f-9289-4030-8036-a368268cc61d" d="M148.95,49.12h4v2h-6.58V40.21h2.54Z"/><path class="375efc4f-9289-4030-8036-a368268cc61d" d="M157.36,43.25a4.5,4.5,0,0,1,1.61.28A3.48,3.48,0,0,1,161,45.57a4.53,4.53,0,0,1,.29,1.66,4.61,4.61,0,0,1-.29,1.68,3.6,3.6,0,0,1-.81,1.27A3.55,3.55,0,0,1,159,51a4.44,4.44,0,0,1-1.61.28,4.49,4.49,0,0,1-1.62-.28,3.62,3.62,0,0,1-1.26-.8,3.55,3.55,0,0,1-.82-1.27,4.61,4.61,0,0,1-.29-1.68,4.53,4.53,0,0,1,.29-1.66,3.52,3.52,0,0,1,.82-1.26,3.62,3.62,0,0,1,1.26-.79A4.55,4.55,0,0,1,157.36,43.25Zm0,6.29a1.32,1.32,0,0,0,1.18-.57,4.1,4.1,0,0,0,0-3.44,1.32,1.32,0,0,0-1.18-.56,1.36,1.36,0,0,0-1.21.56,4.05,4.05,0,0,0,0,3.44A1.35,1.35,0,0,0,157.36,49.54Z"/><path class="375efc4f-9289-4030-8036-a368268cc61d" d="M165.34,43.23a4.33,4.33,0,0,1,.93.1,3.78,3.78,0,0,1,.81.28h2.35v.85a.42.42,0,0,1-.11.31.74.74,0,0,1-.37.17l-.57.13a2.34,2.34,0,0,1,.1.7,2.22,2.22,0,0,1-.24,1,2.4,2.4,0,0,1-.67.79,3.1,3.1,0,0,1-1,.5,4.23,4.23,0,0,1-1.24.18,5,5,0,0,1-.69,0,.42.42,0,0,0-.25.35.3.3,0,0,0,.21.28,2,2,0,0,0,.54.12q.34,0,.77,0t.88,0a7,7,0,0,1,.89.14,2.37,2.37,0,0,1,.77.32,1.64,1.64,0,0,1,.54.58,1.87,1.87,0,0,1,.21.93,2.26,2.26,0,0,1-.26,1,2.69,2.69,0,0,1-.75.9,3.91,3.91,0,0,1-1.21.63,5.27,5.27,0,0,1-1.65.24,6.32,6.32,0,0,1-1.58-.17,3.82,3.82,0,0,1-1.1-.45,1.91,1.91,0,0,1-.65-.65,1.52,1.52,0,0,1-.21-.77,1.27,1.27,0,0,1,.31-.87,2.09,2.09,0,0,1,.86-.56,1.32,1.32,0,0,1-.42-.44,1.34,1.34,0,0,1-.16-.68,1.21,1.21,0,0,1,.06-.36,1.33,1.33,0,0,1,.19-.37,1.88,1.88,0,0,1,.32-.34,2.09,2.09,0,0,1,.47-.29,2.53,2.53,0,0,1-1-.85,2.37,2.37,0,0,1-.1-2.29,2.37,2.37,0,0,1,.68-.79,3.18,3.18,0,0,1,1-.5A4.39,4.39,0,0,1,165.34,43.23Zm1.73,8.18a.41.41,0,0,0-.12-.31.83.83,0,0,0-.31-.18,2.2,2.2,0,0,0-.47-.1,5.24,5.24,0,0,0-.57,0H165a3.4,3.4,0,0,1-.65-.06,1.52,1.52,0,0,0-.36.33.68.68,0,0,0-.14.42.64.64,0,0,0,.07.3.59.59,0,0,0,.25.23,1.64,1.64,0,0,0,.48.15,4.28,4.28,0,0,0,.77.06,4.54,4.54,0,0,0,.83-.06,1.73,1.73,0,0,0,.51-.17.63.63,0,0,0,.27-.26A.72.72,0,0,0,167.07,51.41Zm-1.73-4.57a1,1,0,0,0,1.1-1,1,1,0,0,0-.26-.74,1.43,1.43,0,0,0-1.67,0,1,1,0,0,0-.26.74,1.28,1.28,0,0,0,.06.41.86.86,0,0,0,.2.33.93.93,0,0,0,.34.22A1.39,1.39,0,0,0,165.34,46.84Z"/><path class="375efc4f-9289-4030-8036-a368268cc61d" d="M173.91,43.25a4.5,4.5,0,0,1,1.61.28,3.48,3.48,0,0,1,2.06,2.05,4.53,4.53,0,0,1,.29,1.66,4.61,4.61,0,0,1-.29,1.68,3.6,3.6,0,0,1-.81,1.27,3.55,3.55,0,0,1-1.25.8,4.44,4.44,0,0,1-1.61.28,4.49,4.49,0,0,1-1.62-.28,3.62,3.62,0,0,1-1.26-.8,3.55,3.55,0,0,1-.82-1.27,4.61,4.61,0,0,1-.29-1.68,4.53,4.53,0,0,1,.29-1.66,3.52,3.52,0,0,1,.82-1.26,3.62,3.62,0,0,1,1.26-.79A4.55,4.55,0,0,1,173.91,43.25Zm0,6.29a1.32,1.32,0,0,0,1.18-.57,4.1,4.1,0,0,0,0-3.44,1.32,1.32,0,0,0-1.18-.56,1.36,1.36,0,0,0-1.21.56,4.05,4.05,0,0,0,0,3.44A1.35,1.35,0,0,0,173.91,49.54Z"/><path class="375efc4f-9289-4030-8036-a368268cc61d" d="M181.87,51.26a2.74,2.74,0,0,1-1-.16,1.89,1.89,0,0,1-1.15-1.17,2.77,2.77,0,0,1-.15-.94V45h-.66a.42.42,0,0,1-.44-.46v-.91l1.24-.24.46-1.9a.46.46,0,0,1,.51-.36h1.21v2.27h1.89V45h-1.89v3.86a.73.73,0,0,0,.13.45.44.44,0,0,0,.38.18.74.74,0,0,0,.21,0l.15-.06.12-.06a.3.3,0,0,1,.13,0,.27.27,0,0,1,.17,0,.61.61,0,0,1,.13.15l.71,1.1a3.22,3.22,0,0,1-1,.51A4,4,0,0,1,181.87,51.26Z"/><path class="375efc4f-9289-4030-8036-a368268cc61d" d="M187.81,41.24a1.22,1.22,0,0,1-.11.52,1.37,1.37,0,0,1-.31.43,1.49,1.49,0,0,1-.45.29,1.41,1.41,0,0,1-.55.11,1.31,1.31,0,0,1-.53-.11,1.48,1.48,0,0,1-.44-.29,1.35,1.35,0,0,1-.3-.43,1.26,1.26,0,0,1-.11-.52,1.31,1.31,0,0,1,.11-.53,1.39,1.39,0,0,1,.3-.43,1.41,1.41,0,0,1,.44-.29,1.36,1.36,0,0,1,.53-.1,1.46,1.46,0,0,1,.55.1,1.42,1.42,0,0,1,.45.29,1.41,1.41,0,0,1,.31.43A1.27,1.27,0,0,1,187.81,41.24Zm-.27,2.13v7.78h-2.32V43.37Z"/><path class="375efc4f-9289-4030-8036-a368268cc61d" d="M189.42,53.61V43.37h1.44a.64.64,0,0,1,.36.1.52.52,0,0,1,.21.29l.17.57a3.82,3.82,0,0,1,.48-.45,3.23,3.23,0,0,1,.55-.35,3,3,0,0,1,.64-.23,3.14,3.14,0,0,1,.75-.08,2.39,2.39,0,0,1,1.13.27,2.58,2.58,0,0,1,.89.78,4,4,0,0,1,.59,1.25,6,6,0,0,1,.21,1.68,5.15,5.15,0,0,1-.24,1.62,4.07,4.07,0,0,1-.68,1.29,3.14,3.14,0,0,1-1.05.86,3,3,0,0,1-1.35.31,2.64,2.64,0,0,1-1-.17,2.73,2.73,0,0,1-.75-.46v3ZM193.21,45a2,2,0,0,0-.46,0,1.74,1.74,0,0,0-.38.14,1.46,1.46,0,0,0-.33.23,3.17,3.17,0,0,0-.3.32V49a1.47,1.47,0,0,0,.57.41,1.82,1.82,0,0,0,.65.12,1.37,1.37,0,0,0,.59-.13A1.21,1.21,0,0,0,194,49a2.2,2.2,0,0,0,.31-.73,4.57,4.57,0,0,0,.11-1.09,5,5,0,0,0-.09-1,2.12,2.12,0,0,0-.25-.68,1,1,0,0,0-.39-.37A1.1,1.1,0,0,0,193.21,45Z"/><path class="375efc4f-9289-4030-8036-a368268cc61d" d="M201.55,43.25a4.5,4.5,0,0,1,1.61.28,3.47,3.47,0,0,1,2.06,2.05,4.53,4.53,0,0,1,.29,1.66,4.61,4.61,0,0,1-.29,1.68,3.6,3.6,0,0,1-.81,1.27,3.55,3.55,0,0,1-1.25.8,4.44,4.44,0,0,1-1.61.28,4.49,4.49,0,0,1-1.62-.28,3.62,3.62,0,0,1-1.26-.8,3.55,3.55,0,0,1-.82-1.27,4.61,4.61,0,0,1-.29-1.68,4.53,4.53,0,0,1,.29-1.66,3.52,3.52,0,0,1,.82-1.26,3.62,3.62,0,0,1,1.26-.79A4.56,4.56,0,0,1,201.55,43.25Zm0,6.29a1.32,1.32,0,0,0,1.18-.57,4.1,4.1,0,0,0,0-3.44,1.32,1.32,0,0,0-1.18-.56,1.36,1.36,0,0,0-1.21.56,4.05,4.05,0,0,0,0,3.44A1.35,1.35,0,0,0,201.55,49.54Z"/><path class="375efc4f-9289-4030-8036-a368268cc61d" d="M211.54,45.07a.59.59,0,0,1-.19.2.5.5,0,0,1-.26.06.82.82,0,0,1-.33-.07l-.36-.15L210,45a1.94,1.94,0,0,0-.55-.07,1.16,1.16,0,0,0-.68.17.54.54,0,0,0-.24.47.47.47,0,0,0,.15.36,1.42,1.42,0,0,0,.41.25,5.56,5.56,0,0,0,.58.21l.66.22a5.93,5.93,0,0,1,.66.28,2.47,2.47,0,0,1,.58.4,1.78,1.78,0,0,1,.41.57,2,2,0,0,1,.15.81,2.66,2.66,0,0,1-.21,1.06,2.26,2.26,0,0,1-.63.84,3,3,0,0,1-1,.55,4.64,4.64,0,0,1-1.41.2,4.29,4.29,0,0,1-.79-.08,5.49,5.49,0,0,1-.77-.2,4.22,4.22,0,0,1-.69-.3,3,3,0,0,1-.54-.38l.54-.86a.78.78,0,0,1,.23-.24.65.65,0,0,1,.35-.09.74.74,0,0,1,.36.09l.35.2a2.92,2.92,0,0,0,.44.2,1.91,1.91,0,0,0,.63.09,1.59,1.59,0,0,0,.46-.06.81.81,0,0,0,.3-.15.62.62,0,0,0,.17-.22.61.61,0,0,0,.05-.25.51.51,0,0,0-.16-.38,1.39,1.39,0,0,0-.41-.26,5,5,0,0,0-.58-.2l-.66-.21a5.35,5.35,0,0,1-.66-.29,2.26,2.26,0,0,1-.58-.43,2,2,0,0,1-.41-.63,2.54,2.54,0,0,1,0-1.85,2.18,2.18,0,0,1,.57-.78,2.81,2.81,0,0,1,1-.54,4.17,4.17,0,0,1,1.35-.2,4.36,4.36,0,0,1,.81.08,4.13,4.13,0,0,1,.74.21,3.56,3.56,0,0,1,.63.32,3.08,3.08,0,0,1,.5.4Z"/><path class="375efc4f-9289-4030-8036-a368268cc61d" d="M129,66.32a.51.51,0,0,1,.18,0,.5.5,0,0,1,.17.12l1,1.06a4.17,4.17,0,0,1-1.65,1.3,5.8,5.8,0,0,1-2.35.44,5.61,5.61,0,0,1-2.23-.42,4.83,4.83,0,0,1-1.67-1.17,5.15,5.15,0,0,1-1.05-1.77,6.53,6.53,0,0,1-.37-2.22,5.87,5.87,0,0,1,.42-2.25,5.24,5.24,0,0,1,1.17-1.77,5.29,5.29,0,0,1,1.8-1.15,6.28,6.28,0,0,1,2.32-.41,5.92,5.92,0,0,1,1.16.11,5.61,5.61,0,0,1,1,.3,4.78,4.78,0,0,1,.87.46,4.21,4.21,0,0,1,.71.59l-.85,1.15a1.1,1.1,0,0,1-.19.19.51.51,0,0,1-.31.09.56.56,0,0,1-.25-.06l-.26-.15-.3-.19a2.31,2.31,0,0,0-.38-.19,3.15,3.15,0,0,0-.52-.15,3.52,3.52,0,0,0-.69-.06,3.16,3.16,0,0,0-1.26.24,2.75,2.75,0,0,0-1,.7,3.23,3.23,0,0,0-.64,1.1,4.31,4.31,0,0,0-.23,1.45,4.51,4.51,0,0,0,.23,1.49,3.28,3.28,0,0,0,.62,1.1,2.65,2.65,0,0,0,.92.68,2.74,2.74,0,0,0,1.13.23,5.4,5.4,0,0,0,.63,0,2.56,2.56,0,0,0,.53-.12,2.41,2.41,0,0,0,.46-.21,3.07,3.07,0,0,0,.45-.33.89.89,0,0,1,.19-.12A.5.5,0,0,1,129,66.32Z"/><path class="375efc4f-9289-4030-8036-a368268cc61d" d="M136.86,69.14a1.09,1.09,0,0,1-.5-.09.69.69,0,0,1-.28-.37l-.17-.43q-.29.25-.56.44a3.61,3.61,0,0,1-.56.32,2.76,2.76,0,0,1-.61.2,3.83,3.83,0,0,1-.72.06,3.16,3.16,0,0,1-1-.14,2,2,0,0,1-.74-.41,1.79,1.79,0,0,1-.47-.67,2.44,2.44,0,0,1-.17-.93,2,2,0,0,1,.21-.85,2.1,2.1,0,0,1,.73-.79,4.63,4.63,0,0,1,1.4-.6,8.55,8.55,0,0,1,2.21-.24V64.3a1.45,1.45,0,0,0-.28-1,1,1,0,0,0-.8-.31,2.1,2.1,0,0,0-.68.09,3,3,0,0,0-.47.2l-.4.2a1.09,1.09,0,0,1-.46.09.7.7,0,0,1-.41-.12.86.86,0,0,1-.27-.29l-.42-.73a4.74,4.74,0,0,1,1.56-.93,5.49,5.49,0,0,1,1.84-.3,3.37,3.37,0,0,1,1.27.23,2.75,2.75,0,0,1,1,.64,2.79,2.79,0,0,1,.6,1,3.49,3.49,0,0,1,.21,1.23v4.86Zm-2.67-1.42a1.84,1.84,0,0,0,.79-.16,2.39,2.39,0,0,0,.68-.51V66a6,6,0,0,0-1.15.09,2.77,2.77,0,0,0-.71.23.87.87,0,0,0-.36.31.74.74,0,0,0-.1.38.66.66,0,0,0,.22.56A1.05,1.05,0,0,0,134.19,67.72Z"/><path class="375efc4f-9289-4030-8036-a368268cc61d" d="M139.57,69.14V61.37H141a1.15,1.15,0,0,1,.29,0,.49.49,0,0,1,.19.09.4.4,0,0,1,.12.17,1.56,1.56,0,0,1,.07.25l.13.73a3.82,3.82,0,0,1,1-1,2,2,0,0,1,1.16-.38,1.34,1.34,0,0,1,.85.25l-.3,1.71a.33.33,0,0,1-.12.22.4.4,0,0,1-.24.06l-.3,0a2.33,2.33,0,0,0-.44,0,1.6,1.6,0,0,0-1.44,1v4.77Z"/><path class="375efc4f-9289-4030-8036-a368268cc61d" d="M148.5,69.26a2.74,2.74,0,0,1-1-.16,1.89,1.89,0,0,1-1.15-1.17,2.77,2.77,0,0,1-.15-.94V63h-.66a.42.42,0,0,1-.44-.46v-.91l1.24-.24.46-1.9a.46.46,0,0,1,.51-.36h1.21v2.27h1.89V63h-1.89v3.86a.73.73,0,0,0,.13.45.44.44,0,0,0,.38.18.74.74,0,0,0,.21,0l.15-.06.12-.06a.3.3,0,0,1,.13,0,.27.27,0,0,1,.17,0,.61.61,0,0,1,.13.15l.71,1.1a3.22,3.22,0,0,1-1,.51A4,4,0,0,1,148.5,69.26Z"/><path class="375efc4f-9289-4030-8036-a368268cc61d" d="M155.23,61.25a4.5,4.5,0,0,1,1.61.28,3.48,3.48,0,0,1,2.06,2.05,4.53,4.53,0,0,1,.29,1.66,4.61,4.61,0,0,1-.29,1.68,3.6,3.6,0,0,1-.81,1.27,3.55,3.55,0,0,1-1.25.8,4.44,4.44,0,0,1-1.61.28,4.49,4.49,0,0,1-1.62-.28,3.62,3.62,0,0,1-1.26-.8,3.55,3.55,0,0,1-.82-1.27,4.61,4.61,0,0,1-.29-1.68,4.53,4.53,0,0,1,.29-1.66,3.52,3.52,0,0,1,.82-1.26,3.62,3.62,0,0,1,1.26-.79A4.55,4.55,0,0,1,155.23,61.25Zm.78-2.5a.44.44,0,0,0,.29-.09.52.52,0,0,0,.11-.4h1.41a2.59,2.59,0,0,1-.13.85,1.93,1.93,0,0,1-.36.64,1.6,1.6,0,0,1-.55.41,1.64,1.64,0,0,1-.68.14,1.52,1.52,0,0,1-.52-.09,3.82,3.82,0,0,1-.45-.19l-.37-.19a.67.67,0,0,0-.3-.09.39.39,0,0,0-.29.1.58.58,0,0,0-.1.41h-1.42a2.53,2.53,0,0,1,.13-.85,2,2,0,0,1,.37-.65,1.61,1.61,0,0,1,.55-.42,1.58,1.58,0,0,1,.67-.15,1.55,1.55,0,0,1,.52.09,3.5,3.5,0,0,1,.45.19l.37.19A.68.68,0,0,0,156,58.74Zm-.78,8.8a1.32,1.32,0,0,0,1.18-.57,4.1,4.1,0,0,0,0-3.44,1.32,1.32,0,0,0-1.18-.56,1.36,1.36,0,0,0-1.21.56A4.05,4.05,0,0,0,154,67,1.35,1.35,0,0,0,155.23,67.54Z"/><path class="375efc4f-9289-4030-8036-a368268cc61d" d="M163.8,61.25a4,4,0,0,1,1.41.24,3.07,3.07,0,0,1,1.1.7A3.18,3.18,0,0,1,167,63.3a4.12,4.12,0,0,1,.26,1.5,3.36,3.36,0,0,1,0,.43.69.69,0,0,1-.08.26.32.32,0,0,1-.16.13.77.77,0,0,1-.26,0h-4.49a2.19,2.19,0,0,0,.59,1.41,1.76,1.76,0,0,0,1.24.44,2.21,2.21,0,0,0,.7-.1,3.45,3.45,0,0,0,.52-.22l.42-.22a.87.87,0,0,1,.4-.1.48.48,0,0,1,.42.2l.68.83a3.46,3.46,0,0,1-.78.67,4,4,0,0,1-.85.41,4.59,4.59,0,0,1-.88.2,6.48,6.48,0,0,1-.84.06,4.36,4.36,0,0,1-1.53-.27,3.52,3.52,0,0,1-1.25-.79,3.73,3.73,0,0,1-.85-1.3,4.88,4.88,0,0,1-.31-1.82,4.1,4.1,0,0,1,.27-1.48,3.59,3.59,0,0,1,2-2.05A4,4,0,0,1,163.8,61.25Zm0,1.6a1.4,1.4,0,0,0-1,.38,2,2,0,0,0-.5,1.09h2.9a2.05,2.05,0,0,0-.07-.54,1.32,1.32,0,0,0-.23-.47,1.19,1.19,0,0,0-.42-.33A1.45,1.45,0,0,0,163.84,62.85Z"/><path class="375efc4f-9289-4030-8036-a368268cc61d" d="M173.38,63.07a.59.59,0,0,1-.19.2.5.5,0,0,1-.26.06.82.82,0,0,1-.33-.07l-.36-.15a3.8,3.8,0,0,0-.43-.15,2,2,0,0,0-.55-.07,1.16,1.16,0,0,0-.68.17.54.54,0,0,0-.24.47.47.47,0,0,0,.15.36,1.41,1.41,0,0,0,.41.25,5.53,5.53,0,0,0,.58.21l.66.22a5.89,5.89,0,0,1,.66.28,2.48,2.48,0,0,1,.58.4,1.78,1.78,0,0,1,.41.57,2,2,0,0,1,.15.81,2.66,2.66,0,0,1-.21,1.06,2.27,2.27,0,0,1-.63.84,3,3,0,0,1-1,.55,4.63,4.63,0,0,1-1.41.2,4.29,4.29,0,0,1-.79-.08,5.49,5.49,0,0,1-.77-.2,4.21,4.21,0,0,1-.69-.3,3,3,0,0,1-.54-.38l.54-.86a.78.78,0,0,1,.23-.24.65.65,0,0,1,.35-.09.74.74,0,0,1,.36.09l.35.2a2.91,2.91,0,0,0,.44.2,1.91,1.91,0,0,0,.63.09,1.59,1.59,0,0,0,.46-.06.81.81,0,0,0,.3-.15.6.6,0,0,0,.22-.46.5.5,0,0,0-.16-.38,1.38,1.38,0,0,0-.41-.26,5.08,5.08,0,0,0-.58-.2L170,66a5.35,5.35,0,0,1-.66-.29,2.26,2.26,0,0,1-.58-.43,2,2,0,0,1-.41-.63,2.34,2.34,0,0,1-.16-.91,2.37,2.37,0,0,1,.19-.94,2.19,2.19,0,0,1,.57-.78,2.81,2.81,0,0,1,1-.54,4.17,4.17,0,0,1,1.35-.2,4.35,4.35,0,0,1,.81.08,4.15,4.15,0,0,1,.74.21,3.57,3.57,0,0,1,.63.32,3.08,3.08,0,0,1,.5.4Z"/><path class="375efc4f-9289-4030-8036-a368268cc61d" d="M183.58,69.14a.64.64,0,0,1-.36-.1.52.52,0,0,1-.21-.29l-.18-.59a4.62,4.62,0,0,1-.49.45,3.09,3.09,0,0,1-.55.35,2.92,2.92,0,0,1-.64.22,3.27,3.27,0,0,1-.74.08,2.39,2.39,0,0,1-1.12-.27,2.59,2.59,0,0,1-.89-.78,3.93,3.93,0,0,1-.59-1.25,6.06,6.06,0,0,1-.21-1.68,5.24,5.24,0,0,1,.24-1.62,4,4,0,0,1,.68-1.29,3.15,3.15,0,0,1,1.05-.85,3,3,0,0,1,1.36-.31,2.59,2.59,0,0,1,1,.18,2.94,2.94,0,0,1,.75.46V57.92H185V69.14Zm-2.35-1.67a2,2,0,0,0,.46,0,1.59,1.59,0,0,0,.71-.36,2.94,2.94,0,0,0,.3-.32v-3.3a1.55,1.55,0,0,0-.57-.41,1.79,1.79,0,0,0-.64-.12,1.37,1.37,0,0,0-.59.13,1.2,1.2,0,0,0-.47.41,2.18,2.18,0,0,0-.31.73,4.54,4.54,0,0,0-.11,1.09,5,5,0,0,0,.09,1,2.13,2.13,0,0,0,.25.68,1,1,0,0,0,.39.37A1.1,1.1,0,0,0,181.23,67.48Z"/><path class="375efc4f-9289-4030-8036-a368268cc61d" d="M190.15,61.25a4,4,0,0,1,1.41.24,3.07,3.07,0,0,1,1.1.7,3.19,3.19,0,0,1,.72,1.12,4.13,4.13,0,0,1,.26,1.5,3.36,3.36,0,0,1,0,.43.69.69,0,0,1-.08.26.32.32,0,0,1-.16.13.77.77,0,0,1-.26,0h-4.49a2.19,2.19,0,0,0,.59,1.41,1.77,1.77,0,0,0,1.24.44,2.21,2.21,0,0,0,.7-.1,3.47,3.47,0,0,0,.52-.22l.42-.22a.87.87,0,0,1,.4-.1.48.48,0,0,1,.42.2l.68.83a3.46,3.46,0,0,1-.78.67A4,4,0,0,1,192,69a4.59,4.59,0,0,1-.88.2,6.49,6.49,0,0,1-.84.06,4.36,4.36,0,0,1-1.53-.27,3.52,3.52,0,0,1-1.25-.79,3.73,3.73,0,0,1-.85-1.3,4.88,4.88,0,0,1-.31-1.82,4.1,4.1,0,0,1,.27-1.48,3.59,3.59,0,0,1,2-2.05A4,4,0,0,1,190.15,61.25Zm0,1.6a1.4,1.4,0,0,0-1,.38,2,2,0,0,0-.5,1.09h2.9a2.07,2.07,0,0,0-.07-.54,1.32,1.32,0,0,0-.23-.47,1.19,1.19,0,0,0-.42-.33A1.45,1.45,0,0,0,190.2,62.85Z"/><path class="375efc4f-9289-4030-8036-a368268cc61d" d="M197,58.21h2a.9.9,0,0,1,.54.15.82.82,0,0,1,.3.4L202,64.61c.09.25.19.53.29.83s.19.62.27.94q.11-.49.24-.94c.09-.3.18-.58.27-.83l2.1-5.85a.87.87,0,0,1,.83-.55H208l-4.38,10.93h-2.29Z"/><path class="375efc4f-9289-4030-8036-a368268cc61d" d="M211.6,59.24a1.22,1.22,0,0,1-.11.52,1.37,1.37,0,0,1-.31.43,1.49,1.49,0,0,1-.45.29,1.41,1.41,0,0,1-.55.11,1.31,1.31,0,0,1-.53-.11,1.49,1.49,0,0,1-.44-.29,1.34,1.34,0,0,1-.3-.43,1.26,1.26,0,0,1-.11-.52,1.31,1.31,0,0,1,.11-.53,1.38,1.38,0,0,1,.3-.43,1.42,1.42,0,0,1,.44-.29,1.36,1.36,0,0,1,.53-.1,1.46,1.46,0,0,1,.55.1,1.41,1.41,0,0,1,.76.73A1.27,1.27,0,0,1,211.6,59.24Zm-.27,2.13v7.78H209V61.37Z"/><path class="375efc4f-9289-4030-8036-a368268cc61d" d="M218,63.07a.59.59,0,0,1-.19.2.5.5,0,0,1-.26.06.82.82,0,0,1-.33-.07l-.36-.15-.43-.15a1.94,1.94,0,0,0-.55-.07,1.16,1.16,0,0,0-.68.17.54.54,0,0,0-.24.47.47.47,0,0,0,.15.36,1.42,1.42,0,0,0,.41.25,5.56,5.56,0,0,0,.58.21l.66.22a5.93,5.93,0,0,1,.66.28,2.47,2.47,0,0,1,.58.4,1.78,1.78,0,0,1,.41.57,2,2,0,0,1,.15.81,2.66,2.66,0,0,1-.21,1.06,2.26,2.26,0,0,1-.63.84,3,3,0,0,1-1,.55,4.64,4.64,0,0,1-1.41.2,4.29,4.29,0,0,1-.79-.08,5.49,5.49,0,0,1-.77-.2,4.22,4.22,0,0,1-.69-.3,3,3,0,0,1-.54-.38l.54-.86a.78.78,0,0,1,.23-.24.65.65,0,0,1,.35-.09.74.74,0,0,1,.36.09l.35.2a2.92,2.92,0,0,0,.44.2,1.91,1.91,0,0,0,.63.09,1.59,1.59,0,0,0,.46-.06.81.81,0,0,0,.3-.15.62.62,0,0,0,.17-.22.61.61,0,0,0,.05-.25.51.51,0,0,0-.16-.38,1.39,1.39,0,0,0-.41-.26,5,5,0,0,0-.58-.2l-.66-.21a5.35,5.35,0,0,1-.66-.29,2.26,2.26,0,0,1-.58-.43,2,2,0,0,1-.41-.63,2.54,2.54,0,0,1,0-1.85,2.18,2.18,0,0,1,.57-.78,2.81,2.81,0,0,1,1-.54,4.17,4.17,0,0,1,1.35-.2,4.36,4.36,0,0,1,.81.08,4.13,4.13,0,0,1,.74.21,3.56,3.56,0,0,1,.63.32,3.08,3.08,0,0,1,.5.4Z"/><path class="375efc4f-9289-4030-8036-a368268cc61d" d="M222.48,59.24a1.22,1.22,0,0,1-.11.52,1.37,1.37,0,0,1-.31.43,1.49,1.49,0,0,1-.45.29,1.41,1.41,0,0,1-.55.11,1.31,1.31,0,0,1-.53-.11,1.49,1.49,0,0,1-.44-.29,1.34,1.34,0,0,1-.3-.43,1.26,1.26,0,0,1-.11-.52,1.31,1.31,0,0,1,.11-.53,1.38,1.38,0,0,1,.3-.43,1.42,1.42,0,0,1,.44-.29,1.36,1.36,0,0,1,.53-.1,1.46,1.46,0,0,1,.55.1,1.41,1.41,0,0,1,.76.73A1.27,1.27,0,0,1,222.48,59.24Zm-.27,2.13v7.78h-2.32V61.37Z"/><path class="375efc4f-9289-4030-8036-a368268cc61d" d="M226.81,69.26a2.74,2.74,0,0,1-1-.16,1.9,1.9,0,0,1-1.15-1.17,2.78,2.78,0,0,1-.15-.94V63h-.66a.42.42,0,0,1-.44-.46v-.91l1.24-.24.46-1.9a.46.46,0,0,1,.51-.36h1.21v2.27h1.89V63h-1.89v3.86a.73.73,0,0,0,.13.45.44.44,0,0,0,.38.18.74.74,0,0,0,.21,0l.15-.06.12-.06a.3.3,0,0,1,.13,0,.27.27,0,0,1,.17,0,.6.6,0,0,1,.13.15l.71,1.1a3.22,3.22,0,0,1-1,.51A4,4,0,0,1,226.81,69.26Z"/><path class="375efc4f-9289-4030-8036-a368268cc61d" d="M235.45,69.14a1.09,1.09,0,0,1-.5-.09.69.69,0,0,1-.28-.37l-.17-.43q-.29.25-.56.44a3.58,3.58,0,0,1-.56.32,2.76,2.76,0,0,1-.62.2,3.83,3.83,0,0,1-.72.06,3.16,3.16,0,0,1-1-.14,2,2,0,0,1-.74-.41,1.78,1.78,0,0,1-.47-.67,2.43,2.43,0,0,1-.17-.93,1.94,1.94,0,0,1,.21-.85,2.09,2.09,0,0,1,.73-.79,4.62,4.62,0,0,1,1.39-.6,8.55,8.55,0,0,1,2.21-.24V64.3a1.45,1.45,0,0,0-.28-1,1,1,0,0,0-.8-.31,2.1,2.1,0,0,0-.67.09,3,3,0,0,0-.47.2l-.4.2a1.09,1.09,0,0,1-.46.09.7.7,0,0,1-.41-.12.85.85,0,0,1-.27-.29l-.42-.73a4.74,4.74,0,0,1,1.56-.93,5.49,5.49,0,0,1,1.84-.3,3.37,3.37,0,0,1,1.27.23,2.7,2.7,0,0,1,1.56,1.61,3.48,3.48,0,0,1,.21,1.23v4.86Zm-2.67-1.42a1.84,1.84,0,0,0,.79-.16,2.39,2.39,0,0,0,.68-.51V66a6,6,0,0,0-1.15.09,2.77,2.77,0,0,0-.71.23.87.87,0,0,0-.36.31.74.74,0,0,0-.1.38.66.66,0,0,0,.22.56A1.05,1.05,0,0,0,232.78,67.72Z"/><path class="375efc4f-9289-4030-8036-a368268cc61d" d="M103.83,84.32a.51.51,0,0,1,.18,0,.5.5,0,0,1,.17.12l1,1.06a4.17,4.17,0,0,1-1.65,1.3,5.8,5.8,0,0,1-2.35.44A5.61,5.61,0,0,1,99,86.84a4.83,4.83,0,0,1-1.67-1.17,5.15,5.15,0,0,1-1.05-1.77,6.53,6.53,0,0,1-.37-2.22,5.87,5.87,0,0,1,.42-2.25,5.24,5.24,0,0,1,1.17-1.77,5.29,5.29,0,0,1,1.8-1.15,6.28,6.28,0,0,1,2.32-.41,5.92,5.92,0,0,1,1.16.11,5.61,5.61,0,0,1,1,.3,4.78,4.78,0,0,1,.87.46,4.21,4.21,0,0,1,.71.59l-.85,1.15a1.1,1.1,0,0,1-.19.19A.51.51,0,0,1,104,79a.56.56,0,0,1-.25-.06l-.26-.15-.3-.19a2.31,2.31,0,0,0-.38-.19,3.15,3.15,0,0,0-.52-.15,3.52,3.52,0,0,0-.69-.06,3.16,3.16,0,0,0-1.26.24,2.75,2.75,0,0,0-1,.7,3.23,3.23,0,0,0-.64,1.1,4.31,4.31,0,0,0-.23,1.45,4.51,4.51,0,0,0,.23,1.49,3.28,3.28,0,0,0,.62,1.1,2.65,2.65,0,0,0,.92.68,2.74,2.74,0,0,0,1.13.23,5.4,5.4,0,0,0,.63,0,2.56,2.56,0,0,0,.53-.12,2.41,2.41,0,0,0,.46-.21,3.07,3.07,0,0,0,.45-.33.89.89,0,0,1,.19-.12A.5.5,0,0,1,103.83,84.32Z"/><path class="375efc4f-9289-4030-8036-a368268cc61d" d="M106.34,87.14V79.37h1.38a1.15,1.15,0,0,1,.29,0,.49.49,0,0,1,.19.09.4.4,0,0,1,.12.17,1.56,1.56,0,0,1,.07.25l.13.73a3.82,3.82,0,0,1,1-1,2,2,0,0,1,1.16-.38,1.34,1.34,0,0,1,.85.25l-.3,1.71a.33.33,0,0,1-.12.22.4.4,0,0,1-.24.06l-.3,0a2.33,2.33,0,0,0-.44,0,1.6,1.6,0,0,0-1.44,1v4.77Z"/><path class="375efc4f-9289-4030-8036-a368268cc61d" d="M117.76,87.14a1.09,1.09,0,0,1-.5-.09.69.69,0,0,1-.28-.37l-.17-.43q-.29.25-.56.44a3.61,3.61,0,0,1-.56.32,2.76,2.76,0,0,1-.61.2,3.83,3.83,0,0,1-.72.06,3.16,3.16,0,0,1-1-.14,2,2,0,0,1-.74-.41,1.79,1.79,0,0,1-.47-.67,2.44,2.44,0,0,1-.17-.93,2,2,0,0,1,.21-.85,2.1,2.1,0,0,1,.73-.79,4.63,4.63,0,0,1,1.4-.6,8.55,8.55,0,0,1,2.21-.24V82.3a1.45,1.45,0,0,0-.28-1,1,1,0,0,0-.8-.31,2.1,2.1,0,0,0-.68.09,3,3,0,0,0-.47.2l-.4.2a1.09,1.09,0,0,1-.46.09.7.7,0,0,1-.41-.12.86.86,0,0,1-.27-.29l-.42-.73a4.74,4.74,0,0,1,1.56-.93,5.49,5.49,0,0,1,1.84-.3,3.37,3.37,0,0,1,1.27.23,2.75,2.75,0,0,1,1,.64,2.79,2.79,0,0,1,.6,1,3.49,3.49,0,0,1,.21,1.23v4.86Zm-2.67-1.42a1.84,1.84,0,0,0,.79-.16,2.39,2.39,0,0,0,.68-.51V84a6,6,0,0,0-1.15.09,2.77,2.77,0,0,0-.71.23.87.87,0,0,0-.36.31.74.74,0,0,0-.1.38.66.66,0,0,0,.22.56A1.05,1.05,0,0,0,115.09,85.72Z"/><path class="375efc4f-9289-4030-8036-a368268cc61d" d="M126.08,81.21a1.27,1.27,0,0,1-.2.2.44.44,0,0,1-.28.08.6.6,0,0,1-.31-.08l-.31-.18a2.44,2.44,0,0,0-.41-.18A1.75,1.75,0,0,0,124,81a1.63,1.63,0,0,0-.74.16,1.37,1.37,0,0,0-.51.45,2.06,2.06,0,0,0-.3.72,4.28,4.28,0,0,0-.1,1,2.91,2.91,0,0,0,.43,1.72,1.38,1.38,0,0,0,1.19.6,1.66,1.66,0,0,0,.64-.1,2,2,0,0,0,.4-.22l.3-.23a.56.56,0,0,1,.35-.11.48.48,0,0,1,.42.2l.68.83a3.68,3.68,0,0,1-.76.67,3.8,3.8,0,0,1-.81.41,4.16,4.16,0,0,1-.84.2,6.06,6.06,0,0,1-.82.06,3.5,3.5,0,0,1-1.36-.27,3.32,3.32,0,0,1-1.14-.78,3.75,3.75,0,0,1-.78-1.26,4.74,4.74,0,0,1-.29-1.71,4.8,4.8,0,0,1,.25-1.57A3.57,3.57,0,0,1,121,80.4a3.45,3.45,0,0,1,1.21-.84,4.26,4.26,0,0,1,1.68-.31,4.1,4.1,0,0,1,1.6.29,3.86,3.86,0,0,1,1.25.86Z"/><path class="375efc4f-9289-4030-8036-a368268cc61d" d="M127.76,87.14V75.92h2.33V80a3.76,3.76,0,0,1,.91-.58,2.84,2.84,0,0,1,1.17-.22,2.73,2.73,0,0,1,1.13.22,2.34,2.34,0,0,1,.83.61,2.65,2.65,0,0,1,.51.94,3.89,3.89,0,0,1,.17,1.18v4.94h-2.33V82.2a1.36,1.36,0,0,0-.26-.89.94.94,0,0,0-.77-.32,1.63,1.63,0,0,0-.72.17,2.82,2.82,0,0,0-.65.44v5.54Z"/><path class="375efc4f-9289-4030-8036-a368268cc61d" d="M141.83,87.14a1.09,1.09,0,0,1-.5-.09.69.69,0,0,1-.28-.37l-.17-.43q-.29.25-.56.44a3.61,3.61,0,0,1-.56.32,2.76,2.76,0,0,1-.61.2,3.83,3.83,0,0,1-.72.06,3.16,3.16,0,0,1-1-.14,2,2,0,0,1-.74-.41,1.79,1.79,0,0,1-.47-.67,2.44,2.44,0,0,1-.17-.93,2,2,0,0,1,.21-.85,2.1,2.1,0,0,1,.73-.79,4.63,4.63,0,0,1,1.4-.6,8.55,8.55,0,0,1,2.21-.24V82.3a1.45,1.45,0,0,0-.28-1,1,1,0,0,0-.8-.31,2.1,2.1,0,0,0-.68.09,3,3,0,0,0-.47.2l-.4.2a1.09,1.09,0,0,1-.46.09.7.7,0,0,1-.41-.12.86.86,0,0,1-.27-.29l-.42-.73a4.74,4.74,0,0,1,1.56-.93,5.49,5.49,0,0,1,1.84-.3,3.37,3.37,0,0,1,1.27.23,2.75,2.75,0,0,1,1,.64,2.79,2.79,0,0,1,.6,1,3.49,3.49,0,0,1,.21,1.23v4.86Zm-2.67-1.42a1.84,1.84,0,0,0,.79-.16,2.39,2.39,0,0,0,.68-.51V84a6,6,0,0,0-1.15.09,2.77,2.77,0,0,0-.71.23.87.87,0,0,0-.36.31.74.74,0,0,0-.1.38.66.66,0,0,0,.22.56A1.05,1.05,0,0,0,139.16,85.72Zm3.58-9.63-2,2a1.16,1.16,0,0,1-.33.24,1,1,0,0,1-.42.07h-1.4l1-1.84a1,1,0,0,1,.3-.33,1,1,0,0,1,.52-.12Z"/><path class="375efc4f-9289-4030-8036-a368268cc61d" d="M149.3,81.07a.59.59,0,0,1-.19.2.5.5,0,0,1-.26.06.82.82,0,0,1-.33-.07l-.36-.15a3.8,3.8,0,0,0-.43-.15,2,2,0,0,0-.55-.07,1.16,1.16,0,0,0-.68.17.54.54,0,0,0-.24.47.47.47,0,0,0,.15.36,1.41,1.41,0,0,0,.41.25,5.53,5.53,0,0,0,.58.21l.66.22a5.89,5.89,0,0,1,.66.28,2.48,2.48,0,0,1,.58.4,1.78,1.78,0,0,1,.41.57,2,2,0,0,1,.15.81,2.66,2.66,0,0,1-.21,1.06,2.27,2.27,0,0,1-.63.84,3,3,0,0,1-1,.55,4.63,4.63,0,0,1-1.41.2,4.29,4.29,0,0,1-.79-.08A5.49,5.49,0,0,1,145,87a4.21,4.21,0,0,1-.69-.3,3,3,0,0,1-.54-.38l.54-.86a.78.78,0,0,1,.23-.24.65.65,0,0,1,.35-.09.74.74,0,0,1,.36.09l.35.2a2.91,2.91,0,0,0,.44.2,1.91,1.91,0,0,0,.63.09,1.59,1.59,0,0,0,.46-.06.81.81,0,0,0,.3-.15.6.6,0,0,0,.22-.46.5.5,0,0,0-.16-.38,1.38,1.38,0,0,0-.41-.26,5.08,5.08,0,0,0-.58-.2l-.66-.21a5.35,5.35,0,0,1-.66-.29,2.26,2.26,0,0,1-.58-.43,2,2,0,0,1-.41-.63,2.34,2.34,0,0,1-.16-.91,2.37,2.37,0,0,1,.19-.94,2.19,2.19,0,0,1,.57-.78,2.81,2.81,0,0,1,1-.54,4.17,4.17,0,0,1,1.35-.2,4.35,4.35,0,0,1,.81.08,4.15,4.15,0,0,1,.74.21,3.57,3.57,0,0,1,.63.32,3.08,3.08,0,0,1,.5.4Z"/><path class="375efc4f-9289-4030-8036-a368268cc61d" d="M159.5,87.14a.64.64,0,0,1-.36-.1.52.52,0,0,1-.21-.29l-.18-.59a4.62,4.62,0,0,1-.49.45,3.09,3.09,0,0,1-.55.35,2.92,2.92,0,0,1-.64.22,3.27,3.27,0,0,1-.74.08,2.39,2.39,0,0,1-1.12-.27,2.59,2.59,0,0,1-.89-.78,3.93,3.93,0,0,1-.59-1.25,6.06,6.06,0,0,1-.21-1.68,5.24,5.24,0,0,1,.24-1.62,4,4,0,0,1,.68-1.29,3.15,3.15,0,0,1,1.05-.85,3,3,0,0,1,1.36-.31,2.59,2.59,0,0,1,1,.18,2.94,2.94,0,0,1,.75.46V75.92h2.32V87.14Zm-2.35-1.67a2,2,0,0,0,.46,0,1.59,1.59,0,0,0,.71-.36,2.94,2.94,0,0,0,.3-.32v-3.3A1.55,1.55,0,0,0,158,81a1.79,1.79,0,0,0-.64-.12,1.37,1.37,0,0,0-.59.13,1.2,1.2,0,0,0-.47.41,2.18,2.18,0,0,0-.31.73,4.54,4.54,0,0,0-.11,1.09,5,5,0,0,0,.09,1,2.13,2.13,0,0,0,.25.68,1,1,0,0,0,.39.37A1.1,1.1,0,0,0,157.15,85.48Z"/><path class="375efc4f-9289-4030-8036-a368268cc61d" d="M166.07,79.25a4,4,0,0,1,1.41.24,3.07,3.07,0,0,1,1.1.7,3.18,3.18,0,0,1,.72,1.12,4.12,4.12,0,0,1,.26,1.5,3.36,3.36,0,0,1,0,.43.69.69,0,0,1-.08.26.32.32,0,0,1-.16.13.77.77,0,0,1-.26,0h-4.49a2.19,2.19,0,0,0,.59,1.41,1.76,1.76,0,0,0,1.24.44,2.21,2.21,0,0,0,.7-.1,3.45,3.45,0,0,0,.52-.22L168,85a.87.87,0,0,1,.4-.1.48.48,0,0,1,.42.2l.68.83a3.46,3.46,0,0,1-.78.67,4,4,0,0,1-.85.41,4.59,4.59,0,0,1-.88.2,6.48,6.48,0,0,1-.84.06,4.36,4.36,0,0,1-1.53-.27,3.52,3.52,0,0,1-1.25-.79,3.73,3.73,0,0,1-.85-1.3,4.88,4.88,0,0,1-.31-1.82,4.1,4.1,0,0,1,.27-1.48,3.59,3.59,0,0,1,2-2.05A4,4,0,0,1,166.07,79.25Zm0,1.6a1.4,1.4,0,0,0-1,.38,2,2,0,0,0-.5,1.09h2.9a2.05,2.05,0,0,0-.07-.54,1.32,1.32,0,0,0-.23-.47,1.19,1.19,0,0,0-.42-.33A1.45,1.45,0,0,0,166.12,80.85Z"/><path class="375efc4f-9289-4030-8036-a368268cc61d" d="M176.57,87.14H174V76.21h2.55Z"/><path class="375efc4f-9289-4030-8036-a368268cc61d" d="M184.05,87.14a.64.64,0,0,1-.36-.1.52.52,0,0,1-.21-.29l-.18-.59a4.62,4.62,0,0,1-.49.45,3.09,3.09,0,0,1-.55.35,2.92,2.92,0,0,1-.64.22,3.27,3.27,0,0,1-.74.08,2.39,2.39,0,0,1-1.12-.27,2.59,2.59,0,0,1-.89-.78,3.93,3.93,0,0,1-.59-1.25,6.06,6.06,0,0,1-.21-1.68,5.24,5.24,0,0,1,.24-1.62,4,4,0,0,1,.68-1.29,3.15,3.15,0,0,1,1.05-.85,3,3,0,0,1,1.36-.31,2.59,2.59,0,0,1,1,.18,2.94,2.94,0,0,1,.75.46V75.92h2.32V87.14Zm-2.35-1.67a2,2,0,0,0,.46,0,1.59,1.59,0,0,0,.71-.36,2.94,2.94,0,0,0,.3-.32v-3.3a1.55,1.55,0,0,0-.57-.41,1.79,1.79,0,0,0-.64-.12,1.37,1.37,0,0,0-.59.13,1.2,1.2,0,0,0-.47.41,2.18,2.18,0,0,0-.31.73,4.54,4.54,0,0,0-.11,1.09,5,5,0,0,0,.09,1,2.13,2.13,0,0,0,.25.68,1,1,0,0,0,.39.37A1.1,1.1,0,0,0,181.7,85.48Z"/><path class="375efc4f-9289-4030-8036-a368268cc61d" d="M190.63,79.25a4,4,0,0,1,1.41.24,3.07,3.07,0,0,1,1.1.7,3.19,3.19,0,0,1,.72,1.12,4.13,4.13,0,0,1,.26,1.5,3.36,3.36,0,0,1,0,.43.69.69,0,0,1-.08.26.32.32,0,0,1-.16.13.77.77,0,0,1-.26,0h-4.49a2.19,2.19,0,0,0,.59,1.41,1.77,1.77,0,0,0,1.24.44,2.21,2.21,0,0,0,.7-.1,3.47,3.47,0,0,0,.52-.22l.42-.22a.87.87,0,0,1,.4-.1.48.48,0,0,1,.42.2l.68.83a3.46,3.46,0,0,1-.78.67,4,4,0,0,1-.86.41,4.59,4.59,0,0,1-.88.2,6.49,6.49,0,0,1-.84.06A4.36,4.36,0,0,1,189.2,87a3.52,3.52,0,0,1-1.25-.79,3.73,3.73,0,0,1-.85-1.3,4.88,4.88,0,0,1-.31-1.82,4.1,4.1,0,0,1,.27-1.48,3.59,3.59,0,0,1,2-2.05A4,4,0,0,1,190.63,79.25Zm0,1.6a1.4,1.4,0,0,0-1,.38,2,2,0,0,0-.5,1.09H192a2.07,2.07,0,0,0-.07-.54,1.32,1.32,0,0,0-.23-.47,1.19,1.19,0,0,0-.42-.33A1.45,1.45,0,0,0,190.67,80.85Z"/><path class="375efc4f-9289-4030-8036-a368268cc61d" d="M195.46,87.14V79.37h1.44a.64.64,0,0,1,.36.1.52.52,0,0,1,.21.29l.13.45a6,6,0,0,1,.46-.39,2.7,2.7,0,0,1,.51-.3,3,3,0,0,1,.59-.2,3.17,3.17,0,0,1,.69-.07,2.73,2.73,0,0,1,1.13.22,2.34,2.34,0,0,1,.83.61,2.64,2.64,0,0,1,.51.94,3.89,3.89,0,0,1,.17,1.18v4.94h-2.33V82.2a1.35,1.35,0,0,0-.26-.89.94.94,0,0,0-.77-.32,1.63,1.63,0,0,0-.72.17,2.83,2.83,0,0,0-.64.44v5.54Z"/><path class="375efc4f-9289-4030-8036-a368268cc61d" d="M206.88,87.26a2.74,2.74,0,0,1-1-.16,1.89,1.89,0,0,1-1.15-1.17,2.76,2.76,0,0,1-.15-.94V81h-.66a.42.42,0,0,1-.43-.46v-.91l1.24-.24.46-1.9a.46.46,0,0,1,.51-.36h1.21v2.27h1.89V81h-1.89v3.86a.73.73,0,0,0,.13.45.44.44,0,0,0,.38.18.74.74,0,0,0,.21,0l.15-.06.12-.06a.3.3,0,0,1,.13,0,.27.27,0,0,1,.17,0,.62.62,0,0,1,.13.15l.71,1.1a3.21,3.21,0,0,1-1,.51A4,4,0,0,1,206.88,87.26Z"/><path class="375efc4f-9289-4030-8036-a368268cc61d" d="M212.82,77.24a1.22,1.22,0,0,1-.11.52,1.37,1.37,0,0,1-.31.43,1.5,1.5,0,0,1-.45.29,1.41,1.41,0,0,1-.55.11,1.31,1.31,0,0,1-.53-.11,1.47,1.47,0,0,1-.44-.29,1.35,1.35,0,0,1-.3-.43,1.26,1.26,0,0,1-.11-.52,1.31,1.31,0,0,1,.11-.53,1.39,1.39,0,0,1,.3-.43,1.4,1.4,0,0,1,.44-.29,1.36,1.36,0,0,1,.53-.1,1.47,1.47,0,0,1,.55.1,1.42,1.42,0,0,1,.45.29,1.41,1.41,0,0,1,.31.43A1.27,1.27,0,0,1,212.82,77.24Zm-.27,2.13v7.78h-2.33V79.37Z"/><path class="375efc4f-9289-4030-8036-a368268cc61d" d="M214.77,87.14V81l-.51-.11a1.06,1.06,0,0,1-.42-.19.45.45,0,0,1-.16-.37v-.92h1.1v-.11a3.64,3.64,0,0,1,.24-1.33,2.84,2.84,0,0,1,.75-1.09,3.69,3.69,0,0,1,1.3-.73,5.87,5.87,0,0,1,1.89-.27c.22,0,.46,0,.7,0a4.19,4.19,0,0,1,.62.1l-.08,1.18a.26.26,0,0,1-.19.25,1.11,1.11,0,0,1-.37.06,5.76,5.76,0,0,0-1.29.12,2,2,0,0,0-.81.36,1.24,1.24,0,0,0-.41.59,2.57,2.57,0,0,0-.12.81v0H222v7.76h-2.33V81H217.1v6.17Z"/><path class="375efc4f-9289-4030-8036-a368268cc61d" d="M229.47,81.21a1.23,1.23,0,0,1-.2.2.44.44,0,0,1-.28.08.6.6,0,0,1-.31-.08l-.31-.18A2.46,2.46,0,0,0,228,81a1.76,1.76,0,0,0-.58-.08,1.62,1.62,0,0,0-.74.16,1.36,1.36,0,0,0-.51.45,2.05,2.05,0,0,0-.3.72,4.25,4.25,0,0,0-.1,1,2.91,2.91,0,0,0,.43,1.72,1.39,1.39,0,0,0,1.19.6,1.66,1.66,0,0,0,.64-.1,1.93,1.93,0,0,0,.4-.22l.3-.23a.56.56,0,0,1,.35-.11.48.48,0,0,1,.42.2l.68.83a3.69,3.69,0,0,1-.76.67,3.79,3.79,0,0,1-.81.41,4.16,4.16,0,0,1-.84.2,6,6,0,0,1-.82.06,3.5,3.5,0,0,1-1.36-.27,3.32,3.32,0,0,1-1.14-.78,3.76,3.76,0,0,1-.78-1.26,4.74,4.74,0,0,1-.29-1.71,4.79,4.79,0,0,1,.25-1.57,3.57,3.57,0,0,1,.74-1.27,3.45,3.45,0,0,1,1.21-.84,4.26,4.26,0,0,1,1.68-.31,4.1,4.1,0,0,1,1.6.29,3.86,3.86,0,0,1,1.25.86Z"/><path class="375efc4f-9289-4030-8036-a368268cc61d" d="M236.52,87.14a1.09,1.09,0,0,1-.5-.09.69.69,0,0,1-.28-.37l-.17-.43q-.29.25-.56.44a3.58,3.58,0,0,1-.56.32,2.76,2.76,0,0,1-.62.2,3.83,3.83,0,0,1-.72.06,3.16,3.16,0,0,1-1-.14,2,2,0,0,1-.74-.41,1.78,1.78,0,0,1-.47-.67,2.43,2.43,0,0,1-.17-.93,1.94,1.94,0,0,1,.21-.85,2.09,2.09,0,0,1,.73-.79,4.62,4.62,0,0,1,1.39-.6,8.55,8.55,0,0,1,2.21-.24V82.3a1.45,1.45,0,0,0-.28-1,1,1,0,0,0-.8-.31,2.1,2.1,0,0,0-.67.09,3,3,0,0,0-.47.2l-.4.2a1.09,1.09,0,0,1-.46.09.7.7,0,0,1-.41-.12.85.85,0,0,1-.27-.29l-.42-.73a4.74,4.74,0,0,1,1.56-.93,5.49,5.49,0,0,1,1.84-.3,3.37,3.37,0,0,1,1.27.23,2.7,2.7,0,0,1,1.56,1.61,3.48,3.48,0,0,1,.21,1.23v4.86Zm-2.67-1.42a1.84,1.84,0,0,0,.79-.16,2.39,2.39,0,0,0,.68-.51V84a6,6,0,0,0-1.15.09,2.77,2.77,0,0,0-.71.23.87.87,0,0,0-.36.31.74.74,0,0,0-.1.38.66.66,0,0,0,.22.56A1.05,1.05,0,0,0,233.85,85.72Z"/><path class="375efc4f-9289-4030-8036-a368268cc61d" d="M241.41,88.72a.77.77,0,0,1,.22,0,1,1,0,0,0,.26,0,.42.42,0,0,0,.28-.07.2.2,0,0,0,.08-.15c0-.11-.08-.18-.23-.24a4.63,4.63,0,0,0-.78-.15l.29-1a3.28,3.28,0,0,1-1.1-.44,3.37,3.37,0,0,1-.9-.83,3.91,3.91,0,0,1-.6-1.17,4.88,4.88,0,0,1-.22-1.5,4.79,4.79,0,0,1,.25-1.57,3.57,3.57,0,0,1,.74-1.27,3.45,3.45,0,0,1,1.21-.84,4.26,4.26,0,0,1,1.68-.31,4.1,4.1,0,0,1,1.6.29,3.86,3.86,0,0,1,1.25.86l-.62.82a1.23,1.23,0,0,1-.2.2.44.44,0,0,1-.28.08.6.6,0,0,1-.31-.08l-.31-.18a2.46,2.46,0,0,0-.41-.18,1.76,1.76,0,0,0-.58-.08,1.62,1.62,0,0,0-.74.16,1.36,1.36,0,0,0-.51.45,2.05,2.05,0,0,0-.3.72,4.25,4.25,0,0,0-.1,1,2.91,2.91,0,0,0,.43,1.72,1.39,1.39,0,0,0,1.19.6,1.66,1.66,0,0,0,.64-.1,1.93,1.93,0,0,0,.4-.22l.3-.23a.56.56,0,0,1,.35-.11.48.48,0,0,1,.42.2l.68.83a3.61,3.61,0,0,1-1.23.94,4,4,0,0,1-.66.24,4.59,4.59,0,0,1-.66.12l-.07.24a2.67,2.67,0,0,1,.56.21,1.32,1.32,0,0,1,.36.26.85.85,0,0,1,.19.31,1.08,1.08,0,0,1,.06.35.81.81,0,0,1-.15.47,1.22,1.22,0,0,1-.41.36,2.23,2.23,0,0,1-.63.23,3.74,3.74,0,0,1-.82.08,4.82,4.82,0,0,1-.57,0l-.54-.09.21-.71A.24.24,0,0,1,241.41,88.72Z"/><path class="375efc4f-9289-4030-8036-a368268cc61d" d="M251.9,87.14a1.09,1.09,0,0,1-.5-.09.68.68,0,0,1-.28-.37l-.17-.43q-.29.25-.56.44a3.64,3.64,0,0,1-.56.32,2.77,2.77,0,0,1-.61.2,3.83,3.83,0,0,1-.72.06,3.16,3.16,0,0,1-1-.14,2,2,0,0,1-.74-.41,1.8,1.8,0,0,1-.47-.67,2.45,2.45,0,0,1-.17-.93,2,2,0,0,1,.21-.85,2.1,2.1,0,0,1,.73-.79,4.64,4.64,0,0,1,1.4-.6,8.55,8.55,0,0,1,2.21-.24V82.3a1.45,1.45,0,0,0-.28-1,1,1,0,0,0-.8-.31,2.1,2.1,0,0,0-.68.09,3,3,0,0,0-.47.2l-.4.2a1.09,1.09,0,0,1-.46.09.7.7,0,0,1-.41-.12.86.86,0,0,1-.27-.29l-.42-.73a4.74,4.74,0,0,1,1.56-.93,5.49,5.49,0,0,1,1.84-.3,3.37,3.37,0,0,1,1.27.23,2.75,2.75,0,0,1,1,.64,2.81,2.81,0,0,1,.6,1,3.5,3.5,0,0,1,.21,1.23v4.86Zm-1.27-10.4a.44.44,0,0,0,.29-.09.52.52,0,0,0,.11-.4h1.41a2.61,2.61,0,0,1-.13.85,1.94,1.94,0,0,1-.36.64,1.59,1.59,0,0,1-.55.41,1.64,1.64,0,0,1-.68.14,1.52,1.52,0,0,1-.52-.09,3.83,3.83,0,0,1-.45-.19l-.37-.19a.67.67,0,0,0-.3-.09.39.39,0,0,0-.29.1.58.58,0,0,0-.11.41h-1.42a2.53,2.53,0,0,1,.13-.85,2,2,0,0,1,.37-.65,1.6,1.6,0,0,1,.55-.42,1.58,1.58,0,0,1,.67-.15,1.55,1.55,0,0,1,.52.09,3.5,3.5,0,0,1,.45.19l.37.19A.68.68,0,0,0,250.62,76.74Zm-1.4,9a1.84,1.84,0,0,0,.79-.16,2.38,2.38,0,0,0,.68-.51V84a6,6,0,0,0-1.15.09,2.76,2.76,0,0,0-.71.23.87.87,0,0,0-.36.31.74.74,0,0,0-.1.38.66.66,0,0,0,.22.56A1.06,1.06,0,0,0,249.23,85.72Z"/><path class="375efc4f-9289-4030-8036-a368268cc61d" d="M258.08,79.25a4.5,4.5,0,0,1,1.61.28,3.48,3.48,0,0,1,2.06,2.05,4.53,4.53,0,0,1,.29,1.66,4.61,4.61,0,0,1-.29,1.68,3.6,3.6,0,0,1-.81,1.27,3.55,3.55,0,0,1-1.25.8,4.44,4.44,0,0,1-1.61.28,4.49,4.49,0,0,1-1.62-.28,3.62,3.62,0,0,1-1.26-.8,3.55,3.55,0,0,1-.82-1.27,4.61,4.61,0,0,1-.29-1.68,4.53,4.53,0,0,1,.29-1.66,3.52,3.52,0,0,1,.82-1.26,3.62,3.62,0,0,1,1.26-.79A4.55,4.55,0,0,1,258.08,79.25Zm0,6.29a1.32,1.32,0,0,0,1.18-.57,4.09,4.09,0,0,0,0-3.44,1.32,1.32,0,0,0-1.18-.56,1.36,1.36,0,0,0-1.21.56,4.05,4.05,0,0,0,0,3.44A1.35,1.35,0,0,0,258.08,85.54Z"/><path class="375efc4f-9289-4030-8036-a368268cc61d" d="M157.18,102.32a.51.51,0,0,1,.18,0,.5.5,0,0,1,.17.12l1,1.06a4.17,4.17,0,0,1-1.65,1.3,5.8,5.8,0,0,1-2.35.44,5.61,5.61,0,0,1-2.23-.42,4.83,4.83,0,0,1-1.67-1.17,5.15,5.15,0,0,1-1.05-1.77,6.53,6.53,0,0,1-.37-2.22,5.87,5.87,0,0,1,.42-2.25,5.24,5.24,0,0,1,1.17-1.77,5.29,5.29,0,0,1,1.8-1.15,6.28,6.28,0,0,1,2.32-.41,5.92,5.92,0,0,1,1.16.11,5.61,5.61,0,0,1,1,.3A4.78,4.78,0,0,1,158,95a4.21,4.21,0,0,1,.71.59l-.85,1.15a1.1,1.1,0,0,1-.19.19.51.51,0,0,1-.31.09.56.56,0,0,1-.25-.06l-.26-.15-.3-.19a2.31,2.31,0,0,0-.38-.19,3.15,3.15,0,0,0-.52-.15,3.52,3.52,0,0,0-.69-.06,3.16,3.16,0,0,0-1.26.24,2.75,2.75,0,0,0-1,.7,3.23,3.23,0,0,0-.64,1.1,4.31,4.31,0,0,0-.23,1.45,4.51,4.51,0,0,0,.23,1.49,3.28,3.28,0,0,0,.62,1.1,2.65,2.65,0,0,0,.92.68,2.74,2.74,0,0,0,1.13.23,5.4,5.4,0,0,0,.63,0,2.56,2.56,0,0,0,.53-.12,2.41,2.41,0,0,0,.46-.21,3.07,3.07,0,0,0,.45-.33.89.89,0,0,1,.19-.12A.5.5,0,0,1,157.18,102.32Z"/><path class="375efc4f-9289-4030-8036-a368268cc61d" d="M165.06,105.14a1.09,1.09,0,0,1-.5-.09.69.69,0,0,1-.28-.37l-.17-.43q-.29.25-.56.44a3.61,3.61,0,0,1-.56.32,2.76,2.76,0,0,1-.61.2,3.83,3.83,0,0,1-.72.06,3.16,3.16,0,0,1-1-.14,2,2,0,0,1-.74-.41,1.79,1.79,0,0,1-.47-.67,2.44,2.44,0,0,1-.17-.93,2,2,0,0,1,.21-.85,2.1,2.1,0,0,1,.73-.79,4.63,4.63,0,0,1,1.4-.6,8.55,8.55,0,0,1,2.21-.24v-.33a1.45,1.45,0,0,0-.28-1,1,1,0,0,0-.8-.31,2.1,2.1,0,0,0-.68.09,3,3,0,0,0-.47.2l-.4.2a1.09,1.09,0,0,1-.46.09.7.7,0,0,1-.41-.12.86.86,0,0,1-.27-.29l-.42-.73a4.74,4.74,0,0,1,1.56-.93,5.49,5.49,0,0,1,1.84-.3,3.37,3.37,0,0,1,1.27.23,2.75,2.75,0,0,1,1,.64,2.79,2.79,0,0,1,.6,1,3.49,3.49,0,0,1,.21,1.23v4.86Zm-2.67-1.42a1.84,1.84,0,0,0,.79-.16,2.39,2.39,0,0,0,.68-.51V102a6,6,0,0,0-1.15.09,2.77,2.77,0,0,0-.71.23.87.87,0,0,0-.36.31.74.74,0,0,0-.1.38.66.66,0,0,0,.22.56A1.05,1.05,0,0,0,162.39,103.72Z"/><path class="375efc4f-9289-4030-8036-a368268cc61d" d="M167.77,105.14V97.37h1.38a1.15,1.15,0,0,1,.29,0,.49.49,0,0,1,.19.09.4.4,0,0,1,.12.17,1.56,1.56,0,0,1,.07.25l.13.73a3.82,3.82,0,0,1,1-1,2,2,0,0,1,1.16-.38,1.34,1.34,0,0,1,.85.25l-.3,1.71a.33.33,0,0,1-.12.22.4.4,0,0,1-.24.06l-.3,0a2.33,2.33,0,0,0-.44,0,1.6,1.6,0,0,0-1.44,1v4.77Z"/><path class="375efc4f-9289-4030-8036-a368268cc61d" d="M176.7,105.26a2.74,2.74,0,0,1-1-.16,1.89,1.89,0,0,1-1.15-1.17,2.77,2.77,0,0,1-.15-.94V99h-.66a.42.42,0,0,1-.44-.46v-.91l1.24-.24.46-1.9a.46.46,0,0,1,.51-.36h1.21v2.27h1.89V99h-1.89v3.86a.73.73,0,0,0,.13.45.44.44,0,0,0,.38.18.74.74,0,0,0,.21,0l.15-.06.12-.06a.3.3,0,0,1,.13,0,.27.27,0,0,1,.17,0,.61.61,0,0,1,.13.15l.71,1.1a3.22,3.22,0,0,1-1,.51A4,4,0,0,1,176.7,105.26Z"/><path class="375efc4f-9289-4030-8036-a368268cc61d" d="M185.34,105.14a1.09,1.09,0,0,1-.5-.09.69.69,0,0,1-.28-.37l-.17-.43q-.29.25-.56.44a3.61,3.61,0,0,1-.56.32,2.76,2.76,0,0,1-.61.2,3.83,3.83,0,0,1-.72.06,3.16,3.16,0,0,1-1-.14,2,2,0,0,1-.74-.41,1.79,1.79,0,0,1-.47-.67,2.44,2.44,0,0,1-.17-.93,2,2,0,0,1,.21-.85,2.1,2.1,0,0,1,.73-.79,4.63,4.63,0,0,1,1.4-.6,8.55,8.55,0,0,1,2.21-.24v-.33a1.45,1.45,0,0,0-.28-1,1,1,0,0,0-.8-.31,2.1,2.1,0,0,0-.68.09,3,3,0,0,0-.47.2l-.4.2a1.09,1.09,0,0,1-.46.09.7.7,0,0,1-.41-.12.86.86,0,0,1-.27-.29l-.42-.73a4.74,4.74,0,0,1,1.56-.93,5.49,5.49,0,0,1,1.84-.3,3.37,3.37,0,0,1,1.27.23,2.75,2.75,0,0,1,1,.64,2.79,2.79,0,0,1,.6,1,3.49,3.49,0,0,1,.21,1.23v4.86Zm-2.67-1.42a1.84,1.84,0,0,0,.79-.16,2.39,2.39,0,0,0,.68-.51V102a6,6,0,0,0-1.15.09,2.77,2.77,0,0,0-.71.23.87.87,0,0,0-.36.31.74.74,0,0,0-.1.38.66.66,0,0,0,.22.56A1.05,1.05,0,0,0,182.67,103.72Z"/><path class="375efc4f-9289-4030-8036-a368268cc61d" d="M193.86,98.3a1.2,1.2,0,0,1-.09.46,1.67,1.67,0,0,1-.21.38l-3.25,4.29h3.47v1.72h-6.15v-.95a1.07,1.07,0,0,1,.08-.36,1.69,1.69,0,0,1,.22-.41l3.28-4.34h-3.37V97.37h6Z"/><path class="375efc4f-9289-4030-8036-a368268cc61d" d="M198.54,97.25a4,4,0,0,1,1.41.24,3.08,3.08,0,0,1,1.1.7,3.17,3.17,0,0,1,.72,1.12,4.11,4.11,0,0,1,.26,1.5,3.36,3.36,0,0,1,0,.43.68.68,0,0,1-.08.26.32.32,0,0,1-.16.13.78.78,0,0,1-.26,0H197a2.19,2.19,0,0,0,.59,1.41,1.76,1.76,0,0,0,1.24.44,2.2,2.2,0,0,0,.7-.1,3.44,3.44,0,0,0,.52-.22l.42-.22a.86.86,0,0,1,.4-.1.48.48,0,0,1,.42.2l.67.83a3.46,3.46,0,0,1-.78.67,4,4,0,0,1-.85.41,4.6,4.6,0,0,1-.88.2,6.48,6.48,0,0,1-.84.06,4.36,4.36,0,0,1-1.53-.27,3.52,3.52,0,0,1-1.25-.79,3.73,3.73,0,0,1-.85-1.3,4.87,4.87,0,0,1-.31-1.82,4.1,4.1,0,0,1,.27-1.48,3.58,3.58,0,0,1,2-2.05A4,4,0,0,1,198.54,97.25Zm0,1.6a1.4,1.4,0,0,0-1,.38,2,2,0,0,0-.5,1.09h2.9a2,2,0,0,0-.07-.54,1.32,1.32,0,0,0-.23-.47,1.18,1.18,0,0,0-.42-.33A1.45,1.45,0,0,0,198.58,98.85Z"/><path class="375efc4f-9289-4030-8036-a368268cc61d" d="M208.12,99.07a.59.59,0,0,1-.19.2.5.5,0,0,1-.26.06.82.82,0,0,1-.33-.07l-.36-.15-.43-.15a1.94,1.94,0,0,0-.55-.07,1.16,1.16,0,0,0-.68.17.54.54,0,0,0-.24.47.47.47,0,0,0,.15.36,1.42,1.42,0,0,0,.41.25,5.56,5.56,0,0,0,.58.21l.66.22a5.93,5.93,0,0,1,.66.28,2.47,2.47,0,0,1,.58.4,1.78,1.78,0,0,1,.41.57,2,2,0,0,1,.15.81,2.66,2.66,0,0,1-.21,1.06,2.26,2.26,0,0,1-.63.84,3,3,0,0,1-1,.55,4.64,4.64,0,0,1-1.41.2,4.29,4.29,0,0,1-.79-.08,5.49,5.49,0,0,1-.77-.2,4.22,4.22,0,0,1-.69-.3,3,3,0,0,1-.54-.38l.54-.86a.78.78,0,0,1,.23-.24.65.65,0,0,1,.35-.09.74.74,0,0,1,.36.09l.35.2a2.92,2.92,0,0,0,.44.2,1.91,1.91,0,0,0,.63.09,1.59,1.59,0,0,0,.46-.06.81.81,0,0,0,.3-.15.62.62,0,0,0,.17-.22.61.61,0,0,0,.05-.25.51.51,0,0,0-.16-.38,1.39,1.39,0,0,0-.41-.26,5,5,0,0,0-.58-.2l-.66-.21a5.35,5.35,0,0,1-.66-.29,2.26,2.26,0,0,1-.58-.43,2,2,0,0,1-.41-.63,2.54,2.54,0,0,1,0-1.85,2.18,2.18,0,0,1,.57-.78,2.81,2.81,0,0,1,1-.54,4.17,4.17,0,0,1,1.35-.2,4.36,4.36,0,0,1,.81.08,4.13,4.13,0,0,1,.74.21,3.56,3.56,0,0,1,.63.32,3.08,3.08,0,0,1,.5.4Z"/><path class="375efc4f-9289-4030-8036-a368268cc61d" d="M90.2,112.21v2H85.72v2.77h3.73v2H85.72v4.25H83.17V112.21Z"/><path class="375efc4f-9289-4030-8036-a368268cc61d" d="M96.89,123.14a1.09,1.09,0,0,1-.5-.09.69.69,0,0,1-.28-.37l-.17-.43q-.29.25-.56.44a3.61,3.61,0,0,1-.56.32,2.76,2.76,0,0,1-.61.2,3.83,3.83,0,0,1-.72.06,3.16,3.16,0,0,1-1-.14,2,2,0,0,1-.74-.41,1.79,1.79,0,0,1-.47-.67,2.44,2.44,0,0,1-.17-.93,2,2,0,0,1,.21-.85,2.1,2.1,0,0,1,.73-.79,4.63,4.63,0,0,1,1.4-.6,8.55,8.55,0,0,1,2.21-.24v-.33a1.45,1.45,0,0,0-.28-1,1,1,0,0,0-.8-.31,2.1,2.1,0,0,0-.68.09,3,3,0,0,0-.47.2l-.4.2a1.09,1.09,0,0,1-.46.09.7.7,0,0,1-.41-.12.86.86,0,0,1-.27-.29l-.42-.73a4.74,4.74,0,0,1,1.56-.93,5.49,5.49,0,0,1,1.84-.3,3.37,3.37,0,0,1,1.27.23,2.75,2.75,0,0,1,1,.64,2.79,2.79,0,0,1,.6,1,3.49,3.49,0,0,1,.21,1.23v4.86Zm-2.67-1.42a1.84,1.84,0,0,0,.79-.16,2.39,2.39,0,0,0,.68-.51V120a6,6,0,0,0-1.15.09,2.77,2.77,0,0,0-.71.23.87.87,0,0,0-.36.31.74.74,0,0,0-.1.38.66.66,0,0,0,.22.56A1.05,1.05,0,0,0,94.22,121.72Z"/><path class="375efc4f-9289-4030-8036-a368268cc61d" d="M99.61,123.14v-7.78H101a1.15,1.15,0,0,1,.29,0,.49.49,0,0,1,.19.09.4.4,0,0,1,.12.17,1.56,1.56,0,0,1,.07.25l.13.73a3.82,3.82,0,0,1,1-1,2,2,0,0,1,1.16-.38,1.34,1.34,0,0,1,.85.25l-.3,1.71a.33.33,0,0,1-.12.22.4.4,0,0,1-.24.06l-.3,0a2.33,2.33,0,0,0-.44,0,1.6,1.6,0,0,0-1.44,1v4.77Z"/><path class="375efc4f-9289-4030-8036-a368268cc61d" d="M111.26,123.14a.64.64,0,0,1-.36-.1.52.52,0,0,1-.21-.29l-.18-.59a4.62,4.62,0,0,1-.49.45,3.09,3.09,0,0,1-.55.35,2.92,2.92,0,0,1-.64.22,3.27,3.27,0,0,1-.74.08A2.39,2.39,0,0,1,107,123a2.59,2.59,0,0,1-.89-.78,3.93,3.93,0,0,1-.59-1.25,6.06,6.06,0,0,1-.21-1.68,5.24,5.24,0,0,1,.24-1.62,4,4,0,0,1,.68-1.29,3.15,3.15,0,0,1,1.05-.85,3,3,0,0,1,1.36-.31,2.59,2.59,0,0,1,1,.18,2.94,2.94,0,0,1,.75.46v-3.94h2.32v11.23Zm-2.35-1.67a2,2,0,0,0,.46,0,1.59,1.59,0,0,0,.71-.36,2.94,2.94,0,0,0,.3-.32v-3.3a1.55,1.55,0,0,0-.57-.41,1.79,1.79,0,0,0-.64-.12,1.37,1.37,0,0,0-.59.13,1.2,1.2,0,0,0-.47.41,2.18,2.18,0,0,0-.31.73,4.54,4.54,0,0,0-.11,1.09,5,5,0,0,0,.09,1,2.13,2.13,0,0,0,.25.68,1,1,0,0,0,.39.37A1.1,1.1,0,0,0,108.91,121.48Z"/><path class="375efc4f-9289-4030-8036-a368268cc61d" d="M119.87,123.14a1.09,1.09,0,0,1-.5-.09.69.69,0,0,1-.28-.37l-.17-.43q-.29.25-.56.44a3.61,3.61,0,0,1-.56.32,2.76,2.76,0,0,1-.61.2,3.83,3.83,0,0,1-.72.06,3.16,3.16,0,0,1-1-.14,2,2,0,0,1-.74-.41,1.79,1.79,0,0,1-.47-.67,2.44,2.44,0,0,1-.17-.93,2,2,0,0,1,.21-.85,2.1,2.1,0,0,1,.73-.79,4.63,4.63,0,0,1,1.4-.6,8.55,8.55,0,0,1,2.21-.24v-.33a1.45,1.45,0,0,0-.28-1,1,1,0,0,0-.8-.31,2.1,2.1,0,0,0-.68.09,3,3,0,0,0-.47.2l-.4.2a1.09,1.09,0,0,1-.46.09.7.7,0,0,1-.41-.12.86.86,0,0,1-.27-.29l-.42-.73a4.74,4.74,0,0,1,1.56-.93,5.49,5.49,0,0,1,1.84-.3,3.37,3.37,0,0,1,1.27.23,2.75,2.75,0,0,1,1,.64,2.79,2.79,0,0,1,.6,1,3.49,3.49,0,0,1,.21,1.23v4.86Zm-2.67-1.42a1.84,1.84,0,0,0,.79-.16,2.39,2.39,0,0,0,.68-.51V120a6,6,0,0,0-1.15.09,2.77,2.77,0,0,0-.71.23.87.87,0,0,0-.36.31.74.74,0,0,0-.1.38.66.66,0,0,0,.22.56A1.05,1.05,0,0,0,117.2,121.72Z"/><path class="375efc4f-9289-4030-8036-a368268cc61d" d="M127.34,117.07a.59.59,0,0,1-.19.2.5.5,0,0,1-.26.06.82.82,0,0,1-.33-.07l-.36-.15a3.8,3.8,0,0,0-.43-.15,2,2,0,0,0-.55-.07,1.16,1.16,0,0,0-.68.17.54.54,0,0,0-.24.47.47.47,0,0,0,.15.36,1.41,1.41,0,0,0,.41.25,5.53,5.53,0,0,0,.58.21l.66.22a5.89,5.89,0,0,1,.66.28,2.48,2.48,0,0,1,.58.4,1.78,1.78,0,0,1,.41.57,2,2,0,0,1,.15.81,2.66,2.66,0,0,1-.21,1.06,2.27,2.27,0,0,1-.63.84,3,3,0,0,1-1,.55,4.63,4.63,0,0,1-1.41.2,4.29,4.29,0,0,1-.79-.08,5.49,5.49,0,0,1-.77-.2,4.21,4.21,0,0,1-.69-.3,3,3,0,0,1-.54-.38l.54-.86a.78.78,0,0,1,.23-.24.65.65,0,0,1,.35-.09.74.74,0,0,1,.36.09l.35.2a2.91,2.91,0,0,0,.44.2,1.91,1.91,0,0,0,.63.09,1.59,1.59,0,0,0,.46-.06.81.81,0,0,0,.3-.15.6.6,0,0,0,.22-.46.5.5,0,0,0-.16-.38,1.38,1.38,0,0,0-.41-.26,5.08,5.08,0,0,0-.58-.2l-.66-.21a5.35,5.35,0,0,1-.66-.29,2.26,2.26,0,0,1-.58-.43,2,2,0,0,1-.41-.63,2.34,2.34,0,0,1-.16-.91,2.37,2.37,0,0,1,.19-.94,2.19,2.19,0,0,1,.57-.78,2.81,2.81,0,0,1,1-.54,4.17,4.17,0,0,1,1.35-.2,4.35,4.35,0,0,1,.81.08,4.15,4.15,0,0,1,.74.21,3.57,3.57,0,0,1,.63.32,3.08,3.08,0,0,1,.5.4Z"/><path class="375efc4f-9289-4030-8036-a368268cc61d" d="M128.8,121.82a1.11,1.11,0,0,1,.09-.45,1.05,1.05,0,0,1,.26-.36,1.28,1.28,0,0,1,.4-.24,1.4,1.4,0,0,1,.51-.09,1.37,1.37,0,0,1,.58.12,1.18,1.18,0,0,1,.41.32,1.29,1.29,0,0,1,.24.46,1.85,1.85,0,0,1,.08.54,3,3,0,0,1-.12.8,4,4,0,0,1-.36.85,5.12,5.12,0,0,1-.59.84,4.87,4.87,0,0,1-.81.75l-.4-.36a.79.79,0,0,1-.12-.15.35.35,0,0,1,0-.18.32.32,0,0,1,.05-.16.7.7,0,0,1,.13-.15l.21-.22.24-.29a2.64,2.64,0,0,0,.22-.34,1.7,1.7,0,0,0,.15-.4,1.3,1.3,0,0,1-.47-.13,1.12,1.12,0,0,1-.36-.28,1.32,1.32,0,0,1-.23-.39A1.38,1.38,0,0,1,128.8,121.82Z"/><path class="375efc4f-9289-4030-8036-a368268cc61d" d="M143,120.32a.51.51,0,0,1,.18,0,.5.5,0,0,1,.17.12l1,1.06a4.17,4.17,0,0,1-1.65,1.3,5.8,5.8,0,0,1-2.35.44,5.61,5.61,0,0,1-2.23-.42,4.83,4.83,0,0,1-1.67-1.17,5.15,5.15,0,0,1-1.05-1.77,6.53,6.53,0,0,1-.37-2.22,5.87,5.87,0,0,1,.42-2.25,5.24,5.24,0,0,1,1.17-1.77,5.29,5.29,0,0,1,1.8-1.15,6.28,6.28,0,0,1,2.32-.41,5.92,5.92,0,0,1,1.16.11,5.61,5.61,0,0,1,1,.3,4.78,4.78,0,0,1,.87.46,4.21,4.21,0,0,1,.71.59l-.85,1.15a1.1,1.1,0,0,1-.19.19.51.51,0,0,1-.31.09.56.56,0,0,1-.25-.06l-.26-.15-.3-.19a2.31,2.31,0,0,0-.38-.19,3.15,3.15,0,0,0-.52-.15,3.52,3.52,0,0,0-.69-.06,3.16,3.16,0,0,0-1.26.24,2.75,2.75,0,0,0-1,.7,3.23,3.23,0,0,0-.64,1.1,4.31,4.31,0,0,0-.23,1.45,4.51,4.51,0,0,0,.23,1.49,3.28,3.28,0,0,0,.62,1.1,2.65,2.65,0,0,0,.92.68,2.74,2.74,0,0,0,1.13.23,5.4,5.4,0,0,0,.63,0,2.56,2.56,0,0,0,.53-.12,2.41,2.41,0,0,0,.46-.21,3.07,3.07,0,0,0,.45-.33.89.89,0,0,1,.19-.12A.5.5,0,0,1,143,120.32Z"/><path class="375efc4f-9289-4030-8036-a368268cc61d" d="M150.85,123.14a1.09,1.09,0,0,1-.5-.09.69.69,0,0,1-.28-.37l-.17-.43q-.29.25-.56.44a3.61,3.61,0,0,1-.56.32,2.76,2.76,0,0,1-.61.2,3.83,3.83,0,0,1-.72.06,3.16,3.16,0,0,1-1-.14,2,2,0,0,1-.74-.41,1.79,1.79,0,0,1-.47-.67,2.44,2.44,0,0,1-.17-.93,2,2,0,0,1,.21-.85,2.1,2.1,0,0,1,.73-.79,4.63,4.63,0,0,1,1.4-.6,8.55,8.55,0,0,1,2.21-.24v-.33a1.45,1.45,0,0,0-.28-1,1,1,0,0,0-.8-.31,2.1,2.1,0,0,0-.68.09,3,3,0,0,0-.47.2l-.4.2a1.09,1.09,0,0,1-.46.09.7.7,0,0,1-.41-.12.86.86,0,0,1-.27-.29l-.42-.73a4.74,4.74,0,0,1,1.56-.93,5.49,5.49,0,0,1,1.84-.3,3.37,3.37,0,0,1,1.27.23,2.75,2.75,0,0,1,1,.64,2.79,2.79,0,0,1,.6,1,3.49,3.49,0,0,1,.21,1.23v4.86Zm-2.67-1.42a1.84,1.84,0,0,0,.79-.16,2.39,2.39,0,0,0,.68-.51V120a6,6,0,0,0-1.15.09,2.77,2.77,0,0,0-.71.23.87.87,0,0,0-.36.31.74.74,0,0,0-.1.38.66.66,0,0,0,.22.56A1.05,1.05,0,0,0,148.18,121.72Z"/><path class="375efc4f-9289-4030-8036-a368268cc61d" d="M153.56,123.14v-7.78H155a.64.64,0,0,1,.36.1.52.52,0,0,1,.21.29l.13.42a4.28,4.28,0,0,1,.4-.37,2.59,2.59,0,0,1,.45-.29,2.45,2.45,0,0,1,1.14-.27,1.83,1.83,0,0,1,1.17.36,2.27,2.27,0,0,1,.7,1A2.29,2.29,0,0,1,160,116a2.55,2.55,0,0,1,.61-.41,2.92,2.92,0,0,1,.69-.23,3.59,3.59,0,0,1,.72-.08,3.3,3.3,0,0,1,1.19.2,2.25,2.25,0,0,1,.87.58,2.48,2.48,0,0,1,.53.93,4,4,0,0,1,.18,1.25v4.94H162.5V118.2q0-1.21-1-1.21a1.06,1.06,0,0,0-.78.31,1.21,1.21,0,0,0-.31.9v4.94H158V118.2a1.33,1.33,0,0,0-.26-.94A1,1,0,0,0,157,117a1.3,1.3,0,0,0-.6.14,2.18,2.18,0,0,0-.53.38v5.63Z"/><path class="375efc4f-9289-4030-8036-a368268cc61d" d="M169.15,113.24a1.22,1.22,0,0,1-.11.52,1.37,1.37,0,0,1-.31.43,1.49,1.49,0,0,1-.45.29,1.41,1.41,0,0,1-.55.11,1.31,1.31,0,0,1-.53-.11,1.48,1.48,0,0,1-.44-.29,1.35,1.35,0,0,1-.3-.43,1.26,1.26,0,0,1-.11-.52,1.31,1.31,0,0,1,.11-.53,1.39,1.39,0,0,1,.3-.43,1.41,1.41,0,0,1,.44-.29,1.36,1.36,0,0,1,.53-.1,1.46,1.46,0,0,1,.55.1,1.42,1.42,0,0,1,.45.29,1.41,1.41,0,0,1,.31.43A1.27,1.27,0,0,1,169.15,113.24Zm-.27,2.13v7.78h-2.32v-7.78Z"/><path class="375efc4f-9289-4030-8036-a368268cc61d" d="M175.5,117.07a.59.59,0,0,1-.19.2.5.5,0,0,1-.26.06.82.82,0,0,1-.33-.07l-.36-.15a3.8,3.8,0,0,0-.43-.15,2,2,0,0,0-.55-.07,1.16,1.16,0,0,0-.68.17.54.54,0,0,0-.24.47.47.47,0,0,0,.15.36,1.41,1.41,0,0,0,.41.25,5.53,5.53,0,0,0,.58.21l.66.22a5.89,5.89,0,0,1,.66.28,2.48,2.48,0,0,1,.58.4,1.78,1.78,0,0,1,.41.57,2,2,0,0,1,.15.81,2.66,2.66,0,0,1-.21,1.06,2.27,2.27,0,0,1-.63.84,3,3,0,0,1-1,.55,4.63,4.63,0,0,1-1.41.2,4.29,4.29,0,0,1-.79-.08,5.49,5.49,0,0,1-.77-.2,4.21,4.21,0,0,1-.69-.3,3,3,0,0,1-.54-.38l.54-.86a.78.78,0,0,1,.23-.24.65.65,0,0,1,.35-.09.74.74,0,0,1,.36.09l.35.2a2.91,2.91,0,0,0,.44.2,1.91,1.91,0,0,0,.63.09,1.59,1.59,0,0,0,.46-.06.81.81,0,0,0,.3-.15.6.6,0,0,0,.22-.46.5.5,0,0,0-.16-.38,1.38,1.38,0,0,0-.41-.26,5.08,5.08,0,0,0-.58-.2l-.66-.21a5.35,5.35,0,0,1-.66-.29,2.26,2.26,0,0,1-.58-.43,2,2,0,0,1-.41-.63,2.34,2.34,0,0,1-.16-.91,2.37,2.37,0,0,1,.19-.94A2.19,2.19,0,0,1,171,116a2.81,2.81,0,0,1,1-.54,4.17,4.17,0,0,1,1.35-.2,4.35,4.35,0,0,1,.81.08,4.15,4.15,0,0,1,.74.21,3.57,3.57,0,0,1,.63.32,3.08,3.08,0,0,1,.5.4Z"/><path class="375efc4f-9289-4030-8036-a368268cc61d" d="M182.72,123.14a1.09,1.09,0,0,1-.5-.09.69.69,0,0,1-.28-.37l-.17-.43q-.29.25-.56.44a3.61,3.61,0,0,1-.56.32,2.76,2.76,0,0,1-.61.2,3.83,3.83,0,0,1-.72.06,3.16,3.16,0,0,1-1-.14,2,2,0,0,1-.74-.41,1.79,1.79,0,0,1-.47-.67,2.44,2.44,0,0,1-.17-.93,2,2,0,0,1,.21-.85,2.1,2.1,0,0,1,.73-.79,4.63,4.63,0,0,1,1.4-.6,8.55,8.55,0,0,1,2.21-.24v-.33a1.45,1.45,0,0,0-.28-1,1,1,0,0,0-.8-.31,2.1,2.1,0,0,0-.68.09,3,3,0,0,0-.47.2l-.4.2a1.09,1.09,0,0,1-.46.09.7.7,0,0,1-.41-.12.86.86,0,0,1-.27-.29l-.42-.73a4.74,4.74,0,0,1,1.56-.93,5.49,5.49,0,0,1,1.84-.3,3.37,3.37,0,0,1,1.27.23,2.75,2.75,0,0,1,1,.64,2.79,2.79,0,0,1,.6,1,3.49,3.49,0,0,1,.21,1.23v4.86Zm-2.67-1.42a1.84,1.84,0,0,0,.79-.16,2.39,2.39,0,0,0,.68-.51V120a6,6,0,0,0-1.15.09,2.77,2.77,0,0,0-.71.23.87.87,0,0,0-.36.31.74.74,0,0,0-.1.38.66.66,0,0,0,.22.56A1.05,1.05,0,0,0,180.05,121.72Z"/><path class="375efc4f-9289-4030-8036-a368268cc61d" d="M190.19,117.07a.6.6,0,0,1-.19.2.5.5,0,0,1-.26.06.82.82,0,0,1-.33-.07l-.36-.15a3.76,3.76,0,0,0-.43-.15,2,2,0,0,0-.55-.07,1.16,1.16,0,0,0-.68.17.54.54,0,0,0-.24.47.47.47,0,0,0,.15.36,1.41,1.41,0,0,0,.41.25,5.51,5.51,0,0,0,.58.21l.66.22a5.85,5.85,0,0,1,.66.28,2.48,2.48,0,0,1,.58.4,1.77,1.77,0,0,1,.41.57,2,2,0,0,1,.15.81,2.66,2.66,0,0,1-.21,1.06,2.28,2.28,0,0,1-.63.84,3,3,0,0,1-1,.55,4.63,4.63,0,0,1-1.41.2,4.29,4.29,0,0,1-.79-.08,5.49,5.49,0,0,1-.77-.2,4.21,4.21,0,0,1-.69-.3,3,3,0,0,1-.54-.38l.54-.86a.78.78,0,0,1,.23-.24.65.65,0,0,1,.35-.09.74.74,0,0,1,.36.09l.35.2a2.91,2.91,0,0,0,.44.2,1.91,1.91,0,0,0,.63.09,1.6,1.6,0,0,0,.46-.06.82.82,0,0,0,.3-.15.6.6,0,0,0,.22-.46.5.5,0,0,0-.16-.38,1.37,1.37,0,0,0-.41-.26,5.09,5.09,0,0,0-.58-.2l-.66-.21a5.35,5.35,0,0,1-.66-.29,2.26,2.26,0,0,1-.58-.43,2,2,0,0,1-.41-.63,2.34,2.34,0,0,1-.16-.91,2.37,2.37,0,0,1,.19-.94,2.19,2.19,0,0,1,.57-.78,2.81,2.81,0,0,1,1-.54,4.17,4.17,0,0,1,1.35-.2,4.35,4.35,0,0,1,.81.08,4.17,4.17,0,0,1,.74.21,3.59,3.59,0,0,1,.63.32,3.09,3.09,0,0,1,.5.4Z"/><path class="375efc4f-9289-4030-8036-a368268cc61d" d="M198.26,115.25a4,4,0,0,1,1.41.24,3.08,3.08,0,0,1,1.1.7,3.17,3.17,0,0,1,.72,1.12,4.11,4.11,0,0,1,.26,1.5,3.36,3.36,0,0,1,0,.43.68.68,0,0,1-.08.26.32.32,0,0,1-.16.13.78.78,0,0,1-.26,0h-4.49a2.19,2.19,0,0,0,.59,1.41,1.76,1.76,0,0,0,1.24.44,2.2,2.2,0,0,0,.7-.1,3.44,3.44,0,0,0,.52-.22l.42-.22a.86.86,0,0,1,.4-.1.48.48,0,0,1,.42.2l.67.83a3.46,3.46,0,0,1-.78.67,4,4,0,0,1-.85.41,4.6,4.6,0,0,1-.88.2,6.48,6.48,0,0,1-.84.06,4.36,4.36,0,0,1-1.53-.27,3.52,3.52,0,0,1-1.25-.79,3.73,3.73,0,0,1-.85-1.3,4.87,4.87,0,0,1-.31-1.82,4.1,4.1,0,0,1,.27-1.48,3.58,3.58,0,0,1,2-2.05A4,4,0,0,1,198.26,115.25Zm0,1.6a1.4,1.4,0,0,0-1,.38,2,2,0,0,0-.5,1.09h2.9a2,2,0,0,0-.07-.54,1.32,1.32,0,0,0-.23-.47,1.18,1.18,0,0,0-.42-.33A1.45,1.45,0,0,0,198.3,116.85Z"/><path class="375efc4f-9289-4030-8036-a368268cc61d" d="M213.33,120.32a.5.5,0,0,1,.18,0,.49.49,0,0,1,.17.12l1,1.06a4.17,4.17,0,0,1-1.65,1.3,5.8,5.8,0,0,1-2.35.44,5.61,5.61,0,0,1-2.23-.42,4.83,4.83,0,0,1-1.67-1.17,5.14,5.14,0,0,1-1.05-1.77,6.53,6.53,0,0,1-.37-2.22,5.88,5.88,0,0,1,.42-2.25,5.17,5.17,0,0,1,3-2.92,6.28,6.28,0,0,1,2.32-.41,5.92,5.92,0,0,1,1.16.11,5.63,5.63,0,0,1,1,.3,4.79,4.79,0,0,1,.87.46,4.19,4.19,0,0,1,.71.59L214,114.7a1.1,1.1,0,0,1-.2.19.51.51,0,0,1-.31.09.56.56,0,0,1-.25-.06l-.26-.15-.3-.19a2.29,2.29,0,0,0-.38-.19,3.14,3.14,0,0,0-.52-.15,3.52,3.52,0,0,0-.69-.06,3.16,3.16,0,0,0-1.26.24,2.75,2.75,0,0,0-1,.7,3.22,3.22,0,0,0-.64,1.1,4.31,4.31,0,0,0-.23,1.45,4.51,4.51,0,0,0,.23,1.49,3.28,3.28,0,0,0,.62,1.1,2.66,2.66,0,0,0,.92.68,2.74,2.74,0,0,0,1.13.23,5.4,5.4,0,0,0,.63,0A2.56,2.56,0,0,0,212,121a2.41,2.41,0,0,0,.46-.21,3.09,3.09,0,0,0,.45-.33.88.88,0,0,1,.19-.12A.5.5,0,0,1,213.33,120.32Z"/><path class="375efc4f-9289-4030-8036-a368268cc61d" d="M221.21,123.14a1.09,1.09,0,0,1-.5-.09.69.69,0,0,1-.28-.37l-.17-.43q-.29.25-.56.44a3.58,3.58,0,0,1-.56.32,2.76,2.76,0,0,1-.62.2,3.83,3.83,0,0,1-.72.06,3.16,3.16,0,0,1-1-.14,2,2,0,0,1-.74-.41,1.78,1.78,0,0,1-.47-.67,2.43,2.43,0,0,1-.17-.93,1.94,1.94,0,0,1,.21-.85,2.09,2.09,0,0,1,.73-.79,4.62,4.62,0,0,1,1.39-.6,8.55,8.55,0,0,1,2.21-.24v-.33a1.45,1.45,0,0,0-.28-1,1,1,0,0,0-.8-.31,2.1,2.1,0,0,0-.67.09,3,3,0,0,0-.47.2l-.4.2a1.09,1.09,0,0,1-.46.09.7.7,0,0,1-.41-.12.85.85,0,0,1-.27-.29l-.42-.73a4.74,4.74,0,0,1,1.56-.93,5.49,5.49,0,0,1,1.84-.3,3.37,3.37,0,0,1,1.27.23,2.7,2.7,0,0,1,1.56,1.61,3.48,3.48,0,0,1,.21,1.23v4.86Zm-2.67-1.42a1.84,1.84,0,0,0,.79-.16,2.39,2.39,0,0,0,.68-.51V120a6,6,0,0,0-1.15.09,2.77,2.77,0,0,0-.71.23.87.87,0,0,0-.36.31.74.74,0,0,0-.1.38.66.66,0,0,0,.22.56A1.05,1.05,0,0,0,218.54,121.72Z"/><path class="375efc4f-9289-4030-8036-a368268cc61d" d="M223.92,123.14v-7.78h1.44a.64.64,0,0,1,.36.1.52.52,0,0,1,.21.29l.13.42a4.23,4.23,0,0,1,.41-.37,2.55,2.55,0,0,1,.45-.29,2.45,2.45,0,0,1,1.14-.27,1.83,1.83,0,0,1,1.17.36,2.27,2.27,0,0,1,.7,1,2.29,2.29,0,0,1,.48-.62,2.54,2.54,0,0,1,.61-.41,2.93,2.93,0,0,1,.69-.23,3.6,3.6,0,0,1,.72-.08,3.3,3.3,0,0,1,1.19.2,2.26,2.26,0,0,1,.87.58,2.48,2.48,0,0,1,.53.93,4,4,0,0,1,.18,1.25v4.94h-2.33V118.2q0-1.21-1-1.21a1.06,1.06,0,0,0-.78.31,1.21,1.21,0,0,0-.31.9v4.94h-2.33V118.2a1.33,1.33,0,0,0-.26-.94,1,1,0,0,0-.77-.27,1.3,1.3,0,0,0-.6.14,2.19,2.19,0,0,0-.53.38v5.63Z"/><path class="375efc4f-9289-4030-8036-a368268cc61d" d="M239.51,113.24a1.22,1.22,0,0,1-.11.52,1.37,1.37,0,0,1-.31.43,1.5,1.5,0,0,1-.45.29,1.41,1.41,0,0,1-.55.11,1.31,1.31,0,0,1-.53-.11,1.47,1.47,0,0,1-.44-.29,1.35,1.35,0,0,1-.3-.43,1.26,1.26,0,0,1-.11-.52,1.31,1.31,0,0,1,.11-.53,1.39,1.39,0,0,1,.3-.43,1.4,1.4,0,0,1,.44-.29,1.36,1.36,0,0,1,.53-.1,1.47,1.47,0,0,1,.55.1,1.42,1.42,0,0,1,.45.29,1.41,1.41,0,0,1,.31.43A1.27,1.27,0,0,1,239.51,113.24Zm-.27,2.13v7.78h-2.33v-7.78Z"/><path class="375efc4f-9289-4030-8036-a368268cc61d" d="M245.87,117.07a.6.6,0,0,1-.19.2.5.5,0,0,1-.26.06.82.82,0,0,1-.33-.07l-.36-.15a3.76,3.76,0,0,0-.43-.15,2,2,0,0,0-.55-.07,1.16,1.16,0,0,0-.68.17.54.54,0,0,0-.24.47.47.47,0,0,0,.15.36,1.41,1.41,0,0,0,.41.25,5.51,5.51,0,0,0,.58.21l.66.22a5.85,5.85,0,0,1,.66.28,2.48,2.48,0,0,1,.58.4,1.77,1.77,0,0,1,.41.57,2,2,0,0,1,.15.81,2.66,2.66,0,0,1-.21,1.06,2.28,2.28,0,0,1-.63.84,3,3,0,0,1-1,.55,4.63,4.63,0,0,1-1.41.2,4.3,4.3,0,0,1-.79-.08,5.48,5.48,0,0,1-.77-.2,4.19,4.19,0,0,1-.69-.3,3,3,0,0,1-.54-.38l.54-.86a.79.79,0,0,1,.23-.24.65.65,0,0,1,.35-.09.74.74,0,0,1,.36.09l.35.2a2.9,2.9,0,0,0,.44.2,1.92,1.92,0,0,0,.63.09,1.6,1.6,0,0,0,.46-.06.82.82,0,0,0,.3-.15.6.6,0,0,0,.22-.46.5.5,0,0,0-.16-.38,1.37,1.37,0,0,0-.41-.26,5.12,5.12,0,0,0-.58-.2l-.66-.21a5.36,5.36,0,0,1-.66-.29,2.26,2.26,0,0,1-.58-.43,2,2,0,0,1-.41-.63,2.33,2.33,0,0,1-.16-.91,2.38,2.38,0,0,1,.19-.94,2.19,2.19,0,0,1,.57-.78,2.81,2.81,0,0,1,1-.54,4.17,4.17,0,0,1,1.35-.2,4.35,4.35,0,0,1,.81.08,4.17,4.17,0,0,1,.74.21,3.59,3.59,0,0,1,.63.32,3.09,3.09,0,0,1,.5.4Z"/><path class="375efc4f-9289-4030-8036-a368268cc61d" d="M251,115.25a4,4,0,0,1,1.41.24,3.07,3.07,0,0,1,1.1.7,3.19,3.19,0,0,1,.72,1.12,4.13,4.13,0,0,1,.26,1.5,3.36,3.36,0,0,1,0,.43.69.69,0,0,1-.08.26.32.32,0,0,1-.16.13.77.77,0,0,1-.26,0h-4.49a2.19,2.19,0,0,0,.59,1.41,1.77,1.77,0,0,0,1.24.44,2.21,2.21,0,0,0,.7-.1,3.47,3.47,0,0,0,.52-.22L253,121a.87.87,0,0,1,.4-.1.48.48,0,0,1,.42.2l.68.83a3.46,3.46,0,0,1-.78.67,4,4,0,0,1-.86.41,4.59,4.59,0,0,1-.88.2,6.49,6.49,0,0,1-.84.06,4.36,4.36,0,0,1-1.53-.27,3.52,3.52,0,0,1-1.25-.79,3.74,3.74,0,0,1-.85-1.3,4.89,4.89,0,0,1-.31-1.82,4.1,4.1,0,0,1,.27-1.48,3.59,3.59,0,0,1,2-2.05A4,4,0,0,1,251,115.25Zm0,1.6a1.4,1.4,0,0,0-1,.38,2,2,0,0,0-.5,1.09h2.9a2.07,2.07,0,0,0-.07-.54,1.32,1.32,0,0,0-.23-.47,1.19,1.19,0,0,0-.42-.33A1.45,1.45,0,0,0,251.09,116.85Z"/><path class="375efc4f-9289-4030-8036-a368268cc61d" d="M258.6,123.26a2.74,2.74,0,0,1-1-.16,1.9,1.9,0,0,1-1.15-1.17,2.78,2.78,0,0,1-.15-.94v-4h-.66a.42.42,0,0,1-.44-.46v-.91l1.24-.24.46-1.9a.46.46,0,0,1,.51-.36h1.21v2.27h1.89V117h-1.89v3.86a.73.73,0,0,0,.13.45.44.44,0,0,0,.38.18.74.74,0,0,0,.21,0l.15-.06.12-.06a.3.3,0,0,1,.13,0,.27.27,0,0,1,.17,0,.6.6,0,0,1,.13.15l.71,1.1a3.22,3.22,0,0,1-1,.51A4,4,0,0,1,258.6,123.26Z"/><path class="375efc4f-9289-4030-8036-a368268cc61d" d="M265.2,115.25a4,4,0,0,1,1.41.24,3.07,3.07,0,0,1,1.1.7,3.19,3.19,0,0,1,.72,1.12,4.13,4.13,0,0,1,.26,1.5,3.36,3.36,0,0,1,0,.43.69.69,0,0,1-.08.26.32.32,0,0,1-.16.13.77.77,0,0,1-.26,0h-4.49a2.19,2.19,0,0,0,.59,1.41,1.77,1.77,0,0,0,1.24.44,2.21,2.21,0,0,0,.7-.1,3.47,3.47,0,0,0,.52-.22l.42-.22a.87.87,0,0,1,.4-.1.48.48,0,0,1,.42.2l.68.83a3.46,3.46,0,0,1-.78.67,4,4,0,0,1-.86.41,4.59,4.59,0,0,1-.88.2,6.49,6.49,0,0,1-.84.06,4.36,4.36,0,0,1-1.53-.27,3.52,3.52,0,0,1-1.25-.79,3.74,3.74,0,0,1-.85-1.3,4.89,4.89,0,0,1-.31-1.82,4.1,4.1,0,0,1,.27-1.48,3.59,3.59,0,0,1,2-2.05A4,4,0,0,1,265.2,115.25Zm0,1.6a1.4,1.4,0,0,0-1,.38,2,2,0,0,0-.5,1.09h2.9a2.07,2.07,0,0,0-.07-.54,1.32,1.32,0,0,0-.23-.47,1.19,1.19,0,0,0-.42-.33A1.45,1.45,0,0,0,265.25,116.85Z"/><path class="375efc4f-9289-4030-8036-a368268cc61d" d="M274.79,117.07a.59.59,0,0,1-.19.2.5.5,0,0,1-.26.06.82.82,0,0,1-.33-.07l-.36-.15-.43-.15a1.94,1.94,0,0,0-.55-.07,1.16,1.16,0,0,0-.68.17.54.54,0,0,0-.24.47.47.47,0,0,0,.15.36,1.42,1.42,0,0,0,.41.25,5.56,5.56,0,0,0,.58.21l.66.22a5.93,5.93,0,0,1,.66.28,2.47,2.47,0,0,1,.58.4,1.78,1.78,0,0,1,.41.57,2,2,0,0,1,.15.81,2.66,2.66,0,0,1-.21,1.06,2.26,2.26,0,0,1-.63.84,3,3,0,0,1-1,.55,4.64,4.64,0,0,1-1.41.2,4.29,4.29,0,0,1-.79-.08,5.49,5.49,0,0,1-.77-.2,4.22,4.22,0,0,1-.69-.3,3,3,0,0,1-.54-.38l.54-.86a.78.78,0,0,1,.23-.24.65.65,0,0,1,.35-.09.74.74,0,0,1,.36.09l.35.2a2.92,2.92,0,0,0,.44.2,1.91,1.91,0,0,0,.63.09,1.59,1.59,0,0,0,.46-.06.81.81,0,0,0,.3-.15.62.62,0,0,0,.17-.22.61.61,0,0,0,.05-.25.51.51,0,0,0-.16-.38,1.39,1.39,0,0,0-.41-.26,5,5,0,0,0-.58-.2l-.66-.21a5.35,5.35,0,0,1-.66-.29,2.26,2.26,0,0,1-.58-.43,2,2,0,0,1-.41-.63,2.54,2.54,0,0,1,0-1.85,2.18,2.18,0,0,1,.57-.78,2.81,2.81,0,0,1,1-.54,4.17,4.17,0,0,1,1.35-.2,4.36,4.36,0,0,1,.81.08,4.13,4.13,0,0,1,.74.21,3.56,3.56,0,0,1,.63.32,3.08,3.08,0,0,1,.5.4Z"/></g></g></svg>