<svg xmlns="http://www.w3.org/2000/svg" viewBox="0 0 1369.39 768"><defs><style>.c268ffb0-6e8b-4757-9714-cd5366d41ac3{isolation:isolate;}.f329f0c9-1f7c-4e27-8dd0-76d67718b830{mix-blend-mode:screen;}.\32 4f99cc2-6bbd-4a5f-b54e-a30da2106c94,.c0cac5fe-e0e7-4952-ad31-3107d376fe7a,.e444faa6-4bf7-4bf7-92d3-147bc4b3c356,.facd9941-12f0-49a0-87f8-3a75b9d42bb2{fill:#fff;}.\30 a0a03db-c1bb-4003-ba68-405eea83f87c,.\31 c28b995-0ad8-4dad-8549-b5a6495862b8,.\31 ced64be-5bfc-4daf-a583-3469941ba16a,.\33 111671f-5709-470a-8e6c-72c2ec2458da,.\33 23ccd8a-431f-43b5-9aad-62afd6defa5e,.\33 65ac0e5-c627-46a4-be6a-2468af2a58a4,.\33 c1045e6-efe0-4179-a768-d2ccb23500f2,.\34 0c7d8fe-7b39-4cb2-a50f-ed2df83fc21f,.\35 19f2926-2a1c-4ddf-a026-6db880eeb702,.\36 ea9702b-8ae0-4276-92f0-fda528efc87c,.\37 19a85fa-63e1-4aba-8c4f-7e89fea7bbf0,.\38 3a0af6d-3dbd-4e12-a3b6-6c077a63707d,.\38 a71c4f7-7918-4fba-b9ae-528bfa63685b,.\38 b074172-c771-4e4f-8e13-7f60b73447dc,.\39 12b6d35-3c95-4e32-bb86-6964a29eb03e,.\39 7d0dea9-9525-4979-9b36-22c23d63efa3,.\39 80552c3-2482-459f-b18d-e6d001c6e35e,.\39 c8c7344-10ef-49eb-b24b-06dd6bee3c96,.a4d7cb5a-fe82-4403-beb7-f7cf705045bf,.a7a8f87d-8e42-4910-b6b9-55e2c7fd06fe,.b648fdb8-d0c4-4400-89df-0c396ad6ae06,.c7386cfd-2f8b-4b69-aec1-1c659dba9da7,.c7fcc900-3ddb-49d7-9eb7-ff95a38a3243,.d159a5c6-28c2-4e67-8264-473b2a199ff0,.d7bb0018-6a5c-4df9-b8b8-f69882c93613,.d98efcf3-c81d-460e-a037-a2707745af79,.db659dae-391f-4618-95e7-93f930a8e1fb,.db8e7d9b-019b-4863-a1ca-4f8d6d5b97ec,.dd143a0f-86f3-41c5-8cec-97b456971303,.dd88abd8-9a42-4724-a037-89844ffff2f5,.dea27261-d6f3-4352-a83d-1ed4e602d22a,.def59160-9c51-4065-ae06-abc80a8293a1,.e1b65597-6ee3-45aa-b019-e895fb1deb3e,.e444faa6-4bf7-4bf7-92d3-147bc4b3c356,.e8163d85-1127-4d7e-af4c-db069f044ccc,.f7aa5747-796a-4523-a3c2-0481b540e3d0{fill-rule:evenodd;}.\38 504497f-c5af-4457-8b7c-86ba66325b8e,.dea27261-d6f3-4352-a83d-1ed4e602d22a{fill:#b3b3b3;}.\34 73b4e9b-5029-4017-a2bf-1c04eeff53cf,.dd143a0f-86f3-41c5-8cec-97b456971303{fill:#ccc;}.\33 111671f-5709-470a-8e6c-72c2ec2458da{fill:#4d4d4d;}.\39 334219a-7af0-49d2-9652-ed7ee950d245,.db659dae-391f-4618-95e7-93f930a8e1fb{fill:#f2caa9;}.b2014d36-0a64-4973-91db-7c45c50f1de5{fill:#3f73a1;}.\31 ced64be-5bfc-4daf-a583-3469941ba16a,.fef359ec-dc2f-4bc3-9606-330e2c4a1a5e{fill:#ffcd61;}.\33 c37fe5f-3115-4c69-aac3-d6c9eb4fe2ab,.\39 7d0dea9-9525-4979-9b36-22c23d63efa3{fill:#ffae00;}.def59160-9c51-4065-ae06-abc80a8293a1{fill:#ffd7b7;}.\33 d00089b-b0ea-4449-a768-492b512d9e1e{fill:#4c8eb4;}.\32 6fdd188-1d4c-4746-945e-6141fdd3672f,.d98efcf3-c81d-460e-a037-a2707745af79{fill:#9acae6;}.\38 b074172-c771-4e4f-8e13-7f60b73447dc,.d40be318-719b-4883-8d0f-0f225fe5e408{fill:#87bbda;}.\35 19f2926-2a1c-4ddf-a026-6db880eeb702,.\36 c4ed39e-db36-45ad-89fe-7a2cc4d5bf2f{fill:#73accd;}.\30 d01eb75-4282-4e70-8da8-a1ad58125ab0,.e8163d85-1127-4d7e-af4c-db069f044ccc{fill:#609dc1;}.c7386cfd-2f8b-4b69-aec1-1c659dba9da7{fill:#f06358;}.\30 a0a03db-c1bb-4003-ba68-405eea83f87c,.\39 119fbd4-c53d-44d4-904c-2bdbdd5a45f8{fill:#ee4e42;}.\31 71253ff-4e92-44d5-91da-174292b35c38,.\33 c1045e6-efe0-4179-a768-d2ccb23500f2{fill:#e6e6e6;}.\38 3a0af6d-3dbd-4e12-a3b6-6c077a63707d{fill:#886734;}.\33 23ccd8a-431f-43b5-9aad-62afd6defa5e{fill:#694f28;}.\34 0c7d8fe-7b39-4cb2-a50f-ed2df83fc21f{fill:#bd9d6e;}.\39 c8c7344-10ef-49eb-b24b-06dd6bee3c96{fill:#254659;}.\31 c28b995-0ad8-4dad-8549-b5a6495862b8{fill:#b0cad9;}.\39 80552c3-2482-459f-b18d-e6d001c6e35e{fill:#d1e2eb;}.a4d7cb5a-fe82-4403-beb7-f7cf705045bf{fill:#617f91;}.\33 65ac0e5-c627-46a4-be6a-2468af2a58a4{fill:#8097a6;}.\37 19a85fa-63e1-4aba-8c4f-7e89fea7bbf0{fill:#f85a68;}.c7fcc900-3ddb-49d7-9eb7-ff95a38a3243{fill:#c62229;}.d159a5c6-28c2-4e67-8264-473b2a199ff0{fill:#d0d0d0;}.db8e7d9b-019b-4863-a1ca-4f8d6d5b97ec{fill:#f5e6b6;}.b648fdb8-d0c4-4400-89df-0c396ad6ae06,.e572f657-7ff9-472d-a6fe-95a9de450675{fill:#f9a818;}.dd88abd8-9a42-4724-a037-89844ffff2f5{fill:#f0b16c;}.\39 12b6d35-3c95-4e32-bb86-6964a29eb03e{fill:#c78b4c;}.a7a8f87d-8e42-4910-b6b9-55e2c7fd06fe{fill:#1e1e1e;}.\39 e650a41-e47a-43da-b7ce-c2d7bc2c5c0a{fill:#726657;}.b2665079-bef9-4070-8b3b-7271681042d1{fill:#8c8e90;}.\39 90e3d39-60ca-43df-9eff-74beb2aa1b7b{fill:#343434;}.\36 1d76242-33de-4d64-9ca8-5f4c8fa473e5{fill:#5d5e60;}.\38 a71c4f7-7918-4fba-b9ae-528bfa63685b,.f71262c5-9320-4e0d-9f4e-5af4ae3d5a16{fill:#2c577d;}.\39 86d8a5c-0641-4a32-a49d-7c56958f3fb3{fill:#da4622;}.\35 3e7fa1d-b2ee-4145-ad6e-04ba8bd6df5a{fill:#ffcf66;}.\31 7c15e1e-d91e-46de-aaa6-5a76da3243c9{fill:#5896cc;}.d9ecb47e-884b-4ee6-8e37-a9b5674b1f5e,.e1b65597-6ee3-45aa-b019-e895fb1deb3e{fill:#f2837b;}.f7aa5747-796a-4523-a3c2-0481b540e3d0{fill:#ffeabd;}.\34 49c1224-a962-47dd-a113-9e2d8873d901{fill:#fdfdfd;}.\33 779e22b-04e1-44a4-826c-820ad52e063f{fill:#5e0f16;}.ff6bc761-8a64-4f32-8eed-da7dd6b13ceb{fill:#8e1621;}.eba483c9-eb98-44df-88ac-c121ce8a075e{fill:#bd1d2d;}.\33 0744ff0-d984-4350-94d0-9e0a4b6d9977{fill:#ca4b56;}.\32 d081232-20fc-4434-ac5b-364c82fb189c{fill:#ef4136;}.\37 3c55511-ae11-4e74-b3bf-31bebc594e0b{fill:#f2675d;}.\30 979fee8-4a6a-4abe-a555-4bfa5cdf625d{fill:#f48c85;}.\38 7d332e3-0ff3-44c5-b893-61447e94f077{fill:#f9b3af;}.\36 4781974-6938-4c4f-9610-062ddf566533{fill:#f6931d;}.\36 e08567e-2725-4b25-9c9a-cf119833030d{fill:#f9a84b;}.\31 741935b-b924-4954-a1b1-66b73747aeb0{fill:#f9bf77;}.\36 5bab3a3-f283-42b7-b29f-245cab267a4a{fill:#fbd4a5;}.b0875afb-1cb6-4414-965a-4463bfdbc884{fill:#8cc63f;}.\35 d5e3ea5-e352-4eac-b807-a525b2459049{fill:#a3d164;}.\36 f77a67d-154d-446c-9ba9-decf90b3f421{fill:#badd8c;}.\32 15458da-c9f9-4e87-b62c-9f914f802033{fill:#d1e8b1;}.\38 3adb894-7021-4b1a-9355-7fef7d573662{fill:#00a79c;}.\31 7ecebcf-c78d-4cf3-bf50-c9f3f05fa4ad{fill:#33b8b1;}.\35 23b702b-89dc-4c21-9754-a2c0c1d267b8{fill:#66cac3;}.eba53f36-743a-4d4a-ab3e-f001d19ce64a{fill:#99dbd8;}.\38 7fc7ec2-59a5-48c8-acb8-c8a914267a6f{fill:#1c75bc;}.\35 055b32d-2660-4fc1-a533-a2df12ff4f93{fill:#4990c8;}.\31 c82396e-9515-460d-90b6-70f25daf1954{fill:#77acd6;}.\31 cceaf5a-05cb-471b-bb3d-31f4e5da59ed{fill:#a3c8e4;}.\33 035ace3-9500-4e85-b6a7-5f60fa7fd06b{fill:#fde8bd;}.\30 1f587a9-30df-4dff-9511-a09d765ee753,.d7bb0018-6a5c-4df9-b8b8-f69882c93613{fill:#faa6a0;}.da08acf6-2799-4c1a-8ce4-42fd5f8653cb{opacity:0.2;}.\32 587ec6a-cef0-454e-a2ab-7124de77dc67{fill:#f3f2f0;stroke-width:5.16px;}.\32 4f99cc2-6bbd-4a5f-b54e-a30da2106c94,.\32 587ec6a-cef0-454e-a2ab-7124de77dc67{stroke:#444;}.\32 4f99cc2-6bbd-4a5f-b54e-a30da2106c94,.\32 587ec6a-cef0-454e-a2ab-7124de77dc67,.c0cac5fe-e0e7-4952-ad31-3107d376fe7a{stroke-miterlimit:10;}.c0cac5fe-e0e7-4952-ad31-3107d376fe7a{stroke:#c33;stroke-width:2.06px;}.c1cd6842-53c3-4c75-ba70-4d9070f4fa5e{fill:#b32424;}.\30 c943325-121a-41ef-b03a-0d26d968c4ac{fill:#332e2e;}</style></defs><title>Asset 1</title><g class="c268ffb0-6e8b-4757-9714-cd5366d41ac3"><g id="070247b2-5fa3-4a77-bc73-d81ee7f3e0a6" data-name="Layer 2"><g id="ee50bf21-c43b-46e2-8ec2-bb7ecbc513de" data-name="Layer 1"><g id="03cd0b0f-ed62-417c-a7d1-b8fafe7a5755" data-name="ilustration" class="f329f0c9-1f7c-4e27-8dd0-76d67718b830"><path class="e444faa6-4bf7-4bf7-92d3-147bc4b3c356" d="M841.18,304.84H521.79a7.33,7.33,0,0,1-7.45-7.15V98.8a7.33,7.33,0,0,1,7.45-7.15H841.18a7.33,7.33,0,0,1,7.45,7.15V297.69A7.33,7.33,0,0,1,841.18,304.84Z"/><path class="dea27261-d6f3-4352-a83d-1ed4e602d22a" d="M826.68,304.84H808.16V294.68A1.71,1.71,0,0,1,809.9,293h15a1.71,1.71,0,0,1,1.74,1.67Z"/><path class="dea27261-d6f3-4352-a83d-1ed4e602d22a" d="M554.81,304.84H536.29V294.68A1.71,1.71,0,0,1,538,293h15a1.71,1.71,0,0,1,1.74,1.67Z"/><path class="dd143a0f-86f3-41c5-8cec-97b456971303" d="M872,366.19H491.56c-9.15,0-11.93-4.1-8.18-9.75l31.83-48H848.63l28.36,43C883.36,361.18,882.13,366.19,872,366.19Z"/><polygon class="6ea9702b-8ae0-4276-92f0-fda528efc87c" points="502.85 351.57 526.01 314.94 837.57 314.94 860.96 351.57 502.85 351.57"/><path class="e444faa6-4bf7-4bf7-92d3-147bc4b3c356" d="M874.15,364.85H488.52a1.46,1.46,0,0,1-1.49-1.43h0a1.47,1.47,0,0,1,1.49-1.43H874.15a1.47,1.47,0,0,1,1.49,1.43h0A1.47,1.47,0,0,1,874.15,364.85Z"/><path class="e444faa6-4bf7-4bf7-92d3-147bc4b3c356" d="M824,314.05H810.79a1.51,1.51,0,0,1-1.53-1.47v-15a1.51,1.51,0,0,1,1.53-1.47H824a1.51,1.51,0,0,1,1.54,1.47v15A1.51,1.51,0,0,1,824,314.05Z"/><path class="e444faa6-4bf7-4bf7-92d3-147bc4b3c356" d="M552.18,314.05H538.92a1.51,1.51,0,0,1-1.53-1.47v-15a1.51,1.51,0,0,1,1.53-1.47h13.26a1.51,1.51,0,0,1,1.53,1.47v15A1.51,1.51,0,0,1,552.18,314.05Z"/><path class="dd143a0f-86f3-41c5-8cec-97b456971303" d="M546.87,276.42H536.55a2.1,2.1,0,0,1-2.13-2V267a2.1,2.1,0,0,1,2.13-2h10.32a2.1,2.1,0,0,1,2.13,2v7.36A2.1,2.1,0,0,1,546.87,276.42Z"/><path class="dd143a0f-86f3-41c5-8cec-97b456971303" d="M546.39,262.38H537a2.56,2.56,0,0,1-2.6-2.5v-10a2.56,2.56,0,0,1,2.6-2.5h9.37a2.56,2.56,0,0,1,2.6,2.5v10A2.56,2.56,0,0,1,546.39,262.38Z"/><path class="dd143a0f-86f3-41c5-8cec-97b456971303" d="M546.39,244.83H537a2.56,2.56,0,0,1-2.6-2.5v-10a2.56,2.56,0,0,1,2.6-2.5h9.37a2.56,2.56,0,0,1,2.6,2.5v10A2.56,2.56,0,0,1,546.39,244.83Z"/><path class="dd143a0f-86f3-41c5-8cec-97b456971303" d="M546.39,227.27H537a2.56,2.56,0,0,1-2.6-2.5v-10a2.56,2.56,0,0,1,2.6-2.5h9.37a2.56,2.56,0,0,1,2.6,2.5v10A2.56,2.56,0,0,1,546.39,227.27Z"/><path class="dd143a0f-86f3-41c5-8cec-97b456971303" d="M546.39,209.71H537a2.56,2.56,0,0,1-2.6-2.5v-10a2.56,2.56,0,0,1,2.6-2.5h9.37a2.56,2.56,0,0,1,2.6,2.5v10A2.56,2.56,0,0,1,546.39,209.71Z"/><path class="dd143a0f-86f3-41c5-8cec-97b456971303" d="M546.39,192.15H537a2.56,2.56,0,0,1-2.6-2.5v-10a2.56,2.56,0,0,1,2.6-2.5h9.37a2.56,2.56,0,0,1,2.6,2.5v10A2.56,2.56,0,0,1,546.39,192.15Z"/><path class="dd143a0f-86f3-41c5-8cec-97b456971303" d="M565.09,276.42H554.77a2.1,2.1,0,0,1-2.13-2V267a2.1,2.1,0,0,1,2.13-2h10.32a2.1,2.1,0,0,1,2.13,2v7.36A2.1,2.1,0,0,1,565.09,276.42Z"/><path class="dd143a0f-86f3-41c5-8cec-97b456971303" d="M581.26,262.38H555.43a2.74,2.74,0,0,1-2.79-2.67v-9.62a2.74,2.74,0,0,1,2.79-2.67h25.83a2.74,2.74,0,0,1,2.79,2.67v9.62A2.74,2.74,0,0,1,581.26,262.38Z"/><path class="dd143a0f-86f3-41c5-8cec-97b456971303" d="M569.4,244.83h-14a2.74,2.74,0,0,1-2.79-2.67v-9.62a2.74,2.74,0,0,1,2.79-2.67h14a2.74,2.74,0,0,1,2.79,2.67v9.62A2.74,2.74,0,0,1,569.4,244.83Z"/><path class="dd143a0f-86f3-41c5-8cec-97b456971303" d="M583.32,227.27H555.43a2.74,2.74,0,0,1-2.79-2.68V215a2.74,2.74,0,0,1,2.79-2.67h27.89A2.74,2.74,0,0,1,586.1,215v9.62A2.74,2.74,0,0,1,583.32,227.27Z"/><path class="dd143a0f-86f3-41c5-8cec-97b456971303" d="M564.61,209.71h-9.37a2.56,2.56,0,0,1-2.6-2.5v-10a2.56,2.56,0,0,1,2.6-2.5h9.37a2.56,2.56,0,0,1,2.6,2.5v10A2.56,2.56,0,0,1,564.61,209.71Z"/><path class="dd143a0f-86f3-41c5-8cec-97b456971303" d="M564.61,192.15h-9.37a2.56,2.56,0,0,1-2.6-2.5v-10a2.56,2.56,0,0,1,2.6-2.5h9.37a2.56,2.56,0,0,1,2.6,2.5v10A2.56,2.56,0,0,1,564.61,192.15Z"/><path class="dd143a0f-86f3-41c5-8cec-97b456971303" d="M581.92,276.42H573a2.1,2.1,0,0,1-2.13-2V267a2.1,2.1,0,0,1,2.13-2h8.92a2.1,2.1,0,0,1,2.13,2v7.36A2.1,2.1,0,0,1,581.92,276.42Z"/><path class="dd143a0f-86f3-41c5-8cec-97b456971303" d="M599,276.42H590.1a2.1,2.1,0,0,1-2.13-2V267a2.1,2.1,0,0,1,2.13-2H599a2.1,2.1,0,0,1,2.13,2v7.36A2.1,2.1,0,0,1,599,276.42Z"/><path class="dd143a0f-86f3-41c5-8cec-97b456971303" d="M616.13,276.42h-8.92a2.1,2.1,0,0,1-2.13-2V267a2.1,2.1,0,0,1,2.13-2h8.92a2.1,2.1,0,0,1,2.13,2v7.36A2.1,2.1,0,0,1,616.13,276.42Z"/><path class="dd143a0f-86f3-41c5-8cec-97b456971303" d="M633.23,276.42h-8.92a2.1,2.1,0,0,1-2.13-2V267a2.1,2.1,0,0,1,2.13-2h8.92a2.1,2.1,0,0,1,2.13,2v7.36A2.1,2.1,0,0,1,633.23,276.42Z"/><path class="dd143a0f-86f3-41c5-8cec-97b456971303" d="M650.34,276.42h-8.92a2.1,2.1,0,0,1-2.13-2V267a2.1,2.1,0,0,1,2.13-2h8.92a2.1,2.1,0,0,1,2.13,2v7.36A2.1,2.1,0,0,1,650.34,276.42Z"/><path class="dd143a0f-86f3-41c5-8cec-97b456971303" d="M667.45,276.42h-8.92a2.1,2.1,0,0,1-2.13-2V267a2.1,2.1,0,0,1,2.13-2h8.92a2.1,2.1,0,0,1,2.13,2v7.36A2.1,2.1,0,0,1,667.45,276.42Z"/><path class="dd143a0f-86f3-41c5-8cec-97b456971303" d="M684.55,276.42h-8.92a2.1,2.1,0,0,1-2.13-2V267a2.1,2.1,0,0,1,2.13-2h8.92a2.1,2.1,0,0,1,2.13,2v7.36A2.1,2.1,0,0,1,684.55,276.42Z"/><path class="dd143a0f-86f3-41c5-8cec-97b456971303" d="M701.66,276.42h-8.92a2.1,2.1,0,0,1-2.13-2V267a2.1,2.1,0,0,1,2.13-2h8.92a2.1,2.1,0,0,1,2.13,2v7.36A2.1,2.1,0,0,1,701.66,276.42Z"/><path class="dd143a0f-86f3-41c5-8cec-97b456971303" d="M718.76,276.42h-8.92a2.1,2.1,0,0,1-2.13-2V267a2.1,2.1,0,0,1,2.13-2h8.92a2.1,2.1,0,0,1,2.13,2v7.36A2.1,2.1,0,0,1,718.76,276.42Z"/><path class="dd143a0f-86f3-41c5-8cec-97b456971303" d="M735.87,276.42h-8.92a2.1,2.1,0,0,1-2.13-2V267a2.1,2.1,0,0,1,2.13-2h8.92a2.1,2.1,0,0,1,2.13,2v7.36A2.1,2.1,0,0,1,735.87,276.42Z"/><path class="dd143a0f-86f3-41c5-8cec-97b456971303" d="M753,276.42H744a2.1,2.1,0,0,1-2.13-2V267a2.1,2.1,0,0,1,2.13-2H753a2.1,2.1,0,0,1,2.13,2v7.36A2.1,2.1,0,0,1,753,276.42Z"/><path class="dd143a0f-86f3-41c5-8cec-97b456971303" d="M770.08,276.42h-8.92a2.1,2.1,0,0,1-2.13-2V267a2.1,2.1,0,0,1,2.13-2h8.92a2.1,2.1,0,0,1,2.13,2v7.36A2.1,2.1,0,0,1,770.08,276.42Z"/><path class="dd143a0f-86f3-41c5-8cec-97b456971303" d="M787.18,276.42h-8.92a2.1,2.1,0,0,1-2.13-2V267a2.1,2.1,0,0,1,2.13-2h8.92a2.1,2.1,0,0,1,2.13,2v7.36A2.1,2.1,0,0,1,787.18,276.42Z"/><path class="dd143a0f-86f3-41c5-8cec-97b456971303" d="M804.29,276.42h-8.92a2.1,2.1,0,0,1-2.13-2V267a2.1,2.1,0,0,1,2.13-2h8.92a2.1,2.1,0,0,1,2.13,2v7.36A2.1,2.1,0,0,1,804.29,276.42Z"/><path class="dd143a0f-86f3-41c5-8cec-97b456971303" d="M823.51,276.42H813.19a2.1,2.1,0,0,1-2.13-2V267a2.1,2.1,0,0,1,2.13-2h10.32a2.1,2.1,0,0,1,2.13,2v7.36A2.1,2.1,0,0,1,823.51,276.42Z"/><path class="dd143a0f-86f3-41c5-8cec-97b456971303" d="M599.72,262.38h-9.19a2.51,2.51,0,0,1-2.56-2.45V249.87a2.51,2.51,0,0,1,2.56-2.45h9.19a2.51,2.51,0,0,1,2.56,2.45v10.06A2.51,2.51,0,0,1,599.72,262.38Z"/><path class="dd143a0f-86f3-41c5-8cec-97b456971303" d="M618.28,262.38h-9.19a2.51,2.51,0,0,1-2.56-2.45V249.87a2.51,2.51,0,0,1,2.56-2.45h9.19a2.51,2.51,0,0,1,2.56,2.45v10.06A2.51,2.51,0,0,1,618.28,262.38Z"/><path class="dd143a0f-86f3-41c5-8cec-97b456971303" d="M636.84,262.38h-9.19a2.51,2.51,0,0,1-2.56-2.45V249.87a2.51,2.51,0,0,1,2.56-2.45h9.19a2.51,2.51,0,0,1,2.56,2.45v10.06A2.51,2.51,0,0,1,636.84,262.38Z"/><path class="dd143a0f-86f3-41c5-8cec-97b456971303" d="M655.4,262.38H646.2a2.51,2.51,0,0,1-2.56-2.45V249.87a2.51,2.51,0,0,1,2.56-2.45h9.19a2.51,2.51,0,0,1,2.56,2.45v10.06A2.51,2.51,0,0,1,655.4,262.38Z"/><path class="dd143a0f-86f3-41c5-8cec-97b456971303" d="M674,262.38h-9.19a2.51,2.51,0,0,1-2.56-2.45V249.87a2.51,2.51,0,0,1,2.56-2.45H674a2.51,2.51,0,0,1,2.56,2.45v10.06A2.51,2.51,0,0,1,674,262.38Z"/><path class="dd143a0f-86f3-41c5-8cec-97b456971303" d="M692.51,262.38h-9.2a2.51,2.51,0,0,1-2.56-2.45V249.87a2.51,2.51,0,0,1,2.56-2.45h9.2a2.51,2.51,0,0,1,2.56,2.45v10.06A2.51,2.51,0,0,1,692.51,262.38Z"/><path class="dd143a0f-86f3-41c5-8cec-97b456971303" d="M711.07,262.38h-9.2a2.51,2.51,0,0,1-2.56-2.45V249.87a2.51,2.51,0,0,1,2.56-2.45h9.2a2.51,2.51,0,0,1,2.56,2.45v10.06A2.51,2.51,0,0,1,711.07,262.38Z"/><path class="dd143a0f-86f3-41c5-8cec-97b456971303" d="M729.63,262.38h-9.2a2.51,2.51,0,0,1-2.56-2.45V249.87a2.51,2.51,0,0,1,2.56-2.45h9.2a2.51,2.51,0,0,1,2.56,2.45v10.06A2.51,2.51,0,0,1,729.63,262.38Z"/><path class="dd143a0f-86f3-41c5-8cec-97b456971303" d="M748.19,262.38H739a2.51,2.51,0,0,1-2.56-2.45V249.87a2.51,2.51,0,0,1,2.56-2.45h9.19a2.51,2.51,0,0,1,2.56,2.45v10.06A2.51,2.51,0,0,1,748.19,262.38Z"/><path class="dd143a0f-86f3-41c5-8cec-97b456971303" d="M766.75,262.38h-9.19a2.51,2.51,0,0,1-2.56-2.45V249.87a2.51,2.51,0,0,1,2.56-2.45h9.19a2.51,2.51,0,0,1,2.56,2.45v10.06A2.51,2.51,0,0,1,766.75,262.38Z"/><path class="dd143a0f-86f3-41c5-8cec-97b456971303" d="M785.31,262.38h-9.2a2.51,2.51,0,0,1-2.56-2.45V249.87a2.51,2.51,0,0,1,2.56-2.45h9.2a2.51,2.51,0,0,1,2.56,2.45v10.06A2.51,2.51,0,0,1,785.31,262.38Z"/><path class="dd143a0f-86f3-41c5-8cec-97b456971303" d="M803.87,262.38h-9.2a2.51,2.51,0,0,1-2.56-2.45V249.87a2.51,2.51,0,0,1,2.56-2.45h9.2a2.51,2.51,0,0,1,2.56,2.45v10.06A2.51,2.51,0,0,1,803.87,262.38Z"/><path class="dd143a0f-86f3-41c5-8cec-97b456971303" d="M823,262.38h-9.37a2.56,2.56,0,0,1-2.6-2.5v-10a2.56,2.56,0,0,1,2.6-2.5H823a2.56,2.56,0,0,1,2.6,2.5v10A2.56,2.56,0,0,1,823,262.38Z"/><path class="dd143a0f-86f3-41c5-8cec-97b456971303" d="M822.85,244.83H803.58a2.74,2.74,0,0,1-2.79-2.68v-9.62a2.74,2.74,0,0,1,2.79-2.67h19.28a2.74,2.74,0,0,1,2.79,2.67v9.62A2.74,2.74,0,0,1,822.85,244.83Z"/><path class="dd143a0f-86f3-41c5-8cec-97b456971303" d="M822.85,227.27H799.93a2.74,2.74,0,0,1-2.79-2.68V215a2.74,2.74,0,0,1,2.79-2.67h22.92a2.74,2.74,0,0,1,2.79,2.67v9.62A2.74,2.74,0,0,1,822.85,227.27Z"/><path class="dd143a0f-86f3-41c5-8cec-97b456971303" d="M822.85,209.71H790a2.74,2.74,0,0,1-2.79-2.67v-9.62a2.74,2.74,0,0,1,2.79-2.67h32.86a2.74,2.74,0,0,1,2.79,2.67V207A2.74,2.74,0,0,1,822.85,209.71Z"/><path class="dd143a0f-86f3-41c5-8cec-97b456971303" d="M822.85,192.15H809.21a2.74,2.74,0,0,1-2.79-2.68v-9.62a2.74,2.74,0,0,1,2.79-2.67h13.64a2.74,2.74,0,0,1,2.79,2.67v9.62A2.74,2.74,0,0,1,822.85,192.15Z"/><path class="dd143a0f-86f3-41c5-8cec-97b456971303" d="M795.73,244.83h-9.85a2.69,2.69,0,0,1-2.74-2.63v-9.71a2.69,2.69,0,0,1,2.74-2.63h9.85a2.69,2.69,0,0,1,2.74,2.63v9.71A2.69,2.69,0,0,1,795.73,244.83Z"/><path class="dd143a0f-86f3-41c5-8cec-97b456971303" d="M776.83,244.83H767a2.69,2.69,0,0,1-2.74-2.63v-9.71a2.69,2.69,0,0,1,2.74-2.63h9.85a2.69,2.69,0,0,1,2.74,2.63v9.71A2.69,2.69,0,0,1,776.83,244.83Z"/><path class="dd143a0f-86f3-41c5-8cec-97b456971303" d="M757.92,244.83h-9.85a2.69,2.69,0,0,1-2.74-2.63v-9.71a2.69,2.69,0,0,1,2.74-2.63h9.85a2.69,2.69,0,0,1,2.74,2.63v9.71A2.69,2.69,0,0,1,757.92,244.83Z"/><path class="dd143a0f-86f3-41c5-8cec-97b456971303" d="M739,244.83h-9.85a2.69,2.69,0,0,1-2.74-2.63v-9.71a2.69,2.69,0,0,1,2.74-2.63H739a2.69,2.69,0,0,1,2.74,2.63v9.71A2.69,2.69,0,0,1,739,244.83Z"/><path class="dd143a0f-86f3-41c5-8cec-97b456971303" d="M720.1,244.83h-9.85a2.69,2.69,0,0,1-2.74-2.63v-9.71a2.69,2.69,0,0,1,2.74-2.63h9.85a2.69,2.69,0,0,1,2.74,2.63v9.71A2.69,2.69,0,0,1,720.1,244.83Z"/><path class="dd143a0f-86f3-41c5-8cec-97b456971303" d="M701.2,244.83h-9.85a2.69,2.69,0,0,1-2.74-2.63v-9.71a2.69,2.69,0,0,1,2.74-2.63h9.85a2.69,2.69,0,0,1,2.74,2.63v9.71A2.69,2.69,0,0,1,701.2,244.83Z"/><path class="dd143a0f-86f3-41c5-8cec-97b456971303" d="M682.29,244.83h-9.85a2.69,2.69,0,0,1-2.74-2.63v-9.71a2.69,2.69,0,0,1,2.74-2.63h9.85a2.69,2.69,0,0,1,2.74,2.63v9.71A2.69,2.69,0,0,1,682.29,244.83Z"/><path class="dd143a0f-86f3-41c5-8cec-97b456971303" d="M663.38,244.83h-9.85a2.69,2.69,0,0,1-2.74-2.63v-9.71a2.69,2.69,0,0,1,2.74-2.63h9.85a2.69,2.69,0,0,1,2.74,2.63v9.71A2.69,2.69,0,0,1,663.38,244.83Z"/><path class="dd143a0f-86f3-41c5-8cec-97b456971303" d="M644.48,244.83h-9.85a2.69,2.69,0,0,1-2.74-2.63v-9.71a2.69,2.69,0,0,1,2.74-2.63h9.85a2.69,2.69,0,0,1,2.74,2.63v9.71A2.69,2.69,0,0,1,644.48,244.83Z"/><path class="dd143a0f-86f3-41c5-8cec-97b456971303" d="M625.57,244.83h-9.85A2.69,2.69,0,0,1,613,242.2v-9.71a2.69,2.69,0,0,1,2.74-2.63h9.85a2.69,2.69,0,0,1,2.74,2.63v9.71A2.69,2.69,0,0,1,625.57,244.83Z"/><path class="dd143a0f-86f3-41c5-8cec-97b456971303" d="M606.66,244.83h-9.85a2.69,2.69,0,0,1-2.74-2.63v-9.71a2.69,2.69,0,0,1,2.74-2.63h9.85a2.69,2.69,0,0,1,2.74,2.63v9.71A2.69,2.69,0,0,1,606.66,244.83Z"/><path class="dd143a0f-86f3-41c5-8cec-97b456971303" d="M587.75,244.83h-9.85a2.69,2.69,0,0,1-2.74-2.63v-9.71a2.69,2.69,0,0,1,2.74-2.63h9.85a2.69,2.69,0,0,1,2.74,2.63v9.71A2.69,2.69,0,0,1,587.75,244.83Z"/><path class="dd143a0f-86f3-41c5-8cec-97b456971303" d="M790.47,227.27h-9.85a2.69,2.69,0,0,1-2.74-2.63v-9.71a2.69,2.69,0,0,1,2.74-2.63h9.85a2.69,2.69,0,0,1,2.74,2.63v9.71A2.69,2.69,0,0,1,790.47,227.27Z"/><path class="dd143a0f-86f3-41c5-8cec-97b456971303" d="M771.57,227.27h-9.85a2.69,2.69,0,0,1-2.74-2.63v-9.71a2.69,2.69,0,0,1,2.74-2.63h9.85a2.69,2.69,0,0,1,2.74,2.63v9.71A2.69,2.69,0,0,1,771.57,227.27Z"/><path class="dd143a0f-86f3-41c5-8cec-97b456971303" d="M752.66,227.27h-9.85a2.69,2.69,0,0,1-2.74-2.63v-9.71a2.69,2.69,0,0,1,2.74-2.63h9.85a2.69,2.69,0,0,1,2.74,2.63v9.71A2.69,2.69,0,0,1,752.66,227.27Z"/><path class="dd143a0f-86f3-41c5-8cec-97b456971303" d="M733.75,227.27H723.9a2.69,2.69,0,0,1-2.74-2.63v-9.71a2.69,2.69,0,0,1,2.74-2.63h9.85a2.69,2.69,0,0,1,2.74,2.63v9.71A2.69,2.69,0,0,1,733.75,227.27Z"/><path class="dd143a0f-86f3-41c5-8cec-97b456971303" d="M714.84,227.27H705a2.69,2.69,0,0,1-2.74-2.63v-9.71A2.69,2.69,0,0,1,705,212.3h9.85a2.69,2.69,0,0,1,2.74,2.63v9.71A2.69,2.69,0,0,1,714.84,227.27Z"/><path class="dd143a0f-86f3-41c5-8cec-97b456971303" d="M695.94,227.27h-9.85a2.69,2.69,0,0,1-2.74-2.63v-9.71a2.69,2.69,0,0,1,2.74-2.63h9.85a2.69,2.69,0,0,1,2.74,2.63v9.71A2.69,2.69,0,0,1,695.94,227.27Z"/><path class="dd143a0f-86f3-41c5-8cec-97b456971303" d="M677,227.27h-9.85a2.69,2.69,0,0,1-2.74-2.63v-9.71a2.69,2.69,0,0,1,2.74-2.63H677a2.69,2.69,0,0,1,2.74,2.63v9.71A2.69,2.69,0,0,1,677,227.27Z"/><path class="dd143a0f-86f3-41c5-8cec-97b456971303" d="M658.12,227.27h-9.85a2.69,2.69,0,0,1-2.74-2.63v-9.71a2.69,2.69,0,0,1,2.74-2.63h9.85a2.69,2.69,0,0,1,2.74,2.63v9.71A2.69,2.69,0,0,1,658.12,227.27Z"/><path class="dd143a0f-86f3-41c5-8cec-97b456971303" d="M639.22,227.27h-9.85a2.69,2.69,0,0,1-2.74-2.63v-9.71a2.69,2.69,0,0,1,2.74-2.63h9.85a2.69,2.69,0,0,1,2.74,2.63v9.71A2.69,2.69,0,0,1,639.22,227.27Z"/><path class="dd143a0f-86f3-41c5-8cec-97b456971303" d="M620.31,227.27h-9.85a2.69,2.69,0,0,1-2.74-2.63v-9.71a2.69,2.69,0,0,1,2.74-2.63h9.85a2.69,2.69,0,0,1,2.74,2.63v9.71A2.69,2.69,0,0,1,620.31,227.27Z"/><path class="dd143a0f-86f3-41c5-8cec-97b456971303" d="M601.4,227.27h-9.85a2.69,2.69,0,0,1-2.74-2.63v-9.71a2.69,2.69,0,0,1,2.74-2.63h9.85a2.69,2.69,0,0,1,2.74,2.63v9.71A2.69,2.69,0,0,1,601.4,227.27Z"/><path class="dd143a0f-86f3-41c5-8cec-97b456971303" d="M780.57,209.71h-9.85a2.69,2.69,0,0,1-2.74-2.63v-9.71a2.69,2.69,0,0,1,2.74-2.63h9.85a2.69,2.69,0,0,1,2.74,2.63v9.71A2.69,2.69,0,0,1,780.57,209.71Z"/><path class="dd143a0f-86f3-41c5-8cec-97b456971303" d="M761.67,209.71h-9.85a2.69,2.69,0,0,1-2.74-2.63v-9.71a2.69,2.69,0,0,1,2.74-2.63h9.85a2.69,2.69,0,0,1,2.74,2.63v9.71A2.69,2.69,0,0,1,761.67,209.71Z"/><path class="dd143a0f-86f3-41c5-8cec-97b456971303" d="M742.76,209.71h-9.85a2.69,2.69,0,0,1-2.74-2.63v-9.71a2.69,2.69,0,0,1,2.74-2.63h9.85a2.69,2.69,0,0,1,2.74,2.63v9.71A2.69,2.69,0,0,1,742.76,209.71Z"/><path class="dd143a0f-86f3-41c5-8cec-97b456971303" d="M723.85,209.71H714a2.69,2.69,0,0,1-2.74-2.63v-9.71a2.69,2.69,0,0,1,2.74-2.63h9.85a2.69,2.69,0,0,1,2.74,2.63v9.71A2.69,2.69,0,0,1,723.85,209.71Z"/><path class="dd143a0f-86f3-41c5-8cec-97b456971303" d="M704.95,209.71H695.1a2.69,2.69,0,0,1-2.74-2.63v-9.71a2.69,2.69,0,0,1,2.74-2.63h9.85a2.69,2.69,0,0,1,2.74,2.63v9.71A2.69,2.69,0,0,1,704.95,209.71Z"/><path class="dd143a0f-86f3-41c5-8cec-97b456971303" d="M686,209.71h-9.85a2.69,2.69,0,0,1-2.74-2.63v-9.71a2.69,2.69,0,0,1,2.74-2.63H686a2.69,2.69,0,0,1,2.74,2.63v9.71A2.69,2.69,0,0,1,686,209.71Z"/><path class="dd143a0f-86f3-41c5-8cec-97b456971303" d="M667.13,209.71h-9.85a2.69,2.69,0,0,1-2.74-2.63v-9.71a2.69,2.69,0,0,1,2.74-2.63h9.85a2.69,2.69,0,0,1,2.74,2.63v9.71A2.69,2.69,0,0,1,667.13,209.71Z"/><path class="dd143a0f-86f3-41c5-8cec-97b456971303" d="M648.23,209.71h-9.85a2.69,2.69,0,0,1-2.74-2.63v-9.71a2.69,2.69,0,0,1,2.74-2.63h9.85a2.69,2.69,0,0,1,2.74,2.63v9.71A2.69,2.69,0,0,1,648.23,209.71Z"/><path class="dd143a0f-86f3-41c5-8cec-97b456971303" d="M629.32,209.71h-9.85a2.69,2.69,0,0,1-2.74-2.63v-9.71a2.69,2.69,0,0,1,2.74-2.63h9.85a2.69,2.69,0,0,1,2.74,2.63v9.71A2.69,2.69,0,0,1,629.32,209.71Z"/><path class="dd143a0f-86f3-41c5-8cec-97b456971303" d="M610.41,209.71h-9.85a2.69,2.69,0,0,1-2.74-2.63v-9.71a2.69,2.69,0,0,1,2.74-2.63h9.85a2.69,2.69,0,0,1,2.74,2.63v9.71A2.69,2.69,0,0,1,610.41,209.71Z"/><path class="dd143a0f-86f3-41c5-8cec-97b456971303" d="M591.46,209.71H573.65a2.74,2.74,0,0,1-2.79-2.67v-9.62a2.74,2.74,0,0,1,2.79-2.67h17.81a2.74,2.74,0,0,1,2.79,2.67V207A2.74,2.74,0,0,1,591.46,209.71Z"/><path class="dd143a0f-86f3-41c5-8cec-97b456971303" d="M799.79,192.15h-9.85a2.69,2.69,0,0,1-2.74-2.63v-9.71a2.69,2.69,0,0,1,2.74-2.63h9.85a2.69,2.69,0,0,1,2.74,2.63v9.71A2.69,2.69,0,0,1,799.79,192.15Z"/><path class="dd143a0f-86f3-41c5-8cec-97b456971303" d="M780.88,192.15H771a2.69,2.69,0,0,1-2.74-2.63v-9.71a2.69,2.69,0,0,1,2.74-2.63h9.85a2.69,2.69,0,0,1,2.74,2.63v9.71A2.69,2.69,0,0,1,780.88,192.15Z"/><path class="dd143a0f-86f3-41c5-8cec-97b456971303" d="M762,192.15h-9.85a2.69,2.69,0,0,1-2.74-2.63v-9.71a2.69,2.69,0,0,1,2.74-2.63H762a2.69,2.69,0,0,1,2.74,2.63v9.71A2.69,2.69,0,0,1,762,192.15Z"/><path class="dd143a0f-86f3-41c5-8cec-97b456971303" d="M743.07,192.15h-9.85a2.69,2.69,0,0,1-2.74-2.63v-9.71a2.69,2.69,0,0,1,2.74-2.63h9.85a2.69,2.69,0,0,1,2.74,2.63v9.71A2.69,2.69,0,0,1,743.07,192.15Z"/><path class="dd143a0f-86f3-41c5-8cec-97b456971303" d="M724.16,192.15h-9.85a2.69,2.69,0,0,1-2.74-2.63v-9.71a2.69,2.69,0,0,1,2.74-2.63h9.85a2.69,2.69,0,0,1,2.74,2.63v9.71A2.69,2.69,0,0,1,724.16,192.15Z"/><path class="dd143a0f-86f3-41c5-8cec-97b456971303" d="M705.25,192.15h-9.85a2.69,2.69,0,0,1-2.74-2.63v-9.71a2.69,2.69,0,0,1,2.74-2.63h9.85a2.69,2.69,0,0,1,2.74,2.63v9.71A2.69,2.69,0,0,1,705.25,192.15Z"/><path class="dd143a0f-86f3-41c5-8cec-97b456971303" d="M686.35,192.15H676.5a2.69,2.69,0,0,1-2.74-2.63v-9.71a2.69,2.69,0,0,1,2.74-2.63h9.85a2.69,2.69,0,0,1,2.74,2.63v9.71A2.69,2.69,0,0,1,686.35,192.15Z"/><path class="dd143a0f-86f3-41c5-8cec-97b456971303" d="M667.44,192.15h-9.85a2.69,2.69,0,0,1-2.74-2.63v-9.71a2.69,2.69,0,0,1,2.74-2.63h9.85a2.69,2.69,0,0,1,2.74,2.63v9.71A2.69,2.69,0,0,1,667.44,192.15Z"/><path class="dd143a0f-86f3-41c5-8cec-97b456971303" d="M648.53,192.15h-9.85a2.69,2.69,0,0,1-2.74-2.63v-9.71a2.69,2.69,0,0,1,2.74-2.63h9.85a2.69,2.69,0,0,1,2.74,2.63v9.71A2.69,2.69,0,0,1,648.53,192.15Z"/><path class="dd143a0f-86f3-41c5-8cec-97b456971303" d="M629.63,192.15h-9.85a2.69,2.69,0,0,1-2.74-2.63v-9.71a2.69,2.69,0,0,1,2.74-2.63h9.85a2.69,2.69,0,0,1,2.74,2.63v9.71A2.69,2.69,0,0,1,629.63,192.15Z"/><path class="dd143a0f-86f3-41c5-8cec-97b456971303" d="M610.67,192.15H592.86a2.74,2.74,0,0,1-2.79-2.68v-9.62a2.74,2.74,0,0,1,2.79-2.67h17.81a2.74,2.74,0,0,1,2.79,2.67v9.62A2.74,2.74,0,0,1,610.67,192.15Z"/><path class="dd143a0f-86f3-41c5-8cec-97b456971303" d="M582.84,192.15h-9.37a2.56,2.56,0,0,1-2.6-2.5v-10a2.56,2.56,0,0,1,2.6-2.5h9.37a2.56,2.56,0,0,1,2.6,2.5v10A2.56,2.56,0,0,1,582.84,192.15Z"/><path class="dd143a0f-86f3-41c5-8cec-97b456971303" d="M730.61,164.59H632.36a2.68,2.68,0,0,1-2.72-2.62V116.62a2.68,2.68,0,0,1,2.72-2.61h98.25a2.68,2.68,0,0,1,2.72,2.61V162A2.68,2.68,0,0,1,730.61,164.59Z"/><path class="dd143a0f-86f3-41c5-8cec-97b456971303" d="M732.77,110.61H683.9a.55.55,0,0,1-.57-.54v-9.42a.56.56,0,0,1,.57-.54h48.87a.56.56,0,0,1,.57.54v9.42A.56.56,0,0,1,732.77,110.61Z"/><path class="dd143a0f-86f3-41c5-8cec-97b456971303" d="M679.06,110.61H630.2a.56.56,0,0,1-.57-.54v-9.42a.56.56,0,0,1,.57-.54h48.87a.56.56,0,0,1,.57.54v9.42A.56.56,0,0,1,679.06,110.61Z"/><polygon class="3111671f-5709-470a-8e6c-72c2ec2458da" points="860.96 351.57 526.01 314.94 502.85 351.57 860.96 351.57"/><rect class="9334219a-7af0-49d2-9652-ed7ee950d245" x="748.34" y="45.94" width="65.25" height="48.7" transform="translate(709.06 851.1) rotate(-89.88)"/><path class="db659dae-391f-4618-95e7-93f930a8e1fb" d="M753,148.31c.12-5.54.11-12.27.18-20.23l-16.38,24.18c-6.93,10.23-17,5.35-20.91.71l32.4-56.59c4.52-7.89,18-11.8,31-12.12,26.82-.67,43.16,16.14,43.59,51.46l5.89,27.13c2.38,11.46-14.5,14.57-16.81,3l-2.27-11.4a10.13,10.13,0,0,1-1.94,1.69l2,22.81c1.16,11.76-15.91,11.83-17,2l-2-18.89a14,14,0,0,1-1.89.13l.54,24.13c.24,10.88-16.89,11.08-17.09.28l-.61-28q-1.16-.58-2.27-1.24l-4.81,55.9c-.92,10.64-18,9.67-17-1.42Z"/><rect class="b2014d36-0a64-4973-91db-7c45c50f1de5" x="772.11" y="36.08" width="17.73" height="59.75" transform="translate(713.39 846.79) rotate(-89.88)"/><polygon class="1ced64be-5bfc-4daf-a583-3469941ba16a" points="745.06 0 745.16 57.02 816.83 57.16 816.73 0 745.06 0"/><rect class="9334219a-7af0-49d2-9652-ed7ee950d245" x="561.98" y="45.55" width="65.25" height="48.7" transform="matrix(0, -1, 1, 0, 523.48, 664.36)"/><path class="db659dae-391f-4618-95e7-93f930a8e1fb" d="M622.19,148c-.09-5.55-.06-12.27-.09-20.23l15.81,22.92c7,10.17,18,6.16,21.24,1.23l-32-55.84c-4.52-7.88-17.93-11.87-30.9-12.25-26.81-.78-43.24,16-43.82,51.28L541,188.72c-2.44,11.45,14.44,14.63,16.8,3.06l7.72-37.85a10.11,10.11,0,0,0,1.93,1.7l-5.28,50.84c-1.22,11.75,15.85,11.9,17,2l5.28-46.92a14.1,14.1,0,0,0,1.89.14l-1.26,54.11c-.25,10.88,16.84,11.15,17.09.35l1.35-57.93q1.17-.57,2.28-1.23l4.56,55.92c.87,10.64,17.94,9.74,17-1.35Z"/><rect class="b2014d36-0a64-4973-91db-7c45c50f1de5" x="585.75" y="35.69" width="17.72" height="59.75" transform="translate(527.81 660.04) rotate(-89.88)"/><polygon class="1ced64be-5bfc-4daf-a583-3469941ba16a" points="630.47 0 630.47 56.78 558.8 56.63 558.8 0 630.47 0"/><polygon class="97d0dea9-9525-4979-9b36-22c23d63efa3" points="745.06 0 745.16 57.02 781 57.09 780.9 0 745.06 0"/><polygon class="97d0dea9-9525-4979-9b36-22c23d63efa3" points="558.8 0 558.8 56.63 594.63 56.7 594.63 0 558.8 0"/><polygon class="def59160-9c51-4065-ae06-abc80a8293a1" points="809.8 725.27 859.8 710.01 847.31 672.3 849.51 626.99 779.67 634.26 809.8 725.27"/><path class="db659dae-391f-4618-95e7-93f930a8e1fb" d="M838.24,590.49h0A11.65,11.65,0,0,1,850.65,601l6.63,88.67c.47,6.17-4.56,11.54-11,11.92h0a12.24,12.24,0,0,1-1.79,0l.51,6.65c.49,6.45-4.77,12.08-11.5,12.47h0a12.38,12.38,0,0,1-11.2-5.68,13.57,13.57,0,0,1-7.86,3.07h0a13.17,13.17,0,0,1-14-11.94l-9.28-122.9c-.53-7,5.15-13.05,12.43-13.48h0a13.21,13.21,0,0,1,13.93,11,12.62,12.62,0,0,1,5.54-1.64h0a12.2,12.2,0,0,1,13,11l0,.64A12.18,12.18,0,0,1,838.24,590.49Z"/><path class="db659dae-391f-4618-95e7-93f930a8e1fb" d="M779.13,517.58h0a9.37,9.37,0,0,1,12.11,4.29l31.06,69.28.65.44-20.52.25-27.77-62.62A8.61,8.61,0,0,1,779.13,517.58Z"/><rect class="facd9941-12f0-49a0-87f8-3a75b9d42bb2" x="576.62" y="399.84" width="220.68" height="299.65"/><rect class="473b4e9b-5029-4017-a2bf-1c04eeff53cf" x="633.39" y="431.94" width="107.13" height="5.27"/><rect class="473b4e9b-5029-4017-a2bf-1c04eeff53cf" x="596.87" y="445.13" width="180.17" height="5.27"/><rect class="473b4e9b-5029-4017-a2bf-1c04eeff53cf" x="596.87" y="454.36" width="180.17" height="5.27"/><rect class="473b4e9b-5029-4017-a2bf-1c04eeff53cf" x="596.87" y="463.59" width="180.17" height="5.27"/><rect class="473b4e9b-5029-4017-a2bf-1c04eeff53cf" x="596.87" y="472.82" width="180.17" height="5.27"/><rect class="473b4e9b-5029-4017-a2bf-1c04eeff53cf" x="596.87" y="482.05" width="180.17" height="5.27"/><rect class="473b4e9b-5029-4017-a2bf-1c04eeff53cf" x="596.87" y="491.28" width="180.17" height="5.27"/><rect class="473b4e9b-5029-4017-a2bf-1c04eeff53cf" x="596.87" y="500.51" width="180.17" height="5.27"/><rect class="473b4e9b-5029-4017-a2bf-1c04eeff53cf" x="596.87" y="509.74" width="180.17" height="5.27"/><rect class="473b4e9b-5029-4017-a2bf-1c04eeff53cf" x="596.87" y="518.97" width="90.09" height="5.27"/><ellipse class="3d00089b-b0ea-4449-a768-492b512d9e1e" cx="753.68" cy="570.02" rx="23.36" ry="22.43"/><path class="d98efcf3-c81d-460e-a037-a2707745af79" d="M740.82,588.75a22.89,22.89,0,0,1-7.95-8.51L753.68,570Z"/><path class="8b074172-c771-4e4f-8e13-7f60b73447dc" d="M732.87,580.24A21.62,21.62,0,0,1,730.32,570a22.09,22.09,0,0,1,9-17.67L753.68,570Z"/><path class="519f2926-2a1c-4ddf-a026-6db880eeb702" d="M739.28,552.36a23.89,23.89,0,0,1,14.4-4.77V570Z"/><path class="e8163d85-1127-4d7e-af4c-db069f044ccc" d="M753.68,547.59V570l16.65-15.73A23.78,23.78,0,0,0,753.68,547.59Z"/><rect class="473b4e9b-5029-4017-a2bf-1c04eeff53cf" x="596.87" y="596.26" width="107.21" height="2.63"/><rect class="3d00089b-b0ea-4449-a768-492b512d9e1e" x="596.87" y="541.14" width="19.06" height="55.12"/><rect class="0d01eb75-4282-4e70-8da8-a1ad58125ab0" x="618.91" y="561.93" width="19.06" height="34.34"/><rect class="6c4ed39e-db36-45ad-89fe-7a2cc4d5bf2f" x="640.95" y="573.56" width="19.06" height="22.71"/><rect class="d40be318-719b-4883-8d0f-0f225fe5e408" x="662.99" y="562.91" width="19.06" height="33.36"/><rect class="26fdd188-1d4c-4746-945e-6141fdd3672f" x="685.02" y="572.41" width="19.06" height="23.85"/><rect class="473b4e9b-5029-4017-a2bf-1c04eeff53cf" x="731.8" y="596.26" width="9.62" height="2.63"/><rect class="473b4e9b-5029-4017-a2bf-1c04eeff53cf" x="745.88" y="596.26" width="28.57" height="2.63"/><rect class="473b4e9b-5029-4017-a2bf-1c04eeff53cf" x="596.87" y="607.23" width="82.69" height="5.27"/><rect class="473b4e9b-5029-4017-a2bf-1c04eeff53cf" x="596.88" y="616.47" width="82.69" height="5.27"/><rect class="473b4e9b-5029-4017-a2bf-1c04eeff53cf" x="596.88" y="625.7" width="82.69" height="5.27"/><rect class="473b4e9b-5029-4017-a2bf-1c04eeff53cf" x="596.88" y="634.93" width="82.69" height="5.27"/><rect class="473b4e9b-5029-4017-a2bf-1c04eeff53cf" x="596.88" y="644.16" width="82.69" height="5.27"/><rect class="473b4e9b-5029-4017-a2bf-1c04eeff53cf" x="596.88" y="653.39" width="82.69" height="5.27"/><rect class="473b4e9b-5029-4017-a2bf-1c04eeff53cf" x="596.87" y="662.62" width="82.69" height="5.27"/><rect class="473b4e9b-5029-4017-a2bf-1c04eeff53cf" x="596.88" y="671.85" width="41.34" height="5.27"/><rect class="473b4e9b-5029-4017-a2bf-1c04eeff53cf" x="694.36" y="607.23" width="82.69" height="5.27"/><rect class="473b4e9b-5029-4017-a2bf-1c04eeff53cf" x="694.36" y="616.46" width="82.69" height="5.27"/><rect class="473b4e9b-5029-4017-a2bf-1c04eeff53cf" x="694.36" y="625.7" width="82.69" height="5.27"/><rect class="473b4e9b-5029-4017-a2bf-1c04eeff53cf" x="694.36" y="634.93" width="82.69" height="5.27"/><rect class="473b4e9b-5029-4017-a2bf-1c04eeff53cf" x="694.36" y="644.16" width="82.69" height="5.27"/><rect class="473b4e9b-5029-4017-a2bf-1c04eeff53cf" x="694.36" y="653.39" width="82.69" height="5.27"/><rect class="473b4e9b-5029-4017-a2bf-1c04eeff53cf" x="694.36" y="662.62" width="82.69" height="5.27"/><rect class="473b4e9b-5029-4017-a2bf-1c04eeff53cf" x="694.36" y="671.85" width="58.2" height="5.27"/><path class="db659dae-391f-4618-95e7-93f930a8e1fb" d="M837.33,740.86l6.39-1.95-3.21-7.38L814.8,672.3c-5.35-12.32-14.9-11.3-23.25-8.75l30.35,69.92C824.44,739.34,831.39,742.68,837.33,740.86Z"/><polygon class="97d0dea9-9525-4979-9b36-22c23d63efa3" points="798.43 712.85 861.61 693.56 871.78 724.28 808.6 743.56 798.43 712.85"/><polygon class="c7386cfd-2f8b-4b69-aec1-1c659dba9da7" points="802.5 739.46 873.83 717.69 890.7 768 812.1 768 802.5 739.46"/><polygon class="0a0a03db-c1bb-4003-ba68-405eea83f87c" points="838.17 728.58 873.83 717.69 890.7 768 851.4 768 838.17 728.58"/><path class="db659dae-391f-4618-95e7-93f930a8e1fb" d="M761.38,603.33h0a10.08,10.08,0,0,1,13,4.78l12.46,26L810.4,650.6l34,18.87-16.71,32.45L803.4,685.68c-8.55,2.61-17.74-8.73-20.84-15.22L756.4,615.79A9.28,9.28,0,0,1,761.38,603.33Z"/><polygon class="db659dae-391f-4618-95e7-93f930a8e1fb" points="484.94 657.44 535.12 682.52 498.67 749.77 448.48 724.69 484.94 657.44"/><path class="db659dae-391f-4618-95e7-93f930a8e1fb" d="M564,637.44c-3.21,5.66-6.94,12.61-11.44,20.78L583,641.67c12.84-7,20.53,3.21,22,10L540,693.44c-9,5.82-25.12,2.95-38.68-3.37-28-13.06-35.55-38.78-16.34-75.44l9-31c3.92-13,23.07-7.6,19,5.54l-4,12.93a12.32,12.32,0,0,1,2.94-.75l10.61-24.57c5.34-12.73,23-4,18.6,6.69L532.75,604a16.1,16.1,0,0,1,2,.83l12.87-25.17c5.8-11.35,23.59-2.77,17.79,8.48l-14.93,29.16q.88,1.19,1.65,2.45l36.07-55.2c6.86-10.51,23.94-.75,16.78,10.2Z"/><polygon class="97d0dea9-9525-4979-9b36-22c23d63efa3" points="463.54 683.55 525.12 714.33 496.86 768 463.94 768 428.42 750.25 463.54 683.55"/><polygon class="c7386cfd-2f8b-4b69-aec1-1c659dba9da7" points="503.99 768 517.83 742.23 443.97 705.33 410.31 768 503.99 768"/><polygon class="0a0a03db-c1bb-4003-ba68-405eea83f87c" points="503.99 768 517.83 742.23 480.9 723.78 457.15 768 503.99 768"/><path class="e444faa6-4bf7-4bf7-92d3-147bc4b3c356" d="M335.8,330.08c-5.16-22.85,10-45.38,33.76-50.33s47.27,9.56,52.43,32.41-10,45.39-33.76,50.33S341,352.93,335.8,330.08Z"/><path class="3c1045e6-efe0-4179-a768-d2ccb23500f2" d="M338.45,329.53c-4.84-21.45,9.35-42.6,31.68-47.24s44.37,9,49.2,30.42-9.35,42.6-31.68,47.24S343.29,351,338.45,329.53Z"/><path class="e444faa6-4bf7-4bf7-92d3-147bc4b3c356" d="M328,334.38l-.63-2.77a3.32,3.32,0,0,1,2.64-3.94l21.18-4.41a3.46,3.46,0,0,1,4.1,2.54l.63,2.77a3.32,3.32,0,0,1-2.64,3.94l-21.19,4.41A3.46,3.46,0,0,1,328,334.38Z"/><path class="3c1045e6-efe0-4179-a768-d2ccb23500f2" d="M329.52,333.52l-.4-1.76a2.11,2.11,0,0,1,1.68-2.5l19.89-4.14a2.2,2.2,0,0,1,2.6,1.61l.4,1.76A2.11,2.11,0,0,1,352,331l-19.89,4.14A2.2,2.2,0,0,1,329.52,333.52Z"/><path class="e444faa6-4bf7-4bf7-92d3-147bc4b3c356" d="M345,328.18c-4.06-18,7.84-35.75,26.59-39.65s37.24,7.53,41.3,25.53-7.84,35.75-26.59,39.65S349,346.18,345,328.18Z"/><path class="dea27261-d6f3-4352-a83d-1ed4e602d22a" d="M348.32,327.48c-3.66-16.21,7.06-32.2,24-35.71s33.54,6.78,37.2,23-7.07,32.2-24,35.71S352,343.69,348.32,327.48Z"/><path class="83a0af6d-3dbd-4e12-a3b6-6c077a63707d" d="M352.9,326.53c-3.11-13.79,6-27.38,20.37-30.37s28.52,5.77,31.63,19.55-6,27.38-20.37,30.37S356,340.31,352.9,326.53Z"/><path class="323ccd8a-431f-43b5-9aad-62afd6defa5e" d="M360.12,325c-2.25-10,4.34-19.78,14.71-21.93s20.6,4.17,22.85,14.12S393.34,337,383,339.15,362.37,335,360.12,325Z"/><path class="40c7d8fe-7b39-4cb2-a50f-ed2df83fc21f" d="M360.65,306.68a23.72,23.72,0,0,1,13.24-7.75c12.76-2.65,25.35,5.13,28.12,17.38a21.79,21.79,0,0,1-1.87,14.78,22.09,22.09,0,0,0,1-13c-2.81-12.45-15.59-20.35-28.56-17.65A24.2,24.2,0,0,0,360.65,306.68Z"/><path class="9c8c7344-10ef-49eb-b24b-06dd6bee3c96" d="M899.5,578c21.54-.17,97.27,6.78,108.87,9.48s12.7,16.46,12.62,22.07-7,7.09-6.86-2.39-.66-14.64-7.55-15.31-99.86-6.71-106.31-7S895.2,577.73,899.5,578Z"/><path class="9c8c7344-10ef-49eb-b24b-06dd6bee3c96" d="M1022.95,579.59c-21.53-.71-97.42,4.34-109.09,6.74s-13.14,16.13-13.22,21.74,6.79,7.27,6.92-2.22,1.06-14.62,8-15.11,100-4.2,106.47-4.29S1027.26,579.39,1022.95,579.59Z"/><path class="6ea9702b-8ae0-4276-92f0-fda528efc87c" d="M994.28,618.13c.6,0,1.22,0,1.86-.06,17.37-1,21.5-7.92,23.27-16.67,1.95-9.6,2-13,4.8-13.81,2-.62,2.5-2.77,2.38-5.28s-.21-2.78-3.63-3.88c-2.69-.87-17.57-2.28-28.67-1.82v2.59c8.76-.3,17.24.77,19.72,2.21,5.65,3.3,4.34,18.78-.21,26.4-3.15,5.28-11.73,7.88-19.51,7.88Zm-33.23-36.94c-3.84,0-19.62-4.23-30.81-5.25-.79-.07-1.61-.13-2.44-.19v2.6c9.08.5,18.51,2.46,21.83,6.83,5.43,7.15-3.71,24.29-12.21,28a24.33,24.33,0,0,1-9.62,1.66v2.45c15,.24,20.39-9.31,22.18-12.5,3.37-6,2.47-14.36,11.07-14.25s7.63,8.29,10.84,14.38c1.73,3.29,6.81,13.37,22.39,13.2v-2.44a24.89,24.89,0,0,1-10.22-1.91c-8.4-3.94-17.07-21.31-11.44-28.32,3.39-4.22,12.68-6,21.67-6.27v-2.59l-2,.11C982.21,577.38,970.09,581.11,961.05,581.19Zm-33.25-5.44c-11-.68-25.61.34-28.3,1.13-3.45,1-3.55,1.28-3.74,3.79S896,585.33,898,586c2.75.92,2.73,4.27,4.42,13.92,1.54,8.79,5.47,15.77,22.81,17.25.89.08,1.74.12,2.57.13v-2.45c-7.95,0-16.85-2.86-19.94-8.38-4.33-7.73-5.23-23.24.51-26.4,2.48-1.37,10.8-2.21,19.43-1.74Z"/><path class="1c28b995-0ad8-4dad-8549-b5a6495862b8" d="M908.37,580.09c5.1-2.8,34.79-3.42,41.26,5.09,5.43,7.15-3.71,24.29-12.21,28-8.25,3.62-25.06,1.31-29.56-6.71-4.33-7.73-5.23-23.24.51-26.4ZM1014,581.41c-5-2.93-34.69-4.29-41.38,4.05-5.63,7,3,24.38,11.44,28.32,8.15,3.82,25,1.94,29.73-6C1018.33,600.2,1019.65,584.71,1014,581.41Z"/><path class="980552c3-2482-459f-b18d-e6d001c6e35e" d="M911.23,579.18c9.1-1.91,32.72-1.47,38.4,6,3.81,5,.45,14.94-4.83,21.71Z"/><path class="980552c3-2482-459f-b18d-e6d001c6e35e" d="M977.4,582.17l34.2,28.23a11,11,0,0,0,2.19-2.59c4.54-7.62,5.86-23.1.21-26.4C1009.77,579,988.18,577.6,977.4,582.17Z"/><path class="a4d7cb5a-fe82-4403-beb7-f7cf705045bf" d="M1007,579.71c-7.45.21-16.24.6-25.41,1.09a23.31,23.31,0,0,0-6.49,2.55h0l0,0h0l0,0,0,0,0,0h0l0,0,0,0,0,0h0l-.09.06h0l0,0,0,0,0,0h0l0,0,0,0,0,0h0l0,0,0,0,0,0h0l0,0,0,0h0l0,0,0,0h0l-.07.05h0l0,0,0,0h0l0,0,0,0,0,0,0,0,0,0,0,0,0,0,0,0,0,0h0l0,0,0,0,0,0,0,0,0,0,0,0,0,0,0,0,0,0h0l0,0-.06.06h0l-.06.06,0,0h0l0,0,0,0h0l0,0,0,0,0,0h0l0,0,0,0,0,0h0l-.06.07,0,0v0l-.06.07h0l-.08.1,0,0h0l0,0,0,0h0l0,0h0l0,0h0l0,0,0,0v0l0,0h0l0,0h0l0,0,0,0v0l0,0h0l0,0a8.56,8.56,0,0,0-1.26,3.42c18,1.19,33,2.22,35.62,2.47,6.88.67,7.67,5.82,7.55,15.31v0a33.5,33.5,0,0,0,3.5-12.75,14.13,14.13,0,0,0-9.26-6.94c-.68-.16-1.57-.33-2.66-.51l11.47-.42c-.57-2.39-1.61-4.26-3.19-5.18-1.18-.69-3.72-1.29-7-1.7Zm-91.56-1.15c7.43.4,16.2,1,25.35,1.73a23.23,23.23,0,0,1,6.43,2.71h0l0,0h0l.22.15,0,0h0l0,0,0,0h0l0,0,0,0,0,0h0l0,0,0,0,0,0h0l0,0,0,0,0,0,0,0,0,0,0,0h0l0,0,0,0,0,0h0l0,0,0,0,0,0h0l0,0,0,0,0,0,0,0,0,0h0l0,0,0,0,0,0h0l0,0,0,0,0,0h0l0,0,0,0h0l0,0,0,0,0,0h0l0,0,0,0,0,0h0l0,0,0,0,0,0h0l0,0,0,0h0l0,0,0,0,0,0h0l0,0,0,0,0,0h0l0,0,0,.06v0l.06.07h0l0,0,.06.07,0,0h0l0,0,0,0h0l0,0h0l0,0h0l0,0,0,0v0l0,0h0l0,0h0l0,0,.05.08,0,0h0l0,0a8.62,8.62,0,0,1,1.14,3.41c-18,.74-33,1.39-35.64,1.58-6.9.5-7.83,5.63-8,15.11v.09a33.3,33.3,0,0,1-3.18-12.84,14.18,14.18,0,0,1,9.48-6.76c.68-.14,1.58-.29,2.67-.45l-11.49-.7c.64-2.37,1.72-4.21,3.33-5.1C909.57,579.43,912.13,578.89,915.43,578.56Z"/><path class="365ac0e5-c627-46a4-be6a-2468af2a58a4" d="M911.23,579.18l13.45,11.11c6.6-.3,16-.69,26.48-1.12a8.62,8.62,0,0,0-1.14-3.41l0,0h0l0,0-.05-.08,0,0h0l0,0h0l0,0v0l0,0,0,0h0l0,0h0l0,0h0l0,0,0,0h0l0,0-.06-.07,0,0h0l-.06-.07v0l0-.06,0,0h0l0,0,0,0,0,0h0l0,0,0,0,0,0h0l0,0,0,0h0l0,0,0,0,0,0h0l0,0,0,0,0,0h0l0,0,0,0,0,0h0l0,0,0,0h0l0,0,0,0,0,0h0l0,0,0,0,0,0h0l0,0,0,0,0,0,0,0,0,0h0l0,0,0,0,0,0h0l0,0,0,0,0,0h0l0,0,0,0,0,0,0,0,0,0,0,0h0l0,0,0,0,0,0h0l0,0,0,0,0,0h0l0,0,0,0h0l0,0-.22-.15h0l0,0h0a23.23,23.23,0,0,0-6.43-2.71c-9.15-.72-17.92-1.33-25.35-1.73A40.3,40.3,0,0,0,911.23,579.18Z"/><path class="365ac0e5-c627-46a4-be6a-2468af2a58a4" d="M1007,579.71c-7.45.21-16.24.6-25.41,1.09a28.72,28.72,0,0,0-4.18,1.37l10.1,8.34c10,.68,17.33,1.2,19.08,1.37,6.88.67,7.67,5.82,7.55,15.31v0a33.5,33.5,0,0,0,3.5-12.75,14.13,14.13,0,0,0-9.26-6.94c-.68-.16-1.57-.33-2.66-.51l11.47-.42c-.57-2.39-1.61-4.26-3.19-5.18C1012.81,580.72,1010.27,580.12,1007,579.71Z"/><path class="719a85fa-63e1-4aba-8c4f-7e89fea7bbf0" d="M862.06,543.87,854.18,561l-7.87-17.15V404a4.22,4.22,0,0,1,4.29-4.12h7.16a4.22,4.22,0,0,1,4.3,4.12Z"/><path class="c7fcc900-3ddb-49d7-9eb7-ff95a38a3243" d="M862.06,543.87,854.18,561V399.84h3.58a4.22,4.22,0,0,1,4.3,4.12Z"/><path class="e444faa6-4bf7-4bf7-92d3-147bc4b3c356" d="M862.06,543.87,854.18,561l-7.87-17.15V410a47,47,0,0,1,15.75,0Z"/><path class="d159a5c6-28c2-4e67-8264-473b2a199ff0" d="M862.06,543.87,854.18,561V409.38a45.39,45.39,0,0,1,7.87.66Z"/><path class="db8e7d9b-019b-4863-a1ca-4f8d6d5b97ec" d="M862.06,543.87,854.18,561l-7.87-17.15v-129a44,44,0,0,1,15.75,0Z"/><path class="b648fdb8-d0c4-4400-89df-0c396ad6ae06" d="M862.06,543.87,854.18,561V414.15a42,42,0,0,1,7.87.71Z"/><path class="dd88abd8-9a42-4724-a037-89844ffff2f5" d="M862.06,543.87,854.18,561l-7.87-17.15a45.58,45.58,0,0,1,15.75,0Z"/><path class="912b6d35-3c95-4e32-bb86-6964a29eb03e" d="M862.06,543.87,854.18,561V543.19A44.91,44.91,0,0,1,862.06,543.87Z"/><path class="a7a8f87d-8e42-4910-b6b9-55e2c7fd06fe" d="M856.78,555.36l-2.6,5.67-2.6-5.67a15,15,0,0,1,5.2,0Z"/><path class="e444faa6-4bf7-4bf7-92d3-147bc4b3c356" d="M1034,168.59l-32.66,0a11.08,11.08,0,0,1-11.25-10.82l.07-84.33a11.08,11.08,0,0,1,11.27-10.8l32.66,0a11.07,11.07,0,0,1,11.25,10.82l-.07,84.33A11.08,11.08,0,0,1,1034,168.59Z"/><rect x="994.09" y="77.34" width="47.13" height="80.17"/><path class="dea27261-d6f3-4352-a83d-1ed4e602d22a" d="M1028.23,162.73l-21.2,0a1,1,0,0,0-1,1h0a1,1,0,0,0,1,1l21.2,0a1,1,0,0,0,1-1h0A1,1,0,0,0,1028.23,162.73Z"/><polygon class="3111671f-5709-470a-8e6c-72c2ec2458da" points="1041.19 157.53 994.13 77.32 994.06 157.49 1041.19 157.53"/><path class="dea27261-d6f3-4352-a83d-1ed4e602d22a" d="M1035.56,68.31l-35.72,0a1.6,1.6,0,0,0-1.62,1.56h0a1.6,1.6,0,0,0,1.62,1.56l35.72,0a1.6,1.6,0,0,0,1.63-1.56h0A1.6,1.6,0,0,0,1035.56,68.31Z"/><ellipse class="facd9941-12f0-49a0-87f8-3a75b9d42bb2" cx="1017.72" cy="69.85" rx="6.36" ry="6.1"/><ellipse class="8504497f-c5af-4457-8b7c-86ba66325b8e" cx="1017.72" cy="69.85" rx="4.48" ry="4.3"/><rect class="3c37fe5f-3115-4c69-aac3-d6c9eb4fe2ab" x="327.25" y="399.84" width="222.93" height="136.51"/><rect class="facd9941-12f0-49a0-87f8-3a75b9d42bb2" x="336.85" y="400.89" width="100.12" height="134.21"/><ellipse class="9e650a41-e47a-43da-b7ce-c2d7bc2c5c0a" cx="432.66" cy="515.5" rx="2.59" ry="2.49"/><path class="b2665079-bef9-4070-8b3b-7271681042d1" d="M434.78,514.87a2.45,2.45,0,0,0-.29-1.14,2.44,2.44,0,0,1,.77,1.77,2.55,2.55,0,0,1-2.59,2.49,2.62,2.62,0,0,1-2.3-1.35,2.66,2.66,0,0,0,1.83.72A2.55,2.55,0,0,0,434.78,514.87Z"/><ellipse class="9e650a41-e47a-43da-b7ce-c2d7bc2c5c0a" cx="432.66" cy="505.49" rx="2.59" ry="2.49"/><path class="b2665079-bef9-4070-8b3b-7271681042d1" d="M434.78,504.87a2.45,2.45,0,0,0-.29-1.14,2.45,2.45,0,0,1,.77,1.77,2.55,2.55,0,0,1-2.59,2.49,2.61,2.61,0,0,1-2.3-1.35,2.65,2.65,0,0,0,1.83.72A2.55,2.55,0,0,0,434.78,504.87Z"/><ellipse class="9e650a41-e47a-43da-b7ce-c2d7bc2c5c0a" cx="432.66" cy="495.49" rx="2.59" ry="2.49"/><path class="b2665079-bef9-4070-8b3b-7271681042d1" d="M434.78,494.86a2.45,2.45,0,0,0-.29-1.14,2.45,2.45,0,0,1,.77,1.77,2.55,2.55,0,0,1-2.59,2.49,2.61,2.61,0,0,1-2.3-1.35,2.64,2.64,0,0,0,1.83.72A2.54,2.54,0,0,0,434.78,494.86Z"/><ellipse class="9e650a41-e47a-43da-b7ce-c2d7bc2c5c0a" cx="432.66" cy="485.49" rx="2.59" ry="2.49"/><path class="b2665079-bef9-4070-8b3b-7271681042d1" d="M434.78,484.86a2.45,2.45,0,0,0-.29-1.14,2.45,2.45,0,0,1,.77,1.77,2.55,2.55,0,0,1-2.59,2.49,2.61,2.61,0,0,1-2.3-1.35,2.65,2.65,0,0,0,1.83.72A2.54,2.54,0,0,0,434.78,484.86Z"/><ellipse class="9e650a41-e47a-43da-b7ce-c2d7bc2c5c0a" cx="432.66" cy="475.48" rx="2.59" ry="2.49"/><path class="b2665079-bef9-4070-8b3b-7271681042d1" d="M434.78,474.86a2.45,2.45,0,0,0-.29-1.14,2.45,2.45,0,0,1,.77,1.77,2.55,2.55,0,0,1-2.59,2.49,2.61,2.61,0,0,1-2.3-1.35,2.65,2.65,0,0,0,1.83.72A2.55,2.55,0,0,0,434.78,474.86Z"/><ellipse class="9e650a41-e47a-43da-b7ce-c2d7bc2c5c0a" cx="432.66" cy="465.48" rx="2.59" ry="2.49"/><path class="b2665079-bef9-4070-8b3b-7271681042d1" d="M434.78,464.85a2.44,2.44,0,0,0-.29-1.14,2.44,2.44,0,0,1,.77,1.77,2.55,2.55,0,0,1-2.59,2.49,2.61,2.61,0,0,1-2.3-1.35,2.65,2.65,0,0,0,1.83.72A2.55,2.55,0,0,0,434.78,464.85Z"/><ellipse class="9e650a41-e47a-43da-b7ce-c2d7bc2c5c0a" cx="432.66" cy="455.48" rx="2.59" ry="2.49"/><path class="b2665079-bef9-4070-8b3b-7271681042d1" d="M434.78,454.85a2.44,2.44,0,0,0-.29-1.14,2.44,2.44,0,0,1,.77,1.77,2.55,2.55,0,0,1-2.59,2.49,2.61,2.61,0,0,1-2.3-1.35,2.65,2.65,0,0,0,1.83.72A2.54,2.54,0,0,0,434.78,454.85Z"/><ellipse class="9e650a41-e47a-43da-b7ce-c2d7bc2c5c0a" cx="432.66" cy="445.48" rx="2.59" ry="2.49"/><path class="b2665079-bef9-4070-8b3b-7271681042d1" d="M434.78,444.85a2.45,2.45,0,0,0-.29-1.14,2.45,2.45,0,0,1,.77,1.77,2.55,2.55,0,0,1-2.59,2.49,2.61,2.61,0,0,1-2.3-1.35,2.65,2.65,0,0,0,1.83.72A2.55,2.55,0,0,0,434.78,444.85Z"/><ellipse class="9e650a41-e47a-43da-b7ce-c2d7bc2c5c0a" cx="432.66" cy="435.47" rx="2.59" ry="2.49"/><path class="b2665079-bef9-4070-8b3b-7271681042d1" d="M434.78,434.85a2.45,2.45,0,0,0-.29-1.14,2.45,2.45,0,0,1,.77,1.77,2.55,2.55,0,0,1-2.59,2.49,2.61,2.61,0,0,1-2.3-1.35,2.65,2.65,0,0,0,1.83.72A2.55,2.55,0,0,0,434.78,434.85Z"/><ellipse class="9e650a41-e47a-43da-b7ce-c2d7bc2c5c0a" cx="432.66" cy="425.47" rx="2.59" ry="2.49"/><path class="b2665079-bef9-4070-8b3b-7271681042d1" d="M434.78,424.84a2.44,2.44,0,0,0-.29-1.14,2.44,2.44,0,0,1,.77,1.77,2.54,2.54,0,0,1-2.59,2.49,2.61,2.61,0,0,1-2.3-1.35,2.65,2.65,0,0,0,1.83.72A2.54,2.54,0,0,0,434.78,424.84Z"/><ellipse class="9e650a41-e47a-43da-b7ce-c2d7bc2c5c0a" cx="432.66" cy="415.47" rx="2.59" ry="2.49"/><path class="b2665079-bef9-4070-8b3b-7271681042d1" d="M434.78,414.84a2.43,2.43,0,0,0-.29-1.14,2.44,2.44,0,0,1,.77,1.77,2.55,2.55,0,0,1-2.59,2.49,2.61,2.61,0,0,1-2.3-1.35,2.65,2.65,0,0,0,1.83.72A2.55,2.55,0,0,0,434.78,414.84Z"/><path class="990e3d39-60ca-43df-9eff-74beb2aa1b7b" d="M436.46,414.43h2.4a1.36,1.36,0,0,1,0,2.66h-2.4v-.7h2.4c.17,0,.36-.27.36-.63s-.19-.63-.36-.63h-2.4Zm-2.4,0h2.4v.7h-2.4c-.17,0-.37.27-.37.63s.19.63.37.63h2.4v.7h-2.4a1.36,1.36,0,0,1,0-2.66Z"/><path class="990e3d39-60ca-43df-9eff-74beb2aa1b7b" d="M436.46,424.37h2.4a1.36,1.36,0,0,1,0,2.66h-2.4v-.7h2.4c.17,0,.36-.27.36-.64s-.19-.63-.36-.63h-2.4Zm-2.4,0h2.4v.7h-2.4c-.17,0-.37.27-.37.63s.19.64.37.64h2.4v.7h-2.4a1.36,1.36,0,0,1,0-2.66Z"/><path class="990e3d39-60ca-43df-9eff-74beb2aa1b7b" d="M436.46,434.31h2.4a1.36,1.36,0,0,1,0,2.66h-2.4v-.7h2.4c.17,0,.36-.27.36-.63s-.19-.63-.36-.63h-2.4Zm-2.4,0h2.4v.7h-2.4c-.17,0-.37.27-.37.63s.19.63.37.63h2.4v.7h-2.4a1.36,1.36,0,0,1,0-2.66Z"/><path class="990e3d39-60ca-43df-9eff-74beb2aa1b7b" d="M436.46,444.24h2.4a1.36,1.36,0,0,1,0,2.66h-2.4v-.69h2.4c.17,0,.36-.27.36-.63s-.19-.64-.36-.64h-2.4Zm-2.4,0h2.4v.7h-2.4c-.17,0-.37.27-.37.64s.19.63.37.63h2.4v.69h-2.4a1.36,1.36,0,0,1,0-2.66Z"/><path class="990e3d39-60ca-43df-9eff-74beb2aa1b7b" d="M436.46,454.18h2.4a1.36,1.36,0,0,1,0,2.66h-2.4v-.7h2.4c.17,0,.36-.27.36-.63s-.19-.63-.36-.63h-2.4Zm-2.4,0h2.4v.7h-2.4c-.17,0-.37.27-.37.63s.19.63.37.63h2.4v.7h-2.4a1.36,1.36,0,0,1,0-2.66Z"/><path class="990e3d39-60ca-43df-9eff-74beb2aa1b7b" d="M436.46,464.11h2.4a1.36,1.36,0,0,1,0,2.66h-2.4v-.7h2.4c.17,0,.36-.27.36-.63s-.19-.63-.36-.63h-2.4Zm-2.4,0h2.4v.7h-2.4c-.17,0-.37.27-.37.63s.19.63.37.63h2.4v.7h-2.4a1.36,1.36,0,0,1,0-2.66Z"/><path class="990e3d39-60ca-43df-9eff-74beb2aa1b7b" d="M436.46,474h2.4a1.36,1.36,0,0,1,0,2.66h-2.4V476h2.4c.17,0,.36-.27.36-.63s-.19-.63-.36-.63h-2.4Zm-2.4,0h2.4v.7h-2.4c-.17,0-.37.27-.37.63s.19.63.37.63h2.4v.7h-2.4a1.36,1.36,0,0,1,0-2.66Z"/><path class="990e3d39-60ca-43df-9eff-74beb2aa1b7b" d="M436.46,484h2.4a1.36,1.36,0,0,1,0,2.66h-2.4V486h2.4c.17,0,.36-.27.36-.63s-.19-.63-.36-.63h-2.4Zm-2.4,0h2.4v.7h-2.4c-.17,0-.37.27-.37.63s.19.63.37.63h2.4v.7h-2.4a1.36,1.36,0,0,1,0-2.66Z"/><path class="990e3d39-60ca-43df-9eff-74beb2aa1b7b" d="M436.46,493.92h2.4a1.36,1.36,0,0,1,0,2.66h-2.4v-.7h2.4c.17,0,.36-.27.36-.63s-.19-.63-.36-.63h-2.4Zm-2.4,0h2.4v.7h-2.4c-.17,0-.37.27-.37.63s.19.63.37.63h2.4v.7h-2.4a1.36,1.36,0,0,1,0-2.66Z"/><path class="990e3d39-60ca-43df-9eff-74beb2aa1b7b" d="M436.46,503.86h2.4a1.36,1.36,0,0,1,0,2.66h-2.4v-.69h2.4c.17,0,.36-.27.36-.63s-.19-.63-.36-.63h-2.4Zm-2.4,0h2.4v.7h-2.4c-.17,0-.37.27-.37.63s.19.63.37.63h2.4v.69h-2.4a1.36,1.36,0,0,1,0-2.66Z"/><path class="990e3d39-60ca-43df-9eff-74beb2aa1b7b" d="M436.46,513.79h2.4a1.36,1.36,0,0,1,0,2.66h-2.4v-.69h2.4c.17,0,.36-.27.36-.63s-.19-.63-.36-.63h-2.4Zm-2.4,0h2.4v.7h-2.4c-.17,0-.37.27-.37.63s.19.63.37.63h2.4v.69h-2.4a1.36,1.36,0,0,1,0-2.66Z"/><rect class="61d76242-33de-4d64-9ca8-5f4c8fa473e5" x="346.76" y="421.96" width="81.81" height="0.21"/><rect class="61d76242-33de-4d64-9ca8-5f4c8fa473e5" x="346.76" y="426.73" width="81.81" height="0.21"/><rect class="61d76242-33de-4d64-9ca8-5f4c8fa473e5" x="346.76" y="431.48" width="81.81" height="0.2"/><rect class="61d76242-33de-4d64-9ca8-5f4c8fa473e5" x="346.76" y="436.25" width="81.81" height="0.2"/><rect class="61d76242-33de-4d64-9ca8-5f4c8fa473e5" x="346.76" y="441" width="81.81" height="0.21"/><rect class="61d76242-33de-4d64-9ca8-5f4c8fa473e5" x="346.76" y="445.76" width="81.81" height="0.21"/><rect class="61d76242-33de-4d64-9ca8-5f4c8fa473e5" x="346.76" y="450.52" width="81.81" height="0.21"/><rect class="61d76242-33de-4d64-9ca8-5f4c8fa473e5" x="346.76" y="455.28" width="81.81" height="0.21"/><rect class="61d76242-33de-4d64-9ca8-5f4c8fa473e5" x="346.76" y="460.04" width="81.81" height="0.2"/><rect class="61d76242-33de-4d64-9ca8-5f4c8fa473e5" x="346.76" y="464.8" width="81.81" height="0.21"/><rect class="61d76242-33de-4d64-9ca8-5f4c8fa473e5" x="346.76" y="469.56" width="81.81" height="0.2"/><rect class="61d76242-33de-4d64-9ca8-5f4c8fa473e5" x="346.76" y="474.33" width="81.81" height="0.2"/><rect class="61d76242-33de-4d64-9ca8-5f4c8fa473e5" x="346.76" y="479.08" width="81.81" height="0.2"/><rect class="61d76242-33de-4d64-9ca8-5f4c8fa473e5" x="346.76" y="483.84" width="81.81" height="0.21"/><rect class="61d76242-33de-4d64-9ca8-5f4c8fa473e5" x="346.76" y="488.6" width="81.81" height="0.21"/><rect class="61d76242-33de-4d64-9ca8-5f4c8fa473e5" x="346.76" y="493.36" width="81.81" height="0.2"/><rect class="61d76242-33de-4d64-9ca8-5f4c8fa473e5" x="346.76" y="498.12" width="81.81" height="0.2"/><rect class="61d76242-33de-4d64-9ca8-5f4c8fa473e5" x="346.76" y="502.88" width="81.81" height="0.21"/><rect class="61d76242-33de-4d64-9ca8-5f4c8fa473e5" x="346.76" y="507.64" width="81.81" height="0.21"/><rect class="61d76242-33de-4d64-9ca8-5f4c8fa473e5" x="346.76" y="512.4" width="81.81" height="0.21"/><rect class="61d76242-33de-4d64-9ca8-5f4c8fa473e5" x="362.45" y="517.16" width="66.11" height="0.2"/><path class="f71262c5-9320-4e0d-9f4e-5af4ae3d5a16" d="M537.34,431.78h2.45c3.82,0,6.91-2.54,6.91-5.68V406.57c0-3.14-3.09-5.68-6.91-5.68h-2.45Z"/><path class="986d8a5c-0641-4a32-a49d-7c56958f3fb3" d="M537.34,453.8h2.45c3.82,0,6.91-2.54,6.91-5.68V428.59c0-3.14-3.09-5.68-6.91-5.68h-2.45Z"/><path class="53e7fa1d-b2ee-4145-ad6e-04ba8bd6df5a" d="M537.34,475.68h2.45c3.82,0,6.91-2.54,6.91-5.68V450.47c0-3.14-3.09-5.68-6.91-5.68h-2.45Z"/><rect class="8504497f-c5af-4457-8b7c-86ba66325b8e" x="438.59" y="400.89" width="100.12" height="134.21"/><polygon class="facd9941-12f0-49a0-87f8-3a75b9d42bb2" points="538.71 400.89 438.58 400.89 438.58 535.1 512.59 535.1 538.71 518.84 538.71 400.89"/><path class="171253ff-4e92-44d5-91da-174292b35c38" d="M512.59,535.1s7.09-7,5.74-16.8c0,0,11.58,3.39,20.38.55Z"/><ellipse class="9e650a41-e47a-43da-b7ce-c2d7bc2c5c0a" cx="442.89" cy="515.5" rx="2.59" ry="2.49"/><path class="b2665079-bef9-4070-8b3b-7271681042d1" d="M440.78,514.87a2.46,2.46,0,0,1,.29-1.14,2.45,2.45,0,0,0-.77,1.77,2.55,2.55,0,0,0,2.6,2.49,2.61,2.61,0,0,0,2.3-1.35,2.65,2.65,0,0,1-1.82.72A2.55,2.55,0,0,1,440.78,514.87Z"/><ellipse class="9e650a41-e47a-43da-b7ce-c2d7bc2c5c0a" cx="442.89" cy="505.49" rx="2.59" ry="2.49"/><path class="b2665079-bef9-4070-8b3b-7271681042d1" d="M440.78,504.87a2.45,2.45,0,0,1,.29-1.14,2.45,2.45,0,0,0-.77,1.77,2.55,2.55,0,0,0,2.6,2.49,2.61,2.61,0,0,0,2.3-1.35,2.64,2.64,0,0,1-1.82.72A2.55,2.55,0,0,1,440.78,504.87Z"/><ellipse class="9e650a41-e47a-43da-b7ce-c2d7bc2c5c0a" cx="442.89" cy="495.49" rx="2.59" ry="2.49"/><path class="b2665079-bef9-4070-8b3b-7271681042d1" d="M440.78,494.86a2.46,2.46,0,0,1,.29-1.14,2.46,2.46,0,0,0-.77,1.77,2.55,2.55,0,0,0,2.6,2.49,2.61,2.61,0,0,0,2.3-1.35,2.63,2.63,0,0,1-1.82.72A2.55,2.55,0,0,1,440.78,494.86Z"/><ellipse class="9e650a41-e47a-43da-b7ce-c2d7bc2c5c0a" cx="442.89" cy="485.49" rx="2.59" ry="2.49"/><path class="b2665079-bef9-4070-8b3b-7271681042d1" d="M440.78,484.86a2.46,2.46,0,0,1,.29-1.14,2.46,2.46,0,0,0-.77,1.77,2.55,2.55,0,0,0,2.6,2.49,2.61,2.61,0,0,0,2.3-1.35,2.65,2.65,0,0,1-1.82.72A2.55,2.55,0,0,1,440.78,484.86Z"/><ellipse class="9e650a41-e47a-43da-b7ce-c2d7bc2c5c0a" cx="442.89" cy="475.48" rx="2.59" ry="2.49"/><path class="b2665079-bef9-4070-8b3b-7271681042d1" d="M440.78,474.86a2.45,2.45,0,0,1,.29-1.14,2.46,2.46,0,0,0-.77,1.77,2.55,2.55,0,0,0,2.6,2.49,2.61,2.61,0,0,0,2.3-1.35,2.64,2.64,0,0,1-1.82.72A2.55,2.55,0,0,1,440.78,474.86Z"/><ellipse class="9e650a41-e47a-43da-b7ce-c2d7bc2c5c0a" cx="442.89" cy="465.48" rx="2.59" ry="2.49"/><path class="b2665079-bef9-4070-8b3b-7271681042d1" d="M440.78,464.85a2.45,2.45,0,0,1,.29-1.14,2.45,2.45,0,0,0-.77,1.77,2.55,2.55,0,0,0,2.6,2.49,2.61,2.61,0,0,0,2.3-1.35,2.64,2.64,0,0,1-1.82.72A2.55,2.55,0,0,1,440.78,464.85Z"/><ellipse class="9e650a41-e47a-43da-b7ce-c2d7bc2c5c0a" cx="442.89" cy="455.48" rx="2.59" ry="2.49"/><path class="b2665079-bef9-4070-8b3b-7271681042d1" d="M440.78,454.85a2.45,2.45,0,0,1,.29-1.14,2.45,2.45,0,0,0-.77,1.77,2.55,2.55,0,0,0,2.6,2.49,2.6,2.6,0,0,0,2.3-1.35,2.64,2.64,0,0,1-1.82.72A2.55,2.55,0,0,1,440.78,454.85Z"/><ellipse class="9e650a41-e47a-43da-b7ce-c2d7bc2c5c0a" cx="442.89" cy="445.48" rx="2.59" ry="2.49"/><path class="b2665079-bef9-4070-8b3b-7271681042d1" d="M440.78,444.85a2.46,2.46,0,0,1,.29-1.14,2.46,2.46,0,0,0-.77,1.77,2.55,2.55,0,0,0,2.6,2.49,2.61,2.61,0,0,0,2.3-1.35,2.64,2.64,0,0,1-1.82.72A2.55,2.55,0,0,1,440.78,444.85Z"/><ellipse class="9e650a41-e47a-43da-b7ce-c2d7bc2c5c0a" cx="442.89" cy="435.47" rx="2.59" ry="2.49"/><path class="b2665079-bef9-4070-8b3b-7271681042d1" d="M440.78,434.85a2.46,2.46,0,0,1,.29-1.14,2.46,2.46,0,0,0-.77,1.77,2.55,2.55,0,0,0,2.6,2.49,2.61,2.61,0,0,0,2.3-1.35,2.64,2.64,0,0,1-1.82.72A2.55,2.55,0,0,1,440.78,434.85Z"/><ellipse class="9e650a41-e47a-43da-b7ce-c2d7bc2c5c0a" cx="442.89" cy="425.47" rx="2.59" ry="2.49"/><path class="b2665079-bef9-4070-8b3b-7271681042d1" d="M440.78,424.84a2.44,2.44,0,0,1,.29-1.14,2.45,2.45,0,0,0-.77,1.77,2.55,2.55,0,0,0,2.6,2.49,2.61,2.61,0,0,0,2.3-1.35,2.64,2.64,0,0,1-1.82.72A2.55,2.55,0,0,1,440.78,424.84Z"/><ellipse class="9e650a41-e47a-43da-b7ce-c2d7bc2c5c0a" cx="442.89" cy="415.47" rx="2.59" ry="2.49"/><path class="b2665079-bef9-4070-8b3b-7271681042d1" d="M440.78,414.84a2.44,2.44,0,0,1,.29-1.14,2.45,2.45,0,0,0-.77,1.77,2.55,2.55,0,0,0,2.6,2.49,2.61,2.61,0,0,0,2.3-1.35,2.64,2.64,0,0,1-1.82.72A2.55,2.55,0,0,1,440.78,414.84Z"/><path class="990e3d39-60ca-43df-9eff-74beb2aa1b7b" d="M442.58,415.76a1.21,1.21,0,0,1-1.09,1.33h-2.4v-.7h2.4c.17,0,.37-.27.37-.63s-.19-.63-.37-.63h-2.4v-.7h2.4A1.21,1.21,0,0,1,442.58,415.76Zm-3.49,1.33h-2.4a1.36,1.36,0,0,1,0-2.66h2.4v.7h-2.4c-.17,0-.36.27-.36.63h0c0,.36.19.63.36.63h2.4Z"/><path class="990e3d39-60ca-43df-9eff-74beb2aa1b7b" d="M442.58,425.7a1.22,1.22,0,0,1-1.09,1.33h-2.4v-.7h2.4c.17,0,.37-.27.37-.64s-.19-.63-.37-.63h-2.4v-.7h2.4A1.22,1.22,0,0,1,442.58,425.7ZM439.1,427h-2.4a1.36,1.36,0,0,1,0-2.66h2.4v.7h-2.4c-.17,0-.36.27-.36.63h0c0,.36.19.64.36.64h2.4Z"/><path class="990e3d39-60ca-43df-9eff-74beb2aa1b7b" d="M442.58,435.64a1.21,1.21,0,0,1-1.09,1.33h-2.4v-.7h2.4c.17,0,.37-.27.37-.63s-.19-.63-.37-.63h-2.4v-.7h2.4A1.21,1.21,0,0,1,442.58,435.64ZM439.1,437h-2.4a1.36,1.36,0,0,1,0-2.66h2.4v.7h-2.4c-.17,0-.36.27-.36.63h0c0,.36.19.63.36.63h2.4Z"/><path class="990e3d39-60ca-43df-9eff-74beb2aa1b7b" d="M442.58,445.57a1.21,1.21,0,0,1-1.09,1.33h-2.4v-.69h2.4c.17,0,.37-.27.37-.63s-.19-.64-.37-.64h-2.4v-.7h2.4A1.22,1.22,0,0,1,442.58,445.57Zm-3.49,1.33h-2.4a1.36,1.36,0,0,1,0-2.66h2.4v.7h-2.4c-.17,0-.36.27-.36.64h0c0,.36.19.63.36.63h2.4Z"/><path class="990e3d39-60ca-43df-9eff-74beb2aa1b7b" d="M442.58,455.51a1.21,1.21,0,0,1-1.09,1.33h-2.4v-.7h2.4c.17,0,.37-.27.37-.63s-.19-.63-.37-.63h-2.4v-.7h2.4A1.22,1.22,0,0,1,442.58,455.51Zm-3.49,1.33h-2.4a1.36,1.36,0,0,1,0-2.66h2.4v.7h-2.4c-.17,0-.36.27-.36.63h0c0,.36.19.63.36.63h2.4Z"/><path class="990e3d39-60ca-43df-9eff-74beb2aa1b7b" d="M442.58,465.44a1.21,1.21,0,0,1-1.09,1.33h-2.4v-.7h2.4c.17,0,.37-.27.37-.63s-.19-.63-.37-.63h-2.4v-.7h2.4A1.22,1.22,0,0,1,442.58,465.44Zm-3.49,1.33h-2.4a1.36,1.36,0,0,1,0-2.66h2.4v.7h-2.4c-.17,0-.36.27-.36.63h0c0,.36.19.63.36.63h2.4Z"/><path class="990e3d39-60ca-43df-9eff-74beb2aa1b7b" d="M442.58,475.38a1.21,1.21,0,0,1-1.09,1.33h-2.4V476h2.4c.17,0,.37-.27.37-.63s-.19-.63-.37-.63h-2.4V474h2.4A1.22,1.22,0,0,1,442.58,475.38Zm-3.49,1.33h-2.4a1.36,1.36,0,0,1,0-2.66h2.4v.7h-2.4c-.17,0-.36.27-.36.63h0c0,.36.19.63.36.63h2.4Z"/><path class="990e3d39-60ca-43df-9eff-74beb2aa1b7b" d="M442.58,485.32a1.21,1.21,0,0,1-1.09,1.33h-2.4V486h2.4c.17,0,.37-.27.37-.63s-.19-.63-.37-.63h-2.4V484h2.4A1.22,1.22,0,0,1,442.58,485.32Zm-3.49,1.33h-2.4a1.36,1.36,0,0,1,0-2.66h2.4v.7h-2.4c-.17,0-.36.27-.36.63h0c0,.36.19.63.36.63h2.4Z"/><path class="990e3d39-60ca-43df-9eff-74beb2aa1b7b" d="M442.58,495.25a1.21,1.21,0,0,1-1.09,1.33h-2.4v-.7h2.4c.17,0,.37-.27.37-.63s-.19-.63-.37-.63h-2.4v-.7h2.4A1.22,1.22,0,0,1,442.58,495.25Zm-3.49,1.33h-2.4a1.36,1.36,0,0,1,0-2.66h2.4v.7h-2.4c-.17,0-.36.27-.36.63h0c0,.36.19.63.36.63h2.4Z"/><path class="990e3d39-60ca-43df-9eff-74beb2aa1b7b" d="M442.58,505.19a1.21,1.21,0,0,1-1.09,1.33h-2.4v-.69h2.4c.17,0,.37-.27.37-.63s-.19-.63-.37-.63h-2.4v-.7h2.4A1.22,1.22,0,0,1,442.58,505.19Zm-3.49,1.33h-2.4a1.36,1.36,0,0,1,0-2.66h2.4v.7h-2.4c-.17,0-.36.27-.36.63h0c0,.36.19.63.36.63h2.4Z"/><path class="990e3d39-60ca-43df-9eff-74beb2aa1b7b" d="M442.58,515.13a1.21,1.21,0,0,1-1.09,1.33h-2.4v-.69h2.4c.17,0,.37-.27.37-.63s-.19-.63-.37-.63h-2.4v-.7h2.4A1.22,1.22,0,0,1,442.58,515.13Zm-3.49,1.33h-2.4a1.36,1.36,0,0,1,0-2.66h2.4v.7h-2.4c-.17,0-.36.27-.36.63h0c0,.36.19.63.36.63h2.4Z"/><rect class="61d76242-33de-4d64-9ca8-5f4c8fa473e5" x="447" y="421.96" width="81.81" height="0.21"/><rect class="61d76242-33de-4d64-9ca8-5f4c8fa473e5" x="447" y="426.73" width="81.81" height="0.21"/><rect class="61d76242-33de-4d64-9ca8-5f4c8fa473e5" x="447" y="431.48" width="81.81" height="0.2"/><rect class="61d76242-33de-4d64-9ca8-5f4c8fa473e5" x="447" y="436.25" width="81.81" height="0.2"/><rect class="61d76242-33de-4d64-9ca8-5f4c8fa473e5" x="447" y="441" width="81.81" height="0.21"/><rect class="61d76242-33de-4d64-9ca8-5f4c8fa473e5" x="447" y="445.76" width="81.81" height="0.21"/><rect class="61d76242-33de-4d64-9ca8-5f4c8fa473e5" x="447" y="450.52" width="81.81" height="0.21"/><rect class="61d76242-33de-4d64-9ca8-5f4c8fa473e5" x="447" y="455.28" width="81.81" height="0.21"/><rect class="61d76242-33de-4d64-9ca8-5f4c8fa473e5" x="447" y="460.04" width="81.81" height="0.2"/><rect class="61d76242-33de-4d64-9ca8-5f4c8fa473e5" x="447" y="464.8" width="81.81" height="0.21"/><rect class="61d76242-33de-4d64-9ca8-5f4c8fa473e5" x="447" y="469.56" width="81.81" height="0.2"/><rect class="61d76242-33de-4d64-9ca8-5f4c8fa473e5" x="447" y="474.33" width="81.81" height="0.2"/><rect class="61d76242-33de-4d64-9ca8-5f4c8fa473e5" x="447" y="479.08" width="81.81" height="0.2"/><rect class="61d76242-33de-4d64-9ca8-5f4c8fa473e5" x="447" y="483.84" width="81.81" height="0.21"/><rect class="61d76242-33de-4d64-9ca8-5f4c8fa473e5" x="447" y="488.6" width="81.81" height="0.21"/><rect class="61d76242-33de-4d64-9ca8-5f4c8fa473e5" x="447" y="493.36" width="81.81" height="0.2"/><rect class="61d76242-33de-4d64-9ca8-5f4c8fa473e5" x="447" y="498.12" width="81.81" height="0.2"/><rect class="61d76242-33de-4d64-9ca8-5f4c8fa473e5" x="447" y="502.88" width="81.81" height="0.21"/><rect class="61d76242-33de-4d64-9ca8-5f4c8fa473e5" x="447" y="507.64" width="81.81" height="0.21"/><rect class="61d76242-33de-4d64-9ca8-5f4c8fa473e5" x="447" y="512.4" width="81.81" height="0.21"/><rect class="61d76242-33de-4d64-9ca8-5f4c8fa473e5" x="447" y="517.16" width="66.11" height="0.2"/><rect class="facd9941-12f0-49a0-87f8-3a75b9d42bb2" x="936.46" y="292.67" width="28.55" height="13.39"/><path class="1ced64be-5bfc-4daf-a583-3469941ba16a" d="M950.2,285.79h39a11,11,0,0,1,11.2,10.75v4a11,11,0,0,1-11.2,10.75h-39Z"/><path class="b648fdb8-d0c4-4400-89df-0c396ad6ae06" d="M950.2,289.94h36.36a7.44,7.44,0,0,1,7.56,7.26v2.72a7.44,7.44,0,0,1-7.56,7.26H950.2Z"/><path class="1ced64be-5bfc-4daf-a583-3469941ba16a" d="M913.3,285.79H925v25.54H913.3a11,11,0,0,1-11.2-10.75v-4A11,11,0,0,1,913.3,285.79Z"/><path class="b648fdb8-d0c4-4400-89df-0c396ad6ae06" d="M915.9,289.94H925v17.24H915.9a7.44,7.44,0,0,1-7.56-7.26V297.2A7.44,7.44,0,0,1,915.9,289.94Z"/><ellipse class="17c15e1e-d91e-46de-aaa6-5a76da3243c9" cx="939.71" cy="296.65" rx="1.44" ry="1.38"/><ellipse class="17c15e1e-d91e-46de-aaa6-5a76da3243c9" cx="939.71" cy="302.51" rx="1.44" ry="1.38"/><path class="3d00089b-b0ea-4449-a768-492b512d9e1e" d="M956.89,87.44a1.28,1.28,0,0,1,2.55,0v4.9a1.28,1.28,0,0,1-2.55,0Z"/><path class="f71262c5-9320-4e0d-9f4e-5af4ae3d5a16" d="M952.3,98.24c0-4.42,2.62-8,5.84-8s5.84,3.58,5.84,8V240.43c0,4.42-2.61,8-5.84,8s-5.84-3.58-5.85-8Z"/><path class="e572f657-7ff9-472d-a6fe-95a9de450675" d="M950.81,106.35a7.38,7.38,0,0,1,14.74,0V234a7.38,7.38,0,0,1-14.74,0Z"/><path class="f71262c5-9320-4e0d-9f4e-5af4ae3d5a16" d="M950.82,232.37l-4.25-8.71V185.27a12.72,12.72,0,0,1,2.83-3.53v31.84a17.08,17.08,0,0,0,16.73,1.09v18S958.19,237,950.82,232.37Z"/><path class="8a71c4f7-7918-4fba-b9ae-528bfa63685b" d="M903.29,211.33V198.08c0-.51.44-.6,1-.19l3.88,2.95a2.5,2.5,0,0,1,1,1.67v13.24c0,.51-.44.6-1,.19L904.26,213A2.49,2.49,0,0,1,903.29,211.33Z"/><path class="e444faa6-4bf7-4bf7-92d3-147bc4b3c356" d="M902.18,208.23V189.9a1.32,1.32,0,0,1,1.34-1.29h5.37a1.32,1.32,0,0,1,1.34,1.29v18.33a1.32,1.32,0,0,1-1.34,1.29h-5.37A1.32,1.32,0,0,1,902.18,208.23Z"/><path class="e444faa6-4bf7-4bf7-92d3-147bc4b3c356" d="M896.52,197.78V136.49a3.17,3.17,0,0,1,3.23-3.1h12.9a3.17,3.17,0,0,1,3.23,3.1v61.29c0,3.53-4.19,5.87-5.38,5.87h-8.6C900.72,203.65,896.52,201.32,896.52,197.78Z"/><path class="e1b65597-6ee3-45aa-b019-e895fb1deb3e" d="M894,195.59V138.68a2.25,2.25,0,0,1,2.29-2.19h19.88a2.25,2.25,0,0,1,2.29,2.19v56.91a2.25,2.25,0,0,1-2.28,2.19H896.26A2.25,2.25,0,0,1,894,195.59Z"/><rect class="9119fbd4-c53d-44d4-904c-2bdbdd5a45f8" x="893.98" y="139.65" width="24.45" height="54.97"/><path class="e1b65597-6ee3-45aa-b019-e895fb1deb3e" d="M894,244.29V223.16a2.25,2.25,0,0,1,2.29-2.19h19.88a2.25,2.25,0,0,1,2.29,2.19v21.13a2.25,2.25,0,0,1-2.29,2.19H896.26A2.25,2.25,0,0,1,894,244.29Z"/><path class="0a0a03db-c1bb-4003-ba68-405eea83f87c" d="M896.37,226.38v20.29a1.81,1.81,0,0,0,1.84,1.76h16a1.81,1.81,0,0,0,1.84-1.76V226.38a1.81,1.81,0,0,0-1.84-1.76h-16A1.81,1.81,0,0,0,896.37,226.38Z"/><path class="facd9941-12f0-49a0-87f8-3a75b9d42bb2" d="M545.06,262.55c-28.55,10.63-65,17.8-96.08,16.14a132,132,0,0,1-19.37-2.39v-2.46a128.57,128.57,0,0,0,19.51,2.45c30.68,1.64,66.78-5.46,95-16l.9,2.24ZM429.61,145.84a34.84,34.84,0,0,1,5.51-1.33,31.68,31.68,0,0,1,27.53,9c6.67,6.73,10.06,16.26,7.82,25.7-2.68,11.3-13.37,22.44-36.09,28.4q-2.44.64-4.77,1.12v-2.47q2-.43,4.11-1c21.66-5.68,31.81-16.1,34.3-26.6,2-8.62-1.07-17.34-7.19-23.52a29.14,29.14,0,0,0-25.31-8.26,32.58,32.58,0,0,0-5.92,1.51Zm0,130.46c-9.41-1.93-17.9-5-25-9.35-11.78-7.29-19.61-18.21-21.22-33.66-1-9.19.3-20,4.26-32.58a43.71,43.71,0,0,1-5.48-5.48c-5.58-6.63-9.56-15.08-12.26-24.56-8.28-29.1-4.51-68.14,2.17-94.11l2.52-11.35,1.51,4.5-1.6,7.43c-6.61,25.67-10.35,64.23-2.18,92.9,2.61,9.18,6.44,17.33,11.78,23.68a41.64,41.64,0,0,0,4.36,4.47q1.48-4.39,3.39-9.07c10.69-26.13,24.58-39,37.72-43.28v2.55c-12.26,4.36-25.22,16.77-35.38,41.61q-2.1,5.12-3.66,9.89a37.49,37.49,0,0,0,14.26,6.71c7,1.66,15.2,1.67,24.78-.36v2.47c-9.74,2-18.15,1.95-25.38.23a40,40,0,0,1-14.44-6.58c-3.63,11.86-4.77,22-3.87,30.69,1.52,14.65,8.94,25,20.09,31.88a73.63,73.63,0,0,0,23.61,8.91Z"/><path class="3c1045e6-efe0-4179-a768-d2ccb23500f2" d="M372.44,112c-15.49,2.85-31.2-10.61-35.08-30.08s5.52-37.55,21-40.4,31.2,10.61,35.08,30.08S387.93,109.14,372.44,112Z"/><path class="e444faa6-4bf7-4bf7-92d3-147bc4b3c356" d="M372,110c-12.83,2.36-25.83-8.79-29.05-24.91S347.55,54,360.38,51.6s25.83,8.79,29.05,24.91S384.87,107.6,372,110Z"/><path class="3111671f-5709-470a-8e6c-72c2ec2458da" d="M372.44,112l-.6.1-3.68-18.4,1.19-.22,3.68,18.4Z"/><path class="3111671f-5709-470a-8e6c-72c2ec2458da" d="M373.67,106.84l-4.35.8a1.81,1.81,0,0,1-2.12-1.38l-3.79-19a1.75,1.75,0,0,1,1.44-2l4.35-.8a1.81,1.81,0,0,1,2.12,1.38l3.79,19A1.75,1.75,0,0,1,373.67,106.84Z"/><path class="dea27261-d6f3-4352-a83d-1ed4e602d22a" d="M372.43,105.68l-2.39.44a1,1,0,0,1-1.17-.76L365.3,87.51a1,1,0,0,1,.79-1.12l2.39-.44a1,1,0,0,1,1.17.76l3.57,17.86A1,1,0,0,1,372.43,105.68Z"/><rect class="fef359ec-dc2f-4bc3-9606-330e2c4a1a5e" x="990.49" y="190.68" width="54.4" height="52.23"/><polygon class="97d0dea9-9525-4979-9b36-22c23d63efa3" points="990.49 208.05 990.49 190.68 1002.12 190.68 990.49 208.05"/><path class="f7aa5747-796a-4523-a3c2-0481b540e3d0" d="M990.49,208.05c5.07-2.4,10.11-3.48,15.08-2.31-3.25-4.44-4.06-9.55-3.45-15.06Z"/><rect class="e572f657-7ff9-472d-a6fe-95a9de450675" x="990.49" y="236.65" width="54.4" height="6.26"/><rect class="9119fbd4-c53d-44d4-904c-2bdbdd5a45f8" x="895.73" y="399.84" width="130.86" height="20.36"/><rect class="fef359ec-dc2f-4bc3-9606-330e2c4a1a5e" x="902.72" y="399.84" width="116.88" height="4.4"/><rect class="fef359ec-dc2f-4bc3-9606-330e2c4a1a5e" x="1013.01" y="399.84" width="2.49" height="10.18"/><rect class="fef359ec-dc2f-4bc3-9606-330e2c4a1a5e" x="1004.84" y="399.84" width="2.49" height="10.18"/><rect class="fef359ec-dc2f-4bc3-9606-330e2c4a1a5e" x="996.67" y="399.84" width="2.49" height="10.18"/><rect class="fef359ec-dc2f-4bc3-9606-330e2c4a1a5e" x="988.51" y="399.84" width="2.49" height="10.18"/><rect class="fef359ec-dc2f-4bc3-9606-330e2c4a1a5e" x="980.34" y="399.84" width="2.49" height="10.18"/><rect class="fef359ec-dc2f-4bc3-9606-330e2c4a1a5e" x="972.17" y="399.84" width="2.49" height="10.18"/><rect class="fef359ec-dc2f-4bc3-9606-330e2c4a1a5e" x="964" y="399.84" width="2.49" height="10.18"/><rect class="fef359ec-dc2f-4bc3-9606-330e2c4a1a5e" x="955.83" y="399.84" width="2.49" height="10.18"/><rect class="fef359ec-dc2f-4bc3-9606-330e2c4a1a5e" x="947.66" y="399.84" width="2.49" height="10.18"/><rect class="fef359ec-dc2f-4bc3-9606-330e2c4a1a5e" x="939.49" y="399.84" width="2.49" height="10.18"/><rect class="fef359ec-dc2f-4bc3-9606-330e2c4a1a5e" x="931.32" y="399.84" width="2.49" height="10.18"/><rect class="fef359ec-dc2f-4bc3-9606-330e2c4a1a5e" x="923.16" y="399.84" width="2.49" height="10.18"/><rect class="fef359ec-dc2f-4bc3-9606-330e2c4a1a5e" x="914.99" y="399.84" width="2.49" height="10.18"/><rect class="fef359ec-dc2f-4bc3-9606-330e2c4a1a5e" x="906.82" y="399.84" width="2.49" height="10.18"/><polygon class="449c1224-a962-47dd-a113-9e2d8873d901" points="403.12 663.47 378.44 677.79 327.62 597.03 352.3 582.71 403.12 663.47"/><polygon class="3779e22b-04e1-44a4-826c-820ad52e063f" points="393.91 648.84 369.23 663.16 360.39 649.11 385.07 634.79 393.91 648.84"/><polygon class="ff6bc761-8a64-4f32-8eed-da7dd6b13ceb" points="382.87 631.28 358.18 645.6 349.34 631.56 374.03 617.24 382.87 631.28"/><polygon class="eba483c9-eb98-44df-88ac-c121ce8a075e" points="371.82 613.73 347.13 628.05 338.3 614 362.98 599.68 371.82 613.73"/><polygon class="30744ff0-d984-4350-94d0-9e0a4b6d9977" points="360.77 596.17 336.09 610.49 327.25 596.45 351.93 582.13 360.77 596.17"/><polygon class="449c1224-a962-47dd-a113-9e2d8873d901" points="402.16 665.61 374.39 673.08 347.89 582.23 375.66 574.76 402.16 665.61"/><polygon class="2d081232-20fc-4434-ac5b-364c82fb189c" points="397.36 649.15 369.59 656.62 364.98 640.82 392.75 633.35 397.36 649.15"/><polygon class="73c55511-ae11-4e74-b3bf-31bebc594e0b" points="391.6 629.4 363.83 636.87 359.22 621.07 386.99 613.6 391.6 629.4"/><polygon class="0979fee8-4a6a-4abe-a555-4bfa5cdf625d" points="385.84 609.65 358.07 617.12 353.46 601.32 381.23 593.85 385.84 609.65"/><polygon class="87d332e3-0ff3-44c5-b893-61447e94f077" points="380.08 589.9 352.31 597.37 347.7 581.57 375.47 574.1 380.08 589.9"/><rect class="449c1224-a962-47dd-a113-9e2d8873d901" x="371.68" y="573.12" width="28.84" height="94.35" transform="translate(-1.63 1.02) rotate(-0.15)"/><rect class="64781974-6938-4c4f-9610-062ddf566533" x="371.74" y="633.97" width="28.84" height="16.41" transform="translate(-1.71 1.03) rotate(-0.15)"/><rect class="6e08567e-2725-4b25-9c9a-cf119833030d" x="371.68" y="613.46" width="28.84" height="16.41" transform="translate(-1.62 1.01) rotate(-0.15)"/><rect class="1741935b-b924-4954-a1b1-66b73747aeb0" x="371.62" y="592.95" width="28.84" height="16.41" transform="translate(-1.58 1.02) rotate(-0.15)"/><rect class="65bab3a3-f283-42b7-b29f-245cab267a4a" x="371.56" y="572.44" width="28.84" height="16.41" transform="translate(-1.51 1.01) rotate(-0.15)"/><polygon class="449c1224-a962-47dd-a113-9e2d8873d901" points="398.68 668.8 370.87 661.48 396.86 570.49 424.67 577.81 398.68 668.8"/><polygon class="b0875afb-1cb6-4414-965a-4463bfdbc884" points="403.39 652.31 375.58 644.99 380.1 629.17 407.91 636.49 403.39 652.31"/><polygon class="5d5e3ea5-e352-4eac-b807-a525b2459049" points="409.04 632.53 381.23 625.21 385.75 609.38 413.56 616.71 409.04 632.53"/><polygon class="6f77a67d-154d-446c-9ba9-decf90b3f421" points="414.69 612.75 386.88 605.43 391.4 589.61 419.21 596.93 414.69 612.75"/><polygon class="215458da-c9f9-4e87-b62c-9f914f802033" points="420.34 592.97 392.52 585.65 397.05 569.83 424.86 577.15 420.34 592.97"/><polygon class="449c1224-a962-47dd-a113-9e2d8873d901" points="396.41 669.61 371.64 655.42 422 574.4 446.77 588.59 396.41 669.61"/><polygon class="83adb894-7021-4b1a-9355-7fef7d573662" points="405.53 654.93 380.76 640.74 389.52 626.65 414.29 640.84 405.53 654.93"/><polygon class="17ecebcf-c78d-4cf3-bf50-c9f3f05fa4ad" points="416.48 637.32 391.71 623.13 400.47 609.04 425.24 623.23 416.48 637.32"/><polygon class="523b702b-89dc-4c21-9754-a2c0c1d267b8" points="427.42 619.71 402.66 605.52 411.42 591.43 436.18 605.62 427.42 619.71"/><polygon class="eba53f36-743a-4d4a-ab3e-f001d19ce64a" points="438.37 602.09 413.61 587.9 422.37 573.81 447.13 588 438.37 602.09"/><polygon class="449c1224-a962-47dd-a113-9e2d8873d901" points="393.99 669.81 374.07 649.78 445.14 584.62 465.06 604.64 393.99 669.81"/><polygon class="87fc7ec2-59a5-48c8-acb8-c8a914267a6f" points="406.86 658 386.94 637.98 399.31 626.65 419.22 646.67 406.86 658"/><polygon class="5055b32d-2660-4fc1-a533-a2df12ff4f93" points="422.31 643.84 402.39 623.81 414.75 612.48 434.67 632.5 422.31 643.84"/><polygon class="1c82396e-9515-460d-90b6-70f25daf1954" points="437.76 629.67 417.84 609.65 430.21 598.31 450.12 618.34 437.76 629.67"/><polygon class="1cceaf5a-05cb-471b-bb3d-31f4e5da59ed" points="453.21 615.5 433.29 595.48 445.65 584.15 465.57 604.17 453.21 615.5"/><path class="3035ace3-9500-4e85-b6a7-5f60fa7fd06b" d="M393.09,661.18c3.24,11.33,2.34,23.55-3.91,33.79-2.17,3.56-9.22,11.13-12.05,3.84-1.24-3.18-.69-7.23-.27-10.51a66,66,0,0,1,1.88-9.83c.35-1.18-1.57-1.63-1.92-.45a65.22,65.22,0,0,0-2.06,11.23c-.37,3.5-.81,7.81.88,11.1,2.21,4.3,6.94,4.11,10.46,1.25,5.48-4.46,8.4-11.81,9.88-18.38a45.9,45.9,0,0,0-1-22.55C394.65,659.49,392.75,660,393.09,661.18Z"/><path class="e444faa6-4bf7-4bf7-92d3-147bc4b3c356" d="M921.84,498.77c-5.16-22.85,10-45.39,33.76-50.33s47.27,9.56,52.43,32.41-10,45.39-33.76,50.33S927,521.62,921.84,498.77Z"/><path class="3c1045e6-efe0-4179-a768-d2ccb23500f2" d="M924.49,498.22c-4.84-21.45,9.35-42.6,31.68-47.24s44.37,9,49.2,30.42S996,524,973.7,528.64,929.33,519.66,924.49,498.22Z"/><path class="e444faa6-4bf7-4bf7-92d3-147bc4b3c356" d="M914,503.06l-.62-2.77a3.32,3.32,0,0,1,2.64-3.94l21.19-4.41a3.46,3.46,0,0,1,4.1,2.54l.63,2.77a3.32,3.32,0,0,1-2.64,3.94l-21.19,4.41A3.46,3.46,0,0,1,914,503.06Z"/><path class="3c1045e6-efe0-4179-a768-d2ccb23500f2" d="M915.56,502.21l-.4-1.76a2.11,2.11,0,0,1,1.68-2.5l19.89-4.14a2.2,2.2,0,0,1,2.6,1.61l.4,1.76a2.11,2.11,0,0,1-1.68,2.5l-19.89,4.14A2.2,2.2,0,0,1,915.56,502.21Z"/><path class="e444faa6-4bf7-4bf7-92d3-147bc4b3c356" d="M931,496.86c-4.06-18,7.84-35.75,26.59-39.65s37.24,7.53,41.3,25.53S991,518.5,972.29,522.39,935.05,514.86,931,496.86Z"/><path class="dea27261-d6f3-4352-a83d-1ed4e602d22a" d="M934.36,496.16c-3.66-16.21,7.07-32.2,24-35.71s33.54,6.78,37.2,23-7.07,32.2-24,35.71S938,512.38,934.36,496.16Z"/><path class="83a0af6d-3dbd-4e12-a3b6-6c077a63707d" d="M938.93,495.21c-3.11-13.79,6-27.38,20.37-30.37s28.52,5.77,31.63,19.55-6,27.38-20.37,30.37S942,509,938.93,495.21Z"/><path class="323ccd8a-431f-43b5-9aad-62afd6defa5e" d="M946.16,493.71c-2.25-10,4.34-19.78,14.71-21.93s20.6,4.17,22.84,14.12-4.34,19.78-14.71,21.93S948.4,503.67,946.16,493.71Z"/><path class="40c7d8fe-7b39-4cb2-a50f-ed2df83fc21f" d="M946.69,475.36a23.72,23.72,0,0,1,13.24-7.75C972.69,465,985.28,472.74,988,485a21.79,21.79,0,0,1-1.87,14.78,22.09,22.09,0,0,0,1-13c-2.81-12.45-15.59-20.35-28.56-17.65A24.2,24.2,0,0,0,946.69,475.36Z"/><rect class="d9ecb47e-884b-4ee6-8e37-a9b5674b1f5e" x="933.96" y="651.46" width="54.4" height="52.23"/><polygon class="c7386cfd-2f8b-4b69-aec1-1c659dba9da7" points="988.36 686.32 988.36 703.69 976.73 703.69 988.36 686.32"/><path class="d7bb0018-6a5c-4df9-b8b8-f69882c93613" d="M988.36,686.32c-5.07,2.4-10.11,3.49-15.08,2.31,3.25,4.44,4.06,9.55,3.45,15.06Z"/><rect class="01f587a9-30df-4dff-9511-a09d765ee753" x="933.96" y="651.46" width="54.4" height="6.26"/></g><g id="f9def8d6-78c7-4395-98ae-4169dd2ae01f" data-name="icons" class="da08acf6-2799-4c1a-8ce4-42fd5f8653cb"><path d="M28.73,85q2.69-.15,16.13-1T65.49,82.7l3.38-.16q2.6-.11,4.27-.24c1.12-.08,2.43-.23,3.95-.44a19.52,19.52,0,0,0,4-.94A10.32,10.32,0,0,0,84,79.38l.1-.08a10.32,10.32,0,0,0,2.18-2.47,19.83,19.83,0,0,0,1.83-3.68c.55-1.43,1-2.67,1.33-3.74s.75-2.43,1.21-4.1.79-2.75.94-3.26q2.1-6.94,10.71-35.3a30.72,30.72,0,0,0,1.25-11.14A17.11,17.11,0,0,0,100,6a10.45,10.45,0,0,0-14.55-1.7L10.69,63.4a9.25,9.25,0,0,0-3.93,7.4,13.07,13.07,0,0,0,3.11,8.27q2.53,3.2,8.28,4.72A32.09,32.09,0,0,0,28.73,85Zm-.13.35"/><path d="M110.78,29.57Q103,54.18,99.21,67.35,98,71.81,97.12,74.45a36.8,36.8,0,0,1-2.9,6.28,18.83,18.83,0,0,1-4.64,5.71l-.1.08a18.81,18.81,0,0,1-6.62,3.2,37,37,0,0,1-6.78,1.38q-2.76.24-7.38.4Q57.78,91.91,29.31,94a34.6,34.6,0,0,1-8.69-.35L52.69,134.2a10.46,10.46,0,0,0,14.66,1.69l75.38-59.62a10.46,10.46,0,0,0,1.73-14.65L112.39,21.07a36.13,36.13,0,0,1-1.61,8.5Zm-.15-.25"/><path d="M1369.27,77.9a10.06,10.06,0,0,0-3.25-7.3l-69.83-66a10.48,10.48,0,0,0-14.78.42l-48.85,51.65a10.48,10.48,0,0,0,.41,14.77l69.83,66a10.48,10.48,0,0,0,14.77-.42l48.85-51.65a10.07,10.07,0,0,0,2.85-7.47Zm-57,53.14a2.06,2.06,0,0,1-1.48.66,2,2,0,0,1-1.5-.55L1239.63,65.3a2,2,0,0,1-.63-1.46,2.06,2.06,0,0,1,.58-1.51l35-37.06a38.16,38.16,0,0,0,.25,6.27q3.27,21.93,4.73,35.37.45,4.36.87,6.95a29.82,29.82,0,0,0,1.88,6.21,16.07,16.07,0,0,0,3.73,5.77l.09.09a16,16,0,0,0,6,3.4,29.74,29.74,0,0,0,6.31,1.53q2.61.27,7,.48,13.49.7,35.58,2.75a38.63,38.63,0,0,0,6.27-.1Zm47.48-50.21-.49.52q-2.64,2.79-8.08,4.14a30.5,30.5,0,0,1-9.92,1q-15.93-1.44-33.15-2.94l-3-.17q-2.46-.14-3.86-.28c-.92-.1-2.09-.26-3.51-.5a17.29,17.29,0,0,1-3.62-1,7.7,7.7,0,0,1-2.44-1.5l-.09-.09a7.72,7.72,0,0,1-1.63-2.35,17.15,17.15,0,0,1-1.16-3.56c-.32-1.4-.55-2.57-.7-3.48s-.31-2.2-.5-3.83-.3-2.63-.34-3q-2.46-17.11-4.79-32.94-1.77-12.07,5.75-20a2.1,2.1,0,0,1,2.95-.08l69.63,65.85a1.12,1.12,0,0,0,.55.74c.25.12.28.37.09.76s-.24.61-.14.67,0,.3-.42.73l-.56.64Zm-.43-.17"/><path d="M65.16,686.33a4.2,4.2,0,0,1,2.79-1.67,3.92,3.92,0,0,1,3.09.73L87.6,697.84a3.92,3.92,0,0,1,1.57,2.77,4.18,4.18,0,0,1-.83,3.15l-6.44,8.56,35.17,26.44L136,713.58a10.5,10.5,0,0,0-2-14.67L57.13,641.16a10.5,10.5,0,0,0-14.66,2.11L23.55,668.45l35.17,26.44Zm-.25-.14"/><rect x="68.71" y="691.91" width="8" height="17" transform="translate(-530.84 337.66) rotate(-53.07)"/><path d="M3.18,700.65a10.14,10.14,0,0,0,4.08,6.85l18,13.55-6.38,8.49a6.21,6.21,0,0,0-1.25,4.71,6,6,0,0,0,2.42,4.14l30,22.53a6,6,0,0,0,4.66,1.18,6.21,6.21,0,0,0,4.17-2.51l6.38-8.49,18.83,14.15a10.14,10.14,0,0,0,7.72,2,9.84,9.84,0,0,0,6.82-4l14.85-19.75-93.52-70.3L5.09,693a9.84,9.84,0,0,0-1.92,7.65Zm28.7,26.61,26.38,19.83-4.81,6.39L27.07,733.66Zm0-.65"/><path d="M1366.55,670.44a8.06,8.06,0,0,0-5.91-2.44h-100.2a8.28,8.28,0,0,0-5.34,1.85,8.14,8.14,0,0,0-3.09,6.48v83.23a8.27,8.27,0,0,0,1.87,5.37,8.17,8.17,0,0,0,6.49,3.07h100.23a8.32,8.32,0,0,0,8.42-8.33V676.33a8,8,0,0,0-2.45-5.89ZM1268,672h25v8h-25Zm92,87H1260v-8h100Zm-74.9-37.05a25,25,0,1,1,7.33,17.7,24.11,24.11,0,0,1-7.33-17.7Zm74.9-37.32V693H1260v-9h41.93l4.17-8H1360Zm.18.3"/><path d="M1321.92,733.74a16.68,16.68,0,1,0-11.8,4.89,16.06,16.06,0,0,0,11.8-4.89Zm-16.23-16.36a6,6,0,0,0-1.83,4.43,2.08,2.08,0,1,1-4.17,0,10.45,10.45,0,0,1,10.42-10.43,2.09,2.09,0,1,1,0,4.17,6,6,0,0,0-4.43,1.82Zm0,0"/><path d="M113.87,174.67a8,8,0,0,0-5.87-2.42V147.5a7.89,7.89,0,0,0-2.47-5.8,8,8,0,0,0-5.84-2.45Q69.77,164,41.54,164H10.39A10,10,0,0,0,3,167a9.89,9.89,0,0,0-3,7.28v12.38A9.89,9.89,0,0,0,3,194a10,10,0,0,0,7.33,3H18.3a33.39,33.39,0,0,0-1.43,7.12,51.82,51.82,0,0,0-.23,6.35,35.14,35.14,0,0,0,1,6.51q.88,3.8,1.49,5.73t2.08,6.09q1.46,4.15,1.91,5.64,3,2.71,8.57,3.58a24.45,24.45,0,0,0,10.94-.74q5.36-1.61,7.24-5.35-2.46-1.94-4-3.26a28.44,28.44,0,0,1-3.12-3.22,12.1,12.1,0,0,1-2.17-3.54,8.73,8.73,0,0,1-.39-3.74,9.91,9.91,0,0,1,1.49-4.22,8.71,8.71,0,0,1-2.6-6,10.32,10.32,0,0,1,2-6.48A11.3,11.3,0,0,1,47,197.26q25.64,2.13,52.7,24.49a8,8,0,0,0,5.84-2.45,7.9,7.9,0,0,0,2.47-5.8V188.75a8.11,8.11,0,0,0,6.33-2.9,8.2,8.2,0,0,0-.46-11.18ZM100,212q-25.45-19.47-50-22.2V172.17q24.35-2.67,50-22.33Zm-.36,0"/><path d="M1361.57,164.9q-7.82-9.61-21.25-15.18a75.75,75.75,0,0,0-29.33-5.57,77.47,77.47,0,0,0-22.68,3.29,63.41,63.41,0,0,0-18.64,8.89,44.49,44.49,0,0,0-12.45,13.33,31,31,0,0,0-4.63,16.2,31.63,31.63,0,0,0,5.9,18.32,47.86,47.86,0,0,0,16.13,14.34,42.12,42.12,0,0,1-1.7,5q-1,2.34-1.76,3.84a26,26,0,0,1-2.12,3.33q-1.34,1.83-2,2.57l-2.25,2.48-2,2.25a4.7,4.7,0,0,0-.52.59l-.45.56-.39.59c-.22.32-.32.53-.3.62a1.7,1.7,0,0,1-.13.65.86.86,0,0,0,0,.78v.07a3.31,3.31,0,0,0,1.14,1.89,2.56,2.56,0,0,0,2,.58,49.07,49.07,0,0,0,7.43-1.43,71.26,71.26,0,0,0,30-15.78,88.26,88.26,0,0,0,9.45.52,75.76,75.76,0,0,0,29.33-5.57q13.43-5.57,21.25-15.18t7.82-21q0-11.34-7.82-21Zm-.43,0"/></g></g><g id="3526da03-827d-444f-b804-47f51222ba43" data-name="Layer 2"><path class="2587ec6a-cef0-454e-a2ab-7124de77dc67" d="M292.36,323.77a25.86,25.86,0,0,0-15-6.62q-47.58,32.2-73,50.57-9.13,6.7-14.81,10.44c-.27.19-.56.36-.86.55h0l-.05,0a66.26,66.26,0,0,1-5.8,3.25c-1.87.95-3.9,1.89-6.11,2.85l-.62.26h0l-1.69.71a48.19,48.19,0,0,1-15.08,3.82c-.86.06-1.69.09-2.53.09h-.31c-1,0-2,0-3-.13a42.31,42.31,0,0,1-8.15-1.52,50.7,50.7,0,0,1-4.82-1.61c-.55-.2-1.09-.41-1.65-.65s-1.22-.51-1.81-.75c-2.4-1-4.62-2.05-6.63-3.07q-3.31-1.67-5.91-3.33a0,0,0,0,0,0,0c-.26-.15-.52-.33-.76-.5q-5.68-3.74-14.81-10.44Q88.55,352.83,36,317.1c-6.83.54-12.2,3-16.1,7.38Q13.23,332,13.22,343.2v82.27a24.57,24.57,0,0,0,7.52,18A24.68,24.68,0,0,0,38.83,451H274.36A25.62,25.62,0,0,0,300,425.47V340Q300,330.53,292.36,323.77Z"/><path class="c0cac5fe-e0e7-4952-ad31-3107d376fe7a" d="M292.36,323.77a25.86,25.86,0,0,0-15-6.62c-1-.09-2-.14-3-.14H38.83c-1,0-1.94,0-2.88.1-6.83.54-12.2,3-16.1,7.38Q13.23,332,13.22,343.2q0,9.07,8.8,19.65a76.09,76.09,0,0,0,18.73,16.62q5.43,3.47,32.79,20.51t41.93,26.28c1.06.66,3.34,2.14,6.8,4.38s6.34,4.08,8.63,5.47,5.07,3,8.33,4.68a50,50,0,0,0,9.19,3.88,27.66,27.66,0,0,0,8,1.31h.31a27.66,27.66,0,0,0,8-1.31,51.47,51.47,0,0,0,9.19-3.88c3.26-1.73,6-3.29,8.33-4.68s5.16-3.21,8.62-5.47,5.75-3.72,6.81-4.38q14.71-9.24,74.9-46.8a72.49,72.49,0,0,0,19.51-17.7Q300,351.39,300,340,300,330.53,292.36,323.77Z"/><polygon class="facd9941-12f0-49a0-87f8-3a75b9d42bb2" points="149.6 404.72 158.63 390.64 149.6 404.72 149.6 404.72"/><path class="c1cd6842-53c3-4c75-ba70-4d9070f4fa5e" d="M176,363.64l-.05-11.77,1.54,0H135.66c.13.12.27.21.4.34a8.32,8.32,0,0,1,1.66,2.56,8.08,8.08,0,0,1,.61,3.14,7.79,7.79,0,0,1-.61,3.07,8.11,8.11,0,0,1-1.54,2.37h25l-12,18.66h15Z"/><path class="facd9941-12f0-49a0-87f8-3a75b9d42bb2" d="M182.52,402.17a7.28,7.28,0,0,0-1.53.18,7.28,7.28,0,0,1,1.53-.18Z"/><path class="facd9941-12f0-49a0-87f8-3a75b9d42bb2" d="M180.26,402.56a7.05,7.05,0,0,0-.71.29,8.3,8.3,0,0,0-1.31.77,8.3,8.3,0,0,1,1.31-.77A7.05,7.05,0,0,1,180.26,402.56Z"/><path class="facd9941-12f0-49a0-87f8-3a75b9d42bb2" d="M189.41,407a7.84,7.84,0,0,1,.52,2.27A7.84,7.84,0,0,0,189.41,407Z"/><path class="facd9941-12f0-49a0-87f8-3a75b9d42bb2" d="M182.59,418.15a7.08,7.08,0,0,0,1.49-.17,7.08,7.08,0,0,1-1.49.17Z"/><path class="facd9941-12f0-49a0-87f8-3a75b9d42bb2" d="M188.7,405.61a7.73,7.73,0,0,0-.93-1.16,8,8,0,0,0-2.38-1.69,8,8,0,0,1,2.38,1.69A7.73,7.73,0,0,1,188.7,405.61Z"/><path class="c1cd6842-53c3-4c75-ba70-4d9070f4fa5e" d="M176,363.64l.12,27.69a6.29,6.29,0,0,0,.13,1.27,6.29,6.29,0,0,1-.13-1.27l0-9.34h12.55l0,9.28L188.48,358a6.27,6.27,0,0,0-6.36-6.25l-4.67.06-1.54,0Z"/><rect class="facd9941-12f0-49a0-87f8-3a75b9d42bb2" x="137.03" y="416.2" height="0.03"/><path class="facd9941-12f0-49a0-87f8-3a75b9d42bb2" d="M125,412.4a6.3,6.3,0,0,0,2.27,2.76A6.3,6.3,0,0,1,125,412.4Z"/><path class="c1cd6842-53c3-4c75-ba70-4d9070f4fa5e" d="M124.48,382H137v19h0V376.71a6.27,6.27,0,1,0-12.55,0V410a6.26,6.26,0,0,0,.49,2.44,6.26,6.26,0,0,1-.49-2.44Z"/><path class="c1cd6842-53c3-4c75-ba70-4d9070f4fa5e" d="M138.32,357.89a8.08,8.08,0,0,0-.61-3.14,8.32,8.32,0,0,0-1.66-2.56c-.12-.13-.27-.22-.4-.34a7.61,7.61,0,0,0-2.05-1.38,7.27,7.27,0,0,0-3-.62,6.76,6.76,0,0,0-2.87.62,7.59,7.59,0,0,0-2.37,1.72,8.19,8.19,0,0,0-1.62,2.56,8.32,8.32,0,0,0-.59,3.14,8,8,0,0,0,4.57,7.31,6.55,6.55,0,0,0,2.87.64,7,7,0,0,0,3-.64,8.08,8.08,0,0,0,2.45-1.72l.12-.14a8.11,8.11,0,0,0,1.54-2.37A7.79,7.79,0,0,0,138.32,357.89Z"/><path class="0c943325-121a-41ef-b03a-0d26d968c4ac" d="M175.49,413.35a8,8,0,0,1-.62-3.13q0-.41,0-.81a7.7,7.7,0,0,1,.56-2.27,8.43,8.43,0,0,1,.71-1.36,8.08,8.08,0,0,1,.84-1.07H149.6l9-14.07,5.55-8.65h-15L137,401h0V416.2h40.5c-.12-.11-.26-.2-.37-.32A8.21,8.21,0,0,1,175.49,413.35Z"/><path class="0c943325-121a-41ef-b03a-0d26d968c4ac" d="M176,382l0,9.34a6.27,6.27,0,0,0,6.36,6.25h0a6.27,6.27,0,0,0,6.19-6.3l0-9.28Z"/><path class="0c943325-121a-41ef-b03a-0d26d968c4ac" d="M189.93,409.22a7.84,7.84,0,0,0-.52-2.27,8.14,8.14,0,0,0-.7-1.34,7.73,7.73,0,0,0-.93-1.16,8,8,0,0,0-2.38-1.69,6.36,6.36,0,0,0-1.39-.46,6.81,6.81,0,0,0-1.49-.14h0a7.28,7.28,0,0,0-1.53.18,6.94,6.94,0,0,0-.73.21,7.05,7.05,0,0,0-.71.29,8.3,8.3,0,0,0-1.31.77,8.15,8.15,0,0,0-1.13,1l-.09.12a8.08,8.08,0,0,0-.84,1.07,8.43,8.43,0,0,0-.71,1.36,7.7,7.7,0,0,0-.56,2.27q0,.4,0,.81a8,8,0,0,0,.62,3.13,8.21,8.21,0,0,0,1.67,2.54c.12.12.25.21.37.32a7.51,7.51,0,0,0,2.08,1.37,7.22,7.22,0,0,0,3,.58h0a7.08,7.08,0,0,0,1.49-.17,6.65,6.65,0,0,0,1.38-.48,7.57,7.57,0,0,0,1.26-.76,7.91,7.91,0,0,0,1.1-1,8.15,8.15,0,0,0,.92-1.21,8.56,8.56,0,0,0,.69-1.38,8,8,0,0,0,.43-1.52A8.84,8.84,0,0,0,190,410C190,409.74,190,409.49,189.93,409.22Z"/><path class="0c943325-121a-41ef-b03a-0d26d968c4ac" d="M137,401V382H124.48v28a6.27,6.27,0,0,0,6.27,6.27H137V401Z"/><path class="24f99cc2-6bbd-4a5f-b54e-a30da2106c94" d="M1080.63,411.93a8.5,8.5,0,0,0,17,0V387.33h-17Z"/><path class="24f99cc2-6bbd-4a5f-b54e-a30da2106c94" d="M1108.63,409.58a8,8,0,0,0-1.1,2.08,6.74,6.74,0,0,0-.4,2.27v.4a6.1,6.1,0,0,0,6.1,6.1h43.6a6.5,6.5,0,0,0,0-13h-28.2l14.07-20.09h-18.5Z"/><path class="24f99cc2-6bbd-4a5f-b54e-a30da2106c94" d="M1173.63,387.33v24.59a8.5,8.5,0,0,0,16.85,1.55V387.33Z"/><path class="24f99cc2-6bbd-4a5f-b54e-a30da2106c94" d="M1220.26,387.33c0,.28,0,.55,0,.84V416a4.45,4.45,0,0,0,8.9,0v-27.8c0-.29,0-.56,0-.84h-9Z"/><path class="24f99cc2-6bbd-4a5f-b54e-a30da2106c94" d="M1258.45,381.73c.1.44.18.9.26,1.37C1258.63,382.63,1258.55,382.17,1258.45,381.73Z"/><path class="24f99cc2-6bbd-4a5f-b54e-a30da2106c94" d="M1258.78,383.5q.13.88.21,1.82C1258.94,384.7,1258.87,384.09,1258.78,383.5Z"/><path class="24f99cc2-6bbd-4a5f-b54e-a30da2106c94" d="M1259.1,387.33h-8.9c0,.28,0,.55,0,.84V416a4.45,4.45,0,1,0,8.9,0v-27.8c0-1-.05-1.91-.13-2.82Q1259.08,386.32,1259.1,387.33Z"/><path class="24f99cc2-6bbd-4a5f-b54e-a30da2106c94" d="M1220.05,384.82l0-.11Z"/><path class="24f99cc2-6bbd-4a5f-b54e-a30da2106c94" d="M1219.85,383.67l0-.19Z"/><path class="24f99cc2-6bbd-4a5f-b54e-a30da2106c94" d="M1219.26,381.61c0-.12-.1-.23-.15-.35C1219.16,381.38,1219.21,381.49,1219.26,381.61Z"/><path class="24f99cc2-6bbd-4a5f-b54e-a30da2106c94" d="M1220.19,386v0Z"/><path class="24f99cc2-6bbd-4a5f-b54e-a30da2106c94" d="M1218.86,380.69c-.08-.16-.17-.3-.25-.45C1218.69,380.38,1218.78,380.53,1218.86,380.69Z"/><path class="24f99cc2-6bbd-4a5f-b54e-a30da2106c94" d="M1218.38,379.84a8.07,8.07,0,0,0-.55-.77A8.16,8.16,0,0,1,1218.38,379.84Z"/><path class="24f99cc2-6bbd-4a5f-b54e-a30da2106c94" d="M1229.55,384.67c0,.13-.06.26-.08.4C1229.49,384.93,1229.52,384.8,1229.55,384.67Z"/><path class="24f99cc2-6bbd-4a5f-b54e-a30da2106c94" d="M1249.15,381.71c0-.12-.11-.23-.16-.35C1249,381.47,1249.1,381.58,1249.15,381.71Z"/><path class="24f99cc2-6bbd-4a5f-b54e-a30da2106c94" d="M1250.13,386.07v0Z"/><path class="24f99cc2-6bbd-4a5f-b54e-a30da2106c94" d="M1249.78,383.75l0-.19Z"/><path class="24f99cc2-6bbd-4a5f-b54e-a30da2106c94" d="M1248.72,380.78c-.08-.16-.18-.31-.27-.46C1248.54,380.47,1248.63,380.62,1248.72,380.78Z"/><path class="24f99cc2-6bbd-4a5f-b54e-a30da2106c94" d="M1249.5,382.7l-.09-.27Z"/><path class="24f99cc2-6bbd-4a5f-b54e-a30da2106c94" d="M1250,384.88l0-.11Z"/><path class="24f99cc2-6bbd-4a5f-b54e-a30da2106c94" d="M1219.59,382.6l-.08-.26Z"/><path class="24f99cc2-6bbd-4a5f-b54e-a30da2106c94" d="M1230.06,382.9a11.19,11.19,0,0,0-.35,1.07C1229.81,383.61,1229.92,383.25,1230.06,382.9Z"/><path class="24f99cc2-6bbd-4a5f-b54e-a30da2106c94" d="M1248.22,379.93a8.6,8.6,0,0,0-.58-.78A8.71,8.71,0,0,1,1248.22,379.93Z"/><path class="24f99cc2-6bbd-4a5f-b54e-a30da2106c94" d="M1229.32,386l0,.14Z"/><path class="24f99cc2-6bbd-4a5f-b54e-a30da2106c94" d="M1190.48,387.33V416a4.45,4.45,0,1,0,8.9,0V387.33h-8.9Z"/><path class="24f99cc2-6bbd-4a5f-b54e-a30da2106c94" d="M1299.08,379.9a8.46,8.46,0,0,0-.57-.78A8.56,8.56,0,0,1,1299.08,379.9Z"/><path class="24f99cc2-6bbd-4a5f-b54e-a30da2106c94" d="M1309.44,383.67q.14.87.22,1.78C1309.6,384.84,1309.53,384.25,1309.44,383.67Z"/><path class="24f99cc2-6bbd-4a5f-b54e-a30da2106c94" d="M1309.73,386.41c0,.3,0,.61,0,.92H1301c0,.25,0,.5,0,.77v4a65.4,65.4,0,0,0-14.55,1.38,34.56,34.56,0,0,0-9.63,3.54,14.56,14.56,0,0,0-5.32,4.94,11.23,11.23,0,0,0-1.65,5.8,14.69,14.69,0,0,0,1.12,6,11.75,11.75,0,0,0,3,4.19,12.5,12.5,0,0,0,4.47,2.48,17.74,17.74,0,0,0,5.53.83,25.85,25.85,0,0,0,5.27-.5,20.64,20.64,0,0,0,4.48-1.47,22.44,22.44,0,0,0,4-2.4q1.89-1.42,3.9-3.23l1,4.7a2.16,2.16,0,0,0,1.05,1.7,4.65,4.65,0,0,0,2.1.4,4,4,0,0,0,4-3.95V388C1309.79,387.48,1309.77,386.94,1309.73,386.41ZM1301,408.17A28,28,0,0,1,1298,411a19.51,19.51,0,0,1-3.3,2.13,17.28,17.28,0,0,1-3.67,1.35,18.58,18.58,0,0,1-4.3.47,11.61,11.61,0,0,1-3.25-.43,6.79,6.79,0,0,1-2.6-1.35,6.48,6.48,0,0,1-1.75-2.39,8.36,8.36,0,0,1-.65-3.47,6.37,6.37,0,0,1,1.22-3.82,9.82,9.82,0,0,1,3.93-3,29.06,29.06,0,0,1,7-2,59.6,59.6,0,0,1,10.45-.78Z"/><path class="24f99cc2-6bbd-4a5f-b54e-a30da2106c94" d="M1309.1,381.93c.11.45.19.91.27,1.38C1309.29,382.85,1309.21,382.38,1309.1,381.93Z"/><path class="24f99cc2-6bbd-4a5f-b54e-a30da2106c94" d="M1300,381.66c0-.11-.1-.22-.14-.33C1299.88,381.45,1299.94,381.55,1300,381.66Z"/><path class="24f99cc2-6bbd-4a5f-b54e-a30da2106c94" d="M1299.57,380.74c-.08-.15-.17-.3-.25-.45C1299.4,380.45,1299.49,380.59,1299.57,380.74Z"/><path class="24f99cc2-6bbd-4a5f-b54e-a30da2106c94" d="M1300.6,383.71l0-.16Z"/><path class="24f99cc2-6bbd-4a5f-b54e-a30da2106c94" d="M1300.94,386v0Z"/><path class="24f99cc2-6bbd-4a5f-b54e-a30da2106c94" d="M1300.32,382.65l-.08-.24Z"/><path class="24f99cc2-6bbd-4a5f-b54e-a30da2106c94" d="M1300.8,384.84v0Z"/><path class="24f99cc2-6bbd-4a5f-b54e-a30da2106c94" d="M1324.28,416a4.45,4.45,0,1,0,8.9,0V387.33h-8.9Z"/><path class="24f99cc2-6bbd-4a5f-b54e-a30da2106c94" d="M1349.88,416a4.45,4.45,0,0,0,8.9,0V387.33h-8.9Z"/><path class="24f99cc2-6bbd-4a5f-b54e-a30da2106c94" d="M1089.13,347.58a8.5,8.5,0,0,0-8.5,8.5v31.26h17V356.08A8.5,8.5,0,0,0,1089.13,347.58Z"/><path class="24f99cc2-6bbd-4a5f-b54e-a30da2106c94" d="M1158.33,347.58h-41.9a6.5,6.5,0,0,0,0,13h26.5l-18.73,26.76h18.5l20.13-28.76a9.69,9.69,0,0,0,1.17-2.35,7.88,7.88,0,0,0,.42-2.55A6.1,6.1,0,0,0,1158.33,347.58Z"/><path class="24f99cc2-6bbd-4a5f-b54e-a30da2106c94" d="M1190.48,375.08a5.28,5.28,0,0,1,.15-1.2v-17.8a8.5,8.5,0,1,0-17,0v31.26h16.85Z"/><path class="24f99cc2-6bbd-4a5f-b54e-a30da2106c94" d="M1259,385.35v0q-.08-.93-.21-1.82c0-.14-.05-.27-.07-.41-.08-.46-.16-.93-.26-1.37-.14-.59-.29-1.17-.47-1.73a16.6,16.6,0,0,0-3.33-6,14.1,14.1,0,0,0-5.3-3.72,18.73,18.73,0,0,0-7.12-1.28,20.43,20.43,0,0,0-4.92.6,16.41,16.41,0,0,0-4.58,1.9,16.14,16.14,0,0,0-3.87,3.3,15.85,15.85,0,0,0-2.77,4.75,16,16,0,0,0-4.58-7.7,12,12,0,0,0-8.33-2.85,14.77,14.77,0,0,0-8.08,2.2,26,26,0,0,0-6.27,5.65l-.65-5.2a2.27,2.27,0,0,0-2.4-1.85,5.35,5.35,0,0,0-5.3,5.3v12.26h8.9v-4.66a20.06,20.06,0,0,1,5.17-4.83,11.3,11.3,0,0,1,6.13-1.77q4.7,0,7.15,3a8.07,8.07,0,0,1,.55.77c.08.12.15.26.22.39s.17.3.25.45.17.38.26.58.1.23.15.35.17.48.25.73l.08.26c.08.28.16.58.22.88l0,.19q.1.5.18,1l0,.11q.08.57.13,1.17v0q.05.63.07,1.3h9c0-.39,0-.78.09-1.15l0-.14q.06-.5.14-1c0-.13.06-.26.08-.4s.1-.47.16-.7a11.19,11.19,0,0,1,.35-1.07,10.66,10.66,0,0,1,2.38-3.77,10.07,10.07,0,0,1,3.47-2.28,11.34,11.34,0,0,1,4.18-.77q4.95,0,7.55,3.08a8.6,8.6,0,0,1,.58.78c.08.12.16.26.23.39s.19.3.27.46.18.38.27.57.11.23.16.35.18.48.26.72l.09.27c.09.28.16.57.23.87l0,.19q.11.49.19,1l0,.11q.08.56.14,1.14v0q.05.62.08,1.27h8.9Q1259.08,386.32,1259,385.35Z"/><path class="24f99cc2-6bbd-4a5f-b54e-a30da2106c94" d="M1309.76,387.33q0-1-.1-1.89h0q-.08-.91-.22-1.78c0-.12,0-.23-.07-.35-.08-.47-.16-.93-.27-1.38s-.29-1.15-.47-1.71a16.52,16.52,0,0,0-3.4-6,15.49,15.49,0,0,0-5.55-3.9,19.18,19.18,0,0,0-7.55-1.4,28,28,0,0,0-10.75,2,27.54,27.54,0,0,0-6.45,3.79,4,4,0,0,0-1,5.06l0,0A3.61,3.61,0,0,0,1275,381a2.66,2.66,0,0,0,1.58.48,4,4,0,0,0,2.32-.83q1.17-.82,2.8-1.85a20.68,20.68,0,0,1,3.85-1.85,15.84,15.84,0,0,1,5.47-.83q5,0,7.48,3a8.46,8.46,0,0,1,.57.78c.08.13.16.27.24.4s.18.29.25.45.18.39.27.59.1.22.14.33.18.5.26.75l.08.24c.09.29.16.59.24.9l0,.16q.11.51.19,1v.09q.08.57.14,1.17v0q.05.62.07,1.29h8.75Z"/><path class="24f99cc2-6bbd-4a5f-b54e-a30da2106c94" d="M1328.73,369.78a4.45,4.45,0,0,0-4.45,4.45v13.11h8.9V374.23A4.45,4.45,0,0,0,1328.73,369.78Z"/><path class="24f99cc2-6bbd-4a5f-b54e-a30da2106c94" d="M1333.26,349.35a6.54,6.54,0,0,0-2-1.37,6.1,6.1,0,0,0-2.45-.5,5.91,5.91,0,0,0-2.42.5,6.61,6.61,0,0,0-2,1.38,6.43,6.43,0,0,0-1.37,2.05,6.25,6.25,0,0,0-.5,2.48,5.89,5.89,0,0,0,.5,2.42,6.66,6.66,0,0,0,3.38,3.38,5.9,5.9,0,0,0,2.42.5,6.08,6.08,0,0,0,2.45-.5,6.51,6.51,0,0,0,2-1.37,7,7,0,0,0,1.4-2,5.65,5.65,0,0,0,.53-2.42,6,6,0,0,0-.53-2.48A6.81,6.81,0,0,0,1333.26,349.35Z"/><path class="24f99cc2-6bbd-4a5f-b54e-a30da2106c94" d="M1354.33,346.78a4.45,4.45,0,0,0-4.45,4.45v36.11h8.9V351.23A4.45,4.45,0,0,0,1354.33,346.78Z"/></g></g></g></svg>