<svg xmlns="http://www.w3.org/2000/svg" viewBox="0 0 283 221.24"><defs><style>.\33 7bbb1c1-c3ea-4623-93c5-8cad911c1224{fill:#f3f2f0;stroke-width:5px;}.\33 7bbb1c1-c3ea-4623-93c5-8cad911c1224,.b571ad92-2a94-437f-a24d-4020f593f9fb{stroke:#444;}.\33 7bbb1c1-c3ea-4623-93c5-8cad911c1224,.aa0a4517-db68-41d3-be59-967cbf819b3a,.b571ad92-2a94-437f-a24d-4020f593f9fb{stroke-miterlimit:10;}.\34 99baed1-fb4d-4628-8b60-b0fee94d7e95,.aa0a4517-db68-41d3-be59-967cbf819b3a,.b571ad92-2a94-437f-a24d-4020f593f9fb{fill:#fff;}.aa0a4517-db68-41d3-be59-967cbf819b3a{stroke:#c33;stroke-width:2px;}.\37 03772a7-4a61-44de-9172-5460bc46ac2e{fill:#b32424;}.\34 ed4999b-e6a3-472a-8559-f50981ea3ac1{fill:#332e2e;}</style></defs><title>Asset 1</title><g id="fcb01934-2596-4e3f-badb-a3d5d79e67d3" data-name="Layer 2"><g id="f8c90b1e-5e77-4ee7-8309-5fe10b30fc50" data-name="Layer 3"><path class="37bbb1c1-c3ea-4623-93c5-8cad911c1224" d="M273.12,9A25.07,25.07,0,0,0,258.54,2.6q-46.12,31.21-70.8,49-8.85,6.5-14.36,10.12c-.26.18-.54.35-.83.53h0l-.05,0a64.23,64.23,0,0,1-5.62,3.15c-1.81.92-3.78,1.83-5.92,2.76l-.6.25h0l-1.64.69a46.72,46.72,0,0,1-14.62,3.7c-.83.06-1.64.09-2.45.09h-.3c-.95,0-1.92,0-2.9-.13a41,41,0,0,1-7.9-1.47,49.16,49.16,0,0,1-4.67-1.56c-.53-.19-1.06-.4-1.6-.63s-1.18-.49-1.75-.73c-2.33-1-4.48-2-6.43-3q-3.21-1.62-5.73-3.23a0,0,0,0,0,0,0c-.25-.15-.5-.32-.74-.48q-5.51-3.63-14.36-10.12Q75.53,37.2,24.54,2.56c-6.62.52-11.83,2.89-15.61,7.15Q2.51,17,2.5,27.86v79.76a23.82,23.82,0,0,0,7.29,17.49,23.93,23.93,0,0,0,17.54,7.26H255.67a24.84,24.84,0,0,0,24.83-24.75V24.79Q280.5,15.58,273.12,9Z"/><path class="aa0a4517-db68-41d3-be59-967cbf819b3a" d="M273.12,9A25.07,25.07,0,0,0,258.54,2.6c-.94-.09-1.9-.14-2.87-.14H27.33c-1,0-1.88,0-2.79.1-6.62.52-11.83,2.89-15.61,7.15Q2.51,17,2.5,27.86q0,8.79,8.53,19A73.77,73.77,0,0,0,29.19,63Q34.45,66.38,61,82.9t40.65,25.48c1,.64,3.24,2.07,6.59,4.25s6.15,4,8.37,5.3,4.92,2.86,8.08,4.54a48.47,48.47,0,0,0,8.91,3.76,26.81,26.81,0,0,0,7.77,1.27h.3a26.81,26.81,0,0,0,7.77-1.27,49.9,49.9,0,0,0,8.91-3.76c3.16-1.68,5.84-3.19,8.08-4.54s5-3.11,8.36-5.3,5.57-3.61,6.6-4.25Q195.64,99.43,254,63a70.27,70.27,0,0,0,18.91-17.16q7.6-10.05,7.61-21.06Q280.5,15.58,273.12,9Z"/><polygon class="499baed1-fb4d-4628-8b60-b0fee94d7e95" points="134.72 87.5 143.47 73.86 134.72 87.5 134.72 87.5"/><path class="703772a7-4a61-44de-9172-5460bc46ac2e" d="M160.27,47.68l0-11.41,1.5,0H121.2c.13.11.27.21.38.33a8.06,8.06,0,0,1,1.61,2.48,7.83,7.83,0,0,1,.59,3,7.56,7.56,0,0,1-.59,3,7.87,7.87,0,0,1-1.5,2.3h24.24l-11.6,18.09h14.52Z"/><path class="499baed1-fb4d-4628-8b60-b0fee94d7e95" d="M166.64,85a7.06,7.06,0,0,0-1.49.17,7.06,7.06,0,0,1,1.49-.17Z"/><path class="499baed1-fb4d-4628-8b60-b0fee94d7e95" d="M164.44,85.41a6.84,6.84,0,0,0-.69.28,8,8,0,0,0-1.27.74,8,8,0,0,1,1.27-.74A6.84,6.84,0,0,1,164.44,85.41Z"/><path class="499baed1-fb4d-4628-8b60-b0fee94d7e95" d="M173.31,89.67a7.61,7.61,0,0,1,.51,2.2A7.61,7.61,0,0,0,173.31,89.67Z"/><path class="499baed1-fb4d-4628-8b60-b0fee94d7e95" d="M166.7,100.52a6.87,6.87,0,0,0,1.44-.17,6.87,6.87,0,0,1-1.44.17Z"/><path class="499baed1-fb4d-4628-8b60-b0fee94d7e95" d="M172.63,88.37a7.49,7.49,0,0,0-.9-1.12,7.71,7.71,0,0,0-2.3-1.64,7.71,7.71,0,0,1,2.3,1.64A7.49,7.49,0,0,1,172.63,88.37Z"/><path class="703772a7-4a61-44de-9172-5460bc46ac2e" d="M160.27,47.68l.12,26.84a6.1,6.1,0,0,0,.13,1.23,6.1,6.1,0,0,1-.13-1.23l0-9.05h12.17l0,9-.14-32.23a6.08,6.08,0,0,0-6.17-6.06l-4.53.06-1.5,0Z"/><rect class="499baed1-fb4d-4628-8b60-b0fee94d7e95" x="122.53" y="98.64" height="0.03"/><path class="499baed1-fb4d-4628-8b60-b0fee94d7e95" d="M110.84,95a6.11,6.11,0,0,0,2.2,2.68A6.11,6.11,0,0,1,110.84,95Z"/><path class="703772a7-4a61-44de-9172-5460bc46ac2e" d="M110.37,65.47h12.16V83.88h0V60.35a6.08,6.08,0,1,0-12.16,0V92.58a6.06,6.06,0,0,0,.48,2.37,6.06,6.06,0,0,1-.48-2.37Z"/><path class="703772a7-4a61-44de-9172-5460bc46ac2e" d="M123.79,42.1a7.83,7.83,0,0,0-.59-3,8.06,8.06,0,0,0-1.61-2.48c-.12-.12-.26-.22-.38-.33a7.38,7.38,0,0,0-2-1.34,7,7,0,0,0-2.88-.6,6.55,6.55,0,0,0-2.79.6,7.36,7.36,0,0,0-2.3,1.67,7.94,7.94,0,0,0-1.57,2.48,8.06,8.06,0,0,0-.57,3,7.8,7.8,0,0,0,4.43,7.09,6.35,6.35,0,0,0,2.79.62,6.83,6.83,0,0,0,2.88-.62,7.84,7.84,0,0,0,2.37-1.67l.11-.14a7.87,7.87,0,0,0,1.5-2.3A7.56,7.56,0,0,0,123.79,42.1Z"/><path class="4ed4999b-e6a3-472a-8559-f50981ea3ac1" d="M159.82,95.87a7.79,7.79,0,0,1-.6-3q0-.4,0-.78a7.46,7.46,0,0,1,.54-2.2,8.17,8.17,0,0,1,.69-1.31,7.84,7.84,0,0,1,.82-1H134.72l8.75-13.65,5.38-8.39H134.34L122.53,83.88h0V98.64H161.8c-.12-.11-.25-.19-.36-.31A8,8,0,0,1,159.82,95.87Z"/><path class="4ed4999b-e6a3-472a-8559-f50981ea3ac1" d="M160.35,65.47l0,9.05a6.08,6.08,0,0,0,6.17,6.06h0a6.08,6.08,0,0,0,6-6.11l0-9Z"/><path class="4ed4999b-e6a3-472a-8559-f50981ea3ac1" d="M173.82,91.87a7.61,7.61,0,0,0-.51-2.2,7.89,7.89,0,0,0-.68-1.3,7.49,7.49,0,0,0-.9-1.12,7.71,7.71,0,0,0-2.3-1.64,6.16,6.16,0,0,0-1.35-.45,6.6,6.6,0,0,0-1.44-.14h0a7.06,7.06,0,0,0-1.49.17,6.73,6.73,0,0,0-.71.2,6.84,6.84,0,0,0-.69.28,8,8,0,0,0-1.27.74,7.9,7.9,0,0,0-1.1,1l-.09.11a7.84,7.84,0,0,0-.82,1,8.17,8.17,0,0,0-.69,1.31,7.46,7.46,0,0,0-.54,2.2q0,.38,0,.78a7.79,7.79,0,0,0,.6,3,8,8,0,0,0,1.62,2.46c.11.12.25.2.36.31a7.28,7.28,0,0,0,2,1.33,7,7,0,0,0,2.89.56h0a6.87,6.87,0,0,0,1.44-.17,6.45,6.45,0,0,0,1.34-.47,7.34,7.34,0,0,0,1.22-.73,7.66,7.66,0,0,0,1.07-1,7.9,7.9,0,0,0,.89-1.17,8.3,8.3,0,0,0,.67-1.34,7.8,7.8,0,0,0,.42-1.47,8.57,8.57,0,0,0,.14-1.58C173.89,92.37,173.84,92.12,173.82,91.87Z"/><path class="4ed4999b-e6a3-472a-8559-f50981ea3ac1" d="M122.53,83.88V65.47H110.37V92.58a6.08,6.08,0,0,0,6.08,6.08h6.08V83.88Z"/><path class="b571ad92-2a94-437f-a24d-4020f593f9fb" d="M2.43,211.44a8.5,8.5,0,0,0,17,0V186.85h-17Z"/><path class="b571ad92-2a94-437f-a24d-4020f593f9fb" d="M30.42,209.09a8,8,0,0,0-1.1,2.08,6.74,6.74,0,0,0-.4,2.27v.4a6.1,6.1,0,0,0,6.1,6.1h43.6a6.5,6.5,0,0,0,0-13H50.42l14.07-20.09H46Z"/><path class="b571ad92-2a94-437f-a24d-4020f593f9fb" d="M95.42,186.85v24.59A8.5,8.5,0,0,0,112.28,213V186.85Z"/><path class="b571ad92-2a94-437f-a24d-4020f593f9fb" d="M142.05,186.85c0,.28,0,.55,0,.84v27.8a4.45,4.45,0,0,0,8.9,0v-27.8c0-.29,0-.56,0-.84h-9Z"/><path class="b571ad92-2a94-437f-a24d-4020f593f9fb" d="M180.24,181.24c.1.44.18.9.26,1.37C180.43,182.15,180.35,181.69,180.24,181.24Z"/><path class="b571ad92-2a94-437f-a24d-4020f593f9fb" d="M180.58,183q.13.88.21,1.82C180.74,184.22,180.67,183.61,180.58,183Z"/><path class="b571ad92-2a94-437f-a24d-4020f593f9fb" d="M180.9,186.85H172c0,.28,0,.55,0,.84v27.8a4.45,4.45,0,1,0,8.9,0v-27.8c0-1-.05-1.91-.13-2.82Q180.87,185.83,180.9,186.85Z"/><path class="b571ad92-2a94-437f-a24d-4020f593f9fb" d="M141.85,184.33l0-.11Z"/><path class="b571ad92-2a94-437f-a24d-4020f593f9fb" d="M141.65,183.19l0-.19Z"/><path class="b571ad92-2a94-437f-a24d-4020f593f9fb" d="M141.05,181.13c0-.12-.1-.23-.15-.35C141,180.89,141,181,141.05,181.13Z"/><path class="b571ad92-2a94-437f-a24d-4020f593f9fb" d="M142,185.55v0Z"/><path class="b571ad92-2a94-437f-a24d-4020f593f9fb" d="M140.65,180.2c-.08-.16-.17-.3-.25-.45C140.48,179.9,140.57,180,140.65,180.2Z"/><path class="b571ad92-2a94-437f-a24d-4020f593f9fb" d="M140.18,179.36a8.07,8.07,0,0,0-.55-.77A8.16,8.16,0,0,1,140.18,179.36Z"/><path class="b571ad92-2a94-437f-a24d-4020f593f9fb" d="M151.34,184.19c0,.13-.06.26-.08.4C151.28,184.45,151.31,184.32,151.34,184.19Z"/><path class="b571ad92-2a94-437f-a24d-4020f593f9fb" d="M170.94,181.22c0-.12-.11-.23-.16-.35C170.83,181,170.89,181.1,170.94,181.22Z"/><path class="b571ad92-2a94-437f-a24d-4020f593f9fb" d="M171.92,185.58v0Z"/><path class="b571ad92-2a94-437f-a24d-4020f593f9fb" d="M171.57,183.27l0-.19Z"/><path class="b571ad92-2a94-437f-a24d-4020f593f9fb" d="M170.51,180.3c-.08-.16-.18-.31-.27-.46C170.33,180,170.43,180.14,170.51,180.3Z"/><path class="b571ad92-2a94-437f-a24d-4020f593f9fb" d="M171.29,182.21l-.09-.27Z"/><path class="b571ad92-2a94-437f-a24d-4020f593f9fb" d="M171.78,184.39l0-.11Z"/><path class="b571ad92-2a94-437f-a24d-4020f593f9fb" d="M141.38,182.12l-.08-.26Z"/><path class="b571ad92-2a94-437f-a24d-4020f593f9fb" d="M151.85,182.42a11.19,11.19,0,0,0-.35,1.07C151.61,183.12,151.72,182.76,151.85,182.42Z"/><path class="b571ad92-2a94-437f-a24d-4020f593f9fb" d="M170,179.45a8.6,8.6,0,0,0-.58-.78A8.71,8.71,0,0,1,170,179.45Z"/><path class="b571ad92-2a94-437f-a24d-4020f593f9fb" d="M151.11,185.56l0,.14Z"/><path class="b571ad92-2a94-437f-a24d-4020f593f9fb" d="M112.28,186.85v28.64a4.45,4.45,0,0,0,8.9,0V186.85h-8.9Z"/><path class="b571ad92-2a94-437f-a24d-4020f593f9fb" d="M220.87,179.41a8.46,8.46,0,0,0-.57-.78A8.56,8.56,0,0,1,220.87,179.41Z"/><path class="b571ad92-2a94-437f-a24d-4020f593f9fb" d="M231.23,183.18q.14.87.22,1.78C231.4,184.36,231.33,183.76,231.23,183.18Z"/><path class="b571ad92-2a94-437f-a24d-4020f593f9fb" d="M231.52,185.93c0,.3,0,.61,0,.92H222.8c0,.25,0,.5,0,.77v4A65.4,65.4,0,0,0,208.28,193a34.56,34.56,0,0,0-9.63,3.54,14.56,14.56,0,0,0-5.32,4.94,11.23,11.23,0,0,0-1.65,5.8,14.69,14.69,0,0,0,1.12,6,11.75,11.75,0,0,0,3,4.19,12.5,12.5,0,0,0,4.47,2.48,17.74,17.74,0,0,0,5.53.83,25.85,25.85,0,0,0,5.27-.5,20.64,20.64,0,0,0,4.48-1.47,22.44,22.44,0,0,0,4-2.4q1.89-1.42,3.9-3.23l1,4.7a2.16,2.16,0,0,0,1.05,1.7,4.65,4.65,0,0,0,2.1.4,4,4,0,0,0,4-3.95V187.54C231.58,187,231.56,186.46,231.52,185.93Zm-8.69,21.76a28,28,0,0,1-3.08,2.85,19.51,19.51,0,0,1-3.3,2.13,17.28,17.28,0,0,1-3.67,1.35,18.58,18.58,0,0,1-4.3.47,11.61,11.61,0,0,1-3.25-.43,6.79,6.79,0,0,1-2.6-1.35,6.48,6.48,0,0,1-1.75-2.39,8.36,8.36,0,0,1-.65-3.47,6.37,6.37,0,0,1,1.22-3.82,9.82,9.82,0,0,1,3.93-3,29.06,29.06,0,0,1,7-2,59.6,59.6,0,0,1,10.45-.78Z"/><path class="b571ad92-2a94-437f-a24d-4020f593f9fb" d="M230.9,181.45c.11.45.19.91.27,1.38C231.09,182.37,231,181.9,230.9,181.45Z"/><path class="b571ad92-2a94-437f-a24d-4020f593f9fb" d="M221.77,181.18c0-.11-.1-.22-.14-.33C221.68,181,221.73,181.07,221.77,181.18Z"/><path class="b571ad92-2a94-437f-a24d-4020f593f9fb" d="M221.36,180.26c-.08-.15-.17-.3-.25-.45C221.19,180,221.28,180.11,221.36,180.26Z"/><path class="b571ad92-2a94-437f-a24d-4020f593f9fb" d="M222.39,183.23l0-.16Z"/><path class="b571ad92-2a94-437f-a24d-4020f593f9fb" d="M222.73,185.57v0Z"/><path class="b571ad92-2a94-437f-a24d-4020f593f9fb" d="M222.12,182.17l-.08-.24Z"/><path class="b571ad92-2a94-437f-a24d-4020f593f9fb" d="M222.59,184.36v0Z"/><path class="b571ad92-2a94-437f-a24d-4020f593f9fb" d="M246.07,215.49a4.45,4.45,0,0,0,8.9,0V186.85h-8.9Z"/><path class="b571ad92-2a94-437f-a24d-4020f593f9fb" d="M271.67,215.49a4.45,4.45,0,1,0,8.9,0V186.85h-8.9Z"/><path class="b571ad92-2a94-437f-a24d-4020f593f9fb" d="M10.93,147.09a8.5,8.5,0,0,0-8.5,8.5v31.26h17V155.59A8.5,8.5,0,0,0,10.93,147.09Z"/><path class="b571ad92-2a94-437f-a24d-4020f593f9fb" d="M80.12,147.09H38.22a6.5,6.5,0,0,0,0,13h26.5L46,186.85h18.5l20.13-28.76a9.69,9.69,0,0,0,1.17-2.35,7.88,7.88,0,0,0,.42-2.55A6.1,6.1,0,0,0,80.12,147.09Z"/><path class="b571ad92-2a94-437f-a24d-4020f593f9fb" d="M112.28,174.59a5.28,5.28,0,0,1,.15-1.2v-17.8a8.5,8.5,0,1,0-17,0v31.26h16.85Z"/><path class="b571ad92-2a94-437f-a24d-4020f593f9fb" d="M180.79,184.87v0q-.08-.93-.21-1.82c0-.14-.05-.27-.07-.41-.08-.46-.16-.93-.26-1.37-.14-.59-.29-1.17-.47-1.73a16.6,16.6,0,0,0-3.33-6,14.1,14.1,0,0,0-5.3-3.72,18.73,18.73,0,0,0-7.12-1.28,20.43,20.43,0,0,0-4.92.6,16.41,16.41,0,0,0-4.58,1.9,16.14,16.14,0,0,0-3.87,3.3,15.85,15.85,0,0,0-2.77,4.75,16,16,0,0,0-4.58-7.7,12,12,0,0,0-8.33-2.85,14.77,14.77,0,0,0-8.08,2.2,26,26,0,0,0-6.27,5.65l-.65-5.2a2.27,2.27,0,0,0-2.4-1.85,5.35,5.35,0,0,0-5.3,5.3v12.26h8.9v-4.66a20.06,20.06,0,0,1,5.17-4.83,11.3,11.3,0,0,1,6.13-1.77q4.7,0,7.15,3a8.07,8.07,0,0,1,.55.77c.08.12.15.26.22.39s.17.3.25.45.17.38.26.58.1.23.15.35.17.48.25.73l.08.26c.08.28.16.58.22.88l0,.19q.1.5.18,1l0,.11q.08.57.13,1.17v0q.05.63.07,1.3h9c0-.39,0-.78.09-1.15l0-.14q.06-.5.14-1c0-.13.06-.26.08-.4s.1-.47.16-.7a11.19,11.19,0,0,1,.35-1.07,10.66,10.66,0,0,1,2.38-3.77,10.07,10.07,0,0,1,3.47-2.28,11.34,11.34,0,0,1,4.18-.77q4.95,0,7.55,3.08a8.6,8.6,0,0,1,.58.78c.08.12.16.26.23.39s.19.3.27.46.18.38.27.57.11.23.16.35.18.48.26.72l.09.27c.09.28.16.57.23.87l0,.19q.11.49.19,1l0,.11q.08.56.14,1.14v0q.05.62.08,1.27h8.9Q180.87,185.83,180.79,184.87Z"/><path class="b571ad92-2a94-437f-a24d-4020f593f9fb" d="M231.55,186.85q0-1-.1-1.89h0q-.08-.91-.22-1.78c0-.12,0-.23-.07-.35-.08-.47-.16-.93-.27-1.38s-.29-1.15-.47-1.71a16.52,16.52,0,0,0-3.4-6,15.49,15.49,0,0,0-5.55-3.9,19.18,19.18,0,0,0-7.55-1.4,28,28,0,0,0-10.75,2,27.54,27.54,0,0,0-6.45,3.79,4,4,0,0,0-1,5.06l0,0a3.61,3.61,0,0,0,1.08,1.17,2.66,2.66,0,0,0,1.58.48,4,4,0,0,0,2.32-.83q1.17-.82,2.8-1.85a20.68,20.68,0,0,1,3.85-1.85,15.84,15.84,0,0,1,5.47-.83q5,0,7.48,3a8.46,8.46,0,0,1,.57.78c.08.13.16.27.24.4s.18.29.25.45.18.39.27.59.1.22.14.33.18.5.26.75l.08.24c.09.29.16.59.24.9l0,.16q.11.51.19,1v.09q.08.57.14,1.17v0q.05.62.07,1.29h8.75Z"/><path class="b571ad92-2a94-437f-a24d-4020f593f9fb" d="M250.52,169.29a4.45,4.45,0,0,0-4.45,4.45v13.11H255V173.74A4.45,4.45,0,0,0,250.52,169.29Z"/><path class="b571ad92-2a94-437f-a24d-4020f593f9fb" d="M255,148.87a6.54,6.54,0,0,0-2-1.37,6.1,6.1,0,0,0-2.45-.5,5.91,5.91,0,0,0-2.42.5,6.61,6.61,0,0,0-2,1.38,6.43,6.43,0,0,0-1.37,2.05,6.25,6.25,0,0,0-.5,2.48,5.89,5.89,0,0,0,.5,2.42,6.66,6.66,0,0,0,3.38,3.38,5.9,5.9,0,0,0,2.42.5,6.08,6.08,0,0,0,2.45-.5,6.51,6.51,0,0,0,2-1.37,7,7,0,0,0,1.4-2,5.65,5.65,0,0,0,.53-2.42,6,6,0,0,0-.53-2.48A6.81,6.81,0,0,0,255,148.87Z"/><path class="b571ad92-2a94-437f-a24d-4020f593f9fb" d="M276.12,146.29a4.45,4.45,0,0,0-4.45,4.45v36.11h8.9V150.74A4.45,4.45,0,0,0,276.12,146.29Z"/></g></g></svg>