<svg xmlns="http://www.w3.org/2000/svg" xmlns:xlink="http://www.w3.org/1999/xlink" viewBox="0 0 358 146"><defs><style>.a2049e38-d493-46aa-bc76-46efa48a87ae{fill:url(#1aef589c-d8f1-40b5-81b0-e899cdfe2e77);}.e1a16c2e-f697-4a1d-855d-0fb904944e52{fill:#444;}.\37 8a90fe3-f417-4745-8c76-69fb6452fb9a{fill:#c33;}</style><linearGradient id="1aef589c-d8f1-40b5-81b0-e899cdfe2e77" y1="73" x2="358" y2="73" gradientUnits="userSpaceOnUse"><stop offset="0" stop-color="#444"/><stop offset="1" stop-color="#c33"/></linearGradient></defs><title>Asset 3</title><g id="187faaab-4cbd-4172-833a-16eaeaf4fffa" data-name="Layer 2"><g id="9bfbc35d-bc0e-4f10-a346-7476a4f6b834" data-name="Layer 1"><path class="a2049e38-d493-46aa-bc76-46efa48a87ae" d="M346,1a11,11,0,0,1,11,11V134a11,11,0,0,1-11,11H12A11,11,0,0,1,1,134V12A11,11,0,0,1,12,1H346m0-1H12A12,12,0,0,0,0,12V134a12,12,0,0,0,12,12H346a12,12,0,0,0,12-12V12A12,12,0,0,0,346,0Z"/><path class="e1a16c2e-f697-4a1d-855d-0fb904944e52" d="M172.93,24.14h-2a.91.91,0,0,1-.54-.15.8.8,0,0,1-.3-.39l-.65-1.9h-4.16l-.65,1.9a.87.87,0,0,1-.82.55h-2l4.23-10.93h2.59Zm-7-4.18h3l-1-3-.23-.67q-.13-.39-.26-.84-.12.46-.25.85c-.08.26-.17.49-.24.67Z"/><path class="e1a16c2e-f697-4a1d-855d-0fb904944e52" d="M176.21,12.92V24.14h-2.32V12.92Z"/><path class="e1a16c2e-f697-4a1d-855d-0fb904944e52" d="M180.75,14.24a1.22,1.22,0,0,1-.11.52,1.37,1.37,0,0,1-.31.43,1.49,1.49,0,0,1-.45.29,1.41,1.41,0,0,1-.55.11,1.31,1.31,0,0,1-.53-.11,1.48,1.48,0,0,1-.44-.29,1.35,1.35,0,0,1-.3-.43,1.26,1.26,0,0,1-.11-.52,1.31,1.31,0,0,1,.11-.53,1.39,1.39,0,0,1,.3-.43,1.41,1.41,0,0,1,.44-.29,1.36,1.36,0,0,1,.53-.1,1.46,1.46,0,0,1,.55.1,1.42,1.42,0,0,1,.45.29,1.41,1.41,0,0,1,.31.43A1.27,1.27,0,0,1,180.75,14.24Zm-.27,2.13v7.78h-2.32V16.37Z"/><path class="e1a16c2e-f697-4a1d-855d-0fb904944e52" d="M187.73,24.14a1.09,1.09,0,0,1-.5-.09.69.69,0,0,1-.28-.37l-.17-.43q-.29.25-.56.44a3.61,3.61,0,0,1-.56.32,2.76,2.76,0,0,1-.61.2,3.83,3.83,0,0,1-.72.06,3.16,3.16,0,0,1-1-.14,2,2,0,0,1-.74-.41,1.79,1.79,0,0,1-.47-.67,2.44,2.44,0,0,1-.17-.93,2,2,0,0,1,.21-.85,2.1,2.1,0,0,1,.73-.79,4.63,4.63,0,0,1,1.4-.6,8.55,8.55,0,0,1,2.21-.24V19.3a1.45,1.45,0,0,0-.28-1,1,1,0,0,0-.8-.31,2.1,2.1,0,0,0-.68.09,3,3,0,0,0-.47.2l-.4.2a1.09,1.09,0,0,1-.46.09.7.7,0,0,1-.41-.12.86.86,0,0,1-.27-.29l-.42-.73a4.74,4.74,0,0,1,1.56-.93,5.49,5.49,0,0,1,1.84-.3,3.37,3.37,0,0,1,1.27.23,2.75,2.75,0,0,1,1,.64,2.81,2.81,0,0,1,.6,1,3.5,3.5,0,0,1,.21,1.23v4.86Zm-2.67-1.42a1.84,1.84,0,0,0,.79-.16,2.39,2.39,0,0,0,.68-.51V21a6,6,0,0,0-1.15.09,2.77,2.77,0,0,0-.71.23.87.87,0,0,0-.36.31.74.74,0,0,0-.1.38.66.66,0,0,0,.22.56A1.05,1.05,0,0,0,185.06,22.73Z"/><path class="e1a16c2e-f697-4a1d-855d-0fb904944e52" d="M195.2,18.07a.59.59,0,0,1-.19.2.5.5,0,0,1-.26.06.82.82,0,0,1-.33-.07l-.36-.15-.43-.15a1.94,1.94,0,0,0-.55-.07,1.16,1.16,0,0,0-.68.17.54.54,0,0,0-.24.47.47.47,0,0,0,.15.36,1.42,1.42,0,0,0,.41.25,5.56,5.56,0,0,0,.58.21l.66.22a5.93,5.93,0,0,1,.66.28,2.47,2.47,0,0,1,.58.4,1.78,1.78,0,0,1,.41.57,2,2,0,0,1,.15.81,2.66,2.66,0,0,1-.21,1.06,2.26,2.26,0,0,1-.63.84,3,3,0,0,1-1,.55,4.64,4.64,0,0,1-1.41.2,4.29,4.29,0,0,1-.79-.08,5.49,5.49,0,0,1-.77-.2,4.22,4.22,0,0,1-.69-.3,3,3,0,0,1-.54-.38l.54-.86a.78.78,0,0,1,.23-.24.65.65,0,0,1,.35-.09.74.74,0,0,1,.36.09l.35.2a2.92,2.92,0,0,0,.44.2,1.91,1.91,0,0,0,.63.09,1.59,1.59,0,0,0,.46-.06.81.81,0,0,0,.3-.15.62.62,0,0,0,.17-.22.61.61,0,0,0,.05-.25.51.51,0,0,0-.16-.38,1.39,1.39,0,0,0-.41-.26,5,5,0,0,0-.58-.2l-.66-.21a5.35,5.35,0,0,1-.66-.29,2.26,2.26,0,0,1-.58-.43,2,2,0,0,1-.41-.63,2.54,2.54,0,0,1,0-1.85,2.18,2.18,0,0,1,.57-.78,2.81,2.81,0,0,1,1-.54,4.17,4.17,0,0,1,1.35-.2,4.36,4.36,0,0,1,.81.08,4.13,4.13,0,0,1,.74.21,3.56,3.56,0,0,1,.63.32,3.08,3.08,0,0,1,.5.4Z"/><path class="78a90fe3-f417-4745-8c76-69fb6452fb9a" d="M146,31.22h2.13a1,1,0,0,1,.55.15.69.69,0,0,1,.29.4l1.5,5.7q.07.28.15.59a5.37,5.37,0,0,1,.11.66c0-.23.1-.46.17-.66l.17-.59,1.77-5.7a.79.79,0,0,1,.29-.38.86.86,0,0,1,.54-.17h.75a.94.94,0,0,1,.54.15.75.75,0,0,1,.3.4l1.75,5.7.17.56q.09.3.16.63.06-.33.12-.63t.13-.56l1.5-5.7a.71.71,0,0,1,.29-.38.89.89,0,0,1,.54-.17h2l-3.37,10.93h-2.3l-2.05-6.77-.11-.34c0-.12-.07-.26-.11-.4,0,.14-.07.27-.11.4l-.11.34-2.08,6.77h-2.29Z"/><path class="78a90fe3-f417-4745-8c76-69fb6452fb9a" d="M165.84,34.25a4,4,0,0,1,1.41.24,3.07,3.07,0,0,1,1.1.7,3.18,3.18,0,0,1,.72,1.12,4.12,4.12,0,0,1,.26,1.5,3.36,3.36,0,0,1,0,.43.69.69,0,0,1-.08.26.32.32,0,0,1-.16.13.77.77,0,0,1-.26,0h-4.49a2.19,2.19,0,0,0,.59,1.41,1.76,1.76,0,0,0,1.24.44,2.21,2.21,0,0,0,.7-.1,3.45,3.45,0,0,0,.52-.22l.42-.22a.87.87,0,0,1,.4-.1.48.48,0,0,1,.42.2l.68.83a3.46,3.46,0,0,1-.78.67,4,4,0,0,1-.85.41,4.59,4.59,0,0,1-.88.2,6.48,6.48,0,0,1-.84.06,4.36,4.36,0,0,1-1.53-.27,3.52,3.52,0,0,1-1.25-.79,3.73,3.73,0,0,1-.85-1.3,4.88,4.88,0,0,1-.31-1.82,4.1,4.1,0,0,1,.27-1.48,3.59,3.59,0,0,1,2-2.05A4,4,0,0,1,165.84,34.25Zm0,1.6a1.4,1.4,0,0,0-1,.38,2,2,0,0,0-.5,1.09h2.9a2.05,2.05,0,0,0-.07-.54,1.32,1.32,0,0,0-.23-.47,1.19,1.19,0,0,0-.42-.33A1.45,1.45,0,0,0,165.88,35.85Z"/><path class="78a90fe3-f417-4745-8c76-69fb6452fb9a" d="M170.67,42.14V30.92H173v4.28a3.55,3.55,0,0,1,1-.69,3,3,0,0,1,1.29-.26,2.45,2.45,0,0,1,1.13.26,2.52,2.52,0,0,1,.89.77,3.9,3.9,0,0,1,.59,1.24,6,6,0,0,1,.21,1.67,5.17,5.17,0,0,1-.24,1.62,4.06,4.06,0,0,1-.68,1.29,3.14,3.14,0,0,1-1.05.86,3,3,0,0,1-1.35.31,2.59,2.59,0,0,1-.62-.07,2.14,2.14,0,0,1-.5-.19,2.21,2.21,0,0,1-.42-.3,4.9,4.9,0,0,1-.37-.37l-.08.39a.5.5,0,0,1-.19.33.66.66,0,0,1-.36.09ZM174.46,36a2,2,0,0,0-.46,0,1.75,1.75,0,0,0-.38.14,1.47,1.47,0,0,0-.33.23,3.28,3.28,0,0,0-.3.32V40a1.47,1.47,0,0,0,.57.41,1.82,1.82,0,0,0,.65.12,1.37,1.37,0,0,0,.59-.13,1.21,1.21,0,0,0,.47-.41,2.19,2.19,0,0,0,.31-.73,4.57,4.57,0,0,0,.11-1.09,5,5,0,0,0-.09-1,2.13,2.13,0,0,0-.25-.68,1,1,0,0,0-.39-.37A1.11,1.11,0,0,0,174.46,36Z"/><path class="78a90fe3-f417-4745-8c76-69fb6452fb9a" d="M188.14,37.74c.09.21.18.42.27.63q.13-.33.27-.64t.29-.6l2.8-5.53a.89.89,0,0,1,.15-.22.5.5,0,0,1,.18-.12.62.62,0,0,1,.22,0h2.22V42.14h-2.24V35.86q0-.46,0-1l-2.89,5.62a1,1,0,0,1-.36.4,1,1,0,0,1-.52.13h-.34a1,1,0,0,1-.52-.13,1,1,0,0,1-.36-.4l-2.91-5.62c0,.17,0,.35,0,.52s0,.33,0,.48v6.29h-2.23V31.22h2.22a.63.63,0,0,1,.22,0,.51.51,0,0,1,.18.12.9.9,0,0,1,.15.22l2.81,5.55C188,37.34,188,37.54,188.14,37.74Z"/><path class="78a90fe3-f417-4745-8c76-69fb6452fb9a" d="M201.72,42.14a1.09,1.09,0,0,1-.5-.09.69.69,0,0,1-.28-.37l-.17-.43q-.29.25-.56.44a3.58,3.58,0,0,1-.56.32,2.76,2.76,0,0,1-.62.2,3.83,3.83,0,0,1-.72.06,3.16,3.16,0,0,1-1-.14,2,2,0,0,1-.74-.41,1.78,1.78,0,0,1-.47-.67,2.43,2.43,0,0,1-.17-.93,1.94,1.94,0,0,1,.21-.85,2.09,2.09,0,0,1,.73-.79,4.62,4.62,0,0,1,1.39-.6,8.55,8.55,0,0,1,2.21-.24V37.3a1.45,1.45,0,0,0-.28-1,1,1,0,0,0-.8-.31,2.1,2.1,0,0,0-.67.09,3,3,0,0,0-.47.2l-.4.2a1.09,1.09,0,0,1-.46.09.7.7,0,0,1-.41-.12.85.85,0,0,1-.27-.29l-.42-.73a4.74,4.74,0,0,1,1.56-.93,5.49,5.49,0,0,1,1.84-.3,3.37,3.37,0,0,1,1.27.23,2.7,2.7,0,0,1,1.56,1.61,3.48,3.48,0,0,1,.21,1.23v4.86ZM199,40.73a1.84,1.84,0,0,0,.79-.16,2.39,2.39,0,0,0,.68-.51V39a6,6,0,0,0-1.15.09,2.77,2.77,0,0,0-.71.23.87.87,0,0,0-.36.31.74.74,0,0,0-.1.38.66.66,0,0,0,.22.56A1.05,1.05,0,0,0,199,40.73Z"/><path class="78a90fe3-f417-4745-8c76-69fb6452fb9a" d="M207.1,32.24a1.22,1.22,0,0,1-.11.52,1.37,1.37,0,0,1-.31.43,1.5,1.5,0,0,1-.45.29,1.41,1.41,0,0,1-.55.11,1.31,1.31,0,0,1-.53-.11,1.47,1.47,0,0,1-.44-.29,1.35,1.35,0,0,1-.3-.43,1.26,1.26,0,0,1-.11-.52,1.31,1.31,0,0,1,.11-.53,1.39,1.39,0,0,1,.3-.43,1.4,1.4,0,0,1,.44-.29,1.36,1.36,0,0,1,.53-.1,1.47,1.47,0,0,1,.55.1,1.42,1.42,0,0,1,.45.29,1.41,1.41,0,0,1,.31.43A1.27,1.27,0,0,1,207.1,32.24Zm-.27,2.13v7.78h-2.33V34.37Z"/><path class="78a90fe3-f417-4745-8c76-69fb6452fb9a" d="M211.11,30.92V42.14h-2.32V30.92Z"/><path class="e1a16c2e-f697-4a1d-855d-0fb904944e52" d="M153.38,60.14h-2a.91.91,0,0,1-.54-.15.8.8,0,0,1-.3-.39l-.65-1.9h-4.16l-.65,1.9a.87.87,0,0,1-.82.55h-2l4.23-10.93h2.59Zm-7-4.18h3l-1-3-.23-.67q-.13-.39-.26-.84-.12.46-.25.85c-.08.26-.17.49-.24.67Z"/><path class="e1a16c2e-f697-4a1d-855d-0fb904944e52" d="M154.27,60.14V52.37h1.44a.64.64,0,0,1,.36.1.52.52,0,0,1,.21.29l.13.45a5.78,5.78,0,0,1,.46-.39,2.7,2.7,0,0,1,.51-.3,3,3,0,0,1,.59-.2,3.16,3.16,0,0,1,.69-.07,2.73,2.73,0,0,1,1.13.22,2.34,2.34,0,0,1,.83.61,2.65,2.65,0,0,1,.51.94,3.89,3.89,0,0,1,.17,1.18v4.94H159V55.2a1.36,1.36,0,0,0-.26-.89A.94.94,0,0,0,158,54a1.63,1.63,0,0,0-.72.17,2.82,2.82,0,0,0-.65.44v5.54Z"/><path class="e1a16c2e-f697-4a1d-855d-0fb904944e52" d="M165.7,60.26a2.74,2.74,0,0,1-1-.16,1.89,1.89,0,0,1-1.15-1.17,2.77,2.77,0,0,1-.15-.94V54h-.66a.42.42,0,0,1-.44-.46v-.91l1.24-.24.46-1.9a.46.46,0,0,1,.51-.36h1.21v2.27h1.89V54h-1.89v3.86a.73.73,0,0,0,.13.45.44.44,0,0,0,.38.18.74.74,0,0,0,.21,0l.15-.06.12-.06a.3.3,0,0,1,.13,0,.27.27,0,0,1,.17,0,.61.61,0,0,1,.13.15l.71,1.1a3.22,3.22,0,0,1-1,.51A4,4,0,0,1,165.7,60.26Z"/><path class="e1a16c2e-f697-4a1d-855d-0fb904944e52" d="M171.64,50.24a1.22,1.22,0,0,1-.11.52,1.37,1.37,0,0,1-.31.43,1.49,1.49,0,0,1-.45.29,1.41,1.41,0,0,1-.55.11,1.31,1.31,0,0,1-.53-.11,1.48,1.48,0,0,1-.44-.29,1.35,1.35,0,0,1-.3-.43,1.26,1.26,0,0,1-.11-.52,1.31,1.31,0,0,1,.11-.53,1.39,1.39,0,0,1,.3-.43,1.41,1.41,0,0,1,.44-.29,1.36,1.36,0,0,1,.53-.1,1.46,1.46,0,0,1,.55.1,1.42,1.42,0,0,1,.45.29,1.41,1.41,0,0,1,.31.43A1.27,1.27,0,0,1,171.64,50.24Zm-.27,2.13v7.78H169V52.37Z"/><path class="e1a16c2e-f697-4a1d-855d-0fb904944e52" d="M173.09,54.65h4v1.88h-4Z"/><path class="e1a16c2e-f697-4a1d-855d-0fb904944e52" d="M184.88,51.44a1,1,0,0,1-.24.27.53.53,0,0,1-.32.09.78.78,0,0,1-.37-.11l-.45-.24a3.73,3.73,0,0,0-.57-.24,2.27,2.27,0,0,0-.73-.11,1.58,1.58,0,0,0-1.06.3,1,1,0,0,0-.35.82.76.76,0,0,0,.21.55,1.83,1.83,0,0,0,.55.38,6,6,0,0,0,.78.29l.9.29a7.93,7.93,0,0,1,.9.38,3,3,0,0,1,.78.55,2.6,2.6,0,0,1,.55.82,2.93,2.93,0,0,1,.21,1.17,3.8,3.8,0,0,1-.26,1.42,3.31,3.31,0,0,1-.76,1.15,3.54,3.54,0,0,1-1.23.77,4.6,4.6,0,0,1-1.66.28,5.3,5.3,0,0,1-1-.11,6.07,6.07,0,0,1-1-.3,5.91,5.91,0,0,1-.93-.45,3.9,3.9,0,0,1-.76-.58l.75-1.18a.62.62,0,0,1,.23-.22.66.66,0,0,1,.32-.08.85.85,0,0,1,.45.14l.52.31a4.16,4.16,0,0,0,.66.32,2.49,2.49,0,0,0,.89.14,1.69,1.69,0,0,0,1.07-.3,1.16,1.16,0,0,0,.38-1,.91.91,0,0,0-.21-.62,1.62,1.62,0,0,0-.55-.4,5.16,5.16,0,0,0-.78-.28l-.89-.27a6.41,6.41,0,0,1-.89-.36,2.82,2.82,0,0,1-.78-.56,2.63,2.63,0,0,1-.55-.87,3.45,3.45,0,0,1-.21-1.29,3.05,3.05,0,0,1,.25-1.2,3.11,3.11,0,0,1,.73-1,3.58,3.58,0,0,1,1.18-.73,4.34,4.34,0,0,1,1.6-.27,6,6,0,0,1,1,.08,5.17,5.17,0,0,1,.9.23,5,5,0,0,1,.8.37,3.67,3.67,0,0,1,.66.48Z"/><path class="e1a16c2e-f697-4a1d-855d-0fb904944e52" d="M186.92,62.61V52.37h1.44a.64.64,0,0,1,.36.1.52.52,0,0,1,.21.29l.17.57a3.82,3.82,0,0,1,.48-.45,3.23,3.23,0,0,1,.55-.35,3,3,0,0,1,.64-.23,3.14,3.14,0,0,1,.75-.08,2.39,2.39,0,0,1,1.13.27,2.58,2.58,0,0,1,.89.78,4,4,0,0,1,.59,1.25,6,6,0,0,1,.21,1.68,5.15,5.15,0,0,1-.24,1.62,4.07,4.07,0,0,1-.68,1.29,3.14,3.14,0,0,1-1.05.86,3,3,0,0,1-1.35.31,2.64,2.64,0,0,1-1-.17,2.73,2.73,0,0,1-.75-.46v3ZM190.71,54a2,2,0,0,0-.46,0,1.74,1.74,0,0,0-.38.14,1.46,1.46,0,0,0-.33.23,3.17,3.17,0,0,0-.3.32V58a1.47,1.47,0,0,0,.57.41,1.82,1.82,0,0,0,.65.12,1.37,1.37,0,0,0,.59-.13,1.21,1.21,0,0,0,.47-.41,2.2,2.2,0,0,0,.31-.73,4.57,4.57,0,0,0,.11-1.09,5,5,0,0,0-.09-1,2.12,2.12,0,0,0-.25-.68,1,1,0,0,0-.39-.37A1.1,1.1,0,0,0,190.71,54Z"/><path class="e1a16c2e-f697-4a1d-855d-0fb904944e52" d="M201,60.14a1.09,1.09,0,0,1-.5-.09.68.68,0,0,1-.28-.37l-.17-.43q-.29.25-.56.44a3.64,3.64,0,0,1-.56.32,2.77,2.77,0,0,1-.61.2,3.83,3.83,0,0,1-.72.06,3.16,3.16,0,0,1-1-.14,2,2,0,0,1-.74-.41,1.8,1.8,0,0,1-.47-.67,2.45,2.45,0,0,1-.17-.93,2,2,0,0,1,.21-.85,2.1,2.1,0,0,1,.73-.79,4.64,4.64,0,0,1,1.4-.6,8.55,8.55,0,0,1,2.21-.24V55.3a1.45,1.45,0,0,0-.28-1,1,1,0,0,0-.8-.31,2.1,2.1,0,0,0-.68.09,3,3,0,0,0-.47.2l-.4.2a1.09,1.09,0,0,1-.46.09.7.7,0,0,1-.41-.12.86.86,0,0,1-.27-.29l-.42-.73a4.74,4.74,0,0,1,1.56-.93,5.49,5.49,0,0,1,1.84-.3,3.37,3.37,0,0,1,1.27.23,2.75,2.75,0,0,1,1,.64,2.81,2.81,0,0,1,.6,1,3.5,3.5,0,0,1,.21,1.23v4.86Zm-2.67-1.42a1.84,1.84,0,0,0,.79-.16,2.38,2.38,0,0,0,.68-.51V57a6,6,0,0,0-1.15.09,2.76,2.76,0,0,0-.71.23.87.87,0,0,0-.36.31.74.74,0,0,0-.1.38.66.66,0,0,0,.22.56A1.06,1.06,0,0,0,198.29,58.73Z"/><path class="e1a16c2e-f697-4a1d-855d-0fb904944e52" d="M203.67,60.14V52.37h1.44a.64.64,0,0,1,.36.1.52.52,0,0,1,.21.29l.13.42a4.23,4.23,0,0,1,.41-.37,2.55,2.55,0,0,1,.45-.29,2.45,2.45,0,0,1,1.14-.27,1.83,1.83,0,0,1,1.17.36,2.27,2.27,0,0,1,.7,1,2.29,2.29,0,0,1,.48-.62,2.54,2.54,0,0,1,.61-.41,2.93,2.93,0,0,1,.69-.23,3.6,3.6,0,0,1,.72-.08,3.3,3.3,0,0,1,1.19.2,2.26,2.26,0,0,1,.87.58,2.48,2.48,0,0,1,.53.93,4,4,0,0,1,.18,1.25v4.94h-2.33V55.2q0-1.21-1-1.21a1.06,1.06,0,0,0-.78.31,1.21,1.21,0,0,0-.31.9v4.94h-2.33V55.2a1.33,1.33,0,0,0-.26-.94,1,1,0,0,0-.77-.27,1.3,1.3,0,0,0-.6.14,2.19,2.19,0,0,0-.53.38v5.63Z"/><path class="78a90fe3-f417-4745-8c76-69fb6452fb9a" d="M135.81,69.44a1,1,0,0,1-.24.27.53.53,0,0,1-.32.09.78.78,0,0,1-.37-.11l-.45-.24a3.73,3.73,0,0,0-.57-.24,2.27,2.27,0,0,0-.73-.11,1.58,1.58,0,0,0-1.06.3,1,1,0,0,0-.35.82.76.76,0,0,0,.21.55,1.83,1.83,0,0,0,.55.38,6,6,0,0,0,.78.29l.9.29a7.93,7.93,0,0,1,.9.38,3,3,0,0,1,.78.55,2.6,2.6,0,0,1,.55.82,2.93,2.93,0,0,1,.21,1.17,3.8,3.8,0,0,1-.26,1.42,3.31,3.31,0,0,1-.76,1.15,3.54,3.54,0,0,1-1.23.77,4.6,4.6,0,0,1-1.66.28,5.3,5.3,0,0,1-1-.11,6.07,6.07,0,0,1-1-.3,5.91,5.91,0,0,1-.93-.45,3.9,3.9,0,0,1-.76-.58l.75-1.18a.62.62,0,0,1,.23-.22.66.66,0,0,1,.32-.08.85.85,0,0,1,.45.14l.52.31a4.16,4.16,0,0,0,.66.32,2.49,2.49,0,0,0,.89.14,1.69,1.69,0,0,0,1.07-.3,1.16,1.16,0,0,0,.38-1,.91.91,0,0,0-.21-.62,1.62,1.62,0,0,0-.55-.4,5.16,5.16,0,0,0-.78-.28l-.89-.27a6.41,6.41,0,0,1-.89-.36,2.82,2.82,0,0,1-.78-.56,2.63,2.63,0,0,1-.55-.87,3.45,3.45,0,0,1-.21-1.29,3.05,3.05,0,0,1,.25-1.2,3.11,3.11,0,0,1,.73-1,3.58,3.58,0,0,1,1.18-.73,4.34,4.34,0,0,1,1.6-.27,6,6,0,0,1,1,.08,5.17,5.17,0,0,1,.9.23,5,5,0,0,1,.8.37,3.67,3.67,0,0,1,.66.48Z"/><path class="78a90fe3-f417-4745-8c76-69fb6452fb9a" d="M140,70.37V75.3a1.36,1.36,0,0,0,.26.89,1,1,0,0,0,.77.32,1.65,1.65,0,0,0,.72-.16,2.64,2.64,0,0,0,.65-.44V70.37h2.32v7.78h-1.44a.55.55,0,0,1-.57-.39l-.14-.45a4.55,4.55,0,0,1-.46.39,2.85,2.85,0,0,1-.51.3,3.06,3.06,0,0,1-.59.2,3.11,3.11,0,0,1-.69.07,2.72,2.72,0,0,1-1.13-.22,2.32,2.32,0,0,1-.83-.62,2.71,2.71,0,0,1-.51-.94,3.89,3.89,0,0,1-.17-1.19V70.37Z"/><path class="78a90fe3-f417-4745-8c76-69fb6452fb9a" d="M146.55,80.61V70.37H148a.64.64,0,0,1,.36.1.52.52,0,0,1,.21.29l.17.57a3.86,3.86,0,0,1,.48-.45,3.21,3.21,0,0,1,.55-.35,3,3,0,0,1,.64-.23,3.14,3.14,0,0,1,.75-.08,2.39,2.39,0,0,1,1.13.27,2.59,2.59,0,0,1,.89.78,4,4,0,0,1,.59,1.25,6,6,0,0,1,.21,1.68,5.17,5.17,0,0,1-.24,1.62A4.06,4.06,0,0,1,153,77.1,3.14,3.14,0,0,1,152,78a3,3,0,0,1-1.35.31,2.64,2.64,0,0,1-1-.17,2.75,2.75,0,0,1-.75-.46v3ZM150.34,72a2,2,0,0,0-.46,0,1.75,1.75,0,0,0-.38.14,1.47,1.47,0,0,0-.33.23,3.28,3.28,0,0,0-.3.32V76a1.47,1.47,0,0,0,.57.41,1.82,1.82,0,0,0,.65.12,1.37,1.37,0,0,0,.59-.13,1.21,1.21,0,0,0,.47-.41,2.19,2.19,0,0,0,.31-.73,4.57,4.57,0,0,0,.11-1.09,5,5,0,0,0-.09-1,2.13,2.13,0,0,0-.25-.68,1,1,0,0,0-.39-.37A1.11,1.11,0,0,0,150.34,72Z"/><path class="78a90fe3-f417-4745-8c76-69fb6452fb9a" d="M158.68,70.25a4.5,4.5,0,0,1,1.61.28,3.48,3.48,0,0,1,2.06,2.05,4.53,4.53,0,0,1,.29,1.66,4.61,4.61,0,0,1-.29,1.68,3.6,3.6,0,0,1-.81,1.27,3.55,3.55,0,0,1-1.25.8,4.44,4.44,0,0,1-1.61.28,4.49,4.49,0,0,1-1.62-.28,3.62,3.62,0,0,1-1.26-.8,3.55,3.55,0,0,1-.82-1.27,4.61,4.61,0,0,1-.29-1.68,4.53,4.53,0,0,1,.29-1.66,3.52,3.52,0,0,1,.82-1.26,3.62,3.62,0,0,1,1.26-.79A4.55,4.55,0,0,1,158.68,70.25Zm0,6.29a1.32,1.32,0,0,0,1.18-.57,4.1,4.1,0,0,0,0-3.44,1.32,1.32,0,0,0-1.18-.56,1.36,1.36,0,0,0-1.21.56,4.05,4.05,0,0,0,0,3.44A1.35,1.35,0,0,0,158.68,76.54Z"/><path class="78a90fe3-f417-4745-8c76-69fb6452fb9a" d="M163.92,78.14V70.37h1.38a1.15,1.15,0,0,1,.29,0,.49.49,0,0,1,.19.09.4.4,0,0,1,.12.17,1.56,1.56,0,0,1,.07.25l.13.73a3.82,3.82,0,0,1,1-1,2,2,0,0,1,1.16-.38,1.34,1.34,0,0,1,.85.25l-.3,1.71a.33.33,0,0,1-.12.22.4.4,0,0,1-.24.06l-.3,0a2.33,2.33,0,0,0-.44,0,1.6,1.6,0,0,0-1.44,1v4.77Z"/><path class="78a90fe3-f417-4745-8c76-69fb6452fb9a" d="M172.84,78.26a2.74,2.74,0,0,1-1-.16,1.89,1.89,0,0,1-1.15-1.17,2.77,2.77,0,0,1-.15-.94V72h-.66a.42.42,0,0,1-.44-.46v-.91l1.24-.24.46-1.9a.46.46,0,0,1,.51-.36h1.21v2.27h1.89V72h-1.89v3.86a.73.73,0,0,0,.13.45.44.44,0,0,0,.38.18.74.74,0,0,0,.21,0l.15-.06.12-.06a.3.3,0,0,1,.13,0,.27.27,0,0,1,.17,0,.61.61,0,0,1,.13.15l.71,1.1a3.22,3.22,0,0,1-1,.51A4,4,0,0,1,172.84,78.26Z"/><path class="78a90fe3-f417-4745-8c76-69fb6452fb9a" d="M179.44,70.25a4,4,0,0,1,1.41.24,3.07,3.07,0,0,1,1.1.7,3.18,3.18,0,0,1,.72,1.12,4.12,4.12,0,0,1,.26,1.5,3.36,3.36,0,0,1,0,.43.69.69,0,0,1-.08.26.32.32,0,0,1-.16.13.77.77,0,0,1-.26,0h-4.49a2.19,2.19,0,0,0,.59,1.41,1.76,1.76,0,0,0,1.24.44,2.21,2.21,0,0,0,.7-.1,3.45,3.45,0,0,0,.52-.22l.42-.22a.87.87,0,0,1,.4-.1.48.48,0,0,1,.42.2l.68.83a3.46,3.46,0,0,1-.78.67,4,4,0,0,1-.85.41,4.59,4.59,0,0,1-.88.2,6.48,6.48,0,0,1-.84.06A4.36,4.36,0,0,1,178,78a3.52,3.52,0,0,1-1.25-.79,3.73,3.73,0,0,1-.85-1.3,4.88,4.88,0,0,1-.31-1.82,4.1,4.1,0,0,1,.27-1.48,3.59,3.59,0,0,1,2-2.05A4,4,0,0,1,179.44,70.25Zm0,1.6a1.4,1.4,0,0,0-1,.38,2,2,0,0,0-.5,1.09h2.9a2.05,2.05,0,0,0-.07-.54,1.32,1.32,0,0,0-.23-.47,1.19,1.19,0,0,0-.42-.33A1.45,1.45,0,0,0,179.49,71.85Z"/><path class="78a90fe3-f417-4745-8c76-69fb6452fb9a" d="M193,73.74c.09.21.18.42.27.63q.13-.33.27-.64t.29-.6l2.8-5.53a.89.89,0,0,1,.15-.22.5.5,0,0,1,.18-.12.62.62,0,0,1,.22,0h2.22V78.14h-2.24V71.86q0-.46,0-1l-2.89,5.62a1,1,0,0,1-.36.4,1,1,0,0,1-.52.13h-.34a1,1,0,0,1-.52-.13,1,1,0,0,1-.36-.4l-2.91-5.62c0,.17,0,.35,0,.52s0,.33,0,.48v6.29h-2.23V67.22h2.22a.63.63,0,0,1,.22,0,.51.51,0,0,1,.18.12.89.89,0,0,1,.15.22l2.81,5.55C192.85,73.34,193,73.54,193,73.74Z"/><path class="78a90fe3-f417-4745-8c76-69fb6452fb9a" d="M204.72,70.25a4.5,4.5,0,0,1,1.61.28,3.47,3.47,0,0,1,2.06,2.05,4.53,4.53,0,0,1,.29,1.66,4.61,4.61,0,0,1-.29,1.68,3.6,3.6,0,0,1-.81,1.27,3.55,3.55,0,0,1-1.25.8,4.44,4.44,0,0,1-1.61.28,4.49,4.49,0,0,1-1.62-.28,3.62,3.62,0,0,1-1.26-.8,3.55,3.55,0,0,1-.82-1.27,4.61,4.61,0,0,1-.29-1.68,4.53,4.53,0,0,1,.29-1.66,3.52,3.52,0,0,1,.82-1.26,3.62,3.62,0,0,1,1.26-.79A4.56,4.56,0,0,1,204.72,70.25Zm0,6.29A1.32,1.32,0,0,0,205.9,76a4.1,4.1,0,0,0,0-3.44,1.32,1.32,0,0,0-1.18-.56,1.36,1.36,0,0,0-1.21.56,4.05,4.05,0,0,0,0,3.44A1.35,1.35,0,0,0,204.72,76.54Zm3-9.44-2,2a1.16,1.16,0,0,1-.33.24,1,1,0,0,1-.42.07h-1.39l1-1.84a1,1,0,0,1,.3-.33,1,1,0,0,1,.52-.12Z"/><path class="78a90fe3-f417-4745-8c76-69fb6452fb9a" d="M214,78.14h-2.12l-3-7.78h1.93a.72.72,0,0,1,.42.12.58.58,0,0,1,.23.29l1.08,3.49.24.83c.08.27.14.54.2.81.05-.27.12-.54.2-.81l.25-.83,1.13-3.49a.59.59,0,0,1,.22-.29.66.66,0,0,1,.39-.12H217Z"/><path class="78a90fe3-f417-4745-8c76-69fb6452fb9a" d="M221,70.25a4,4,0,0,1,1.41.24,3.08,3.08,0,0,1,1.1.7,3.17,3.17,0,0,1,.72,1.12,4.11,4.11,0,0,1,.26,1.5,3.36,3.36,0,0,1,0,.43.68.68,0,0,1-.08.26.32.32,0,0,1-.16.13.78.78,0,0,1-.26,0h-4.49a2.19,2.19,0,0,0,.59,1.41,1.76,1.76,0,0,0,1.24.44,2.2,2.2,0,0,0,.7-.1,3.44,3.44,0,0,0,.52-.22l.42-.22a.86.86,0,0,1,.4-.1.48.48,0,0,1,.42.2l.67.83a3.46,3.46,0,0,1-.78.67,4,4,0,0,1-.85.41,4.6,4.6,0,0,1-.88.2,6.48,6.48,0,0,1-.84.06,4.36,4.36,0,0,1-1.53-.27,3.52,3.52,0,0,1-1.25-.79,3.73,3.73,0,0,1-.85-1.3,4.87,4.87,0,0,1-.31-1.82,4.1,4.1,0,0,1,.27-1.48,3.58,3.58,0,0,1,2-2.05A4,4,0,0,1,221,70.25Zm0,1.6a1.4,1.4,0,0,0-1,.38,2,2,0,0,0-.5,1.09h2.9a2,2,0,0,0-.07-.54,1.32,1.32,0,0,0-.23-.47,1.18,1.18,0,0,0-.42-.33A1.45,1.45,0,0,0,221,71.85Z"/><path class="78a90fe3-f417-4745-8c76-69fb6452fb9a" d="M228.21,66.92V78.14h-2.33V66.92Z"/><path class="e1a16c2e-f697-4a1d-855d-0fb904944e52" d="M127,91.74c.09.21.18.42.27.63q.13-.33.27-.64t.29-.6l2.81-5.53a.89.89,0,0,1,.15-.22.5.5,0,0,1,.18-.12.62.62,0,0,1,.22,0h2.22V96.14h-2.23V89.86q0-.46,0-1l-2.9,5.62a1,1,0,0,1-.36.4,1,1,0,0,1-.52.13h-.34a1,1,0,0,1-.52-.13,1,1,0,0,1-.36-.4l-2.91-5.62c0,.17,0,.35,0,.52s0,.33,0,.48v6.29h-2.23V85.22h2.22a.63.63,0,0,1,.22,0,.51.51,0,0,1,.18.12.9.9,0,0,1,.15.22l2.81,5.55Q126.85,91.43,127,91.74Z"/><path class="e1a16c2e-f697-4a1d-855d-0fb904944e52" d="M137.38,88.37V93.3a1.36,1.36,0,0,0,.26.89,1,1,0,0,0,.77.32,1.65,1.65,0,0,0,.72-.16,2.64,2.64,0,0,0,.65-.44V88.37h2.32v7.78h-1.44a.55.55,0,0,1-.57-.39l-.14-.45a4.55,4.55,0,0,1-.46.39,2.85,2.85,0,0,1-.51.3,3.06,3.06,0,0,1-.59.2,3.11,3.11,0,0,1-.69.07,2.72,2.72,0,0,1-1.13-.22,2.32,2.32,0,0,1-.83-.62,2.71,2.71,0,0,1-.51-.94,3.89,3.89,0,0,1-.17-1.19V88.37Z"/><path class="e1a16c2e-f697-4a1d-855d-0fb904944e52" d="M146.3,84.92V96.14H144V84.92Z"/><path class="e1a16c2e-f697-4a1d-855d-0fb904944e52" d="M150.91,96.26a2.74,2.74,0,0,1-1-.16,1.89,1.89,0,0,1-1.15-1.17,2.77,2.77,0,0,1-.15-.94V90H148a.42.42,0,0,1-.44-.46v-.91l1.24-.24.46-1.9a.46.46,0,0,1,.51-.36H151v2.27h1.89V90H151v3.86a.73.73,0,0,0,.13.45.44.44,0,0,0,.38.18.74.74,0,0,0,.21,0l.15-.06.12-.06a.3.3,0,0,1,.13,0,.27.27,0,0,1,.17,0,.61.61,0,0,1,.13.15l.71,1.1a3.22,3.22,0,0,1-1,.51A4,4,0,0,1,150.91,96.26Z"/><path class="e1a16c2e-f697-4a1d-855d-0fb904944e52" d="M156.85,86.24a1.22,1.22,0,0,1-.11.52,1.37,1.37,0,0,1-.31.43,1.49,1.49,0,0,1-.45.29,1.41,1.41,0,0,1-.55.11,1.31,1.31,0,0,1-.53-.11,1.48,1.48,0,0,1-.44-.29,1.35,1.35,0,0,1-.3-.43,1.26,1.26,0,0,1-.11-.52,1.31,1.31,0,0,1,.11-.53,1.39,1.39,0,0,1,.3-.43,1.41,1.41,0,0,1,.44-.29,1.36,1.36,0,0,1,.53-.1,1.46,1.46,0,0,1,.55.1,1.42,1.42,0,0,1,.45.29,1.41,1.41,0,0,1,.31.43A1.27,1.27,0,0,1,156.85,86.24Zm-.27,2.13v7.78h-2.32V88.37Z"/><path class="e1a16c2e-f697-4a1d-855d-0fb904944e52" d="M163.88,92.49v3.65h-2.54V85.22h3.85a6.35,6.35,0,0,1,2,.27,3.82,3.82,0,0,1,1.36.75,3,3,0,0,1,.79,1.13,3.84,3.84,0,0,1,.25,1.41,4.15,4.15,0,0,1-.26,1.5,3,3,0,0,1-.8,1.17,3.78,3.78,0,0,1-1.37.76,6.3,6.3,0,0,1-2,.27Zm0-1.91h1.32a1.61,1.61,0,0,0,1.86-1.79,2,2,0,0,0-.11-.68,1.38,1.38,0,0,0-.34-.53,1.53,1.53,0,0,0-.58-.34,2.56,2.56,0,0,0-.83-.12h-1.32Z"/><path class="e1a16c2e-f697-4a1d-855d-0fb904944e52" d="M173.31,84.92V96.14H171V84.92Z"/><path class="e1a16c2e-f697-4a1d-855d-0fb904944e52" d="M180.56,96.14a1.09,1.09,0,0,1-.5-.09.69.69,0,0,1-.28-.37l-.17-.43q-.29.25-.56.44a3.61,3.61,0,0,1-.56.32,2.76,2.76,0,0,1-.61.2,3.83,3.83,0,0,1-.72.06,3.16,3.16,0,0,1-1-.14,2,2,0,0,1-.74-.41A1.79,1.79,0,0,1,175,95a2.44,2.44,0,0,1-.17-.93,2,2,0,0,1,.21-.85,2.1,2.1,0,0,1,.73-.79,4.63,4.63,0,0,1,1.4-.6,8.55,8.55,0,0,1,2.21-.24V91.3a1.45,1.45,0,0,0-.28-1,1,1,0,0,0-.8-.31,2.1,2.1,0,0,0-.68.09,3,3,0,0,0-.47.2l-.4.2a1.09,1.09,0,0,1-.46.09.7.7,0,0,1-.41-.12.86.86,0,0,1-.27-.29l-.42-.73a4.74,4.74,0,0,1,1.56-.93,5.49,5.49,0,0,1,1.84-.3,3.37,3.37,0,0,1,1.27.23,2.75,2.75,0,0,1,1,.64,2.79,2.79,0,0,1,.6,1,3.49,3.49,0,0,1,.21,1.23v4.86Zm-2.67-1.42a1.84,1.84,0,0,0,.79-.16,2.39,2.39,0,0,0,.68-.51V93a6,6,0,0,0-1.15.09,2.77,2.77,0,0,0-.71.23.87.87,0,0,0-.36.31.74.74,0,0,0-.1.38.66.66,0,0,0,.22.56A1.05,1.05,0,0,0,177.89,94.73Z"/><path class="e1a16c2e-f697-4a1d-855d-0fb904944e52" d="M186,96.26a2.74,2.74,0,0,1-1-.16,1.89,1.89,0,0,1-1.15-1.17,2.77,2.77,0,0,1-.15-.94V90h-.66a.42.42,0,0,1-.44-.46v-.91l1.24-.24.46-1.9a.46.46,0,0,1,.51-.36H186v2.27h1.89V90H186v3.86a.73.73,0,0,0,.13.45.44.44,0,0,0,.38.18.74.74,0,0,0,.21,0l.15-.06.12-.06a.3.3,0,0,1,.13,0,.27.27,0,0,1,.17,0,.61.61,0,0,1,.13.15l.7,1.1a3.21,3.21,0,0,1-1,.51A4,4,0,0,1,186,96.26Z"/><path class="e1a16c2e-f697-4a1d-855d-0fb904944e52" d="M194.64,96.14a1.09,1.09,0,0,1-.5-.09.68.68,0,0,1-.28-.37l-.17-.43q-.29.25-.56.44a3.64,3.64,0,0,1-.56.32,2.77,2.77,0,0,1-.61.2,3.83,3.83,0,0,1-.72.06,3.16,3.16,0,0,1-1-.14,2,2,0,0,1-.74-.41,1.8,1.8,0,0,1-.47-.67,2.45,2.45,0,0,1-.17-.93,2,2,0,0,1,.21-.85,2.1,2.1,0,0,1,.73-.79,4.64,4.64,0,0,1,1.4-.6,8.55,8.55,0,0,1,2.21-.24V91.3a1.45,1.45,0,0,0-.28-1,1,1,0,0,0-.8-.31,2.1,2.1,0,0,0-.68.09,3,3,0,0,0-.47.2l-.4.2a1.09,1.09,0,0,1-.46.09.7.7,0,0,1-.41-.12.86.86,0,0,1-.27-.29l-.42-.73a4.74,4.74,0,0,1,1.56-.93,5.49,5.49,0,0,1,1.84-.3,3.37,3.37,0,0,1,1.27.23,2.75,2.75,0,0,1,1,.64,2.81,2.81,0,0,1,.6,1,3.5,3.5,0,0,1,.21,1.23v4.86ZM192,94.73a1.84,1.84,0,0,0,.79-.16,2.38,2.38,0,0,0,.68-.51V93a6,6,0,0,0-1.15.09,2.76,2.76,0,0,0-.71.23.87.87,0,0,0-.36.31.74.74,0,0,0-.1.38.66.66,0,0,0,.22.56A1.06,1.06,0,0,0,192,94.73Z"/><path class="e1a16c2e-f697-4a1d-855d-0fb904944e52" d="M197.7,96.14V90l-.51-.11a1.06,1.06,0,0,1-.42-.19.45.45,0,0,1-.16-.37v-.92h1.09v-.44a3.25,3.25,0,0,1,.21-1.21,2.55,2.55,0,0,1,.62-.92,2.78,2.78,0,0,1,1-.59,4.18,4.18,0,0,1,1.84-.18,3.69,3.69,0,0,1,.51.11l0,1.13a.37.37,0,0,1-.06.2.43.43,0,0,1-.14.13.65.65,0,0,1-.18.07l-.2,0a2.27,2.27,0,0,0-.55.06.88.88,0,0,0-.4.21,1,1,0,0,0-.24.41A2,2,0,0,0,200,88v.37h1.83V90H200v6.17Z"/><path class="e1a16c2e-f697-4a1d-855d-0fb904944e52" d="M206.25,88.25a4.5,4.5,0,0,1,1.61.28,3.48,3.48,0,0,1,2.06,2.05,4.53,4.53,0,0,1,.29,1.66,4.61,4.61,0,0,1-.29,1.68,3.6,3.6,0,0,1-.81,1.27,3.55,3.55,0,0,1-1.25.8,4.44,4.44,0,0,1-1.61.28,4.49,4.49,0,0,1-1.62-.28,3.62,3.62,0,0,1-1.26-.8,3.55,3.55,0,0,1-.82-1.27,4.61,4.61,0,0,1-.29-1.68,4.53,4.53,0,0,1,.29-1.66,3.52,3.52,0,0,1,.82-1.26,3.62,3.62,0,0,1,1.26-.79A4.55,4.55,0,0,1,206.25,88.25Zm0,6.29a1.32,1.32,0,0,0,1.18-.57,4.09,4.09,0,0,0,0-3.44,1.32,1.32,0,0,0-1.18-.56,1.36,1.36,0,0,0-1.21.56A4.05,4.05,0,0,0,205,94,1.35,1.35,0,0,0,206.25,94.54Z"/><path class="e1a16c2e-f697-4a1d-855d-0fb904944e52" d="M211.49,96.14V88.37h1.38a1.16,1.16,0,0,1,.29,0,.49.49,0,0,1,.19.09.4.4,0,0,1,.12.17,1.51,1.51,0,0,1,.07.25l.13.73a3.81,3.81,0,0,1,1-1,2,2,0,0,1,1.16-.38,1.34,1.34,0,0,1,.86.25l-.3,1.71a.33.33,0,0,1-.12.22.41.41,0,0,1-.24.06l-.3,0a2.33,2.33,0,0,0-.44,0,1.6,1.6,0,0,0-1.44,1v4.77Z"/><path class="e1a16c2e-f697-4a1d-855d-0fb904944e52" d="M217.68,96.14V88.37h1.44a.64.64,0,0,1,.36.1.52.52,0,0,1,.21.29l.13.42a4.23,4.23,0,0,1,.41-.37,2.55,2.55,0,0,1,.45-.29,2.45,2.45,0,0,1,1.14-.27,1.83,1.83,0,0,1,1.17.36,2.27,2.27,0,0,1,.7,1,2.29,2.29,0,0,1,.48-.62,2.54,2.54,0,0,1,.61-.41,2.93,2.93,0,0,1,.69-.23,3.6,3.6,0,0,1,.72-.08,3.3,3.3,0,0,1,1.19.2,2.26,2.26,0,0,1,.87.58,2.48,2.48,0,0,1,.53.93,4,4,0,0,1,.18,1.25v4.94h-2.33V91.2q0-1.21-1-1.21a1.06,1.06,0,0,0-.78.31,1.21,1.21,0,0,0-.31.9v4.94h-2.33V91.2a1.33,1.33,0,0,0-.26-.94,1,1,0,0,0-.77-.27,1.3,1.3,0,0,0-.6.14,2.19,2.19,0,0,0-.53.38v5.63Z"/><path class="e1a16c2e-f697-4a1d-855d-0fb904944e52" d="M236,96.14a1.09,1.09,0,0,1-.5-.09.68.68,0,0,1-.28-.37l-.17-.43q-.29.25-.56.44a3.64,3.64,0,0,1-.56.32,2.77,2.77,0,0,1-.61.2,3.83,3.83,0,0,1-.72.06,3.16,3.16,0,0,1-1-.14,2,2,0,0,1-.74-.41,1.8,1.8,0,0,1-.47-.67,2.45,2.45,0,0,1-.17-.93,2,2,0,0,1,.21-.85,2.1,2.1,0,0,1,.73-.79,4.64,4.64,0,0,1,1.4-.6,8.55,8.55,0,0,1,2.21-.24V91.3a1.45,1.45,0,0,0-.28-1,1,1,0,0,0-.8-.31,2.1,2.1,0,0,0-.68.09,3,3,0,0,0-.47.2l-.4.2a1.09,1.09,0,0,1-.46.09.7.7,0,0,1-.41-.12.86.86,0,0,1-.27-.29l-.42-.73a4.74,4.74,0,0,1,1.56-.93,5.49,5.49,0,0,1,1.84-.3,3.37,3.37,0,0,1,1.27.23,2.75,2.75,0,0,1,1,.64,2.81,2.81,0,0,1,.6,1,3.5,3.5,0,0,1,.21,1.23v4.86Zm-2.67-1.42a1.84,1.84,0,0,0,.79-.16,2.38,2.38,0,0,0,.68-.51V93a6,6,0,0,0-1.15.09,2.76,2.76,0,0,0-.71.23.87.87,0,0,0-.36.31.74.74,0,0,0-.1.38.66.66,0,0,0,.22.56A1.06,1.06,0,0,0,233.3,94.73Z"/><path class="78a90fe3-f417-4745-8c76-69fb6452fb9a" d="M109.59,111.32a.51.51,0,0,1,.18,0,.5.5,0,0,1,.17.12l1,1.06a4.17,4.17,0,0,1-1.65,1.3,5.8,5.8,0,0,1-2.35.44,5.61,5.61,0,0,1-2.23-.42,4.83,4.83,0,0,1-1.67-1.17A5.15,5.15,0,0,1,102,110.9a6.53,6.53,0,0,1-.37-2.22,5.87,5.87,0,0,1,.42-2.25,5.24,5.24,0,0,1,1.17-1.77,5.29,5.29,0,0,1,1.8-1.15,6.28,6.28,0,0,1,2.32-.41,5.92,5.92,0,0,1,1.16.11,5.61,5.61,0,0,1,1,.3,4.78,4.78,0,0,1,.87.46,4.21,4.21,0,0,1,.71.59l-.85,1.15a1.1,1.1,0,0,1-.19.19.51.51,0,0,1-.31.09.56.56,0,0,1-.25-.06l-.26-.15-.3-.19a2.31,2.31,0,0,0-.38-.19,3.15,3.15,0,0,0-.52-.15,3.52,3.52,0,0,0-.69-.06,3.16,3.16,0,0,0-1.26.24,2.75,2.75,0,0,0-1,.7,3.23,3.23,0,0,0-.64,1.1,4.31,4.31,0,0,0-.23,1.45,4.51,4.51,0,0,0,.23,1.49,3.28,3.28,0,0,0,.62,1.1,2.65,2.65,0,0,0,.92.68,2.74,2.74,0,0,0,1.13.23,5.4,5.4,0,0,0,.63,0,2.56,2.56,0,0,0,.53-.12,2.41,2.41,0,0,0,.46-.21,3.07,3.07,0,0,0,.45-.33.89.89,0,0,1,.19-.12A.5.5,0,0,1,109.59,111.32Z"/><path class="78a90fe3-f417-4745-8c76-69fb6452fb9a" d="M115.57,106.25a4.5,4.5,0,0,1,1.61.28,3.48,3.48,0,0,1,2.06,2.05,4.53,4.53,0,0,1,.29,1.66,4.61,4.61,0,0,1-.29,1.68,3.6,3.6,0,0,1-.81,1.27,3.55,3.55,0,0,1-1.25.8,4.44,4.44,0,0,1-1.61.28,4.49,4.49,0,0,1-1.62-.28,3.62,3.62,0,0,1-1.26-.8,3.55,3.55,0,0,1-.82-1.27,4.61,4.61,0,0,1-.29-1.68,4.53,4.53,0,0,1,.29-1.66,3.52,3.52,0,0,1,.82-1.26,3.62,3.62,0,0,1,1.26-.79A4.55,4.55,0,0,1,115.57,106.25Zm0,6.29a1.32,1.32,0,0,0,1.18-.57,4.1,4.1,0,0,0,0-3.44,1.32,1.32,0,0,0-1.18-.56,1.36,1.36,0,0,0-1.21.56,4.05,4.05,0,0,0,0,3.44A1.35,1.35,0,0,0,115.57,112.54Z"/><path class="78a90fe3-f417-4745-8c76-69fb6452fb9a" d="M123.2,102.92v11.23h-2.32V102.92Z"/><path class="78a90fe3-f417-4745-8c76-69fb6452fb9a" d="M130.45,114.14a1.09,1.09,0,0,1-.5-.09.69.69,0,0,1-.28-.37l-.17-.43q-.29.25-.56.44a3.61,3.61,0,0,1-.56.32,2.76,2.76,0,0,1-.61.2,3.83,3.83,0,0,1-.72.06,3.16,3.16,0,0,1-1-.14,2,2,0,0,1-.74-.41,1.79,1.79,0,0,1-.47-.67,2.44,2.44,0,0,1-.17-.93,2,2,0,0,1,.21-.85,2.1,2.1,0,0,1,.73-.79,4.63,4.63,0,0,1,1.4-.6,8.55,8.55,0,0,1,2.21-.24v-.33a1.45,1.45,0,0,0-.28-1,1,1,0,0,0-.8-.31,2.1,2.1,0,0,0-.68.09,3,3,0,0,0-.47.2l-.4.2a1.09,1.09,0,0,1-.46.09.7.7,0,0,1-.41-.12.86.86,0,0,1-.27-.29l-.42-.73a4.74,4.74,0,0,1,1.56-.93,5.49,5.49,0,0,1,1.84-.3,3.37,3.37,0,0,1,1.27.23,2.75,2.75,0,0,1,1,.64,2.79,2.79,0,0,1,.6,1,3.49,3.49,0,0,1,.21,1.23v4.86Zm-2.67-1.42a1.84,1.84,0,0,0,.79-.16,2.39,2.39,0,0,0,.68-.51V111a6,6,0,0,0-1.15.09,2.77,2.77,0,0,0-.71.23.87.87,0,0,0-.36.31.74.74,0,0,0-.1.38.66.66,0,0,0,.22.56A1.05,1.05,0,0,0,127.78,112.73Z"/><path class="78a90fe3-f417-4745-8c76-69fb6452fb9a" d="M133.16,114.14V102.92h2.33v4.28a3.55,3.55,0,0,1,1-.69,3,3,0,0,1,1.29-.26,2.45,2.45,0,0,1,1.13.26,2.52,2.52,0,0,1,.89.77,3.9,3.9,0,0,1,.59,1.24,6,6,0,0,1,.21,1.67,5.17,5.17,0,0,1-.24,1.62,4.06,4.06,0,0,1-.68,1.29,3.14,3.14,0,0,1-1.05.86,3,3,0,0,1-1.35.31,2.59,2.59,0,0,1-.62-.07,2.14,2.14,0,0,1-.5-.19,2.21,2.21,0,0,1-.42-.3,4.9,4.9,0,0,1-.37-.37l-.08.39a.5.5,0,0,1-.19.33.66.66,0,0,1-.36.09ZM137,108a2,2,0,0,0-.46,0,1.75,1.75,0,0,0-.38.14,1.47,1.47,0,0,0-.33.23,3.28,3.28,0,0,0-.3.32V112a1.47,1.47,0,0,0,.57.41,1.82,1.82,0,0,0,.65.12,1.37,1.37,0,0,0,.59-.13,1.21,1.21,0,0,0,.47-.41,2.19,2.19,0,0,0,.31-.73,4.57,4.57,0,0,0,.11-1.09,5,5,0,0,0-.09-1,2.13,2.13,0,0,0-.25-.68,1,1,0,0,0-.39-.37A1.11,1.11,0,0,0,137,108Z"/><path class="78a90fe3-f417-4745-8c76-69fb6452fb9a" d="M145.33,106.25a4.5,4.5,0,0,1,1.61.28,3.48,3.48,0,0,1,2.06,2.05,4.53,4.53,0,0,1,.29,1.66,4.61,4.61,0,0,1-.29,1.68,3.6,3.6,0,0,1-.81,1.27,3.55,3.55,0,0,1-1.25.8,4.44,4.44,0,0,1-1.61.28,4.49,4.49,0,0,1-1.62-.28,3.62,3.62,0,0,1-1.26-.8,3.55,3.55,0,0,1-.82-1.27,4.61,4.61,0,0,1-.29-1.68,4.53,4.53,0,0,1,.29-1.66,3.52,3.52,0,0,1,.82-1.26,3.62,3.62,0,0,1,1.26-.79A4.55,4.55,0,0,1,145.33,106.25Zm0,6.29a1.32,1.32,0,0,0,1.18-.57,4.1,4.1,0,0,0,0-3.44,1.32,1.32,0,0,0-1.18-.56,1.36,1.36,0,0,0-1.21.56,4.05,4.05,0,0,0,0,3.44A1.35,1.35,0,0,0,145.33,112.54Z"/><path class="78a90fe3-f417-4745-8c76-69fb6452fb9a" d="M150.56,114.14v-7.78h1.38a1.15,1.15,0,0,1,.29,0,.49.49,0,0,1,.19.09.4.4,0,0,1,.12.17,1.56,1.56,0,0,1,.07.25l.13.73a3.82,3.82,0,0,1,1-1,2,2,0,0,1,1.16-.38,1.34,1.34,0,0,1,.85.25l-.3,1.71a.33.33,0,0,1-.12.22.4.4,0,0,1-.24.06l-.3,0a2.33,2.33,0,0,0-.44,0,1.6,1.6,0,0,0-1.44,1v4.77Z"/><path class="78a90fe3-f417-4745-8c76-69fb6452fb9a" d="M162,114.14a1.09,1.09,0,0,1-.5-.09.69.69,0,0,1-.28-.37l-.17-.43q-.29.25-.56.44a3.61,3.61,0,0,1-.56.32,2.76,2.76,0,0,1-.61.2,3.83,3.83,0,0,1-.72.06,3.16,3.16,0,0,1-1-.14,2,2,0,0,1-.74-.41,1.79,1.79,0,0,1-.47-.67,2.44,2.44,0,0,1-.17-.93,2,2,0,0,1,.21-.85,2.1,2.1,0,0,1,.73-.79,4.63,4.63,0,0,1,1.4-.6,8.55,8.55,0,0,1,2.21-.24v-.33a1.45,1.45,0,0,0-.28-1,1,1,0,0,0-.8-.31,2.1,2.1,0,0,0-.68.09,3,3,0,0,0-.47.2l-.4.2a1.09,1.09,0,0,1-.46.09.7.7,0,0,1-.41-.12.86.86,0,0,1-.27-.29l-.42-.73a4.74,4.74,0,0,1,1.56-.93,5.49,5.49,0,0,1,1.84-.3,3.37,3.37,0,0,1,1.27.23,2.75,2.75,0,0,1,1,.64,2.79,2.79,0,0,1,.6,1,3.49,3.49,0,0,1,.21,1.23v4.86Zm-2.67-1.42a1.84,1.84,0,0,0,.79-.16,2.39,2.39,0,0,0,.68-.51V111a6,6,0,0,0-1.15.09,2.77,2.77,0,0,0-.71.23.87.87,0,0,0-.36.31.74.74,0,0,0-.1.38.66.66,0,0,0,.22.56A1.05,1.05,0,0,0,159.31,112.73Z"/><path class="78a90fe3-f417-4745-8c76-69fb6452fb9a" d="M166.87,115.72a.77.77,0,0,1,.22,0,1,1,0,0,0,.26,0,.42.42,0,0,0,.28-.07.2.2,0,0,0,.08-.15c0-.11-.08-.18-.23-.24a4.63,4.63,0,0,0-.78-.15l.29-1a3.29,3.29,0,0,1-1.1-.44,3.36,3.36,0,0,1-.9-.83,3.9,3.9,0,0,1-.6-1.17,4.87,4.87,0,0,1-.22-1.5,4.8,4.8,0,0,1,.25-1.57,3.57,3.57,0,0,1,.74-1.27,3.45,3.45,0,0,1,1.21-.84,4.26,4.26,0,0,1,1.68-.31,4.1,4.1,0,0,1,1.6.29,3.86,3.86,0,0,1,1.25.86l-.62.82a1.27,1.27,0,0,1-.2.2.44.44,0,0,1-.28.08.6.6,0,0,1-.31-.08l-.31-.18a2.44,2.44,0,0,0-.41-.18,1.75,1.75,0,0,0-.58-.08,1.63,1.63,0,0,0-.74.16,1.37,1.37,0,0,0-.51.45,2.06,2.06,0,0,0-.3.72,4.28,4.28,0,0,0-.1,1A2.91,2.91,0,0,0,167,112a1.38,1.38,0,0,0,1.19.6,1.66,1.66,0,0,0,.64-.1,2,2,0,0,0,.4-.22l.3-.23a.56.56,0,0,1,.35-.11.48.48,0,0,1,.42.2l.68.83a3.64,3.64,0,0,1-.6.56,3.7,3.7,0,0,1-.64.38,4,4,0,0,1-.66.24,4.61,4.61,0,0,1-.66.12l-.07.24a2.69,2.69,0,0,1,.56.21,1.34,1.34,0,0,1,.36.26.86.86,0,0,1,.19.31,1.09,1.09,0,0,1,.06.35.81.81,0,0,1-.15.47,1.23,1.23,0,0,1-.41.36,2.23,2.23,0,0,1-.63.23,3.74,3.74,0,0,1-.82.08,4.82,4.82,0,0,1-.57,0l-.54-.09.21-.71A.24.24,0,0,1,166.87,115.72Z"/><path class="78a90fe3-f417-4745-8c76-69fb6452fb9a" d="M177.35,114.14a1.09,1.09,0,0,1-.5-.09.69.69,0,0,1-.28-.37l-.17-.43q-.29.25-.56.44a3.61,3.61,0,0,1-.56.32,2.76,2.76,0,0,1-.61.2,3.83,3.83,0,0,1-.72.06,3.16,3.16,0,0,1-1-.14,2,2,0,0,1-.74-.41,1.79,1.79,0,0,1-.47-.67,2.44,2.44,0,0,1-.17-.93,2,2,0,0,1,.21-.85,2.1,2.1,0,0,1,.73-.79,4.63,4.63,0,0,1,1.4-.6,8.55,8.55,0,0,1,2.21-.24v-.33a1.45,1.45,0,0,0-.28-1,1,1,0,0,0-.8-.31,2.1,2.1,0,0,0-.68.09,3,3,0,0,0-.47.2l-.4.2a1.09,1.09,0,0,1-.46.09.7.7,0,0,1-.41-.12.86.86,0,0,1-.27-.29l-.42-.73a4.74,4.74,0,0,1,1.56-.93,5.49,5.49,0,0,1,1.84-.3,3.37,3.37,0,0,1,1.27.23,2.75,2.75,0,0,1,1,.64,2.79,2.79,0,0,1,.6,1,3.49,3.49,0,0,1,.21,1.23v4.86Zm-1.27-10.4a.44.44,0,0,0,.29-.09.52.52,0,0,0,.11-.4h1.41a2.59,2.59,0,0,1-.13.85,1.93,1.93,0,0,1-.36.64,1.6,1.6,0,0,1-.55.41,1.64,1.64,0,0,1-.68.14,1.52,1.52,0,0,1-.52-.09,3.83,3.83,0,0,1-.45-.19l-.37-.19a.67.67,0,0,0-.3-.09.39.39,0,0,0-.29.1.58.58,0,0,0-.1.41h-1.43a2.53,2.53,0,0,1,.14-.85,2,2,0,0,1,.37-.65,1.61,1.61,0,0,1,.55-.42,1.58,1.58,0,0,1,.67-.15,1.55,1.55,0,0,1,.52.09,3.53,3.53,0,0,1,.45.19l.37.19A.68.68,0,0,0,176.08,103.74Zm-1.4,9a1.84,1.84,0,0,0,.79-.16,2.39,2.39,0,0,0,.68-.51V111a6,6,0,0,0-1.15.09,2.77,2.77,0,0,0-.71.23.87.87,0,0,0-.36.31.74.74,0,0,0-.1.38.66.66,0,0,0,.22.56A1.05,1.05,0,0,0,174.68,112.73Z"/><path class="78a90fe3-f417-4745-8c76-69fb6452fb9a" d="M183.53,106.25a4.5,4.5,0,0,1,1.61.28,3.48,3.48,0,0,1,2.06,2.05,4.53,4.53,0,0,1,.29,1.66,4.61,4.61,0,0,1-.29,1.68,3.6,3.6,0,0,1-.81,1.27,3.55,3.55,0,0,1-1.25.8,4.44,4.44,0,0,1-1.61.28,4.49,4.49,0,0,1-1.62-.28,3.62,3.62,0,0,1-1.26-.8,3.55,3.55,0,0,1-.82-1.27,4.61,4.61,0,0,1-.29-1.68,4.53,4.53,0,0,1,.29-1.66,3.52,3.52,0,0,1,.82-1.26,3.62,3.62,0,0,1,1.26-.79A4.55,4.55,0,0,1,183.53,106.25Zm0,6.29a1.32,1.32,0,0,0,1.18-.57,4.1,4.1,0,0,0,0-3.44,1.32,1.32,0,0,0-1.18-.56,1.36,1.36,0,0,0-1.21.56,4.05,4.05,0,0,0,0,3.44A1.35,1.35,0,0,0,183.53,112.54Z"/><path class="78a90fe3-f417-4745-8c76-69fb6452fb9a" d="M194.33,104.24a1.22,1.22,0,0,1-.11.52,1.37,1.37,0,0,1-.31.43,1.5,1.5,0,0,1-.45.29,1.41,1.41,0,0,1-.55.11,1.31,1.31,0,0,1-.53-.11,1.47,1.47,0,0,1-.44-.29,1.35,1.35,0,0,1-.3-.43,1.26,1.26,0,0,1-.11-.52,1.31,1.31,0,0,1,.11-.53,1.39,1.39,0,0,1,.3-.43,1.4,1.4,0,0,1,.44-.29,1.36,1.36,0,0,1,.53-.1,1.47,1.47,0,0,1,.55.1,1.42,1.42,0,0,1,.45.29,1.41,1.41,0,0,1,.31.43A1.27,1.27,0,0,1,194.33,104.24Zm-.27,2.13v7.78h-2.33v-7.78Z"/><path class="78a90fe3-f417-4745-8c76-69fb6452fb9a" d="M195.93,114.14v-7.78h1.44a.64.64,0,0,1,.36.1.52.52,0,0,1,.21.29l.13.45a6,6,0,0,1,.46-.39,2.7,2.7,0,0,1,.51-.3,3,3,0,0,1,.59-.2,3.17,3.17,0,0,1,.69-.07,2.73,2.73,0,0,1,1.13.22,2.34,2.34,0,0,1,.83.61,2.64,2.64,0,0,1,.51.94,3.89,3.89,0,0,1,.17,1.18v4.94h-2.33V109.2a1.35,1.35,0,0,0-.26-.89.94.94,0,0,0-.77-.32,1.63,1.63,0,0,0-.72.17,2.83,2.83,0,0,0-.64.44v5.54Z"/><path class="78a90fe3-f417-4745-8c76-69fb6452fb9a" d="M207.36,114.26a2.74,2.74,0,0,1-1-.16,1.89,1.89,0,0,1-1.15-1.17,2.76,2.76,0,0,1-.15-.94v-4h-.66a.42.42,0,0,1-.43-.46v-.91l1.24-.24.46-1.9a.46.46,0,0,1,.51-.36h1.21v2.27h1.89V108h-1.89v3.86a.73.73,0,0,0,.13.45.44.44,0,0,0,.38.18.74.74,0,0,0,.21,0l.15-.06.12-.06a.3.3,0,0,1,.13,0,.27.27,0,0,1,.17,0,.62.62,0,0,1,.13.15l.71,1.1a3.21,3.21,0,0,1-1,.51A4,4,0,0,1,207.36,114.26Z"/><path class="78a90fe3-f417-4745-8c76-69fb6452fb9a" d="M214,106.25a4,4,0,0,1,1.41.24,3.08,3.08,0,0,1,1.1.7,3.17,3.17,0,0,1,.72,1.12,4.11,4.11,0,0,1,.26,1.5,3.36,3.36,0,0,1,0,.43.68.68,0,0,1-.08.26.32.32,0,0,1-.16.13.78.78,0,0,1-.26,0h-4.49a2.19,2.19,0,0,0,.59,1.41,1.76,1.76,0,0,0,1.24.44,2.2,2.2,0,0,0,.7-.1,3.44,3.44,0,0,0,.52-.22l.42-.22a.86.86,0,0,1,.4-.1.48.48,0,0,1,.42.2l.67.83a3.46,3.46,0,0,1-.78.67,4,4,0,0,1-.85.41,4.6,4.6,0,0,1-.88.2,6.48,6.48,0,0,1-.84.06,4.36,4.36,0,0,1-1.53-.27,3.52,3.52,0,0,1-1.25-.79,3.73,3.73,0,0,1-.85-1.3,4.87,4.87,0,0,1-.31-1.82,4.1,4.1,0,0,1,.27-1.48,3.58,3.58,0,0,1,2-2.05A4,4,0,0,1,214,106.25Zm0,1.6a1.4,1.4,0,0,0-1,.38,2,2,0,0,0-.5,1.09h2.9a2,2,0,0,0-.07-.54,1.32,1.32,0,0,0-.23-.47,1.18,1.18,0,0,0-.42-.33A1.45,1.45,0,0,0,214,107.85Z"/><path class="78a90fe3-f417-4745-8c76-69fb6452fb9a" d="M221.54,106.23a4.33,4.33,0,0,1,.93.1,3.78,3.78,0,0,1,.81.28h2.35v.85a.42.42,0,0,1-.11.31.75.75,0,0,1-.37.17l-.57.13a2.35,2.35,0,0,1,.1.7,2.23,2.23,0,0,1-.24,1,2.41,2.41,0,0,1-.67.79,3.1,3.1,0,0,1-1,.5,4.23,4.23,0,0,1-1.24.18,5,5,0,0,1-.69,0,.42.42,0,0,0-.25.35.3.3,0,0,0,.21.28,2,2,0,0,0,.54.12q.34,0,.77,0t.88,0a7,7,0,0,1,.89.14,2.38,2.38,0,0,1,.77.32,1.64,1.64,0,0,1,.54.58,1.87,1.87,0,0,1,.21.93,2.26,2.26,0,0,1-.26,1,2.69,2.69,0,0,1-.75.9,3.9,3.9,0,0,1-1.21.63,5.26,5.26,0,0,1-1.65.24,6.32,6.32,0,0,1-1.58-.17,3.84,3.84,0,0,1-1.1-.45,1.91,1.91,0,0,1-.65-.65,1.52,1.52,0,0,1-.21-.77,1.27,1.27,0,0,1,.31-.87,2.1,2.1,0,0,1,.86-.56,1.32,1.32,0,0,1-.42-.44,1.34,1.34,0,0,1-.16-.68,1.21,1.21,0,0,1,.06-.36,1.32,1.32,0,0,1,.19-.37,1.88,1.88,0,0,1,.32-.34,2.1,2.1,0,0,1,.46-.29,2.53,2.53,0,0,1-1-.85,2.37,2.37,0,0,1-.1-2.29,2.38,2.38,0,0,1,.68-.79,3.18,3.18,0,0,1,1-.5A4.38,4.38,0,0,1,221.54,106.23Zm1.72,8.18a.41.41,0,0,0-.12-.31.83.83,0,0,0-.31-.18,2.21,2.21,0,0,0-.47-.1,5.23,5.23,0,0,0-.57,0h-.64a3.4,3.4,0,0,1-.65-.06,1.52,1.52,0,0,0-.36.33.68.68,0,0,0-.14.42.63.63,0,0,0,.07.3.59.59,0,0,0,.25.23,1.64,1.64,0,0,0,.48.15,4.27,4.27,0,0,0,.77.06,4.55,4.55,0,0,0,.83-.06,1.74,1.74,0,0,0,.51-.17.63.63,0,0,0,.27-.26A.72.72,0,0,0,223.26,114.41Zm-1.72-4.57a1,1,0,0,0,1.09-1,1,1,0,0,0-.26-.74,1.43,1.43,0,0,0-1.67,0,1,1,0,0,0-.26.74,1.26,1.26,0,0,0,.06.41.85.85,0,0,0,.2.33.93.93,0,0,0,.34.22A1.39,1.39,0,0,0,221.54,109.85Z"/><path class="78a90fe3-f417-4745-8c76-69fb6452fb9a" d="M226.64,114.14v-7.78H228a1.15,1.15,0,0,1,.29,0,.5.5,0,0,1,.2.09.4.4,0,0,1,.12.17,1.61,1.61,0,0,1,.07.25l.13.73a3.83,3.83,0,0,1,1-1,2,2,0,0,1,1.16-.38,1.34,1.34,0,0,1,.85.25l-.3,1.71a.33.33,0,0,1-.12.22.4.4,0,0,1-.24.06l-.3,0a2.32,2.32,0,0,0-.43,0,1.6,1.6,0,0,0-1.44,1v4.77Z"/><path class="78a90fe3-f417-4745-8c76-69fb6452fb9a" d="M238.05,114.14a1.09,1.09,0,0,1-.5-.09.68.68,0,0,1-.28-.37l-.17-.43q-.29.25-.56.44a3.64,3.64,0,0,1-.56.32,2.77,2.77,0,0,1-.61.2,3.83,3.83,0,0,1-.72.06,3.16,3.16,0,0,1-1-.14,2,2,0,0,1-.74-.41,1.8,1.8,0,0,1-.47-.67,2.45,2.45,0,0,1-.17-.93,2,2,0,0,1,.21-.85,2.1,2.1,0,0,1,.73-.79,4.64,4.64,0,0,1,1.4-.6,8.55,8.55,0,0,1,2.21-.24v-.33a1.45,1.45,0,0,0-.28-1,1,1,0,0,0-.8-.31,2.1,2.1,0,0,0-.68.09,3,3,0,0,0-.47.2l-.4.2a1.09,1.09,0,0,1-.46.09.7.7,0,0,1-.41-.12.86.86,0,0,1-.27-.29l-.42-.73a4.74,4.74,0,0,1,1.56-.93,5.49,5.49,0,0,1,1.84-.3,3.37,3.37,0,0,1,1.27.23,2.75,2.75,0,0,1,1,.64,2.81,2.81,0,0,1,.6,1,3.5,3.5,0,0,1,.21,1.23v4.86Zm-2.67-1.42a1.84,1.84,0,0,0,.79-.16,2.38,2.38,0,0,0,.68-.51V111a6,6,0,0,0-1.15.09,2.76,2.76,0,0,0-.71.23.87.87,0,0,0-.36.31.74.74,0,0,0-.1.38.66.66,0,0,0,.22.56A1.06,1.06,0,0,0,235.38,112.73Z"/><path class="78a90fe3-f417-4745-8c76-69fb6452fb9a" d="M246.23,114.14a.64.64,0,0,1-.36-.1.52.52,0,0,1-.21-.29l-.18-.59a4.57,4.57,0,0,1-.49.45,3.09,3.09,0,0,1-.55.35,2.93,2.93,0,0,1-.64.22,3.27,3.27,0,0,1-.74.08,2.39,2.39,0,0,1-1.12-.27,2.58,2.58,0,0,1-.89-.78,3.92,3.92,0,0,1-.59-1.25,6.06,6.06,0,0,1-.21-1.68,5.24,5.24,0,0,1,.24-1.62,3.93,3.93,0,0,1,.68-1.29,3.15,3.15,0,0,1,1.05-.85,3,3,0,0,1,1.36-.31,2.59,2.59,0,0,1,1,.18,2.94,2.94,0,0,1,.75.46v-3.94h2.33v11.23Zm-2.35-1.67a2,2,0,0,0,.46,0,1.59,1.59,0,0,0,.71-.36,2.85,2.85,0,0,0,.3-.32v-3.3a1.54,1.54,0,0,0-.57-.41,1.79,1.79,0,0,0-.64-.12,1.37,1.37,0,0,0-.59.13,1.21,1.21,0,0,0-.47.41,2.18,2.18,0,0,0-.31.73,4.53,4.53,0,0,0-.11,1.09,5,5,0,0,0,.09,1,2.13,2.13,0,0,0,.25.68,1,1,0,0,0,.39.37A1.11,1.11,0,0,0,243.87,112.48Z"/><path class="78a90fe3-f417-4745-8c76-69fb6452fb9a" d="M254.84,114.14a1.09,1.09,0,0,1-.5-.09.69.69,0,0,1-.28-.37l-.17-.43q-.29.25-.56.44a3.58,3.58,0,0,1-.56.32,2.76,2.76,0,0,1-.62.2,3.83,3.83,0,0,1-.72.06,3.16,3.16,0,0,1-1-.14,2,2,0,0,1-.74-.41,1.78,1.78,0,0,1-.47-.67,2.43,2.43,0,0,1-.17-.93,1.94,1.94,0,0,1,.21-.85,2.09,2.09,0,0,1,.73-.79,4.62,4.62,0,0,1,1.39-.6,8.55,8.55,0,0,1,2.21-.24v-.33a1.45,1.45,0,0,0-.28-1,1,1,0,0,0-.8-.31,2.1,2.1,0,0,0-.67.09,3,3,0,0,0-.47.2l-.4.2a1.09,1.09,0,0,1-.46.09.7.7,0,0,1-.41-.12.85.85,0,0,1-.27-.29l-.42-.73a4.74,4.74,0,0,1,1.56-.93,5.49,5.49,0,0,1,1.84-.3,3.37,3.37,0,0,1,1.27.23,2.7,2.7,0,0,1,1.56,1.61,3.48,3.48,0,0,1,.21,1.23v4.86Zm-2.67-1.42a1.84,1.84,0,0,0,.79-.16,2.39,2.39,0,0,0,.68-.51V111a6,6,0,0,0-1.15.09,2.77,2.77,0,0,0-.71.23.87.87,0,0,0-.36.31.74.74,0,0,0-.1.38.66.66,0,0,0,.22.56A1.05,1.05,0,0,0,252.17,112.73Z"/><path class="e1a16c2e-f697-4a1d-855d-0fb904944e52" d="M94.67,132.14h-2a.91.91,0,0,1-.54-.15.8.8,0,0,1-.3-.39l-.65-1.9H87.07l-.65,1.9a.87.87,0,0,1-.82.55h-2l4.23-10.93h2.59Zm-7-4.18h3l-1-3-.23-.67q-.13-.39-.26-.84-.12.46-.25.85c-.08.26-.17.49-.24.67Z"/><path class="e1a16c2e-f697-4a1d-855d-0fb904944e52" d="M95.56,132.14v-7.78h1.38a1.15,1.15,0,0,1,.29,0,.49.49,0,0,1,.19.09.4.4,0,0,1,.12.17,1.56,1.56,0,0,1,.07.25l.13.73a3.82,3.82,0,0,1,1-1,2,2,0,0,1,1.16-.38,1.34,1.34,0,0,1,.85.25l-.3,1.71a.33.33,0,0,1-.12.22.4.4,0,0,1-.24.06l-.3,0a2.33,2.33,0,0,0-.44,0,1.6,1.6,0,0,0-1.44,1v4.77Z"/><path class="e1a16c2e-f697-4a1d-855d-0fb904944e52" d="M101.75,132.14v-7.78h1.44a.64.64,0,0,1,.36.1.52.52,0,0,1,.21.29l.13.42a4.28,4.28,0,0,1,.4-.37,2.59,2.59,0,0,1,.45-.29,2.45,2.45,0,0,1,1.14-.27,1.83,1.83,0,0,1,1.17.36,2.27,2.27,0,0,1,.7,1,2.29,2.29,0,0,1,.48-.62,2.55,2.55,0,0,1,.61-.41,2.92,2.92,0,0,1,.69-.23,3.59,3.59,0,0,1,.72-.08,3.3,3.3,0,0,1,1.19.2,2.25,2.25,0,0,1,.87.58,2.48,2.48,0,0,1,.53.93,4,4,0,0,1,.18,1.25v4.94h-2.33V127.2q0-1.21-1-1.21a1.06,1.06,0,0,0-.78.31,1.21,1.21,0,0,0-.31.9v4.94h-2.33V127.2a1.33,1.33,0,0,0-.26-.94,1,1,0,0,0-.77-.27,1.3,1.3,0,0,0-.6.14,2.18,2.18,0,0,0-.53.38v5.63Z"/><path class="e1a16c2e-f697-4a1d-855d-0fb904944e52" d="M120,132.14a1.09,1.09,0,0,1-.5-.09.69.69,0,0,1-.28-.37l-.17-.43q-.29.25-.56.44a3.61,3.61,0,0,1-.56.32,2.76,2.76,0,0,1-.61.2,3.83,3.83,0,0,1-.72.06,3.16,3.16,0,0,1-1-.14,2,2,0,0,1-.74-.41,1.79,1.79,0,0,1-.47-.67,2.44,2.44,0,0,1-.17-.93,2,2,0,0,1,.21-.85,2.1,2.1,0,0,1,.73-.79,4.63,4.63,0,0,1,1.4-.6,8.55,8.55,0,0,1,2.21-.24v-.33a1.45,1.45,0,0,0-.28-1,1,1,0,0,0-.8-.31,2.1,2.1,0,0,0-.68.09,3,3,0,0,0-.47.2l-.4.2a1.09,1.09,0,0,1-.46.09.7.7,0,0,1-.41-.12.86.86,0,0,1-.27-.29l-.42-.73a4.74,4.74,0,0,1,1.56-.93,5.49,5.49,0,0,1,1.84-.3,3.37,3.37,0,0,1,1.27.23,2.75,2.75,0,0,1,1,.64,2.79,2.79,0,0,1,.6,1,3.49,3.49,0,0,1,.21,1.23v4.86Zm-2.67-1.42a1.84,1.84,0,0,0,.79-.16,2.39,2.39,0,0,0,.68-.51V129a6,6,0,0,0-1.15.09,2.77,2.77,0,0,0-.71.23.87.87,0,0,0-.36.31.74.74,0,0,0-.1.38.66.66,0,0,0,.22.56A1.05,1.05,0,0,0,117.37,130.73Z"/><path class="e1a16c2e-f697-4a1d-855d-0fb904944e52" d="M128.56,125.3a1.2,1.2,0,0,1-.09.46,1.69,1.69,0,0,1-.21.38L125,130.42h3.47v1.72h-6.15v-.95a1.07,1.07,0,0,1,.08-.36,1.69,1.69,0,0,1,.22-.41l3.28-4.34h-3.37v-1.72h6Z"/><path class="e1a16c2e-f697-4a1d-855d-0fb904944e52" d="M133.24,124.25a4,4,0,0,1,1.41.24,3.07,3.07,0,0,1,1.1.7,3.18,3.18,0,0,1,.72,1.12,4.12,4.12,0,0,1,.26,1.5,3.36,3.36,0,0,1,0,.43.69.69,0,0,1-.08.26.32.32,0,0,1-.16.13.77.77,0,0,1-.26,0h-4.49a2.19,2.19,0,0,0,.59,1.41,1.76,1.76,0,0,0,1.24.44,2.21,2.21,0,0,0,.7-.1,3.45,3.45,0,0,0,.52-.22l.42-.22a.87.87,0,0,1,.4-.1.48.48,0,0,1,.42.2l.68.83a3.46,3.46,0,0,1-.78.67,4,4,0,0,1-.85.41,4.59,4.59,0,0,1-.88.2,6.48,6.48,0,0,1-.84.06,4.36,4.36,0,0,1-1.53-.27,3.52,3.52,0,0,1-1.25-.79,3.73,3.73,0,0,1-.85-1.3,4.88,4.88,0,0,1-.31-1.82,4.1,4.1,0,0,1,.27-1.48,3.59,3.59,0,0,1,2-2.05A4,4,0,0,1,133.24,124.25Zm0,1.6a1.4,1.4,0,0,0-1,.38,2,2,0,0,0-.5,1.09h2.9a2.05,2.05,0,0,0-.07-.54,1.32,1.32,0,0,0-.23-.47,1.19,1.19,0,0,0-.42-.33A1.45,1.45,0,0,0,133.28,125.85Z"/><path class="e1a16c2e-f697-4a1d-855d-0fb904944e52" d="M138.07,132.14v-7.78h1.44a.64.64,0,0,1,.36.1.52.52,0,0,1,.21.29l.13.45a5.78,5.78,0,0,1,.46-.39,2.7,2.7,0,0,1,.51-.3,3,3,0,0,1,.59-.2,3.16,3.16,0,0,1,.69-.07,2.73,2.73,0,0,1,1.13.22,2.34,2.34,0,0,1,.83.61,2.65,2.65,0,0,1,.51.94,3.89,3.89,0,0,1,.17,1.18v4.94h-2.33V127.2a1.36,1.36,0,0,0-.26-.89.94.94,0,0,0-.77-.32,1.63,1.63,0,0,0-.72.17,2.82,2.82,0,0,0-.65.44v5.54Z"/><path class="e1a16c2e-f697-4a1d-855d-0fb904944e52" d="M152.14,132.14a1.09,1.09,0,0,1-.5-.09.69.69,0,0,1-.28-.37l-.17-.43q-.29.25-.56.44a3.61,3.61,0,0,1-.56.32,2.76,2.76,0,0,1-.61.2,3.83,3.83,0,0,1-.72.06,3.16,3.16,0,0,1-1-.14,2,2,0,0,1-.74-.41,1.79,1.79,0,0,1-.47-.67,2.44,2.44,0,0,1-.17-.93,2,2,0,0,1,.21-.85,2.1,2.1,0,0,1,.73-.79,4.63,4.63,0,0,1,1.4-.6,8.55,8.55,0,0,1,2.21-.24v-.33a1.45,1.45,0,0,0-.28-1,1,1,0,0,0-.8-.31,2.1,2.1,0,0,0-.68.09,3,3,0,0,0-.47.2l-.4.2a1.09,1.09,0,0,1-.46.09.7.7,0,0,1-.41-.12.86.86,0,0,1-.27-.29l-.42-.73a4.74,4.74,0,0,1,1.56-.93,5.49,5.49,0,0,1,1.84-.3,3.37,3.37,0,0,1,1.27.23,2.75,2.75,0,0,1,1,.64,2.79,2.79,0,0,1,.6,1,3.49,3.49,0,0,1,.21,1.23v4.86Zm-2.67-1.42a1.84,1.84,0,0,0,.79-.16,2.39,2.39,0,0,0,.68-.51V129a6,6,0,0,0-1.15.09,2.77,2.77,0,0,0-.71.23.87.87,0,0,0-.36.31.74.74,0,0,0-.1.38.66.66,0,0,0,.22.56A1.05,1.05,0,0,0,149.47,130.73Z"/><path class="e1a16c2e-f697-4a1d-855d-0fb904944e52" d="M154.85,132.14v-7.78h1.44a.64.64,0,0,1,.36.1.52.52,0,0,1,.21.29l.13.42a4.28,4.28,0,0,1,.4-.37,2.59,2.59,0,0,1,.45-.29,2.45,2.45,0,0,1,1.14-.27,1.83,1.83,0,0,1,1.17.36,2.27,2.27,0,0,1,.7,1,2.29,2.29,0,0,1,.48-.62,2.55,2.55,0,0,1,.61-.41,2.92,2.92,0,0,1,.69-.23,3.59,3.59,0,0,1,.72-.08,3.3,3.3,0,0,1,1.19.2,2.25,2.25,0,0,1,.87.58,2.48,2.48,0,0,1,.53.93,4,4,0,0,1,.18,1.25v4.94h-2.33V127.2q0-1.21-1-1.21a1.06,1.06,0,0,0-.78.31,1.21,1.21,0,0,0-.31.9v4.94h-2.33V127.2a1.33,1.33,0,0,0-.26-.94,1,1,0,0,0-.77-.27,1.3,1.3,0,0,0-.6.14,2.18,2.18,0,0,0-.53.38v5.63Z"/><path class="e1a16c2e-f697-4a1d-855d-0fb904944e52" d="M171.1,124.25a4,4,0,0,1,1.41.24,3.07,3.07,0,0,1,1.1.7,3.18,3.18,0,0,1,.72,1.12,4.12,4.12,0,0,1,.26,1.5,3.36,3.36,0,0,1,0,.43.69.69,0,0,1-.08.26.32.32,0,0,1-.16.13.77.77,0,0,1-.26,0h-4.49a2.19,2.19,0,0,0,.59,1.41,1.76,1.76,0,0,0,1.24.44,2.21,2.21,0,0,0,.7-.1,3.45,3.45,0,0,0,.52-.22L173,130a.87.87,0,0,1,.4-.1.48.48,0,0,1,.42.2l.68.83a3.46,3.46,0,0,1-.78.67,4,4,0,0,1-.85.41,4.59,4.59,0,0,1-.88.2,6.48,6.48,0,0,1-.84.06,4.36,4.36,0,0,1-1.53-.27,3.52,3.52,0,0,1-1.25-.79,3.73,3.73,0,0,1-.85-1.3,4.88,4.88,0,0,1-.31-1.82,4.1,4.1,0,0,1,.27-1.48,3.59,3.59,0,0,1,2-2.05A4,4,0,0,1,171.1,124.25Zm0,1.6a1.4,1.4,0,0,0-1,.38,2,2,0,0,0-.5,1.09h2.9a2.05,2.05,0,0,0-.07-.54,1.32,1.32,0,0,0-.23-.47,1.19,1.19,0,0,0-.42-.33A1.45,1.45,0,0,0,171.14,125.85Z"/><path class="e1a16c2e-f697-4a1d-855d-0fb904944e52" d="M175.93,132.14v-7.78h1.44a.64.64,0,0,1,.36.1.52.52,0,0,1,.21.29l.13.45a5.78,5.78,0,0,1,.46-.39,2.7,2.7,0,0,1,.51-.3,3,3,0,0,1,.59-.2,3.16,3.16,0,0,1,.69-.07,2.73,2.73,0,0,1,1.13.22,2.34,2.34,0,0,1,.83.61,2.65,2.65,0,0,1,.51.94,3.89,3.89,0,0,1,.17,1.18v4.94h-2.33V127.2a1.36,1.36,0,0,0-.26-.89.94.94,0,0,0-.77-.32,1.63,1.63,0,0,0-.72.17,2.82,2.82,0,0,0-.65.44v5.54Z"/><path class="e1a16c2e-f697-4a1d-855d-0fb904944e52" d="M187.35,132.26a2.74,2.74,0,0,1-1-.16,1.89,1.89,0,0,1-1.15-1.17,2.77,2.77,0,0,1-.15-.94v-4h-.66a.42.42,0,0,1-.44-.46v-.91l1.24-.24.46-1.9a.46.46,0,0,1,.51-.36h1.21v2.27h1.89V126H187.4v3.86a.73.73,0,0,0,.13.45.44.44,0,0,0,.38.18.74.74,0,0,0,.21,0l.15-.06.12-.06a.3.3,0,0,1,.13,0,.27.27,0,0,1,.17,0,.6.6,0,0,1,.13.15l.71,1.1a3.22,3.22,0,0,1-1,.51A4,4,0,0,1,187.35,132.26Z"/><path class="e1a16c2e-f697-4a1d-855d-0fb904944e52" d="M194.09,124.25a4.5,4.5,0,0,1,1.61.28,3.47,3.47,0,0,1,2.06,2.05,4.53,4.53,0,0,1,.29,1.66,4.61,4.61,0,0,1-.29,1.68,3.6,3.6,0,0,1-.81,1.27,3.55,3.55,0,0,1-1.25.8,4.44,4.44,0,0,1-1.61.28,4.49,4.49,0,0,1-1.62-.28,3.62,3.62,0,0,1-1.26-.8,3.55,3.55,0,0,1-.82-1.27,4.61,4.61,0,0,1-.29-1.68,4.53,4.53,0,0,1,.29-1.66,3.52,3.52,0,0,1,.82-1.26,3.62,3.62,0,0,1,1.26-.79A4.56,4.56,0,0,1,194.09,124.25Zm0,6.29a1.32,1.32,0,0,0,1.18-.57,4.1,4.1,0,0,0,0-3.44,1.32,1.32,0,0,0-1.18-.56,1.36,1.36,0,0,0-1.21.56,4.05,4.05,0,0,0,0,3.44A1.35,1.35,0,0,0,194.09,130.54Z"/><path class="e1a16c2e-f697-4a1d-855d-0fb904944e52" d="M205.55,124.25a4,4,0,0,1,1.41.24,3.07,3.07,0,0,1,1.1.7,3.19,3.19,0,0,1,.72,1.12,4.13,4.13,0,0,1,.26,1.5,3.36,3.36,0,0,1,0,.43.69.69,0,0,1-.08.26.32.32,0,0,1-.16.13.77.77,0,0,1-.26,0H204a2.19,2.19,0,0,0,.59,1.41,1.77,1.77,0,0,0,1.24.44,2.21,2.21,0,0,0,.7-.1,3.47,3.47,0,0,0,.52-.22l.42-.22a.87.87,0,0,1,.4-.1.48.48,0,0,1,.42.2l.68.83a3.46,3.46,0,0,1-.78.67,4,4,0,0,1-.86.41,4.59,4.59,0,0,1-.88.2,6.49,6.49,0,0,1-.84.06,4.36,4.36,0,0,1-1.53-.27,3.52,3.52,0,0,1-1.25-.79,3.74,3.74,0,0,1-.85-1.3,4.89,4.89,0,0,1-.31-1.82,4.1,4.1,0,0,1,.27-1.48,3.59,3.59,0,0,1,2-2.05A4,4,0,0,1,205.55,124.25Zm0,1.6a1.4,1.4,0,0,0-1,.38,2,2,0,0,0-.5,1.09H207a2.07,2.07,0,0,0-.07-.54,1.32,1.32,0,0,0-.23-.47,1.19,1.19,0,0,0-.42-.33A1.45,1.45,0,0,0,205.59,125.85Z"/><path class="e1a16c2e-f697-4a1d-855d-0fb904944e52" d="M210.38,132.14v-7.78h1.44a.64.64,0,0,1,.36.1.52.52,0,0,1,.21.29l.13.42a4.23,4.23,0,0,1,.41-.37,2.55,2.55,0,0,1,.45-.29,2.45,2.45,0,0,1,1.14-.27,1.83,1.83,0,0,1,1.17.36,2.27,2.27,0,0,1,.7,1,2.29,2.29,0,0,1,.48-.62,2.54,2.54,0,0,1,.61-.41,2.93,2.93,0,0,1,.69-.23,3.6,3.6,0,0,1,.72-.08,3.3,3.3,0,0,1,1.19.2,2.26,2.26,0,0,1,.87.58,2.48,2.48,0,0,1,.53.93,4,4,0,0,1,.18,1.25v4.94h-2.33V127.2q0-1.21-1-1.21a1.06,1.06,0,0,0-.78.31,1.21,1.21,0,0,0-.31.9v4.94h-2.33V127.2a1.33,1.33,0,0,0-.26-.94,1,1,0,0,0-.77-.27,1.3,1.3,0,0,0-.6.14,2.19,2.19,0,0,0-.53.38v5.63Z"/><path class="e1a16c2e-f697-4a1d-855d-0fb904944e52" d="M227.8,121.23a.72.72,0,0,1,.2.06.7.7,0,0,1,.17.12l.19.2,5.19,6.56c0-.21,0-.41,0-.61s0-.38,0-.56v-5.78h2.23v10.93h-1.32a1.22,1.22,0,0,1-.5-.09,1.07,1.07,0,0,1-.39-.33l-5.15-6.51c0,.19,0,.38,0,.56s0,.35,0,.51v5.86h-2.24V121.22h1.33Z"/><path class="e1a16c2e-f697-4a1d-855d-0fb904944e52" d="M239.7,124.37v4.93a1.36,1.36,0,0,0,.26.89,1,1,0,0,0,.77.32,1.65,1.65,0,0,0,.72-.16,2.64,2.64,0,0,0,.65-.44v-5.54h2.32v7.78H243a.55.55,0,0,1-.57-.39l-.14-.45a4.45,4.45,0,0,1-.46.39,2.84,2.84,0,0,1-.51.3,3.06,3.06,0,0,1-.59.2,3.1,3.1,0,0,1-.69.07,2.72,2.72,0,0,1-1.13-.22,2.33,2.33,0,0,1-.83-.62,2.72,2.72,0,0,1-.51-.94,3.87,3.87,0,0,1-.17-1.19v-4.93Z"/><path class="e1a16c2e-f697-4a1d-855d-0fb904944e52" d="M250.53,132.14h-2.12l-3-7.78h1.93a.72.72,0,0,1,.42.12.58.58,0,0,1,.23.29l1.08,3.49.24.83c.08.27.14.54.2.81.05-.27.12-.54.2-.81l.25-.83,1.13-3.49a.59.59,0,0,1,.22-.29.66.66,0,0,1,.39-.12h1.84Z"/><path class="e1a16c2e-f697-4a1d-855d-0fb904944e52" d="M257.55,124.25a4,4,0,0,1,1.41.24,3.08,3.08,0,0,1,1.1.7,3.17,3.17,0,0,1,.72,1.12,4.11,4.11,0,0,1,.26,1.5,3.36,3.36,0,0,1,0,.43.68.68,0,0,1-.08.26.32.32,0,0,1-.16.13.78.78,0,0,1-.26,0H256a2.19,2.19,0,0,0,.59,1.41,1.76,1.76,0,0,0,1.24.44,2.2,2.2,0,0,0,.7-.1,3.44,3.44,0,0,0,.52-.22l.42-.22a.86.86,0,0,1,.4-.1.48.48,0,0,1,.42.2l.67.83a3.46,3.46,0,0,1-.78.67,4,4,0,0,1-.85.41,4.6,4.6,0,0,1-.88.2,6.48,6.48,0,0,1-.84.06,4.36,4.36,0,0,1-1.53-.27,3.52,3.52,0,0,1-1.25-.79,3.73,3.73,0,0,1-.85-1.3,4.87,4.87,0,0,1-.31-1.82,4.1,4.1,0,0,1,.27-1.48,3.58,3.58,0,0,1,2-2.05A4,4,0,0,1,257.55,124.25Zm0,1.6a1.4,1.4,0,0,0-1,.38,2,2,0,0,0-.5,1.09H259a2,2,0,0,0-.07-.54,1.32,1.32,0,0,0-.23-.47,1.18,1.18,0,0,0-.42-.33A1.45,1.45,0,0,0,257.6,125.85Z"/><path class="e1a16c2e-f697-4a1d-855d-0fb904944e52" d="M262.38,132.14v-7.78h1.44a.64.64,0,0,1,.36.1.52.52,0,0,1,.21.29l.13.42a4.34,4.34,0,0,1,.4-.37,2.63,2.63,0,0,1,.45-.29,2.46,2.46,0,0,1,1.14-.27,1.83,1.83,0,0,1,1.17.36,2.27,2.27,0,0,1,.7,1,2.29,2.29,0,0,1,.48-.62,2.56,2.56,0,0,1,.61-.41,2.92,2.92,0,0,1,.69-.23,3.59,3.59,0,0,1,.72-.08,3.3,3.3,0,0,1,1.18.2,2.25,2.25,0,0,1,.87.58,2.48,2.48,0,0,1,.53.93,4,4,0,0,1,.18,1.25v4.94h-2.33V127.2q0-1.21-1-1.21a1.06,1.06,0,0,0-.78.31,1.21,1.21,0,0,0-.31.9v4.94h-2.33V127.2a1.33,1.33,0,0,0-.26-.94,1,1,0,0,0-.77-.27,1.31,1.31,0,0,0-.6.14,2.18,2.18,0,0,0-.53.38v5.63Z"/></g></g></svg>