<svg xmlns="http://www.w3.org/2000/svg" viewBox="0 0 645.22 435.34"><defs><style>.\35 752a8a9-6e86-454e-96c9-c72e011ec089,.e2786fe9-911c-4e04-ba59-68fcc11a6772,.ee58ca0e-a631-45df-82ac-02a4229eb7e2{fill:#c33;}.\32 739d7e1-3197-4f83-8d7b-9e996ab3b537,.ee58ca0e-a631-45df-82ac-02a4229eb7e2{opacity:0.48;}.b56c4fb7-bd92-4ea3-a259-5f1d99e86c5f{fill:#444;}.\35 752a8a9-6e86-454e-96c9-c72e011ec089{opacity:0.38;}</style></defs><title>Asset 1</title><g id="a30c6632-f199-409d-a4f1-ed96029711b2" data-name="Layer 2"><g id="aa65f09d-b083-4075-a194-a1d91e5aa3e4" data-name="Layer 1"><g id="752c73d7-869a-4de6-9e06-584d45056523" data-name="&lt;Group&gt;"><path id="2b9a7995-fe95-41f9-a2ca-1df3f185de4b" data-name="&lt;Path&gt;" class="e2786fe9-911c-4e04-ba59-68fcc11a6772" d="M48.53,88.34a11.88,11.88,0,0,0-11.92,11.9v28L93.33,88.34Z"/><polygon id="106bf7a1-a984-40a7-8dcd-8139bb8c44fa" data-name="&lt;Path&gt;" class="e2786fe9-911c-4e04-ba59-68fcc11a6772" points="141.92 88.34 36.61 162.54 36.61 185.06 173.86 88.34 141.92 88.34"/><path id="09f45927-d3d4-42ae-89f8-db96285d2638" data-name="&lt;Path&gt;" class="e2786fe9-911c-4e04-ba59-68fcc11a6772" d="M223.26,88.34h-6.69l2,2.66L60.43,202.34H223.26c6.6,0,12.36-5.27,12.36-11.87V100.23C235.61,93.63,229.86,88.34,223.26,88.34Z"/><polygon id="ab26f6cb-45ba-4cfb-9dcd-580b3672251b" data-name="&lt;Path&gt;" class="e2786fe9-911c-4e04-ba59-68fcc11a6772" points="93.33 88.34 36.61 128.28 36.61 162.54 141.92 88.34 93.33 88.34"/><path id="4a3a3dbe-fa9f-4903-963d-f48d7a26325a" data-name="&lt;Path&gt;" class="e2786fe9-911c-4e04-ba59-68fcc11a6772" d="M216.57,88.34H173.86L36.61,185.06v5.41a11.86,11.86,0,0,0,11.92,11.87h11.9L218.52,91Z"/></g><g id="0e4522d1-e622-4664-a323-100457800d3f" data-name="&lt;Group&gt;" class="2739d7e1-3197-4f83-8d7b-9e996ab3b537"><path id="2f97af4c-3d72-47a6-85a1-2990f6a239d4" data-name="&lt;Path&gt;" class="e2786fe9-911c-4e04-ba59-68fcc11a6772" d="M294,190.34c-13.07,0-23.67,9.38-23.67,21h47.34C317.65,199.72,307.05,190.34,294,190.34Z"/></g><g id="7f042a3e-cd53-44e4-a5b4-3aeb10c2581e" data-name="&lt;Group&gt;"><path id="80111fec-8796-4d1b-8982-d6169872c987" data-name="&lt;Path&gt;" class="e2786fe9-911c-4e04-ba59-68fcc11a6772" d="M294,194.34c-13.07,0-23.67,9.38-23.67,21h47.34C317.65,203.72,307.05,194.34,294,194.34Z"/></g><rect id="5c0cfc05-f5f0-420d-8b3a-6f99df650785" data-name="&lt;Rectangle&gt;" class="ee58ca0e-a631-45df-82ac-02a4229eb7e2" x="28.05" y="79.05" width="198.73" height="114.23" rx="12" ry="12"/><path id="15389c55-ab32-427f-991f-ca7157a8f80b" data-name="&lt;Compound Path&gt;" class="b56c4fb7-bd92-4ea3-a259-5f1d99e86c5f" d="M229,220.8H53.66a15,15,0,0,1-15-15V111.65a15,15,0,0,1,15-15H229a15,15,0,0,1,15,15V205.8A15,15,0,0,1,229,220.8ZM53.66,102.65a9,9,0,0,0-9,9V205.8a9,9,0,0,0,9,9H229a9,9,0,0,0,9-9V111.65a9,9,0,0,0-9-9Z"/><g id="0b9dc053-88c8-4878-9dca-b7048956b5c4" data-name="&lt;Group&gt;" class="2739d7e1-3197-4f83-8d7b-9e996ab3b537"><path id="623eb42e-0a00-4dc0-9056-59ca923bc8d1" data-name="&lt;Path&gt;" class="e2786fe9-911c-4e04-ba59-68fcc11a6772" d="M335.8,48A45.43,45.43,0,0,0,275,68.77l81.59,40.1A45.43,45.43,0,0,0,335.8,48Z"/></g><g id="4ecccc08-19cc-4084-8cf4-821844d92f8e" data-name="&lt;Group&gt;"><path id="43807bc1-4e94-48a5-8c74-da9f120127de" data-name="&lt;Path&gt;" class="e2786fe9-911c-4e04-ba59-68fcc11a6772" d="M335.8,35A45.43,45.43,0,0,0,275,55.77l81.59,40.1A45.43,45.43,0,0,0,335.8,35Z"/></g><g id="c390a6df-77e7-430b-84ed-15600e5affca" data-name="&lt;Group&gt;" class="2739d7e1-3197-4f83-8d7b-9e996ab3b537"><path id="1ecaac0b-6331-4106-812f-6950d537f147" data-name="&lt;Path&gt;" class="e2786fe9-911c-4e04-ba59-68fcc11a6772" d="M427.93,171.62a43.69,43.69,0,0,0-43.72,43.72h87.44A43.69,43.69,0,0,0,427.93,171.62Z"/></g><g id="1aef84cf-eca2-49d6-ab9f-fd547b4ff669" data-name="&lt;Group&gt;"><path id="323e3937-2ae5-467e-be73-422c60f5033d" data-name="&lt;Path&gt;" class="e2786fe9-911c-4e04-ba59-68fcc11a6772" d="M433.93,165.62a43.69,43.69,0,0,0-43.72,43.72h87.44A43.69,43.69,0,0,0,433.93,165.62Z"/></g><rect id="1a0c2866-ea4d-4dc2-b1c4-8d4e4cf4f8f8" data-name="&lt;Rectangle&gt;" class="b56c4fb7-bd92-4ea3-a259-5f1d99e86c5f" y="220.25" width="645.22" height="19.11" rx="9.55" ry="9.55"/><g id="f7a26625-56f8-40d8-9e24-6b3c7c3041b3" data-name="&lt;Group&gt;"><rect id="206dd685-ab98-4bcb-a2d6-b68e27b836d3" data-name="&lt;Rectangle&gt;" class="ee58ca0e-a631-45df-82ac-02a4229eb7e2" x="505.22" y="167" width="52.26" height="17.96" transform="translate(-14.21 50.82) rotate(-5.4)"/><rect id="d89e996d-ce96-427e-82f3-0612b88a73c3" data-name="&lt;Rectangle&gt;" class="e2786fe9-911c-4e04-ba59-68fcc11a6772" x="505.22" y="161.33" width="52.26" height="17.96" transform="translate(-13.68 50.79) rotate(-5.4)"/><g id="e902b8b3-87ca-46f6-9f59-eabf1f382cfb" data-name="&lt;Group&gt;"><path id="f4a7492b-daf3-4e3f-acf6-6ad619bb3a7d" data-name="&lt;Compound Path&gt;" class="b56c4fb7-bd92-4ea3-a259-5f1d99e86c5f" d="M538.5,224.25H523.71a22.65,22.65,0,0,1-22.62-22.62V161.14a5.35,5.35,0,0,1,5.34-5.2h49.82a5.32,5.32,0,0,1,5.34,5.24v40A23.13,23.13,0,0,1,538.5,224.25ZM507,161.87v39.75a16.7,16.7,0,0,0,16.68,16.69H538.5a17.19,17.19,0,0,0,17.17-17.17V161.87Z"/></g><path id="53e640b3-c534-44dc-b739-40686ee6b1be" data-name="&lt;Path&gt;" class="b56c4fb7-bd92-4ea3-a259-5f1d99e86c5f" d="M558.69,204.32a3,3,0,1,1,0-5.93,14.11,14.11,0,1,0,0-28.22,3,3,0,1,1,0-5.93,20,20,0,1,1,0,40.09Z"/></g><g id="9367646c-7a7d-45d2-b2c8-4a23f1166415" data-name="&lt;Group&gt;"><path id="a432a4de-dd85-4f8d-afcc-8ef0e88e9208" data-name="&lt;Compound Path&gt;" class="b56c4fb7-bd92-4ea3-a259-5f1d99e86c5f" d="M491.61,225.34h-120v-4a60,60,0,1,1,120,0Zm-112-8H483.5a52.11,52.11,0,0,0-103.91,0Z"/></g><g id="9fce9a45-df5a-47b0-ade5-e6a094bc5eab" data-name="&lt;Group&gt;"><path id="38b994f2-20d6-49f5-be16-541190cb9223" data-name="&lt;Compound Path&gt;" class="b56c4fb7-bd92-4ea3-a259-5f1d99e86c5f" d="M326.61,225.34h-55v-4c0-13.79,12.24-25,27.5-25s27.5,11.21,27.5,25Zm-46.75-8H318.1c-2.09-7.45-9.87-13-19.12-13S281.95,209.89,279.86,217.34Z"/></g><g id="1952f7fc-0803-4ae3-b85d-38fcd7e508c4" data-name="&lt;Group&gt;"><path id="9fbc37dd-506e-4b35-9b6d-1225dac32659" data-name="&lt;Compound Path&gt;" class="b56c4fb7-bd92-4ea3-a259-5f1d99e86c5f" d="M358.6,93.9,268.93,49.83l2-4A49.93,49.93,0,0,1,337.79,23h0a49.93,49.93,0,0,1,22.8,66.87ZM281.2,45.83l73.08,35.91a40.93,40.93,0,0,0-20.46-50.67h0A40.93,40.93,0,0,0,281.2,45.83Z"/></g><path id="11cab52b-c2ab-450b-9847-b1ba6435c5a8" data-name="&lt;Path&gt;" class="b56c4fb7-bd92-4ea3-a259-5f1d99e86c5f" d="M431.54,169.23a4,4,0,0,1-3.42-6.07l50.21-83A7.44,7.44,0,0,0,475.85,70L376,9.08a7.45,7.45,0,0,0-8.94.92l-23,21.46a4,4,0,1,1-5.46-5.84l23-21.46a15.48,15.48,0,0,1,18.57-1.9L480,63.13a15.46,15.46,0,0,1,5.17,21.16L435,167.3A4,4,0,0,1,431.54,169.23Z"/><rect id="b2a19158-d0dc-4a45-a3b6-2504520d2bfb" data-name="&lt;Rectangle&gt;" class="b56c4fb7-bd92-4ea3-a259-5f1d99e86c5f" x="41.66" y="208.78" width="201.91" height="11.46" rx="5.73" ry="5.73"/><rect id="9205c51a-c243-426d-9803-54eda7354c30" data-name="&lt;Rectangle&gt;" class="5752a8a9-6e86-454e-96c9-c72e011ec089" x="48.03" y="209.8" width="188.24" height="8.8" rx="4.14" ry="4.14"/><path id="cbcf3c91-db19-4f59-8a83-bd5b7116f6ee" data-name="&lt;Path&gt;" class="b56c4fb7-bd92-4ea3-a259-5f1d99e86c5f" d="M243.39,210.61l-4.75-3.66c20.91-27.11,61.16-9.53,61.56-9.35l-2.45,5.48,1.22-2.74-1.22,2.74C297.4,202.91,261.41,187.26,243.39,210.61Z"/><rect id="d341f23b-dd41-4262-815c-cea003e57620" data-name="&lt;Rectangle&gt;" class="b56c4fb7-bd92-4ea3-a259-5f1d99e86c5f" x="16.05" y="229.8" width="24" height="205.54" rx="12" ry="12" transform="translate(56.11 665.14) rotate(180)"/><rect id="7d6006fe-decb-42e1-9ff4-c3d88e9dfb16" data-name="&lt;Rectangle&gt;" class="b56c4fb7-bd92-4ea3-a259-5f1d99e86c5f" x="601.75" y="229.8" width="24" height="205.54" rx="12" ry="12" transform="translate(1227.5 665.14) rotate(180)"/></g></g></svg>