<svg xmlns="http://www.w3.org/2000/svg" xmlns:xlink="http://www.w3.org/1999/xlink" viewBox="0 0 323.12 265.01"><defs><style>.db1de3f0-b1a0-4852-b0eb-d977879760f8{fill:url(#1018487c-5af1-46f9-b7b4-e2e586b5b166);}.\31 c09f228-ddf1-4efa-a70c-6280a5dbd6e8{isolation:isolate;}.\33 ce80ed9-6457-4879-a259-50de08d8ddf2{mix-blend-mode:overlay;fill:url(#2358250a-e2ae-4578-a9b4-99034b2e9de6);}.b1e7cb47-f04a-4a45-92ce-d94cfcbd8b8d{mask:url(#688b9f1c-f099-4e79-a0c1-25fd57cd5bc7);}.fb86f29c-5987-4ec9-8651-0cc361f630f9{opacity:0.33;fill:url(#ad494c35-910a-4664-9e2e-c5e457287481);}.\37 b73bea8-f5b0-49be-a3ed-160bbc040303{fill:url(#b6e20eb0-3a20-4a3e-811f-2358927874a6);}.\31 4830e3f-ea7a-4555-bb31-adb896992853{fill:url(#d1721d18-4565-44d0-9ab6-2dab9cb4d31e);}.\32 06f7ec9-b2b9-4a5f-9070-ce47faa29b7a{fill:url(#1fd69467-09eb-4dc0-87c3-bc7768bfef96);}.fdeb7828-f64c-4933-b54b-e7a646e0ddde{fill:url(#b695a801-3b89-442d-8a7a-516bc390c074);}.da1c7104-145e-4099-9d4a-619a4e32b9d6{fill:url(#5c282eb2-1693-4d8b-8163-afa93f5980de);}.\35 80bff8a-d43e-4b06-b213-b8c36516b3d8{fill:url(#d5307016-4e8a-4889-a1b3-39db5bff8ec3);}.\39 0f46066-fb6d-4693-a321-61c2f8794c3a{fill:#444;}.\35 da0e5d7-c2d5-4b82-b82b-a172ce890cd0{fill:url(#13b99ade-ac65-48f2-aa59-9f4c331f1c68);}.c23dce8f-2671-49f6-8f82-efe791615f4a{fill:#c33;}.\30 9b498f2-629e-4b27-9e55-952cb184770b{fill:#fff;}</style><radialGradient id="1018487c-5af1-46f9-b7b4-e2e586b5b166" cx="162.83" cy="808.68" r="81.1" gradientTransform="translate(0 185.56) scale(1 0.09)" gradientUnits="userSpaceOnUse"><stop offset="0" stop-color="#fff"/><stop offset="1" stop-color="#14130a"/></radialGradient><linearGradient id="2358250a-e2ae-4578-a9b4-99034b2e9de6" x1="142.29" y1="96.39" x2="323.12" y2="96.39" gradientUnits="userSpaceOnUse"><stop offset="0" stop-color="#fff" stop-opacity="0"/><stop offset="0.09" stop-color="#fff" stop-opacity="0.02"/><stop offset="0.22" stop-color="#fff" stop-opacity="0.09"/><stop offset="0.36" stop-color="#fff" stop-opacity="0.2"/><stop offset="0.51" stop-color="#fff" stop-opacity="0.35"/><stop offset="0.68" stop-color="#fff" stop-opacity="0.54"/><stop offset="0.85" stop-color="#fff" stop-opacity="0.77"/><stop offset="1" stop-color="#fff"/></linearGradient><mask id="688b9f1c-f099-4e79-a0c1-25fd57cd5bc7" x="81.72" y="250.53" width="162.23" height="14.48" maskUnits="userSpaceOnUse"><ellipse class="db1de3f0-b1a0-4852-b0eb-d977879760f8" cx="162.83" cy="257.77" rx="81.11" ry="7.24"/></mask><linearGradient id="ad494c35-910a-4664-9e2e-c5e457287481" x1="162.85" y1="265" x2="162.81" y2="250.65" gradientUnits="userSpaceOnUse"><stop offset="0" stop-color="#4d4848"/><stop offset="0.35" stop-color="#14130a"/><stop offset="1" stop-color="#14130a"/></linearGradient><linearGradient id="b6e20eb0-3a20-4a3e-811f-2358927874a6" x1="112.38" y1="256.5" x2="214.85" y2="256.5" gradientUnits="userSpaceOnUse"><stop offset="0.01" stop-color="#58595b"/><stop offset="0.28" stop-color="#757679"/><stop offset="0.51" stop-color="#88898d"/><stop offset="1" stop-color="#58595b"/></linearGradient><linearGradient id="d1721d18-4565-44d0-9ab6-2dab9cb4d31e" x1="162.68" y1="218.43" x2="162.68" y2="262.17" gradientUnits="userSpaceOnUse"><stop offset="0.08" stop-color="#6d6f73"/><stop offset="0.13" stop-color="#97999c"/><stop offset="0.18" stop-color="#cccdce"/><stop offset="0.21" stop-color="#e0e1e2"/><stop offset="0.32" stop-color="#a7a9ac"/><stop offset="0.39" stop-color="#868789"/><stop offset="0.46" stop-color="#636363"/><stop offset="0.53" stop-color="#6e6f6f"/><stop offset="0.65" stop-color="#8b8d8f"/><stop offset="0.74" stop-color="#a6aaad"/></linearGradient><radialGradient id="1fd69467-09eb-4dc0-87c3-bc7768bfef96" cx="211.43" cy="273.85" r="36.92" gradientUnits="userSpaceOnUse"><stop offset="0" stop-color="#fff"/><stop offset="0.17" stop-color="#fff" stop-opacity="0.78"/><stop offset="0.4" stop-color="#fff" stop-opacity="0.5"/><stop offset="0.6" stop-color="#fff" stop-opacity="0.29"/><stop offset="0.78" stop-color="#fff" stop-opacity="0.13"/><stop offset="0.92" stop-color="#fff" stop-opacity="0.04"/><stop offset="1" stop-color="#fff" stop-opacity="0"/></radialGradient><radialGradient id="b695a801-3b89-442d-8a7a-516bc390c074" cx="275.92" cy="273.85" r="36.92" gradientTransform="matrix(-1, 0, 0, 1, 390.93, 0)" xlink:href="#1fd69467-09eb-4dc0-87c3-bc7768bfef96"/><linearGradient id="5c282eb2-1693-4d8b-8163-afa93f5980de" x1="122.97" y1="257.51" x2="202.48" y2="257.51" gradientUnits="userSpaceOnUse"><stop offset="0.01" stop-color="#fff" stop-opacity="0"/><stop offset="0.18" stop-color="#fff" stop-opacity="0.38"/><stop offset="0.34" stop-color="#fff" stop-opacity="0.71"/><stop offset="0.45" stop-color="#fff" stop-opacity="0.92"/><stop offset="0.51" stop-color="#fff"/><stop offset="1" stop-color="#fff" stop-opacity="0"/></linearGradient><linearGradient id="d5307016-4e8a-4889-a1b3-39db5bff8ec3" x1="-5.66" y1="217.66" x2="345.49" y2="194.64" gradientUnits="userSpaceOnUse"><stop offset="0" stop-color="#78797d"/><stop offset="0.32" stop-color="#737478"/><stop offset="0.49" stop-color="#6d6f73"/><stop offset="1" stop-color="#6d6f73"/></linearGradient><linearGradient id="13b99ade-ac65-48f2-aa59-9f4c331f1c68" x1="-5.59" y1="217.65" x2="345.49" y2="194.64" gradientUnits="userSpaceOnUse"><stop offset="0" stop-color="#898a8f"/><stop offset="0.05" stop-color="#909196"/><stop offset="0.31" stop-color="#b1b2b6"/><stop offset="0.57" stop-color="#c8cacd"/><stop offset="0.8" stop-color="#d6d8db"/><stop offset="1" stop-color="#dbdde0"/></linearGradient></defs><title>Asset 3</title><g class="1c09f228-ddf1-4efa-a70c-6280a5dbd6e8"><g id="a554883d-2df4-49cf-a6ef-4b744bfbd165" data-name="Layer 2"><g id="cbf757f7-834b-426c-a326-09be426bc309" data-name="Layer 1"><path class="3ce80ed9-6457-4879-a259-50de08d8ddf2" d="M257.46,0h56S324.2.08,323,11l-.34,181.77H142.29"/><g class="b1e7cb47-f04a-4a45-92ce-d94cfcbd8b8d"><ellipse class="fb86f29c-5987-4ec9-8651-0cc361f630f9" cx="162.83" cy="257.77" rx="81.11" ry="7.24"/></g><path class="7b73bea8-f5b0-49be-a3ed-160bbc040303" d="M113,255v.28c0,1.87,3,2.72,11,2.72h78.53c7.93,0,10.7-1,10.73-3H113Z"/><path class="14830e3f-ea7a-4555-bb31-adb896992853" d="M203,243.68c-7.08-7.21-7.35-22.67-7.35-22.67h-66s-.27,15.46-7.34,22.67S104.19,257,123.42,257h78.53C221.18,257,210.09,250.89,203,243.68Z"/><path class="206f7ec9-b2b9-4a5f-9070-ce47faa29b7a" d="M169,257c3.93-8,16.47-15.53,32.07-17.05a16.17,16.17,0,0,0,2.47,3.16c7,7.08,17.77,13.89-.08,13.89Z"/><path class="fdeb7828-f64c-4933-b54b-e7a646e0ddde" d="M157.43,257c-3.93-8-16.47-15.53-32.08-17.05a16.2,16.2,0,0,1-2.47,3.16c-7,7.08-17.77,13.89.09,13.89Z"/><path class="da1c7104-145e-4099-9d4a-619a4e32b9d6" d="M123,257.51c6.62-.11,13.25-.16,19.88-.2l19.88-.06,19.88.06,9.94.07,9.94.13-9.94.13-9.94.07-19.88.06-19.88-.06C136.22,257.67,129.59,257.62,123,257.51Z"/><path class="580bff8a-d43e-4b06-b213-b8c36516b3d8" d="M0,211.57C0,216.88,5,221,10.3,221H313.47a9.39,9.39,0,0,0,9.53-9.44V193H0Z"/><path class="90f46066-fb6d-4693-a321-61c2f8794c3a" d="M313.47,0H10.3C5,0,0,3.79,0,9.1V193H323V9.1C323,3.79,318.78,0,313.47,0ZM309,179H14V12H309Z"/><path class="5da0e5d7-c2d5-4b82-b82b-a172ce890cd0" d="M0,210.5C0,215.81,5,221,10.3,221H313.47c5.31,0,9.53-5.19,9.53-10.5V193H0Z"/><rect class="c23dce8f-2671-49f6-8f82-efe791615f4a" x="13.75" y="12" width="295" height="168.15"/><g id="3bee81b2-088f-409d-8541-c94d7182b8b0" data-name="logo"><g id="40493d40-8446-4b00-8018-dac58d012e83" data-name="RIGHT"><polygon class="09b498f2-629e-4b27-9e55-952cb184770b" points="274.71 68.36 274.7 68.36 274.71 68.78 274.71 68.36"/><polygon class="09b498f2-629e-4b27-9e55-952cb184770b" points="256.85 68.94 255.54 68.36 255.34 68.36 204.37 91.05 204.37 107.42 274.71 76.11 274.71 68.94 256.85 68.94"/><polygon class="09b498f2-629e-4b27-9e55-952cb184770b" points="274.71 68.94 274.71 68.94 274.71 68.78 274.7 68.36 274.68 60.45 204.22 29.42 204.28 45.78 255.54 68.36 256.85 68.94 274.71 68.94"/></g><g id="283df188-b3af-4d11-9dbe-8641372b36ea" data-name="LEFT"><polygon class="09b498f2-629e-4b27-9e55-952cb184770b" points="47.79 68.36 47.79 68.53 47.79 68.36 47.79 68.36"/><polygon class="09b498f2-629e-4b27-9e55-952cb184770b" points="118.28 107.42 118.22 91.05 67.06 68.52 66.11 68.94 47.8 68.94 47.82 76.38 118.28 107.42"/><polygon class="09b498f2-629e-4b27-9e55-952cb184770b" points="67.06 68.52 118.13 45.78 118.13 29.42 47.79 60.72 47.79 68.36 47.79 68.53 47.79 68.94 47.8 68.94 66.11 68.94 67.06 68.52"/></g><g id="ea06d4ca-6712-4863-b594-cb689efe1317" data-name="LOGO"><path class="09b498f2-629e-4b27-9e55-952cb184770b" d="M182.35,101.42a9.13,9.13,0,0,1-.7-3.53,8.91,8.91,0,0,1,.67-3.48,9.3,9.3,0,0,1,1.74-2.74H153.3L167.43,69.5H150.78l.17-.26h-.16l-11.6,18.21v17.2h45.42c-.13-.12-.26-.23-.38-.36A9.29,9.29,0,0,1,182.35,101.42Z"/><polygon class="09b498f2-629e-4b27-9e55-952cb184770b" points="182.99 69.5 183.05 83.7 197.13 83.5 197.07 69.24 197.03 69.24 197.03 69.5 182.99 69.5"/><path class="09b498f2-629e-4b27-9e55-952cb184770b" d="M198,94.2a8.94,8.94,0,0,0-4.5-4.73,7.28,7.28,0,0,0-3.23-.68,7.9,7.9,0,0,0-3.34.77,9.18,9.18,0,0,0-2.74,2l-.11.13a9.3,9.3,0,0,0-1.74,2.74,8.91,8.91,0,0,0-.67,3.48,9.13,9.13,0,0,0,.7,3.53,9.29,9.29,0,0,0,1.88,2.87c.12.13.25.24.38.36A8.43,8.43,0,0,0,187,106.2a8.06,8.06,0,0,0,3.34.65,7.59,7.59,0,0,0,3.22-.74,8.63,8.63,0,0,0,2.65-2,9.39,9.39,0,0,0,1.8-2.92,9.5,9.5,0,0,0,.64-3.55A9.07,9.07,0,0,0,198,94.2Z"/><polygon class="09b498f2-629e-4b27-9e55-952cb184770b" points="139.19 69.24 139.14 69.24 139.14 69.5 125.1 69.5 125.1 104.69 139.19 104.69 139.19 104.65 139.19 87.45 139.19 69.24"/><path class="09b498f2-629e-4b27-9e55-952cb184770b" d="M167.43,69.5h.16l15.25-23.94-.06-13.3,1.73,0H137.65c.14.13.27.25.4.39a9.4,9.4,0,0,1,1.86,2.89,9.18,9.18,0,0,1,.68,3.54,8.86,8.86,0,0,1-.68,3.47,9.18,9.18,0,0,1-1.72,2.68h28.05l-15.31,24-.17.26Z"/><polygon class="09b498f2-629e-4b27-9e55-952cb184770b" points="182.84 45.56 182.94 69.5 182.99 69.5 197.03 69.5 197.03 69.24 196.86 32.07 184.51 32.24 182.78 32.26 182.84 45.56"/><polygon class="09b498f2-629e-4b27-9e55-952cb184770b" points="139.14 69.24 139.14 53.24 125.06 53.24 125.06 69.5 125.1 69.5 139.14 69.5 139.14 69.24"/><path class="09b498f2-629e-4b27-9e55-952cb184770b" d="M140.6,39.06a9.18,9.18,0,0,0-.68-3.54,9.4,9.4,0,0,0-1.86-2.89c-.13-.14-.27-.26-.4-.39a8.55,8.55,0,0,0-2.35-1.56A8.11,8.11,0,0,0,132,30a7.54,7.54,0,0,0-3.23.7,8.53,8.53,0,0,0-2.66,1.95,9.27,9.27,0,0,0-1.82,2.89,9.46,9.46,0,0,0-.66,3.54,9.12,9.12,0,0,0,.66,3.47,9.06,9.06,0,0,0,4.48,4.79A7.31,7.31,0,0,0,132,48a7.86,7.86,0,0,0,3.34-.72,9.08,9.08,0,0,0,2.75-1.95l.14-.16a9.18,9.18,0,0,0,1.72-2.68A8.86,8.86,0,0,0,140.6,39.06Z"/></g></g><g id="9da5b250-622f-42b0-816a-1ce989ee6b69" data-name="slogan"><path class="09b498f2-629e-4b27-9e55-952cb184770b" d="M47.68,129.1V110.8h6.68a12.63,12.63,0,0,1,3.2.35,6.09,6.09,0,0,1,2.16,1,3.76,3.76,0,0,1,1.22,1.56,5.29,5.29,0,0,1,.38,2,4,4,0,0,1-.17,1.19A3.5,3.5,0,0,1,60.6,118a4.09,4.09,0,0,1-1,.91,6.15,6.15,0,0,1-1.41.71,5,5,0,0,1,2.66,1.42,3.71,3.71,0,0,1,.86,2.53,5.26,5.26,0,0,1-.45,2.17A5,5,0,0,1,60,127.51a6.22,6.22,0,0,1-2.14,1.17,9.24,9.24,0,0,1-2.9.42Zm4.21-10.6h2.19a7.15,7.15,0,0,0,1.26-.1,2.59,2.59,0,0,0,1-.35,1.61,1.61,0,0,0,.6-.69,2.6,2.6,0,0,0,.21-1.1,3.13,3.13,0,0,0-.16-1.09,1.56,1.56,0,0,0-.5-.7,2.08,2.08,0,0,0-.85-.38,5.83,5.83,0,0,0-1.23-.11H51.9Zm0,2.84v4.56h3a3.69,3.69,0,0,0,1.37-.21,2.16,2.16,0,0,0,.83-.55,1.86,1.86,0,0,0,.41-.77,3.4,3.4,0,0,0,.11-.87,2.91,2.91,0,0,0-.13-.9,1.5,1.5,0,0,0-.45-.68,2.19,2.19,0,0,0-.84-.43,4.87,4.87,0,0,0-1.32-.15Z"/><path class="09b498f2-629e-4b27-9e55-952cb184770b" d="M69.58,115.88a6.61,6.61,0,0,1,2.35.4,5.1,5.1,0,0,1,1.83,1.17,5.33,5.33,0,0,1,1.2,1.88,6.93,6.93,0,0,1,.43,2.52,5.44,5.44,0,0,1,0,.72,1.13,1.13,0,0,1-.14.44.53.53,0,0,1-.27.23,1.25,1.25,0,0,1-.43.06H67.06a3.68,3.68,0,0,0,1,2.37,2.92,2.92,0,0,0,2.06.73,3.67,3.67,0,0,0,1.16-.16,5.87,5.87,0,0,0,.87-.36l.7-.36a1.45,1.45,0,0,1,.67-.16.8.8,0,0,1,.7.34l1.12,1.39A5.75,5.75,0,0,1,74,128.19a6.69,6.69,0,0,1-1.42.68,7.65,7.65,0,0,1-1.46.34,10.92,10.92,0,0,1-1.39.09,7.22,7.22,0,0,1-2.55-.45,5.85,5.85,0,0,1-2.08-1.32,6.25,6.25,0,0,1-1.41-2.18,8.22,8.22,0,0,1-.52-3,6.92,6.92,0,0,1,.44-2.47,6,6,0,0,1,3.28-3.44A6.58,6.58,0,0,1,69.58,115.88Zm.07,2.69a2.32,2.32,0,0,0-1.73.63,3.31,3.31,0,0,0-.82,1.83h4.83a3.45,3.45,0,0,0-.12-.9,2.2,2.2,0,0,0-.39-.78,2,2,0,0,0-.7-.56A2.4,2.4,0,0,0,69.65,118.56Z"/><path class="09b498f2-629e-4b27-9e55-952cb184770b" d="M92.67,114.47a1.59,1.59,0,0,1-.43.44,1,1,0,0,1-.52.14,1,1,0,0,1-.57-.19l-.64-.41a5.12,5.12,0,0,0-.82-.41,3.19,3.19,0,0,0-2.09,0,2,2,0,0,0-.72.45,1.86,1.86,0,0,0-.43.68,2.45,2.45,0,0,0-.14.85,1.28,1.28,0,0,0,.28.84,2.55,2.55,0,0,0,.75.6,7.55,7.55,0,0,0,1.05.47l1.2.46a11.41,11.41,0,0,1,1.21.58,4.39,4.39,0,0,1,1.06.82,3.71,3.71,0,0,1,.75,1.18,4.4,4.4,0,0,1,.28,1.66,7.1,7.1,0,0,1-.47,2.6,6.28,6.28,0,0,1-1.36,2.13,6.46,6.46,0,0,1-2.15,1.44,7.61,7.61,0,0,1-4.43.36,8.16,8.16,0,0,1-1.52-.5,7.7,7.7,0,0,1-1.35-.76,5.2,5.2,0,0,1-1.06-1L82,125a1.27,1.27,0,0,1,.42-.35,1.12,1.12,0,0,1,.52-.14,1.13,1.13,0,0,1,.68.24l.73.54a5.25,5.25,0,0,0,.93.54,3.1,3.1,0,0,0,1.3.24,2.36,2.36,0,0,0,1.75-.62,2.51,2.51,0,0,0,.62-1.84,1.48,1.48,0,0,0-.28-.93,2.34,2.34,0,0,0-.74-.62,6.22,6.22,0,0,0-1-.45l-1.2-.42a10.08,10.08,0,0,1-1.2-.53,3.72,3.72,0,0,1-1.78-2,4.92,4.92,0,0,1-.28-1.78,6.19,6.19,0,0,1,.46-2.34,6.09,6.09,0,0,1,1.3-2,6.29,6.29,0,0,1,2.06-1.38,7.27,7.27,0,0,1,4.22-.35,7,7,0,0,1,1.37.45,6.11,6.11,0,0,1,1.16.68,4.71,4.71,0,0,1,.89.86Z"/><path class="09b498f2-629e-4b27-9e55-952cb184770b" d="M105.25,119.28a3.78,3.78,0,0,1-.35,1.63,3.28,3.28,0,0,1-1.22,1.31,8.22,8.22,0,0,1-2.33,1,23.16,23.16,0,0,1-3.68.63,2.93,2.93,0,0,0,.58,1.95,2.09,2.09,0,0,0,1.64.62,3.91,3.91,0,0,0,.89-.09,3.06,3.06,0,0,0,.65-.23,4.4,4.4,0,0,0,.5-.29l.43-.29a2.23,2.23,0,0,1,.43-.23,1.39,1.39,0,0,1,.51-.09.76.76,0,0,1,.36.09,1.17,1.17,0,0,1,.31.25l1,1.17a13.63,13.63,0,0,1-1.34,1.17,7.32,7.32,0,0,1-1.35.82,6.39,6.39,0,0,1-1.47.47,9,9,0,0,1-1.7.15,5.49,5.49,0,0,1-2.11-.4,4.77,4.77,0,0,1-1.65-1.12A5,5,0,0,1,94.28,126a6.4,6.4,0,0,1-.38-2.26,8.94,8.94,0,0,1,.23-2,8.6,8.6,0,0,1,.66-1.86,7.81,7.81,0,0,1,1.05-1.61,6.93,6.93,0,0,1,1.4-1.26A6.6,6.6,0,0,1,99,116.2a6.5,6.5,0,0,1,2-.29,5.22,5.22,0,0,1,1.84.3,4.32,4.32,0,0,1,1.35.78,3.38,3.38,0,0,1,.84,1.09A2.79,2.79,0,0,1,105.25,119.28Zm-4.54-.75a2.24,2.24,0,0,0-1.68.77,4.9,4.9,0,0,0-1.08,2.12,17.93,17.93,0,0,0,2-.4,4.85,4.85,0,0,0,1.16-.45,1.39,1.39,0,0,0,.56-.53,1.33,1.33,0,0,0,.14-.61.93.93,0,0,0-.25-.62A1,1,0,0,0,100.71,118.53Z"/><path class="09b498f2-629e-4b27-9e55-952cb184770b" d="M117.31,119.28a3.78,3.78,0,0,1-.35,1.63,3.28,3.28,0,0,1-1.22,1.31,8.22,8.22,0,0,1-2.33,1,23.16,23.16,0,0,1-3.68.63,2.93,2.93,0,0,0,.58,1.95,2.09,2.09,0,0,0,1.64.62,3.91,3.91,0,0,0,.89-.09,3.06,3.06,0,0,0,.65-.23,4.4,4.4,0,0,0,.5-.29l.43-.29a2.23,2.23,0,0,1,.43-.23,1.39,1.39,0,0,1,.51-.09.76.76,0,0,1,.36.09,1.17,1.17,0,0,1,.31.25l1,1.17a13.63,13.63,0,0,1-1.34,1.17,7.32,7.32,0,0,1-1.35.82,6.39,6.39,0,0,1-1.47.47,9,9,0,0,1-1.7.15,5.49,5.49,0,0,1-2.11-.4,4.77,4.77,0,0,1-1.65-1.12,5,5,0,0,1-1.07-1.74,6.4,6.4,0,0,1-.38-2.26,8.94,8.94,0,0,1,.23-2,8.6,8.6,0,0,1,.66-1.86,7.81,7.81,0,0,1,1.05-1.61,6.93,6.93,0,0,1,1.4-1.26,6.6,6.6,0,0,1,1.71-.82,6.5,6.5,0,0,1,2-.29,5.22,5.22,0,0,1,1.84.3,4.32,4.32,0,0,1,1.35.78,3.38,3.38,0,0,1,.84,1.09A2.79,2.79,0,0,1,117.31,119.28Zm-4.54-.75a2.24,2.24,0,0,0-1.68.77,4.9,4.9,0,0,0-1.08,2.12,17.93,17.93,0,0,0,2-.4,4.85,4.85,0,0,0,1.16-.45,1.39,1.39,0,0,0,.56-.53,1.33,1.33,0,0,0,.14-.61.93.93,0,0,0-.25-.62A1,1,0,0,0,112.78,118.53Z"/><path class="09b498f2-629e-4b27-9e55-952cb184770b" d="M125.52,129.1l1-8.27c0-.13,0-.26,0-.37s0-.22,0-.32a1.4,1.4,0,0,0-.23-.92.88.88,0,0,0-.69-.26,1.79,1.79,0,0,0-.89.26,3.47,3.47,0,0,0-.88.74,5.67,5.67,0,0,0-.77,1.16,6.81,6.81,0,0,0-.55,1.51l-.71,6.46H118l1.55-13h2a1.41,1.41,0,0,1,.94.28,1.14,1.14,0,0,1,.34.92v1a6.34,6.34,0,0,1,2-1.85,4.79,4.79,0,0,1,2.29-.6,3.29,3.29,0,0,1,1.33.26,2.87,2.87,0,0,1,1,.77,3.71,3.71,0,0,1,.69,1.25,5.34,5.34,0,0,1,.25,1.71q0,.23,0,.46t0,.49l-1,8.27Z"/><path class="09b498f2-629e-4b27-9e55-952cb184770b" d="M133.73,127.12a2.1,2.1,0,0,1,.17-.84,2.12,2.12,0,0,1,.46-.68,2.2,2.2,0,0,1,1.56-.63,2.18,2.18,0,0,1,.86.17,2.29,2.29,0,0,1,.7.46,2.08,2.08,0,0,1,.64,1.52,2.14,2.14,0,0,1-.17.85,2.06,2.06,0,0,1-.47.68,2.19,2.19,0,0,1-.7.45,2.26,2.26,0,0,1-.86.16,2.29,2.29,0,0,1-.87-.16A2.08,2.08,0,0,1,133.9,128,2.14,2.14,0,0,1,133.73,127.12Zm4-16.32V118a19.12,19.12,0,0,1-.14,2.29q-.14,1.14-.36,2.32h-2.62q-.22-1.18-.36-2.32a19,19,0,0,1-.14-2.29V110.8Z"/><path class="09b498f2-629e-4b27-9e55-952cb184770b" d="M155.48,126a7.12,7.12,0,0,0,1.55-.15,7.49,7.49,0,0,0,1.27-.4v-2.77h-1.8a.87.87,0,0,1-.62-.21.71.71,0,0,1-.22-.54v-2.33h6.46v7.72a9.48,9.48,0,0,1-1.45.88,9.3,9.3,0,0,1-1.61.61,11.87,11.87,0,0,1-1.82.35,17.94,17.94,0,0,1-2.08.11,9.47,9.47,0,0,1-3.69-.71,8.87,8.87,0,0,1-4.88-4.92,9.69,9.69,0,0,1-.7-3.72,10.2,10.2,0,0,1,.67-3.76,8.47,8.47,0,0,1,1.93-3,8.73,8.73,0,0,1,3-1.93,10.88,10.88,0,0,1,4-.69,11.46,11.46,0,0,1,2.13.19,10.42,10.42,0,0,1,1.84.51,8.45,8.45,0,0,1,1.54.78,8.28,8.28,0,0,1,1.25,1L161,114.94a1.37,1.37,0,0,1-.42.41,1,1,0,0,1-.53.15,1.45,1.45,0,0,1-.77-.25q-.5-.3-.94-.52a5.79,5.79,0,0,0-.9-.36,5.88,5.88,0,0,0-1-.2,9.55,9.55,0,0,0-1.15-.06,5.2,5.2,0,0,0-2.13.42,4.57,4.57,0,0,0-1.61,1.19,5.37,5.37,0,0,0-1,1.84,7.47,7.47,0,0,0-.36,2.39,7.74,7.74,0,0,0,.4,2.59,5.57,5.57,0,0,0,1.1,1.91,4.67,4.67,0,0,0,1.67,1.19A5.38,5.38,0,0,0,155.48,126Z"/><path class="09b498f2-629e-4b27-9e55-952cb184770b" d="M170.21,115.88a6.61,6.61,0,0,1,2.35.4,5.1,5.1,0,0,1,1.83,1.17,5.34,5.34,0,0,1,1.2,1.88,6.94,6.94,0,0,1,.43,2.52,5.62,5.62,0,0,1,0,.72,1.14,1.14,0,0,1-.14.44.52.52,0,0,1-.27.23,1.25,1.25,0,0,1-.43.06H167.7a3.68,3.68,0,0,0,1,2.37,2.92,2.92,0,0,0,2.06.73,3.67,3.67,0,0,0,1.16-.16,5.82,5.82,0,0,0,.87-.36l.7-.36a1.45,1.45,0,0,1,.67-.16.8.8,0,0,1,.7.34l1.12,1.39a5.74,5.74,0,0,1-1.29,1.12,6.67,6.67,0,0,1-1.42.68,7.65,7.65,0,0,1-1.46.34,10.93,10.93,0,0,1-1.39.09,7.22,7.22,0,0,1-2.55-.45,5.87,5.87,0,0,1-2.08-1.32,6.25,6.25,0,0,1-1.41-2.18,8.2,8.2,0,0,1-.52-3,6.92,6.92,0,0,1,.44-2.47,6,6,0,0,1,3.28-3.44A6.58,6.58,0,0,1,170.21,115.88Zm.07,2.69a2.32,2.32,0,0,0-1.73.63,3.31,3.31,0,0,0-.82,1.83h4.83a3.49,3.49,0,0,0-.12-.9,2.2,2.2,0,0,0-.39-.78,2,2,0,0,0-.71-.56A2.4,2.4,0,0,0,170.29,118.56Z"/><path class="09b498f2-629e-4b27-9e55-952cb184770b" d="M182.78,129.3a4.53,4.53,0,0,1-1.63-.27,3.23,3.23,0,0,1-1.18-.77,3.29,3.29,0,0,1-.73-1.2,4.68,4.68,0,0,1-.25-1.57v-6.73h-1.1a.7.7,0,0,1-.72-.77v-1.52l2.06-.4.76-3.18a.77.77,0,0,1,.85-.6h2v3.8H186v2.66h-3.14v6.46a1.22,1.22,0,0,0,.22.75.74.74,0,0,0,.63.29,1.21,1.21,0,0,0,.36,0l.25-.1.2-.1a.51.51,0,0,1,.22,0,.45.45,0,0,1,.28.08,1,1,0,0,1,.22.26l1.17,1.85a5.33,5.33,0,0,1-1.68.85A6.64,6.64,0,0,1,182.78,129.3Z"/><path class="09b498f2-629e-4b27-9e55-952cb184770b" d="M206.57,110.8l-.42,3.24h-4.61l-1.84,15.05h-4L197.47,114h-4.64l.4-3.24Z"/><path class="09b498f2-629e-4b27-9e55-952cb184770b" d="M214,129.1h-2.07a1.68,1.68,0,0,1-.61-.09,1,1,0,0,1-.39-.26.92.92,0,0,1-.2-.39,2,2,0,0,1-.06-.49v-.93a6.68,6.68,0,0,1-1.77,1.73,3.87,3.87,0,0,1-2.14.63,3.34,3.34,0,0,1-1.35-.28,3.22,3.22,0,0,1-1.15-.85,4.25,4.25,0,0,1-.8-1.46,6.52,6.52,0,0,1-.3-2.09,8.86,8.86,0,0,1,.64-3.36,8.53,8.53,0,0,1,4.53-4.68,8.47,8.47,0,0,1,3.48-.7,14.27,14.27,0,0,1,1.87.13,9.22,9.22,0,0,1,1.87.45Zm-5.69-2.87a1.3,1.3,0,0,0,.82-.32,3.59,3.59,0,0,0,.75-.87,7.78,7.78,0,0,0,.66-1.29,12.22,12.22,0,0,0,.51-1.58l.45-3.6h-.22a3.53,3.53,0,0,0-1.73.43,4.24,4.24,0,0,0-1.34,1.16,5.49,5.49,0,0,0-.87,1.71,6.88,6.88,0,0,0-.31,2.08,4.9,4.9,0,0,0,.1,1.07,2.31,2.31,0,0,0,.27.71,1.1,1.1,0,0,0,.4.4A1,1,0,0,0,208.3,126.22Z"/><path class="09b498f2-629e-4b27-9e55-952cb184770b" d="M227.23,120a3.83,3.83,0,0,1-.22,1.37,10.39,10.39,0,0,1-.48,1.07q-.26.5-.48,1a3.24,3.24,0,0,0-.22,1.24,2.59,2.59,0,0,0,.17.95q.17.43.37.89t.37,1a3.63,3.63,0,0,1,.17,1.15,4.29,4.29,0,0,1-.44,1.9,4.62,4.62,0,0,1-1.26,1.57,6.28,6.28,0,0,1-2,1.07,8.74,8.74,0,0,1-2.74.4,8.84,8.84,0,0,1-2.26-.26,5.77,5.77,0,0,1-1.69-.72,3.37,3.37,0,0,1-1.07-1.07,2.55,2.55,0,0,1-.37-1.34,3,3,0,0,1,.56-1.84,4.09,4.09,0,0,1,1.43-1.18,6.73,6.73,0,0,1,1.93-.63,12.2,12.2,0,0,1,2.07-.18q.57,0,1.09.05a9.41,9.41,0,0,1,1,.14,1.89,1.89,0,0,1,0-.31v-.33a4.21,4.21,0,0,1,.34-1.52,4.1,4.1,0,0,1-1.12.51,5.55,5.55,0,0,1-1.56.19,4.09,4.09,0,0,1-1.41-.24,3.31,3.31,0,0,1-1.19-.75,3.64,3.64,0,0,1-.83-1.26A4.72,4.72,0,0,1,217,121a5.06,5.06,0,0,1,.37-1.89,4.79,4.79,0,0,1,1.1-1.64,5.46,5.46,0,0,1,1.81-1.16,6.62,6.62,0,0,1,2.51-.44,5.84,5.84,0,0,1,1.42.17,4.67,4.67,0,0,1,1.25.51h3.71l-.17,1.22a1.08,1.08,0,0,1-.72,1l-1.1.38A4.71,4.71,0,0,1,227.23,120Zm-3.84,9v-.15a.75.75,0,0,0,0-.14q-.64-.1-1.17-.15c-.35,0-.67-.05-1-.05a5.72,5.72,0,0,0-1.15.1,2.8,2.8,0,0,0-.79.27,1.14,1.14,0,0,0-.44.4.94.94,0,0,0-.14.48,1.1,1.1,0,0,0,.47,1,2.86,2.86,0,0,0,1.58.33,3.56,3.56,0,0,0,1.06-.15,2.55,2.55,0,0,0,.83-.42,2,2,0,0,0,.54-.65A1.82,1.82,0,0,0,223.39,128.92Zm-1.55-6.11a1.37,1.37,0,0,0,.8-.24,2,2,0,0,0,.57-.62,3.09,3.09,0,0,0,.35-.86,4,4,0,0,0,.12-1,2.09,2.09,0,0,0-.34-1.27,1.21,1.21,0,0,0-1-.45,1.46,1.46,0,0,0-.8.22,1.81,1.81,0,0,0-.57.58,2.79,2.79,0,0,0-.34.84,4.3,4.3,0,0,0-.11,1,2.2,2.2,0,0,0,.34,1.3A1.16,1.16,0,0,0,221.84,122.81Z"/><path class="09b498f2-629e-4b27-9e55-952cb184770b" d="M239.79,120a3.83,3.83,0,0,1-.22,1.37,10.39,10.39,0,0,1-.48,1.07q-.26.5-.48,1a3.24,3.24,0,0,0-.22,1.24,2.59,2.59,0,0,0,.17.95q.17.43.37.89t.37,1a3.63,3.63,0,0,1,.17,1.15,4.29,4.29,0,0,1-.44,1.9,4.62,4.62,0,0,1-1.26,1.57,6.28,6.28,0,0,1-2,1.07,8.74,8.74,0,0,1-2.74.4,8.84,8.84,0,0,1-2.26-.26,5.77,5.77,0,0,1-1.69-.72A3.37,3.37,0,0,1,228,131.5a2.55,2.55,0,0,1-.37-1.34,3,3,0,0,1,.56-1.84,4.09,4.09,0,0,1,1.43-1.18,6.73,6.73,0,0,1,1.93-.63,12.2,12.2,0,0,1,2.07-.18q.57,0,1.09.05a9.41,9.41,0,0,1,1,.14,1.89,1.89,0,0,1,0-.31v-.33a4.21,4.21,0,0,1,.34-1.52,4.1,4.1,0,0,1-1.12.51,5.55,5.55,0,0,1-1.56.19,4.09,4.09,0,0,1-1.41-.24,3.31,3.31,0,0,1-1.19-.75,3.64,3.64,0,0,1-.83-1.26,4.72,4.72,0,0,1-.31-1.8,5.06,5.06,0,0,1,.37-1.89,4.79,4.79,0,0,1,1.1-1.64,5.46,5.46,0,0,1,1.81-1.16,6.62,6.62,0,0,1,2.51-.44,5.84,5.84,0,0,1,1.42.17,4.67,4.67,0,0,1,1.25.51h3.71l-.17,1.22a1.08,1.08,0,0,1-.72,1l-1.1.38A4.71,4.71,0,0,1,239.79,120Zm-3.84,9v-.15a.75.75,0,0,0,0-.14q-.64-.1-1.17-.15c-.35,0-.67-.05-1-.05a5.72,5.72,0,0,0-1.15.1,2.8,2.8,0,0,0-.79.27,1.14,1.14,0,0,0-.44.4.94.94,0,0,0-.14.48,1.1,1.1,0,0,0,.47,1,2.86,2.86,0,0,0,1.58.33,3.56,3.56,0,0,0,1.06-.15,2.55,2.55,0,0,0,.83-.42,2,2,0,0,0,.54-.65A1.82,1.82,0,0,0,236,128.92Zm-1.55-6.11a1.37,1.37,0,0,0,.8-.24,2,2,0,0,0,.57-.62,3.09,3.09,0,0,0,.35-.86,4,4,0,0,0,.12-1,2.09,2.09,0,0,0-.34-1.27,1.21,1.21,0,0,0-1-.45,1.46,1.46,0,0,0-.8.22,1.81,1.81,0,0,0-.57.58,2.79,2.79,0,0,0-.34.84,4.3,4.3,0,0,0-.11,1,2.2,2.2,0,0,0,.34,1.3A1.16,1.16,0,0,0,234.41,122.81Z"/><path class="09b498f2-629e-4b27-9e55-952cb184770b" d="M253,119.28a3.78,3.78,0,0,1-.35,1.63,3.28,3.28,0,0,1-1.22,1.31,8.23,8.23,0,0,1-2.33,1,23.17,23.17,0,0,1-3.68.63,2.93,2.93,0,0,0,.58,1.95,2.09,2.09,0,0,0,1.64.62,3.9,3.9,0,0,0,.88-.09,3.06,3.06,0,0,0,.65-.23,4.32,4.32,0,0,0,.5-.29l.43-.29a2.23,2.23,0,0,1,.43-.23,1.4,1.4,0,0,1,.51-.09.76.76,0,0,1,.36.09,1.18,1.18,0,0,1,.31.25l1,1.17a13.75,13.75,0,0,1-1.34,1.17,7.31,7.31,0,0,1-1.35.82,6.37,6.37,0,0,1-1.47.47,9,9,0,0,1-1.7.15,5.49,5.49,0,0,1-2.11-.4,4.78,4.78,0,0,1-1.65-1.12A5,5,0,0,1,242,126a6.4,6.4,0,0,1-.38-2.26,8.92,8.92,0,0,1,.23-2,8.63,8.63,0,0,1,.66-1.86,7.81,7.81,0,0,1,1.05-1.61A6.94,6.94,0,0,1,245,117a6.61,6.61,0,0,1,1.71-.82,6.5,6.5,0,0,1,2-.29,5.22,5.22,0,0,1,1.84.3,4.32,4.32,0,0,1,1.35.78,3.38,3.38,0,0,1,.84,1.09A2.79,2.79,0,0,1,253,119.28Zm-4.54-.75a2.24,2.24,0,0,0-1.68.77,4.9,4.9,0,0,0-1.08,2.12,17.89,17.89,0,0,0,2-.4,4.86,4.86,0,0,0,1.16-.45,1.39,1.39,0,0,0,.55-.53,1.32,1.32,0,0,0,.14-.61.93.93,0,0,0-.25-.62A1,1,0,0,0,248.45,118.53Z"/><path class="09b498f2-629e-4b27-9e55-952cb184770b" d="M262.74,129.1a1.68,1.68,0,0,1-.6-.09,1,1,0,0,1-.39-.26.9.9,0,0,1-.2-.39,2,2,0,0,1-.06-.49v-1.09a7.34,7.34,0,0,1-2,1.85,4.23,4.23,0,0,1-2.28.67,3.67,3.67,0,0,1-1.46-.28,2.91,2.91,0,0,1-1.14-.89,4.38,4.38,0,0,1-.75-1.54,8.2,8.2,0,0,1-.27-2.24,10.23,10.23,0,0,1,.24-2.2,10.35,10.35,0,0,1,.66-2,9.15,9.15,0,0,1,1-1.73,7.2,7.2,0,0,1,1.29-1.34,5.93,5.93,0,0,1,1.49-.87,4.33,4.33,0,0,1,1.62-.31,3.68,3.68,0,0,1,1.44.27,4,4,0,0,1,1.13.71l.82-6.55h3.79l-2.32,18.79Zm-3.94-2.76a1.45,1.45,0,0,0,.83-.3,3.89,3.89,0,0,0,.84-.83,7.38,7.38,0,0,0,.75-1.24,10.2,10.2,0,0,0,.6-1.53l.4-3.16a2.27,2.27,0,0,0-.8-.41,3.09,3.09,0,0,0-.84-.13,2,2,0,0,0-1.24.45,4,4,0,0,0-1,1.19,6.66,6.66,0,0,0-.64,1.68,8.07,8.07,0,0,0-.23,1.92,3.42,3.42,0,0,0,.36,1.8A1.1,1.1,0,0,0,258.8,126.33Z"/><path class="09b498f2-629e-4b27-9e55-952cb184770b" d="M269.43,127.12a2.1,2.1,0,0,1,.17-.84,2.13,2.13,0,0,1,.46-.68,2.2,2.2,0,0,1,1.56-.63,2.18,2.18,0,0,1,.86.17,2.27,2.27,0,0,1,.7.46,2.07,2.07,0,0,1,.47.68,2.1,2.1,0,0,1,.17.84,2.14,2.14,0,0,1-.17.85,2.05,2.05,0,0,1-.47.68,2.17,2.17,0,0,1-.7.45,2.26,2.26,0,0,1-.86.16,2.29,2.29,0,0,1-.87-.16A2.08,2.08,0,0,1,269.6,128,2.14,2.14,0,0,1,269.43,127.12Zm4-16.32V118a19,19,0,0,1-.14,2.29q-.14,1.14-.36,2.32h-2.62q-.22-1.18-.36-2.32a19,19,0,0,1-.14-2.29V110.8Z"/></g><path class="09b498f2-629e-4b27-9e55-952cb184770b" d="M51,142.16a.15.15,0,0,1,.11,0l.28.31a2.3,2.3,0,0,1-.8.6,2.72,2.72,0,0,1-1.13.21,2.64,2.64,0,0,1-1.05-.2,2.29,2.29,0,0,1-.8-.56,2.55,2.55,0,0,1-.52-.87,3.27,3.27,0,0,1-.18-1.12,3.08,3.08,0,0,1,.2-1.12,2.55,2.55,0,0,1,.55-.87,2.47,2.47,0,0,1,.85-.57,2.89,2.89,0,0,1,1.09-.2,2.43,2.43,0,0,1,1.78.69l-.24.33-.06.06a.16.16,0,0,1-.1,0,.18.18,0,0,1-.1,0l-.13-.09-.18-.11-.24-.11-.32-.09a2.18,2.18,0,0,0-.42,0,2,2,0,0,0-.79.15,1.76,1.76,0,0,0-.62.42,1.93,1.93,0,0,0-.4.67,2.56,2.56,0,0,0-.14.88,2.61,2.61,0,0,0,.14.9,2,2,0,0,0,.39.67,1.67,1.67,0,0,0,.59.42,1.87,1.87,0,0,0,.73.14,3,3,0,0,0,.43,0,1.81,1.81,0,0,0,.35-.09,1.49,1.49,0,0,0,.3-.15,2.34,2.34,0,0,0,.28-.22A.19.19,0,0,1,51,142.16Z"/><path class="09b498f2-629e-4b27-9e55-952cb184770b" d="M53.72,139.4a1.69,1.69,0,0,1,.63.11,1.42,1.42,0,0,1,.5.33,1.51,1.51,0,0,1,.33.53,2.08,2.08,0,0,1,.12.73.44.44,0,0,1,0,.21.14.14,0,0,1-.13.05H52.61a2.13,2.13,0,0,0,.1.63,1.29,1.29,0,0,0,.25.45,1,1,0,0,0,.37.27,1.27,1.27,0,0,0,.49.09,1.41,1.41,0,0,0,.43-.06l.31-.13.22-.13a.29.29,0,0,1,.15-.06.15.15,0,0,1,.13.06l.19.24a1.25,1.25,0,0,1-.3.26,1.79,1.79,0,0,1-.37.18,2.28,2.28,0,0,1-.41.11,2.4,2.4,0,0,1-.42,0,1.92,1.92,0,0,1-.72-.13,1.59,1.59,0,0,1-.57-.39,1.79,1.79,0,0,1-.38-.64,2.61,2.61,0,0,1-.13-.87,2.24,2.24,0,0,1,.12-.75,1.77,1.77,0,0,1,.35-.6,1.6,1.6,0,0,1,.56-.4A1.82,1.82,0,0,1,53.72,139.4Zm0,.49a1,1,0,0,0-.76.28,1.33,1.33,0,0,0-.34.78h2.06a1.38,1.38,0,0,0-.06-.43,1,1,0,0,0-.19-.33.84.84,0,0,0-.3-.22A1,1,0,0,0,53.73,139.9Z"/><path class="09b498f2-629e-4b27-9e55-952cb184770b" d="M56.88,137.73v5.55h-.67v-5.55Z"/><path class="09b498f2-629e-4b27-9e55-952cb184770b" d="M58,140a.48.48,0,0,1,0-.18.45.45,0,0,1,.25-.25.47.47,0,0,1,.37,0,.5.5,0,0,1,.15.1.45.45,0,0,1,.1.15.47.47,0,0,1,0,.18.47.47,0,0,1,0,.19.46.46,0,0,1-.1.15.48.48,0,0,1-.15.1.48.48,0,0,1-.37,0,.45.45,0,0,1-.15-.1.49.49,0,0,1-.1-.15A.48.48,0,0,1,58,140Zm0,2.83a.49.49,0,0,1,0-.18.47.47,0,0,1,.1-.15.47.47,0,0,1,.51-.1.48.48,0,0,1,.15.1.45.45,0,0,1,.1.15.5.5,0,0,1,0,.37.46.46,0,0,1-.1.15.45.45,0,0,1-.15.1.48.48,0,0,1-.37,0,.43.43,0,0,1-.15-.1.47.47,0,0,1-.13-.33Z"/><path class="09b498f2-629e-4b27-9e55-952cb184770b" d="M63.27,138.89v1.61h1.52V141H63.27v1.62h-.55V141H61.21v-.51h1.51v-1.61Z"/><path class="09b498f2-629e-4b27-9e55-952cb184770b" d="M67.42,137.82a2,2,0,0,1,.64.1,1.48,1.48,0,0,1,.51.3,1.39,1.39,0,0,1,.34.47,1.55,1.55,0,0,1,.12.63,1.69,1.69,0,0,1-.09.56,2.32,2.32,0,0,1-.24.49,3.66,3.66,0,0,1-.35.46l-.42.45-1.41,1.45.3-.07.3,0h1.8a.23.23,0,0,1,.17.06.23.23,0,0,1,.06.17v.41H65.56V143a.43.43,0,0,1,0-.15.38.38,0,0,1,.09-.14L67.4,141l.39-.42a3.08,3.08,0,0,0,.3-.41,1.89,1.89,0,0,0,.19-.41,1.45,1.45,0,0,0,.07-.45,1.07,1.07,0,0,0-.08-.42.81.81,0,0,0-.21-.3.88.88,0,0,0-.31-.17,1.19,1.19,0,0,0-.38-.06,1.13,1.13,0,0,0-.37.06,1,1,0,0,0-.53.42,1,1,0,0,0-.13.32.3.3,0,0,1-.09.16.24.24,0,0,1-.16,0H66l-.35-.06a2,2,0,0,1,.2-.65,1.56,1.56,0,0,1,.38-.48,1.62,1.62,0,0,1,.53-.29A2,2,0,0,1,67.42,137.82Z"/><path class="09b498f2-629e-4b27-9e55-952cb184770b" d="M73.17,138.17a.33.33,0,0,1-.09.24.41.41,0,0,1-.3.09H71.09l-.25,1.42a3.66,3.66,0,0,1,.77-.09,2,2,0,0,1,.74.12,1.52,1.52,0,0,1,.54.34,1.42,1.42,0,0,1,.33.52,1.85,1.85,0,0,1,.11.65,1.94,1.94,0,0,1-.15.78,1.76,1.76,0,0,1-1,1,2.14,2.14,0,0,1-.76.13,2.07,2.07,0,0,1-.45,0,2.26,2.26,0,0,1-.4-.13,2.34,2.34,0,0,1-.35-.18,2,2,0,0,1-.28-.21l.2-.29a.21.21,0,0,1,.18-.1.33.33,0,0,1,.17.06l.23.13a1.92,1.92,0,0,0,.32.13,1.41,1.41,0,0,0,.43.06,1.34,1.34,0,0,0,.5-.09,1.08,1.08,0,0,0,.38-.26,1.15,1.15,0,0,0,.25-.4,1.51,1.51,0,0,0,.09-.52,1.34,1.34,0,0,0-.07-.46.9.9,0,0,0-.22-.35,1,1,0,0,0-.37-.22,1.53,1.53,0,0,0-.52-.08,2.73,2.73,0,0,0-.42,0,2.82,2.82,0,0,0-.45.11l-.42-.12.43-2.52h2.54Z"/><path class="09b498f2-629e-4b27-9e55-952cb184770b" d="M76,143.34a2.39,2.39,0,0,1-.73-.11,1.68,1.68,0,0,1-.57-.31,1.36,1.36,0,0,1-.37-.48,1.51,1.51,0,0,1-.13-.64,1.33,1.33,0,0,1,.27-.86,1.47,1.47,0,0,1,.77-.48,1.23,1.23,0,0,1-.85-1.22,1.34,1.34,0,0,1,.45-1,1.55,1.55,0,0,1,.51-.3,2.06,2.06,0,0,1,1.33,0,1.54,1.54,0,0,1,.51.3,1.34,1.34,0,0,1,.44,1,1.29,1.29,0,0,1-.22.75,1.3,1.3,0,0,1-.64.47,1.47,1.47,0,0,1,.77.48,1.33,1.33,0,0,1,.27.86,1.49,1.49,0,0,1-.13.64,1.39,1.39,0,0,1-.37.48,1.66,1.66,0,0,1-.57.31A2.39,2.39,0,0,1,76,143.34Zm0-.54a1.41,1.41,0,0,0,.47-.07,1,1,0,0,0,.35-.21.9.9,0,0,0,.22-.32,1.08,1.08,0,0,0,.08-.41,1.13,1.13,0,0,0-.09-.48.88.88,0,0,0-.25-.32,1,1,0,0,0-.36-.18,1.55,1.55,0,0,0-.85,0,1,1,0,0,0-.36.18.88.88,0,0,0-.25.32,1.12,1.12,0,0,0-.09.48,1.07,1.07,0,0,0,.08.41.9.9,0,0,0,.22.32,1,1,0,0,0,.35.21A1.4,1.4,0,0,0,76,142.8Zm0-2.59a1.12,1.12,0,0,0,.45-.08.81.81,0,0,0,.47-.52,1.24,1.24,0,0,0,.05-.36,1,1,0,0,0-.06-.35.83.83,0,0,0-.18-.29.86.86,0,0,0-.3-.2,1.28,1.28,0,0,0-.84,0,.86.86,0,0,0-.3.2.82.82,0,0,0-.18.29,1,1,0,0,0-.06.35,1.22,1.22,0,0,0,.05.36.81.81,0,0,0,.47.52A1.12,1.12,0,0,0,76,140.21Z"/><path class="09b498f2-629e-4b27-9e55-952cb184770b" d="M81.8,143.34a2.39,2.39,0,0,1-.73-.11,1.68,1.68,0,0,1-.57-.31,1.36,1.36,0,0,1-.37-.48,1.51,1.51,0,0,1-.13-.64,1.33,1.33,0,0,1,.27-.86,1.47,1.47,0,0,1,.77-.48,1.23,1.23,0,0,1-.85-1.22,1.34,1.34,0,0,1,.45-1,1.55,1.55,0,0,1,.51-.3,2.06,2.06,0,0,1,1.33,0,1.54,1.54,0,0,1,.51.3,1.34,1.34,0,0,1,.44,1,1.29,1.29,0,0,1-.22.75,1.3,1.3,0,0,1-.64.47,1.47,1.47,0,0,1,.77.48,1.33,1.33,0,0,1,.27.86,1.49,1.49,0,0,1-.13.64,1.39,1.39,0,0,1-.37.48,1.66,1.66,0,0,1-.57.31A2.39,2.39,0,0,1,81.8,143.34Zm0-.54a1.41,1.41,0,0,0,.47-.07,1,1,0,0,0,.35-.21.9.9,0,0,0,.22-.32,1.08,1.08,0,0,0,.08-.41,1.13,1.13,0,0,0-.09-.48.88.88,0,0,0-.25-.32,1,1,0,0,0-.36-.18,1.55,1.55,0,0,0-.85,0A1,1,0,0,0,81,141a.88.88,0,0,0-.25.32,1.12,1.12,0,0,0-.09.48,1.07,1.07,0,0,0,.08.41.9.9,0,0,0,.22.32,1,1,0,0,0,.35.21A1.4,1.4,0,0,0,81.8,142.8Zm0-2.59a1.12,1.12,0,0,0,.45-.08.81.81,0,0,0,.47-.52,1.24,1.24,0,0,0,.05-.36,1,1,0,0,0-.06-.35.83.83,0,0,0-.18-.29.86.86,0,0,0-.3-.2,1.28,1.28,0,0,0-.84,0,.86.86,0,0,0-.3.2.82.82,0,0,0-.18.29,1,1,0,0,0-.06.35,1.22,1.22,0,0,0,.05.36.81.81,0,0,0,.47.52A1.12,1.12,0,0,0,81.8,140.21Z"/><path class="09b498f2-629e-4b27-9e55-952cb184770b" d="M87.35,141.33h.81v.38a.15.15,0,0,1,0,.1.14.14,0,0,1-.11,0h-.67v1.42h-.59v-1.42H84.39a.2.2,0,0,1-.13,0,.19.19,0,0,1-.07-.11l-.07-.34,2.61-3.48h.62Zm-.59-2.23c0-.07,0-.14,0-.21a2.23,2.23,0,0,1,0-.23l-1.95,2.67h1.92Z"/><path class="09b498f2-629e-4b27-9e55-952cb184770b" d="M88.91,143.36a.39.39,0,0,1-.16.2.4.4,0,0,1-.21.06h-.28L90.51,138a.41.41,0,0,1,.14-.18.36.36,0,0,1,.21-.06h.28Z"/><path class="09b498f2-629e-4b27-9e55-952cb184770b" d="M93.27,143.34a2.39,2.39,0,0,1-.73-.11,1.68,1.68,0,0,1-.57-.31,1.36,1.36,0,0,1-.37-.48,1.51,1.51,0,0,1-.13-.64,1.33,1.33,0,0,1,.27-.86,1.47,1.47,0,0,1,.77-.48,1.23,1.23,0,0,1-.85-1.22,1.34,1.34,0,0,1,.45-1,1.55,1.55,0,0,1,.51-.3,2.06,2.06,0,0,1,1.33,0,1.54,1.54,0,0,1,.51.3,1.34,1.34,0,0,1,.44,1,1.29,1.29,0,0,1-.22.75,1.3,1.3,0,0,1-.64.47,1.47,1.47,0,0,1,.77.48,1.33,1.33,0,0,1,.27.86,1.49,1.49,0,0,1-.13.64,1.39,1.39,0,0,1-.37.48,1.66,1.66,0,0,1-.57.31A2.39,2.39,0,0,1,93.27,143.34Zm0-.54a1.41,1.41,0,0,0,.47-.07,1,1,0,0,0,.35-.21.9.9,0,0,0,.22-.32,1.08,1.08,0,0,0,.08-.41,1.13,1.13,0,0,0-.09-.48A.88.88,0,0,0,94,141a1,1,0,0,0-.36-.18,1.55,1.55,0,0,0-.85,0,1,1,0,0,0-.36.18.88.88,0,0,0-.25.32,1.12,1.12,0,0,0-.09.48,1.07,1.07,0,0,0,.08.41.9.9,0,0,0,.22.32,1,1,0,0,0,.35.21A1.4,1.4,0,0,0,93.27,142.8Zm0-2.59a1.12,1.12,0,0,0,.45-.08.81.81,0,0,0,.47-.52,1.24,1.24,0,0,0,.05-.36,1,1,0,0,0-.06-.35.83.83,0,0,0-.18-.29.86.86,0,0,0-.3-.2,1.28,1.28,0,0,0-.84,0,.86.86,0,0,0-.3.2.82.82,0,0,0-.18.29,1,1,0,0,0-.06.35,1.22,1.22,0,0,0,.05.36.81.81,0,0,0,.47.52A1.12,1.12,0,0,0,93.27,140.21Z"/><path class="09b498f2-629e-4b27-9e55-952cb184770b" d="M99.49,137.88v.3a.65.65,0,0,1,0,.21.94.94,0,0,1-.06.14L97.19,143a.5.5,0,0,1-.13.17.36.36,0,0,1-.23.07h-.48l2.25-4.45.1-.17.11-.15H96a.16.16,0,0,1-.11-.05.16.16,0,0,1-.05-.12v-.46Z"/><path class="09b498f2-629e-4b27-9e55-952cb184770b" d="M103.39,143.34a2.39,2.39,0,0,1-.73-.11,1.68,1.68,0,0,1-.57-.31,1.36,1.36,0,0,1-.37-.48,1.51,1.51,0,0,1-.13-.64,1.33,1.33,0,0,1,.27-.86,1.47,1.47,0,0,1,.77-.48,1.23,1.23,0,0,1-.85-1.22,1.34,1.34,0,0,1,.45-1,1.55,1.55,0,0,1,.51-.3,2.06,2.06,0,0,1,1.33,0,1.54,1.54,0,0,1,.51.3,1.34,1.34,0,0,1,.44,1,1.29,1.29,0,0,1-.22.75,1.3,1.3,0,0,1-.64.47,1.47,1.47,0,0,1,.77.48,1.33,1.33,0,0,1,.27.86,1.49,1.49,0,0,1-.13.64,1.39,1.39,0,0,1-.37.48,1.66,1.66,0,0,1-.57.31A2.39,2.39,0,0,1,103.39,143.34Zm0-.54a1.41,1.41,0,0,0,.47-.07,1,1,0,0,0,.35-.21.9.9,0,0,0,.22-.32,1.08,1.08,0,0,0,.08-.41,1.13,1.13,0,0,0-.09-.48.88.88,0,0,0-.25-.32,1,1,0,0,0-.36-.18,1.55,1.55,0,0,0-.85,0,1,1,0,0,0-.36.18.88.88,0,0,0-.25.32,1.12,1.12,0,0,0-.09.48,1.07,1.07,0,0,0,.08.41.9.9,0,0,0,.22.32,1,1,0,0,0,.35.21A1.4,1.4,0,0,0,103.39,142.8Zm0-2.59a1.12,1.12,0,0,0,.45-.08.81.81,0,0,0,.47-.52,1.24,1.24,0,0,0,.05-.36,1,1,0,0,0-.06-.35.83.83,0,0,0-.18-.29.86.86,0,0,0-.3-.2,1.28,1.28,0,0,0-.84,0,.86.86,0,0,0-.3.2.82.82,0,0,0-.18.29,1,1,0,0,0-.06.35,1.22,1.22,0,0,0,.05.36.81.81,0,0,0,.47.52A1.12,1.12,0,0,0,103.39,140.21Z"/><path class="09b498f2-629e-4b27-9e55-952cb184770b" d="M109.61,137.88v.3a.65.65,0,0,1,0,.21.94.94,0,0,1-.06.14L107.31,143a.5.5,0,0,1-.13.17.36.36,0,0,1-.23.07h-.48l2.25-4.45.1-.17.11-.15h-2.8a.16.16,0,0,1-.11-.05.16.16,0,0,1-.05-.12v-.46Z"/><path class="09b498f2-629e-4b27-9e55-952cb184770b" d="M112,141.06a1.61,1.61,0,0,1-.57-.1,1.37,1.37,0,0,1-.48-.3,1.44,1.44,0,0,1-.33-.49,1.8,1.8,0,0,1,0-1.32,1.64,1.64,0,0,1,.37-.54,1.71,1.71,0,0,1,.56-.36,1.88,1.88,0,0,1,.71-.13,1.84,1.84,0,0,1,.7.13,1.55,1.55,0,0,1,.88.91,2,2,0,0,1,.12.71,2.22,2.22,0,0,1,0,.44,2.3,2.3,0,0,1-.13.41,3.33,3.33,0,0,1-.2.4q-.11.2-.26.41l-1.31,1.9a.35.35,0,0,1-.14.12.48.48,0,0,1-.21,0H111l1.63-2.15.15-.21.13-.2a1.47,1.47,0,0,1-.46.25A1.71,1.71,0,0,1,112,141.06Zm1.34-1.58a1.24,1.24,0,0,0-.08-.46,1,1,0,0,0-.22-.35,1,1,0,0,0-.34-.22,1.16,1.16,0,0,0-.43-.08,1.2,1.2,0,0,0-.45.08,1,1,0,0,0-.35.22,1,1,0,0,0-.22.34,1.18,1.18,0,0,0-.08.44,1.34,1.34,0,0,0,.07.46.93.93,0,0,0,.21.34.88.88,0,0,0,.33.21,1.27,1.27,0,0,0,.44.07,1.2,1.2,0,0,0,.48-.09,1,1,0,0,0,.35-.24,1,1,0,0,0,.22-.34A1.09,1.09,0,0,0,113.29,139.48Z"/><path class="09b498f2-629e-4b27-9e55-952cb184770b" d="M118.35,140.58a4.39,4.39,0,0,1-.15,1.23,2.56,2.56,0,0,1-.41.86,1.66,1.66,0,0,1-.62.5,1.8,1.8,0,0,1-.77.17,1.78,1.78,0,0,1-.76-.17,1.66,1.66,0,0,1-.62-.5,2.53,2.53,0,0,1-.41-.86,5.11,5.11,0,0,1,0-2.45,2.56,2.56,0,0,1,.41-.86,1.66,1.66,0,0,1,.62-.51,1.78,1.78,0,0,1,.76-.17,1.8,1.8,0,0,1,.77.17,1.66,1.66,0,0,1,.62.51,2.6,2.6,0,0,1,.41.86A4.4,4.4,0,0,1,118.35,140.58Zm-.69,0a4.43,4.43,0,0,0-.1-1,2.09,2.09,0,0,0-.28-.68,1,1,0,0,0-.4-.37,1.07,1.07,0,0,0-1,0,1,1,0,0,0-.4.37,2.12,2.12,0,0,0-.27.68,5.27,5.27,0,0,0,0,2.07,2.11,2.11,0,0,0,.27.67,1,1,0,0,0,.4.37,1.08,1.08,0,0,0,1,0,1.06,1.06,0,0,0,.4-.37,2.09,2.09,0,0,0,.28-.67A4.4,4.4,0,0,0,117.66,140.58Z"/><path class="09b498f2-629e-4b27-9e55-952cb184770b" d="M120.82,137.82a2,2,0,0,1,.64.1,1.48,1.48,0,0,1,.51.3,1.39,1.39,0,0,1,.34.47,1.55,1.55,0,0,1,.12.63,1.69,1.69,0,0,1-.09.56,2.32,2.32,0,0,1-.24.49,3.66,3.66,0,0,1-.35.46l-.42.45-1.41,1.45.3-.07.3,0h1.8a.23.23,0,0,1,.17.06.23.23,0,0,1,.06.17v.41H119V143a.43.43,0,0,1,0-.15.38.38,0,0,1,.09-.14L120.8,141l.39-.42a3.08,3.08,0,0,0,.3-.41,1.89,1.89,0,0,0,.19-.41,1.45,1.45,0,0,0,.07-.45,1.07,1.07,0,0,0-.08-.42.81.81,0,0,0-.21-.3.88.88,0,0,0-.31-.17,1.19,1.19,0,0,0-.38-.06,1.13,1.13,0,0,0-.37.06,1,1,0,0,0-.53.42,1,1,0,0,0-.13.32.3.3,0,0,1-.09.16.24.24,0,0,1-.16,0h-.09l-.35-.06a2,2,0,0,1,.2-.65,1.56,1.56,0,0,1,.38-.48,1.62,1.62,0,0,1,.53-.29A2,2,0,0,1,120.82,137.82Z"/><path class="09b498f2-629e-4b27-9e55-952cb184770b" d="M124,142.77h1.15v-3.68c0-.11,0-.22,0-.33l-1,.82-.07,0H124l-.1,0-.07-.06-.21-.29,1.59-1.39h.54v4.9h1.06v.51H124Z"/><path class="09b498f2-629e-4b27-9e55-952cb184770b" d="M130.91,138.17a.33.33,0,0,1-.09.24.41.41,0,0,1-.3.09h-1.68l-.25,1.42a3.66,3.66,0,0,1,.77-.09,2,2,0,0,1,.74.12,1.52,1.52,0,0,1,.54.34,1.42,1.42,0,0,1,.33.52,1.85,1.85,0,0,1,.11.65,1.94,1.94,0,0,1-.15.78,1.76,1.76,0,0,1-1,1,2.14,2.14,0,0,1-.76.13,2.07,2.07,0,0,1-.45,0,2.26,2.26,0,0,1-.4-.13,2.34,2.34,0,0,1-.35-.18,2,2,0,0,1-.28-.21l.2-.29a.21.21,0,0,1,.18-.1.33.33,0,0,1,.17.06l.23.13a1.92,1.92,0,0,0,.32.13,1.41,1.41,0,0,0,.43.06,1.34,1.34,0,0,0,.5-.09,1.08,1.08,0,0,0,.38-.26,1.15,1.15,0,0,0,.25-.4,1.51,1.51,0,0,0,.09-.52,1.34,1.34,0,0,0-.07-.46.9.9,0,0,0-.22-.35,1,1,0,0,0-.37-.22,1.53,1.53,0,0,0-.52-.08,2.73,2.73,0,0,0-.42,0,2.82,2.82,0,0,0-.45.11l-.42-.12.43-2.52h2.54Z"/><path class="09b498f2-629e-4b27-9e55-952cb184770b" d="M50.5,146.92v.59H47.93v1.79H50v.57H47.93v1.84H50.5v.59H47.2v-5.4Z"/><path class="09b498f2-629e-4b27-9e55-952cb184770b" d="M51.44,152.31V148.5h.4a.17.17,0,0,1,.18.14l0,.39a2,2,0,0,1,.47-.43,1.1,1.1,0,0,1,.6-.17.89.89,0,0,1,.62.21,1.21,1.21,0,0,1,.34.58,1.2,1.2,0,0,1,.21-.36,1.19,1.19,0,0,1,.29-.25,1.22,1.22,0,0,1,.34-.14,1.51,1.51,0,0,1,.37,0,1.4,1.4,0,0,1,.53.1,1.06,1.06,0,0,1,.4.28,1.26,1.26,0,0,1,.25.45,2,2,0,0,1,.09.62v2.43h-.67v-2.43a1,1,0,0,0-.19-.68.69.69,0,0,0-.56-.23.84.84,0,0,0-.31.06.75.75,0,0,0-.26.17.81.81,0,0,0-.18.28,1.11,1.11,0,0,0-.07.4v2.43h-.67v-2.43a1.07,1.07,0,0,0-.18-.69.65.65,0,0,0-.54-.23.84.84,0,0,0-.46.13,1.53,1.53,0,0,0-.39.36v2.84Z"/><path class="09b498f2-629e-4b27-9e55-952cb184770b" d="M60.36,152.31h-.3a.34.34,0,0,1-.16,0,.16.16,0,0,1-.08-.13l-.07-.35-.29.24a1.61,1.61,0,0,1-.3.18,1.51,1.51,0,0,1-.33.11,1.89,1.89,0,0,1-.39,0,1.35,1.35,0,0,1-.41-.06,1,1,0,0,1-.33-.19.89.89,0,0,1-.23-.32,1.11,1.11,0,0,1-.08-.45.85.85,0,0,1,.12-.44,1.09,1.09,0,0,1,.4-.37,2.58,2.58,0,0,1,.72-.27,4.86,4.86,0,0,1,1.09-.1v-.3a1,1,0,0,0-.19-.68A.68.68,0,0,0,59,149a1.19,1.19,0,0,0-.41.06,1.51,1.51,0,0,0-.29.14l-.21.14a.3.3,0,0,1-.17.06.19.19,0,0,1-.12,0,.27.27,0,0,1-.08-.09l-.12-.21a2.17,2.17,0,0,1,.68-.46,2.07,2.07,0,0,1,.8-.15,1.42,1.42,0,0,1,.56.11,1.16,1.16,0,0,1,.42.29,1.25,1.25,0,0,1,.25.46,1.91,1.91,0,0,1,.09.59Zm-1.73-.41a1.37,1.37,0,0,0,.32,0,1.23,1.23,0,0,0,.27-.1,1.46,1.46,0,0,0,.25-.16,2.13,2.13,0,0,0,.23-.21v-.79a4.44,4.44,0,0,0-.78.06,2.19,2.19,0,0,0-.52.15.73.73,0,0,0-.29.22.48.48,0,0,0-.09.29.65.65,0,0,0,0,.26.5.5,0,0,0,.13.18.51.51,0,0,0,.19.1A.88.88,0,0,0,58.64,151.9Z"/><path class="09b498f2-629e-4b27-9e55-952cb184770b" d="M62.26,147.3a.43.43,0,0,1,0,.18.53.53,0,0,1-.1.15.48.48,0,0,1-.15.1.45.45,0,0,1-.18,0,.44.44,0,0,1-.18,0,.48.48,0,0,1-.15-.1.5.5,0,0,1-.1-.15.45.45,0,0,1,0-.18.48.48,0,0,1,0-.19.49.49,0,0,1,.1-.15.5.5,0,0,1,.15-.1.44.44,0,0,1,.18,0,.45.45,0,0,1,.18,0,.49.49,0,0,1,.15.1.52.52,0,0,1,.1.15A.45.45,0,0,1,62.26,147.3Zm-.15,1.2v3.82h-.67V148.5Z"/><path class="09b498f2-629e-4b27-9e55-952cb184770b" d="M64,146.77v5.55h-.67v-5.55Z"/><path class="09b498f2-629e-4b27-9e55-952cb184770b" d="M65.14,149.08a.48.48,0,0,1,0-.18.45.45,0,0,1,.25-.25.47.47,0,0,1,.37,0,.5.5,0,0,1,.15.1.45.45,0,0,1,.1.15.47.47,0,0,1,0,.18.47.47,0,0,1,0,.19.46.46,0,0,1-.1.15.48.48,0,0,1-.15.1.48.48,0,0,1-.37,0,.45.45,0,0,1-.15-.1.49.49,0,0,1-.1-.15A.48.48,0,0,1,65.14,149.08Zm0,2.83a.49.49,0,0,1,0-.18.47.47,0,0,1,.1-.15.47.47,0,0,1,.51-.1.48.48,0,0,1,.15.1.45.45,0,0,1,.1.15.5.5,0,0,1,0,.37.46.46,0,0,1-.1.15.45.45,0,0,1-.15.1.48.48,0,0,1-.37,0,.43.43,0,0,1-.15-.1.47.47,0,0,1-.13-.33Z"/><path class="09b498f2-629e-4b27-9e55-952cb184770b" d="M69.42,147.3a.43.43,0,0,1,0,.18.53.53,0,0,1-.1.15.48.48,0,0,1-.15.1.45.45,0,0,1-.18,0,.44.44,0,0,1-.18,0,.48.48,0,0,1-.15-.1.5.5,0,0,1-.1-.15.45.45,0,0,1,0-.18.48.48,0,0,1,0-.19.49.49,0,0,1,.1-.15.5.5,0,0,1,.15-.1.44.44,0,0,1,.18,0,.45.45,0,0,1,.18,0,.49.49,0,0,1,.15.1.52.52,0,0,1,.1.15A.45.45,0,0,1,69.42,147.3Zm-.15,1.2v3.82h-.67V148.5Z"/><path class="09b498f2-629e-4b27-9e55-952cb184770b" d="M70.45,152.31V148.5h.4a.17.17,0,0,1,.18.14l.05.41a2.15,2.15,0,0,1,.55-.44,1.43,1.43,0,0,1,.71-.17,1.35,1.35,0,0,1,.55.1,1.06,1.06,0,0,1,.4.29,1.29,1.29,0,0,1,.24.46,2,2,0,0,1,.08.59v2.43h-.67v-2.43a1,1,0,0,0-.2-.67.73.73,0,0,0-.6-.24,1.11,1.11,0,0,0-.55.14,1.82,1.82,0,0,0-.47.39v2.81Z"/><path class="09b498f2-629e-4b27-9e55-952cb184770b" d="M74.76,152.31v-3.24l-.42,0a.32.32,0,0,1-.13-.06.14.14,0,0,1-.05-.12v-.27h.6v-.37a1.71,1.71,0,0,1,.09-.58,1.18,1.18,0,0,1,.26-.43,1.12,1.12,0,0,1,.41-.27,1.53,1.53,0,0,1,.54-.09,1.41,1.41,0,0,1,.47.08l0,.33a.09.09,0,0,1-.06.09h-.28a1,1,0,0,0-.31,0,.59.59,0,0,0-.24.15.66.66,0,0,0-.16.27,1.33,1.33,0,0,0-.05.41v.35h1.1v.49H75.43v3.25Z"/><path class="09b498f2-629e-4b27-9e55-952cb184770b" d="M78.66,148.44a1.94,1.94,0,0,1,.75.14,1.6,1.6,0,0,1,.57.4,1.76,1.76,0,0,1,.36.62,2.7,2.7,0,0,1,0,1.63,1.76,1.76,0,0,1-.36.62,1.56,1.56,0,0,1-.57.39,2.11,2.11,0,0,1-1.5,0,1.58,1.58,0,0,1-.57-.39,1.76,1.76,0,0,1-.36-.62,2.66,2.66,0,0,1,0-1.62,1.77,1.77,0,0,1,.36-.62,1.62,1.62,0,0,1,.57-.4A1.94,1.94,0,0,1,78.66,148.44Zm0,3.4a1,1,0,0,0,.84-.38,1.76,1.76,0,0,0,.28-1.06,1.78,1.78,0,0,0-.28-1.06,1,1,0,0,0-.84-.38,1.15,1.15,0,0,0-.49.1.92.92,0,0,0-.35.28,1.25,1.25,0,0,0-.21.45,2.7,2.7,0,0,0,0,1.21,1.23,1.23,0,0,0,.21.45.93.93,0,0,0,.35.28A1.15,1.15,0,0,0,78.66,151.84Z"/><path class="09b498f2-629e-4b27-9e55-952cb184770b" d="M85.1,151.61a.76.76,0,0,1-.47-.14.66.66,0,0,1-.23-.43,1.37,1.37,0,0,1-.47.44,1.17,1.17,0,0,1-.55.13.91.91,0,0,1-.39-.08.77.77,0,0,1-.27-.21.93.93,0,0,1-.16-.33,1.47,1.47,0,0,1-.05-.41,1.84,1.84,0,0,1,.12-.65,1.8,1.8,0,0,1,.36-.59,1.87,1.87,0,0,1,.6-.43,1.94,1.94,0,0,1,.82-.17,2.17,2.17,0,0,1,.44,0,1.72,1.72,0,0,1,.36.12l-.35,1.36a2,2,0,0,0-.07.47.64.64,0,0,0,0,.22.34.34,0,0,0,.09.14.31.31,0,0,0,.13.07l.16,0a.63.63,0,0,0,.35-.11,1,1,0,0,0,.29-.3,1.61,1.61,0,0,0,.2-.46,2.3,2.3,0,0,0,.07-.6,2.32,2.32,0,0,0-.17-.91,1.84,1.84,0,0,0-.46-.65,1.9,1.9,0,0,0-.68-.39,2.73,2.73,0,0,0-.85-.13,2.31,2.31,0,0,0-.94.19,2.35,2.35,0,0,0-.76.53,2.49,2.49,0,0,0-.51.8,2.68,2.68,0,0,0-.19,1,2.93,2.93,0,0,0,.2,1.12,2.33,2.33,0,0,0,.55.81,2.28,2.28,0,0,0,.81.49,3,3,0,0,0,1,.17,3.67,3.67,0,0,0,1-.12,3,3,0,0,0,.75-.32.2.2,0,0,1,.1,0,.12.12,0,0,1,.12.09l.09.25a3.36,3.36,0,0,1-.91.43,4,4,0,0,1-1.16.15,3.44,3.44,0,0,1-1.2-.21,2.81,2.81,0,0,1-1-.6,2.75,2.75,0,0,1-.64-1,3.32,3.32,0,0,1-.23-1.28,3,3,0,0,1,.1-.79,3.05,3.05,0,0,1,.29-.71,3,3,0,0,1,.45-.6,2.81,2.81,0,0,1,.58-.47,2.86,2.86,0,0,1,.69-.3,2.78,2.78,0,0,1,.77-.11,3,3,0,0,1,.67.08,2.81,2.81,0,0,1,.62.22,2.52,2.52,0,0,1,.54.36,2.28,2.28,0,0,1,.42.5,2.43,2.43,0,0,1,.28.63,2.7,2.7,0,0,1,.1.75,2.37,2.37,0,0,1-.11.75,1.92,1.92,0,0,1-.31.6,1.47,1.47,0,0,1-.47.4A1.23,1.23,0,0,1,85.1,151.61Zm-1.59-.45a.76.76,0,0,0,.23,0A.64.64,0,0,0,84,151a.93.93,0,0,0,.2-.26,1.69,1.69,0,0,0,.16-.41l.28-1.11a1.41,1.41,0,0,0-.32,0,1.12,1.12,0,0,0-.51.12,1.33,1.33,0,0,0-.4.31,1.44,1.44,0,0,0-.26.44,1.41,1.41,0,0,0-.1.51.7.7,0,0,0,.12.43A.43.43,0,0,0,83.51,151.16Z"/><path class="09b498f2-629e-4b27-9e55-952cb184770b" d="M88.33,147.3a.43.43,0,0,1,0,.18.53.53,0,0,1-.1.15.48.48,0,0,1-.15.1.45.45,0,0,1-.18,0,.44.44,0,0,1-.18,0,.48.48,0,0,1-.15-.1.5.5,0,0,1-.1-.15.45.45,0,0,1,0-.18.48.48,0,0,1,0-.19.49.49,0,0,1,.1-.15.5.5,0,0,1,.15-.1.44.44,0,0,1,.18,0,.45.45,0,0,1,.18,0,.49.49,0,0,1,.15.1.52.52,0,0,1,.1.15A.45.45,0,0,1,88.33,147.3Zm-.15,1.2v3.82h-.67V148.5Z"/><path class="09b498f2-629e-4b27-9e55-952cb184770b" d="M92,148.79a.38.38,0,0,1,0,.14.49.49,0,0,1-.07.12l-2,2.75h2.07v.52H89.07V152a.34.34,0,0,1,0-.12.48.48,0,0,1,.07-.13L91.22,149h-2v-.53H92Z"/><path class="09b498f2-629e-4b27-9e55-952cb184770b" d="M93.7,147.3a.43.43,0,0,1,0,.18.53.53,0,0,1-.1.15.48.48,0,0,1-.15.1.45.45,0,0,1-.18,0,.44.44,0,0,1-.18,0,.48.48,0,0,1-.15-.1.5.5,0,0,1-.1-.15.45.45,0,0,1,0-.18.48.48,0,0,1,0-.19.49.49,0,0,1,.1-.15.5.5,0,0,1,.15-.1.44.44,0,0,1,.18,0,.45.45,0,0,1,.18,0,.49.49,0,0,1,.15.1.52.52,0,0,1,.1.15A.45.45,0,0,1,93.7,147.3Zm-.15,1.2v3.82h-.67V148.5Z"/><path class="09b498f2-629e-4b27-9e55-952cb184770b" d="M95.87,152.38a.91.91,0,0,1-.69-.25,1,1,0,0,1-.24-.73v-2.33h-.46a.15.15,0,0,1-.1,0,.14.14,0,0,1,0-.11v-.27l.62-.08.15-1.18a.14.14,0,0,1,0-.09.16.16,0,0,1,.1,0h.34v1.31h1.08v.49H95.6v2.29a.49.49,0,0,0,.12.36.4.4,0,0,0,.3.12.53.53,0,0,0,.18,0l.13-.06.1-.06.07,0a.11.11,0,0,1,.09.06l.19.32a1.25,1.25,0,0,1-.42.25A1.4,1.4,0,0,1,95.87,152.38Z"/><path class="09b498f2-629e-4b27-9e55-952cb184770b" d="M100.29,152.31H100a.34.34,0,0,1-.16,0,.16.16,0,0,1-.08-.13l-.07-.35-.29.24a1.61,1.61,0,0,1-.3.18,1.51,1.51,0,0,1-.33.11,1.89,1.89,0,0,1-.39,0,1.35,1.35,0,0,1-.41-.06,1,1,0,0,1-.33-.19.89.89,0,0,1-.23-.32,1.11,1.11,0,0,1-.08-.45.85.85,0,0,1,.12-.44,1.09,1.09,0,0,1,.4-.37,2.58,2.58,0,0,1,.72-.27,4.86,4.86,0,0,1,1.09-.1v-.3a1,1,0,0,0-.19-.68.68.68,0,0,0-.56-.23,1.19,1.19,0,0,0-.41.06,1.51,1.51,0,0,0-.29.14l-.21.14a.3.3,0,0,1-.17.06.19.19,0,0,1-.12,0,.27.27,0,0,1-.08-.09l-.12-.21a2.17,2.17,0,0,1,.68-.46,2.07,2.07,0,0,1,.8-.15,1.42,1.42,0,0,1,.56.11,1.16,1.16,0,0,1,.42.29,1.25,1.25,0,0,1,.25.46,1.91,1.91,0,0,1,.09.59Zm-1.73-.41a1.37,1.37,0,0,0,.32,0,1.23,1.23,0,0,0,.27-.1,1.46,1.46,0,0,0,.25-.16,2.13,2.13,0,0,0,.23-.21v-.79a4.44,4.44,0,0,0-.78.06,2.19,2.19,0,0,0-.52.15A.73.73,0,0,0,98,151a.48.48,0,0,0-.09.29.65.65,0,0,0,0,.26.5.5,0,0,0,.13.18.51.51,0,0,0,.19.1A.88.88,0,0,0,98.57,151.9Z"/><path class="09b498f2-629e-4b27-9e55-952cb184770b" d="M102.58,148.44a1.89,1.89,0,0,1,.46.05,1.44,1.44,0,0,1,.39.16h1v.25c0,.08-.05.14-.16.16l-.43.06a1.16,1.16,0,0,1,.13.55,1.18,1.18,0,0,1-.11.51,1.15,1.15,0,0,1-.3.39,1.33,1.33,0,0,1-.45.25,1.77,1.77,0,0,1-.57.09,1.94,1.94,0,0,1-.5-.06.64.64,0,0,0-.18.17.31.31,0,0,0-.06.17.24.24,0,0,0,.11.21.75.75,0,0,0,.29.1,2.33,2.33,0,0,0,.41,0h.47a2.62,2.62,0,0,1,.47,0,1.42,1.42,0,0,1,.41.14.76.76,0,0,1,.29.26.79.79,0,0,1,.11.43,1,1,0,0,1-.12.48,1.29,1.29,0,0,1-.35.41,1.8,1.8,0,0,1-.56.29,2.38,2.38,0,0,1-.74.11,2.88,2.88,0,0,1-.73-.08,1.7,1.7,0,0,1-.52-.22,1,1,0,0,1-.31-.32.77.77,0,0,1-.1-.38.69.69,0,0,1,.18-.48,1.22,1.22,0,0,1,.49-.32.66.66,0,0,1-.26-.2.54.54,0,0,1-.1-.34.53.53,0,0,1,0-.17.67.67,0,0,1,.09-.17,1,1,0,0,1,.15-.17,1,1,0,0,1,.21-.14,1.19,1.19,0,0,1-.44-.42,1.15,1.15,0,0,1-.16-.61,1.19,1.19,0,0,1,.11-.51,1.13,1.13,0,0,1,.3-.39,1.36,1.36,0,0,1,.45-.25A1.82,1.82,0,0,1,102.58,148.44Zm1.18,4.07a.34.34,0,0,0-.08-.23.5.5,0,0,0-.21-.14,1.52,1.52,0,0,0-.31-.07l-.37,0h-.4A1.42,1.42,0,0,1,102,152a1.1,1.1,0,0,0-.35.25.51.51,0,0,0-.13.35.47.47,0,0,0,.07.24.56.56,0,0,0,.2.19,1.17,1.17,0,0,0,.34.13,2.16,2.16,0,0,0,.48,0,2.13,2.13,0,0,0,.48,0,1.22,1.22,0,0,0,.36-.14.68.68,0,0,0,.23-.22A.52.52,0,0,0,103.76,152.51Zm-1.18-2.06a1,1,0,0,0,.36-.06.71.71,0,0,0,.26-.16.64.64,0,0,0,.16-.24.89.89,0,0,0,.05-.31.74.74,0,0,0-.21-.56,1,1,0,0,0-1.23,0,.74.74,0,0,0-.21.56.87.87,0,0,0,.05.31.66.66,0,0,0,.16.24.71.71,0,0,0,.26.16A1,1,0,0,0,102.58,150.45Z"/><path class="09b498f2-629e-4b27-9e55-952cb184770b" d="M104.91,151.9a.48.48,0,0,1,0-.18.46.46,0,0,1,.1-.15.46.46,0,0,1,.15-.1.47.47,0,0,1,.37,0,.48.48,0,0,1,.15.1.46.46,0,0,1,.1.15.51.51,0,0,1,0,.37.47.47,0,0,1-.1.15.44.44,0,0,1-.15.1.48.48,0,0,1-.37,0,.42.42,0,0,1-.15-.1.47.47,0,0,1-.13-.33Z"/><path class="09b498f2-629e-4b27-9e55-952cb184770b" d="M108.88,149.13a.15.15,0,0,1-.14.08.26.26,0,0,1-.13,0l-.17-.09-.25-.09a1.14,1.14,0,0,0-.34,0,1,1,0,0,0-.3,0,.75.75,0,0,0-.23.12.53.53,0,0,0-.15.18.47.47,0,0,0-.05.22.36.36,0,0,0,.08.24.73.73,0,0,0,.22.17,1.9,1.9,0,0,0,.31.13l.36.12.36.14a1.33,1.33,0,0,1,.31.19.82.82,0,0,1,.31.67,1.25,1.25,0,0,1-.09.49,1.06,1.06,0,0,1-.28.39,1.33,1.33,0,0,1-.45.26,1.81,1.81,0,0,1-.61.09,1.92,1.92,0,0,1-.72-.13,1.82,1.82,0,0,1-.55-.33l.16-.26a.23.23,0,0,1,.07-.08.2.2,0,0,1,.11,0,.25.25,0,0,1,.14.05l.18.12a1.45,1.45,0,0,0,.26.12,1.16,1.16,0,0,0,.38.05,1,1,0,0,0,.34-.05.72.72,0,0,0,.24-.14.54.54,0,0,0,.14-.2.62.62,0,0,0,0-.24.4.4,0,0,0-.08-.26.71.71,0,0,0-.22-.18,1.79,1.79,0,0,0-.32-.13l-.36-.12-.36-.14a1.28,1.28,0,0,1-.32-.19.88.88,0,0,1-.22-.29.94.94,0,0,1-.08-.42,1,1,0,0,1,.35-.77,1.29,1.29,0,0,1,.42-.24,1.7,1.7,0,0,1,.57-.09,1.8,1.8,0,0,1,.67.12,1.58,1.58,0,0,1,.51.33Z"/><path class="09b498f2-629e-4b27-9e55-952cb184770b" d="M110.85,147.3a.43.43,0,0,1,0,.18.53.53,0,0,1-.1.15.48.48,0,0,1-.15.1.45.45,0,0,1-.18,0,.44.44,0,0,1-.18,0,.48.48,0,0,1-.15-.1.5.5,0,0,1-.1-.15.45.45,0,0,1,0-.18.48.48,0,0,1,0-.19.49.49,0,0,1,.1-.15.5.5,0,0,1,.15-.1.44.44,0,0,1,.18,0,.45.45,0,0,1,.18,0,.49.49,0,0,1,.15.1.52.52,0,0,1,.1.15A.45.45,0,0,1,110.85,147.3Zm-.15,1.2v3.82H110V148.5Z"/><path class="09b498f2-629e-4b27-9e55-952cb184770b" d="M113,152.38a.91.91,0,0,1-.69-.25,1,1,0,0,1-.24-.73v-2.33h-.46a.15.15,0,0,1-.1,0,.14.14,0,0,1,0-.11v-.27l.62-.08.15-1.18a.14.14,0,0,1,0-.09.16.16,0,0,1,.1,0h.34v1.31h1.08v.49h-1.08v2.29a.49.49,0,0,0,.12.36.4.4,0,0,0,.3.12.53.53,0,0,0,.18,0l.13-.06.1-.06.07,0a.11.11,0,0,1,.09.06l.19.32a1.25,1.25,0,0,1-.42.25A1.4,1.4,0,0,1,113,152.38Z"/><path class="09b498f2-629e-4b27-9e55-952cb184770b" d="M116.16,148.44a1.69,1.69,0,0,1,.63.11,1.42,1.42,0,0,1,.5.33,1.51,1.51,0,0,1,.33.53,2.08,2.08,0,0,1,.12.73.44.44,0,0,1,0,.21.14.14,0,0,1-.13.05h-2.52a2.13,2.13,0,0,0,.1.63,1.29,1.29,0,0,0,.25.45,1,1,0,0,0,.37.27,1.27,1.27,0,0,0,.49.09,1.41,1.41,0,0,0,.43-.06l.31-.13.22-.13a.29.29,0,0,1,.15-.06.15.15,0,0,1,.13.06l.19.24a1.25,1.25,0,0,1-.3.26,1.79,1.79,0,0,1-.37.18,2.28,2.28,0,0,1-.41.11,2.4,2.4,0,0,1-.42,0,1.92,1.92,0,0,1-.72-.13,1.59,1.59,0,0,1-.57-.39,1.79,1.79,0,0,1-.38-.64,2.61,2.61,0,0,1-.13-.87,2.24,2.24,0,0,1,.12-.75,1.77,1.77,0,0,1,.35-.6,1.6,1.6,0,0,1,.56-.4A1.82,1.82,0,0,1,116.16,148.44Zm0,.49a1,1,0,0,0-.76.28,1.33,1.33,0,0,0-.34.78h2.06a1.38,1.38,0,0,0-.06-.43,1,1,0,0,0-.19-.33.84.84,0,0,0-.3-.22A1,1,0,0,0,116.18,148.93Z"/><path class="09b498f2-629e-4b27-9e55-952cb184770b" d="M46.6,156h.6a.25.25,0,0,1,.16,0,.24.24,0,0,1,.09.12l1.11,3.75c0,.07,0,.14.05.22l0,.24.05-.25a1.91,1.91,0,0,1,.06-.22L50,156.13a.27.27,0,0,1,.09-.12.24.24,0,0,1,.16-.05h.21a.25.25,0,0,1,.16,0,.27.27,0,0,1,.09.12L52,159.88a3.77,3.77,0,0,1,.12.45l0-.24a1.67,1.67,0,0,1,0-.21l1.11-3.75a.23.23,0,0,1,.08-.12.25.25,0,0,1,.16-.05h.56l-1.67,5.4h-.65l-1.36-4.12a2.3,2.3,0,0,1-.07-.27l0,.15,0,.13-1.37,4.12h-.65Z"/><path class="09b498f2-629e-4b27-9e55-952cb184770b" d="M56.1,157.48a1.69,1.69,0,0,1,.63.11,1.42,1.42,0,0,1,.5.33,1.51,1.51,0,0,1,.33.53,2.08,2.08,0,0,1,.12.73.44.44,0,0,1,0,.21.14.14,0,0,1-.13.05H55a2.13,2.13,0,0,0,.1.63,1.29,1.29,0,0,0,.25.45,1,1,0,0,0,.37.27,1.27,1.27,0,0,0,.49.09,1.41,1.41,0,0,0,.43-.06l.31-.13.22-.13a.29.29,0,0,1,.15-.06.15.15,0,0,1,.13.06l.19.24a1.25,1.25,0,0,1-.3.26,1.79,1.79,0,0,1-.37.18,2.28,2.28,0,0,1-.41.11,2.4,2.4,0,0,1-.42,0,1.92,1.92,0,0,1-.72-.13,1.59,1.59,0,0,1-.57-.39,1.79,1.79,0,0,1-.38-.64,2.61,2.61,0,0,1-.13-.87,2.24,2.24,0,0,1,.12-.75,1.77,1.77,0,0,1,.35-.6,1.6,1.6,0,0,1,.56-.4A1.82,1.82,0,0,1,56.1,157.48Zm0,.49a1,1,0,0,0-.76.28A1.33,1.33,0,0,0,55,159h2.06a1.38,1.38,0,0,0-.06-.43,1,1,0,0,0-.19-.33.84.84,0,0,0-.3-.22A1,1,0,0,0,56.11,158Z"/><path class="09b498f2-629e-4b27-9e55-952cb184770b" d="M58.54,161.35v-5.55h.67v2.28a2,2,0,0,1,.54-.44,1.43,1.43,0,0,1,.7-.17,1.39,1.39,0,0,1,.59.12,1.2,1.2,0,0,1,.45.37,1.8,1.8,0,0,1,.29.61,3.14,3.14,0,0,1,.1.84,2.65,2.65,0,0,1-.11.79,1.9,1.9,0,0,1-.32.63,1.49,1.49,0,0,1-1.2.57,1.26,1.26,0,0,1-.62-.14,1.4,1.4,0,0,1-.45-.4l0,.35a.16.16,0,0,1-.17.14ZM60.23,158a1.06,1.06,0,0,0-.57.15,1.63,1.63,0,0,0-.45.42v1.85a1.05,1.05,0,0,0,.4.35,1.15,1.15,0,0,0,.49.1,1,1,0,0,0,.82-.38,1.78,1.78,0,0,0,.28-1.08,2.74,2.74,0,0,0-.07-.64,1.25,1.25,0,0,0-.19-.44.74.74,0,0,0-.3-.25A1,1,0,0,0,60.23,158Z"/><path class="09b498f2-629e-4b27-9e55-952cb184770b" d="M62.63,158.11a.48.48,0,0,1,0-.18.45.45,0,0,1,.25-.25.47.47,0,0,1,.37,0,.5.5,0,0,1,.15.1.45.45,0,0,1,.1.15.47.47,0,0,1,0,.18.47.47,0,0,1,0,.19.46.46,0,0,1-.1.15.48.48,0,0,1-.15.1.48.48,0,0,1-.37,0,.45.45,0,0,1-.15-.1.49.49,0,0,1-.1-.15A.48.48,0,0,1,62.63,158.11Zm0,2.83a.49.49,0,0,1,0-.18.47.47,0,0,1,.1-.15.47.47,0,0,1,.51-.1.48.48,0,0,1,.15.1.45.45,0,0,1,.1.15.5.5,0,0,1,0,.37.46.46,0,0,1-.1.15.45.45,0,0,1-.15.1.48.48,0,0,1-.37,0,.43.43,0,0,1-.15-.1.47.47,0,0,1-.13-.33Z"/><path class="09b498f2-629e-4b27-9e55-952cb184770b" d="M65.53,157.54h.52a.21.21,0,0,1,.13,0,.21.21,0,0,1,.07.1l.73,2.46.06.26c0,.08,0,.17,0,.25,0-.09,0-.17.07-.25l.08-.26.8-2.47a.2.2,0,0,1,.07-.09.19.19,0,0,1,.12,0h.29a.2.2,0,0,1,.12,0,.2.2,0,0,1,.07.09l.78,2.47c0,.09.05.17.07.26l.06.25c0-.08,0-.17,0-.26s0-.17.06-.25l.74-2.46a.2.2,0,0,1,.07-.1.2.2,0,0,1,.12,0h.5l-1.23,3.82h-.53c-.06,0-.11,0-.13-.13l-.84-2.59a1.43,1.43,0,0,1,0-.18l0-.17,0,.18a1.43,1.43,0,0,1,0,.18l-.85,2.58a.16.16,0,0,1-.15.13h-.5Z"/><path class="09b498f2-629e-4b27-9e55-952cb184770b" d="M71.26,157.54h.52a.21.21,0,0,1,.13,0,.21.21,0,0,1,.07.1l.73,2.46.06.26c0,.08,0,.17,0,.25,0-.09,0-.17.07-.25l.08-.26.8-2.47a.2.2,0,0,1,.07-.09.19.19,0,0,1,.12,0h.29a.2.2,0,0,1,.12,0,.2.2,0,0,1,.07.09l.78,2.47c0,.09.05.17.07.26l.06.25c0-.08,0-.17,0-.26s0-.17.06-.25l.74-2.46a.2.2,0,0,1,.07-.1.2.2,0,0,1,.12,0h.5l-1.23,3.82h-.53c-.06,0-.11,0-.13-.13l-.84-2.59a1.43,1.43,0,0,1,0-.18l0-.17,0,.18a1.43,1.43,0,0,1,0,.18l-.85,2.58a.16.16,0,0,1-.15.13h-.5Z"/><path class="09b498f2-629e-4b27-9e55-952cb184770b" d="M77,157.54h.52a.21.21,0,0,1,.13,0,.21.21,0,0,1,.07.1l.73,2.46.06.26c0,.08,0,.17,0,.25,0-.09,0-.17.07-.25l.08-.26.8-2.47a.2.2,0,0,1,.07-.09.19.19,0,0,1,.12,0H80a.2.2,0,0,1,.12,0,.2.2,0,0,1,.07.09l.78,2.47c0,.09.05.17.07.26l.06.25c0-.08,0-.17,0-.26s0-.17.06-.25l.74-2.46a.2.2,0,0,1,.07-.1.2.2,0,0,1,.12,0h.5l-1.23,3.82h-.53c-.06,0-.11,0-.13-.13l-.84-2.59a1.43,1.43,0,0,1,0-.18l0-.17,0,.18a1.43,1.43,0,0,1,0,.18l-.85,2.58a.16.16,0,0,1-.15.13h-.5Z"/><path class="09b498f2-629e-4b27-9e55-952cb184770b" d="M82.77,160.94a.48.48,0,0,1,0-.18.46.46,0,0,1,.1-.15.46.46,0,0,1,.15-.1.47.47,0,0,1,.37,0,.48.48,0,0,1,.15.1.46.46,0,0,1,.1.15.51.51,0,0,1,0,.37.47.47,0,0,1-.1.15.44.44,0,0,1-.15.1.48.48,0,0,1-.37,0,.42.42,0,0,1-.15-.1.47.47,0,0,1-.13-.33Z"/><path class="09b498f2-629e-4b27-9e55-952cb184770b" d="M85.46,156.34a.43.43,0,0,1,0,.18.53.53,0,0,1-.1.15.48.48,0,0,1-.15.1.45.45,0,0,1-.18,0,.44.44,0,0,1-.18,0,.48.48,0,0,1-.15-.1.5.5,0,0,1-.1-.15.45.45,0,0,1,0-.18.48.48,0,0,1,0-.19.49.49,0,0,1,.1-.15.5.5,0,0,1,.15-.1.44.44,0,0,1,.18,0,.45.45,0,0,1,.18,0,.49.49,0,0,1,.15.1.52.52,0,0,1,.1.15A.45.45,0,0,1,85.46,156.34Zm-.15,1.2v3.82h-.67v-3.82Z"/><path class="09b498f2-629e-4b27-9e55-952cb184770b" d="M89.13,157.83a.38.38,0,0,1,0,.14.49.49,0,0,1-.07.12l-2,2.75h2.07v.52H86.2v-.28a.34.34,0,0,1,0-.12.48.48,0,0,1,.07-.13l2.06-2.77h-2v-.53h2.81Z"/><path class="09b498f2-629e-4b27-9e55-952cb184770b" d="M90.83,156.34a.43.43,0,0,1,0,.18.53.53,0,0,1-.1.15.48.48,0,0,1-.15.1.45.45,0,0,1-.18,0,.44.44,0,0,1-.18,0,.48.48,0,0,1-.15-.1.5.5,0,0,1-.1-.15.45.45,0,0,1,0-.18.48.48,0,0,1,0-.19A.49.49,0,0,1,90,156a.5.5,0,0,1,.15-.1.44.44,0,0,1,.18,0,.45.45,0,0,1,.18,0,.49.49,0,0,1,.15.1.52.52,0,0,1,.1.15A.45.45,0,0,1,90.83,156.34Zm-.15,1.2v3.82H90v-3.82Z"/><path class="09b498f2-629e-4b27-9e55-952cb184770b" d="M93,161.41a.91.91,0,0,1-.69-.25,1,1,0,0,1-.24-.73V158.1h-.46a.15.15,0,0,1-.1,0,.14.14,0,0,1,0-.11v-.27l.62-.08.15-1.18a.14.14,0,0,1,0-.09.16.16,0,0,1,.1,0h.34v1.31h1.08v.49H92.74v2.29a.49.49,0,0,0,.12.36.4.4,0,0,0,.3.12.53.53,0,0,0,.18,0l.13-.06.1-.06.07,0a.11.11,0,0,1,.09.06l.19.32a1.25,1.25,0,0,1-.42.25A1.4,1.4,0,0,1,93,161.41Z"/><path class="09b498f2-629e-4b27-9e55-952cb184770b" d="M97.43,161.35h-.3a.34.34,0,0,1-.16,0,.16.16,0,0,1-.08-.13l-.07-.35-.29.24a1.61,1.61,0,0,1-.3.18,1.51,1.51,0,0,1-.33.11,1.89,1.89,0,0,1-.39,0,1.35,1.35,0,0,1-.41-.06,1,1,0,0,1-.33-.19.89.89,0,0,1-.23-.32,1.11,1.11,0,0,1-.08-.45.85.85,0,0,1,.12-.44,1.09,1.09,0,0,1,.4-.37,2.58,2.58,0,0,1,.72-.27,4.86,4.86,0,0,1,1.09-.1v-.3a1,1,0,0,0-.19-.68A.68.68,0,0,0,96,158a1.19,1.19,0,0,0-.41.06,1.51,1.51,0,0,0-.29.14l-.21.14a.3.3,0,0,1-.17.06.19.19,0,0,1-.12,0,.27.27,0,0,1-.08-.09l-.12-.21a2.17,2.17,0,0,1,.68-.46,2.07,2.07,0,0,1,.8-.15,1.42,1.42,0,0,1,.56.11,1.16,1.16,0,0,1,.42.29,1.25,1.25,0,0,1,.25.46,1.91,1.91,0,0,1,.09.59Zm-1.73-.41a1.37,1.37,0,0,0,.32,0,1.23,1.23,0,0,0,.27-.1,1.46,1.46,0,0,0,.25-.16,2.13,2.13,0,0,0,.23-.21v-.79a4.44,4.44,0,0,0-.78.06,2.19,2.19,0,0,0-.52.15.73.73,0,0,0-.29.22.48.48,0,0,0-.09.29.65.65,0,0,0,0,.26.5.5,0,0,0,.13.18.51.51,0,0,0,.19.1A.88.88,0,0,0,95.7,160.94Z"/><path class="09b498f2-629e-4b27-9e55-952cb184770b" d="M99.71,157.48a1.89,1.89,0,0,1,.46.05,1.44,1.44,0,0,1,.39.16h1v.25c0,.08-.05.14-.16.16l-.43.06a1.16,1.16,0,0,1,.13.55,1.18,1.18,0,0,1-.11.51,1.15,1.15,0,0,1-.3.39,1.33,1.33,0,0,1-.45.25,1.77,1.77,0,0,1-.57.09,1.94,1.94,0,0,1-.5-.06A.64.64,0,0,0,99,160a.31.31,0,0,0-.06.17.24.24,0,0,0,.11.21.75.75,0,0,0,.29.1,2.33,2.33,0,0,0,.41,0h.47a2.62,2.62,0,0,1,.47,0,1.42,1.42,0,0,1,.41.14.76.76,0,0,1,.29.26.79.79,0,0,1,.11.43,1,1,0,0,1-.12.48,1.29,1.29,0,0,1-.35.41,1.8,1.8,0,0,1-.56.29,2.38,2.38,0,0,1-.74.11,2.88,2.88,0,0,1-.73-.08,1.7,1.7,0,0,1-.52-.22,1,1,0,0,1-.31-.32.77.77,0,0,1-.1-.38.69.69,0,0,1,.18-.48,1.22,1.22,0,0,1,.49-.32.66.66,0,0,1-.26-.2.54.54,0,0,1-.1-.34.53.53,0,0,1,0-.17.67.67,0,0,1,.09-.17,1,1,0,0,1,.15-.17,1,1,0,0,1,.21-.14,1.19,1.19,0,0,1-.44-.42,1.15,1.15,0,0,1-.16-.61,1.19,1.19,0,0,1,.11-.51,1.13,1.13,0,0,1,.3-.39,1.36,1.36,0,0,1,.45-.25A1.82,1.82,0,0,1,99.71,157.48Zm1.18,4.07a.34.34,0,0,0-.08-.23.5.5,0,0,0-.21-.14,1.52,1.52,0,0,0-.31-.07l-.37,0h-.4a1.42,1.42,0,0,1-.39-.05,1.1,1.1,0,0,0-.35.25.51.51,0,0,0-.13.35.47.47,0,0,0,.07.24.56.56,0,0,0,.2.19,1.17,1.17,0,0,0,.34.13,2.16,2.16,0,0,0,.48,0,2.13,2.13,0,0,0,.48,0,1.22,1.22,0,0,0,.36-.14.68.68,0,0,0,.23-.22A.52.52,0,0,0,100.9,161.55Zm-1.18-2.06a1,1,0,0,0,.36-.06.71.71,0,0,0,.26-.16.64.64,0,0,0,.16-.24.89.89,0,0,0,.05-.31.74.74,0,0,0-.21-.56,1,1,0,0,0-1.23,0,.74.74,0,0,0-.21.56.87.87,0,0,0,.05.31.66.66,0,0,0,.16.24.71.71,0,0,0,.26.16A1,1,0,0,0,99.71,159.49Z"/><path class="09b498f2-629e-4b27-9e55-952cb184770b" d="M102,160.94a.48.48,0,0,1,0-.18.46.46,0,0,1,.1-.15.46.46,0,0,1,.15-.1.47.47,0,0,1,.37,0,.48.48,0,0,1,.15.1.46.46,0,0,1,.1.15.51.51,0,0,1,0,.37.47.47,0,0,1-.1.15.44.44,0,0,1-.15.1.48.48,0,0,1-.37,0,.42.42,0,0,1-.15-.1.47.47,0,0,1-.13-.33Z"/><path class="09b498f2-629e-4b27-9e55-952cb184770b" d="M106,158.17a.15.15,0,0,1-.14.08.26.26,0,0,1-.13,0l-.17-.09-.25-.09a1.14,1.14,0,0,0-.34,0,1,1,0,0,0-.3,0,.75.75,0,0,0-.23.12.53.53,0,0,0-.15.18.47.47,0,0,0-.05.22.36.36,0,0,0,.08.24.73.73,0,0,0,.22.17,1.9,1.9,0,0,0,.31.13l.36.12.36.14a1.33,1.33,0,0,1,.31.19.82.82,0,0,1,.31.67,1.25,1.25,0,0,1-.09.49,1.06,1.06,0,0,1-.28.39,1.33,1.33,0,0,1-.45.26,1.81,1.81,0,0,1-.61.09,1.92,1.92,0,0,1-.72-.13,1.82,1.82,0,0,1-.55-.33l.16-.26a.23.23,0,0,1,.07-.08.2.2,0,0,1,.11,0,.25.25,0,0,1,.14.05l.18.12a1.45,1.45,0,0,0,.26.12,1.16,1.16,0,0,0,.38.05,1,1,0,0,0,.34-.05.72.72,0,0,0,.24-.14.54.54,0,0,0,.14-.2.62.62,0,0,0,0-.24.4.4,0,0,0-.08-.26.71.71,0,0,0-.22-.18,1.79,1.79,0,0,0-.32-.13l-.36-.12-.36-.14a1.28,1.28,0,0,1-.32-.19.88.88,0,0,1-.22-.29.94.94,0,0,1-.08-.42,1,1,0,0,1,.35-.77,1.29,1.29,0,0,1,.42-.24,1.7,1.7,0,0,1,.57-.09,1.8,1.8,0,0,1,.67.12,1.58,1.58,0,0,1,.51.33Z"/><path class="09b498f2-629e-4b27-9e55-952cb184770b" d="M108,156.34a.43.43,0,0,1,0,.18.53.53,0,0,1-.1.15.48.48,0,0,1-.15.1.45.45,0,0,1-.18,0,.44.44,0,0,1-.18,0,.48.48,0,0,1-.15-.1.5.5,0,0,1-.1-.15.45.45,0,0,1,0-.18.48.48,0,0,1,0-.19.49.49,0,0,1,.1-.15.5.5,0,0,1,.15-.1.44.44,0,0,1,.18,0,.45.45,0,0,1,.18,0,.49.49,0,0,1,.15.1.52.52,0,0,1,.1.15A.45.45,0,0,1,108,156.34Zm-.15,1.2v3.82h-.67v-3.82Z"/><path class="09b498f2-629e-4b27-9e55-952cb184770b" d="M110.16,161.41a.91.91,0,0,1-.69-.25,1,1,0,0,1-.24-.73V158.1h-.46a.15.15,0,0,1-.1,0,.14.14,0,0,1,0-.11v-.27l.62-.08.15-1.18a.14.14,0,0,1,0-.09.16.16,0,0,1,.1,0h.34v1.31H111v.49h-1.08v2.29a.49.49,0,0,0,.12.36.4.4,0,0,0,.3.12.53.53,0,0,0,.18,0l.13-.06.1-.06.07,0a.11.11,0,0,1,.09.06l.19.32a1.25,1.25,0,0,1-.42.25A1.4,1.4,0,0,1,110.16,161.41Z"/><path class="09b498f2-629e-4b27-9e55-952cb184770b" d="M113.3,157.48a1.69,1.69,0,0,1,.63.11,1.42,1.42,0,0,1,.5.33,1.51,1.51,0,0,1,.33.53,2.08,2.08,0,0,1,.12.73.44.44,0,0,1,0,.21.14.14,0,0,1-.13.05h-2.52a2.13,2.13,0,0,0,.1.63,1.29,1.29,0,0,0,.25.45,1,1,0,0,0,.37.27,1.27,1.27,0,0,0,.49.09,1.41,1.41,0,0,0,.43-.06l.31-.13.22-.13a.29.29,0,0,1,.15-.06.15.15,0,0,1,.13.06l.19.24a1.25,1.25,0,0,1-.3.26,1.79,1.79,0,0,1-.37.18,2.28,2.28,0,0,1-.41.11,2.4,2.4,0,0,1-.42,0,1.92,1.92,0,0,1-.72-.13,1.59,1.59,0,0,1-.57-.39,1.79,1.79,0,0,1-.38-.64,2.61,2.61,0,0,1-.13-.87,2.24,2.24,0,0,1,.12-.75,1.77,1.77,0,0,1,.35-.6,1.6,1.6,0,0,1,.56-.4A1.82,1.82,0,0,1,113.3,157.48Zm0,.49a1,1,0,0,0-.76.28,1.33,1.33,0,0,0-.34.78h2.06a1.38,1.38,0,0,0-.06-.43,1,1,0,0,0-.19-.33.84.84,0,0,0-.3-.22A1,1,0,0,0,113.31,158Z"/><path class="09b498f2-629e-4b27-9e55-952cb184770b" d="M192.94,143.28v-5.4h1.71a3.24,3.24,0,0,1,.85.1,1.65,1.65,0,0,1,.59.28,1.09,1.09,0,0,1,.34.44,1.5,1.5,0,0,1,.11.59,1.21,1.21,0,0,1-.06.38,1.11,1.11,0,0,1-.19.34,1.33,1.33,0,0,1-.31.28,1.79,1.79,0,0,1-.44.2,1.65,1.65,0,0,1,.89.43,1.11,1.11,0,0,1,.3.81,1.53,1.53,0,0,1-.12.63,1.34,1.34,0,0,1-.37.49,1.71,1.71,0,0,1-.59.31,2.63,2.63,0,0,1-.8.11Zm.73-3h1a1.86,1.86,0,0,0,.53-.07,1.06,1.06,0,0,0,.37-.19.74.74,0,0,0,.22-.29,1,1,0,0,0,.07-.37.83.83,0,0,0-.28-.7,1.43,1.43,0,0,0-.88-.22h-1Zm0,.52v1.88h1.16a1.75,1.75,0,0,0,.53-.07,1,1,0,0,0,.37-.2.79.79,0,0,0,.21-.31,1.11,1.11,0,0,0,.07-.39.81.81,0,0,0-.29-.66,1.38,1.38,0,0,0-.89-.24Z"/><path class="09b498f2-629e-4b27-9e55-952cb184770b" d="M200.46,143.28h-.3a.35.35,0,0,1-.16,0,.17.17,0,0,1-.08-.13l-.08-.35-.29.24a1.66,1.66,0,0,1-.3.18,1.5,1.5,0,0,1-.33.11,1.88,1.88,0,0,1-.39,0,1.35,1.35,0,0,1-.41-.06,1,1,0,0,1-.33-.19.88.88,0,0,1-.23-.32,1.1,1.1,0,0,1-.08-.45.85.85,0,0,1,.12-.44,1.09,1.09,0,0,1,.4-.37,2.57,2.57,0,0,1,.72-.27,4.86,4.86,0,0,1,1.09-.1v-.3a1,1,0,0,0-.19-.68.68.68,0,0,0-.56-.23,1.19,1.19,0,0,0-.41.06,1.49,1.49,0,0,0-.29.14l-.21.14a.3.3,0,0,1-.17.06.2.2,0,0,1-.12,0,.26.26,0,0,1-.08-.09l-.12-.21a2.18,2.18,0,0,1,.68-.46,2.08,2.08,0,0,1,.8-.15,1.42,1.42,0,0,1,.56.11,1.15,1.15,0,0,1,.42.29,1.25,1.25,0,0,1,.25.46,1.94,1.94,0,0,1,.09.59Zm-1.73-.41a1.38,1.38,0,0,0,.32,0,1.25,1.25,0,0,0,.27-.1,1.46,1.46,0,0,0,.25-.16,2.23,2.23,0,0,0,.23-.21v-.79a4.45,4.45,0,0,0-.78.06,2.19,2.19,0,0,0-.52.15.74.74,0,0,0-.29.22.49.49,0,0,0-.09.29.65.65,0,0,0,0,.26.5.5,0,0,0,.13.18.52.52,0,0,0,.19.1A.88.88,0,0,0,198.73,142.87Z"/><path class="09b498f2-629e-4b27-9e55-952cb184770b" d="M202.36,138.26a.44.44,0,0,1,0,.18.52.52,0,0,1-.11.15.46.46,0,0,1-.15.1.45.45,0,0,1-.18,0,.43.43,0,0,1-.18,0,.47.47,0,0,1-.15-.1.5.5,0,0,1-.1-.15.46.46,0,0,1,0-.18.49.49,0,0,1,0-.19.49.49,0,0,1,.1-.15.48.48,0,0,1,.15-.1.43.43,0,0,1,.18,0,.45.45,0,0,1,.18,0,.48.48,0,0,1,.15.1.52.52,0,0,1,.11.15A.47.47,0,0,1,202.36,138.26Zm-.15,1.2v3.82h-.67v-3.82Z"/><path class="09b498f2-629e-4b27-9e55-952cb184770b" d="M203.38,143.28v-3.82h.38a.21.21,0,0,1,.15,0,.26.26,0,0,1,.06.14l0,.6a1.74,1.74,0,0,1,.48-.62,1.06,1.06,0,0,1,.67-.22,1,1,0,0,1,.28,0,1,1,0,0,1,.24.1l-.09.5a.11.11,0,0,1-.12.09l-.16,0a1,1,0,0,0-.3,0,.85.85,0,0,0-.58.2,1.53,1.53,0,0,0-.39.59v2.43Z"/><path class="09b498f2-629e-4b27-9e55-952cb184770b" d="M206.39,143.28v-3.82h.38a.21.21,0,0,1,.15,0,.26.26,0,0,1,.06.14l0,.6a1.74,1.74,0,0,1,.48-.62,1.06,1.06,0,0,1,.67-.22,1,1,0,0,1,.28,0,1,1,0,0,1,.24.1l-.09.5a.11.11,0,0,1-.12.09l-.16,0a1,1,0,0,0-.3,0,.85.85,0,0,0-.58.2,1.53,1.53,0,0,0-.39.59v2.43Z"/><path class="09b498f2-629e-4b27-9e55-952cb184770b" d="M210.94,139.4a1.93,1.93,0,0,1,.75.14,1.6,1.6,0,0,1,.57.4,1.76,1.76,0,0,1,.36.62,2.68,2.68,0,0,1,0,1.63,1.75,1.75,0,0,1-.36.62,1.56,1.56,0,0,1-.57.39,2.11,2.11,0,0,1-1.5,0,1.57,1.57,0,0,1-.57-.39,1.76,1.76,0,0,1-.36-.62,2.66,2.66,0,0,1,0-1.62,1.77,1.77,0,0,1,.36-.62,1.61,1.61,0,0,1,.57-.4A1.93,1.93,0,0,1,210.94,139.4Zm0,3.4a1,1,0,0,0,.84-.38,1.76,1.76,0,0,0,.28-1.06,1.78,1.78,0,0,0-.28-1.06,1,1,0,0,0-.84-.38,1.15,1.15,0,0,0-.49.1.93.93,0,0,0-.35.28,1.27,1.27,0,0,0-.21.45,2.73,2.73,0,0,0,0,1.21,1.24,1.24,0,0,0,.21.45.93.93,0,0,0,.35.28A1.15,1.15,0,0,0,210.94,142.81Z"/><path class="09b498f2-629e-4b27-9e55-952cb184770b" d="M217.86,138.72a.3.3,0,0,1-.07.08.15.15,0,0,1-.1,0,.26.26,0,0,1-.15-.06l-.21-.14a1.72,1.72,0,0,0-.31-.14,1.35,1.35,0,0,0-.44-.06,1.3,1.3,0,0,0-.43.07.9.9,0,0,0-.31.18.73.73,0,0,0-.19.26.86.86,0,0,0-.06.33.62.62,0,0,0,.11.38,1,1,0,0,0,.29.25,2.25,2.25,0,0,0,.41.18l.47.16.47.19a1.64,1.64,0,0,1,.41.26,1.2,1.2,0,0,1,.29.39,1.29,1.29,0,0,1,.11.56,1.85,1.85,0,0,1-.12.67,1.54,1.54,0,0,1-.35.54,1.64,1.64,0,0,1-.57.36,2.06,2.06,0,0,1-.76.13,2.31,2.31,0,0,1-.95-.19,2.23,2.23,0,0,1-.73-.51l.21-.35.07-.07a.17.17,0,0,1,.1,0,.3.3,0,0,1,.18.08l.25.19a1.92,1.92,0,0,0,.37.19,1.43,1.43,0,0,0,.53.08,1.4,1.4,0,0,0,.46-.07,1,1,0,0,0,.34-.2.87.87,0,0,0,.22-.31,1,1,0,0,0,.07-.4.67.67,0,0,0-.11-.4.91.91,0,0,0-.29-.26,2,2,0,0,0-.41-.18l-.47-.15a4.48,4.48,0,0,1-.47-.18,1.52,1.52,0,0,1-.41-.26,1.21,1.21,0,0,1-.29-.4,1.44,1.44,0,0,1-.11-.6,1.45,1.45,0,0,1,.43-1,1.54,1.54,0,0,1,.52-.33,1.88,1.88,0,0,1,.71-.12,2.25,2.25,0,0,1,.82.14,1.88,1.88,0,0,1,.65.41Z"/><path class="09b498f2-629e-4b27-9e55-952cb184770b" d="M221.76,143.28h-.3a.35.35,0,0,1-.16,0,.17.17,0,0,1-.08-.13l-.08-.35-.29.24a1.66,1.66,0,0,1-.3.18,1.5,1.5,0,0,1-.33.11,1.88,1.88,0,0,1-.39,0,1.35,1.35,0,0,1-.41-.06,1,1,0,0,1-.33-.19.88.88,0,0,1-.23-.32,1.1,1.1,0,0,1-.08-.45.85.85,0,0,1,.12-.44,1.09,1.09,0,0,1,.4-.37,2.57,2.57,0,0,1,.72-.27,4.86,4.86,0,0,1,1.09-.1v-.3a1,1,0,0,0-.19-.68.68.68,0,0,0-.56-.23,1.19,1.19,0,0,0-.41.06,1.49,1.49,0,0,0-.29.14l-.21.14a.3.3,0,0,1-.17.06.2.2,0,0,1-.12,0,.26.26,0,0,1-.08-.09L219,140a2.18,2.18,0,0,1,.68-.46,2.08,2.08,0,0,1,.8-.15,1.42,1.42,0,0,1,.56.11,1.15,1.15,0,0,1,.42.29,1.25,1.25,0,0,1,.25.46,1.94,1.94,0,0,1,.09.59Zm-1.73-.41a1.38,1.38,0,0,0,.32,0,1.25,1.25,0,0,0,.27-.1,1.46,1.46,0,0,0,.25-.16,2.23,2.23,0,0,0,.23-.21v-.79a4.45,4.45,0,0,0-.78.06,2.19,2.19,0,0,0-.52.15.74.74,0,0,0-.29.22.49.49,0,0,0-.09.29.65.65,0,0,0,0,.26.5.5,0,0,0,.13.18.52.52,0,0,0,.19.1A.88.88,0,0,0,220,142.87Z"/><path class="09b498f2-629e-4b27-9e55-952cb184770b" d="M222.77,143.28v-3.82h.4a.17.17,0,0,1,.18.14l0,.39a2,2,0,0,1,.47-.43,1.1,1.1,0,0,1,.6-.17.89.89,0,0,1,.62.21,1.2,1.2,0,0,1,.34.58,1.21,1.21,0,0,1,.21-.36,1.18,1.18,0,0,1,.29-.25,1.21,1.21,0,0,1,.34-.14,1.51,1.51,0,0,1,.37,0,1.4,1.4,0,0,1,.53.1,1.06,1.06,0,0,1,.4.28,1.26,1.26,0,0,1,.25.45,2,2,0,0,1,.09.62v2.43h-.67v-2.43a1,1,0,0,0-.19-.68.69.69,0,0,0-.56-.23.84.84,0,0,0-.31.06.74.74,0,0,0-.26.17.79.79,0,0,0-.18.28,1.1,1.1,0,0,0-.07.4v2.43H225v-2.43a1.07,1.07,0,0,0-.18-.69.65.65,0,0,0-.53-.23.85.85,0,0,0-.46.13,1.53,1.53,0,0,0-.39.36v2.84Z"/><path class="09b498f2-629e-4b27-9e55-952cb184770b" d="M230.45,139.4a1.93,1.93,0,0,1,.75.14,1.6,1.6,0,0,1,.57.4,1.76,1.76,0,0,1,.36.62,2.68,2.68,0,0,1,0,1.63,1.75,1.75,0,0,1-.36.62,1.56,1.56,0,0,1-.57.39,2.11,2.11,0,0,1-1.5,0,1.57,1.57,0,0,1-.57-.39,1.76,1.76,0,0,1-.36-.62,2.66,2.66,0,0,1,0-1.62,1.77,1.77,0,0,1,.36-.62,1.61,1.61,0,0,1,.57-.4A1.93,1.93,0,0,1,230.45,139.4Zm0,3.4a1,1,0,0,0,.84-.38,1.76,1.76,0,0,0,.28-1.06,1.78,1.78,0,0,0-.28-1.06,1,1,0,0,0-.84-.38,1.15,1.15,0,0,0-.49.1.93.93,0,0,0-.35.28,1.27,1.27,0,0,0-.21.45,2.73,2.73,0,0,0,0,1.21,1.24,1.24,0,0,0,.21.45.93.93,0,0,0,.35.28A1.15,1.15,0,0,0,230.45,142.81Z"/><path class="09b498f2-629e-4b27-9e55-952cb184770b" d="M233.07,143.28v-3.82h.38a.21.21,0,0,1,.15,0,.26.26,0,0,1,.06.14l0,.6a1.74,1.74,0,0,1,.48-.62,1.06,1.06,0,0,1,.67-.22,1,1,0,0,1,.28,0,1,1,0,0,1,.24.1l-.09.5a.11.11,0,0,1-.12.09l-.16,0a1,1,0,0,0-.3,0,.85.85,0,0,0-.58.2,1.53,1.53,0,0,0-.39.59v2.43Z"/><path class="09b498f2-629e-4b27-9e55-952cb184770b" d="M238.73,143.28h-.3a.35.35,0,0,1-.16,0,.17.17,0,0,1-.08-.13l-.08-.35-.29.24a1.66,1.66,0,0,1-.3.18,1.5,1.5,0,0,1-.33.11,1.88,1.88,0,0,1-.39,0,1.35,1.35,0,0,1-.41-.06,1,1,0,0,1-.33-.19.88.88,0,0,1-.23-.32,1.1,1.1,0,0,1-.08-.45.85.85,0,0,1,.12-.44,1.09,1.09,0,0,1,.4-.37,2.57,2.57,0,0,1,.72-.27,4.86,4.86,0,0,1,1.09-.1v-.3a1,1,0,0,0-.19-.68.68.68,0,0,0-.56-.23,1.19,1.19,0,0,0-.41.06,1.49,1.49,0,0,0-.29.14l-.21.14a.3.3,0,0,1-.17.06.2.2,0,0,1-.12,0,.26.26,0,0,1-.08-.09l-.12-.21a2.18,2.18,0,0,1,.68-.46,2.08,2.08,0,0,1,.8-.15,1.42,1.42,0,0,1,.56.11,1.15,1.15,0,0,1,.42.29,1.25,1.25,0,0,1,.25.46,1.94,1.94,0,0,1,.09.59Zm-1.73-.41a1.38,1.38,0,0,0,.32,0,1.25,1.25,0,0,0,.27-.1,1.46,1.46,0,0,0,.25-.16,2.23,2.23,0,0,0,.23-.21v-.79a4.45,4.45,0,0,0-.78.06,2.19,2.19,0,0,0-.52.15.74.74,0,0,0-.29.22.49.49,0,0,0-.09.29.65.65,0,0,0,0,.26.5.5,0,0,0,.13.18.52.52,0,0,0,.19.1A.88.88,0,0,0,237,142.87Z"/><path class="09b498f2-629e-4b27-9e55-952cb184770b" d="M244,141.52l.08.2.08-.2.09-.19,1.81-3.32a.22.22,0,0,1,.1-.11l.15,0h.54v5.4h-.64v-4c0-.05,0-.11,0-.17s0-.12,0-.18l-1.84,3.37a.29.29,0,0,1-.26.17H244a.29.29,0,0,1-.26-.17l-1.88-3.39c0,.07,0,.13,0,.19s0,.12,0,.17v4h-.64v-5.4h.54l.15,0a.22.22,0,0,1,.1.11l1.85,3.32A1.42,1.42,0,0,1,244,141.52Z"/><path class="09b498f2-629e-4b27-9e55-952cb184770b" d="M247.84,142.86a.48.48,0,0,1,.13-.33.47.47,0,0,1,.51-.1.5.5,0,0,1,.15.1.45.45,0,0,1,.1.15.48.48,0,0,1-.1.52.46.46,0,0,1-.15.1.48.48,0,0,1-.37,0,.43.43,0,0,1-.15-.1.5.5,0,0,1-.1-.15A.48.48,0,0,1,247.84,142.86Z"/><path class="09b498f2-629e-4b27-9e55-952cb184770b" d="M253.92,141.52l.08.2.08-.2.09-.19L256,138a.22.22,0,0,1,.1-.11l.15,0h.54v5.4h-.64v-4c0-.05,0-.11,0-.17s0-.12,0-.18l-1.84,3.37a.29.29,0,0,1-.26.17h-.11a.29.29,0,0,1-.26-.17l-1.88-3.39c0,.07,0,.13,0,.19s0,.12,0,.17v4h-.64v-5.4h.54l.15,0a.22.22,0,0,1,.1.11l1.85,3.32A1.42,1.42,0,0,1,253.92,141.52Z"/><path class="09b498f2-629e-4b27-9e55-952cb184770b" d="M260.76,143.28h-.3a.35.35,0,0,1-.16,0,.17.17,0,0,1-.08-.13l-.08-.35-.29.24a1.66,1.66,0,0,1-.3.18,1.5,1.5,0,0,1-.33.11,1.88,1.88,0,0,1-.39,0,1.35,1.35,0,0,1-.41-.06,1,1,0,0,1-.33-.19.88.88,0,0,1-.23-.32,1.1,1.1,0,0,1-.08-.45.85.85,0,0,1,.12-.44,1.09,1.09,0,0,1,.4-.37,2.57,2.57,0,0,1,.72-.27,4.86,4.86,0,0,1,1.09-.1v-.3a1,1,0,0,0-.19-.68.68.68,0,0,0-.56-.23,1.19,1.19,0,0,0-.41.06,1.49,1.49,0,0,0-.29.14l-.21.14a.3.3,0,0,1-.17.06.2.2,0,0,1-.12,0,.26.26,0,0,1-.08-.09L258,140a2.18,2.18,0,0,1,.68-.46,2.08,2.08,0,0,1,.8-.15,1.42,1.42,0,0,1,.56.11,1.15,1.15,0,0,1,.42.29,1.25,1.25,0,0,1,.25.46,1.94,1.94,0,0,1,.09.59Zm-1.73-.41a1.38,1.38,0,0,0,.32,0,1.25,1.25,0,0,0,.27-.1,1.46,1.46,0,0,0,.25-.16,2.23,2.23,0,0,0,.23-.21v-.79a4.45,4.45,0,0,0-.78.06,2.19,2.19,0,0,0-.52.15.74.74,0,0,0-.29.22.49.49,0,0,0-.09.29.65.65,0,0,0,0,.26.5.5,0,0,0,.13.18.52.52,0,0,0,.19.1A.88.88,0,0,0,259,142.87Z"/><path class="09b498f2-629e-4b27-9e55-952cb184770b" d="M264.35,140.14l-.06.06a.14.14,0,0,1-.09,0,.21.21,0,0,1-.12,0l-.17-.1-.25-.1a1.16,1.16,0,0,0-.35,0,1.14,1.14,0,0,0-.49.1.94.94,0,0,0-.36.29,1.32,1.32,0,0,0-.22.46,2.26,2.26,0,0,0-.07.6,2.18,2.18,0,0,0,.08.62,1.33,1.33,0,0,0,.22.45.93.93,0,0,0,.35.28,1.06,1.06,0,0,0,.46.1,1.16,1.16,0,0,0,.4-.06,1.21,1.21,0,0,0,.26-.13l.17-.13a.21.21,0,0,1,.13-.06.14.14,0,0,1,.13.06l.19.24a1.43,1.43,0,0,1-.62.45,2.17,2.17,0,0,1-.78.14,1.65,1.65,0,0,1-.66-.13,1.5,1.5,0,0,1-.53-.38,1.81,1.81,0,0,1-.35-.62,2.46,2.46,0,0,1-.13-.83,2.54,2.54,0,0,1,.12-.79A1.79,1.79,0,0,1,262,140a1.56,1.56,0,0,1,.56-.41,1.88,1.88,0,0,1,.76-.15,1.78,1.78,0,0,1,.7.13,1.67,1.67,0,0,1,.54.37Z"/><path class="09b498f2-629e-4b27-9e55-952cb184770b" d="M265.26,143.28v-5.55h.67V140a2,2,0,0,1,.54-.42,1.44,1.44,0,0,1,.68-.16,1.36,1.36,0,0,1,.55.1,1.07,1.07,0,0,1,.4.29,1.3,1.3,0,0,1,.24.46,2,2,0,0,1,.08.59v2.43h-.67v-2.43a1,1,0,0,0-.2-.67.73.73,0,0,0-.6-.24,1.11,1.11,0,0,0-.55.14,1.84,1.84,0,0,0-.47.39v2.81Z"/><path class="09b498f2-629e-4b27-9e55-952cb184770b" d="M270.92,139.4a1.69,1.69,0,0,1,.63.11,1.42,1.42,0,0,1,.5.33,1.51,1.51,0,0,1,.33.53,2.09,2.09,0,0,1,.12.73.44.44,0,0,1,0,.21.14.14,0,0,1-.13.05h-2.52a2.13,2.13,0,0,0,.1.63,1.29,1.29,0,0,0,.25.45,1,1,0,0,0,.37.27,1.27,1.27,0,0,0,.49.09,1.41,1.41,0,0,0,.43-.06l.31-.13.22-.13a.29.29,0,0,1,.15-.06.14.14,0,0,1,.13.06l.19.24a1.23,1.23,0,0,1-.3.26,1.77,1.77,0,0,1-.37.18,2.29,2.29,0,0,1-.41.11,2.42,2.42,0,0,1-.42,0,1.92,1.92,0,0,1-.72-.13,1.59,1.59,0,0,1-.57-.39,1.81,1.81,0,0,1-.38-.64,2.61,2.61,0,0,1-.13-.87,2.24,2.24,0,0,1,.12-.75,1.77,1.77,0,0,1,.35-.6,1.61,1.61,0,0,1,.56-.4A1.81,1.81,0,0,1,270.92,139.4Zm0,.49a1,1,0,0,0-.76.28,1.32,1.32,0,0,0-.34.78h2.06a1.38,1.38,0,0,0-.06-.43.94.94,0,0,0-.19-.33.83.83,0,0,0-.3-.22A1,1,0,0,0,270.93,139.9Z"/><path class="09b498f2-629e-4b27-9e55-952cb184770b" d="M274.08,137.73v5.55h-.67v-5.55Z"/><path class="09b498f2-629e-4b27-9e55-952cb184770b" d="M209.13,151.73a1.47,1.47,0,0,0,.59-.11,1.25,1.25,0,0,0,.44-.32,1.39,1.39,0,0,0,.28-.49,1.94,1.94,0,0,0,.1-.62v-3.28h.72v3.28a2.47,2.47,0,0,1-.15.87,2,2,0,0,1-.42.69,1.92,1.92,0,0,1-.67.46,2.47,2.47,0,0,1-1.78,0,2,2,0,0,1-.67-.46,2,2,0,0,1-.42-.69,2.47,2.47,0,0,1-.15-.87v-3.28h.72v3.28a1.94,1.94,0,0,0,.1.62,1.38,1.38,0,0,0,.28.49,1.27,1.27,0,0,0,.45.32A1.47,1.47,0,0,0,209.13,151.73Z"/><path class="09b498f2-629e-4b27-9e55-952cb184770b" d="M212.4,152.31V148.5h.4a.17.17,0,0,1,.18.14l.05.41a2.13,2.13,0,0,1,.55-.44,1.43,1.43,0,0,1,.71-.17,1.36,1.36,0,0,1,.55.1,1.07,1.07,0,0,1,.4.29,1.3,1.3,0,0,1,.24.46,2,2,0,0,1,.08.59v2.43h-.67v-2.43a1,1,0,0,0-.2-.67.73.73,0,0,0-.6-.24,1.11,1.11,0,0,0-.55.14,1.84,1.84,0,0,0-.47.39v2.81Z"/><path class="09b498f2-629e-4b27-9e55-952cb184770b" d="M216.34,151.9a.48.48,0,0,1,.13-.33.47.47,0,0,1,.51-.1.5.5,0,0,1,.15.1.45.45,0,0,1,.1.15.48.48,0,0,1-.1.52.46.46,0,0,1-.15.1.48.48,0,0,1-.37,0,.43.43,0,0,1-.15-.1.5.5,0,0,1-.1-.15A.48.48,0,0,1,216.34,151.9Z"/><path class="09b498f2-629e-4b27-9e55-952cb184770b" d="M223.47,151.2a.15.15,0,0,1,.11,0l.28.31a2.3,2.3,0,0,1-.8.6,2.71,2.71,0,0,1-1.13.21,2.64,2.64,0,0,1-1.05-.2,2.3,2.3,0,0,1-.8-.56,2.56,2.56,0,0,1-.52-.87,3.28,3.28,0,0,1-.18-1.12,3.09,3.09,0,0,1,.2-1.12,2.55,2.55,0,0,1,.55-.87,2.46,2.46,0,0,1,.85-.57,2.89,2.89,0,0,1,1.09-.2,2.56,2.56,0,0,1,1,.18,2.59,2.59,0,0,1,.76.5l-.24.33-.06.06a.16.16,0,0,1-.1,0,.18.18,0,0,1-.1,0l-.13-.09-.18-.11-.24-.11-.32-.09a2.17,2.17,0,0,0-.42,0,2,2,0,0,0-.79.15,1.76,1.76,0,0,0-.62.42,1.93,1.93,0,0,0-.4.67,2.55,2.55,0,0,0-.14.88,2.6,2.6,0,0,0,.14.9,2,2,0,0,0,.39.67,1.66,1.66,0,0,0,.59.42,1.87,1.87,0,0,0,.73.14,3,3,0,0,0,.43,0,1.82,1.82,0,0,0,.35-.09,1.47,1.47,0,0,0,.3-.15,2.3,2.3,0,0,0,.28-.22A.19.19,0,0,1,223.47,151.2Z"/><path class="09b498f2-629e-4b27-9e55-952cb184770b" d="M227.5,152.31h-.3a.35.35,0,0,1-.16,0,.17.17,0,0,1-.08-.13l-.08-.35-.29.24a1.66,1.66,0,0,1-.3.18,1.5,1.5,0,0,1-.33.11,1.88,1.88,0,0,1-.39,0,1.35,1.35,0,0,1-.41-.06,1,1,0,0,1-.33-.19.88.88,0,0,1-.23-.32,1.1,1.1,0,0,1-.08-.45.85.85,0,0,1,.12-.44,1.09,1.09,0,0,1,.4-.37,2.57,2.57,0,0,1,.72-.27,4.86,4.86,0,0,1,1.09-.1v-.3a1,1,0,0,0-.19-.68.68.68,0,0,0-.56-.23,1.19,1.19,0,0,0-.41.06,1.49,1.49,0,0,0-.29.14l-.21.14a.3.3,0,0,1-.17.06.2.2,0,0,1-.12,0,.26.26,0,0,1-.08-.09l-.12-.21a2.18,2.18,0,0,1,.68-.46,2.08,2.08,0,0,1,.8-.15,1.42,1.42,0,0,1,.56.11,1.15,1.15,0,0,1,.42.29,1.25,1.25,0,0,1,.25.46,1.94,1.94,0,0,1,.09.59Zm-1.73-.41a1.38,1.38,0,0,0,.32,0,1.25,1.25,0,0,0,.27-.1,1.46,1.46,0,0,0,.25-.16,2.23,2.23,0,0,0,.23-.21v-.79a4.45,4.45,0,0,0-.78.06,2.19,2.19,0,0,0-.52.15.74.74,0,0,0-.29.22.49.49,0,0,0-.09.29.65.65,0,0,0,0,.26.5.5,0,0,0,.13.18.52.52,0,0,0,.19.1A.88.88,0,0,0,225.77,151.9Z"/><path class="09b498f2-629e-4b27-9e55-952cb184770b" d="M228.51,152.31V148.5h.4a.17.17,0,0,1,.18.14l.05.41a2.13,2.13,0,0,1,.55-.44,1.43,1.43,0,0,1,.71-.17,1.36,1.36,0,0,1,.55.1,1.07,1.07,0,0,1,.4.29,1.3,1.3,0,0,1,.24.46,2,2,0,0,1,.08.59v2.43H231v-2.43a1,1,0,0,0-.2-.67.73.73,0,0,0-.6-.24,1.11,1.11,0,0,0-.55.14,1.84,1.84,0,0,0-.47.39v2.81Z"/><path class="09b498f2-629e-4b27-9e55-952cb184770b" d="M234.2,148.44a1.93,1.93,0,0,1,.75.14,1.6,1.6,0,0,1,.57.4,1.76,1.76,0,0,1,.36.62,2.68,2.68,0,0,1,0,1.63,1.75,1.75,0,0,1-.36.62,1.56,1.56,0,0,1-.57.39,2.11,2.11,0,0,1-1.5,0,1.57,1.57,0,0,1-.57-.39,1.76,1.76,0,0,1-.36-.62,2.66,2.66,0,0,1,0-1.62,1.77,1.77,0,0,1,.36-.62,1.61,1.61,0,0,1,.57-.4A1.93,1.93,0,0,1,234.2,148.44Zm0,3.4a1,1,0,0,0,.84-.38,1.76,1.76,0,0,0,.28-1.06,1.78,1.78,0,0,0-.28-1.06,1,1,0,0,0-.84-.38,1.15,1.15,0,0,0-.49.1.93.93,0,0,0-.35.28,1.27,1.27,0,0,0-.21.45,2.73,2.73,0,0,0,0,1.21,1.24,1.24,0,0,0,.21.45.93.93,0,0,0,.35.28A1.15,1.15,0,0,0,234.2,151.84Z"/><path class="09b498f2-629e-4b27-9e55-952cb184770b" d="M236.83,152.31V148.5h.4a.17.17,0,0,1,.18.14l.05.41a2.13,2.13,0,0,1,.55-.44,1.43,1.43,0,0,1,.71-.17,1.36,1.36,0,0,1,.55.1,1.07,1.07,0,0,1,.4.29,1.3,1.3,0,0,1,.24.46,2,2,0,0,1,.08.59v2.43h-.67v-2.43a1,1,0,0,0-.2-.67.73.73,0,0,0-.6-.24,1.11,1.11,0,0,0-.55.14,1.84,1.84,0,0,0-.47.39v2.81Z"/><path class="09b498f2-629e-4b27-9e55-952cb184770b" d="M242.26,148.44a1.88,1.88,0,0,1,.46.05,1.45,1.45,0,0,1,.39.16h1v.25c0,.08-.05.14-.16.16l-.43.06a1.16,1.16,0,0,1,.13.55,1.2,1.2,0,0,1-.11.51,1.16,1.16,0,0,1-.3.39,1.33,1.33,0,0,1-.45.25,1.77,1.77,0,0,1-.57.09,1.93,1.93,0,0,1-.5-.06.63.63,0,0,0-.18.17.31.31,0,0,0-.06.17.24.24,0,0,0,.11.21.75.75,0,0,0,.29.1,2.34,2.34,0,0,0,.41,0h.46a2.62,2.62,0,0,1,.47,0,1.43,1.43,0,0,1,.41.14.77.77,0,0,1,.29.26.79.79,0,0,1,.11.43,1,1,0,0,1-.12.48,1.29,1.29,0,0,1-.35.41,1.8,1.8,0,0,1-.56.29,2.37,2.37,0,0,1-.74.11,2.88,2.88,0,0,1-.73-.08,1.7,1.7,0,0,1-.52-.22,1,1,0,0,1-.31-.32.77.77,0,0,1-.1-.38.69.69,0,0,1,.18-.48,1.23,1.23,0,0,1,.49-.32.66.66,0,0,1-.26-.2.54.54,0,0,1-.1-.34.51.51,0,0,1,0-.17.66.66,0,0,1,.09-.17,1,1,0,0,1,.36-.3,1.2,1.2,0,0,1-.44-.42,1.16,1.16,0,0,1-.16-.61,1.18,1.18,0,0,1,.11-.51,1.11,1.11,0,0,1,.3-.39,1.35,1.35,0,0,1,.46-.25A1.82,1.82,0,0,1,242.26,148.44Zm1.18,4.07a.34.34,0,0,0-.08-.23.5.5,0,0,0-.21-.14,1.52,1.52,0,0,0-.31-.07l-.37,0h-.4a1.43,1.43,0,0,1-.39-.05,1.12,1.12,0,0,0-.35.25.5.5,0,0,0-.13.35.46.46,0,0,0,.07.24.57.57,0,0,0,.2.19,1.16,1.16,0,0,0,.34.13,2.16,2.16,0,0,0,.48,0,2.13,2.13,0,0,0,.48,0,1.21,1.21,0,0,0,.36-.14.68.68,0,0,0,.23-.22A.52.52,0,0,0,243.44,152.51Zm-1.18-2.06a1,1,0,0,0,.36-.06.7.7,0,0,0,.26-.16A.64.64,0,0,0,243,150a.89.89,0,0,0,.05-.31.74.74,0,0,0-.21-.56,1,1,0,0,0-1.23,0,.74.74,0,0,0-.21.56.87.87,0,0,0,.05.31.66.66,0,0,0,.16.24.71.71,0,0,0,.26.16A1,1,0,0,0,242.26,150.45Z"/><path class="09b498f2-629e-4b27-9e55-952cb184770b" d="M246.34,148.44a1.93,1.93,0,0,1,.75.14,1.6,1.6,0,0,1,.57.4,1.76,1.76,0,0,1,.36.62,2.68,2.68,0,0,1,0,1.63,1.75,1.75,0,0,1-.36.62,1.56,1.56,0,0,1-.57.39,2.11,2.11,0,0,1-1.5,0,1.57,1.57,0,0,1-.57-.39,1.76,1.76,0,0,1-.36-.62,2.66,2.66,0,0,1,0-1.62A1.77,1.77,0,0,1,245,149a1.61,1.61,0,0,1,.57-.4A1.93,1.93,0,0,1,246.34,148.44Zm0,3.4a1,1,0,0,0,.84-.38,1.76,1.76,0,0,0,.28-1.06,1.78,1.78,0,0,0-.28-1.06,1,1,0,0,0-.84-.38,1.15,1.15,0,0,0-.49.1.93.93,0,0,0-.35.28,1.27,1.27,0,0,0-.21.45,2.73,2.73,0,0,0,0,1.21,1.24,1.24,0,0,0,.21.45.93.93,0,0,0,.35.28A1.15,1.15,0,0,0,246.34,151.84Z"/><path class="09b498f2-629e-4b27-9e55-952cb184770b" d="M249.71,146.77v5.55H249v-5.55Z"/><path class="09b498f2-629e-4b27-9e55-952cb184770b" d="M253.67,152.31h-.3a.35.35,0,0,1-.16,0,.17.17,0,0,1-.08-.13l-.08-.35-.29.24a1.66,1.66,0,0,1-.3.18,1.5,1.5,0,0,1-.33.11,1.88,1.88,0,0,1-.39,0,1.35,1.35,0,0,1-.41-.06,1,1,0,0,1-.33-.19.88.88,0,0,1-.23-.32,1.1,1.1,0,0,1-.08-.45.85.85,0,0,1,.12-.44,1.09,1.09,0,0,1,.4-.37,2.57,2.57,0,0,1,.72-.27,4.86,4.86,0,0,1,1.09-.1v-.3a1,1,0,0,0-.19-.68.68.68,0,0,0-.56-.23,1.19,1.19,0,0,0-.41.06,1.49,1.49,0,0,0-.29.14l-.21.14a.3.3,0,0,1-.17.06.2.2,0,0,1-.12,0,.26.26,0,0,1-.08-.09l-.12-.21a2.18,2.18,0,0,1,.68-.46,2.08,2.08,0,0,1,.8-.15,1.42,1.42,0,0,1,.56.11,1.15,1.15,0,0,1,.42.29,1.25,1.25,0,0,1,.25.46,1.94,1.94,0,0,1,.09.59Zm-1.73-.41a1.38,1.38,0,0,0,.32,0,1.25,1.25,0,0,0,.27-.1,1.46,1.46,0,0,0,.25-.16,2.23,2.23,0,0,0,.23-.21v-.79a4.45,4.45,0,0,0-.78.06,2.19,2.19,0,0,0-.52.15.74.74,0,0,0-.29.22.49.49,0,0,0-.09.29.65.65,0,0,0,0,.26.5.5,0,0,0,.13.18.52.52,0,0,0,.19.1A.88.88,0,0,0,251.94,151.9Z"/><path class="09b498f2-629e-4b27-9e55-952cb184770b" d="M254.48,151.85a.42.42,0,0,1,0-.16.4.4,0,0,1,.09-.14.41.41,0,0,1,.14-.09.45.45,0,0,1,.18,0,.47.47,0,0,1,.2,0,.4.4,0,0,1,.15.12.51.51,0,0,1,.09.17.68.68,0,0,1,0,.21,1.38,1.38,0,0,1,0,.35,1.82,1.82,0,0,1-.14.36,2.11,2.11,0,0,1-.22.35,2.17,2.17,0,0,1-.3.31l-.11-.11a.14.14,0,0,1,0-.11.15.15,0,0,1,.05-.1l.1-.11.12-.16a1.37,1.37,0,0,0,.11-.2.92.92,0,0,0,.07-.23h0a.44.44,0,0,1-.18,0,.4.4,0,0,1-.14-.1.42.42,0,0,1-.09-.15A.52.52,0,0,1,254.48,151.85Z"/><path class="09b498f2-629e-4b27-9e55-952cb184770b" d="M262.79,149.62a3.32,3.32,0,0,1-.08.72,2.9,2.9,0,0,1-.22.64,2.5,2.5,0,0,1-.36.54,2.4,2.4,0,0,1-.47.42l1.38,1.5h-.6a.69.69,0,0,1-.24,0,.47.47,0,0,1-.19-.13l-.94-1a3,3,0,0,1-.92.14,2.8,2.8,0,0,1-1.08-.2,2.41,2.41,0,0,1-.83-.57,2.55,2.55,0,0,1-.54-.87,3.33,3.33,0,0,1,0-2.23,2.56,2.56,0,0,1,.54-.87,2.42,2.42,0,0,1,.83-.57,3,3,0,0,1,2.16,0,2.4,2.4,0,0,1,.84.57,2.55,2.55,0,0,1,.54.87A3.14,3.14,0,0,1,262.79,149.62Zm-.74,0a2.76,2.76,0,0,0-.13-.89,1.91,1.91,0,0,0-.38-.67,1.67,1.67,0,0,0-.6-.42,2.17,2.17,0,0,0-1.57,0,1.69,1.69,0,0,0-.6.42,1.88,1.88,0,0,0-.38.67,3,3,0,0,0,0,1.78,1.87,1.87,0,0,0,.38.67,1.64,1.64,0,0,0,.6.42,2.18,2.18,0,0,0,1.57,0,1.62,1.62,0,0,0,.6-.42,1.89,1.89,0,0,0,.38-.67A2.74,2.74,0,0,0,262,149.62Z"/><path class="09b498f2-629e-4b27-9e55-952cb184770b" d="M264.3,146.94a.38.38,0,0,1,.11.1l3.1,4.07q0-.1,0-.19c0-.06,0-.12,0-.18v-3.82h.64v5.4h-.37a.31.31,0,0,1-.14,0,.37.37,0,0,1-.11-.1l-3.1-4.06q0,.09,0,.18c0,.06,0,.12,0,.17v3.84h-.64v-5.4h.37A.32.32,0,0,1,264.3,146.94Z"/><path class="09b498f2-629e-4b27-9e55-952cb184770b" d="M269.11,151.9a.48.48,0,0,1,.13-.33.47.47,0,0,1,.51-.1.5.5,0,0,1,.15.1.45.45,0,0,1,.1.15.48.48,0,0,1-.1.52.46.46,0,0,1-.15.1.48.48,0,0,1-.37,0,.43.43,0,0,1-.15-.1.5.5,0,0,1-.1-.15A.48.48,0,0,1,269.11,151.9Z"/><path class="09b498f2-629e-4b27-9e55-952cb184770b" d="M272.62,146.86a2,2,0,0,1,.64.1,1.48,1.48,0,0,1,.51.3,1.37,1.37,0,0,1,.34.47,1.53,1.53,0,0,1,.12.63,1.69,1.69,0,0,1-.09.56,2.28,2.28,0,0,1-.24.49,3.61,3.61,0,0,1-.35.46l-.42.45-1.41,1.45.3-.07.29,0h1.8a.23.23,0,0,1,.17.06.23.23,0,0,1,.06.17v.41h-3.58v-.23a.43.43,0,0,1,0-.15.38.38,0,0,1,.09-.14l1.72-1.74.39-.42a3.13,3.13,0,0,0,.3-.41,1.91,1.91,0,0,0,.19-.41,1.45,1.45,0,0,0,.07-.45,1.07,1.07,0,0,0-.08-.42.8.8,0,0,0-.21-.3.87.87,0,0,0-.31-.17,1.19,1.19,0,0,0-.38-.06,1.13,1.13,0,0,0-.37.06,1,1,0,0,0-.53.42,1,1,0,0,0-.13.32.3.3,0,0,1-.09.16.24.24,0,0,1-.16,0h-.09l-.35-.06a2,2,0,0,1,.2-.65,1.56,1.56,0,0,1,.38-.48A1.62,1.62,0,0,1,272,147,2,2,0,0,1,272.62,146.86Z"/><path class="09b498f2-629e-4b27-9e55-952cb184770b" d="M184.92,160.24a.15.15,0,0,1,.11,0l.28.31a2.3,2.3,0,0,1-.8.6,2.71,2.71,0,0,1-1.13.21,2.64,2.64,0,0,1-1.05-.2,2.3,2.3,0,0,1-.8-.56,2.56,2.56,0,0,1-.52-.87,3.28,3.28,0,0,1-.18-1.12,3.09,3.09,0,0,1,.2-1.12,2.55,2.55,0,0,1,.55-.87,2.46,2.46,0,0,1,.85-.57,2.89,2.89,0,0,1,1.09-.2,2.56,2.56,0,0,1,1,.18,2.59,2.59,0,0,1,.76.5l-.24.33L185,157a.16.16,0,0,1-.1,0,.18.18,0,0,1-.1,0l-.13-.09-.18-.11-.24-.11-.32-.09a2.17,2.17,0,0,0-.42,0,2,2,0,0,0-.79.15,1.76,1.76,0,0,0-.62.42,1.93,1.93,0,0,0-.4.67,2.55,2.55,0,0,0-.14.88,2.6,2.6,0,0,0,.14.9,2,2,0,0,0,.39.67,1.66,1.66,0,0,0,.59.42,1.87,1.87,0,0,0,.73.14,3,3,0,0,0,.43,0,1.82,1.82,0,0,0,.35-.09,1.47,1.47,0,0,0,.3-.15,2.3,2.3,0,0,0,.28-.22A.19.19,0,0,1,184.92,160.24Z"/><path class="09b498f2-629e-4b27-9e55-952cb184770b" d="M187,156.34a.44.44,0,0,1,0,.18.52.52,0,0,1-.11.15.46.46,0,0,1-.15.1.45.45,0,0,1-.18,0,.43.43,0,0,1-.18,0,.47.47,0,0,1-.15-.1.5.5,0,0,1-.1-.15.46.46,0,0,1,0-.18.49.49,0,0,1,0-.19.49.49,0,0,1,.1-.15.48.48,0,0,1,.15-.1.43.43,0,0,1,.18,0,.45.45,0,0,1,.18,0,.48.48,0,0,1,.15.1.52.52,0,0,1,.11.15A.47.47,0,0,1,187,156.34Zm-.15,1.2v3.82h-.67v-3.82Z"/><path class="09b498f2-629e-4b27-9e55-952cb184770b" d="M190.74,161.35a.17.17,0,0,1-.18-.14l-.06-.46a2,2,0,0,1-.56.48,1.42,1.42,0,0,1-.72.18,1.36,1.36,0,0,1-.59-.13,1.23,1.23,0,0,1-.45-.37,1.76,1.76,0,0,1-.29-.61,3.16,3.16,0,0,1-.1-.84,2.64,2.64,0,0,1,.11-.79,1.92,1.92,0,0,1,.32-.63,1.48,1.48,0,0,1,1.2-.57,1.36,1.36,0,0,1,.59.12,1.4,1.4,0,0,1,.44.33v-2.12h.67v5.55Zm-1.29-.49a1.07,1.07,0,0,0,.57-.15,1.64,1.64,0,0,0,.45-.42v-1.85a1.05,1.05,0,0,0-.4-.35,1.16,1.16,0,0,0-.48-.1,1,1,0,0,0-.82.38,1.78,1.78,0,0,0-.28,1.08,2.74,2.74,0,0,0,.06.64,1.23,1.23,0,0,0,.19.44.74.74,0,0,0,.3.25A1,1,0,0,0,189.45,160.86Z"/><path class="09b498f2-629e-4b27-9e55-952cb184770b" d="M195,161.35h-.3a.35.35,0,0,1-.16,0,.17.17,0,0,1-.08-.13l-.08-.35-.29.24a1.66,1.66,0,0,1-.3.18,1.5,1.5,0,0,1-.33.11,1.88,1.88,0,0,1-.39,0,1.35,1.35,0,0,1-.41-.06,1,1,0,0,1-.33-.19.88.88,0,0,1-.23-.32,1.1,1.1,0,0,1-.08-.45.85.85,0,0,1,.12-.44,1.09,1.09,0,0,1,.4-.37,2.57,2.57,0,0,1,.72-.27,4.86,4.86,0,0,1,1.09-.1v-.3a1,1,0,0,0-.19-.68.68.68,0,0,0-.56-.23,1.19,1.19,0,0,0-.41.06,1.49,1.49,0,0,0-.29.14l-.21.14a.3.3,0,0,1-.17.06.2.2,0,0,1-.12,0,.26.26,0,0,1-.08-.09l-.12-.21a2.18,2.18,0,0,1,.68-.46,2.08,2.08,0,0,1,.8-.15,1.42,1.42,0,0,1,.56.11,1.15,1.15,0,0,1,.42.29,1.25,1.25,0,0,1,.25.46,1.94,1.94,0,0,1,.09.59Zm-1.73-.41a1.38,1.38,0,0,0,.32,0,1.25,1.25,0,0,0,.27-.1,1.46,1.46,0,0,0,.25-.16,2.23,2.23,0,0,0,.23-.21v-.79a4.45,4.45,0,0,0-.78.06,2.19,2.19,0,0,0-.52.15.74.74,0,0,0-.29.22.49.49,0,0,0-.09.29.65.65,0,0,0,0,.26.5.5,0,0,0,.13.18.52.52,0,0,0,.19.1A.88.88,0,0,0,193.31,160.94Z"/><path class="09b498f2-629e-4b27-9e55-952cb184770b" d="M198.72,161.35a.17.17,0,0,1-.18-.14l-.06-.46a2,2,0,0,1-.56.48,1.42,1.42,0,0,1-.72.18,1.36,1.36,0,0,1-.59-.13,1.23,1.23,0,0,1-.45-.37,1.76,1.76,0,0,1-.29-.61,3.16,3.16,0,0,1-.1-.84,2.64,2.64,0,0,1,.11-.79,1.92,1.92,0,0,1,.32-.63,1.48,1.48,0,0,1,1.2-.57,1.36,1.36,0,0,1,.59.12,1.4,1.4,0,0,1,.44.33v-2.12h.67v5.55Zm-1.29-.49a1.07,1.07,0,0,0,.57-.15,1.64,1.64,0,0,0,.45-.42v-1.85a1.05,1.05,0,0,0-.4-.35,1.16,1.16,0,0,0-.48-.1,1,1,0,0,0-.82.38,1.78,1.78,0,0,0-.28,1.08,2.74,2.74,0,0,0,.06.64,1.23,1.23,0,0,0,.19.44.74.74,0,0,0,.3.25A1,1,0,0,0,197.43,160.86Z"/><path class="09b498f2-629e-4b27-9e55-952cb184770b" d="M201.73,157.48a1.69,1.69,0,0,1,.63.11,1.42,1.42,0,0,1,.5.33,1.51,1.51,0,0,1,.33.53,2.09,2.09,0,0,1,.12.73.44.44,0,0,1,0,.21.14.14,0,0,1-.13.05h-2.52a2.13,2.13,0,0,0,.1.63,1.29,1.29,0,0,0,.25.45,1,1,0,0,0,.37.27,1.27,1.27,0,0,0,.49.09,1.41,1.41,0,0,0,.43-.06l.31-.13.22-.13a.29.29,0,0,1,.15-.06.14.14,0,0,1,.13.06l.19.24a1.23,1.23,0,0,1-.3.26,1.77,1.77,0,0,1-.37.18,2.29,2.29,0,0,1-.41.11,2.42,2.42,0,0,1-.42,0,1.92,1.92,0,0,1-.72-.13,1.59,1.59,0,0,1-.57-.39,1.81,1.81,0,0,1-.38-.64,2.61,2.61,0,0,1-.13-.87,2.24,2.24,0,0,1,.12-.75,1.77,1.77,0,0,1,.35-.6,1.61,1.61,0,0,1,.56-.4A1.81,1.81,0,0,1,201.73,157.48Zm0,.49a1,1,0,0,0-.76.28,1.32,1.32,0,0,0-.34.78h2.06a1.38,1.38,0,0,0-.06-.43.94.94,0,0,0-.19-.33.83.83,0,0,0-.3-.22A1,1,0,0,0,201.75,158Z"/><path class="09b498f2-629e-4b27-9e55-952cb184770b" d="M208.26,161.35a.17.17,0,0,1-.18-.14l-.06-.46a2,2,0,0,1-.56.48,1.42,1.42,0,0,1-.72.18,1.36,1.36,0,0,1-.59-.13,1.23,1.23,0,0,1-.45-.37,1.76,1.76,0,0,1-.29-.61,3.16,3.16,0,0,1-.1-.84,2.64,2.64,0,0,1,.11-.79,1.92,1.92,0,0,1,.32-.63,1.48,1.48,0,0,1,1.2-.57,1.36,1.36,0,0,1,.59.12,1.4,1.4,0,0,1,.44.33v-2.12h.67v5.55Zm-1.29-.49a1.07,1.07,0,0,0,.57-.15,1.64,1.64,0,0,0,.45-.42v-1.85a1.05,1.05,0,0,0-.4-.35,1.16,1.16,0,0,0-.48-.1,1,1,0,0,0-.82.38,1.78,1.78,0,0,0-.28,1.08,2.74,2.74,0,0,0,.06.64,1.23,1.23,0,0,0,.19.44.74.74,0,0,0,.3.25A1,1,0,0,0,207,160.86Z"/><path class="09b498f2-629e-4b27-9e55-952cb184770b" d="M211.28,157.48a1.69,1.69,0,0,1,.63.11,1.42,1.42,0,0,1,.5.33,1.51,1.51,0,0,1,.33.53,2.09,2.09,0,0,1,.12.73.44.44,0,0,1,0,.21.14.14,0,0,1-.13.05h-2.52a2.13,2.13,0,0,0,.1.63,1.29,1.29,0,0,0,.25.45,1,1,0,0,0,.37.27,1.27,1.27,0,0,0,.49.09,1.41,1.41,0,0,0,.43-.06l.31-.13.22-.13a.29.29,0,0,1,.15-.06.14.14,0,0,1,.13.06l.19.24a1.23,1.23,0,0,1-.3.26,1.77,1.77,0,0,1-.37.18,2.29,2.29,0,0,1-.41.11,2.42,2.42,0,0,1-.42,0,1.92,1.92,0,0,1-.72-.13,1.59,1.59,0,0,1-.57-.39,1.81,1.81,0,0,1-.38-.64,2.61,2.61,0,0,1-.13-.87,2.24,2.24,0,0,1,.12-.75,1.77,1.77,0,0,1,.35-.6,1.61,1.61,0,0,1,.56-.4A1.81,1.81,0,0,1,211.28,157.48Zm0,.49a1,1,0,0,0-.76.28,1.32,1.32,0,0,0-.34.78h2.06a1.38,1.38,0,0,0-.06-.43.94.94,0,0,0-.19-.33.83.83,0,0,0-.3-.22A1,1,0,0,0,211.29,158Z"/><path class="09b498f2-629e-4b27-9e55-952cb184770b" d="M218.89,156v.61h-1.73v4.78h-.73v-4.78H214.7V156Z"/><path class="09b498f2-629e-4b27-9e55-952cb184770b" d="M220.27,157.48a1.69,1.69,0,0,1,.63.11,1.42,1.42,0,0,1,.5.33,1.51,1.51,0,0,1,.33.53,2.09,2.09,0,0,1,.12.73.44.44,0,0,1,0,.21.14.14,0,0,1-.13.05h-2.52a2.13,2.13,0,0,0,.1.63,1.29,1.29,0,0,0,.25.45,1,1,0,0,0,.37.27,1.27,1.27,0,0,0,.49.09,1.41,1.41,0,0,0,.43-.06l.31-.13.22-.13a.29.29,0,0,1,.15-.06.14.14,0,0,1,.13.06l.19.24a1.23,1.23,0,0,1-.3.26,1.77,1.77,0,0,1-.37.18,2.29,2.29,0,0,1-.41.11,2.42,2.42,0,0,1-.42,0,1.92,1.92,0,0,1-.72-.13,1.59,1.59,0,0,1-.57-.39,1.81,1.81,0,0,1-.38-.64,2.61,2.61,0,0,1-.13-.87,2.24,2.24,0,0,1,.12-.75,1.77,1.77,0,0,1,.35-.6,1.61,1.61,0,0,1,.56-.4A1.81,1.81,0,0,1,220.27,157.48Zm0,.49a1,1,0,0,0-.76.28,1.32,1.32,0,0,0-.34.78h2.06a1.38,1.38,0,0,0-.06-.43.94.94,0,0,0-.19-.33.83.83,0,0,0-.3-.22A1,1,0,0,0,220.28,158Z"/><path class="09b498f2-629e-4b27-9e55-952cb184770b" d="M223.83,161.41a.91.91,0,0,1-.69-.25,1,1,0,0,1-.24-.73V158.1h-.46a.14.14,0,0,1-.1,0,.14.14,0,0,1,0-.11v-.27l.62-.08.15-1.18a.14.14,0,0,1,0-.09.16.16,0,0,1,.1,0h.34v1.31h1.08v.49h-1.08v2.29a.49.49,0,0,0,.12.36.4.4,0,0,0,.3.12.53.53,0,0,0,.18,0l.13-.06.1-.06.07,0a.11.11,0,0,1,.09.06l.19.32a1.24,1.24,0,0,1-.42.25A1.4,1.4,0,0,1,223.83,161.41Z"/><path class="09b498f2-629e-4b27-9e55-952cb184770b" d="M227,157.48a1.69,1.69,0,0,1,.63.11,1.42,1.42,0,0,1,.5.33,1.51,1.51,0,0,1,.33.53,2.09,2.09,0,0,1,.12.73.44.44,0,0,1,0,.21.14.14,0,0,1-.13.05h-2.52a2.13,2.13,0,0,0,.1.63,1.29,1.29,0,0,0,.25.45,1,1,0,0,0,.37.27,1.27,1.27,0,0,0,.49.09,1.41,1.41,0,0,0,.43-.06l.31-.13.22-.13a.29.29,0,0,1,.15-.06.14.14,0,0,1,.13.06l.19.24a1.23,1.23,0,0,1-.3.26,1.77,1.77,0,0,1-.37.18,2.29,2.29,0,0,1-.41.11,2.42,2.42,0,0,1-.42,0,1.92,1.92,0,0,1-.72-.13,1.59,1.59,0,0,1-.57-.39,1.81,1.81,0,0,1-.38-.64,2.61,2.61,0,0,1-.13-.87,2.24,2.24,0,0,1,.12-.75,1.77,1.77,0,0,1,.35-.6,1.61,1.61,0,0,1,.56-.4A1.81,1.81,0,0,1,227,157.48Zm0,.49a1,1,0,0,0-.76.28,1.32,1.32,0,0,0-.34.78h2.06a1.38,1.38,0,0,0-.06-.43.94.94,0,0,0-.19-.33.83.83,0,0,0-.3-.22A1,1,0,0,0,227,158Z"/><path class="09b498f2-629e-4b27-9e55-952cb184770b" d="M229.2,160.89a.42.42,0,0,1,0-.16.4.4,0,0,1,.09-.14.41.41,0,0,1,.14-.09.45.45,0,0,1,.18,0,.47.47,0,0,1,.2,0,.4.4,0,0,1,.15.12.51.51,0,0,1,.09.17.68.68,0,0,1,0,.21,1.38,1.38,0,0,1,0,.35,1.82,1.82,0,0,1-.14.36,2.11,2.11,0,0,1-.22.35,2.17,2.17,0,0,1-.3.31l-.11-.11a.14.14,0,0,1,0-.11.15.15,0,0,1,.05-.1l.1-.11.12-.16a1.37,1.37,0,0,0,.11-.2.92.92,0,0,0,.07-.23h0a.44.44,0,0,1-.18,0,.4.4,0,0,1-.14-.1.42.42,0,0,1-.09-.15A.52.52,0,0,1,229.2,160.89Z"/><path class="09b498f2-629e-4b27-9e55-952cb184770b" d="M235.26,159.59l.08.2.08-.2.09-.19,1.81-3.32a.22.22,0,0,1,.1-.11l.15,0h.54v5.4h-.64v-4c0-.05,0-.11,0-.17s0-.12,0-.18l-1.84,3.37a.29.29,0,0,1-.26.17h-.11a.29.29,0,0,1-.26-.17L233.14,157c0,.07,0,.13,0,.19s0,.12,0,.17v4h-.64V156h.54l.15,0a.22.22,0,0,1,.1.11l1.85,3.32A1.42,1.42,0,0,1,235.26,159.59Z"/><path class="09b498f2-629e-4b27-9e55-952cb184770b" d="M240.84,157.48a1.93,1.93,0,0,1,.75.14,1.6,1.6,0,0,1,.57.4,1.76,1.76,0,0,1,.36.62,2.68,2.68,0,0,1,0,1.63,1.75,1.75,0,0,1-.36.62,1.56,1.56,0,0,1-.57.39,2.11,2.11,0,0,1-1.5,0,1.57,1.57,0,0,1-.57-.39,1.76,1.76,0,0,1-.36-.62,2.66,2.66,0,0,1,0-1.62,1.77,1.77,0,0,1,.36-.62,1.61,1.61,0,0,1,.57-.4A1.93,1.93,0,0,1,240.84,157.48Zm0,3.4a1,1,0,0,0,.84-.38,1.76,1.76,0,0,0,.28-1.06,1.78,1.78,0,0,0-.28-1.06,1,1,0,0,0-.84-.38,1.15,1.15,0,0,0-.49.1.93.93,0,0,0-.35.28,1.27,1.27,0,0,0-.21.45,2.73,2.73,0,0,0,0,1.21,1.24,1.24,0,0,0,.21.45.93.93,0,0,0,.35.28A1.15,1.15,0,0,0,240.84,160.88Z"/><path class="09b498f2-629e-4b27-9e55-952cb184770b" d="M244.42,162.28h.05l.07,0,.1,0h.14a.39.39,0,0,0,.24-.06.19.19,0,0,0,.08-.16.18.18,0,0,0,0-.12.33.33,0,0,0-.12-.08l-.19-.06-.25,0,.14-.46a1.61,1.61,0,0,1-.57-.19,1.49,1.49,0,0,1-.45-.4,1.92,1.92,0,0,1-.3-.59,2.72,2.72,0,0,1,0-1.56,1.79,1.79,0,0,1,.34-.62,1.56,1.56,0,0,1,.56-.41,1.88,1.88,0,0,1,.76-.15,1.78,1.78,0,0,1,.7.13,1.67,1.67,0,0,1,.54.37l-.18.24-.06.06a.14.14,0,0,1-.09,0,.21.21,0,0,1-.12,0l-.17-.1-.25-.1a1.16,1.16,0,0,0-.35,0,1.14,1.14,0,0,0-.49.1.94.94,0,0,0-.36.29,1.32,1.32,0,0,0-.22.46,2.26,2.26,0,0,0-.07.6,2.18,2.18,0,0,0,.08.62,1.33,1.33,0,0,0,.22.45.93.93,0,0,0,.35.28,1.06,1.06,0,0,0,.46.1,1.16,1.16,0,0,0,.4-.06,1.21,1.21,0,0,0,.26-.13l.17-.13a.21.21,0,0,1,.13-.06l.07,0,.05,0,.19.24a1.43,1.43,0,0,1-.54.41,2.11,2.11,0,0,1-.68.17l-.06.22a1.13,1.13,0,0,1,.49.21.42.42,0,0,1,.15.33.4.4,0,0,1-.06.22.52.52,0,0,1-.17.16.83.83,0,0,1-.26.1,1.43,1.43,0,0,1-.33,0,1.29,1.29,0,0,1-.29,0l-.25-.08.06-.21A.09.09,0,0,1,244.42,162.28Z"/><path class="09b498f2-629e-4b27-9e55-952cb184770b" d="M249.74,161.35h-.3a.35.35,0,0,1-.16,0,.17.17,0,0,1-.08-.13l-.08-.35-.29.24a1.66,1.66,0,0,1-.3.18,1.5,1.5,0,0,1-.33.11,1.88,1.88,0,0,1-.39,0,1.35,1.35,0,0,1-.41-.06,1,1,0,0,1-.33-.19.88.88,0,0,1-.23-.32,1.1,1.1,0,0,1-.08-.45.85.85,0,0,1,.12-.44,1.09,1.09,0,0,1,.4-.37,2.57,2.57,0,0,1,.72-.27,4.86,4.86,0,0,1,1.09-.1v-.3a1,1,0,0,0-.19-.68.68.68,0,0,0-.56-.23,1.19,1.19,0,0,0-.41.06,1.49,1.49,0,0,0-.29.14l-.21.14a.3.3,0,0,1-.17.06.2.2,0,0,1-.12,0,.26.26,0,0,1-.08-.09l-.12-.21a2.18,2.18,0,0,1,.68-.46,2.08,2.08,0,0,1,.8-.15,1.42,1.42,0,0,1,.56.11,1.15,1.15,0,0,1,.42.29,1.25,1.25,0,0,1,.25.46,1.94,1.94,0,0,1,.09.59Zm-1.73-.41a1.38,1.38,0,0,0,.32,0,1.25,1.25,0,0,0,.27-.1,1.46,1.46,0,0,0,.25-.16,2.23,2.23,0,0,0,.23-.21v-.79a4.45,4.45,0,0,0-.78.06,2.19,2.19,0,0,0-.52.15.74.74,0,0,0-.29.22.49.49,0,0,0-.09.29.65.65,0,0,0,0,.26.5.5,0,0,0,.13.18.52.52,0,0,0,.19.1A.88.88,0,0,0,248,160.94Z"/><path class="09b498f2-629e-4b27-9e55-952cb184770b" d="M250.75,161.35v-3.82h.4a.17.17,0,0,1,.18.14l0,.39a2,2,0,0,1,.47-.43,1.1,1.1,0,0,1,.6-.17.89.89,0,0,1,.62.21.34.34,0,1,0,.55.22,1.18,1.18,0,0,1,.29-.25,1.21,1.21,0,0,1,.34-.14,1.51,1.51,0,0,1,.37,0,1.4,1.4,0,0,1,.53.1,1.06,1.06,0,0,1,.4.28,1.26,1.26,0,0,1,.25.45,2,2,0,0,1,.09.62v2.43h-.67v-2.43a1,1,0,0,0-.19-.68.69.69,0,0,0-.56-.23.84.84,0,0,0-.31.06.74.74,0,0,0-.26.17.79.79,0,0,0-.18.28,1.1,1.1,0,0,0-.07.4v2.43H253v-2.43a1.07,1.07,0,0,0-.18-.69.65.65,0,0,0-.53-.23.85.85,0,0,0-.46.13,1.53,1.53,0,0,0-.39.36v2.84Z"/><path class="09b498f2-629e-4b27-9e55-952cb184770b" d="M256.92,161.35v-5.55h.67v2.28a2,2,0,0,1,.54-.44,1.43,1.43,0,0,1,.7-.17,1.39,1.39,0,0,1,.59.12,1.2,1.2,0,0,1,.45.37,1.79,1.79,0,0,1,.29.61,3.14,3.14,0,0,1,.1.84,2.64,2.64,0,0,1-.11.79,1.9,1.9,0,0,1-.32.63,1.49,1.49,0,0,1-1.2.57,1.26,1.26,0,0,1-.62-.14,1.41,1.41,0,0,1-.45-.4l0,.35a.16.16,0,0,1-.17.14Zm1.69-3.34a1.07,1.07,0,0,0-.57.15,1.64,1.64,0,0,0-.45.42v1.85a1,1,0,0,0,.4.35,1.15,1.15,0,0,0,.49.1,1,1,0,0,0,.82-.38,1.78,1.78,0,0,0,.29-1.08,2.76,2.76,0,0,0-.07-.64,1.27,1.27,0,0,0-.19-.44.74.74,0,0,0-.3-.25A1,1,0,0,0,258.61,158Z"/><path class="09b498f2-629e-4b27-9e55-952cb184770b" d="M262,156.34a.44.44,0,0,1,0,.18.52.52,0,0,1-.11.15.46.46,0,0,1-.15.1.45.45,0,0,1-.18,0,.43.43,0,0,1-.18,0,.47.47,0,0,1-.15-.1.5.5,0,0,1-.1-.15.46.46,0,0,1,0-.18.49.49,0,0,1,0-.19.49.49,0,0,1,.1-.15.48.48,0,0,1,.15-.1.43.43,0,0,1,.18,0,.45.45,0,0,1,.18,0,.48.48,0,0,1,.15.1.52.52,0,0,1,.11.15A.47.47,0,0,1,262,156.34Zm-.15,1.2v3.82h-.67v-3.82Z"/><path class="09b498f2-629e-4b27-9e55-952cb184770b" d="M266.06,157.54v5.11h-.67v-1.86a2,2,0,0,1-.54.45,1.41,1.41,0,0,1-.7.17,1.36,1.36,0,0,1-.59-.13,1.23,1.23,0,0,1-.45-.37,1.76,1.76,0,0,1-.29-.61,3.16,3.16,0,0,1-.1-.84,2.64,2.64,0,0,1,.11-.79,1.92,1.92,0,0,1,.32-.63,1.48,1.48,0,0,1,1.2-.57,1.35,1.35,0,0,1,.62.13,1.48,1.48,0,0,1,.46.37l0-.3a.17.17,0,0,1,.18-.14Zm-1.69,3.33a1.07,1.07,0,0,0,.57-.15,1.64,1.64,0,0,0,.45-.42v-1.85a1.07,1.07,0,0,0-.4-.34,1.12,1.12,0,0,0-.49-.1,1,1,0,0,0-.82.38,1.78,1.78,0,0,0-.28,1.08,2.74,2.74,0,0,0,.06.64,1.23,1.23,0,0,0,.19.44.74.74,0,0,0,.3.25A1,1,0,0,0,264.37,160.86Z"/><path class="09b498f2-629e-4b27-9e55-952cb184770b" d="M267.75,157.54V160a1,1,0,0,0,.2.67.74.74,0,0,0,.6.24,1.13,1.13,0,0,0,.55-.14,1.7,1.7,0,0,0,.47-.39v-2.81h.67v3.82h-.4a.17.17,0,0,1-.18-.14l-.05-.41a2.09,2.09,0,0,1-.55.44,1.45,1.45,0,0,1-.7.17,1.37,1.37,0,0,1-.55-.1,1.08,1.08,0,0,1-.4-.29,1.23,1.23,0,0,1-.24-.46,2,2,0,0,1-.08-.59v-2.43Z"/><path class="09b498f2-629e-4b27-9e55-952cb184770b" d="M272.83,157.48a1.69,1.69,0,0,1,.63.11,1.42,1.42,0,0,1,.5.33,1.51,1.51,0,0,1,.33.53,2.09,2.09,0,0,1,.12.73.44.44,0,0,1,0,.21.14.14,0,0,1-.13.05h-2.52a2.13,2.13,0,0,0,.1.63,1.29,1.29,0,0,0,.25.45,1,1,0,0,0,.37.27,1.27,1.27,0,0,0,.49.09,1.41,1.41,0,0,0,.43-.06l.31-.13.22-.13a.29.29,0,0,1,.15-.06.14.14,0,0,1,.13.06l.19.24a1.23,1.23,0,0,1-.3.26,1.77,1.77,0,0,1-.37.18,2.29,2.29,0,0,1-.41.11,2.42,2.42,0,0,1-.42,0,1.92,1.92,0,0,1-.72-.13,1.59,1.59,0,0,1-.57-.39,1.81,1.81,0,0,1-.38-.64,2.61,2.61,0,0,1-.13-.87,2.24,2.24,0,0,1,.12-.75,1.77,1.77,0,0,1,.35-.6,1.61,1.61,0,0,1,.56-.4A1.81,1.81,0,0,1,272.83,157.48Zm0,.49a1,1,0,0,0-.76.28,1.32,1.32,0,0,0-.34.78h2.06a1.38,1.38,0,0,0-.06-.43.94.94,0,0,0-.19-.33.83.83,0,0,0-.3-.22A1,1,0,0,0,272.85,158Z"/></g></g></g></svg>