<svg xmlns="http://www.w3.org/2000/svg" xmlns:xlink="http://www.w3.org/1999/xlink" viewBox="0 0 320.92 154.31"><defs><style>.\36 fddda6d-3c6d-44dc-81d2-663abb2dc595{fill:url(#66579618-3591-46b1-bc77-592b6ba2953a);}.\32 2789513-daf9-42f5-b3be-d0d9ed7f3af6{fill:url(#2be74ff2-877d-47ee-9035-52b508e8b97b);}.\39 54ddc3c-c836-4109-bc5e-dbb22b2ff086{fill:url(#18dc7b0e-46b2-43ca-ab4d-6ad2220e144e);}.\37 a49bbe1-519a-4fbd-ac90-9e6d68b80052{fill:url(#2750e50e-8fba-4a22-b9f7-1b51a88ac220);}.\34 c78df44-4ce4-4e24-a18c-8649a6f4a7ca{isolation:isolate;}.\35 4057ef4-836e-4b62-96d7-cd635514566d{fill:url(#4bfb2a00-da02-4f62-8753-bd60cb235367);}.\31 543fcde-0737-4636-a688-92f4319efbda{fill:#5f6767;}.e250b97a-7178-4d2e-822b-ccbf8935064a{fill:url(#e4bde0b6-014a-498e-9dfc-1acd737c7932);}.\34 5c9eaa5-2a64-4607-bd24-39df97fdb4b9{fill:url(#17af1b88-bf49-444c-a690-e22f2031f015);}.\32 3b3f539-6144-42aa-a220-54945804d1f3{fill:url(#0297b0f2-7814-4ab5-b4e2-b28bd8b5c9f7);}.\37 b8aa795-fc23-4b0b-a045-1a1849c66c91{fill:url(#f4761dd2-bc0b-4361-a18b-244cb47edf22);}.\35 f6caaf2-8e49-4a9e-804f-ae3c448b2ed1{fill:url(#79856128-82d0-4c5d-94e7-1da53c20eb5d);}.\30 96d9aee-6b2a-46f8-864a-bb3f3f539289,.\33 a8fea6d-555a-488d-999a-91ca4162998f,.\33 e649dab-5fa7-4f53-af9e-3d5649a9c816,.\34 1834e9e-1a62-486b-a994-d5a18b29f2a3,.\35 41e7bfc-21d6-4051-92f4-d7bee7604816,.d9a4b5cc-8e62-481b-af72-a77b45f28cec{mix-blend-mode:overlay;}.\34 1834e9e-1a62-486b-a994-d5a18b29f2a3{fill:url(#e060a739-b67b-4194-8946-b28ba146d876);}.\30 c12a692-8110-40b0-80a4-d92496b717b7{mask:url(#f4bc8462-fcd6-4daa-b40a-9ec8c5a223f3);}.\34 95afadd-e793-4b0e-998c-fb806e0fc679,.b237cdf6-effe-45a0-b005-0998f51d72a8,.da5555a8-2ea1-405e-a5c3-62a5a1e68c3f,.e51bdaab-a8ae-4d67-ac79-bf1711e25c2a{opacity:0.33;}.\34 95afadd-e793-4b0e-998c-fb806e0fc679{fill:url(#cd11023a-710d-4b8d-b14d-6ee3e5e9f3b6);}.\32 74805aa-b612-4f44-a4a2-8b207aedb929{mask:url(#1ddcd3d4-4290-482b-8c17-7653bd478018);}.e51bdaab-a8ae-4d67-ac79-bf1711e25c2a{fill:url(#8a73bd18-fb71-4b28-872f-ba990835e78c);}.d1cd73f6-3e79-4bad-96b2-8e490d658934{fill:#231f20;}.\30 96d9aee-6b2a-46f8-864a-bb3f3f539289{fill:url(#190a5da7-1fef-44b6-b3d3-37c62bd56a31);}.cb020bf7-462f-40d8-a7d6-0467e58d13df{fill:#fff;}.\31 bbff755-f97c-4e1a-b5d4-3954c0751cb1{mask:url(#75e78cef-5de7-40da-8904-5b3232595848);}.da5555a8-2ea1-405e-a5c3-62a5a1e68c3f{fill:url(#ed7f9fe3-210d-4a01-86b3-f6bb2fb79045);}.\34 a4e4d11-6c8e-4f21-97fc-782695f6be15{fill:#444;}.\33 a8fea6d-555a-488d-999a-91ca4162998f{fill:url(#69f383ce-2853-4d22-91dc-b1eb10e5a1d4);}.\35 41e7bfc-21d6-4051-92f4-d7bee7604816{fill:url(#b6a6b83d-5c91-405b-944e-b79e33520544);}.\38 593e0c1-7b24-4733-88e2-c94c1d769fd5{mask:url(#a85c0e95-371a-4573-8125-a9e2c97a9596);}.b237cdf6-effe-45a0-b005-0998f51d72a8{fill:url(#980953dc-4069-42a7-a15b-7be15b707a58);}.c4cf5ea5-a60c-4c43-b874-8dd1049dfe50{fill:url(#52e6f8af-92fe-447a-94e6-1569521d8a01);}.aeba4790-416c-4130-8e69-83ceaed773d6{fill:url(#b798b1d8-dba3-44b3-853a-1c02f9796a23);}.\34 fc2b710-9b3e-44a4-986d-ad5189d179c9{fill:url(#ef5cb30a-e841-48dc-9d72-aa460476bfa0);}.\34 6493bfc-b8c5-45d9-93f1-3869f9f63640{fill:url(#43427b33-7de7-44f0-8ffa-61a830eaac57);}.\33 7f371f8-8681-41ec-ab67-ead512c0b0fb{fill:url(#bacd54f3-e914-42a1-95e1-1c177be447c8);}.\31 f2a5a08-4dd3-46fd-ad11-23f28f4b1f40{fill:url(#4c422a16-ea1d-4664-bd20-fd4b8dbdf57b);}.\34 5b9a234-73d3-4083-9db7-c5aa8531cd15{fill:url(#b0ab1e26-1172-4d3e-bb0f-686f868c9000);}.\33 e649dab-5fa7-4f53-af9e-3d5649a9c816{fill:url(#303a56c6-86ec-4cd2-9a09-1a5235c38d3c);}.d9a4b5cc-8e62-481b-af72-a77b45f28cec{fill:url(#45a3e965-12f2-44c3-8ec9-faadf357b7ec);}</style><radialGradient id="66579618-3591-46b1-bc77-592b6ba2953a" cx="182.32" cy="-61.85" r="37.45" gradientTransform="translate(-224.4 113.55) scale(2.48 0.11)" gradientUnits="userSpaceOnUse"><stop offset="0" stop-color="#fff"/><stop offset="1" stop-color="#14130a"/></radialGradient><radialGradient id="2be74ff2-877d-47ee-9035-52b508e8b97b" cx="100.67" cy="142.69" r="23.21" gradientTransform="translate(-10.58 134.7) scale(1.05 0.09)" xlink:href="#66579618-3591-46b1-bc77-592b6ba2953a"/><radialGradient id="18dc7b0e-46b2-43ca-ab4d-6ad2220e144e" cx="-43.47" cy="290.41" r="23.21" gradientTransform="translate(87.3 84.5) rotate(-90) scale(1.05 0.09)" xlink:href="#66579618-3591-46b1-bc77-592b6ba2953a"/><radialGradient id="2750e50e-8fba-4a22-b9f7-1b51a88ac220" cx="69.74" cy="-272.06" r="34.74" gradientTransform="translate(0 134.7) scale(1 0.09)" xlink:href="#66579618-3591-46b1-bc77-592b6ba2953a"/><linearGradient id="4bfb2a00-da02-4f62-8753-bd60cb235367" x1="261.17" y1="5.36" x2="194.1" y2="108.63" gradientUnits="userSpaceOnUse"><stop offset="0.01" stop-color="#f2f2f2"/><stop offset="0.36" stop-color="#eee"/><stop offset="0.7" stop-color="#e3e3e3"/><stop offset="1" stop-color="#d3d2d2"/></linearGradient><linearGradient id="e4bde0b6-014a-498e-9dfc-1acd737c7932" x1="143.16" y1="100.93" x2="311.77" y2="100.93" gradientUnits="userSpaceOnUse"><stop offset="0" stop-color="#999c9d"/><stop offset="0" stop-color="#a5a7a9"/><stop offset="0" stop-color="#c2c3c5"/><stop offset="0.01" stop-color="#d9d8da"/><stop offset="0.01" stop-color="#e9e7ea"/><stop offset="0.01" stop-color="#f2f0f3"/><stop offset="0.02" stop-color="#f5f3f6"/><stop offset="0.05" stop-color="#dfe1e3"/><stop offset="0.19" stop-color="#d1d1d1"/><stop offset="0.51" stop-color="#e3e5e7"/><stop offset="0.87" stop-color="#d1d1d1"/><stop offset="0.95" stop-color="#dfe1e3"/><stop offset="0.99" stop-color="#f5f3f6"/><stop offset="1" stop-color="#999c9d"/></linearGradient><linearGradient id="17af1b88-bf49-444c-a690-e22f2031f015" x1="227.47" y1="100.92" x2="227.47" y2="98.53" gradientUnits="userSpaceOnUse"><stop offset="0.34" stop-color="#676b6c"/><stop offset="0.36" stop-color="#707475"/><stop offset="0.46" stop-color="#989b9c"/><stop offset="0.55" stop-color="#b7b9bb"/><stop offset="0.64" stop-color="#cdcfd1"/><stop offset="0.73" stop-color="#daddde"/><stop offset="0.81" stop-color="#dfe1e3"/><stop offset="0.98" stop-color="#e3e5e7"/></linearGradient><linearGradient id="0297b0f2-7814-4ab5-b4e2-b28bd8b5c9f7" x1="216.53" y1="100.71" x2="216.53" y2="98.48" gradientUnits="userSpaceOnUse"><stop offset="0.02" stop-color="#5f6767"/><stop offset="0.48" stop-color="#676b6c"/><stop offset="0.51" stop-color="#717576"/><stop offset="0.62" stop-color="#878a8b"/><stop offset="0.72" stop-color="#949899"/><stop offset="0.81" stop-color="#999c9d"/></linearGradient><linearGradient id="f4761dd2-bc0b-4361-a18b-244cb47edf22" x1="228.12" y1="100.82" x2="228.12" y2="98.6" xlink:href="#0297b0f2-7814-4ab5-b4e2-b28bd8b5c9f7"/><linearGradient id="79856128-82d0-4c5d-94e7-1da53c20eb5d" x1="238.83" y1="98.65" x2="238.83" y2="98.6" xlink:href="#0297b0f2-7814-4ab5-b4e2-b28bd8b5c9f7"/><linearGradient id="e060a739-b67b-4194-8946-b28ba146d876" x1="207.02" y1="54.76" x2="290.36" y2="54.76" gradientUnits="userSpaceOnUse"><stop offset="0" stop-color="#fff" stop-opacity="0"/><stop offset="0.09" stop-color="#fff" stop-opacity="0.02"/><stop offset="0.22" stop-color="#fff" stop-opacity="0.09"/><stop offset="0.36" stop-color="#fff" stop-opacity="0.2"/><stop offset="0.51" stop-color="#fff" stop-opacity="0.35"/><stop offset="0.68" stop-color="#fff" stop-opacity="0.54"/><stop offset="0.85" stop-color="#fff" stop-opacity="0.77"/><stop offset="1" stop-color="#fff"/></linearGradient><mask id="f4bc8462-fcd6-4daa-b40a-9ec8c5a223f3" x="135.09" y="103.03" width="185.83" height="7.94" maskUnits="userSpaceOnUse"><ellipse class="6fddda6d-3c6d-44dc-81d2-663abb2dc595" cx="228" cy="107" rx="92.91" ry="3.97"/></mask><linearGradient id="cd11023a-710d-4b8d-b14d-6ee3e5e9f3b6" x1="228.01" y1="110.96" x2="227.99" y2="103.09" gradientUnits="userSpaceOnUse"><stop offset="0" stop-color="#4d4848"/><stop offset="0.35" stop-color="#14130a"/><stop offset="1" stop-color="#14130a"/></linearGradient><mask id="1ddcd3d4-4290-482b-8c17-7653bd478018" x="70.5" y="145.37" width="48.61" height="4.15" maskUnits="userSpaceOnUse"><ellipse class="22789513-daf9-42f5-b3be-d0d9ed7f3af6" cx="94.8" cy="147.44" rx="24.3" ry="2.07"/></mask><linearGradient id="8a73bd18-fb71-4b28-872f-ba990835e78c" x1="94.81" y1="149.51" x2="94.8" y2="145.4" xlink:href="#cd11023a-710d-4b8d-b14d-6ee3e5e9f3b6"/><linearGradient id="190a5da7-1fef-44b6-b3d3-37c62bd56a31" x1="77.8" y1="105.51" x2="112.13" y2="105.51" xlink:href="#e060a739-b67b-4194-8946-b28ba146d876"/><mask id="75e78cef-5de7-40da-8904-5b3232595848" x="111.16" y="105.71" width="4.15" height="48.61" maskUnits="userSpaceOnUse"><ellipse class="954ddc3c-c836-4109-bc5e-dbb22b2ff086" cx="113.23" cy="130.01" rx="2.07" ry="24.3"/></mask><linearGradient id="ed7f9fe3-210d-4a01-86b3-f6bb2fb79045" x1="-56.12" y1="162.67" x2="-56.13" y2="158.56" gradientTransform="translate(-47.4 73.92) rotate(-90)" xlink:href="#cd11023a-710d-4b8d-b14d-6ee3e5e9f3b6"/><linearGradient id="69f383ce-2853-4d22-91dc-b1eb10e5a1d4" x1="-73.09" y1="118.7" x2="-38.77" y2="118.7" gradientTransform="translate(-47.4 73.92) rotate(-90)" xlink:href="#e060a739-b67b-4194-8946-b28ba146d876"/><linearGradient id="b6a6b83d-5c91-405b-944e-b79e33520544" x1="60.94" y1="41.29" x2="138.4" y2="41.29" xlink:href="#e060a739-b67b-4194-8946-b28ba146d876"/><mask id="a85c0e95-371a-4573-8125-a9e2c97a9596" x="35" y="107.3" width="69.48" height="6.2" maskUnits="userSpaceOnUse"><ellipse class="7a49bbe1-519a-4fbd-ac90-9e6d68b80052" cx="69.74" cy="110.41" rx="34.74" ry="3.1"/></mask><linearGradient id="980953dc-4069-42a7-a15b-7be15b707a58" x1="69.75" y1="113.5" x2="69.73" y2="107.36" xlink:href="#cd11023a-710d-4b8d-b14d-6ee3e5e9f3b6"/><linearGradient id="52e6f8af-92fe-447a-94e6-1569521d8a01" x1="48.13" y1="109.86" x2="92.02" y2="109.86" gradientUnits="userSpaceOnUse"><stop offset="0.01" stop-color="#58595b"/><stop offset="0.28" stop-color="#757679"/><stop offset="0.51" stop-color="#88898d"/><stop offset="1" stop-color="#58595b"/></linearGradient><linearGradient id="b798b1d8-dba3-44b3-853a-1c02f9796a23" x1="69.68" y1="93.55" x2="69.68" y2="112.29" gradientUnits="userSpaceOnUse"><stop offset="0.08" stop-color="#6d6f73"/><stop offset="0.13" stop-color="#97999c"/><stop offset="0.18" stop-color="#cccdce"/><stop offset="0.21" stop-color="#e0e1e2"/><stop offset="0.32" stop-color="#a7a9ac"/><stop offset="0.39" stop-color="#868789"/><stop offset="0.46" stop-color="#636363"/><stop offset="0.53" stop-color="#6e6f6f"/><stop offset="0.65" stop-color="#8b8d8f"/><stop offset="0.74" stop-color="#a6aaad"/></linearGradient><radialGradient id="ef5cb30a-e841-48dc-9d72-aa460476bfa0" cx="90.56" cy="117.29" r="15.81" gradientUnits="userSpaceOnUse"><stop offset="0" stop-color="#fff"/><stop offset="0.17" stop-color="#fff" stop-opacity="0.78"/><stop offset="0.4" stop-color="#fff" stop-opacity="0.5"/><stop offset="0.6" stop-color="#fff" stop-opacity="0.29"/><stop offset="0.78" stop-color="#fff" stop-opacity="0.13"/><stop offset="0.92" stop-color="#fff" stop-opacity="0.04"/><stop offset="1" stop-color="#fff" stop-opacity="0"/></radialGradient><radialGradient id="43427b33-7de7-44f0-8ffa-61a830eaac57" cx="338.59" cy="117.29" r="15.81" gradientTransform="matrix(-1, 0, 0, 1, 387.84, 0)" xlink:href="#ef5cb30a-e841-48dc-9d72-aa460476bfa0"/><linearGradient id="bacd54f3-e914-42a1-95e1-1c177be447c8" x1="52.67" y1="110.29" x2="86.72" y2="110.29" gradientUnits="userSpaceOnUse"><stop offset="0.01" stop-color="#fff" stop-opacity="0"/><stop offset="0.18" stop-color="#fff" stop-opacity="0.38"/><stop offset="0.34" stop-color="#fff" stop-opacity="0.71"/><stop offset="0.45" stop-color="#fff" stop-opacity="0.92"/><stop offset="0.51" stop-color="#fff"/><stop offset="1" stop-color="#fff" stop-opacity="0"/></linearGradient><linearGradient id="4c422a16-ea1d-4664-bd20-fd4b8dbdf57b" x1="-2.42" y1="93.22" x2="147.98" y2="83.36" gradientUnits="userSpaceOnUse"><stop offset="0" stop-color="#78797d"/><stop offset="0.32" stop-color="#737478"/><stop offset="0.49" stop-color="#6d6f73"/><stop offset="1" stop-color="#6d6f73"/></linearGradient><linearGradient id="b0ab1e26-1172-4d3e-bb0f-686f868c9000" x1="-2.39" y1="93.22" x2="147.97" y2="83.36" gradientUnits="userSpaceOnUse"><stop offset="0" stop-color="#898a8f"/><stop offset="0.05" stop-color="#909196"/><stop offset="0.31" stop-color="#b1b2b6"/><stop offset="0.57" stop-color="#c8cacd"/><stop offset="0.8" stop-color="#d6d8db"/><stop offset="1" stop-color="#dbdde0"/></linearGradient><linearGradient id="303a56c6-86ec-4cd2-9a09-1a5235c38d3c" x1="119.68" y1="98.18" x2="190" y2="98.18" xlink:href="#e060a739-b67b-4194-8946-b28ba146d876"/><linearGradient id="45a3e965-12f2-44c3-8ec9-faadf357b7ec" x1="159.49" y1="-21.72" x2="229.81" y2="-21.72" gradientTransform="translate(168.62 -83.08) rotate(90)" xlink:href="#e060a739-b67b-4194-8946-b28ba146d876"/></defs><title>Asset 4</title><g class="4c78df44-4ce4-4e24-a18c-8649a6f4a7ca"><g id="f9eeb5d6-208f-4160-9113-b42e99e2d611" data-name="Layer 2"><g id="d9540a17-8553-4f91-b669-1e3d82a4a226" data-name="Layer 1"><path d="M290.29,97.39c0,2.14-1.29,3.87-2.88,3.87H167.51c-1.59,0-2.88-1.73-2.88-3.87V20.47c0-2.14,1.29-3.87,2.88-3.87h119.9c1.59,0,2.88,1.73,2.88,3.87Z"/><rect class="54057ef4-836e-4b62-96d7-cd635514566d" x="169.64" y="21.25" width="115.99" height="71.5"/><path class="1543fcde-0737-4636-a688-92f4319efbda" d="M143.23,102.43s-1,1.95,6.38,3.57H305.12s5.2-.33,6.57-2.79v-1.34Z"/><path class="e250b97a-7178-4d2e-822b-ccbf8935064a" d="M143.27,98.5H311.76v4.33s.25.58-1.73.43H144.85s-1.55.43-1.7-.58Z"/><path class="1543fcde-0737-4636-a688-92f4319efbda" d="M303.93,101a.28.28,0,0,1-.25.3h-5.73a.28.28,0,0,1-.25-.3h0a.28.28,0,0,1,.25-.3h5.73a.28.28,0,0,1,.25.3Z"/><path class="45c9eaa5-2a64-4607-bd24-39df97fdb4b9" d="M216.07,98.53s-.65,2.16,1.51,2.38h19.55s2.08.27,1.8-2.31Z"/><path class="23b3f539-6144-42aa-a220-54945804d1f3" d="M216.18,98.53h0v-.05H216a1.66,1.66,0,0,0,1.23,2.23C215.63,100.26,216.18,98.53,216.18,98.53Z"/><path class="7b8aa795-fc23-4b0b-a045-1a1849c66c91" d="M239,98.6h-.21v.05c.15,2.44-1.81,2.1-1.81,2.1H217.47l-.28,0a2.6,2.6,0,0,0,.5.09h19.55S239.26,101.15,239,98.6Z"/><path class="5f6caaf2-8e49-4a9e-804f-ae3c448b2ed1" d="M238.83,98.65V98.6h0S238.83,98.63,238.83,98.65Z"/><path class="41834e9e-1a62-486b-a994-d5a18b29f2a3" d="M260.1,16.51h25.81s4.95,0,4.41,4.37L290.16,93H207"/><g class="0c12a692-8110-40b0-80a4-d92496b717b7"><ellipse class="495afadd-e793-4b0e-998c-fb806e0fc679" cx="228" cy="107" rx="92.91" ry="3.97"/></g><g class="274805aa-b612-4f44-a4a2-8b207aedb929"><ellipse class="e51bdaab-a8ae-4d67-ac79-bf1711e25c2a" cx="94.8" cy="147.44" rx="24.3" ry="2.07"/></g><path class="d1cd73f6-3e79-4bad-96b2-8e490d658934" d="M112.15,79.39a4.88,4.88,0,0,0-4.88-4.88H82.76a4.88,4.88,0,0,0-4.88,4.88v62.76A4.88,4.88,0,0,0,82.76,147h24.51a4.88,4.88,0,0,0,4.88-4.88ZM98.6,80.91a.77.77,0,0,1-.77.77H92.6a.77.77,0,0,1-.77-.77v0a.77.77,0,0,1,.77-.77h5.23a.77.77,0,0,1,.77.77Zm11.16,55.76H80.67V84.87h29.09Z"/><path class="096d9aee-6b2a-46f8-864a-bb3f3f539289" d="M99.71,74.52h7.88A5.56,5.56,0,0,1,112,78.09l.11,56a2.25,2.25,0,0,1-2,2.38c-2.15-.16-32.36,0-32.36,0"/><rect class="cb020bf7-462f-40d8-a7d6-0467e58d13df" x="80.41" y="84.92" width="29.42" height="51.8"/><g class="1bbff755-f97c-4e1a-b5d4-3954c0751cb1"><ellipse class="da5555a8-2ea1-405e-a5c3-62a5a1e68c3f" cx="113.23" cy="130.01" rx="2.07" ry="24.3"/></g><path class="4a4e4d11-6c8e-4f21-97fc-782695f6be15" d="M45.18,112.66a4.88,4.88,0,0,0-4.88,4.88v24.51a4.88,4.88,0,0,0,4.88,4.88h62.76a4.88,4.88,0,0,0,4.88-4.88V117.54a4.88,4.88,0,0,0-4.88-4.88Zm1.52,13.55a.77.77,0,0,1,.77.77v5.23a.77.77,0,0,1-.77.77h0a.77.77,0,0,1-.77-.77V127a.77.77,0,0,1,.77-.77Zm55.76-11.16v29.09H50.66V115.05Z"/><path class="3a8fea6d-555a-488d-999a-91ca4162998f" d="M40.31,125.1v-7.88a5.56,5.56,0,0,1,3.57-4.42l56-.11a2.25,2.25,0,0,1,2.38,2c-.16,2.15,0,32.36,0,32.36"/><rect class="cb020bf7-462f-40d8-a7d6-0467e58d13df" x="61.9" y="103.79" width="29.42" height="51.8" transform="translate(-53.08 206.3) rotate(-90)"/><path class="541e7bfc-21d6-4051-92f4-d7bee7604816" d="M110.27,0h24s4.6,0,4.1,4.72l-.15,77.85H60.94"/><g class="8593e0c1-7b24-4733-88e2-c94c1d769fd5"><ellipse class="b237cdf6-effe-45a0-b005-0998f51d72a8" cx="69.74" cy="110.41" rx="34.74" ry="3.1"/></g><path class="c4cf5ea5-a60c-4c43-b874-8dd1049dfe50" d="M48.4,109.22v.12c0,.8,1.29,1.16,4.69,1.16H86.72c3.4,0,4.58-.43,4.6-1.28H48.4Z"/><path class="aeba4790-416c-4130-8e69-83ceaed773d6" d="M87,104.37c-3-3.09-3.15-9.71-3.15-9.71H55.55s-.11,6.62-3.15,9.71-7.78,5.71.46,5.71H86.5C94.73,110.07,90,107.46,87,104.37Z"/><path class="4fc2b710-9b3e-44a4-986d-ad5189d179c9" d="M72.39,110.07c1.68-3.43,7.05-6.65,13.74-7.3a6.93,6.93,0,0,0,1.06,1.35c3,3,7.61,5.95,0,5.95Z"/><path class="46493bfc-b8c5-45d9-93f1-3869f9f63640" d="M67.43,110.07c-1.68-3.43-7.05-6.65-13.74-7.3a6.94,6.94,0,0,1-1.06,1.35c-3,3-7.61,5.95,0,5.95Z"/><path class="37f371f8-8681-41ec-ab67-ead512c0b0fb" d="M52.67,110.29c2.84,0,5.68-.07,8.51-.09l8.51,0,8.51,0,4.26,0,4.26.06-4.26.06-4.26,0-8.51,0-8.51,0C58.34,110.36,55.51,110.34,52.67,110.29Z"/><path class="1f2a5a08-4dd3-46fd-ad11-23f28f4b1f40" d="M0,90.61a4.31,4.31,0,0,0,4.41,4H134.26a4,4,0,0,0,4.08-4v-8H0Z"/><path class="4a4e4d11-6c8e-4f21-97fc-782695f6be15" d="M134.26,0H4.41C2.14,0,0,1.62,0,3.9V82.66H138.34V3.9A3.9,3.9,0,0,0,134.26,0Zm-1.91,76.67H6V5.14H132.35Z"/><path class="45b9a234-73d3-4083-9db7-c5aa8531cd15" d="M0,90.16a4.72,4.72,0,0,0,4.41,4.5H134.26a4.43,4.43,0,0,0,4.08-4.5V82.66H0Z"/><rect class="cb020bf7-462f-40d8-a7d6-0467e58d13df" x="7.46" y="5.16" width="125" height="72"/><path class="4a4e4d11-6c8e-4f21-97fc-782695f6be15" d="M189.89,53.29A3.93,3.93,0,0,0,186,49.35H118.72a3.93,3.93,0,0,0-3.94,3.93V142.9a3.94,3.94,0,0,0,3.94,3.94H186a3.93,3.93,0,0,0,3.94-3.94Zm-7.73,85.26H122.24V57.91h59.92Z"/><path class="3e649dab-5fa7-4f53-af9e-3d5649a9c816" d="M164.47,49.47h21.78s4.17,0,3.72,5.57l-.13,88.11s.25,3.3-4,3.74c-4.4-.24-66.14,0-66.14,0"/><rect class="cb020bf7-462f-40d8-a7d6-0467e58d13df" x="122" y="57.51" width="60" height="81"/><path class="4a4e4d11-6c8e-4f21-97fc-782695f6be15" d="M235.22,146.62a3.93,3.93,0,0,0,3.93-3.94V75.44a3.93,3.93,0,0,0-3.93-3.94H145.61a3.94,3.94,0,0,0-3.94,3.94v67.24a3.93,3.93,0,0,0,3.94,3.94ZM150,138.89V79H230.6v59.92Z"/><path class="d9a4b5cc-8e62-481b-af72-a77b45f28cec" d="M239,121.19V143s0,4.17-5.57,3.72l-88.11-.13s-3.3.25-3.74-4c.24-4.4,0-66.14,0-66.14"/><rect class="cb020bf7-462f-40d8-a7d6-0467e58d13df" x="160.5" y="68.23" width="60" height="81" transform="translate(299.23 -81.78) rotate(90)"/></g></g></g></svg>