<svg xmlns="http://www.w3.org/2000/svg" xmlns:xlink="http://www.w3.org/1999/xlink" viewBox="0 0 512 756"><defs><style>.\34 da12d5b-b99b-4eb4-ab8b-cdaeafe35732{fill:none;}.\38 f9c7708-9973-4cb3-a2c3-737076edbee1{fill:#231f20;}.\37 6954227-128e-4236-be4f-4aa326735c06{isolation:isolate;}.\39 a5d62a2-dd0d-4ce5-add3-bd687e3520d4{fill:#039be5;}.\37 4cf1e54-6027-4bd9-9a34-387ba6af1af5{fill:#0288d1;}.\31 f0ea2cd-382b-4395-b4d4-14dab85b076a,.\33 f04288a-2221-43d0-ab3f-39f3f2fc496e,.\34 3adf05f-ac9a-4310-8814-0234fd22ac23{mix-blend-mode:screen;}.\33 f04288a-2221-43d0-ab3f-39f3f2fc496e,.b65399f6-f6f9-4855-95dd-b7a6ec93c524{fill:url(#f6df36da-3593-4718-b696-85b6368ef6ff);}.\33 6e51118-6aa1-4656-ba77-c55f155d863e{fill:#29b6f6;}.fa1f075c-52d4-449f-904c-f63a2d85a4c7{fill:#333;}.\31 f0ea2cd-382b-4395-b4d4-14dab85b076a,.\37 f2370ab-8531-4379-85b1-f153bf90563f{fill:#fff;}</style><pattern id="f6df36da-3593-4718-b696-85b6368ef6ff" data-name="10 dpi 20%" width="28.8" height="28.8" patternTransform="translate(12.59 -14.4)" patternUnits="userSpaceOnUse" viewBox="0 0 28.8 28.8"><rect class="4da12d5b-b99b-4eb4-ab8b-cdaeafe35732" width="28.8" height="28.8"/><circle class="8f9c7708-9973-4cb3-a2c3-737076edbee1" cx="28.8" cy="28.8" r="1.44"/><circle class="8f9c7708-9973-4cb3-a2c3-737076edbee1" cx="14.4" cy="28.8" r="1.44"/><circle class="8f9c7708-9973-4cb3-a2c3-737076edbee1" cx="28.8" cy="14.4" r="1.44"/><circle class="8f9c7708-9973-4cb3-a2c3-737076edbee1" cx="14.4" cy="14.4" r="1.44"/><circle class="8f9c7708-9973-4cb3-a2c3-737076edbee1" cx="7.2" cy="21.6" r="1.44"/><circle class="8f9c7708-9973-4cb3-a2c3-737076edbee1" cx="21.6" cy="21.6" r="1.44"/><circle class="8f9c7708-9973-4cb3-a2c3-737076edbee1" cx="7.2" cy="7.2" r="1.44"/><circle class="8f9c7708-9973-4cb3-a2c3-737076edbee1" cx="21.6" cy="7.2" r="1.44"/><circle class="8f9c7708-9973-4cb3-a2c3-737076edbee1" cy="28.8" r="1.44"/><circle class="8f9c7708-9973-4cb3-a2c3-737076edbee1" cy="14.4" r="1.44"/><circle class="8f9c7708-9973-4cb3-a2c3-737076edbee1" cx="28.8" r="1.44"/><circle class="8f9c7708-9973-4cb3-a2c3-737076edbee1" cx="14.4" r="1.44"/><circle class="8f9c7708-9973-4cb3-a2c3-737076edbee1" r="1.44"/></pattern></defs><title>Artboard 2</title><g class="76954227-128e-4236-be4f-4aa326735c06"><g id="8f5d3bf3-10cd-4842-9713-4cf315ef30df" data-name="tagline"><rect class="9a5d62a2-dd0d-4ce5-add3-bd687e3520d4" y="476" width="512" height="280"/><path class="74cf1e54-6027-4bd9-9a34-387ba6af1af5" d="M63,280.18a15.46,15.46,0,0,1,5.08-12.3,19,19,0,0,1,24.9-.44A15.25,15.25,0,0,1,98.26,279a15.62,15.62,0,0,1-5,12.26,17.71,17.71,0,0,1-12.7,4.93,17.83,17.83,0,0,1-12.4-4.49A15.43,15.43,0,0,1,63,280.18Z"/><path class="3f04288a-2221-43d0-ab3f-39f3f2fc496e" d="M63,280.18a15.46,15.46,0,0,1,5.08-12.3,19,19,0,0,1,24.9-.44A15.25,15.25,0,0,1,98.26,279a15.62,15.62,0,0,1-5,12.26,17.71,17.71,0,0,1-12.7,4.93,17.83,17.83,0,0,1-12.4-4.49A15.43,15.43,0,0,1,63,280.18Z"/><path class="74cf1e54-6027-4bd9-9a34-387ba6af1af5" d="M152.58,270.42q6.82.19,10.67-3.77a18.78,18.78,0,0,0,4.9-10.26l29.59-.1A38.9,38.9,0,0,1,191,276.76a40.93,40.93,0,0,1-16.72,14,49.43,49.43,0,0,1-22.53,4.66q-20.75-.38-32-14.94t-9.13-37.62l.29-2.31a69.64,69.64,0,0,1,8.84-27.91,50.56,50.56,0,0,1,18.69-18.78,48.48,48.48,0,0,1,25.9-6.25q18.16.38,28.68,11.58t10.14,30.22l-29.59-.1q.48-16.43-11.82-16.72Q145,212,142.49,240.63l-.86,9.77-.1,3.64Q141.53,270.13,152.58,270.42Z"/><path class="74cf1e54-6027-4bd9-9a34-387ba6af1af5" d="M441.42,199.76q-7.08-10.69-21.73-11-18.16-.39-32.13,15.92a20.48,20.48,0,0,0-8.2-11.43q-6.15-4.3-15.72-4.49-16-.34-27.82,11.28v.89c-.24-.4-.48-.8-.73-1.18q-7.08-10.69-21.73-11-15.58-.33-28.06,11.63a38.8,38.8,0,0,0-7.49-6.51q-10.35-6.88-24.51-7.08-22.85-.39-38.23,15t-17.82,41.41a57.53,57.53,0,0,0,3.56,27.15,40.12,40.12,0,0,0,15.19,19q10.25,6.79,24.32,7,22.56.39,37.89-14.55t18.07-39.26l.2-2.15a60.14,60.14,0,0,0-2.71-25.21,16.37,16.37,0,0,1,5.73-1q9.08.29,9.08,9.95l-.39,5.76L297,296.39h32.23l11-66.5a69.88,69.88,0,0,0,.12-14,16.1,16.1,0,0,1,7.09-1.69q9.08,0,9.08,10l-.39,5.85L345,296.39h32.23L390,222.84q7.32-8.68,15.82-8.68,9.08.29,9.08,9.95l-.39,5.76-11.23,66.52h32.23l11-66.5Q448.5,210.45,441.42,199.76ZM264,240.28q-3,31.3-22,30.71-14.65-.39-13.28-22.13l.29-5.75q1.56-16.28,7.28-23.84t14.6-7.26a11.92,11.92,0,0,1,10.21,5.41q3.47,5.22,3.27,14Z"/><path class="36e51118-6aa1-4656-ba77-c55f155d863e" d="M144.25,229.6q4.37-17.47,17.47-17,12.3.29,11.82,16.72l29.59.1q.38-19-10.14-30.22t-28.68-11.58a48.48,48.48,0,0,0-25.89,6.25,50.56,50.56,0,0,0-18.69,18.78,65.32,65.32,0,0,0-6.87,17Z"/><path class="36e51118-6aa1-4656-ba77-c55f155d863e" d="M231.48,229.6a31.83,31.83,0,0,1,4.85-10.33q5.71-7.56,14.6-7.26a11.92,11.92,0,0,1,10.21,5.41q3.1,4.66,3.26,12.18H296.6a55.92,55.92,0,0,0-2.84-14.39,16.37,16.37,0,0,1,5.73-1q9.08.29,9.08,9.95l-.37,5.48h32a69.6,69.6,0,0,0,.1-13.75,16.1,16.1,0,0,1,7.09-1.69q9.08,0,9.08,10l-.36,5.39h32.68l1.17-6.75q7.32-8.68,15.82-8.68,9.08.29,9.08,9.95l-.37,5.48h32q1.87-19.22-5.15-29.84t-21.73-11q-18.16-.39-32.13,15.92a20.48,20.48,0,0,0-8.2-11.43q-6.15-4.3-15.72-4.49-16-.34-27.82,11.28v.89c-.24-.4-.48-.8-.73-1.18q-7.08-10.69-21.73-11-15.58-.33-28.06,11.63a38.8,38.8,0,0,0-7.49-6.51q-10.35-6.88-24.51-7.08-22.85-.39-38.23,15a60,60,0,0,0-15.44,27.75Z"/><path class="9a5d62a2-dd0d-4ce5-add3-bd687e3520d4" d="M112.93,229.26a79.26,79.26,0,0,0-2,11.27l-.29,2.31a72.23,72.23,0,0,0-.14,12.09h31.1c0-.3,0-.58,0-.89l.1-3.64.86-9.77a70.41,70.41,0,0,1,1.84-11.37Z"/><path class="9a5d62a2-dd0d-4ce5-add3-bd687e3520d4" d="M173.53,229.26s0,0,0,0l29.59.1s0-.08,0-.13Z"/><path class="9a5d62a2-dd0d-4ce5-add3-bd687e3520d4" d="M199.72,229.26a84.65,84.65,0,0,0-2.47,14,65.82,65.82,0,0,0-.05,11.67h31.53a50.54,50.54,0,0,1,0-6.07l.29-5.75a72.94,72.94,0,0,1,2.53-13.84Z"/><path class="9a5d62a2-dd0d-4ce5-add3-bd687e3520d4" d="M414.56,229.26l0,.61-4.23,25.06h32.11l4.16-25c0-.21,0-.41.05-.62Z"/><path class="9a5d62a2-dd0d-4ce5-add3-bd687e3520d4" d="M264.39,229.26q0,1,0,2.14l-.39,8.87a69.41,69.41,0,0,1-2.83,14.65h32.7a78,78,0,0,0,2.38-12.36l.2-2.15a67.71,67.71,0,0,0,.11-11.16Z"/><path class="9a5d62a2-dd0d-4ce5-add3-bd687e3520d4" d="M308.23,229.26l0,.61L304,254.93h32.11l4.16-25c0-.21,0-.41,0-.62Z"/><polygon class="9a5d62a2-dd0d-4ce5-add3-bd687e3520d4" points="356.17 229.26 356.12 230.06 351.94 254.93 384.43 254.93 388.89 229.26 356.17 229.26"/><path class="9a5d62a2-dd0d-4ce5-add3-bd687e3520d4" d="M173.53,229.26s0,0,0,0l29.59.1s0-.08,0-.13Z"/><path class="9a5d62a2-dd0d-4ce5-add3-bd687e3520d4" d="M112.94,229.26l-.09.33h31.4c0-.11.06-.22.09-.33Z"/><path class="9a5d62a2-dd0d-4ce5-add3-bd687e3520d4" d="M199.73,229.26c0,.11-.07.22-.1.33h31.85l.1-.33Z"/><path class="9a5d62a2-dd0d-4ce5-add3-bd687e3520d4" d="M264.38,229.26c0,.11,0,.22,0,.33H296.6c0-.11,0-.22,0-.33Z"/><path class="9a5d62a2-dd0d-4ce5-add3-bd687e3520d4" d="M414.56,229.26l0,.33h32c0-.11,0-.22,0-.33Z"/><path class="9a5d62a2-dd0d-4ce5-add3-bd687e3520d4" d="M308.23,229.26l0,.33h32c0-.11,0-.22,0-.33Z"/><polygon class="9a5d62a2-dd0d-4ce5-add3-bd687e3520d4" points="356.17 229.26 356.15 229.59 388.83 229.59 388.89 229.26 356.17 229.26"/><g class="43adf05f-ac9a-4310-8814-0234fd22ac23"><path class="b65399f6-f6f9-4855-95dd-b7a6ec93c524" d="M152.58,270.42q6.82.19,10.67-3.77a18.78,18.78,0,0,0,4.9-10.26l29.59-.1A38.9,38.9,0,0,1,191,276.76a40.93,40.93,0,0,1-16.72,14,49.43,49.43,0,0,1-22.53,4.66q-20.75-.38-32-14.94t-9.13-37.62l.29-2.31a69.64,69.64,0,0,1,8.84-27.91,50.56,50.56,0,0,1,18.69-18.78,48.48,48.48,0,0,1,25.9-6.25q18.16.38,28.68,11.58t10.14,30.22l-29.59-.1q.48-16.43-11.82-16.72Q145,212,142.49,240.63l-.86,9.77-.1,3.64Q141.53,270.13,152.58,270.42Z"/><path class="b65399f6-f6f9-4855-95dd-b7a6ec93c524" d="M441.42,199.76q-7.08-10.69-21.73-11-18.16-.39-32.13,15.92a20.48,20.48,0,0,0-8.2-11.43q-6.15-4.3-15.72-4.49-16-.34-27.82,11.28v.89c-.24-.4-.48-.8-.73-1.18q-7.08-10.69-21.73-11-15.58-.33-28.06,11.63a38.8,38.8,0,0,0-7.49-6.51q-10.35-6.88-24.51-7.08-22.85-.39-38.23,15t-17.82,41.41a57.53,57.53,0,0,0,3.56,27.15,40.12,40.12,0,0,0,15.19,19q10.25,6.79,24.32,7,22.56.39,37.89-14.55t18.07-39.26l.2-2.15a60.14,60.14,0,0,0-2.71-25.21,16.37,16.37,0,0,1,5.73-1q9.08.29,9.08,9.95l-.39,5.76L297,296.39h32.23l11-66.5a69.88,69.88,0,0,0,.12-14,16.1,16.1,0,0,1,7.09-1.69q9.08,0,9.08,10l-.39,5.85L345,296.39h32.23L390,222.84q7.32-8.68,15.82-8.68,9.08.29,9.08,9.95l-.39,5.76-11.23,66.52h32.23l11-66.5Q448.5,210.45,441.42,199.76ZM264,240.28q-3,31.3-22,30.71-14.65-.39-13.28-22.13l.29-5.75q1.56-16.28,7.28-23.84t14.6-7.26a11.92,11.92,0,0,1,10.21,5.41q3.47,5.22,3.27,14Z"/><path class="b65399f6-f6f9-4855-95dd-b7a6ec93c524" d="M144.25,229.6q4.37-17.47,17.47-17,12.3.29,11.82,16.72l29.59.1q.38-19-10.14-30.22t-28.68-11.58a48.48,48.48,0,0,0-25.89,6.25,50.56,50.56,0,0,0-18.69,18.78,65.32,65.32,0,0,0-6.87,17Z"/><path class="b65399f6-f6f9-4855-95dd-b7a6ec93c524" d="M231.48,229.6a31.83,31.83,0,0,1,4.85-10.33q5.71-7.56,14.6-7.26a11.92,11.92,0,0,1,10.21,5.41q3.1,4.66,3.26,12.18H296.6a55.92,55.92,0,0,0-2.84-14.39,16.37,16.37,0,0,1,5.73-1q9.08.29,9.08,9.95l-.37,5.48h32a69.6,69.6,0,0,0,.1-13.75,16.1,16.1,0,0,1,7.09-1.69q9.08,0,9.08,10l-.36,5.39h32.68l1.17-6.75q7.32-8.68,15.82-8.68,9.08.29,9.08,9.95l-.37,5.48h32q1.87-19.22-5.15-29.84t-21.73-11q-18.16-.39-32.13,15.92a20.48,20.48,0,0,0-8.2-11.43q-6.15-4.3-15.72-4.49-16-.34-27.82,11.28v.89c-.24-.4-.48-.8-.73-1.18q-7.08-10.69-21.73-11-15.58-.33-28.06,11.63a38.8,38.8,0,0,0-7.49-6.51q-10.35-6.88-24.51-7.08-22.85-.39-38.23,15a60,60,0,0,0-15.44,27.75Z"/><path class="b65399f6-f6f9-4855-95dd-b7a6ec93c524" d="M112.93,229.26a79.26,79.26,0,0,0-2,11.27l-.29,2.31a72.23,72.23,0,0,0-.14,12.09h31.1c0-.3,0-.58,0-.89l.1-3.64.86-9.77a70.41,70.41,0,0,1,1.84-11.37Z"/><path class="b65399f6-f6f9-4855-95dd-b7a6ec93c524" d="M173.53,229.26s0,0,0,0l29.59.1s0-.08,0-.13Z"/><path class="b65399f6-f6f9-4855-95dd-b7a6ec93c524" d="M199.72,229.26a84.65,84.65,0,0,0-2.47,14,65.82,65.82,0,0,0-.05,11.67h31.53a50.54,50.54,0,0,1,0-6.07l.29-5.75a72.94,72.94,0,0,1,2.53-13.84Z"/><path class="b65399f6-f6f9-4855-95dd-b7a6ec93c524" d="M414.56,229.26l0,.61-4.23,25.06h32.11l4.16-25c0-.21,0-.41.05-.62Z"/><path class="b65399f6-f6f9-4855-95dd-b7a6ec93c524" d="M264.39,229.26q0,1,0,2.14l-.39,8.87a69.41,69.41,0,0,1-2.83,14.65h32.7a78,78,0,0,0,2.38-12.36l.2-2.15a67.71,67.71,0,0,0,.11-11.16Z"/><path class="b65399f6-f6f9-4855-95dd-b7a6ec93c524" d="M308.23,229.26l0,.61L304,254.93h32.11l4.16-25c0-.21,0-.41,0-.62Z"/><polygon class="b65399f6-f6f9-4855-95dd-b7a6ec93c524" points="356.17 229.26 356.12 230.06 351.94 254.93 384.43 254.93 388.89 229.26 356.17 229.26"/><path class="b65399f6-f6f9-4855-95dd-b7a6ec93c524" d="M173.53,229.26s0,0,0,0l29.59.1s0-.08,0-.13Z"/><path class="b65399f6-f6f9-4855-95dd-b7a6ec93c524" d="M112.94,229.26l-.09.33h31.4c0-.11.06-.22.09-.33Z"/><path class="b65399f6-f6f9-4855-95dd-b7a6ec93c524" d="M199.73,229.26c0,.11-.07.22-.1.33h31.85l.1-.33Z"/><path class="b65399f6-f6f9-4855-95dd-b7a6ec93c524" d="M264.38,229.26c0,.11,0,.22,0,.33H296.6c0-.11,0-.22,0-.33Z"/><path class="b65399f6-f6f9-4855-95dd-b7a6ec93c524" d="M414.56,229.26l0,.33h32c0-.11,0-.22,0-.33Z"/><path class="b65399f6-f6f9-4855-95dd-b7a6ec93c524" d="M308.23,229.26l0,.33h32c0-.11,0-.22,0-.33Z"/><polygon class="b65399f6-f6f9-4855-95dd-b7a6ec93c524" points="356.17 229.26 356.15 229.59 388.83 229.59 388.89 229.26 356.17 229.26"/></g><path class="fa1f075c-52d4-449f-904c-f63a2d85a4c7" d="M299.5,317.77H308l-.36,2H296.75L300,301.25h2.4Z"/><path class="fa1f075c-52d4-449f-904c-f63a2d85a4c7" d="M310.79,319.77H308.5L310.89,306h2.29ZM312.68,301a1.26,1.26,0,0,1,1,.35,1.31,1.31,0,0,1,.39,1,1.36,1.36,0,0,1-1.36,1.39,1.27,1.27,0,0,1-1-.34,1.24,1.24,0,0,1-.37-1,1.44,1.44,0,0,1,.38-1A1.34,1.34,0,0,1,312.68,301Z"/><path class="fa1f075c-52d4-449f-904c-f63a2d85a4c7" d="M313.4,312.86a11.22,11.22,0,0,1,1.21-3.91,6.35,6.35,0,0,1,2.21-2.45,5.13,5.13,0,0,1,2.86-.76,4.23,4.23,0,0,1,3.61,1.81l.46-1.54h2.11l-2.29,13.47a6.7,6.7,0,0,1-2.14,4.22,6,6,0,0,1-4.36,1.51,6.19,6.19,0,0,1-2.68-.66,5.09,5.09,0,0,1-2-1.74l1.31-1.41a4.13,4.13,0,0,0,6.07,1,4.73,4.73,0,0,0,1.51-2.75l.25-1.22A5.21,5.21,0,0,1,317.6,320a4,4,0,0,1-2.23-.69,4.22,4.22,0,0,1-1.47-1.9,7.73,7.73,0,0,1-.57-2.77A14,14,0,0,1,313.4,312.86Zm2.23,1.3a4.84,4.84,0,0,0,.63,2.81,2.38,2.38,0,0,0,2,1,4.17,4.17,0,0,0,3.55-2l1.08-6.31a2.89,2.89,0,0,0-2.76-2,3.57,3.57,0,0,0-3.07,1.52,7.93,7.93,0,0,0-1.42,4.25Z"/><path class="fa1f075c-52d4-449f-904c-f63a2d85a4c7" d="M333.63,319.77a3.07,3.07,0,0,1-.09-.72l0-.73a5.64,5.64,0,0,1-4,1.7,4.11,4.11,0,0,1-3-1.15,3.49,3.49,0,0,1-1-2.82,4.23,4.23,0,0,1,1.91-3.41,8.15,8.15,0,0,1,4.7-1.23h2.4l.15-1.09a2.52,2.52,0,0,0-.48-2,2.3,2.3,0,0,0-1.81-.74,3.55,3.55,0,0,0-2.09.58,2.46,2.46,0,0,0-1.11,1.6h-2.31a3.69,3.69,0,0,1,.94-2.14,5.47,5.47,0,0,1,2.12-1.45,6.86,6.86,0,0,1,2.68-.49A4.56,4.56,0,0,1,336,307a4,4,0,0,1,1,3.33l-1.12,6.82-.06,1a4.76,4.76,0,0,0,.15,1.39l0,.22ZM330,318a4,4,0,0,0,2.09-.53,5.29,5.29,0,0,0,1.7-1.53l.5-2.84h-1.74a6.59,6.59,0,0,0-3.33.69,2.53,2.53,0,0,0-1.31,1.95,2,2,0,0,0,.45,1.61A2.15,2.15,0,0,0,330,318Z"/><path class="fa1f075c-52d4-449f-904c-f63a2d85a4c7" d="M341.82,306l-.33,1.74a5.42,5.42,0,0,1,4.22-2,3.41,3.41,0,0,1,2.87,1.35,5.23,5.23,0,0,1,.69,3.65l-1.5,9h-2.3l1.51-9a4.8,4.8,0,0,0,0-1.16,1.9,1.9,0,0,0-2.1-1.82,4.33,4.33,0,0,0-3.64,2.21l-1.7,9.81h-2.3L339.65,306Z"/><path class="fa1f075c-52d4-449f-904c-f63a2d85a4c7" d="M350.16,312.86a10.69,10.69,0,0,1,1.16-3.79,6.56,6.56,0,0,1,2.23-2.53,5.09,5.09,0,0,1,2.91-.8,4.3,4.3,0,0,1,3.54,1.68l1.32-7.19h2.3l-3.38,19.53h-2.1l.24-1.48a5.07,5.07,0,0,1-4,1.73,3.8,3.8,0,0,1-3-1.49,6.5,6.5,0,0,1-1.22-3.87A12.3,12.3,0,0,1,350.16,312.86Zm2.21,1.31A4.77,4.77,0,0,0,353,317a2.34,2.34,0,0,0,2,1,4.16,4.16,0,0,0,3.55-2l1.09-6.35a2.86,2.86,0,0,0-2.77-1.93,3.49,3.49,0,0,0-2.4.82,5.29,5.29,0,0,0-1.58,2.4A9.88,9.88,0,0,0,352.38,314.18Z"/><path class="fa1f075c-52d4-449f-904c-f63a2d85a4c7" d="M369.69,305.75a5,5,0,0,1,3,.94,5.34,5.34,0,0,1,1.82,2.52,7.82,7.82,0,0,1,.4,3.52l0,.28a9.24,9.24,0,0,1-1.2,3.63,7,7,0,0,1-2.47,2.52,6,6,0,0,1-3.32.85,5,5,0,0,1-3-.94,5.23,5.23,0,0,1-1.81-2.49,8,8,0,0,1-.41-3.47,9.37,9.37,0,0,1,1.16-3.84,7.17,7.17,0,0,1,2.49-2.64A6,6,0,0,1,369.69,305.75ZM365,313.13a7.79,7.79,0,0,0,0,1.67,4.07,4.07,0,0,0,.9,2.39,2.69,2.69,0,0,0,2.05.93,3.66,3.66,0,0,0,2.11-.57,4.74,4.74,0,0,0,1.63-1.82,7.71,7.71,0,0,0,.85-2.71,12.3,12.3,0,0,0,0-2,4.24,4.24,0,0,0-.93-2.43,2.75,2.75,0,0,0-2.06-.94,3.75,3.75,0,0,0-3,1.4,6.91,6.91,0,0,0-1.54,3.76Z"/><path class="fa1f075c-52d4-449f-904c-f63a2d85a4c7" d="M383.33,312.52l-1.26,7.25h-2.39l3.22-18.52h6.18a6,6,0,0,1,4.41,1.52,4.78,4.78,0,0,1,1.33,4A5.76,5.76,0,0,1,392.7,311a7.68,7.68,0,0,1-5,1.53Zm.34-2h4.12a5,5,0,0,0,3.19-1,3.94,3.94,0,0,0,1.46-2.73,3.09,3.09,0,0,0-.65-2.55,3.26,3.26,0,0,0-2.48-1h-4.39Z"/><path class="fa1f075c-52d4-449f-904c-f63a2d85a4c7" d="M401,305.75a5,5,0,0,1,3,.94,5.34,5.34,0,0,1,1.82,2.52,7.82,7.82,0,0,1,.4,3.52l0,.28a9.24,9.24,0,0,1-1.2,3.63,7,7,0,0,1-2.47,2.52,6,6,0,0,1-3.32.85,5,5,0,0,1-3-.94,5.23,5.23,0,0,1-1.81-2.49,8,8,0,0,1-.41-3.47,9.37,9.37,0,0,1,1.16-3.84,7.17,7.17,0,0,1,2.49-2.64A6,6,0,0,1,401,305.75Zm-4.68,7.38a7.79,7.79,0,0,0,0,1.67,4.07,4.07,0,0,0,.9,2.39,2.69,2.69,0,0,0,2.05.93,3.66,3.66,0,0,0,2.11-.57,4.74,4.74,0,0,0,1.63-1.82,7.71,7.71,0,0,0,.85-2.71,12.3,12.3,0,0,0,0-2,4.24,4.24,0,0,0-.93-2.43,2.75,2.75,0,0,0-2.06-.94,3.75,3.75,0,0,0-3,1.4,6.91,6.91,0,0,0-1.54,3.76Z"/><path class="fa1f075c-52d4-449f-904c-f63a2d85a4c7" d="M410.67,306l-.33,1.74a5.42,5.42,0,0,1,4.22-2,3.41,3.41,0,0,1,2.87,1.35,5.23,5.23,0,0,1,.69,3.65l-1.5,9h-2.3l1.51-9a4.8,4.8,0,0,0,0-1.16,1.9,1.9,0,0,0-2.1-1.82,4.33,4.33,0,0,0-3.64,2.21l-1.7,9.81h-2.3L408.5,306Z"/><path class="fa1f075c-52d4-449f-904c-f63a2d85a4c7" d="M424.43,302.68l-.58,3.33h2.5l-.32,1.82h-2.49l-1.44,8.58a3,3,0,0,0,0,.61,1,1,0,0,0,1.08,1,6.63,6.63,0,0,0,1.12-.13l-.18,1.9a6.36,6.36,0,0,1-1.68.23,2.4,2.4,0,0,1-2.06-1,3.91,3.91,0,0,1-.53-2.65l1.4-8.52H418.8l.32-1.82h2.43l.58-3.33Z"/><path class="fa1f075c-52d4-449f-904c-f63a2d85a4c7" d="M432.29,305.75a5,5,0,0,1,3,.94,5.34,5.34,0,0,1,1.82,2.52,7.82,7.82,0,0,1,.4,3.52l0,.28a9.24,9.24,0,0,1-1.2,3.63,7,7,0,0,1-2.47,2.52,6,6,0,0,1-3.32.85,5,5,0,0,1-3-.94,5.23,5.23,0,0,1-1.81-2.49,8,8,0,0,1-.41-3.47,9.37,9.37,0,0,1,1.16-3.84,7.17,7.17,0,0,1,2.49-2.64A6,6,0,0,1,432.29,305.75Zm-4.68,7.38a7.79,7.79,0,0,0,0,1.67,4.07,4.07,0,0,0,.9,2.39,2.69,2.69,0,0,0,2.05.93,3.66,3.66,0,0,0,2.11-.57,4.74,4.74,0,0,0,1.63-1.82,7.71,7.71,0,0,0,.85-2.71,12.3,12.3,0,0,0,0-2,4.24,4.24,0,0,0-.93-2.43,2.75,2.75,0,0,0-2.06-.94,3.75,3.75,0,0,0-3,1.4,6.91,6.91,0,0,0-1.54,3.76Z"/><path class="fa1f075c-52d4-449f-904c-f63a2d85a4c7" d="M445.88,316q.19-1.42-1.56-2l-2.39-.7q-3-1-2.92-3.46a3.81,3.81,0,0,1,1.66-3,5.91,5.91,0,0,1,3.69-1.14,4.93,4.93,0,0,1,3.39,1.21,3.85,3.85,0,0,1,1.25,3.1h-2.29a2.15,2.15,0,0,0-.65-1.68,2.57,2.57,0,0,0-1.79-.67,3.35,3.35,0,0,0-2.06.58,2.14,2.14,0,0,0-.93,1.5q-.17,1.2,1.46,1.74l1.16.32a7.46,7.46,0,0,1,3.36,1.59,3,3,0,0,1,.92,2.43,3.85,3.85,0,0,1-.84,2.24,4.8,4.8,0,0,1-2,1.46,6.8,6.8,0,0,1-2.71.46,5.37,5.37,0,0,1-3.61-1.28,4,4,0,0,1-1.37-3.22h2.3a2.44,2.44,0,0,0,.74,1.86,2.82,2.82,0,0,0,2,.7,4,4,0,0,0,2.17-.53A2,2,0,0,0,445.88,316Z"/><g class="43adf05f-ac9a-4310-8814-0234fd22ac23"><path class="fa1f075c-52d4-449f-904c-f63a2d85a4c7" d="M299.5,317.77H308l-.36,2H296.75L300,301.25h2.4Z"/><path class="fa1f075c-52d4-449f-904c-f63a2d85a4c7" d="M310.79,319.77H308.5L310.89,306h2.29ZM312.68,301a1.26,1.26,0,0,1,1,.35,1.31,1.31,0,0,1,.39,1,1.36,1.36,0,0,1-1.36,1.39,1.27,1.27,0,0,1-1-.34,1.24,1.24,0,0,1-.37-1,1.44,1.44,0,0,1,.38-1A1.34,1.34,0,0,1,312.68,301Z"/><path class="fa1f075c-52d4-449f-904c-f63a2d85a4c7" d="M313.4,312.86a11.22,11.22,0,0,1,1.21-3.91,6.35,6.35,0,0,1,2.21-2.45,5.13,5.13,0,0,1,2.86-.76,4.23,4.23,0,0,1,3.61,1.81l.46-1.54h2.11l-2.29,13.47a6.7,6.7,0,0,1-2.14,4.22,6,6,0,0,1-4.36,1.51,6.19,6.19,0,0,1-2.68-.66,5.09,5.09,0,0,1-2-1.74l1.31-1.41a4.13,4.13,0,0,0,6.07,1,4.73,4.73,0,0,0,1.51-2.75l.25-1.22A5.21,5.21,0,0,1,317.6,320a4,4,0,0,1-2.23-.69,4.22,4.22,0,0,1-1.47-1.9,7.73,7.73,0,0,1-.57-2.77A14,14,0,0,1,313.4,312.86Zm2.23,1.3a4.84,4.84,0,0,0,.63,2.81,2.38,2.38,0,0,0,2,1,4.17,4.17,0,0,0,3.55-2l1.08-6.31a2.89,2.89,0,0,0-2.76-2,3.57,3.57,0,0,0-3.07,1.52,7.93,7.93,0,0,0-1.42,4.25Z"/><path class="fa1f075c-52d4-449f-904c-f63a2d85a4c7" d="M333.63,319.77a3.07,3.07,0,0,1-.09-.72l0-.73a5.64,5.64,0,0,1-4,1.7,4.11,4.11,0,0,1-3-1.15,3.49,3.49,0,0,1-1-2.82,4.23,4.23,0,0,1,1.91-3.41,8.15,8.15,0,0,1,4.7-1.23h2.4l.15-1.09a2.52,2.52,0,0,0-.48-2,2.3,2.3,0,0,0-1.81-.74,3.55,3.55,0,0,0-2.09.58,2.46,2.46,0,0,0-1.11,1.6h-2.31a3.69,3.69,0,0,1,.94-2.14,5.47,5.47,0,0,1,2.12-1.45,6.86,6.86,0,0,1,2.68-.49A4.56,4.56,0,0,1,336,307a4,4,0,0,1,1,3.33l-1.12,6.82-.06,1a4.76,4.76,0,0,0,.15,1.39l0,.22ZM330,318a4,4,0,0,0,2.09-.53,5.29,5.29,0,0,0,1.7-1.53l.5-2.84h-1.74a6.59,6.59,0,0,0-3.33.69,2.53,2.53,0,0,0-1.31,1.95,2,2,0,0,0,.45,1.61A2.15,2.15,0,0,0,330,318Z"/><path class="fa1f075c-52d4-449f-904c-f63a2d85a4c7" d="M341.82,306l-.33,1.74a5.42,5.42,0,0,1,4.22-2,3.41,3.41,0,0,1,2.87,1.35,5.23,5.23,0,0,1,.69,3.65l-1.5,9h-2.3l1.51-9a4.8,4.8,0,0,0,0-1.16,1.9,1.9,0,0,0-2.1-1.82,4.33,4.33,0,0,0-3.64,2.21l-1.7,9.81h-2.3L339.65,306Z"/><path class="fa1f075c-52d4-449f-904c-f63a2d85a4c7" d="M350.16,312.86a10.69,10.69,0,0,1,1.16-3.79,6.56,6.56,0,0,1,2.23-2.53,5.09,5.09,0,0,1,2.91-.8,4.3,4.3,0,0,1,3.54,1.68l1.32-7.19h2.3l-3.38,19.53h-2.1l.24-1.48a5.07,5.07,0,0,1-4,1.73,3.8,3.8,0,0,1-3-1.49,6.5,6.5,0,0,1-1.22-3.87A12.3,12.3,0,0,1,350.16,312.86Zm2.21,1.31A4.77,4.77,0,0,0,353,317a2.34,2.34,0,0,0,2,1,4.16,4.16,0,0,0,3.55-2l1.09-6.35a2.86,2.86,0,0,0-2.77-1.93,3.49,3.49,0,0,0-2.4.82,5.29,5.29,0,0,0-1.58,2.4A9.88,9.88,0,0,0,352.38,314.18Z"/><path class="fa1f075c-52d4-449f-904c-f63a2d85a4c7" d="M369.69,305.75a5,5,0,0,1,3,.94,5.34,5.34,0,0,1,1.82,2.52,7.82,7.82,0,0,1,.4,3.52l0,.28a9.24,9.24,0,0,1-1.2,3.63,7,7,0,0,1-2.47,2.52,6,6,0,0,1-3.32.85,5,5,0,0,1-3-.94,5.23,5.23,0,0,1-1.81-2.49,8,8,0,0,1-.41-3.47,9.37,9.37,0,0,1,1.16-3.84,7.17,7.17,0,0,1,2.49-2.64A6,6,0,0,1,369.69,305.75ZM365,313.13a7.79,7.79,0,0,0,0,1.67,4.07,4.07,0,0,0,.9,2.39,2.69,2.69,0,0,0,2.05.93,3.66,3.66,0,0,0,2.11-.57,4.74,4.74,0,0,0,1.63-1.82,7.71,7.71,0,0,0,.85-2.71,12.3,12.3,0,0,0,0-2,4.24,4.24,0,0,0-.93-2.43,2.75,2.75,0,0,0-2.06-.94,3.75,3.75,0,0,0-3,1.4,6.91,6.91,0,0,0-1.54,3.76Z"/><path class="fa1f075c-52d4-449f-904c-f63a2d85a4c7" d="M383.33,312.52l-1.26,7.25h-2.39l3.22-18.52h6.18a6,6,0,0,1,4.41,1.52,4.78,4.78,0,0,1,1.33,4A5.76,5.76,0,0,1,392.7,311a7.68,7.68,0,0,1-5,1.53Zm.34-2h4.12a5,5,0,0,0,3.19-1,3.94,3.94,0,0,0,1.46-2.73,3.09,3.09,0,0,0-.65-2.55,3.26,3.26,0,0,0-2.48-1h-4.39Z"/><path class="fa1f075c-52d4-449f-904c-f63a2d85a4c7" d="M401,305.75a5,5,0,0,1,3,.94,5.34,5.34,0,0,1,1.82,2.52,7.82,7.82,0,0,1,.4,3.52l0,.28a9.24,9.24,0,0,1-1.2,3.63,7,7,0,0,1-2.47,2.52,6,6,0,0,1-3.32.85,5,5,0,0,1-3-.94,5.23,5.23,0,0,1-1.81-2.49,8,8,0,0,1-.41-3.47,9.37,9.37,0,0,1,1.16-3.84,7.17,7.17,0,0,1,2.49-2.64A6,6,0,0,1,401,305.75Zm-4.68,7.38a7.79,7.79,0,0,0,0,1.67,4.07,4.07,0,0,0,.9,2.39,2.69,2.69,0,0,0,2.05.93,3.66,3.66,0,0,0,2.11-.57,4.74,4.74,0,0,0,1.63-1.82,7.71,7.71,0,0,0,.85-2.71,12.3,12.3,0,0,0,0-2,4.24,4.24,0,0,0-.93-2.43,2.75,2.75,0,0,0-2.06-.94,3.75,3.75,0,0,0-3,1.4,6.91,6.91,0,0,0-1.54,3.76Z"/><path class="fa1f075c-52d4-449f-904c-f63a2d85a4c7" d="M410.67,306l-.33,1.74a5.42,5.42,0,0,1,4.22-2,3.41,3.41,0,0,1,2.87,1.35,5.23,5.23,0,0,1,.69,3.65l-1.5,9h-2.3l1.51-9a4.8,4.8,0,0,0,0-1.16,1.9,1.9,0,0,0-2.1-1.82,4.33,4.33,0,0,0-3.64,2.21l-1.7,9.81h-2.3L408.5,306Z"/><path class="fa1f075c-52d4-449f-904c-f63a2d85a4c7" d="M424.43,302.68l-.58,3.33h2.5l-.32,1.82h-2.49l-1.44,8.58a3,3,0,0,0,0,.61,1,1,0,0,0,1.08,1,6.63,6.63,0,0,0,1.12-.13l-.18,1.9a6.36,6.36,0,0,1-1.68.23,2.4,2.4,0,0,1-2.06-1,3.91,3.91,0,0,1-.53-2.65l1.4-8.52H418.8l.32-1.82h2.43l.58-3.33Z"/><path class="fa1f075c-52d4-449f-904c-f63a2d85a4c7" d="M432.29,305.75a5,5,0,0,1,3,.94,5.34,5.34,0,0,1,1.82,2.52,7.82,7.82,0,0,1,.4,3.52l0,.28a9.24,9.24,0,0,1-1.2,3.63,7,7,0,0,1-2.47,2.52,6,6,0,0,1-3.32.85,5,5,0,0,1-3-.94,5.23,5.23,0,0,1-1.81-2.49,8,8,0,0,1-.41-3.47,9.37,9.37,0,0,1,1.16-3.84,7.17,7.17,0,0,1,2.49-2.64A6,6,0,0,1,432.29,305.75Zm-4.68,7.38a7.79,7.79,0,0,0,0,1.67,4.07,4.07,0,0,0,.9,2.39,2.69,2.69,0,0,0,2.05.93,3.66,3.66,0,0,0,2.11-.57,4.74,4.74,0,0,0,1.63-1.82,7.71,7.71,0,0,0,.85-2.71,12.3,12.3,0,0,0,0-2,4.24,4.24,0,0,0-.93-2.43,2.75,2.75,0,0,0-2.06-.94,3.75,3.75,0,0,0-3,1.4,6.91,6.91,0,0,0-1.54,3.76Z"/><path class="fa1f075c-52d4-449f-904c-f63a2d85a4c7" d="M445.88,316q.19-1.42-1.56-2l-2.39-.7q-3-1-2.92-3.46a3.81,3.81,0,0,1,1.66-3,5.91,5.91,0,0,1,3.69-1.14,4.93,4.93,0,0,1,3.39,1.21,3.85,3.85,0,0,1,1.25,3.1h-2.29a2.15,2.15,0,0,0-.65-1.68,2.57,2.57,0,0,0-1.79-.67,3.35,3.35,0,0,0-2.06.58,2.14,2.14,0,0,0-.93,1.5q-.17,1.2,1.46,1.74l1.16.32a7.46,7.46,0,0,1,3.36,1.59,3,3,0,0,1,.92,2.43,3.85,3.85,0,0,1-.84,2.24,4.8,4.8,0,0,1-2,1.46,6.8,6.8,0,0,1-2.71.46,5.37,5.37,0,0,1-3.61-1.28,4,4,0,0,1-1.37-3.22h2.3a2.44,2.44,0,0,0,.74,1.86,2.82,2.82,0,0,0,2,.7,4,4,0,0,0,2.17-.53A2,2,0,0,0,445.88,316Z"/></g><path class="7f2370ab-8531-4379-85b1-f153bf90563f" d="M63,625.51a15.46,15.46,0,0,1,5.08-12.3,19,19,0,0,1,24.9-.44,15.25,15.25,0,0,1,5.27,11.57,15.62,15.62,0,0,1-5,12.26,17.71,17.71,0,0,1-12.7,4.93A17.83,17.83,0,0,1,68.18,637,15.43,15.43,0,0,1,63,625.51Z"/><path class="1f0ea2cd-382b-4395-b4d4-14dab85b076a" d="M63,625.51a15.46,15.46,0,0,1,5.08-12.3,19,19,0,0,1,24.9-.44,15.25,15.25,0,0,1,5.27,11.57,15.62,15.62,0,0,1-5,12.26,17.71,17.71,0,0,1-12.7,4.93A17.83,17.83,0,0,1,68.18,637,15.43,15.43,0,0,1,63,625.51Z"/><path class="7f2370ab-8531-4379-85b1-f153bf90563f" d="M152.58,615.75q6.82.19,10.67-3.77a18.78,18.78,0,0,0,4.9-10.26l29.59-.1A38.9,38.9,0,0,1,191,622.09a40.93,40.93,0,0,1-16.72,14,49.43,49.43,0,0,1-22.53,4.66q-20.75-.38-32-14.94t-9.13-37.62l.29-2.31A69.64,69.64,0,0,1,119.72,558a50.56,50.56,0,0,1,18.69-18.78,48.48,48.48,0,0,1,25.9-6.25q18.16.38,28.68,11.58t10.14,30.22l-29.59-.1q.48-16.43-11.82-16.72Q145,557.33,142.49,586l-.86,9.77-.1,3.64Q141.53,615.47,152.58,615.75Z"/><path class="7f2370ab-8531-4379-85b1-f153bf90563f" d="M441.42,545.09q-7.08-10.69-21.73-11-18.16-.39-32.13,15.92a20.48,20.48,0,0,0-8.2-11.43q-6.15-4.3-15.72-4.49-16-.34-27.82,11.28v.89c-.24-.4-.48-.8-.73-1.18q-7.08-10.69-21.73-11-15.58-.33-28.06,11.63a38.8,38.8,0,0,0-7.49-6.51q-10.35-6.88-24.51-7.08-22.85-.39-38.23,15t-17.82,41.41a57.53,57.53,0,0,0,3.56,27.15,40.12,40.12,0,0,0,15.19,19q10.25,6.79,24.32,7,22.56.39,37.89-14.55t18.07-39.26l.2-2.15a60.14,60.14,0,0,0-2.71-25.21,16.37,16.37,0,0,1,5.73-1q9.08.29,9.08,9.95l-.39,5.76L297,641.72h32.23l11-66.5a69.88,69.88,0,0,0,.12-14,16.1,16.1,0,0,1,7.09-1.69q9.08,0,9.08,10l-.39,5.85L345,641.72h32.23L390,568.18q7.32-8.68,15.82-8.68,9.08.29,9.08,9.95l-.39,5.76-11.23,66.52h32.23l11-66.5Q448.5,555.79,441.42,545.09ZM264,585.61q-3,31.3-22,30.71-14.65-.39-13.28-22.13l.29-5.75q1.56-16.28,7.28-23.84t14.6-7.26a11.92,11.92,0,0,1,10.21,5.41q3.47,5.22,3.27,14Z"/><path class="7f2370ab-8531-4379-85b1-f153bf90563f" d="M144.25,574.93q4.37-17.47,17.47-17,12.3.29,11.82,16.72l29.59.1q.38-19-10.14-30.22t-28.68-11.58a48.48,48.48,0,0,0-25.89,6.25A50.56,50.56,0,0,0,119.72,558a65.32,65.32,0,0,0-6.87,17Z"/><path class="7f2370ab-8531-4379-85b1-f153bf90563f" d="M231.48,574.93a31.83,31.83,0,0,1,4.85-10.33q5.71-7.56,14.6-7.26a11.92,11.92,0,0,1,10.21,5.41q3.1,4.66,3.26,12.18H296.6a55.92,55.92,0,0,0-2.84-14.39,16.37,16.37,0,0,1,5.73-1q9.08.29,9.08,9.95l-.37,5.48h32a69.6,69.6,0,0,0,.1-13.75,16.1,16.1,0,0,1,7.09-1.69q9.08,0,9.08,10l-.36,5.39h32.68l1.17-6.75q7.32-8.68,15.82-8.68,9.08.29,9.08,9.95l-.37,5.48h32q1.87-19.22-5.15-29.84t-21.73-11q-18.16-.39-32.13,15.92a20.48,20.48,0,0,0-8.2-11.43q-6.15-4.3-15.72-4.49-16-.34-27.82,11.28v.89c-.24-.4-.48-.8-.73-1.18q-7.08-10.69-21.73-11-15.58-.33-28.06,11.63a38.8,38.8,0,0,0-7.49-6.51q-10.35-6.88-24.51-7.08-22.85-.39-38.23,15a60,60,0,0,0-15.44,27.75Z"/><path class="7f2370ab-8531-4379-85b1-f153bf90563f" d="M112.93,574.6a79.26,79.26,0,0,0-2,11.27l-.29,2.31a72.23,72.23,0,0,0-.14,12.09h31.1c0-.3,0-.58,0-.89l.1-3.64.86-9.77a70.41,70.41,0,0,1,1.84-11.37Z"/><path class="7f2370ab-8531-4379-85b1-f153bf90563f" d="M173.53,574.6s0,0,0,0l29.59.1s0-.08,0-.13Z"/><path class="7f2370ab-8531-4379-85b1-f153bf90563f" d="M199.72,574.6a84.65,84.65,0,0,0-2.47,14,65.82,65.82,0,0,0-.05,11.67h31.53a50.54,50.54,0,0,1,0-6.07l.29-5.75a72.94,72.94,0,0,1,2.53-13.84Z"/><path class="7f2370ab-8531-4379-85b1-f153bf90563f" d="M414.56,574.6l0,.61-4.23,25.06h32.11l4.16-25c0-.21,0-.41.05-.62Z"/><path class="7f2370ab-8531-4379-85b1-f153bf90563f" d="M264.39,574.6q0,1,0,2.14l-.39,8.87a69.41,69.41,0,0,1-2.83,14.65h32.7a78,78,0,0,0,2.38-12.36l.2-2.15a67.71,67.71,0,0,0,.11-11.16Z"/><path class="7f2370ab-8531-4379-85b1-f153bf90563f" d="M308.23,574.6l0,.61L304,600.26h32.11l4.16-25c0-.21,0-.41,0-.62Z"/><polygon class="7f2370ab-8531-4379-85b1-f153bf90563f" points="356.17 574.6 356.12 575.4 351.94 600.26 384.43 600.26 388.89 574.6 356.17 574.6"/><path class="7f2370ab-8531-4379-85b1-f153bf90563f" d="M173.53,574.6s0,0,0,0l29.59.1s0-.08,0-.13Z"/><path class="7f2370ab-8531-4379-85b1-f153bf90563f" d="M112.94,574.6l-.09.33h31.4c0-.11.06-.22.09-.33Z"/><path class="7f2370ab-8531-4379-85b1-f153bf90563f" d="M199.73,574.6c0,.11-.07.22-.1.33h31.85l.1-.33Z"/><path class="7f2370ab-8531-4379-85b1-f153bf90563f" d="M264.38,574.6c0,.11,0,.22,0,.33H296.6c0-.11,0-.22,0-.33Z"/><path class="7f2370ab-8531-4379-85b1-f153bf90563f" d="M414.56,574.6l0,.33h32c0-.11,0-.22,0-.33Z"/><path class="7f2370ab-8531-4379-85b1-f153bf90563f" d="M308.23,574.6l0,.33h32c0-.11,0-.22,0-.33Z"/><polygon class="7f2370ab-8531-4379-85b1-f153bf90563f" points="356.17 574.6 356.15 574.93 388.83 574.93 388.89 574.6 356.17 574.6"/><g class="43adf05f-ac9a-4310-8814-0234fd22ac23"><path class="7f2370ab-8531-4379-85b1-f153bf90563f" d="M152.58,615.75q6.82.19,10.67-3.77a18.78,18.78,0,0,0,4.9-10.26l29.59-.1A38.9,38.9,0,0,1,191,622.09a40.93,40.93,0,0,1-16.72,14,49.43,49.43,0,0,1-22.53,4.66q-20.75-.38-32-14.94t-9.13-37.62l.29-2.31A69.64,69.64,0,0,1,119.72,558a50.56,50.56,0,0,1,18.69-18.78,48.48,48.48,0,0,1,25.9-6.25q18.16.38,28.68,11.58t10.14,30.22l-29.59-.1q.48-16.43-11.82-16.72Q145,557.33,142.49,586l-.86,9.77-.1,3.64Q141.53,615.47,152.58,615.75Z"/><path class="7f2370ab-8531-4379-85b1-f153bf90563f" d="M441.42,545.09q-7.08-10.69-21.73-11-18.16-.39-32.13,15.92a20.48,20.48,0,0,0-8.2-11.43q-6.15-4.3-15.72-4.49-16-.34-27.82,11.28v.89c-.24-.4-.48-.8-.73-1.18q-7.08-10.69-21.73-11-15.58-.33-28.06,11.63a38.8,38.8,0,0,0-7.49-6.51q-10.35-6.88-24.51-7.08-22.85-.39-38.23,15t-17.82,41.41a57.53,57.53,0,0,0,3.56,27.15,40.12,40.12,0,0,0,15.19,19q10.25,6.79,24.32,7,22.56.39,37.89-14.55t18.07-39.26l.2-2.15a60.14,60.14,0,0,0-2.71-25.21,16.37,16.37,0,0,1,5.73-1q9.08.29,9.08,9.95l-.39,5.76L297,641.72h32.23l11-66.5a69.88,69.88,0,0,0,.12-14,16.1,16.1,0,0,1,7.09-1.69q9.08,0,9.08,10l-.39,5.85L345,641.72h32.23L390,568.18q7.32-8.68,15.82-8.68,9.08.29,9.08,9.95l-.39,5.76-11.23,66.52h32.23l11-66.5Q448.5,555.79,441.42,545.09ZM264,585.61q-3,31.3-22,30.71-14.65-.39-13.28-22.13l.29-5.75q1.56-16.28,7.28-23.84t14.6-7.26a11.92,11.92,0,0,1,10.21,5.41q3.47,5.22,3.27,14Z"/><path class="7f2370ab-8531-4379-85b1-f153bf90563f" d="M144.25,574.93q4.37-17.47,17.47-17,12.3.29,11.82,16.72l29.59.1q.38-19-10.14-30.22t-28.68-11.58a48.48,48.48,0,0,0-25.89,6.25A50.56,50.56,0,0,0,119.72,558a65.32,65.32,0,0,0-6.87,17Z"/><path class="7f2370ab-8531-4379-85b1-f153bf90563f" d="M231.48,574.93a31.83,31.83,0,0,1,4.85-10.33q5.71-7.56,14.6-7.26a11.92,11.92,0,0,1,10.21,5.41q3.1,4.66,3.26,12.18H296.6a55.92,55.92,0,0,0-2.84-14.39,16.37,16.37,0,0,1,5.73-1q9.08.29,9.08,9.95l-.37,5.48h32a69.6,69.6,0,0,0,.1-13.75,16.1,16.1,0,0,1,7.09-1.69q9.08,0,9.08,10l-.36,5.39h32.68l1.17-6.75q7.32-8.68,15.82-8.68,9.08.29,9.08,9.95l-.37,5.48h32q1.87-19.22-5.15-29.84t-21.73-11q-18.16-.39-32.13,15.92a20.48,20.48,0,0,0-8.2-11.43q-6.15-4.3-15.72-4.49-16-.34-27.82,11.28v.89c-.24-.4-.48-.8-.73-1.18q-7.08-10.69-21.73-11-15.58-.33-28.06,11.63a38.8,38.8,0,0,0-7.49-6.51q-10.35-6.88-24.51-7.08-22.85-.39-38.23,15a60,60,0,0,0-15.44,27.75Z"/><path class="7f2370ab-8531-4379-85b1-f153bf90563f" d="M112.93,574.6a79.26,79.26,0,0,0-2,11.27l-.29,2.31a72.23,72.23,0,0,0-.14,12.09h31.1c0-.3,0-.58,0-.89l.1-3.64.86-9.77a70.41,70.41,0,0,1,1.84-11.37Z"/><path class="7f2370ab-8531-4379-85b1-f153bf90563f" d="M173.53,574.6s0,0,0,0l29.59.1s0-.08,0-.13Z"/><path class="7f2370ab-8531-4379-85b1-f153bf90563f" d="M199.72,574.6a84.65,84.65,0,0,0-2.47,14,65.82,65.82,0,0,0-.05,11.67h31.53a50.54,50.54,0,0,1,0-6.07l.29-5.75a72.94,72.94,0,0,1,2.53-13.84Z"/><path class="7f2370ab-8531-4379-85b1-f153bf90563f" d="M414.56,574.6l0,.61-4.23,25.06h32.11l4.16-25c0-.21,0-.41.05-.62Z"/><path class="7f2370ab-8531-4379-85b1-f153bf90563f" d="M264.39,574.6q0,1,0,2.14l-.39,8.87a69.41,69.41,0,0,1-2.83,14.65h32.7a78,78,0,0,0,2.38-12.36l.2-2.15a67.71,67.71,0,0,0,.11-11.16Z"/><path class="7f2370ab-8531-4379-85b1-f153bf90563f" d="M308.23,574.6l0,.61L304,600.26h32.11l4.16-25c0-.21,0-.41,0-.62Z"/><polygon class="7f2370ab-8531-4379-85b1-f153bf90563f" points="356.17 574.6 356.12 575.4 351.94 600.26 384.43 600.26 388.89 574.6 356.17 574.6"/><path class="7f2370ab-8531-4379-85b1-f153bf90563f" d="M173.53,574.6s0,0,0,0l29.59.1s0-.08,0-.13Z"/><path class="7f2370ab-8531-4379-85b1-f153bf90563f" d="M112.94,574.6l-.09.33h31.4c0-.11.06-.22.09-.33Z"/><path class="7f2370ab-8531-4379-85b1-f153bf90563f" d="M199.73,574.6c0,.11-.07.22-.1.33h31.85l.1-.33Z"/><path class="7f2370ab-8531-4379-85b1-f153bf90563f" d="M264.38,574.6c0,.11,0,.22,0,.33H296.6c0-.11,0-.22,0-.33Z"/><path class="7f2370ab-8531-4379-85b1-f153bf90563f" d="M414.56,574.6l0,.33h32c0-.11,0-.22,0-.33Z"/><path class="7f2370ab-8531-4379-85b1-f153bf90563f" d="M308.23,574.6l0,.33h32c0-.11,0-.22,0-.33Z"/><polygon class="7f2370ab-8531-4379-85b1-f153bf90563f" points="356.17 574.6 356.15 574.93 388.83 574.93 388.89 574.6 356.17 574.6"/></g><path class="7f2370ab-8531-4379-85b1-f153bf90563f" d="M299.5,663.1H308l-.36,2H296.75L300,646.58h2.4Z"/><path class="7f2370ab-8531-4379-85b1-f153bf90563f" d="M310.79,665.1H308.5l2.39-13.76h2.29Zm1.89-18.78a1.26,1.26,0,0,1,1,.35,1.31,1.31,0,0,1,.39,1,1.36,1.36,0,0,1-1.36,1.39,1.27,1.27,0,0,1-1-.34,1.24,1.24,0,0,1-.37-1,1.44,1.44,0,0,1,.38-1A1.34,1.34,0,0,1,312.68,646.32Z"/><path class="7f2370ab-8531-4379-85b1-f153bf90563f" d="M313.4,658.19a11.22,11.22,0,0,1,1.21-3.91,6.35,6.35,0,0,1,2.21-2.45,5.13,5.13,0,0,1,2.86-.76,4.23,4.23,0,0,1,3.61,1.81l.46-1.54h2.11l-2.29,13.47a6.7,6.7,0,0,1-2.14,4.22,6,6,0,0,1-4.36,1.51,6.19,6.19,0,0,1-2.68-.66,5.09,5.09,0,0,1-2-1.74l1.31-1.41a4.13,4.13,0,0,0,6.07,1,4.73,4.73,0,0,0,1.51-2.75l.25-1.22a5.21,5.21,0,0,1-3.93,1.63,4,4,0,0,1-2.23-.69,4.22,4.22,0,0,1-1.47-1.9,7.73,7.73,0,0,1-.57-2.77A14,14,0,0,1,313.4,658.19Zm2.23,1.3a4.84,4.84,0,0,0,.63,2.81,2.38,2.38,0,0,0,2,1,4.17,4.17,0,0,0,3.55-2L322.9,655a2.89,2.89,0,0,0-2.76-2,3.57,3.57,0,0,0-3.07,1.52,7.93,7.93,0,0,0-1.42,4.25Z"/><path class="7f2370ab-8531-4379-85b1-f153bf90563f" d="M333.63,665.1a3.07,3.07,0,0,1-.09-.72l0-.73a5.64,5.64,0,0,1-4,1.7,4.11,4.11,0,0,1-3-1.15,3.49,3.49,0,0,1-1-2.82,4.23,4.23,0,0,1,1.91-3.41,8.15,8.15,0,0,1,4.7-1.23h2.4l.15-1.09a2.52,2.52,0,0,0-.48-2,2.3,2.3,0,0,0-1.81-.74,3.55,3.55,0,0,0-2.09.58,2.46,2.46,0,0,0-1.11,1.6h-2.31a3.69,3.69,0,0,1,.94-2.14,5.47,5.47,0,0,1,2.12-1.45,6.86,6.86,0,0,1,2.68-.49,4.56,4.56,0,0,1,3.34,1.3,4,4,0,0,1,1,3.33l-1.12,6.82-.06,1a4.76,4.76,0,0,0,.15,1.39l0,.22ZM330,663.32a4,4,0,0,0,2.09-.53,5.29,5.29,0,0,0,1.7-1.53l.5-2.84h-1.74a6.59,6.59,0,0,0-3.33.69,2.53,2.53,0,0,0-1.31,1.95,2,2,0,0,0,.45,1.61A2.15,2.15,0,0,0,330,663.32Z"/><path class="7f2370ab-8531-4379-85b1-f153bf90563f" d="M341.82,651.33l-.33,1.74a5.42,5.42,0,0,1,4.22-2,3.41,3.41,0,0,1,2.87,1.35,5.23,5.23,0,0,1,.69,3.65l-1.5,9h-2.3l1.51-9a4.8,4.8,0,0,0,0-1.16,1.9,1.9,0,0,0-2.1-1.82,4.33,4.33,0,0,0-3.64,2.21l-1.7,9.81h-2.3l2.39-13.76Z"/><path class="7f2370ab-8531-4379-85b1-f153bf90563f" d="M350.16,658.19a10.69,10.69,0,0,1,1.16-3.79,6.56,6.56,0,0,1,2.23-2.53,5.09,5.09,0,0,1,2.91-.8,4.3,4.3,0,0,1,3.54,1.68l1.32-7.19h2.3l-3.38,19.53h-2.1l.24-1.48a5.07,5.07,0,0,1-4,1.73,3.8,3.8,0,0,1-3-1.49A6.5,6.5,0,0,1,350.1,660,12.3,12.3,0,0,1,350.16,658.19Zm2.21,1.31a4.77,4.77,0,0,0,.65,2.82,2.34,2.34,0,0,0,2,1,4.16,4.16,0,0,0,3.55-2l1.09-6.35a2.86,2.86,0,0,0-2.77-1.93,3.49,3.49,0,0,0-2.4.82,5.29,5.29,0,0,0-1.58,2.4A9.88,9.88,0,0,0,352.38,659.51Z"/><path class="7f2370ab-8531-4379-85b1-f153bf90563f" d="M369.69,651.09a5,5,0,0,1,3,.94,5.34,5.34,0,0,1,1.82,2.52,7.82,7.82,0,0,1,.4,3.52l0,.28a9.24,9.24,0,0,1-1.2,3.63,7,7,0,0,1-2.47,2.52,6,6,0,0,1-3.32.85,5,5,0,0,1-3-.94,5.23,5.23,0,0,1-1.81-2.49,8,8,0,0,1-.41-3.47,9.37,9.37,0,0,1,1.16-3.84,7.17,7.17,0,0,1,2.49-2.64A6,6,0,0,1,369.69,651.09ZM365,658.46a7.79,7.79,0,0,0,0,1.67,4.07,4.07,0,0,0,.9,2.39,2.69,2.69,0,0,0,2.05.93,3.66,3.66,0,0,0,2.11-.57,4.74,4.74,0,0,0,1.63-1.82,7.71,7.71,0,0,0,.85-2.71,12.3,12.3,0,0,0,0-2,4.24,4.24,0,0,0-.93-2.43,2.75,2.75,0,0,0-2.06-.94,3.75,3.75,0,0,0-3,1.4,6.91,6.91,0,0,0-1.54,3.76Z"/><path class="7f2370ab-8531-4379-85b1-f153bf90563f" d="M383.33,657.85l-1.26,7.25h-2.39l3.22-18.52h6.18a6,6,0,0,1,4.41,1.52,4.78,4.78,0,0,1,1.33,4,5.76,5.76,0,0,1-2.12,4.18,7.68,7.68,0,0,1-5,1.53Zm.34-2h4.12a5,5,0,0,0,3.19-1,3.94,3.94,0,0,0,1.46-2.73,3.09,3.09,0,0,0-.65-2.55,3.26,3.26,0,0,0-2.48-1h-4.39Z"/><path class="7f2370ab-8531-4379-85b1-f153bf90563f" d="M401,651.09a5,5,0,0,1,3,.94,5.34,5.34,0,0,1,1.82,2.52,7.82,7.82,0,0,1,.4,3.52l0,.28A9.24,9.24,0,0,1,405,662a7,7,0,0,1-2.47,2.52,6,6,0,0,1-3.32.85,5,5,0,0,1-3-.94,5.23,5.23,0,0,1-1.81-2.49,8,8,0,0,1-.41-3.47,9.37,9.37,0,0,1,1.16-3.84,7.17,7.17,0,0,1,2.49-2.64A6,6,0,0,1,401,651.09Zm-4.68,7.38a7.79,7.79,0,0,0,0,1.67,4.07,4.07,0,0,0,.9,2.39,2.69,2.69,0,0,0,2.05.93,3.66,3.66,0,0,0,2.11-.57,4.74,4.74,0,0,0,1.63-1.82,7.71,7.71,0,0,0,.85-2.71,12.3,12.3,0,0,0,0-2,4.24,4.24,0,0,0-.93-2.43,2.75,2.75,0,0,0-2.06-.94,3.75,3.75,0,0,0-3,1.4,6.91,6.91,0,0,0-1.54,3.76Z"/><path class="7f2370ab-8531-4379-85b1-f153bf90563f" d="M410.67,651.33l-.33,1.74a5.42,5.42,0,0,1,4.22-2,3.41,3.41,0,0,1,2.87,1.35,5.23,5.23,0,0,1,.69,3.65l-1.5,9h-2.3l1.51-9a4.8,4.8,0,0,0,0-1.16,1.9,1.9,0,0,0-2.1-1.82,4.33,4.33,0,0,0-3.64,2.21l-1.7,9.81h-2.3l2.39-13.76Z"/><path class="7f2370ab-8531-4379-85b1-f153bf90563f" d="M424.43,648l-.58,3.33h2.5l-.32,1.82h-2.49l-1.44,8.58a3,3,0,0,0,0,.61,1,1,0,0,0,1.08,1,6.63,6.63,0,0,0,1.12-.13l-.18,1.9a6.36,6.36,0,0,1-1.68.23,2.4,2.4,0,0,1-2.06-1,3.91,3.91,0,0,1-.53-2.65l1.4-8.52H418.8l.32-1.82h2.43l.58-3.33Z"/><path class="7f2370ab-8531-4379-85b1-f153bf90563f" d="M432.29,651.09a5,5,0,0,1,3,.94,5.34,5.34,0,0,1,1.82,2.52,7.82,7.82,0,0,1,.4,3.52l0,.28a9.24,9.24,0,0,1-1.2,3.63,7,7,0,0,1-2.47,2.52,6,6,0,0,1-3.32.85,5,5,0,0,1-3-.94,5.23,5.23,0,0,1-1.81-2.49,8,8,0,0,1-.41-3.47,9.37,9.37,0,0,1,1.16-3.84,7.17,7.17,0,0,1,2.49-2.64A6,6,0,0,1,432.29,651.09Zm-4.68,7.38a7.79,7.79,0,0,0,0,1.67,4.07,4.07,0,0,0,.9,2.39,2.69,2.69,0,0,0,2.05.93,3.66,3.66,0,0,0,2.11-.57,4.74,4.74,0,0,0,1.63-1.82,7.71,7.71,0,0,0,.85-2.71,12.3,12.3,0,0,0,0-2,4.24,4.24,0,0,0-.93-2.43,2.75,2.75,0,0,0-2.06-.94,3.75,3.75,0,0,0-3,1.4,6.91,6.91,0,0,0-1.54,3.76Z"/><path class="7f2370ab-8531-4379-85b1-f153bf90563f" d="M445.88,661.37q.19-1.42-1.56-2l-2.39-.7q-3-1-2.92-3.46a3.81,3.81,0,0,1,1.66-3,5.91,5.91,0,0,1,3.69-1.14,4.93,4.93,0,0,1,3.39,1.21,3.85,3.85,0,0,1,1.25,3.1h-2.29a2.15,2.15,0,0,0-.65-1.68,2.57,2.57,0,0,0-1.79-.67,3.35,3.35,0,0,0-2.06.58,2.14,2.14,0,0,0-.93,1.5q-.17,1.2,1.46,1.74l1.16.32a7.46,7.46,0,0,1,3.36,1.59,3,3,0,0,1,.92,2.43,3.85,3.85,0,0,1-.84,2.24,4.8,4.8,0,0,1-2,1.46,6.8,6.8,0,0,1-2.71.46,5.37,5.37,0,0,1-3.61-1.28,4,4,0,0,1-1.37-3.22h2.3a2.44,2.44,0,0,0,.74,1.86,2.82,2.82,0,0,0,2,.7,4,4,0,0,0,2.17-.53A2,2,0,0,0,445.88,661.37Z"/><g class="43adf05f-ac9a-4310-8814-0234fd22ac23"><path class="7f2370ab-8531-4379-85b1-f153bf90563f" d="M299.5,663.1H308l-.36,2H296.75L300,646.58h2.4Z"/><path class="7f2370ab-8531-4379-85b1-f153bf90563f" d="M310.79,665.1H308.5l2.39-13.76h2.29Zm1.89-18.78a1.26,1.26,0,0,1,1,.35,1.31,1.31,0,0,1,.39,1,1.36,1.36,0,0,1-1.36,1.39,1.27,1.27,0,0,1-1-.34,1.24,1.24,0,0,1-.37-1,1.44,1.44,0,0,1,.38-1A1.34,1.34,0,0,1,312.68,646.32Z"/><path class="7f2370ab-8531-4379-85b1-f153bf90563f" d="M313.4,658.19a11.22,11.22,0,0,1,1.21-3.91,6.35,6.35,0,0,1,2.21-2.45,5.13,5.13,0,0,1,2.86-.76,4.23,4.23,0,0,1,3.61,1.81l.46-1.54h2.11l-2.29,13.47a6.7,6.7,0,0,1-2.14,4.22,6,6,0,0,1-4.36,1.51,6.19,6.19,0,0,1-2.68-.66,5.09,5.09,0,0,1-2-1.74l1.31-1.41a4.13,4.13,0,0,0,6.07,1,4.73,4.73,0,0,0,1.51-2.75l.25-1.22a5.21,5.21,0,0,1-3.93,1.63,4,4,0,0,1-2.23-.69,4.22,4.22,0,0,1-1.47-1.9,7.73,7.73,0,0,1-.57-2.77A14,14,0,0,1,313.4,658.19Zm2.23,1.3a4.84,4.84,0,0,0,.63,2.81,2.38,2.38,0,0,0,2,1,4.17,4.17,0,0,0,3.55-2L322.9,655a2.89,2.89,0,0,0-2.76-2,3.57,3.57,0,0,0-3.07,1.52,7.93,7.93,0,0,0-1.42,4.25Z"/><path class="7f2370ab-8531-4379-85b1-f153bf90563f" d="M333.63,665.1a3.07,3.07,0,0,1-.09-.72l0-.73a5.64,5.64,0,0,1-4,1.7,4.11,4.11,0,0,1-3-1.15,3.49,3.49,0,0,1-1-2.82,4.23,4.23,0,0,1,1.91-3.41,8.15,8.15,0,0,1,4.7-1.23h2.4l.15-1.09a2.52,2.52,0,0,0-.48-2,2.3,2.3,0,0,0-1.81-.74,3.55,3.55,0,0,0-2.09.58,2.46,2.46,0,0,0-1.11,1.6h-2.31a3.69,3.69,0,0,1,.94-2.14,5.47,5.47,0,0,1,2.12-1.45,6.86,6.86,0,0,1,2.68-.49,4.56,4.56,0,0,1,3.34,1.3,4,4,0,0,1,1,3.33l-1.12,6.82-.06,1a4.76,4.76,0,0,0,.15,1.39l0,.22ZM330,663.32a4,4,0,0,0,2.09-.53,5.29,5.29,0,0,0,1.7-1.53l.5-2.84h-1.74a6.59,6.59,0,0,0-3.33.69,2.53,2.53,0,0,0-1.31,1.95,2,2,0,0,0,.45,1.61A2.15,2.15,0,0,0,330,663.32Z"/><path class="7f2370ab-8531-4379-85b1-f153bf90563f" d="M341.82,651.33l-.33,1.74a5.42,5.42,0,0,1,4.22-2,3.41,3.41,0,0,1,2.87,1.35,5.23,5.23,0,0,1,.69,3.65l-1.5,9h-2.3l1.51-9a4.8,4.8,0,0,0,0-1.16,1.9,1.9,0,0,0-2.1-1.82,4.33,4.33,0,0,0-3.64,2.21l-1.7,9.81h-2.3l2.39-13.76Z"/><path class="7f2370ab-8531-4379-85b1-f153bf90563f" d="M350.16,658.19a10.69,10.69,0,0,1,1.16-3.79,6.56,6.56,0,0,1,2.23-2.53,5.09,5.09,0,0,1,2.91-.8,4.3,4.3,0,0,1,3.54,1.68l1.32-7.19h2.3l-3.38,19.53h-2.1l.24-1.48a5.07,5.07,0,0,1-4,1.73,3.8,3.8,0,0,1-3-1.49A6.5,6.5,0,0,1,350.1,660,12.3,12.3,0,0,1,350.16,658.19Zm2.21,1.31a4.77,4.77,0,0,0,.65,2.82,2.34,2.34,0,0,0,2,1,4.16,4.16,0,0,0,3.55-2l1.09-6.35a2.86,2.86,0,0,0-2.77-1.93,3.49,3.49,0,0,0-2.4.82,5.29,5.29,0,0,0-1.58,2.4A9.88,9.88,0,0,0,352.38,659.51Z"/><path class="7f2370ab-8531-4379-85b1-f153bf90563f" d="M369.69,651.09a5,5,0,0,1,3,.94,5.34,5.34,0,0,1,1.82,2.52,7.82,7.82,0,0,1,.4,3.52l0,.28a9.24,9.24,0,0,1-1.2,3.63,7,7,0,0,1-2.47,2.52,6,6,0,0,1-3.32.85,5,5,0,0,1-3-.94,5.23,5.23,0,0,1-1.81-2.49,8,8,0,0,1-.41-3.47,9.37,9.37,0,0,1,1.16-3.84,7.17,7.17,0,0,1,2.49-2.64A6,6,0,0,1,369.69,651.09ZM365,658.46a7.79,7.79,0,0,0,0,1.67,4.07,4.07,0,0,0,.9,2.39,2.69,2.69,0,0,0,2.05.93,3.66,3.66,0,0,0,2.11-.57,4.74,4.74,0,0,0,1.63-1.82,7.71,7.71,0,0,0,.85-2.71,12.3,12.3,0,0,0,0-2,4.24,4.24,0,0,0-.93-2.43,2.75,2.75,0,0,0-2.06-.94,3.75,3.75,0,0,0-3,1.4,6.91,6.91,0,0,0-1.54,3.76Z"/><path class="7f2370ab-8531-4379-85b1-f153bf90563f" d="M383.33,657.85l-1.26,7.25h-2.39l3.22-18.52h6.18a6,6,0,0,1,4.41,1.52,4.78,4.78,0,0,1,1.33,4,5.76,5.76,0,0,1-2.12,4.18,7.68,7.68,0,0,1-5,1.53Zm.34-2h4.12a5,5,0,0,0,3.19-1,3.94,3.94,0,0,0,1.46-2.73,3.09,3.09,0,0,0-.65-2.55,3.26,3.26,0,0,0-2.48-1h-4.39Z"/><path class="7f2370ab-8531-4379-85b1-f153bf90563f" d="M401,651.09a5,5,0,0,1,3,.94,5.34,5.34,0,0,1,1.82,2.52,7.82,7.82,0,0,1,.4,3.52l0,.28A9.24,9.24,0,0,1,405,662a7,7,0,0,1-2.47,2.52,6,6,0,0,1-3.32.85,5,5,0,0,1-3-.94,5.23,5.23,0,0,1-1.81-2.49,8,8,0,0,1-.41-3.47,9.37,9.37,0,0,1,1.16-3.84,7.17,7.17,0,0,1,2.49-2.64A6,6,0,0,1,401,651.09Zm-4.68,7.38a7.79,7.79,0,0,0,0,1.67,4.07,4.07,0,0,0,.9,2.39,2.69,2.69,0,0,0,2.05.93,3.66,3.66,0,0,0,2.11-.57,4.74,4.74,0,0,0,1.63-1.82,7.71,7.71,0,0,0,.85-2.71,12.3,12.3,0,0,0,0-2,4.24,4.24,0,0,0-.93-2.43,2.75,2.75,0,0,0-2.06-.94,3.75,3.75,0,0,0-3,1.4,6.91,6.91,0,0,0-1.54,3.76Z"/><path class="7f2370ab-8531-4379-85b1-f153bf90563f" d="M410.67,651.33l-.33,1.74a5.42,5.42,0,0,1,4.22-2,3.41,3.41,0,0,1,2.87,1.35,5.23,5.23,0,0,1,.69,3.65l-1.5,9h-2.3l1.51-9a4.8,4.8,0,0,0,0-1.16,1.9,1.9,0,0,0-2.1-1.82,4.33,4.33,0,0,0-3.64,2.21l-1.7,9.81h-2.3l2.39-13.76Z"/><path class="7f2370ab-8531-4379-85b1-f153bf90563f" d="M424.43,648l-.58,3.33h2.5l-.32,1.82h-2.49l-1.44,8.58a3,3,0,0,0,0,.61,1,1,0,0,0,1.08,1,6.63,6.63,0,0,0,1.12-.13l-.18,1.9a6.36,6.36,0,0,1-1.68.23,2.4,2.4,0,0,1-2.06-1,3.91,3.91,0,0,1-.53-2.65l1.4-8.52H418.8l.32-1.82h2.43l.58-3.33Z"/><path class="7f2370ab-8531-4379-85b1-f153bf90563f" d="M432.29,651.09a5,5,0,0,1,3,.94,5.34,5.34,0,0,1,1.82,2.52,7.82,7.82,0,0,1,.4,3.52l0,.28a9.24,9.24,0,0,1-1.2,3.63,7,7,0,0,1-2.47,2.52,6,6,0,0,1-3.32.85,5,5,0,0,1-3-.94,5.23,5.23,0,0,1-1.81-2.49,8,8,0,0,1-.41-3.47,9.37,9.37,0,0,1,1.16-3.84,7.17,7.17,0,0,1,2.49-2.64A6,6,0,0,1,432.29,651.09Zm-4.68,7.38a7.79,7.79,0,0,0,0,1.67,4.07,4.07,0,0,0,.9,2.39,2.69,2.69,0,0,0,2.05.93,3.66,3.66,0,0,0,2.11-.57,4.74,4.74,0,0,0,1.63-1.82,7.71,7.71,0,0,0,.85-2.71,12.3,12.3,0,0,0,0-2,4.24,4.24,0,0,0-.93-2.43,2.75,2.75,0,0,0-2.06-.94,3.75,3.75,0,0,0-3,1.4,6.91,6.91,0,0,0-1.54,3.76Z"/><path class="7f2370ab-8531-4379-85b1-f153bf90563f" d="M445.88,661.37q.19-1.42-1.56-2l-2.39-.7q-3-1-2.92-3.46a3.81,3.81,0,0,1,1.66-3,5.91,5.91,0,0,1,3.69-1.14,4.93,4.93,0,0,1,3.39,1.21,3.85,3.85,0,0,1,1.25,3.1h-2.29a2.15,2.15,0,0,0-.65-1.68,2.57,2.57,0,0,0-1.79-.67,3.35,3.35,0,0,0-2.06.58,2.14,2.14,0,0,0-.93,1.5q-.17,1.2,1.46,1.74l1.16.32a7.46,7.46,0,0,1,3.36,1.59,3,3,0,0,1,.92,2.43,3.85,3.85,0,0,1-.84,2.24,4.8,4.8,0,0,1-2,1.46,6.8,6.8,0,0,1-2.71.46,5.37,5.37,0,0,1-3.61-1.28,4,4,0,0,1-1.37-3.22h2.3a2.44,2.44,0,0,0,.74,1.86,2.82,2.82,0,0,0,2,.7,4,4,0,0,0,2.17-.53A2,2,0,0,0,445.88,661.37Z"/></g></g></g></svg>