<svg id="d0a87c2d-a237-4370-b038-1f35d56d936e" data-name="Camada 1" xmlns="http://www.w3.org/2000/svg" xmlns:xlink="http://www.w3.org/1999/xlink" viewBox="0 0 500 500"><defs><style>.\33 122cea4-ff3f-48bd-b4f8-0a4ea46da9f5{fill:url(#ed1b4251-ce92-4281-8c7e-df58d8cd2350);}.ca347785-64a6-4fd7-933e-8e4b17451cd2{fill:url(#3d27892f-3b68-49e2-b3a5-cbbea009ce1d);}.\33 54943cb-fe22-48c1-9596-cf4a6570de42{fill:url(#a753528f-9d59-442f-b864-a655fea8e630);}</style><linearGradient id="ed1b4251-ce92-4281-8c7e-df58d8cd2350" x1="36" y1="250" x2="464" y2="250" gradientUnits="userSpaceOnUse"><stop offset="0" stop-color="#ffef26"/><stop offset="0.02" stop-color="#ffea21"/><stop offset="0.1" stop-color="#fed70f"/><stop offset="0.19" stop-color="#fdcc04"/><stop offset="0.28" stop-color="#fdc800"/><stop offset="0.67" stop-color="#f18f34"/><stop offset="0.89" stop-color="#e95f32"/><stop offset="1" stop-color="#e3312d"/></linearGradient><linearGradient id="3d27892f-3b68-49e2-b3a5-cbbea009ce1d" x1="198.11" x2="348.21" xlink:href="#ed1b4251-ce92-4281-8c7e-df58d8cd2350"/><linearGradient id="a753528f-9d59-442f-b864-a655fea8e630" x1="184.11" y1="249.99" x2="355.22" y2="249.99" xlink:href="#ed1b4251-ce92-4281-8c7e-df58d8cd2350"/></defs><title>Prancheta 1</title><g id="82fb5642-27c2-41d2-9f79-4f08b70bc38a" data-name="&lt;Group&gt;"><path class="3122cea4-ff3f-48bd-b4f8-0a4ea46da9f5" d="M250,50c110.46,0,200,89.54,200,200S360.46,450,250,450,50,360.46,50,250,139.54,50,250,50m0-14a214.05,214.05,0,0,0-83.3,411.18A214.05,214.05,0,0,0,333.3,52.82,212.67,212.67,0,0,0,250,36Z"/></g><g id="442cf6a1-9ead-41cd-a04a-dd5d964e2f37" data-name="&lt;Group&gt;"><polygon class="ca347785-64a6-4fd7-933e-8e4b17451cd2" points="198.11 163.4 348.21 249.84 198.3 336.6 198.11 163.4"/><path class="354943cb-fe22-48c1-9596-cf4a6570de42" d="M198.11,163.4l150.09,86.44L198.3,336.6l-.18-173.21m7-12.13-21,12.15.18,173.21,21,12.1L355.22,262l0-24.25L205.1,151.27Z"/></g></svg>