<svg xmlns="http://www.w3.org/2000/svg" viewBox="0 0 398.32 307.29"><defs><style>.cls-1{fill:#455a64;}.cls-2{fill:#f5f5f5;}.cls-3{fill:#e0e0e0;}.cls-4{fill:#263238;}.cls-5{fill:#8d032a;}.cls-6{fill:#fafafa;}.cls-7{fill:#ebebeb;}.cls-8{fill:#ffbe9d;}.cls-9{fill:#eb996e;}.cls-10,.cls-11{opacity:0.3;}.cls-12{opacity:0.4;}</style></defs><title>IlustracaoDeServicos</title><g id="Camada_2" data-name="Camada 2"><g id="Device"><path class="cls-1" d="M267.2,204.26c-1.2-1.32,1.63-9.09,15.06-9.64s18.8,4.34,18.83,9.64C301.1,206.62,267.2,204.26,267.2,204.26Z"/><polygon class="cls-2" points="260.57 0.98 245.65 93.26 381.91 93.26 398.32 0 260.57 0.98"/><path class="cls-3" d="M259.21,9.38c.05-.32,137.55-.52,137.55-.52L398.32,0,260.57,1l-1.36,8.4"/><path class="cls-4" d="M266.32,5.14a1.26,1.26,0,1,1-1.26-1.26A1.25,1.25,0,0,1,266.32,5.14Z"/><path class="cls-4" d="M272.53,5.14a1.27,1.27,0,1,1-1.27-1.26A1.26,1.26,0,0,1,272.53,5.14Z"/><path class="cls-4" d="M278.73,5.14a1.26,1.26,0,1,1-1.26-1.26A1.25,1.25,0,0,1,278.73,5.14Z"/><path class="cls-5" d="M294.13,50.83,277.07,70.5a24.22,24.22,0,0,1-10.6-19.67c0-13.71,12.49-25,27.66-25s27.66,11.28,27.66,25Z"/><path class="cls-4" d="M296.32,54s-.1.14-.3.39l-.88,1.06-3.38,4L279.62,73.55l0-.32A27.79,27.79,0,0,0,292.28,78a29.32,29.32,0,0,0,15.11-2.28,27.31,27.31,0,0,0,11.37-9.16,25.83,25.83,0,0,0,3.09-6.05A24.3,24.3,0,0,0,323,54.27l.22.23-19.49-.33-5.48-.12-1.45,0a2.6,2.6,0,0,1-.51,0,2.39,2.39,0,0,1,.48,0l1.42,0h5.46l19.58.13h.23v.23a25,25,0,0,1-1.18,6.34,26.44,26.44,0,0,1-3.13,6.18,27.68,27.68,0,0,1-11.57,9.35,29.82,29.82,0,0,1-15.38,2.3,28.16,28.16,0,0,1-12.89-4.86l-.2-.14.16-.19,12.34-14.08,3.45-3.89.92-1A1.74,1.74,0,0,1,296.32,54Z"/><circle class="cls-4" cx="305.89" cy="35.98" r="1.55"/><path class="cls-4" d="M338.22,24.64a8.36,8.36,0,0,1-1.45.1l-4,.08c-3.35.05-8,.08-13.09.08h-2.47l.18-.07c-3.21,3.2-6.07,6-8.14,8l-2.45,2.34a6,6,0,0,1-.94.8,6.5,6.5,0,0,1,.8-.93L309,32.59c2-2.06,4.81-4.92,8-8.14l.08-.07h2.58c5.11,0,9.74,0,13.09.07l4,.08A7.62,7.62,0,0,1,338.22,24.64Z"/><path class="cls-4" d="M373.34,44.12s0-.19.08-.53.14-.85.24-1.48c.24-1.32.57-3.2,1-5.59l3.61-20.06.21.25-38.73.05.25-.21h0v.1l0,.12-.05.23-.08.46-.17.93-.35,1.84c-.22,1.22-.45,2.43-.67,3.63q-.67,3.6-1.32,7.08c-.86,4.62-1.69,9.05-2.47,13.21l-.23-.28L362.5,44l8,.07,2.13,0h.55l.19,0h-.17l-.53,0-2.08,0-7.92.06-28,.11h-.28l.05-.29c.76-4.16,1.58-8.59,2.43-13.22q.65-3.47,1.31-7.08c.22-1.2.45-2.41.67-3.63.12-.61.23-1.22.34-1.84l.17-.92.09-.46,0-.24,0-.11v-.09h0l.26-.22,38.73.05h.25l-.05.25c-1.59,8.37-2.91,15.28-3.84,20.13-.46,2.37-.83,4.23-1.08,5.54l-.29,1.43A2.78,2.78,0,0,1,373.34,44.12Z"/><circle class="cls-4" cx="308.32" cy="67.16" r="1.55"/><path class="cls-4" d="M336.45,67.16c0,.14-6.3.26-14.07.26s-14.06-.12-14.06-.26,6.29-.26,14.06-.26S336.45,67,336.45,67.16Z"/><path class="cls-4" d="M373.34,79.24a3.51,3.51,0,0,1,.08-.38l.24-1.08c.24-1,.56-2.33,1-4.07.87-3.54,2.11-8.59,3.64-14.8l.19.24-39.94.06c-.23.18.3-.24.25-.19h0v.08l0,.08-.05.17-.08.33-.17.67-.34,1.34-.66,2.63c-.45,1.75-.88,3.48-1.31,5.17-.86,3.4-1.7,6.68-2.49,9.81L333.4,79l28.66.12,8.28.06,2.22,0h.58l.2,0-.18,0h-.55l-2.18,0-8.23.06-28.8.11h-.31l.08-.31c.78-3.13,1.61-6.42,2.46-9.81q.64-2.55,1.3-5.17c.22-.88.45-1.76.67-2.64l.33-1.33.17-.67.09-.34,0-.17,0-.08v-.06h0l.26-.2,39.94.07h.25l-.06.24L374.8,73.86l-1.06,4c-.12.43-.22.77-.29,1A1.2,1.2,0,0,1,373.34,79.24Z"/><path class="cls-4" d="M370.2,25c0,.15-5.93.26-13.25.26S343.7,25.14,343.7,25s5.93-.26,13.25-.26S370.2,24.85,370.2,25Z"/><path class="cls-4" d="M369.89,29.33c0,.15-6,.26-13.33.26s-13.32-.11-13.32-.26,6-.26,13.32-.26S369.89,29.19,369.89,29.33Z"/><path class="cls-4" d="M369.11,33.52c0,.14-5.75.26-12.86.26s-12.86-.12-12.86-.26,5.76-.26,12.86-.26S369.11,33.37,369.11,33.52Z"/><path class="cls-4" d="M369.58,66.68c0,.14-5.66.26-12.63.26s-12.63-.12-12.63-.26,5.65-.26,12.63-.26S369.58,66.53,369.58,66.68Z"/><path class="cls-4" d="M368,71.48c0,.15-4.82.26-10.77.26s-10.77-.11-10.77-.26,4.82-.26,10.77-.26S368,71.34,368,71.48Z"/><path class="cls-1" d="M207.08,172c-.49,2.81-13.83,32.33-5.21,32.33h43.27s-4.47-4.2,9.06-32.33Z"/><polygon class="cls-1" points="179.08 73.42 161.39 176.8 310.59 176.8 328.9 69.79 179.08 73.42"/><polygon class="cls-6" points="184.15 78.46 169.23 170.74 305.49 170.74 321.91 77.48 184.15 78.46"/><polygon class="cls-4" points="328.9 69.79 331.72 71.69 312.72 179.61 165.32 179.61 161.39 176.8 310.59 176.8 328.9 69.79"/><path class="cls-7" d="M182.79,86.86c.06-.33,137.56-.52,137.56-.52l1.56-8.86-137.76,1-1.36,8.4"/><path class="cls-4" d="M284,162.56a.87.87,0,0,1,0-.26l.12-.77c.12-.73.29-1.74.51-3,.46-2.68,1.12-6.54,1.95-11.33,1.7-9.7,4.07-23.2,6.75-38.52l0-.22h11.26l-.06.31c-4.16,22.59-7.82,42.44-9.92,53.85l0,.12h-.12l-7.83-.08-2,0H284l.19,0h.54l2.07,0,7.74-.08-.14.11c2.06-11.42,5.63-31.28,9.69-53.9l.26.31H293.64l.25-.21c-2.77,15.22-5.21,28.64-7,38.28-.89,4.81-1.6,8.68-2.1,11.38l-.59,3.08c-.06.33-.11.6-.16.8S284,162.55,284,162.56Z"/><path class="cls-4" d="M266.7,162.56s0-.24.11-.72.22-1.24.39-2.15c.35-1.92.86-4.65,1.48-8,1.32-6.93,3.15-16.57,5.24-27.59l0-.21h11.26l-.07.31-7.75,38.43,0,.13h-.13l-7.83-.1-2,0a5.47,5.47,0,0,1-.68,0l.74,0,2.09,0,7.72-.09-.16.13c1.73-8.84,4.47-22.79,7.55-38.47l.26.31H274.17l.25-.2c-2.18,10.92-4.07,20.48-5.44,27.35-.69,3.41-1.25,6.15-1.64,8.08-.19.92-.35,1.65-.46,2.19l-.12.57A1,1,0,0,1,266.7,162.56Z"/><path class="cls-4" d="M249.38,162.56s0-.11.05-.32l.15-1c.16-.88.37-2.14.65-3.76.58-3.31,1.41-8.08,2.44-14,2.12-12,5.07-28.62,8.41-47.44l0-.21h11.26l-.06.3c-5.22,28.59-9.82,53.5-12.26,66.43l0,.11h-.11l-7.87-.08-2,0-.67,0,.72,0,2,0,7.79-.07-.13.1c2.29-12.95,6.79-37.89,12-66.47l.26.31H261.34l.25-.22c-3.42,18.73-6.44,35.29-8.61,47.2-1.1,5.94-2,10.73-2.6,14.05l-.72,3.81c-.08.42-.15.75-.2,1A2,2,0,0,1,249.38,162.56Z"/><path class="cls-4" d="M232.07,162.56a3.42,3.42,0,0,1,.06-.5q.09-.59.24-1.5c.24-1.38.56-3.3,1-5.69.87-5,2.07-11.82,3.47-19.76l0-.21H248.1l-.06.31c-2.07,10.8-3.94,20.52-5.25,27.39l0,.15h-.15l-7.79-.11-2.06,0a5.37,5.37,0,0,1-.69,0l.76,0,2.11,0,7.67-.1-.17.14c1.27-6.87,3.08-16.61,5.09-27.42l.25.31H237.05l.25-.21-3.68,19.54c-.47,2.4-.84,4.34-1.11,5.72-.13.64-.23,1.16-.31,1.55S232.08,162.55,232.07,162.56Z"/><path class="cls-4" d="M214.75,162.56a1.67,1.67,0,0,1,0-.21c0-.17.06-.39.1-.65.09-.61.23-1.45.4-2.53.36-2.25.89-5.47,1.54-9.47,1.35-8.14,3.24-19.46,5.39-32.35l0-.21h11.26l-.05.31-8,45.14,0,.13h-.13l-7.82-.09-2,0a5.47,5.47,0,0,1-.68,0l.2,0h.54l2.08,0,7.72-.08-.14.12,7.78-45.18.25.31H222.45l.25-.21c-2.23,12.79-4.19,24-5.59,32.11-.72,4-1.3,7.25-1.7,9.51-.2,1.1-.36,2-.47,2.58l-.13.68A1.15,1.15,0,0,1,214.75,162.56Z"/><path class="cls-4" d="M197.43,162.56s0-.1,0-.29.08-.52.14-.88c.13-.81.33-2,.57-3.44.52-3,1.26-7.39,2.19-12.81,1.9-10.95,4.55-26.19,7.54-43.44l0-.21h11.26l-.06.31c-4.65,25.91-8.77,48.58-11,60.79l0,.11H208l-7.86-.08-2,0h-.48l.54,0,2.05,0,7.77-.08-.13.11c2.12-12.24,6.14-34.92,10.79-60.83l.26.3H208.17l.25-.21c-3.08,17.16-5.79,32.31-7.75,43.2-1,5.44-1.78,9.81-2.34,12.85-.28,1.5-.49,2.66-.65,3.49-.07.38-.13.68-.17.91A1.74,1.74,0,0,1,197.43,162.56Z"/><path class="cls-4" d="M189.9,82.62a1.26,1.26,0,1,1-1.26-1.27A1.26,1.26,0,0,1,189.9,82.62Z"/><circle class="cls-4" cx="194.85" cy="82.62" r="1.26"/><path class="cls-4" d="M202.31,82.62a1.26,1.26,0,1,1-1.26-1.27A1.26,1.26,0,0,1,202.31,82.62Z"/><path class="cls-4" d="M180.12,162.56a6.69,6.69,0,0,1,.1-.77c.1-.55.22-1.31.38-2.27.34-2,.83-4.93,1.45-8.52,1.27-7.34,3-17.54,5.08-29.18l0-.21h11.26l0,.31c-3.1,16.66-5.84,31.44-7.55,40.68l0,.12h-.13l-7.82-.09-2,0a5.47,5.47,0,0,1-.68,0l.19,0h.55l2.08,0,7.72-.09-.15.13c1.67-9.25,4.34-24,7.34-40.71l.26.3H187.38l.25-.21-5.29,28.94c-.67,3.61-1.22,6.52-1.6,8.56-.19,1-.34,1.76-.44,2.32l-.13.61Z"/><polygon class="cls-5" points="297.01 121.86 239.93 121.86 243.18 102.7 300.67 102.7 297.01 121.86"/><path class="cls-5" d="M239.93,121.86l-1.11,6.69s7.49-7,7.38-7H240"/><path class="cls-6" d="M292.05,109.36c0,.14-9.5.26-21.23.26s-21.23-.12-21.23-.26,9.5-.26,21.23-.26S292.05,109.22,292.05,109.36Z"/><path class="cls-6" d="M291.49,114c0,.14-9.5.26-21.23.26S249,114.13,249,114s9.5-.26,21.23-.26S291.49,113.84,291.49,114Z"/></g><g id="Desk"><rect class="cls-4" x="222.23" y="210.9" width="162.62" height="94.89"/><rect class="cls-1" x="222.23" y="210.9" width="74.08" height="94.89"/><path class="cls-4" d="M288.77,243.13a4.57,4.57,0,0,1,0-.48c0-.34,0-.79,0-1.38,0-1.23,0-3-.05-5.27,0-4.56-.06-11.13-.1-19.23l.19.19-59.59.07.25-.25h0v13.57c0,4.41,0,8.69,0,12.78l-.25-.24,42.71.11,12.39.07,3.33,0,.86,0h.31l-.28,0h-.83l-3.27,0-12.34.07-42.88.12h-.24v-.25c0-4.09,0-8.37,0-12.78q0-3.3,0-6.71v-6.86h0l.27-.27,59.59.08H289v.18c0,8.15-.07,14.75-.1,19.35,0,2.24,0,4,0,5.22,0,.57,0,1,0,1.35S288.77,243.14,288.77,243.13Z"/><path class="cls-4" d="M261.5,230s-.05-.22-.17-.59a2.62,2.62,0,0,0-.94-1.28,2.35,2.35,0,0,0-2.2-.28,2.3,2.3,0,0,0,0,4.31,2.38,2.38,0,0,0,2.2-.29,2.56,2.56,0,0,0,.94-1.27c.12-.37.13-.6.17-.6s.09.23,0,.65a2.49,2.49,0,0,1-.9,1.51,2.72,2.72,0,0,1-2.6.45,2.76,2.76,0,0,1,0-5.21,2.71,2.71,0,0,1,2.6.44,2.51,2.51,0,0,1,.9,1.52C261.59,229.73,261.53,230,261.5,230Z"/><path class="cls-4" d="M288.77,272.15a4.68,4.68,0,0,1,0-.49c0-.33,0-.79,0-1.38,0-1.23,0-3-.05-5.26,0-4.57-.06-11.13-.1-19.23l.19.19-59.59.07c-.24.23.31-.32.25-.26h0v13.56c0,4.41,0,8.68,0,12.78l-.25-.25,42.71.12,12.39.07,3.33,0h.86l.31,0h-.28l-.83,0-3.27,0-12.34.07-42.88.12h-.24v-.25c0-4.1,0-8.37,0-12.78q0-3.31,0-6.71v-6.85h0l.27-.26,59.59.07H289v.19c0,8.15-.07,14.75-.1,19.34,0,2.25,0,4,0,5.23,0,.57,0,1,0,1.34S288.77,272.15,288.77,272.15Z"/><path class="cls-4" d="M261.5,259s-.05-.23-.17-.6a2.56,2.56,0,0,0-.94-1.27,2.38,2.38,0,0,0-2.2-.29,2.3,2.3,0,0,0,0,4.31,2.35,2.35,0,0,0,2.2-.28,2.58,2.58,0,0,0,.94-1.28c.12-.37.13-.59.17-.59s.09.23,0,.64a2.48,2.48,0,0,1-.9,1.52,2.71,2.71,0,0,1-2.6.44,2.76,2.76,0,0,1,0-5.21,2.72,2.72,0,0,1,2.6.45,2.49,2.49,0,0,1,.9,1.51C261.59,258.74,261.53,259,261.5,259Z"/><path class="cls-4" d="M288.77,301.16a4.57,4.57,0,0,1,0-.48c0-.33,0-.79,0-1.38,0-1.23,0-3-.05-5.27,0-4.56-.06-11.13-.1-19.23l.19.19-59.59.07.25-.25h0v13.57c0,4.41,0,8.69,0,12.78l-.25-.24,42.71.11,12.39.07,3.33,0,.86,0h.31l-.28,0h-.83l-3.27,0-12.34.06-42.88.12h-.24v-.25c0-4.09,0-8.37,0-12.78q0-3.3,0-6.71v-6.86h0l.27-.27,59.59.08H289v.18c0,8.15-.07,14.75-.1,19.35,0,2.25,0,4,0,5.22,0,.57,0,1,0,1.35S288.77,301.17,288.77,301.16Z"/><path class="cls-4" d="M261.5,288s-.05-.22-.17-.59a2.56,2.56,0,0,0-.94-1.27,2.35,2.35,0,0,0-2.2-.29,2.3,2.3,0,0,0,0,4.31,2.38,2.38,0,0,0,2.2-.29,2.56,2.56,0,0,0,.94-1.27c.12-.37.13-.6.17-.6s.09.23,0,.65a2.49,2.49,0,0,1-.9,1.51,2.72,2.72,0,0,1-2.6.45,2.75,2.75,0,1,1,2.6-4.77,2.51,2.51,0,0,1,.9,1.52C261.59,287.76,261.53,288,261.5,288Z"/><rect class="cls-4" x="5.24" y="210.9" width="136.79" height="94.89"/><rect class="cls-4" y="204.28" width="390.75" height="9.02"/><rect class="cls-1" x="5.24" y="213.3" width="12.12" height="92.49"/></g><g id="Character"><path class="cls-4" d="M157.17,61.51a7.4,7.4,0,0,1-.17-1.15,8.2,8.2,0,0,0-1-2.92,3.38,3.38,0,0,0-1.47-1.4,1.89,1.89,0,0,0-2.08.39,7,7,0,0,0-1.79,5.08,7,7,0,0,0,1.79,5.07,1.88,1.88,0,0,0,2.09.39,3.41,3.41,0,0,0,1.46-1.4,8.2,8.2,0,0,0,1-2.92,7.11,7.11,0,0,1,.17-1.14,3.93,3.93,0,0,1,0,1.17,7.9,7.9,0,0,1-.87,3.08,3.84,3.84,0,0,1-1.61,1.61,2.23,2.23,0,0,1-1.31.19,2.7,2.7,0,0,1-1.26-.61,7.32,7.32,0,0,1-2-5.44,7.31,7.31,0,0,1,2-5.44,2.63,2.63,0,0,1,1.26-.62,2.32,2.32,0,0,1,1.31.19,3.84,3.84,0,0,1,1.61,1.61,7.89,7.89,0,0,1,.87,3.09A4,4,0,0,1,157.17,61.51Z"/><path class="cls-8" d="M114,42l-3,59.92,25.66,2.41,1.42-14.54s9,2.24,11.79-6.13c1.76-5.35,3.32-47.24,3.32-47.24Z"/><path class="cls-4" d="M158.75,42.6c-2.19,5.21-10.45,9.67-10.45,9.67l-1.37,13.27a25.13,25.13,0,0,0-3.68,0c.66-6.23-7.36-5-8.17-.77-.79,4.08,3.86,6.81,3.86,6.81-3.21,4.92-4.51,7.52-9.06,12.13-4.93,5-7.58,5.4-12.66,5.25l-5.61-.26s-2-4.79-3.46-16.1c-.7-5.44-5-12.57-3.74-21.42,3.44-25.13,31.25-20.67,31.25-20.67C146.1,22.39,163.9,30.35,158.75,42.6Z"/><path class="cls-4" d="M157.17,61.62a32.33,32.33,0,0,1-5.76.56,32.87,32.87,0,0,1-5.79,0,31.54,31.54,0,0,1,5.76-.55A32.28,32.28,0,0,1,157.17,61.62Z"/><path class="cls-8" d="M239.17,132l-9.35,5.79-3.43,8v-7s2.54-3,4.62-5.19.59-3.71,0-4.46-9.55,9.65-9.55,9.65v6c-4.16-5.13-6.09-3.37-6.74-2.44s6.74,7.89,6.74,7.89v2.12L184.8,172.11l-9.65-24-19.71,10.34,11.76,28.49a14.87,14.87,0,0,0,21.32,7.13l43.14-25.5,2.88-4.79a12.07,12.07,0,0,0,1.71-5.44l1.44-21.57C240.36,135.13,239.17,132,239.17,132Z"/><path class="cls-9" d="M185,172.12a26,26,0,0,1-1.57,5,27,27,0,0,1-2,4.8,26,26,0,0,1,1.57-5A27,27,0,0,1,185,172.12Z"/><path class="cls-9" d="M237.69,136.76a15.11,15.11,0,0,1-1.71.77,6.65,6.65,0,0,0-1.59,1.15,6.37,6.37,0,0,0-1.22,2,41,41,0,0,1-2.71,5.83,38.24,38.24,0,0,1,2.23-6,6.27,6.27,0,0,1,1.37-2.19,5.86,5.86,0,0,1,1.77-1.14A4.31,4.31,0,0,1,237.69,136.76Z"/><path class="cls-9" d="M237.59,140.18a1.08,1.08,0,0,0-.78.52c-.29.56-.67,1.44-1.05,2.38a35.73,35.73,0,0,1-1.31,3.5,8.49,8.49,0,0,1,.83-3.69,12.06,12.06,0,0,1,1.23-2.4,1,1,0,0,1,.78-.44C237.51,140.05,237.61,140.15,237.59,140.18Z"/><path class="cls-5" d="M149.54,154.78l4.19,14.2,26.59-12c-.95-3-5.35-16.21-13.77-37.21A36.11,36.11,0,0,0,139,97.51c-8.7-1.45-18.17-2.58-25.46-2.5a31.62,31.62,0,0,0-30.68,25.3c-2.26,11.16,1.69,18.52-.85,42.93l-.81,61.37,71,2.61Z"/><path class="cls-5" d="M85.29,162.63s-9.86.58-13.74-6.89c0,0,10.63-39.3,14.34-43.93Z"/><path class="cls-4" d="M167.89,123.73a2.68,2.68,0,0,1-.84.46,8.53,8.53,0,0,1-2.7.51,17.81,17.81,0,0,1-4.31-.55c-1.65-.37-3.48-.92-5.52-1.26a23.91,23.91,0,0,0-3.22-.17,19.69,19.69,0,0,0-3.45.57,30.17,30.17,0,0,0-7.18,3c-2.42,1.33-4.89,2.89-7.52,4.43a39.72,39.72,0,0,1-8.61,4,17.07,17.07,0,0,1-9.55.15,24.35,24.35,0,0,1-7.81-4.23c-2.23-1.73-4.17-3.55-6-5.21a50.37,50.37,0,0,0-5.29-4.32,20.58,20.58,0,0,0-9-3.82,32.52,32.52,0,0,0-3.63,0,3.85,3.85,0,0,1,.93-.24,12.4,12.4,0,0,1,2.74-.13,19.92,19.92,0,0,1,9.34,3.62,49,49,0,0,1,5.46,4.29c1.86,1.64,3.81,3.42,6,5.08a23.58,23.58,0,0,0,7.51,4,16.17,16.17,0,0,0,9-.17,40.08,40.08,0,0,0,8.39-3.87c2.61-1.51,5.1-3.07,7.58-4.39a30.33,30.33,0,0,1,7.42-3,21.39,21.39,0,0,1,3.63-.54,25.74,25.74,0,0,1,3.37.26c2.11.39,3.93,1,5.54,1.42a19,19,0,0,0,4.17.7A11.47,11.47,0,0,0,167.89,123.73Z"/><path class="cls-4" d="M150,172.7a12.47,12.47,0,0,0-4.41-1.6,15,15,0,0,0-5.08.27c-1.9.39-4,1.08-6.2,1.64a25,25,0,0,1-11.79.16c-3-.7-4.61-1.65-4.56-1.75s1.79.53,4.7,1a27.64,27.64,0,0,0,11.4-.45c2.19-.55,4.28-1.22,6.27-1.57a14.37,14.37,0,0,1,5.38-.06,8.41,8.41,0,0,1,3.36,1.38C149.78,172.27,150.06,172.66,150,172.7Z"/><path class="cls-4" d="M150.75,209.34c.05,0-.26.45-.94,1.08a14.68,14.68,0,0,1-3.21,2.23,13,13,0,0,1-5.68,1.44,18.76,18.76,0,0,1-7-1.56c-2.33-.91-4.47-1.93-6.48-2.5a15.38,15.38,0,0,0-5.48-.64,8.56,8.56,0,0,0-3.54,1c-.78.43-1.15.78-1.22.71s.24-.49,1-1a7.82,7.82,0,0,1,3.67-1.44,15.23,15.23,0,0,1,5.83.45,65.27,65.27,0,0,1,6.6,2.46,19.24,19.24,0,0,0,6.58,1.57,12.86,12.86,0,0,0,5.36-1.15C149.18,210.66,150.63,209.19,150.75,209.34Z"/><g class="cls-10"><path d="M73.72,163.32c9.3,1.9,18.84,0,28.32-.58,5.74-.34,12.11-1,16.66,2.57,3.6,2.8,5,7.51,6.09,11.95,4,16.93,4.68,32.07,5.58,49.44l-46-1Z"/></g><polygon class="cls-11" points="85.89 131.42 87.88 160.1 81.81 160.1 85.89 131.42"/><path class="cls-4" d="M98.81,224.61l91.29,3.23a27.23,27.23,0,0,1,26.27,27.64l-.81,51.81H182.08l-2.15-44.67-81.12-2.14Z"/><rect class="cls-1" x="120.44" y="271.98" width="8.98" height="32.87"/><path class="cls-1" d="M45.1,167.54v79.2a18.81,18.81,0,0,0,18.8,18.81h52.74v-98a8.38,8.38,0,0,0-8.38-8.38H53.48A8.38,8.38,0,0,0,45.1,167.54Z"/><path class="cls-1" d="M187.63,272H59.19A13.94,13.94,0,0,1,73.13,258H173.68A14,14,0,0,1,187.63,272Z"/><path class="cls-4" d="M116.64,256.19a7,7,0,0,1-.2,2.33,9.45,9.45,0,0,1-7.5,7.1,13.44,13.44,0,0,1-2.47.17h-2.59l-11.54,0-21-.05L65,265.7l-1.72,0a2.45,2.45,0,0,1-.61-.06,4.19,4.19,0,0,1,.61-.05L65,265.5l6.36-.09,21-.1h14.13a12.55,12.55,0,0,0,2.4-.14,9.12,9.12,0,0,0,3.91-1.66,9.43,9.43,0,0,0,3.47-5.06A19.35,19.35,0,0,0,116.64,256.19Z"/><path class="cls-4" d="M132.81,272.25a58.65,58.65,0,0,1-7.88.26,58.65,58.65,0,0,1-7.88-.26,60.72,60.72,0,0,1,7.88-.26A60.72,60.72,0,0,1,132.81,272.25Z"/><path class="cls-1" d="M171.89,266.24a3.28,3.28,0,0,1-.25-1c-.12-.64-.29-1.58-.49-2.8-.41-2.45-1-6-1.64-10.36-.36-2.18-.65-4.61-1.14-7.14-.12-.63-.25-1.28-.38-1.93l-.56-1.94c-.1-.33-.2-.66-.29-1l-.39-1c-.26-.66-.5-1.33-.79-2a36.78,36.78,0,0,0-4.78-7.65A34.18,34.18,0,0,0,154,223a32.11,32.11,0,0,0-8.72-4.2,32.84,32.84,0,0,0-8.89-1.52c-5.82-.13-11.12-.1-15.54-.17s-8-.1-10.49-.16c-1.24,0-2.2-.06-2.85-.1a3.87,3.87,0,0,1-1-.1,3.54,3.54,0,0,1,1-.11c.65,0,1.61-.07,2.85-.1,2.48-.06,6.06-.11,10.49-.16s9.69-.14,15.57-.06a32.86,32.86,0,0,1,9.16,1.51,32.21,32.21,0,0,1,9,4.31,34.41,34.41,0,0,1,7.39,6.69,37,37,0,0,1,4.88,7.91c.29.68.53,1.38.79,2.05l.39,1c.09.34.19.68.28,1,.19.67.38,1.34.56,2s.24,1.33.36,2c.46,2.59.7,5,1,7.18.58,4.39,1,7.95,1.32,10.41.14,1.23.24,2.19.3,2.84A3.9,3.9,0,0,1,171.89,266.24Z"/></g><g id="Plant"><path class="cls-5" d="M9.8,170.41s-1.61,4.53,1.49,7.81h6.48S17.17,170.9,9.8,170.41Z"/><path class="cls-12" d="M9.8,170.41s-1.61,4.53,1.49,7.81h6.48S17.17,170.9,9.8,170.41Z"/><path class="cls-5" d="M20.79,161.08c-.26-.32-5.78,8.32-2.68,17.14h6.08S26.56,168,20.79,161.08Z"/><path class="cls-5" d="M31.57,170.41a7.91,7.91,0,0,0-7.38,7.81h6.07S32.92,174.48,31.57,170.41Z"/><path class="cls-1" d="M10.79,177.88A13.63,13.63,0,0,0,5.33,191.4c1.56,9,11,12.88,11,12.88H26.92s10.72-4.71,10.46-14.46S30.73,178,30.73,178Z"/><path class="cls-4" d="M37.34,188.73a5.2,5.2,0,0,0-.87-1.09,4.76,4.76,0,0,0-3.52-1,12.72,12.72,0,0,0-5.14,2.24,17.94,17.94,0,0,1-3.06,1.58,7.17,7.17,0,0,1-3.72.37c-2.57-.44-4.62-1.82-6.54-2.74a9.62,9.62,0,0,0-5.39-1.3,5.09,5.09,0,0,0-3.28,1.67,5.43,5.43,0,0,0-.72,1.2s0-.13.06-.37a3.28,3.28,0,0,1,.5-1,5.13,5.13,0,0,1,3.39-1.9,9.66,9.66,0,0,1,5.65,1.23c2,.92,4,2.25,6.41,2.65a6.61,6.61,0,0,0,3.46-.33,17.81,17.81,0,0,0,3-1.51,12.68,12.68,0,0,1,5.36-2.19,4.81,4.81,0,0,1,3.69,1.22,3.19,3.19,0,0,1,.62.88C37.32,188.6,37.36,188.72,37.34,188.73Z"/><path class="cls-4" d="M37.48,191.08a5.13,5.13,0,0,0-.85-1.08,4.63,4.63,0,0,0-3.48-1,12.46,12.46,0,0,0-5.09,2.23,17.89,17.89,0,0,1-3,1.58,7.06,7.06,0,0,1-3.69.37c-2.54-.44-4.57-1.82-6.47-2.74a9.44,9.44,0,0,0-5.34-1.3,5,5,0,0,0-3.24,1.68A5.88,5.88,0,0,0,5.6,192s0-.13.06-.37a3.09,3.09,0,0,1,.48-.95,5.09,5.09,0,0,1,3.35-1.91,9.49,9.49,0,0,1,5.6,1.23c1.94.92,3.95,2.25,6.34,2.65a6.5,6.5,0,0,0,3.43-.33,17.41,17.41,0,0,0,2.95-1.51,12.45,12.45,0,0,1,5.31-2.19,4.73,4.73,0,0,1,3.65,1.23,3,3,0,0,1,.61.87C37.47,191,37.5,191.07,37.48,191.08Z"/><path class="cls-4" d="M10.16,191c-.05-.06.27-.25.65.06a.73.73,0,0,1,.2.8.86.86,0,0,1-.84.56.88.88,0,0,1-.76-.66.76.76,0,0,1,.23-.77c.36-.3.67-.16.65-.1s-.23.11-.38.35a.41.41,0,0,0,0,.39.45.45,0,0,0,.34.27.43.43,0,0,0,.36-.22.38.38,0,0,0,0-.37C10.39,191.1,10.17,191.09,10.16,191Z"/><path class="cls-4" d="M22.09,187.22c0-.06.28-.25.65.06a.71.71,0,0,1,.2.8.86.86,0,0,1-.84.56.88.88,0,0,1-.76-.66.78.78,0,0,1,.23-.77c.36-.3.67-.16.65-.1s-.23.11-.37.35a.39.39,0,0,0-.05.39.45.45,0,0,0,.34.27.42.42,0,0,0,.36-.23.34.34,0,0,0,0-.36C22.33,187.3,22.1,187.29,22.09,187.22Z"/><path class="cls-4" d="M33.66,191.19c0-.06.28-.24.65.06a.71.71,0,0,1,.2.8.86.86,0,0,1-.84.56.88.88,0,0,1-.76-.66.79.79,0,0,1,.23-.77c.36-.3.67-.16.65-.1s-.22.11-.37.35a.39.39,0,0,0-.05.39.45.45,0,0,0,.34.27.43.43,0,0,0,.36-.22.36.36,0,0,0,0-.37C33.9,191.27,33.67,191.26,33.66,191.19Z"/></g><g id="Coffee"><polygon class="cls-1" points="338.05 168.7 341.49 204.28 358.82 204.28 362.98 168.7 338.05 168.7"/><path class="cls-4" d="M338.05,164.1a7.46,7.46,0,0,0-1.62,4.7H364.6a5.24,5.24,0,0,0-1.62-4.7Z"/><polygon class="cls-4" points="341.27 160.84 340.31 164.36 361.58 164.52 360.18 160.8 341.27 160.84"/><path class="cls-5" d="M337.7,177.61c0,.33,2.06,17.91,2.06,17.91H361l2-17.91Z"/></g></g></svg>