<svg xmlns="http://www.w3.org/2000/svg" viewBox="0 0 512 512"><defs><style>.\30 6c297f3-af94-4a62-bb51-6d3a933e55f2{fill:none;}.e3dce644-0255-48ed-91ad-fe6021702d31{fill:#444;}.\30 508293f-ea3c-4136-9bc8-10bd4d6d9a24{fill:#c33;}.\37 3e22255-5c64-4ceb-8042-2a4c93224436{fill:#fff;}</style></defs><title>izibot</title><g id="1063b1a3-85c1-4264-acb9-58578b8c6f92" data-name="Layer 4"><path class="06c297f3-af94-4a62-bb51-6d3a933e55f2" d="M127,278.2a12.77,12.77,0,0,1-1.92.5c-.77.14-1.46.25-2.08.32s-1.44.13-2.47.17l-2.3.07-2.35,0h-1.93q-14,.22-21.65,3l-9.38,3.42q-5.29,1.93-7.37,5.51T75.35,300a22.38,22.38,0,0,0,1.54,3.29,7.19,7.19,0,0,0-1.72,4.24,10.89,10.89,0,0,0,.56,4.86,8.94,8.94,0,0,0,2.63,3.8,10.22,10.22,0,0,0-.59,8.41,11.66,11.66,0,0,0,1.83,3.16,8.75,8.75,0,0,0,2.57,2.34c-1.28.51-2,1.86-2.21,4a12.7,12.7,0,0,0,.49,5.4,7.89,7.89,0,0,0,4.35,4.58,8,8,0,0,0,6.27.37L114,336.13q1.24,3.4.59,10.39t.61,10.45q2.1,5.75,5,7.83t8.52,0a10.35,10.35,0,0,0,.42-5.81q-.56-3.72-.89-8a15.86,15.86,0,0,1,1.15-7.7q.8-1.82,2.58-7,.12-.38.71-2.26t1-3.08q.39-1.21,1.12-3.23a35.44,35.44,0,0,1,1.41-3.44q.69-1.41,1.5-2.91a10.56,10.56,0,0,1,1.77-2.44,5.37,5.37,0,0,1,1.9-1.29l1.88-.68-14.37-39.47Z"/><path class="06c297f3-af94-4a62-bb51-6d3a933e55f2" d="M143.66,273.11a4.17,4.17,0,1,0,2,5.51,4.52,4.52,0,0,0,.31-.92q-.44-1.71-.83-3.44A4.14,4.14,0,0,0,143.66,273.11Z"/><path class="06c297f3-af94-4a62-bb51-6d3a933e55f2" d="M436.46,291.24q-2.07-3.58-7.37-5.51l-9.38-3.42q-7.7-2.8-21.65-3h-1.93l-2.35,0-2.3-.07c-1,0-1.85-.1-2.47-.17s-1.31-.18-2.08-.32a12.77,12.77,0,0,1-1.92-.5l-1.88-.68L368.78,317l1.88.68a5.37,5.37,0,0,1,1.9,1.29,10.56,10.56,0,0,1,1.77,2.44q.82,1.5,1.5,2.91a35.44,35.44,0,0,1,1.41,3.44q.73,2,1.12,3.23t1,3.08q.58,1.88.71,2.26,1.78,5.17,2.58,7a15.86,15.86,0,0,1,1.15,7.7q-.34,4.3-.89,8a10.35,10.35,0,0,0,.42,5.81q5.64,2.05,8.52,0t5-7.83q1.26-3.46.61-10.45t.59-10.39l22.95,8.36a8,8,0,0,0,6.27-.37,7.89,7.89,0,0,0,4.35-4.58,12.7,12.7,0,0,0,.49-5.4c-.19-2.18-.93-3.53-2.21-4a8.75,8.75,0,0,0,2.57-2.34,11.66,11.66,0,0,0,1.83-3.16,10.22,10.22,0,0,0-.59-8.41,8.94,8.94,0,0,0,2.63-3.8,10.89,10.89,0,0,0,.56-4.86,7.19,7.19,0,0,0-1.72-4.24,22.38,22.38,0,0,0,1.54-3.29Q438.53,294.82,436.46,291.24Z"/><path class="06c297f3-af94-4a62-bb51-6d3a933e55f2" d="M371.85,280.63a4.09,4.09,0,1,0-3.18.16A4,4,0,0,0,371.85,280.63Z"/><path class="e3dce644-0255-48ed-91ad-fe6021702d31" d="M444.68,301.45q3-8-.6-14.58t-12.14-9.67l-6.83-2.49a59.57,59.57,0,0,0-12.68-3.16q-6.27-.82-15-1.08-7.94-.23-9.28-.72l-17.57-6.4a8.63,8.63,0,0,0-3.95-.48,112.37,112.37,0,0,1-20.34,52.29,9.67,9.67,0,0,0,4.12,3.64l16.78,6.11c1.2,1.27,2.84,5.45,5,12.31a99.69,99.69,0,0,0,3.72,10.17,10.32,10.32,0,0,1,.47,4.61,39.77,39.77,0,0,1-.81,5.57,24.09,24.09,0,0,0-.45,6.11,15.42,15.42,0,0,0,1.48,6.23,8.26,8.26,0,0,0,4.68,4.27,22.29,22.29,0,0,0,10,1.38,14.34,14.34,0,0,0,8.51-3.94q3.66-3.39,6.3-10.61a29.32,29.32,0,0,0,1.37-12.91L418.21,352a15.61,15.61,0,0,0,12.69-.56,16,16,0,0,0,8.64-9.27,18.85,18.85,0,0,0,.64-11.08,17.07,17.07,0,0,0,2.09-4,18.73,18.73,0,0,0,.88-9.67,20,20,0,0,0,1.14-2.56c1.5-4.13,0-12.35,0-12.35Zm-78.34-22.82a4.09,4.09,0,1,1,2.33,2.17A4,4,0,0,1,366.34,278.63Zm70.49,28.9a10.89,10.89,0,0,1-.56,4.86,8.94,8.94,0,0,1-2.63,3.8,10.22,10.22,0,0,1,.59,8.41,11.66,11.66,0,0,1-1.83,3.16,8.75,8.75,0,0,1-2.57,2.34c1.28.51,2,1.86,2.21,4a12.7,12.7,0,0,1-.49,5.4,7.89,7.89,0,0,1-4.35,4.58,8,8,0,0,1-6.27.37L398,336.13q-1.24,3.4-.59,10.39T396.78,357q-2.1,5.75-5,7.83t-8.52,0a10.35,10.35,0,0,1-.42-5.81q.56-3.72.89-8a15.86,15.86,0,0,0-1.15-7.7q-.8-1.82-2.58-7-.12-.38-.71-2.26t-1-3.08q-.39-1.21-1.12-3.23a35.44,35.44,0,0,0-1.41-3.44q-.69-1.41-1.5-2.91a10.56,10.56,0,0,0-1.77-2.44,5.37,5.37,0,0,0-1.9-1.29l-1.88-.68,14.37-39.47,1.88.68a12.77,12.77,0,0,0,1.92.5c.77.14,1.46.25,2.08.32s1.44.13,2.47.17l2.3.07,2.35,0h1.93q14,.22,21.65,3l9.38,3.42q5.29,1.93,7.37,5.51t.19,8.75a22.38,22.38,0,0,1-1.54,3.29A7.19,7.19,0,0,1,436.83,307.53Z"/><path class="0508293f-ea3c-4136-9bc8-10bd4d6d9a24" d="M145.66,278.63a4.17,4.17,0,1,1-2-5.51,4.14,4.14,0,0,1,1.48,1.15,112.59,112.59,0,0,1-1.95-11.35,9.06,9.06,0,0,0-1.75.44l-17.57,6.4q-1.34.49-9.28.72-8.75.26-15,1.08a59.57,59.57,0,0,0-12.68,3.16l-6.83,2.49q-8.55,3.11-12.14,9.67t-.6,14.58l.38,1.05s-1.5,8.22,0,12.35a20,20,0,0,0,1.14,2.56,18.73,18.73,0,0,0,.88,9.67,17.07,17.07,0,0,0,2.09,4,18.85,18.85,0,0,0,.64,11.08,16,16,0,0,0,8.64,9.27,15.61,15.61,0,0,0,12.69.56l10.78-3.92A29.32,29.32,0,0,0,105.94,361q2.63,7.23,6.3,10.61a14.34,14.34,0,0,0,8.51,3.94,22.29,22.29,0,0,0,10-1.38,8.26,8.26,0,0,0,4.68-4.27,15.42,15.42,0,0,0,1.48-6.23,24.09,24.09,0,0,0-.45-6.11,39.77,39.77,0,0,1-.81-5.57,10.32,10.32,0,0,1,.47-4.61,99.69,99.69,0,0,0,3.72-10.17c2.18-6.85,3.82-11,5-12.31l16.78-6.11a10.46,10.46,0,0,0,3-2.16A112.54,112.54,0,0,1,146,277.71,4.52,4.52,0,0,1,145.66,278.63Zm-4.32,39a5.37,5.37,0,0,0-1.9,1.29,10.56,10.56,0,0,0-1.77,2.44q-.82,1.5-1.5,2.91a35.44,35.44,0,0,0-1.41,3.44q-.73,2-1.12,3.23t-1,3.08q-.58,1.88-.71,2.26-1.78,5.17-2.58,7a15.86,15.86,0,0,0-1.15,7.7q.34,4.3.89,8a10.35,10.35,0,0,1-.42,5.81q-5.64,2.05-8.52,0t-5-7.83q-1.26-3.46-.61-10.45T114,336.13l-22.95,8.36a8,8,0,0,1-6.27-.37,7.89,7.89,0,0,1-4.35-4.58,12.7,12.7,0,0,1-.49-5.4c.19-2.18.93-3.53,2.21-4a8.75,8.75,0,0,1-2.57-2.34,11.66,11.66,0,0,1-1.83-3.16,10.22,10.22,0,0,1,.59-8.41,8.94,8.94,0,0,1-2.63-3.8,10.89,10.89,0,0,1-.56-4.86,7.19,7.19,0,0,1,1.72-4.24A22.38,22.38,0,0,1,75.35,300q-1.88-5.17.19-8.75t7.37-5.51l9.38-3.42q7.7-2.8,21.65-3h1.93l2.35,0,2.3-.07c1,0,1.85-.1,2.47-.17s1.31-.18,2.08-.32a12.77,12.77,0,0,0,1.92-.5l1.88-.68L143.22,317Z"/><path class="0508293f-ea3c-4136-9bc8-10bd4d6d9a24" d="M230.41,318.34A24.49,24.49,0,0,1,254.9,294V136.34A113.13,113.13,0,0,0,145.14,274.27q.39,1.73.83,3.44A113.08,113.08,0,0,0,254.9,362.34v-44Zm-38.47-87.7a16.3,16.3,0,1,1,16.37-16.3A16.37,16.37,0,0,1,191.94,230.64Z"/><path class="e3dce644-0255-48ed-91ad-fe6021702d31" d="M367.42,249.34a113,113,0,0,0-112.52-113V294a24.49,24.49,0,0,1,24.49,24.38H254.9v44a113,113,0,0,0,111.71-99.47A114.12,114.12,0,0,0,367.42,249.34Zm-49.57-18.7a16.3,16.3,0,1,1,16.37-16.3A16.37,16.37,0,0,1,317.85,230.64Z"/><path class="73e22255-5c64-4ceb-8042-2a4c93224436" d="M230.41,318.34h49a24.49,24.49,0,0,0-49,0Z"/><path class="73e22255-5c64-4ceb-8042-2a4c93224436" d="M191.94,225a10.73,10.73,0,0,1-10.72-10.68h-5.64a16.37,16.37,0,0,0,32.74,0h-5.64A10.73,10.73,0,0,1,191.94,225Z"/><path class="73e22255-5c64-4ceb-8042-2a4c93224436" d="M191.94,198a16.37,16.37,0,0,0-16.37,16.3h5.64a10.73,10.73,0,0,1,21.45,0h5.64A16.37,16.37,0,0,0,191.94,198Z"/><path class="0508293f-ea3c-4136-9bc8-10bd4d6d9a24" d="M191.94,225a10.73,10.73,0,0,0,10.72-10.68H181.22A10.73,10.73,0,0,0,191.94,225Z"/><path class="e3dce644-0255-48ed-91ad-fe6021702d31" d="M191.94,203.67a10.73,10.73,0,0,0-10.72,10.68h21.45A10.73,10.73,0,0,0,191.94,203.67Z"/><path class="73e22255-5c64-4ceb-8042-2a4c93224436" d="M317.85,225a10.73,10.73,0,0,1-10.72-10.68h-5.64a16.37,16.37,0,0,0,32.74,0h-5.64A10.73,10.73,0,0,1,317.85,225Z"/><path class="73e22255-5c64-4ceb-8042-2a4c93224436" d="M317.85,198a16.37,16.37,0,0,0-16.37,16.3h5.64a10.73,10.73,0,0,1,21.45,0h5.64A16.37,16.37,0,0,0,317.85,198Z"/><path class="0508293f-ea3c-4136-9bc8-10bd4d6d9a24" d="M317.85,203.67a10.73,10.73,0,0,0-10.72,10.68h21.45A10.73,10.73,0,0,0,317.85,203.67Z"/><path class="e3dce644-0255-48ed-91ad-fe6021702d31" d="M317.85,225a10.73,10.73,0,0,0,10.72-10.68H307.13A10.73,10.73,0,0,0,317.85,225Z"/></g></svg>