<svg xmlns="http://www.w3.org/2000/svg" xmlns:xlink="http://www.w3.org/1999/xlink" viewBox="0 0 1160.29 1174.88"><defs><style>.cls-1{isolation:isolate;}.cls-2{fill:#1a4ced;}.cls-13,.cls-14,.cls-15,.cls-17,.cls-19,.cls-26,.cls-27,.cls-28,.cls-3{fill:none;}.cls-13,.cls-15,.cls-28,.cls-3{stroke:#fff;}.cls-13,.cls-15,.cls-19,.cls-3{stroke-linecap:round;stroke-linejoin:round;}.cls-19,.cls-26,.cls-27,.cls-28,.cls-3{stroke-width:0.5px;}.cls-4,.cls-6,.cls-8,.cls-9{opacity:0.2;mix-blend-mode:multiply;}.cls-4{fill:url(#linear-gradient);}.cls-5{fill:#35826f;}.cls-7{fill:#4ebfa5;}.cls-8{fill:url(#linear-gradient-2);}.cls-9{fill:url(#linear-gradient-3);}.cls-10{fill:#942754;}.cls-11{fill:#ffcf30;}.cls-12{fill:#ff1a79;}.cls-13,.cls-14{stroke-width:0.52px;}.cls-14{stroke:#942754;}.cls-14,.cls-17,.cls-26,.cls-27,.cls-28{stroke-miterlimit:10;}.cls-15{stroke-width:0.75px;}.cls-16{fill:#fff;}.cls-17{stroke:#b5b5b5;stroke-width:0.77px;}.cls-18{fill:#547cde;}.cls-19,.cls-27{stroke:#ffcf30;}.cls-20{fill:#b514ff;}.cls-21{fill:#8ab1ff;}.cls-22{fill:#7c2aff;}.cls-23{fill:#5283ff;}.cls-24{fill:#0c11ff;}.cls-25{fill:#252933;}.cls-26{stroke:#103094;}.cls-28{opacity:0.15;}.cls-29{fill:url(#linear-gradient-4);}.cls-30{fill:url(#linear-gradient-5);}.cls-31{fill:url(#linear-gradient-6);}.cls-32{fill:url(#linear-gradient-7);}</style><linearGradient id="linear-gradient" x1="635.04" y1="1024.19" x2="1282.32" y2="1024.19" gradientUnits="userSpaceOnUse"><stop offset="0" stop-color="#fff"/><stop offset="1"/></linearGradient><linearGradient id="linear-gradient-2" x1="422.82" y1="1040.09" x2="422.82" y2="857.83" xlink:href="#linear-gradient"/><linearGradient id="linear-gradient-3" x1="820.6" y1="990.89" x2="820.6" y2="875.67" xlink:href="#linear-gradient"/><linearGradient id="linear-gradient-4" x1="703.55" y1="1004.07" x2="703.55" y2="886.33" xlink:href="#linear-gradient"/><linearGradient id="linear-gradient-5" x1="587.89" y1="1004.07" x2="587.89" y2="886.33" xlink:href="#linear-gradient"/><linearGradient id="linear-gradient-6" x1="450.34" y1="1004.07" x2="450.34" y2="886.33" xlink:href="#linear-gradient"/><linearGradient id="linear-gradient-7" x1="334.68" y1="1004.07" x2="334.68" y2="886.33" xlink:href="#linear-gradient"/></defs><title>personagem</title><g class="cls-1"><g id="Camada_2" data-name="Camada 2"><g id="Camada_1-2" data-name="Camada 1"><path class="cls-2" d="M14.75,501.72C44.44,482.35,75.14,518,90,552s28,70.86,63.66,81.31,55.14,16.4,66.13,47,10.14,39.83,33.77,56.88,48.13,47.46,51.6,81.33l-123.22,56.2s-31.69-12.88-62.68-51.57-23.65-65.11-34.75-81.82-50.53-24-57.94-55.42,5.38-53.93-11-88.2S-8.77,517.07,14.75,501.72Z"/><path class="cls-3" d="M32.47,520.92C71.64,625.5,94.22,682,245.52,845.72"/><path class="cls-3" d="M68,532.34s4.78,27.49-2.83,69.55"/><path class="cls-3" d="M31.13,620.76s6.47,12,65.53,39.93"/><path class="cls-3" d="M165.63,646.73s20.27,75.72,3.79,112.87"/><path class="cls-3" d="M110.63,794.85s44.05,17.57,95.42,7.31"/><path class="cls-2" d="M1132,660.51c25.73,10.21,13.35,57.15,2.52,83.52s18.1,63.78-56.37,107.51l-92-55.74s22.22-64.55,58.3-77.49C1081.65,705,1095.85,646.17,1132,660.51Z"/><path class="cls-3" d="M1126.52,672.31s-34.3,83.77-94.25,151.42"/><path class="cls-3" d="M1101.33,671.12s-8.32,29.73-1.86,55"/><path class="cls-3" d="M1125.11,772.89s-42.6,16.05-66.35,17.63"/><path class="cls-4" d="M490.07,873.49h647.28s-28.45,64.15-90.1,67.46c0,0,5.68,66.28-49.7,85.45-57.25,19.82-77.06,19.32-124.4,70.48s-88,82-167.31,77.58S538.51,1107.72,490.07,873.49Z"/><path class="cls-5" d="M490.07,873.49h647.28s-28.45-64.15-90.1-67.45c0,0,5.68-66.29-49.7-85.46-57.25-19.81-77.06-19.32-124.4-70.48s-88-82-167.31-77.58S538.51,639.27,490.07,873.49Z"/><polygon class="cls-6" points="850.84 93.35 850.84 222.89 803.78 252.58 850.84 250.56 850.84 275.35 1044.53 275.35 1044.53 93.35 850.84 93.35"/><path class="cls-7" d="M45.34,892.81h755s-4.19-80.31-94.47-114.44-92.48-31.92-122.2-71.55-65.71-60.54-107.16-56.14-63.1,19.81-63.1,19.81-62-20.91-104.94,4.41-84.77,103.47-84.77,103.47S50.85,801.39,45.34,892.81Z"/><path class="cls-8" d="M45.34,892.81h755s-4.19,80.31-94.47,114.43-92.48,31.92-122.2,71.55-65.71,60.55-107.16,56.15-63.1-19.82-63.1-19.82-62,20.92-104.94-4.4-84.77-103.48-84.77-103.48S50.85,984.23,45.34,892.81Z"/><path class="cls-9" d="M901.83,916.51c-18.26,16-42.38,26.69-69.21,29.17v218.61h-24V945.68c-26.83-2.48-51-13.15-69.21-29.17a5.05,5.05,0,0,1,3.26-8.9h156A5.05,5.05,0,0,1,901.83,916.51Z"/><rect class="cls-2" x="808.57" y="655.45" width="24.05" height="229.69"/><polygon class="cls-6" points="832.62 755.8 832.62 655.45 808.58 655.45 808.58 727.67 832.62 755.8"/><path class="cls-2" d="M894.73,662.7H746.46c-4.88,0-9.11-4.48-10.12-10.74l-3.19-19.78c-1.36-8.42,3.54-16.34,10.12-16.34H897.93c6.57,0,11.48,7.92,10.12,16.34L904.85,652C903.84,658.22,899.62,662.7,894.73,662.7Z"/><path class="cls-2" d="M820.6,873.49c-31.63,0-60.29,11.35-81.24,29.74a5,5,0,0,0,3.26,8.89h156a5,5,0,0,0,3.25-8.89C880.88,884.84,852.23,873.49,820.6,873.49Z"/><path class="cls-2" d="M901.83,903.23c-18.26-16-42.38-26.69-69.21-29.17V655.45h-24V874.06c-26.83,2.48-51,13.14-69.21,29.17a5,5,0,0,0,3.26,8.89h156A5,5,0,0,0,901.83,903.23Z"/><rect class="cls-10" x="199.53" y="579.13" width="27.25" height="13.9" rx="0.66"/><path class="cls-11" d="M256,479.87a42.88,42.88,0,1,0-85.75,0c0,8.64,2.57,18.38,7,27.26a79.34,79.34,0,0,1,8.64,32.25l.57,8.79h53.39l.57-8.79a79.38,79.38,0,0,1,8.64-32.25C253.46,498.25,256,488.51,256,479.87Z"/><path class="cls-12" d="M184.78,548.17h56.75a0,0,0,0,1,0,0v35.76a1.23,1.23,0,0,1-1.23,1.23H186a1.23,1.23,0,0,1-1.23-1.23V548.17A0,0,0,0,1,184.78,548.17Z"/><path class="cls-13" d="M223.46,514.27V490.43h0c-.08-8.68-1.51-12.2-3.29-12.2-.91,0-1.74.92-2.33,3-.6-2.07-1.43-3-2.34-3s-1.74.92-2.34,3c-.59-2.07-1.42-3-2.33-3s-1.74.92-2.34,3c-.59-2.07-1.42-3-2.33-3-1.78,0-3.21,3.52-3.29,12.2h0v23.84"/><line class="cls-14" x1="184.78" y1="556.54" x2="241.53" y2="556.54"/><line class="cls-14" x1="184.78" y1="563.29" x2="241.53" y2="563.29"/><line class="cls-14" x1="184.78" y1="570.05" x2="241.53" y2="570.05"/><line class="cls-14" x1="184.78" y1="576.8" x2="241.53" y2="576.8"/><line class="cls-15" x1="214.33" y1="401.2" x2="214.33" y2="419.91"/><line class="cls-15" x1="173.01" y1="412.27" x2="182.37" y2="428.48"/><line class="cls-15" x1="142.77" y1="442.52" x2="158.97" y2="451.88"/><line class="cls-15" x1="267.65" y1="514.62" x2="283.86" y2="523.98"/><line class="cls-15" x1="131.69" y1="483.84" x2="150.41" y2="483.84"/><line class="cls-15" x1="275.9" y1="483.84" x2="294.62" y2="483.84"/><line class="cls-15" x1="142.77" y1="525.16" x2="158.97" y2="515.8"/><line class="cls-15" x1="267.65" y1="453.05" x2="283.86" y2="443.7"/><line class="cls-15" x1="245.12" y1="430.52" x2="254.47" y2="414.31"/><polygon class="cls-16" points="232.56 358.95 254.77 310.08 201.31 314.78 211.13 328.65 164.12 357.95 179.49 379.65 222.74 345.07 232.56 358.95"/><polygon class="cls-16" points="1091.85 256.59 1069.64 207.72 1123.11 212.42 1113.29 226.29 1160.29 255.59 1144.93 277.29 1101.67 242.71 1091.85 256.59"/><path class="cls-16" d="M103,230.53H379.26s1.46-70.81-66.05-62.74c0,0-16.52-41.1-70.46-31.56s-54.3,51-54.3,51-39.27-11.75-50.27,25.68C138.18,212.92,107.72,214.76,103,230.53Z"/><path class="cls-16" d="M435.33,79.37,430,83.68,424.56,88C435.77,107.24,441,135.88,441,135.88c9.86-2.42,23.12,13.07,23.12,13.07l22.06-17.68S474,115,478.48,105.87C478.48,105.87,451.67,94.49,435.33,79.37Z"/><line class="cls-17" x1="429.95" y1="83.68" x2="457.29" y2="117.8"/><path class="cls-17" d="M463.72,117.8a5,5,0,1,1-7.05-.77A5,5,0,0,1,463.72,117.8Z"/><rect class="cls-18" x="466.77" y="137" width="34.52" height="28.32" transform="translate(11.81 335.94) rotate(-38.71)"/><path class="cls-2" d="M479.42,173l92.81,115.78c1.53,1.91,8.8-1.37,16.24-7.33s12.22-12.34,10.69-14.26L506.35,151.41Z"/><path class="cls-19" d="M469.71,197.14c-23.12,51.74-79.14,100.21-127.7,97.43-41.65-2.39-40.91-24.41-35.22-32.48,6.85-9.73,30.82-8.67,31.37,15.2s-13.56,49.75-36,72.32-34.56,49-34.56,49"/><path class="cls-19" d="M517,134.79c15.41-29,46.79-54.88,79.26-67S657.39,45.23,663.45,26,650.79-6,630.42,3.4s-17.06,48.44,30.83,45.13S797.75,33.12,820.32,75"/><polygon class="cls-11" points="844.48 83.68 844.48 213.22 797.41 242.92 844.48 240.9 844.48 265.68 1038.16 265.68 1038.16 83.68 844.48 83.68"/><circle class="cls-16" cx="921.96" cy="150.91" r="43.85"/><rect class="cls-16" x="921.96" y="150.91" width="74.49" height="74.49"/><path class="cls-12" d="M922,194.76a43.85,43.85,0,0,0,43.85-43.85H922Z"/><rect x="970.98" y="308.09" width="148.8" height="331.18" rx="4.83"/><rect class="cls-16" x="962.91" y="299.15" width="148.8" height="331.18" rx="4.83"/><path class="cls-11" d="M1026,346.64a17.18,17.18,0,1,1-17.18-17.17A17.18,17.18,0,0,1,1026,346.64Z"/><circle class="cls-12" cx="1065.77" cy="346.64" r="17.18"/><path class="cls-5" d="M1026,399.68a17.18,17.18,0,1,1-17.18-17.17A17.18,17.18,0,0,1,1026,399.68Z"/><path class="cls-20" d="M1083,399.68a17.18,17.18,0,1,1-17.18-17.17A17.18,17.18,0,0,1,1083,399.68Z"/><path class="cls-21" d="M1026,452.72a17.18,17.18,0,1,1-17.18-17.17A17.18,17.18,0,0,1,1026,452.72Z"/><path class="cls-22" d="M1083,452.72a17.18,17.18,0,1,1-17.18-17.17A17.18,17.18,0,0,1,1083,452.72Z"/><path class="cls-23" d="M1026,505.76a17.18,17.18,0,1,1-17.18-17.18A17.18,17.18,0,0,1,1026,505.76Z"/><circle class="cls-24" cx="1065.77" cy="505.76" r="17.18"/><path class="cls-21" d="M1060.54,562.35l-12.73-12.72-35.72,35.72a10.87,10.87,0,0,0-3,9.68h0a3.3,3.3,0,0,1-.91,3l-3.23,3.23a2.81,2.81,0,0,0,0,4h0a2.8,2.8,0,0,0,4,0l3.24-3.23a3.33,3.33,0,0,1,3-.92h0a10.82,10.82,0,0,0,9.68-3Z"/><path class="cls-12" d="M1065.71,560.62l-2.3-2.3,4.68-4.68a8.18,8.18,0,0,0-11.56-11.57l-4.68,4.68-2.3-2.3a2.45,2.45,0,0,0-3.46,3.46l16.17,16.16a2.44,2.44,0,1,0,3.45-3.45Z"/><path class="cls-2" d="M621.67,852.86l-2.94,36s-44,17.62-44,23.49,77.79,7.7,80.73,0,6.6-59.45,6.6-59.45Z"/><path class="cls-2" d="M531.57,852.86l-11.06,36s-44,17.62-44,23.49,77.79,7.7,80.73,0,14.72-59.45,14.72-59.45Z"/><path class="cls-11" d="M780.69,526.29s-172.83,9.18-195.58,59.81c-23,51.27-59.45,274.28-59.45,274.28h48.62l65-238.32s171.73-5.2,209.71-22.57,52.84-73.2,52.84-73.2Z"/><path class="cls-6" d="M595.55,782.35l43.68-160.29s171.73-5.2,209.71-22.57,52.84-73.2,52.84-73.2H780.69s-172.83,9.18-195.58,59.81a198,198,0,0,0-8.26,23.44Z"/><path class="cls-11" d="M901.78,526.29s9.9,28.07,0,61.09-46.24,40.73-77.61,40.73H719.54A16.58,16.58,0,0,0,703.18,642L667.3,860.38H611.16s6.05-199.14,18.71-242.72C649,552,698.12,549,817.56,538.5Z"/><path class="cls-2" d="M700.1,305.58C677.54,324.85,666,459.7,666,459.7l-95.77,22v28.62l102.25-5.62a35.69,35.69,0,0,0,33.07-28.85l18.79-97.07Z"/><path class="cls-16" d="M693.17,497.12s-23.8,4.26-33.85,6.88c-8.72,2.27-48.85,23.66-48.85,28.2s27.52,3,27.52,3,27.94-6.74,32.06-15.27l28.21-1.79Z"/><path class="cls-6" d="M707.6,465.15l16.72-86.36L700.1,305.58c-9.86,8.42-17.62,38.92-23.23,70.58Z"/><path class="cls-2" d="M751,279.15c32.28-4.61,76.51-2.2,98,25.32s49.53,146.41,52.84,176.68,17.61,49-11,49H777.93c-26.42,0-27.52-3.3-27-32.47s-3.85-58.9-33-107.33-29.72-70.46-19.82-84.77S735.39,281.38,751,279.15Z"/><path class="cls-6" d="M751,497.67c-.55,29.17.55,32.47,27,32.47H890.77c28.62,0,14.31-18.71,11-49S870.4,332,848.94,304.47A55.24,55.24,0,0,0,845,300L749,467.18A168.94,168.94,0,0,1,751,497.67Z"/><path class="cls-2" d="M830.88,291.93C863.4,294.67,861,377.68,861,406.3s.55,84.21-27.52,93-141.45,24.77-141.45,24.77L687.92,496l114.77-38s2.2-71,2.75-95.22S799.62,289.3,830.88,291.93Z"/><path class="cls-2" d="M699.26,223.35c4.31,9.74,2.14,20.14-4.84,23.24s-16.14-2.31-20.45-12.05-2.15-20.14,4.84-23.23S695,213.61,699.26,223.35Z"/><path class="cls-16" d="M682.45,220.83c5.77,21.92,10.07,34.06,13.38,42.28s14.26,10.41,28.84,6.43c0,0,5.65,16.71,9.51,25.46s44.85,3.18,39.9-12.2-11.37-33.17-11.37-33.17,17.15-76.89-37.06-81.92S667.33,211.91,682.45,220.83Z"/><path class="cls-25" d="M706.63,185.56s12.76,18.45,33.92,18.77c0,0,4.36,32,22.16,45.3,0,0,27.53-13.26,17.8-29.44,0,0,23.84-13.92-4.71-41.42,0,0,17.67-6.54,17-14s-33.39-2.48-33.39-2.48S722,112.37,697.56,117c-13.77,2.59-16.12,24.27-16.12,24.27s-28.87-11.32-40.29,4.53,14.77,45.3,14.77,45.3-11.3,3.54-11.08,12.3c.45,17.38,37.61,17.47,37.61,17.47l-1-11s10.75,2.59,9.74-1-6.38-8.41-6.38-8.41S702.26,195.92,706.63,185.56Z"/><ellipse class="cls-2" cx="754.69" cy="218.89" rx="19.29" ry="13.83" transform="translate(390.75 915.32) rotate(-78.58)"/><path class="cls-2" d="M759,217.79a4.46,4.46,0,0,1-1.14-.15,4.41,4.41,0,0,1-3.12-5.39c6.25-23.41,1.41-55.95,1.37-56.27a4.4,4.4,0,1,1,8.7-1.33c.21,1.4,5.17,34.67-1.56,59.87A4.41,4.41,0,0,1,759,217.79Z"/><polyline class="cls-26" points="805.26 337.64 802.69 458.04 687.92 496.01"/><path class="cls-25" d="M616.34,542.58H387.51l-38.9-170.31a7.69,7.69,0,0,1,7.5-9.4h210a11.54,11.54,0,0,1,11.25,9Z"/><rect class="cls-25" x="479.52" y="532.86" width="257.22" height="9.72"/><polygon class="cls-16" points="393.48 563.72 332.65 954.14 317.24 954.14 359.72 563.72 393.48 563.72"/><polygon class="cls-16" points="467.6 914.88 447.14 563.72 413.38 563.72 450.35 914.88 467.6 914.88"/><polygon class="cls-16" points="646.7 563.72 585.87 954.14 570.46 954.14 612.94 563.72 646.7 563.72"/><polygon class="cls-16" points="720.82 914.88 700.36 563.72 666.6 563.72 703.56 914.88 720.82 914.88"/><polygon points="389.51 589.22 393.48 563.72 359.72 563.72 357.61 583.15 389.51 589.22"/><polygon points="447.14 563.72 413.38 563.72 416.61 594.39 449.29 600.61 447.14 563.72"/><polygon points="642.75 589.22 646.73 563.72 612.97 563.72 610.86 583.15 642.75 589.22"/><polygon points="700.39 563.72 666.63 563.72 669.86 594.39 702.54 600.61 700.39 563.72"/><rect class="cls-16" x="301.96" y="542.58" width="434.14" height="21.13"/><line class="cls-27" x1="301.96" y1="556.42" x2="736.75" y2="556.42"/><line class="cls-28" x1="565.2" y1="373.88" x2="604.73" y2="542.58"/><path class="cls-12" d="M502.16,451.94a26.44,26.44,0,1,1-26.44-26.44A26.43,26.43,0,0,1,502.16,451.94Z"/><polygon class="cls-29" points="711.26 1079 720.82 914.94 703.56 914.94 686.29 1079 711.26 1079"/><polygon class="cls-30" points="605.33 1079 585.87 954.14 570.46 954.14 584.04 1079 605.33 1079"/><polygon class="cls-31" points="458.04 1079 467.6 914.94 450.35 914.94 433.07 1079 458.04 1079"/><polygon class="cls-32" points="352.11 1079 332.65 954.14 317.24 954.14 330.83 1079 352.11 1079"/><path class="cls-15" d="M572.1,136.25a15.32,15.32,0,1,1-15.31-15.31A15.31,15.31,0,0,1,572.1,136.25Z"/><path class="cls-15" d="M158.08,286a15.32,15.32,0,1,1-15.31-15.31A15.31,15.31,0,0,1,158.08,286Z"/><path class="cls-15" d="M497.69,301.3A15.32,15.32,0,1,1,482.38,286,15.31,15.31,0,0,1,497.69,301.3Z"/></g></g></g></svg>