<svg xmlns="http://www.w3.org/2000/svg" viewBox="0 0 472 472"><defs><style>.cls-1{fill:#8d032a;}</style></defs><title>IZILogotipo</title><g id="Layer_2" data-name="Layer 2"><g id="Layer_1-2" data-name="Layer 1"><path class="cls-1" d="M236,0C105.66,0,0,105.66,0,236S105.66,472,236,472,472,366.34,472,236,366.34,0,236,0ZM352.44,367.14a36.3,36.3,0,0,1-7.9,11.47,37.07,37.07,0,0,1-11.56,7.7,35.49,35.49,0,0,1-14,2.77,38.19,38.19,0,0,1-14.53-2.77A37.57,37.57,0,0,1,294,380H155.35l-32.54.07-.46-205,61.27-.14.19,84.1,81-115.66H180c-.15.14-.29.29-.44.44a39.79,39.79,0,0,1-11.94,7.73,37.08,37.08,0,0,1-14.52,2.9,34.51,34.51,0,0,1-14-2.83A39.21,39.21,0,0,1,127.52,144a35.34,35.34,0,0,1-7.93-11.25,33.12,33.12,0,0,1-2.9-13.73,34.58,34.58,0,0,1,2.83-14,36.56,36.56,0,0,1,7.88-11.48l.22-.2.09-.09c.4-.38.8-.75,1.21-1.11l0,0h0a36.7,36.7,0,0,1,10-6.29,35.43,35.43,0,0,1,14-2.8,38.39,38.39,0,0,1,14.53,2.73A37.36,37.36,0,0,1,178,92H349.78V297H288.5V214L208.26,328.6H292l.5-.5a39.38,39.38,0,0,1,12-7.7,37,37,0,0,1,14.53-2.87,34.37,34.37,0,0,1,14,2.87,39.28,39.28,0,0,1,11.56,7.7,35.45,35.45,0,0,1,7.9,11.27,33.17,33.17,0,0,1,2.87,13.74A34.36,34.36,0,0,1,352.44,367.14Z"/></g></g></svg>