<svg xmlns="http://www.w3.org/2000/svg" viewBox="0 0 364.18 165.91"><defs><style>.b663612e-a9ef-4e11-abf6-cdf946a01612{fill:#fff;}</style></defs><title>Asset 1</title><g id="14d55bef-07a7-4877-b9eb-087a1b981843" data-name="Layer 2"><g id="b5d27dc3-b212-442e-974f-d312d4e4bc69" data-name="white logo"><g id="29a02ab1-3016-4d0e-aaed-ebc966a26cc2" data-name="background"><g id="dbc51783-47bb-46d1-bc17-34e4d0704dba" data-name="logo"><g id="f7c555bc-071b-489b-a88c-97d83c8450d6" data-name="RIGHT"><polygon class="b663612e-a9ef-4e11-abf6-cdf946a01612" points="364.18 62.05 364.17 62.05 364.18 62.72 364.18 62.05"/><polygon class="b663612e-a9ef-4e11-abf6-cdf946a01612" points="335.53 62.97 333.43 62.05 333.11 62.05 251.34 98.19 251.35 124.27 364.18 74.39 364.18 62.97 335.53 62.97"/><polygon class="b663612e-a9ef-4e11-abf6-cdf946a01612" points="364.18 62.97 364.18 62.97 364.18 62.72 364.17 62.05 364.13 49.45 251.1 0 251.2 26.07 333.43 62.05 335.53 62.97 364.18 62.97"/></g><g id="feda7150-c0ef-411f-bc93-ee96bcad28bf" data-name="LEFT"><polygon class="b663612e-a9ef-4e11-abf6-cdf946a01612" points="0.18 62.05 0.18 62.31 0.18 62.05 0.18 62.05"/><polygon class="b663612e-a9ef-4e11-abf6-cdf946a01612" points="113.25 124.27 113.15 98.19 31.09 62.29 29.55 62.97 0.18 62.97 0.23 74.82 113.25 124.27"/><polygon class="b663612e-a9ef-4e11-abf6-cdf946a01612" points="31.09 62.29 113.01 26.07 113.01 0 0.18 49.88 0.18 62.05 0.18 62.31 0.18 62.97 0.18 62.97 29.55 62.97 31.09 62.29"/></g><g id="4351e232-064f-4cc1-bd3f-ffff6bdcde2e" data-name="LOGO"><path class="b663612e-a9ef-4e11-abf6-cdf946a01612" d="M218.43,114.72a14.46,14.46,0,0,1-1.12-5.63,14.11,14.11,0,0,1,1.07-5.54,14.81,14.81,0,0,1,2.79-4.36H171.82l22.66-35.32H167.77l.27-.42h-.25l-18.61,29v27.41H222c-.21-.19-.42-.37-.61-.57A14.79,14.79,0,0,1,218.43,114.72Z" transform="translate(-2.4)"/><polygon class="b663612e-a9ef-4e11-abf6-cdf946a01612" points="217.04 63.87 217.14 86.48 239.74 86.17 239.63 63.45 239.56 63.45 239.57 63.87 217.04 63.87"/><path class="b663612e-a9ef-4e11-abf6-cdf946a01612" d="M243.49,103.21a14.18,14.18,0,0,0-2.94-4.49,14.33,14.33,0,0,0-4.28-3,11.74,11.74,0,0,0-5.18-1.08,12.75,12.75,0,0,0-5.35,1.23,14.73,14.73,0,0,0-4.4,3.16l-.18.21a14.81,14.81,0,0,0-2.79,4.36,14.11,14.11,0,0,0-1.07,5.54,14.46,14.46,0,0,0,1.12,5.63,14.79,14.79,0,0,0,3,4.57c.2.2.41.38.61.57a13.53,13.53,0,0,0,3.81,2.47,13,13,0,0,0,5.36,1,12.25,12.25,0,0,0,5.17-1.18,13.84,13.84,0,0,0,4.25-3.16,15,15,0,0,0,3.93-10.31A14.37,14.37,0,0,0,243.49,103.21Z" transform="translate(-2.4)"/><polygon class="b663612e-a9ef-4e11-abf6-cdf946a01612" points="146.78 63.45 146.71 63.45 146.71 63.87 124.19 63.87 124.19 119.92 146.78 119.92 146.78 119.86 146.78 92.45 146.78 63.45"/><path class="b663612e-a9ef-4e11-abf6-cdf946a01612" d="M194.48,63.87h.25l24.47-38.14-.09-21.19,2.77,0H146.72c.22.2.44.4.65.61a15,15,0,0,1,3,4.61,14.54,14.54,0,0,1,1.09,5.65,14,14,0,0,1-1.09,5.53,14.62,14.62,0,0,1-2.76,4.28h45L168,63.45l-.27.42Z" transform="translate(-2.4)"/><polygon class="b663612e-a9ef-4e11-abf6-cdf946a01612" points="216.81 25.73 216.97 63.87 217.04 63.87 239.57 63.87 239.56 63.45 239.31 4.23 219.48 4.5 216.71 4.53 216.81 25.73"/><polygon class="b663612e-a9ef-4e11-abf6-cdf946a01612" points="146.71 63.45 146.71 37.96 124.12 37.96 124.12 63.87 124.19 63.87 146.71 63.87 146.71 63.45"/><path class="b663612e-a9ef-4e11-abf6-cdf946a01612" d="M151.45,15.37a14.54,14.54,0,0,0-1.09-5.65,15,15,0,0,0-3-4.61c-.21-.22-.43-.41-.65-.61A13.72,13.72,0,0,0,143,2,13.09,13.09,0,0,0,137.6.9,12.17,12.17,0,0,0,132.42,2a13.68,13.68,0,0,0-4.26,3.1,14.76,14.76,0,0,0-2.92,4.61,15,15,0,0,0-1.06,5.65,14.48,14.48,0,0,0,8.24,13.16,11.8,11.8,0,0,0,5.17,1.15A12.68,12.68,0,0,0,143,28.53a14.56,14.56,0,0,0,4.41-3.1l.23-.26a14.62,14.62,0,0,0,2.76-4.28A14,14,0,0,0,151.45,15.37Z" transform="translate(-2.4)"/></g></g><g id="9add8a8b-d570-460d-abf9-3fbc1b1b9d2c" data-name="slogan"><path class="b663612e-a9ef-4e11-abf6-cdf946a01612" d="M2.4,158.81V129.67H13.12a20.4,20.4,0,0,1,5.14.56,9.8,9.8,0,0,1,3.46,1.58,6,6,0,0,1,2,2.48,8.38,8.38,0,0,1,.61,3.26,6.39,6.39,0,0,1-.28,1.89,5.56,5.56,0,0,1-.88,1.71,6.58,6.58,0,0,1-1.54,1.45,9.94,9.94,0,0,1-2.26,1.13A8,8,0,0,1,23.58,146,5.88,5.88,0,0,1,25,150a8.34,8.34,0,0,1-.72,3.46,7.92,7.92,0,0,1-2.11,2.79,10,10,0,0,1-3.43,1.86,14.9,14.9,0,0,1-4.66.67Zm6.76-16.88h3.52a11.63,11.63,0,0,0,2-.16,4.21,4.21,0,0,0,1.53-.56,2.58,2.58,0,0,0,1-1.1,4.13,4.13,0,0,0,.33-1.76,4.94,4.94,0,0,0-.26-1.73,2.47,2.47,0,0,0-.8-1.11,3.36,3.36,0,0,0-1.37-.6,9.47,9.47,0,0,0-2-.18h-4Zm0,4.52v7.26h4.76a6,6,0,0,0,2.19-.34,3.46,3.46,0,0,0,1.33-.88,2.94,2.94,0,0,0,.66-1.22,5.36,5.36,0,0,0,.18-1.38,4.62,4.62,0,0,0-.21-1.44,2.39,2.39,0,0,0-.72-1.08,3.53,3.53,0,0,0-1.35-.68,7.86,7.86,0,0,0-2.12-.24Z" transform="translate(-2.4)"/><path class="b663612e-a9ef-4e11-abf6-cdf946a01612" d="M37.52,137.75a10.67,10.67,0,0,1,3.77.64,8.19,8.19,0,0,1,2.94,1.86,8.5,8.5,0,0,1,1.92,3,11,11,0,0,1,.69,4,8.75,8.75,0,0,1-.06,1.14,1.81,1.81,0,0,1-.22.7.84.84,0,0,1-.43.36,2,2,0,0,1-.69.1h-12a5.84,5.84,0,0,0,1.58,3.77,4.7,4.7,0,0,0,3.3,1.17,5.9,5.9,0,0,0,1.86-.26,9.32,9.32,0,0,0,1.39-.58l1.12-.58a2.33,2.33,0,0,1,1.07-.26,1.28,1.28,0,0,1,1.12.54l1.8,2.22a9.22,9.22,0,0,1-2.07,1.79,10.75,10.75,0,0,1-2.28,1.08A12.35,12.35,0,0,1,40,159a17.64,17.64,0,0,1-2.23.15,11.66,11.66,0,0,1-4.09-.71,9.4,9.4,0,0,1-3.34-2.11,10,10,0,0,1-2.26-3.48,13,13,0,0,1-.83-4.84A10.94,10.94,0,0,1,28,144a9.58,9.58,0,0,1,5.26-5.48A10.64,10.64,0,0,1,37.52,137.75Zm.12,4.28a3.73,3.73,0,0,0-2.78,1,5.25,5.25,0,0,0-1.32,2.91h7.74a5.46,5.46,0,0,0-.19-1.44,3.5,3.5,0,0,0-.62-1.25,3.17,3.17,0,0,0-1.13-.89A3.86,3.86,0,0,0,37.64,142Z" transform="translate(-2.4)"/><path class="b663612e-a9ef-4e11-abf6-cdf946a01612" d="M74.56,135.51a2.57,2.57,0,0,1-.69.7,1.53,1.53,0,0,1-.83.22,1.68,1.68,0,0,1-.92-.3l-1-.66a8.28,8.28,0,0,0-1.31-.66,5.16,5.16,0,0,0-3.35,0,3.2,3.2,0,0,0-1.15.72,3,3,0,0,0-.69,1.08,3.89,3.89,0,0,0-.23,1.36,2,2,0,0,0,.45,1.34,4.09,4.09,0,0,0,1.2,1,12.08,12.08,0,0,0,1.69.75q.94.34,1.93.74a18.28,18.28,0,0,1,1.94.92,7,7,0,0,1,1.7,1.3,5.89,5.89,0,0,1,1.2,1.88,7,7,0,0,1,.45,2.64,11.27,11.27,0,0,1-.76,4.14A10,10,0,0,1,72,156a10.35,10.35,0,0,1-3.45,2.3,12.27,12.27,0,0,1-7.1.57,13.22,13.22,0,0,1-2.44-.79,12.46,12.46,0,0,1-2.17-1.21,8.35,8.35,0,0,1-1.7-1.56l2.32-3a2,2,0,0,1,.68-.56,1.79,1.79,0,0,1,.84-.22,1.82,1.82,0,0,1,1.09.39l1.17.86a8.45,8.45,0,0,0,1.49.86,5,5,0,0,0,2.09.39,3.8,3.8,0,0,0,2.81-1,4,4,0,0,0,1-2.93,2.34,2.34,0,0,0-.45-1.48,3.74,3.74,0,0,0-1.18-1,10,10,0,0,0-1.67-.71q-.94-.31-1.92-.67a16.25,16.25,0,0,1-1.92-.85,5.95,5.95,0,0,1-2.85-3.22,7.8,7.8,0,0,1-.45-2.83,9.8,9.8,0,0,1,.73-3.73A9.69,9.69,0,0,1,61,132.41a10.09,10.09,0,0,1,3.3-2.2,11.75,11.75,0,0,1,6.77-.56,11.33,11.33,0,0,1,2.19.72,9.83,9.83,0,0,1,1.86,1.09,7.54,7.54,0,0,1,1.42,1.37Z" transform="translate(-2.4)"/><path class="b663612e-a9ef-4e11-abf6-cdf946a01612" d="M94.74,143.17a6,6,0,0,1-.56,2.6,5.24,5.24,0,0,1-2,2.09,13.18,13.18,0,0,1-3.74,1.55,37.08,37.08,0,0,1-5.91,1,4.65,4.65,0,0,0,.93,3.1,3.37,3.37,0,0,0,2.63,1,6.29,6.29,0,0,0,1.42-.14,4.87,4.87,0,0,0,1-.36,6.93,6.93,0,0,0,.81-.46l.69-.46a3.57,3.57,0,0,1,.69-.36,2.24,2.24,0,0,1,.82-.14,1.21,1.21,0,0,1,.58.15,1.88,1.88,0,0,1,.5.39L94.3,155a21.8,21.8,0,0,1-2.15,1.87,11.74,11.74,0,0,1-2.16,1.3,10.27,10.27,0,0,1-2.36.75,14.49,14.49,0,0,1-2.73.24,8.84,8.84,0,0,1-3.38-.63,7.68,7.68,0,0,1-2.65-1.78,8,8,0,0,1-1.72-2.77,10.15,10.15,0,0,1-.61-3.6,14.15,14.15,0,0,1,.37-3.24,13.64,13.64,0,0,1,1.06-3,12.43,12.43,0,0,1,1.69-2.56,11.08,11.08,0,0,1,2.25-2,10.61,10.61,0,0,1,2.74-1.31,10.48,10.48,0,0,1,3.17-.47,8.41,8.41,0,0,1,3,.48,6.94,6.94,0,0,1,2.17,1.25,5.39,5.39,0,0,1,1.34,1.73A4.41,4.41,0,0,1,94.74,143.17ZM87.46,142a3.61,3.61,0,0,0-2.7,1.23A7.79,7.79,0,0,0,83,146.57a29.15,29.15,0,0,0,3.14-.63,7.83,7.83,0,0,0,1.86-.72,2.23,2.23,0,0,0,.89-.84,2.11,2.11,0,0,0,.23-1,1.47,1.47,0,0,0-.4-1A1.61,1.61,0,0,0,87.46,142Z" transform="translate(-2.4)"/><path class="b663612e-a9ef-4e11-abf6-cdf946a01612" d="M114.1,143.17a6,6,0,0,1-.56,2.6,5.24,5.24,0,0,1-2,2.09,13.18,13.18,0,0,1-3.74,1.55,37.08,37.08,0,0,1-5.91,1,4.65,4.65,0,0,0,.93,3.1,3.37,3.37,0,0,0,2.63,1,6.29,6.29,0,0,0,1.42-.14,4.87,4.87,0,0,0,1-.36,6.93,6.93,0,0,0,.81-.46l.69-.46a3.57,3.57,0,0,1,.69-.36,2.24,2.24,0,0,1,.82-.14,1.21,1.21,0,0,1,.58.15,1.88,1.88,0,0,1,.5.39l1.6,1.86a21.8,21.8,0,0,1-2.15,1.87,11.74,11.74,0,0,1-2.16,1.3,10.27,10.27,0,0,1-2.36.75,14.49,14.49,0,0,1-2.73.24,8.84,8.84,0,0,1-3.38-.63,7.68,7.68,0,0,1-2.65-1.78,8,8,0,0,1-1.72-2.77,10.15,10.15,0,0,1-.61-3.6,14.15,14.15,0,0,1,.37-3.24,13.64,13.64,0,0,1,1.06-3A12.43,12.43,0,0,1,99,141.58a11.08,11.08,0,0,1,2.25-2,10.61,10.61,0,0,1,2.74-1.31,10.48,10.48,0,0,1,3.17-.47,8.41,8.41,0,0,1,3,.48,6.94,6.94,0,0,1,2.17,1.25,5.39,5.39,0,0,1,1.34,1.73A4.41,4.41,0,0,1,114.1,143.17Zm-7.28-1.2a3.61,3.61,0,0,0-2.7,1.23,7.79,7.79,0,0,0-1.74,3.37,29.15,29.15,0,0,0,3.14-.63,7.83,7.83,0,0,0,1.86-.72,2.23,2.23,0,0,0,.89-.84,2.11,2.11,0,0,0,.23-1,1.47,1.47,0,0,0-.4-1A1.61,1.61,0,0,0,106.82,142Z" transform="translate(-2.4)"/><path class="b663612e-a9ef-4e11-abf6-cdf946a01612" d="M127.26,158.81l1.56-13.18q0-.32.06-.59c0-.18,0-.35,0-.51a2.22,2.22,0,0,0-.37-1.47,1.42,1.42,0,0,0-1.11-.41,2.89,2.89,0,0,0-1.42.42,5.56,5.56,0,0,0-1.41,1.18,9,9,0,0,0-1.23,1.85,10.84,10.84,0,0,0-.88,2.41l-1.14,10.3h-6.2l2.48-20.74h3.2a2.28,2.28,0,0,1,1.5.45,1.81,1.81,0,0,1,.54,1.47v1.66a10.15,10.15,0,0,1,3.28-3,7.72,7.72,0,0,1,3.68-.95,5.3,5.3,0,0,1,2.13.42,4.59,4.59,0,0,1,1.67,1.23,5.91,5.91,0,0,1,1.1,2,8.47,8.47,0,0,1,.4,2.72q0,.36,0,.74c0,.25,0,.51-.07.78l-1.56,13.18Z" transform="translate(-2.4)"/><path class="b663612e-a9ef-4e11-abf6-cdf946a01612" d="M140.44,155.67a3.33,3.33,0,0,1,.27-1.34,3.39,3.39,0,0,1,.74-1.08,3.53,3.53,0,0,1,1.11-.73,3.57,3.57,0,0,1,1.4-.27,3.53,3.53,0,0,1,1.38.27,3.65,3.65,0,0,1,1.12.73,3.31,3.31,0,0,1,1,2.42,3.38,3.38,0,0,1-.27,1.35,3.27,3.27,0,0,1-.75,1.09,3.5,3.5,0,0,1-1.12.72,3.63,3.63,0,0,1-1.38.26,3.67,3.67,0,0,1-1.4-.26,3.37,3.37,0,0,1-2.12-3.16Zm6.48-26v11.44a30.26,30.26,0,0,1-.22,3.65q-.22,1.81-.58,3.69h-4.2q-.36-1.88-.58-3.69a30.06,30.06,0,0,1-.22-3.65V129.67Z" transform="translate(-2.4)"/><path class="b663612e-a9ef-4e11-abf6-cdf946a01612" d="M175.32,153.93a11.49,11.49,0,0,0,2.48-.24,12.13,12.13,0,0,0,2-.64v-4.42H177a1.4,1.4,0,0,1-1-.34,1.13,1.13,0,0,1-.36-.86v-3.72H186V156a15.29,15.29,0,0,1-2.33,1.41,15,15,0,0,1-2.58,1,19.27,19.27,0,0,1-2.92.56,28.9,28.9,0,0,1-3.33.18,15.29,15.29,0,0,1-5.92-1.13,14.17,14.17,0,0,1-7.83-7.84,15.35,15.35,0,0,1-1.13-5.93,16.15,16.15,0,0,1,1.08-6,13.5,13.5,0,0,1,3.09-4.71,14,14,0,0,1,4.86-3.08,17.59,17.59,0,0,1,6.37-1.1,18.54,18.54,0,0,1,3.42.3,16.86,16.86,0,0,1,3,.82,13.58,13.58,0,0,1,2.47,1.24,13.29,13.29,0,0,1,2,1.56l-2,3a2.17,2.17,0,0,1-.67.66,1.59,1.59,0,0,1-.85.24,2.34,2.34,0,0,1-1.24-.4q-.8-.48-1.51-.83a9.21,9.21,0,0,0-1.45-.57,9.62,9.62,0,0,0-1.56-.32,15.37,15.37,0,0,0-1.84-.1,8.4,8.4,0,0,0-3.42.67,7.34,7.34,0,0,0-2.59,1.89,8.54,8.54,0,0,0-1.65,2.93,11.8,11.8,0,0,0-.58,3.81,12.26,12.26,0,0,0,.64,4.12,8.85,8.85,0,0,0,1.77,3,7.49,7.49,0,0,0,2.68,1.89A8.67,8.67,0,0,0,175.32,153.93Z" transform="translate(-2.4)"/><path class="b663612e-a9ef-4e11-abf6-cdf946a01612" d="M199,137.75a10.67,10.67,0,0,1,3.77.64,8.19,8.19,0,0,1,2.94,1.86,8.5,8.5,0,0,1,1.92,3,11,11,0,0,1,.69,4,8.75,8.75,0,0,1-.06,1.14,1.81,1.81,0,0,1-.22.7.84.84,0,0,1-.43.36,2,2,0,0,1-.69.1h-12a5.84,5.84,0,0,0,1.58,3.77,4.7,4.7,0,0,0,3.3,1.17,5.9,5.9,0,0,0,1.86-.26,9.32,9.32,0,0,0,1.39-.58l1.12-.58a2.33,2.33,0,0,1,1.07-.26,1.28,1.28,0,0,1,1.12.54l1.8,2.22a9.22,9.22,0,0,1-2.07,1.79,10.75,10.75,0,0,1-2.28,1.08,12.35,12.35,0,0,1-2.34.54,17.64,17.64,0,0,1-2.23.15,11.66,11.66,0,0,1-4.09-.71,9.4,9.4,0,0,1-3.34-2.11,10,10,0,0,1-2.26-3.48,13,13,0,0,1-.83-4.84,10.94,10.94,0,0,1,.71-3.94,9.58,9.58,0,0,1,5.26-5.48A10.64,10.64,0,0,1,199,137.75Zm.12,4.28a3.73,3.73,0,0,0-2.78,1,5.25,5.25,0,0,0-1.32,2.91h7.74a5.46,5.46,0,0,0-.19-1.44,3.5,3.5,0,0,0-.62-1.25,3.17,3.17,0,0,0-1.13-.89A3.86,3.86,0,0,0,199.08,142Z" transform="translate(-2.4)"/><path class="b663612e-a9ef-4e11-abf6-cdf946a01612" d="M219.12,159.13a7.3,7.3,0,0,1-2.61-.43,5,5,0,0,1-3.07-3.13,7.39,7.39,0,0,1-.4-2.5V142.35h-1.76a1.12,1.12,0,0,1-1.16-1.22v-2.42l3.3-.64,1.22-5.06a1.23,1.23,0,0,1,1.36-1h3.24v6.06h5v4.24h-5v10.3a1.94,1.94,0,0,0,.35,1.19,1.18,1.18,0,0,0,1,.47,2,2,0,0,0,.57-.07,2.19,2.19,0,0,0,.4-.16l.32-.16a.82.82,0,0,1,.35-.07.72.72,0,0,1,.45.13,1.6,1.6,0,0,1,.35.41l1.88,2.94a8.55,8.55,0,0,1-2.7,1.35A10.74,10.74,0,0,1,219.12,159.13Z" transform="translate(-2.4)"/><path class="b663612e-a9ef-4e11-abf6-cdf946a01612" d="M257.28,129.67l-.68,5.16h-7.4l-3,24h-6.48l2.92-24h-7.44l.64-5.16Z" transform="translate(-2.4)"/><path class="b663612e-a9ef-4e11-abf6-cdf946a01612" d="M269.18,158.81h-3.32a2.7,2.7,0,0,1-1-.15,1.55,1.55,0,0,1-.62-.41,1.45,1.45,0,0,1-.32-.62,3.23,3.23,0,0,1-.09-.78v-1.48a10.67,10.67,0,0,1-2.84,2.76,6.24,6.24,0,0,1-3.44,1,5.39,5.39,0,0,1-2.16-.45,5.16,5.16,0,0,1-1.84-1.36A6.78,6.78,0,0,1,252.3,155a10.38,10.38,0,0,1-.48-3.33,14,14,0,0,1,1-5.35,13.67,13.67,0,0,1,2.88-4.43,13.86,13.86,0,0,1,4.39-3,13.69,13.69,0,0,1,5.58-1.12,23.08,23.08,0,0,1,3,.2,14.94,14.94,0,0,1,3,.72Zm-9.12-4.58a2.1,2.1,0,0,0,1.32-.51,5.75,5.75,0,0,0,1.21-1.39,12.26,12.26,0,0,0,1.05-2.06,19.33,19.33,0,0,0,.82-2.52l.72-5.74h-.36a5.71,5.71,0,0,0-2.77.68,6.77,6.77,0,0,0-2.15,1.85,8.72,8.72,0,0,0-1.39,2.72,10.93,10.93,0,0,0-.49,3.31,7.7,7.7,0,0,0,.16,1.7,3.67,3.67,0,0,0,.43,1.13,1.73,1.73,0,0,0,.64.63A1.67,1.67,0,0,0,260.06,154.23Z" transform="translate(-2.4)"/><path class="b663612e-a9ef-4e11-abf6-cdf946a01612" d="M290.42,144.27a6,6,0,0,1-.35,2.18,16.69,16.69,0,0,1-.77,1.7q-.42.8-.77,1.64a5.12,5.12,0,0,0-.35,2,4.11,4.11,0,0,0,.27,1.51q.27.69.59,1.41t.59,1.52a5.76,5.76,0,0,1,.27,1.84,6.8,6.8,0,0,1-.7,3,7.38,7.38,0,0,1-2,2.5,10.06,10.06,0,0,1-3.25,1.7,14.13,14.13,0,0,1-4.39.63,14.28,14.28,0,0,1-3.62-.42,9.29,9.29,0,0,1-2.71-1.14,5.38,5.38,0,0,1-1.71-1.71,4,4,0,0,1-.6-2.13,4.7,4.7,0,0,1,.89-2.93,6.56,6.56,0,0,1,2.29-1.88,10.87,10.87,0,0,1,3.1-1,19.81,19.81,0,0,1,3.32-.29q.92,0,1.75.08a15.3,15.3,0,0,1,1.53.22,3,3,0,0,1,0-.49v-.53a6.67,6.67,0,0,1,.54-2.42,6.59,6.59,0,0,1-1.79.82,8.94,8.94,0,0,1-2.51.3,6.6,6.6,0,0,1-2.26-.39,5.34,5.34,0,0,1-1.91-1.19,5.84,5.84,0,0,1-1.33-2,7.48,7.48,0,0,1-.5-2.87,8,8,0,0,1,.59-3,7.64,7.64,0,0,1,1.76-2.62,8.78,8.78,0,0,1,2.9-1.85,10.71,10.71,0,0,1,4-.7,9.42,9.42,0,0,1,2.27.27,7.53,7.53,0,0,1,2,.81h6l-.28,1.94a1.72,1.72,0,0,1-1.16,1.54l-1.76.6A7.59,7.59,0,0,1,290.42,144.27Zm-6.16,14.26v-.24a1.11,1.11,0,0,0,0-.22q-1-.16-1.87-.24t-1.55-.08a9.24,9.24,0,0,0-1.85.16,4.56,4.56,0,0,0-1.26.43,1.82,1.82,0,0,0-.71.64,1.49,1.49,0,0,0-.22.77,1.75,1.75,0,0,0,.75,1.54,4.62,4.62,0,0,0,2.53.52,5.76,5.76,0,0,0,1.7-.24,4.09,4.09,0,0,0,1.33-.67,3.12,3.12,0,0,0,.86-1A2.87,2.87,0,0,0,284.26,158.53Zm-2.48-9.74a2.21,2.21,0,0,0,1.29-.38,3.21,3.21,0,0,0,.92-1,4.93,4.93,0,0,0,.56-1.37,6.36,6.36,0,0,0,.19-1.54,3.31,3.31,0,0,0-.54-2,1.94,1.94,0,0,0-1.66-.72,2.36,2.36,0,0,0-1.29.35,2.89,2.89,0,0,0-.91.93,4.45,4.45,0,0,0-.54,1.34,6.83,6.83,0,0,0-.18,1.58,3.49,3.49,0,0,0,.54,2.07A1.87,1.87,0,0,0,281.78,148.79Z" transform="translate(-2.4)"/><path class="b663612e-a9ef-4e11-abf6-cdf946a01612" d="M310.58,144.27a6,6,0,0,1-.35,2.18,16.69,16.69,0,0,1-.77,1.7q-.42.8-.77,1.64a5.12,5.12,0,0,0-.35,2,4.11,4.11,0,0,0,.27,1.51q.27.69.59,1.41t.59,1.52a5.76,5.76,0,0,1,.27,1.84,6.8,6.8,0,0,1-.7,3,7.38,7.38,0,0,1-2,2.5,10.06,10.06,0,0,1-3.25,1.7,14.13,14.13,0,0,1-4.39.63,14.28,14.28,0,0,1-3.62-.42,9.29,9.29,0,0,1-2.71-1.14,5.38,5.38,0,0,1-1.71-1.71,4,4,0,0,1-.6-2.13,4.7,4.7,0,0,1,.89-2.93,6.56,6.56,0,0,1,2.29-1.88,10.87,10.87,0,0,1,3.1-1,19.81,19.81,0,0,1,3.32-.29q.92,0,1.75.08a15.3,15.3,0,0,1,1.53.22,3,3,0,0,1,0-.49v-.53a6.67,6.67,0,0,1,.54-2.42,6.59,6.59,0,0,1-1.79.82,8.94,8.94,0,0,1-2.51.3,6.6,6.6,0,0,1-2.26-.39,5.34,5.34,0,0,1-1.91-1.19,5.84,5.84,0,0,1-1.33-2,7.48,7.48,0,0,1-.5-2.87,8,8,0,0,1,.59-3,7.64,7.64,0,0,1,1.76-2.62,8.78,8.78,0,0,1,2.9-1.85,10.71,10.71,0,0,1,4-.7,9.42,9.42,0,0,1,2.27.27,7.53,7.53,0,0,1,2,.81h6l-.28,1.94a1.72,1.72,0,0,1-1.16,1.54l-1.76.6A7.59,7.59,0,0,1,310.58,144.27Zm-6.16,14.26v-.24a1.11,1.11,0,0,0,0-.22q-1-.16-1.87-.24t-1.55-.08a9.24,9.24,0,0,0-1.85.16,4.56,4.56,0,0,0-1.26.43,1.82,1.82,0,0,0-.71.64,1.49,1.49,0,0,0-.22.77,1.75,1.75,0,0,0,.75,1.54,4.62,4.62,0,0,0,2.53.52,5.76,5.76,0,0,0,1.7-.24,4.09,4.09,0,0,0,1.33-.67,3.12,3.12,0,0,0,.86-1A2.87,2.87,0,0,0,304.42,158.53Zm-2.48-9.74a2.21,2.21,0,0,0,1.29-.38,3.21,3.21,0,0,0,.92-1,4.93,4.93,0,0,0,.56-1.37,6.36,6.36,0,0,0,.19-1.54,3.31,3.31,0,0,0-.54-2,1.94,1.94,0,0,0-1.66-.72,2.36,2.36,0,0,0-1.29.35,2.89,2.89,0,0,0-.91.93,4.45,4.45,0,0,0-.54,1.34,6.83,6.83,0,0,0-.18,1.58,3.49,3.49,0,0,0,.54,2.07A1.87,1.87,0,0,0,301.94,148.79Z" transform="translate(-2.4)"/><path class="b663612e-a9ef-4e11-abf6-cdf946a01612" d="M331.74,143.17a6,6,0,0,1-.56,2.6,5.24,5.24,0,0,1-2,2.09,13.18,13.18,0,0,1-3.74,1.55,37.08,37.08,0,0,1-5.91,1,4.65,4.65,0,0,0,.93,3.1,3.37,3.37,0,0,0,2.63,1,6.29,6.29,0,0,0,1.42-.14,4.87,4.87,0,0,0,1-.36,6.93,6.93,0,0,0,.81-.46l.69-.46a3.57,3.57,0,0,1,.69-.36,2.24,2.24,0,0,1,.82-.14,1.21,1.21,0,0,1,.58.15,1.88,1.88,0,0,1,.5.39l1.6,1.86a21.8,21.8,0,0,1-2.15,1.87,11.74,11.74,0,0,1-2.16,1.3,10.27,10.27,0,0,1-2.36.75,14.49,14.49,0,0,1-2.73.24,8.84,8.84,0,0,1-3.38-.63,7.68,7.68,0,0,1-2.65-1.78,8,8,0,0,1-1.72-2.77,10.15,10.15,0,0,1-.61-3.6,14.15,14.15,0,0,1,.37-3.24,13.64,13.64,0,0,1,1.06-3,12.43,12.43,0,0,1,1.69-2.56,11.08,11.08,0,0,1,2.25-2,10.61,10.61,0,0,1,2.74-1.31,10.48,10.48,0,0,1,3.17-.47,8.41,8.41,0,0,1,3,.48,6.94,6.94,0,0,1,2.17,1.25,5.39,5.39,0,0,1,1.34,1.73A4.41,4.41,0,0,1,331.74,143.17Zm-7.28-1.2a3.61,3.61,0,0,0-2.7,1.23,7.79,7.79,0,0,0-1.74,3.37,29.15,29.15,0,0,0,3.14-.63,7.83,7.83,0,0,0,1.86-.72,2.23,2.23,0,0,0,.89-.84,2.11,2.11,0,0,0,.23-1,1.47,1.47,0,0,0-.4-1A1.61,1.61,0,0,0,324.46,142Z" transform="translate(-2.4)"/><path class="b663612e-a9ef-4e11-abf6-cdf946a01612" d="M347.38,158.81a2.7,2.7,0,0,1-1-.15,1.56,1.56,0,0,1-.62-.41,1.46,1.46,0,0,1-.32-.62,3.23,3.23,0,0,1-.09-.78v-1.74a11.73,11.73,0,0,1-3.14,3,6.81,6.81,0,0,1-3.66,1.07,5.93,5.93,0,0,1-2.34-.45,4.66,4.66,0,0,1-1.83-1.41,7,7,0,0,1-1.2-2.45,13,13,0,0,1-.43-3.57,16.11,16.11,0,0,1,.38-3.51,16.33,16.33,0,0,1,1.06-3.21,14.55,14.55,0,0,1,1.62-2.75,11.51,11.51,0,0,1,2.07-2.14,9.54,9.54,0,0,1,2.39-1.39,7,7,0,0,1,2.6-.5,5.94,5.94,0,0,1,2.31.43,6.36,6.36,0,0,1,1.81,1.13l1.32-10.44h6.08l-3.72,29.94Zm-6.32-4.4a2.34,2.34,0,0,0,1.33-.48,6.24,6.24,0,0,0,1.34-1.32,11.79,11.79,0,0,0,1.21-2,16.3,16.3,0,0,0,1-2.43l.64-5a3.64,3.64,0,0,0-1.29-.66,5,5,0,0,0-1.35-.2,3.14,3.14,0,0,0-2,.72,6.34,6.34,0,0,0-1.57,1.89,10.54,10.54,0,0,0-1,2.67,12.71,12.71,0,0,0-.37,3.06,5.41,5.41,0,0,0,.58,2.87A1.76,1.76,0,0,0,341.06,154.41Z" transform="translate(-2.4)"/><path class="b663612e-a9ef-4e11-abf6-cdf946a01612" d="M358.12,155.67a3.33,3.33,0,0,1,.27-1.34,3.39,3.39,0,0,1,.74-1.08,3.53,3.53,0,0,1,1.11-.73,3.57,3.57,0,0,1,1.4-.27,3.53,3.53,0,0,1,1.38.27,3.65,3.65,0,0,1,1.12.73,3.31,3.31,0,0,1,1,2.42,3.38,3.38,0,0,1-.27,1.35,3.27,3.27,0,0,1-.75,1.09,3.5,3.5,0,0,1-1.12.72,3.63,3.63,0,0,1-1.38.26,3.67,3.67,0,0,1-1.4-.26,3.37,3.37,0,0,1-2.12-3.16Zm6.48-26v11.44a30.26,30.26,0,0,1-.22,3.65q-.22,1.81-.58,3.69h-4.2q-.36-1.88-.58-3.69a30.06,30.06,0,0,1-.22-3.65V129.67Z" transform="translate(-2.4)"/></g></g></g></g></svg>