<svg id="8a34b5f2-cded-4e64-9c32-6a309fc43852" data-name="Layer 1" xmlns="http://www.w3.org/2000/svg" viewBox="0 0 512 512"><defs><style>.ddcf1276-447a-49c4-bb0d-cbd9366348f5{fill:#0277bd;}.\33 3dd72f9-4325-4018-ae03-c5c3ebdd39c9{fill:#0288d1;}.\31 3479258-a8ee-48b0-8b8b-f6c7fed2dc9b{fill:#039be5;}.\33 14ce1c8-b4a0-484c-ba55-307297579d31{fill:#00acc1;}.\36 4dcc612-c677-450e-bc4f-19d5d1e4b4a7{fill:#0097a7;}.\38 6491759-c88f-40d0-a391-4a0ddc82a29c{fill:#00838f;}.c83d5ac5-50af-45a4-b452-5e48d7dee19a{fill:#006064;}.\36 750fc42-1572-47f1-8cfe-ddc86cbe64e1{fill:#01579b;}.e05844ef-fdce-474e-92f8-d366e94251cc{fill:none;}.\35 61614b4-d329-47d8-9a54-6f9a1e625f8b{fill:#42a5f5;}.a8e21e64-89a6-48a8-ad8f-23fd30ea57b6{fill:#1e88e5;}.\33 1805c61-75dc-49ca-9744-eeb727d6acb5{fill:#1976d2;}.\38 e8e242b-98cd-485b-b89e-48195ca24b55{fill:#1565c0;}.e8a25205-35f6-42e7-be9a-427c93f0d37a{fill:#0d47a1;}.\32 a20fa93-574e-42a6-8f53-49a7c3f1c13c{fill:#82b1ff;}.\36 c00f1be-5076-47be-b4a0-dd6ec5f5dae5{fill:#448aff;}.cea7cbe4-340d-4741-9dfb-8fada1f35485{fill:#2979ff;}.d9616f28-8b7c-4787-bbba-e26b0f1c35bc{fill:#2962ff;}.\38 7f0c289-8adc-411c-9f42-e8619d59723c{fill:#03a9f4;}.\39 a76d963-4d92-4e22-9059-01e1e4e91c09{fill:#80d8ff;}.\33 efcc38f-e87b-44af-b65b-e05914eca670{fill:#40c4ff;}.\39 03344ff-dff2-4067-9630-3ca418cb6eee{fill:#0091ea;}</style></defs><title>Artboard 1</title><path class="ddcf1276-447a-49c4-bb0d-cbd9366348f5" d="M206.92,251.64a6.16,6.16,0,0,0-4.36-1.81H153.22l-.52,0a14.35,14.35,0,1,0,0,12.29l.52,0h35.15v1.58a4.46,4.46,0,0,0,4.45,4.45h8.89a4.46,4.46,0,0,0,4.45-4.45V261a6.14,6.14,0,0,0,.77-9.36Zm-67,11.67a7.32,7.32,0,1,1,7.32-7.32A7.32,7.32,0,0,1,139.95,263.32Z"/><path class="33dd72f9-4325-4018-ae03-c5c3ebdd39c9" d="M184.13,205.51a6.16,6.16,0,0,0-4.36,1.8L144.88,242.2c-.12.12-.24.25-.35.39a14.35,14.35,0,1,0,8.69,8.69c.13-.11.26-.23.39-.35l24.85-24.85,1.12,1.12a4.46,4.46,0,0,0,6.29,0l6.29-6.29a4.46,4.46,0,0,0,0-6.29l-1.94-1.94a6.14,6.14,0,0,0-6.07-7.17ZM145,261.12a7.32,7.32,0,1,1,0-10.35A7.32,7.32,0,0,1,145,261.12Z"/><path class="13479258-a8ee-48b0-8b8b-f6c7fed2dc9b" d="M135.23,188.81a6.16,6.16,0,0,0-1.81,4.36v49.35c0,.18,0,.35,0,.52a14.35,14.35,0,1,0,12.29,0c0-.17,0-.34,0-.52V207.37h1.58a4.46,4.46,0,0,0,4.45-4.45V194a4.46,4.46,0,0,0-4.45-4.45h-2.74a6.14,6.14,0,0,0-9.36-.77Zm11.67,67a7.32,7.32,0,1,1-7.32-7.32A7.32,7.32,0,0,1,146.91,255.78Z"/><path class="314ce1c8-b4a0-484c-ba55-307297579d31" d="M89.1,211.6A6.16,6.16,0,0,0,90.9,216l34.89,34.89c.12.12.25.24.39.35a14.35,14.35,0,1,0,8.69-8.69c-.11-.13-.23-.26-.35-.39l-24.85-24.85,1.12-1.12a4.46,4.46,0,0,0,0-6.29l-6.29-6.29a4.46,4.46,0,0,0-6.29,0l-1.94,1.94a6.14,6.14,0,0,0-7.17,6.07Zm55.61,39.1a7.32,7.32,0,1,1-10.35,0A7.32,7.32,0,0,1,144.71,250.7Z"/><path class="64dcc612-c677-450e-bc4f-19d5d1e4b4a7" d="M72.4,260.36a6.16,6.16,0,0,0,4.36,1.81h49.35l.52,0a14.35,14.35,0,1,0,0-12.29l-.52,0H91v-1.58a4.46,4.46,0,0,0-4.45-4.45H77.62a4.46,4.46,0,0,0-4.45,4.45V251a6.14,6.14,0,0,0-.77,9.36Zm67-11.67a7.32,7.32,0,1,1-7.32,7.32A7.32,7.32,0,0,1,139.38,248.68Z"/><path class="86491759-c88f-40d0-a391-4a0ddc82a29c" d="M95.19,306.49a6.16,6.16,0,0,0,4.36-1.8l34.89-34.89c.12-.12.24-.25.35-.39a14.35,14.35,0,1,0-8.69-8.69c-.13.11-.26.23-.39.35l-24.85,24.85-1.12-1.12a4.46,4.46,0,0,0-6.29,0l-6.29,6.29a4.46,4.46,0,0,0,0,6.29l1.94,1.94a6.14,6.14,0,0,0,6.07,7.17Zm39.1-55.61a7.32,7.32,0,1,1,0,10.35A7.32,7.32,0,0,1,134.29,250.88Z"/><path class="c83d5ac5-50af-45a4-b452-5e48d7dee19a" d="M143.95,323.19a6.16,6.16,0,0,0,1.81-4.36V269.48c0-.18,0-.35,0-.52a14.35,14.35,0,1,0-12.29,0c0,.17,0,.34,0,.52v35.15h-1.58a4.46,4.46,0,0,0-4.45,4.45V318a4.46,4.46,0,0,0,4.45,4.45h2.74a6.14,6.14,0,0,0,9.36.77Zm-11.67-67a7.32,7.32,0,1,1,7.32,7.32A7.32,7.32,0,0,1,132.27,256.22Z"/><path class="6750fc42-1572-47f1-8cfe-ddc86cbe64e1" d="M190.08,300.4a6.16,6.16,0,0,0-1.8-4.36l-34.89-34.89c-.12-.12-.25-.24-.39-.35a14.35,14.35,0,1,0-8.69,8.69c.11.13.23.26.35.39l24.85,24.85-1.12,1.12a4.46,4.46,0,0,0,0,6.29l6.29,6.29a4.46,4.46,0,0,0,6.29,0l1.94-1.94a6.14,6.14,0,0,0,7.17-6.07Zm-55.61-39.1a7.32,7.32,0,1,1,10.35,0A7.32,7.32,0,0,1,134.47,261.3Z"/><path class="e05844ef-fdce-474e-92f8-d366e94251cc" d="M430.65,221.88a5.51,5.51,0,0,0-4.82-2.3q-6.52,0-6.53,9.4a19.81,19.81,0,0,0,.25,3.26h0a12.47,12.47,0,0,0,.3,1.33l0,.13a9.11,9.11,0,0,0,.42,1.13l.06.13a6.15,6.15,0,0,0,1.2,1.75l.12.12a5,5,0,0,0,.76.6l.09.05a5.18,5.18,0,0,0,.82.4l.14.06a6.07,6.07,0,0,0,1,.25l.22,0a7.79,7.79,0,0,0,1.11.08,5.57,5.57,0,0,0,4.89-2.26,6.16,6.16,0,0,0,.42-.7l.11-.24c.09-.18.17-.38.25-.58l.1-.29c.07-.21.14-.44.2-.67l.07-.28c.08-.33.15-.67.21-1h0a21.12,21.12,0,0,0,.23-3.26Q432.27,224.18,430.65,221.88Z"/><path class="e05844ef-fdce-474e-92f8-d366e94251cc" d="M391.29,219.54h-1.71v7.34h1.63q4.55,0,4.55-4Q395.75,219.54,391.29,219.54Z"/><path class="e05844ef-fdce-474e-92f8-d366e94251cc" d="M291.58,226.68q-.48-1.76-1.18-4.55t-.91-4q-.2,1.12-.78,3.69T286.13,232H293Z"/><path class="561614b4-d329-47d8-9a54-6f9a1e625f8b" d="M221.74,234.92l.05.1Z"/><path class="561614b4-d329-47d8-9a54-6f9a1e625f8b" d="M221.24,233.59l.06.19Z"/><path class="561614b4-d329-47d8-9a54-6f9a1e625f8b" d="M212.14,233.58c-.07-.43-.14-.88-.19-1.33Q212,232.93,212.14,233.58Z"/><path class="561614b4-d329-47d8-9a54-6f9a1e625f8b" d="M213.11,237.15a18.16,18.16,0,0,1-.94-3.43A18,18,0,0,0,213.11,237.15Z"/><path class="561614b4-d329-47d8-9a54-6f9a1e625f8b" d="M220.93,232.25a18.39,18.39,0,0,1-.24-3.09,12.26,12.26,0,0,1,1.74-7,5.54,5.54,0,0,1,4.83-2.54,12.44,12.44,0,0,1,3.82.57,29.89,29.89,0,0,1,3.56,1.41l2.66-6.83a22.85,22.85,0,0,0-10-2.26,16.32,16.32,0,0,0-8.29,2,13.43,13.43,0,0,0-5.41,5.81,19.45,19.45,0,0,0-1.88,8.77,28,28,0,0,0,.18,3.13h9Z"/><path class="561614b4-d329-47d8-9a54-6f9a1e625f8b" d="M223.24,236.95l-.14-.13Z"/><path class="561614b4-d329-47d8-9a54-6f9a1e625f8b" d="M225.06,238l.17.06Z"/><path class="561614b4-d329-47d8-9a54-6f9a1e625f8b" d="M224.07,237.55l.07,0Z"/><path class="561614b4-d329-47d8-9a54-6f9a1e625f8b" d="M222.41,236l-.06-.09Z"/><path class="561614b4-d329-47d8-9a54-6f9a1e625f8b" d="M213.52,238.09c-.11-.23-.22-.45-.32-.69C213.3,237.64,213.41,237.87,213.52,238.09Z"/><path class="561614b4-d329-47d8-9a54-6f9a1e625f8b" d="M214.83,240.31l-.27-.4Z"/><path class="561614b4-d329-47d8-9a54-6f9a1e625f8b" d="M214.12,239.23c-.11-.18-.21-.36-.31-.54Q214,239,214.12,239.23Z"/><path class="561614b4-d329-47d8-9a54-6f9a1e625f8b" d="M226.29,238.32l.23,0Z"/><polygon class="a8e21e64-89a6-48a8-ad8f-23fd30ea57b6" points="260.97 224.88 250.88 224.88 250.88 212.97 242.16 212.97 242.16 232.25 250.88 232.25 250.88 232 260.97 232 260.97 232.25 269.69 232.25 269.69 212.97 260.97 212.97 260.97 224.88"/><path class="31805c61-75dc-49ca-9744-eeb727d6acb5" d="M301.61,232.25l-6.39-19.41H283.65L273.16,245.1l4.17-12.85Zm-12.9-10.42q.58-2.57.78-3.69.22,1.21.91,4t1.18,4.55L293,232h-6.83Q288.13,224.4,288.71,221.83Z"/><path class="8e8e242b-98cd-485b-b89e-48195ca24b55" d="M320.68,232.25c-.2-.9-.44-1.89-.71-3L315.59,213h-9.76l10.48,32.12-4.19-12.85Z"/><path class="8e8e242b-98cd-485b-b89e-48195ca24b55" d="M320.68,232.25q.34,1.52.53,2.66C321.09,234.15,320.91,233.26,320.68,232.25Z"/><path class="8e8e242b-98cd-485b-b89e-48195ca24b55" d="M321.38,236c0,.28.06.54.08.77C321.45,236.59,321.42,236.32,321.38,236Z"/><path class="8e8e242b-98cd-485b-b89e-48195ca24b55" d="M321.23,235c.05.32.1.61.13.88C321.32,235.58,321.28,235.29,321.23,235Z"/><path class="8e8e242b-98cd-485b-b89e-48195ca24b55" d="M322.89,229.34c-.2.73-.42,1.71-.67,2.91h8.52l-4.21,12.85L337.06,213h-9.71Z"/><polygon class="e8a25205-35f6-42e7-be9a-427c93f0d37a" points="340.53 232.25 349.21 232.25 349.21 231.96 358.84 231.96 358.84 224.99 349.21 224.99 349.21 219.94 359.6 219.94 359.6 212.97 340.53 212.97 340.53 232.25"/><rect class="2a20fa93-574e-42a6-8f53-49a7c3f1c13c" x="365.23" y="212.97" width="8.72" height="19.28"/><path class="6c00f1be-5076-47be-b4a0-dd6ec5f5dae5" d="M399.07,231.1q5.45-3.05,5.45-8.63,0-9.49-13.1-9.49H380.9v19.28h18.94Zm-7.87-4.22h-1.63v-7.34h1.71q4.46,0,4.46,3.32Q395.75,226.88,391.2,226.88Z"/><path class="cea7cbe4-340d-4741-9dfb-8fada1f35485" d="M424.68,238.22l-.22,0Z"/><path class="cea7cbe4-340d-4741-9dfb-8fada1f35485" d="M423.49,237.94l-.14-.06Z"/><path class="cea7cbe4-340d-4741-9dfb-8fada1f35485" d="M421.68,236.84l-.12-.12Z"/><path class="cea7cbe4-340d-4741-9dfb-8fada1f35485" d="M422.53,237.49l-.09-.05Z"/><path class="cea7cbe4-340d-4741-9dfb-8fada1f35485" d="M431.21,235.1l-.11.24Z"/><path class="cea7cbe4-340d-4741-9dfb-8fada1f35485" d="M420.36,235l-.06-.13Z"/><path class="cea7cbe4-340d-4741-9dfb-8fada1f35485" d="M419.89,233.71l0-.13Z"/><path class="cea7cbe4-340d-4741-9dfb-8fada1f35485" d="M438.27,240.31l.28-.39Z"/><path class="cea7cbe4-340d-4741-9dfb-8fada1f35485" d="M441.22,232.25c-.05.44-.12.87-.19,1.29C441.1,233.12,441.16,232.69,441.22,232.25Z"/><path class="cea7cbe4-340d-4741-9dfb-8fada1f35485" d="M410.55,233.5c-.07-.41-.14-.82-.19-1.25C410.42,232.68,410.48,233.1,410.55,233.5Z"/><path class="cea7cbe4-340d-4741-9dfb-8fada1f35485" d="M410.85,234.9c-.09-.37-.17-.75-.25-1.13C410.67,234.15,410.75,234.53,410.85,234.9Z"/><path class="cea7cbe4-340d-4741-9dfb-8fada1f35485" d="M440.69,235.1a16.89,16.89,0,0,1-.66,2A16.82,16.82,0,0,0,440.69,235.1Z"/><path class="cea7cbe4-340d-4741-9dfb-8fada1f35485" d="M419.3,229q0-9.4,6.53-9.4a5.51,5.51,0,0,1,4.82,2.3q1.62,2.3,1.62,7.11a21.12,21.12,0,0,1-.23,3.26h9.18a28.07,28.07,0,0,0,.19-3.26q0-8.13-4-12.33t-11.62-4.2q-7.65,0-11.66,4.23t-4,12.25a27.69,27.69,0,0,0,.2,3.31h9.19A19.81,19.81,0,0,1,419.3,229Z"/><path class="cea7cbe4-340d-4741-9dfb-8fada1f35485" d="M439.93,237.41c-.1.23-.2.44-.31.66C439.73,237.85,439.83,237.64,439.93,237.41Z"/><path class="cea7cbe4-340d-4741-9dfb-8fada1f35485" d="M441,233.76c-.07.4-.16.79-.25,1.17C440.83,234.55,440.91,234.16,441,233.76Z"/><path class="cea7cbe4-340d-4741-9dfb-8fada1f35485" d="M439.31,238.69c-.1.18-.2.36-.31.53Z"/><path class="cea7cbe4-340d-4741-9dfb-8fada1f35485" d="M412.6,239.19c-.1-.17-.21-.34-.3-.52Z"/><path class="cea7cbe4-340d-4741-9dfb-8fada1f35485" d="M431.83,233.29l-.07.28Z"/><path class="cea7cbe4-340d-4741-9dfb-8fada1f35485" d="M431.56,234.23l-.1.29Z"/><path class="cea7cbe4-340d-4741-9dfb-8fada1f35485" d="M413.34,240.28l-.28-.39Z"/><path class="cea7cbe4-340d-4741-9dfb-8fada1f35485" d="M412,238c-.1-.21-.21-.42-.3-.65C411.76,237.61,411.87,237.82,412,238Z"/><path class="cea7cbe4-340d-4741-9dfb-8fada1f35485" d="M411.56,237.1a16.76,16.76,0,0,1-.64-2A16.69,16.69,0,0,0,411.56,237.1Z"/><path class="314ce1c8-b4a0-484c-ba55-307297579d31" d="M221.79,235l-.05-.1a8.78,8.78,0,0,1-.44-1.14l-.06-.19a11.86,11.86,0,0,1-.31-1.34h-9c.05.45.11.9.19,1.33l0,.14a18.16,18.16,0,0,0,.94,3.43l.1.26c.1.24.21.46.32.69s.19.4.29.59.2.37.31.54.29.46.44.69l.27.4a12.11,12.11,0,0,0,.82,1q3.88,4.22,11.15,4.22a22.25,22.25,0,0,0,9.1-1.78v-7.34a41.33,41.33,0,0,1-4,1.43,14.45,14.45,0,0,1-4.13.59,9.23,9.23,0,0,1-1.23-.09l-.23,0a7.09,7.09,0,0,1-1.06-.25l-.17-.06a5.86,5.86,0,0,1-.91-.41l-.07,0a5.42,5.42,0,0,1-.83-.61l-.14-.13a5.73,5.73,0,0,1-.7-.78l-.06-.09A6.81,6.81,0,0,1,221.79,235Z"/><rect class="314ce1c8-b4a0-484c-ba55-307297579d31" x="260.97" y="232.25" width="8.72" height="12.85"/><rect class="314ce1c8-b4a0-484c-ba55-307297579d31" x="242.16" y="232.25" width="8.72" height="12.85"/><polygon class="314ce1c8-b4a0-484c-ba55-307297579d31" points="301.61 232.25 277.34 232.25 273.16 245.09 282.7 245.09 284.33 239.07 294.76 239.07 296.35 245.09 305.84 245.09 301.61 232.25 301.61 232.25"/><path class="314ce1c8-b4a0-484c-ba55-307297579d31" d="M322.22,232.25h0l-.15.72q-.46,2.31-.62,3.84c0-.22,0-.49-.08-.77l0-.2c0-.27-.08-.56-.13-.88v-.07q-.2-1.14-.53-2.66h-8.55l4.19,12.85h10.22l4.21-12.85Z"/><polygon class="314ce1c8-b4a0-484c-ba55-307297579d31" points="340.53 245.09 359.6 245.09 359.6 238.02 349.21 238.02 349.21 232.25 340.53 232.25 340.53 245.09"/><rect class="314ce1c8-b4a0-484c-ba55-307297579d31" x="365.23" y="232.25" width="8.72" height="12.85"/><polygon class="314ce1c8-b4a0-484c-ba55-307297579d31" points="399.84 232.25 380.9 232.25 380.9 245.09 389.57 245.09 389.57 233.41 391.77 233.41 398.58 245.09 408.43 245.09 399.84 232.25 399.84 232.25"/><path class="314ce1c8-b4a0-484c-ba55-307297579d31" d="M439,239.22c.11-.17.21-.35.31-.53s.21-.41.31-.62.21-.44.31-.66l.1-.27a16.89,16.89,0,0,0,.66-2l0-.16c.09-.38.18-.77.25-1.17l0-.22c.07-.42.14-.85.19-1.29H432c-.06.36-.13.71-.21,1l-.07.28c-.06.23-.13.45-.2.67l-.1.29c-.08.2-.16.39-.25.58l-.11.24a6.16,6.16,0,0,1-.42.7,5.57,5.57,0,0,1-4.89,2.26,7.79,7.79,0,0,1-1.11-.08l-.22,0a6.07,6.07,0,0,1-1-.25l-.14-.06a5.18,5.18,0,0,1-.82-.4l-.09-.05a5,5,0,0,1-.76-.6l-.12-.12a6.15,6.15,0,0,1-1.2-1.75l-.06-.13a9.11,9.11,0,0,1-.42-1.13l0-.13a12.47,12.47,0,0,1-.3-1.33h-9.19c.05.43.12.84.19,1.25l0,.26c.07.39.15.77.25,1.13l.07.24a16.76,16.76,0,0,0,.64,2c0,.1.07.2.11.29s.2.43.3.65.21.43.32.64.2.35.3.52.3.48.47.71l.28.39a12.18,12.18,0,0,0,.85,1q4,4.24,11.59,4.24t11.64-4.22a12,12,0,0,0,.84-1l.28-.39C438.7,239.69,438.86,239.46,439,239.22Z"/><path class="e05844ef-fdce-474e-92f8-d366e94251cc" d="M292.76,292q4,0,5.8-2.3a9.3,9.3,0,0,0,1.74-4.93h0q.05-.49.08-1c0-.35,0-.71,0-1.08q0-4.42-1.75-6.55a6.46,6.46,0,0,0-5.31-2.13h-2.53v18Z"/><path class="e05844ef-fdce-474e-92f8-d366e94251cc" d="M329.61,292.31A5.57,5.57,0,0,0,334.5,290a10.54,10.54,0,0,0,1.53-5.29q0-.4,0-.82c0-.31,0-.62,0-.94q0-4.81-1.62-7.11a5.51,5.51,0,0,0-4.82-2.3q-6.52,0-6.53,9.41c0,.32,0,.63,0,.93s0,.56,0,.83Q323.78,292.3,329.61,292.31Z"/><path class="e05844ef-fdce-474e-92f8-d366e94251cc" d="M246.42,273.54h-1.71v7.34h1.63q4.55,0,4.55-4Q250.88,273.54,246.42,273.54Z"/><polygon class="d9616f28-8b7c-4787-bbba-e26b0f1c35bc" points="211.77 299.1 220.32 299.1 220.32 287.03 229.94 287.03 229.94 284.75 211.77 284.75 211.77 299.1"/><path class="87f0c289-8adc-411c-9f42-e8619d59723c" d="M258.4,281.2a8.93,8.93,0,0,1-.62.9A8.92,8.92,0,0,0,258.4,281.2Z"/><path class="87f0c289-8adc-411c-9f42-e8619d59723c" d="M258.94,280.14a8.54,8.54,0,0,1-.44.87A8.56,8.56,0,0,0,258.94,280.14Z"/><path class="87f0c289-8adc-411c-9f42-e8619d59723c" d="M256.88,283.11a11.35,11.35,0,0,1-1,.85A11.28,11.28,0,0,0,256.88,283.11Z"/><path class="87f0c289-8adc-411c-9f42-e8619d59723c" d="M259.33,279c-.07.27-.17.53-.27.79C259.16,279.53,259.26,279.27,259.33,279Z"/><path class="87f0c289-8adc-411c-9f42-e8619d59723c" d="M259.57,277.78c0,.21-.08.42-.12.62C259.49,278.19,259.54,278,259.57,277.78Z"/><path class="87f0c289-8adc-411c-9f42-e8619d59723c" d="M257.72,282.19a9.86,9.86,0,0,1-.8.89A9.81,9.81,0,0,0,257.72,282.19Z"/><path class="87f0c289-8adc-411c-9f42-e8619d59723c" d="M255.9,284a13.5,13.5,0,0,1-1.14.79H236V299.1h8.68V287.41h2.2l6.81,11.69h9.84l-9.36-14A13.68,13.68,0,0,0,255.9,284Z"/><rect class="13479258-a8ee-48b0-8b8b-f6c7fed2dc9b" x="266.48" y="284.75" width="8.72" height="14.35"/><path class="9a76d963-4d92-4e22-9059-01e1e4e91c09" d="M300.41,282.66c0,.37,0,.73,0,1.08Q300.41,283.22,300.41,282.66Z"/><path class="9a76d963-4d92-4e22-9059-01e1e4e91c09" d="M300.31,284.75a9.3,9.3,0,0,1-1.74,4.93q-1.85,2.3-5.8,2.3h-1.93v-7.23h-8.68V299.1h10.39q8,0,12.45-4.35,4-3.94,4.37-10.9c0,.3,0,.61-.07.91Z"/><path class="3efcc38f-e87b-44af-b65b-e05914eca670" d="M336,284.75h0A10.54,10.54,0,0,1,334.5,290a5.57,5.57,0,0,1-4.89,2.26q-5.84,0-6.41-7.56H314q.41,6.79,4,10.54,4,4.24,11.59,4.24t11.64-4.22q4-4.22,4-12.33c0,.6,0,1.19-.06,1.76Z"/><path class="3efcc38f-e87b-44af-b65b-e05914eca670" d="M323.15,283.92c0-.3,0-.61,0-.93C323.13,283.31,323.14,283.62,323.15,283.92Z"/><path class="3efcc38f-e87b-44af-b65b-e05914eca670" d="M336.09,283c0,.32,0,.63,0,.94C336.09,283.63,336.09,283.31,336.09,283Z"/><path class="903344ff-dff2-4067-9630-3ca418cb6eee" d="M355.34,284.75c.67.37,1.39.74,2.22,1.12q3.47,1.56,4.27,2.07a4.21,4.21,0,0,1,1.16,1,1.89,1.89,0,0,1,.36,1.15,2.06,2.06,0,0,1-.9,1.72,4.78,4.78,0,0,1-2.83.67,19.22,19.22,0,0,1-4.92-.71,25.81,25.81,0,0,1-5.16-2v7.73a20,20,0,0,0,4.53,1.57,27.15,27.15,0,0,0,5.38.45,16.22,16.22,0,0,0,6.7-1.29,9.93,9.93,0,0,0,4.37-3.6,9.47,9.47,0,0,0,1.52-5.31,9.11,9.11,0,0,0-1.12-4.59Z"/><path class="903344ff-dff2-4067-9630-3ca418cb6eee" d="M353.91,283.89l-.34-.24Z"/><path class="903344ff-dff2-4067-9630-3ca418cb6eee" d="M355.34,284.75c-.39-.22-.75-.43-1.09-.64Q354.75,284.43,355.34,284.75Z"/><polygon class="314ce1c8-b4a0-484c-ba55-307297579d31" points="211.77 284.75 229.94 284.75 229.94 280.07 220.32 280.07 220.32 273.94 230.76 273.94 230.76 266.97 211.77 266.97 211.77 284.75"/><path class="314ce1c8-b4a0-484c-ba55-307297579d31" d="M255.9,284h0a11.35,11.35,0,0,0,1-.85l0,0a9.86,9.86,0,0,0,.8-.89l.07-.09a8.93,8.93,0,0,0,.62-.9l.1-.19a8.54,8.54,0,0,0,.44-.87c0-.11.08-.23.12-.35s.19-.52.27-.79.08-.4.12-.6.09-.41.12-.62a10.44,10.44,0,0,0,.08-1.31q0-9.49-13.1-9.49H236v17.78h18.73A13.5,13.5,0,0,0,255.9,284Zm-9.56-3.08h-1.63v-7.34h1.71q4.46,0,4.46,3.32Q250.88,280.88,246.34,280.88Z"/><rect class="314ce1c8-b4a0-484c-ba55-307297579d31" x="266.48" y="266.97" width="8.72" height="17.78"/><path class="314ce1c8-b4a0-484c-ba55-307297579d31" d="M305.21,270.93q-4.21-4-11.94-4H282.15v17.78h8.68V274h2.53a6.46,6.46,0,0,1,5.31,2.13q1.75,2.13,1.75,6.55,0,.56,0,1.08t-.08,1h9c0-.3,0-.6.07-.91,0-.49.05-1,.05-1.49Q309.42,274.88,305.21,270.93Z"/><path class="314ce1c8-b4a0-484c-ba55-307297579d31" d="M329.66,266.47q-7.65,0-11.66,4.23t-4,12.25c0,.62,0,1.22.06,1.81h9.15q0-.41,0-.83c0-.3,0-.61,0-.93q0-9.41,6.53-9.41a5.51,5.51,0,0,1,4.82,2.3q1.62,2.3,1.62,7.11c0,.32,0,.64,0,.94s0,.55,0,.82h9.15c0-.57.06-1.16.06-1.76q0-8.13-4-12.33T329.66,266.47Z"/><path class="314ce1c8-b4a0-484c-ba55-307297579d31" d="M370.92,284.75a7.37,7.37,0,0,0-.5-.81,14.68,14.68,0,0,0-5.77-4,37.31,37.31,0,0,1-5.31-2.72,2.13,2.13,0,0,1-1-1.69,1.79,1.79,0,0,1,.77-1.47,4,4,0,0,1,2.46-.59,19.27,19.27,0,0,1,7.78,2.07l2.66-6.7a24.91,24.91,0,0,0-10.17-2.31q-5.65,0-8.88,2.48a8.23,8.23,0,0,0-3.23,6.92,10.22,10.22,0,0,0,.76,4.11,8.51,8.51,0,0,0,2.33,3.08c.21.18.46.37.72.55l.34.24.34.22c.34.21.7.43,1.09.64h15.59Z"/></svg>