<svg id="51fde1d6-ba1b-4ae4-b150-06e770bdb460" data-name="Camada 1" xmlns="http://www.w3.org/2000/svg" viewBox="0 0 720 720"><defs><style>.\31 584517d-a49d-46e1-b284-865a20ae0ad2{fill:none;stroke:#754c24;stroke-miterlimit:10;stroke-width:10px;}.df8a3967-b33d-4fca-ae54-c5b86bddc558{fill:#603813;}.c465986c-764f-4002-8359-963cf2f4d733{fill:#754c24;}</style></defs><title>Prancheta 1</title><g id="be590dc6-cef8-4ff1-b406-55ddd2aab093" data-name="&lt;Group&gt;"><rect id="f6d4cbb0-8c51-428b-8b2b-cd60ded2ba0d" data-name="&lt;Rectangle&gt;" class="1584517d-a49d-46e1-b284-865a20ae0ad2" x="88.86" y="347.2" width="537.19" height="157.7"/><polyline id="fccea966-a4cf-4f62-81a2-8dafceaa87fa" data-name="&lt;Path&gt;" class="1584517d-a49d-46e1-b284-865a20ae0ad2" points="626.06 306.13 626.06 339.74 88.86 339.74 88.86 306.13"/><polyline id="837486f1-3054-4505-a538-bdcd26f5b47c" data-name="&lt;Path&gt;" class="1584517d-a49d-46e1-b284-865a20ae0ad2" points="88.86 306.13 64.96 306.13 356.36 214.09 647.75 306.13 626.06 306.13"/><rect id="4ffb56e3-07ea-4c57-9c04-57b453cb6913" data-name="&lt;Rectangle&gt;" class="1584517d-a49d-46e1-b284-865a20ae0ad2" x="111.99" y="378.68" width="106.87" height="36.56"/><rect id="3c9cf59b-543e-4106-b0e8-127fc14b250a" data-name="&lt;Rectangle&gt;" class="1584517d-a49d-46e1-b284-865a20ae0ad2" x="496" y="378.68" width="106.87" height="36.56"/><rect id="9448e9b9-889d-4514-b2cf-4e6601033377" data-name="&lt;Rectangle&gt;" class="1584517d-a49d-46e1-b284-865a20ae0ad2" x="308.63" y="378.68" width="106.87" height="36.56"/></g><g id="232a9155-748b-40d0-a51e-f7597f7e8039" data-name="&lt;Group&gt;"><g id="4574218c-4af8-4445-af13-65a6dcd08835" data-name="&lt;Group&gt;"><path id="c9927594-10d2-4d5d-8e12-0eb1c38de2ae" data-name="&lt;Compound Path&gt;" class="df8a3967-b33d-4fca-ae54-c5b86bddc558" d="M44,293.37c-3.65,5.08-5.46,7.67-9,12.93L23.81,289.86c3.7-5.44,5.58-8.11,9.35-13.37l2.1,3.26c-2.42,3.37-3.63,5.08-6,8.52l1.91,2.86c2.21-3.18,3.32-4.75,5.55-7.87l2.11,3.26c-2.22,3.1-3.32,4.66-5.51,7.82l2.74,4.1c2.34-3.38,3.52-5,5.9-8.35Z"/><path id="37675e3b-aa39-48c4-9140-c79f55335416" data-name="&lt;Compound Path&gt;" class="df8a3967-b33d-4fca-ae54-c5b86bddc558" d="M53.78,270.44a8.94,8.94,0,0,1,.88,6.3,17.35,17.35,0,0,1-3.41,7.37,21.58,21.58,0,0,1-3,3.35,20.32,20.32,0,0,1-2.8,2.06l-2.59-4.07.36-.5a8.68,8.68,0,0,0,3.35-1.46,12.11,12.11,0,0,0,2.81-2.7q.3-.4.75-1.13a7.23,7.23,0,0,0,.67-1.3,5.37,5.37,0,0,0,.31-1.35,2,2,0,0,0-.32-1.26.94.94,0,0,0-1-.51,2.9,2.9,0,0,0-1.45.77q-.88.74-1.82,1.63a18,18,0,0,1-1.85,1.54,5.13,5.13,0,0,1-3.54,1.3,3.83,3.83,0,0,1-2.6-2,8.28,8.28,0,0,1-.82-6.12,17.26,17.26,0,0,1,3.31-7.24,22.23,22.23,0,0,1,2.8-3.09A16.18,16.18,0,0,1,46.61,260L49,264l-.37.47a7.38,7.38,0,0,0-2.81,1.15,10.4,10.4,0,0,0-2.71,2.56,12.68,12.68,0,0,0-.8,1.2,8.33,8.33,0,0,0-.63,1.37,4.35,4.35,0,0,0-.27,1.32,2,2,0,0,0,.25,1.13.9.9,0,0,0,1,.51,5.94,5.94,0,0,0,1.91-1.34l1.62-1.46A19.62,19.62,0,0,1,48,269.56a4.84,4.84,0,0,1,3.31-1.13A3.64,3.64,0,0,1,53.78,270.44Z"/><path id="a65185f3-7785-4463-832c-784dce522283" data-name="&lt;Compound Path&gt;" class="df8a3967-b33d-4fca-ae54-c5b86bddc558" d="M65.47,265.94a12.2,12.2,0,0,1-3,2.77,5.79,5.79,0,0,1-3.13.94,5.3,5.3,0,0,1-3.06-1.11,10.84,10.84,0,0,1-2.82-3.32,15.12,15.12,0,0,1-1-13.62,16.63,16.63,0,0,1,2.49-4.19,18.27,18.27,0,0,1,1.63-1.78A14,14,0,0,1,58,244.4a10,10,0,0,1,1.4-.84q.66-.32,1.17-.53L63,247.4l-.4.48q-.42,0-1,.09a7.5,7.5,0,0,0-1.32.28,6.41,6.41,0,0,0-1.45.67,5.61,5.61,0,0,0-1.4,1.26,8.5,8.5,0,0,0-1.87,4.55,9.19,9.19,0,0,0,.17,2.87A10.48,10.48,0,0,0,57,260.72a7,7,0,0,0,2,2.34,3,3,0,0,0,3.64.09,6.51,6.51,0,0,0,1.48-1.34A8.54,8.54,0,0,0,65.15,260,12.4,12.4,0,0,0,65.9,258c.16-.58.3-1.16.4-1.73s.18-1,.24-1.43l.36-.43,2.39,4.31-.64,1.71q-.31.81-.7,1.61-.51,1-1,1.86A18.4,18.4,0,0,1,65.47,265.94Z"/><path id="0381cc5e-c67f-4434-8900-f94fdce53194" data-name="&lt;Compound Path&gt;" class="df8a3967-b33d-4fca-ae54-c5b86bddc558" d="M80.86,232.69a15.89,15.89,0,0,1,1.72,9.14,15,15,0,0,1-3.78,8.37c-2.16,2.47-4.31,3.57-6.46,3.31s-4-1.82-5.6-4.71a15.2,15.2,0,0,1,2-17.74c2.24-2.55,4.46-3.66,6.63-3.35S79.34,229.69,80.86,232.69Zm-2.29,9.92a9.76,9.76,0,0,0-.27-2.85,13.42,13.42,0,0,0-1.15-3,9.42,9.42,0,0,0-1.75-2.51,3.93,3.93,0,0,0-1.73-1,2.48,2.48,0,0,0-1.66.16,4.44,4.44,0,0,0-1.47,1.13,6.6,6.6,0,0,0-1.11,1.78,7.4,7.4,0,0,0-.53,2.32,9.16,9.16,0,0,0,.26,2.77,12.71,12.71,0,0,0,1.21,3.14A9.36,9.36,0,0,0,72.14,247a4,4,0,0,0,1.73,1,2.48,2.48,0,0,0,1.63-.15A4.3,4.3,0,0,0,77,246.72a6.38,6.38,0,0,0,1.1-1.81A7.07,7.07,0,0,0,78.57,242.6Z"/><path id="54c80e88-d81d-4147-991c-988e1de8653d" data-name="&lt;Compound Path&gt;" class="df8a3967-b33d-4fca-ae54-c5b86bddc558" d="M98.21,228.65c-4,4.09-6,6.17-9.94,10.43l-9.36-18.75c1.46-1.58,2.19-2.36,3.66-3.91L90,231.65c2.57-2.71,3.86-4.05,6.45-6.7Z"/><path id="92810e2f-aa42-439e-891e-4ebdab20002a" data-name="&lt;Compound Path&gt;" class="df8a3967-b33d-4fca-ae54-c5b86bddc558" d="M113.36,213.85c-1.51,1.41-2.26,2.12-3.77,3.56l-2.73-3c-2.1,2-3.15,3-5.23,5.1.32,1.95.48,2.92.81,4.86-1.45,1.45-2.18,2.17-3.62,3.64-1.54-9.74-2.28-14.63-3.66-24.46,1.72-1.7,2.58-2.54,4.31-4.2C105.09,205.07,107.87,208,113.36,213.85Zm-9-2.15c-1.95-2.11-2.92-3.15-4.88-5.24.54,3.47.82,5.2,1.39,8.65C102.29,213.74,103,213.06,104.39,211.71Z"/><path id="0f4efb75-fd5c-465a-a727-9dc66b3a86af" data-name="&lt;Compound Path&gt;" class="df8a3967-b33d-4fca-ae54-c5b86bddc558" d="M128.69,181.78a11.13,11.13,0,0,1,.67,2.95,9.83,9.83,0,0,1-.15,3,12.53,12.53,0,0,1-1.26,3.45,10.63,10.63,0,0,1-2.44,2.89l-2.34,2,2.63,6.51c-1.48,1.29-2.23,1.94-3.7,3.26L113.92,186c2.52-2.24,3.78-3.34,6.31-5.52a11,11,0,0,1,2.53-1.72,4.79,4.79,0,0,1,2.12-.47,3.36,3.36,0,0,1,2.17.9A6.61,6.61,0,0,1,128.69,181.78Zm-3.91,3.44a2.2,2.2,0,0,0-.91-1.18,1.48,1.48,0,0,0-1.13-.18,3.53,3.53,0,0,0-1.31.64q-.58.45-1.53,1.27l-.66.57,2.41,6,1.08-.94a12.31,12.31,0,0,0,1.53-1.53,4.19,4.19,0,0,0,.8-1.55,4.12,4.12,0,0,0,.12-1.48A6,6,0,0,0,124.78,185.22Z"/><path id="1468b489-bf34-4f47-ae15-c2ea126dd11b" data-name="&lt;Compound Path&gt;" class="df8a3967-b33d-4fca-ae54-c5b86bddc558" d="M150.81,182.37c-1.86,1.4-2.79,2.11-4.65,3.54-2.68-1.78-4-2.66-6.75-4.38l-1.77,1.41,2.77,7.49c-1.5,1.2-2.25,1.8-3.75,3L129,173.13c2.61-2.13,3.92-3.18,6.54-5.25a16,16,0,0,1,2.39-1.6,4.26,4.26,0,0,1,2.14-.51,3.3,3.3,0,0,1,2,.75,5.2,5.2,0,0,1,1.48,2.38,9.33,9.33,0,0,1,.54,4.32,12.06,12.06,0,0,1-1.35,4.08C146,179.29,147.6,180.3,150.81,182.37Zm-11.07-9.72a2.66,2.66,0,0,0-.71-1.14,1.27,1.27,0,0,0-1.11-.24,2.78,2.78,0,0,0-1,.46q-.54.37-1.24.92l-1.41,1.12,2,5.5,1.18-.94A14.21,14.21,0,0,0,139,177a3.76,3.76,0,0,0,.84-1.38,4.4,4.4,0,0,0,.25-1.4A4.61,4.61,0,0,0,139.74,172.65Z"/><path id="4c7dbe5c-6050-4fab-b72b-90f67462d4d1" data-name="&lt;Compound Path&gt;" class="df8a3967-b33d-4fca-ae54-c5b86bddc558" d="M160.52,175.29c-3.5,2.47-5.24,3.74-8.7,6.32l-1.27-3.67,2.44-1.81-4.57-13.41-2.5,1.85-1.27-3.67c3.59-2.68,5.39-4,9-6.54l1.22,3.71-2.51,1.79,4.49,13.48,2.46-1.75Z"/><path id="c071031a-5519-4f7d-9a75-ba01edb6f27f" data-name="&lt;Compound Path&gt;" class="df8a3967-b33d-4fca-ae54-c5b86bddc558" d="M179.46,162.67c-1.56,1-2.33,1.47-3.89,2.47l-4.25-14.26c0,4.44-.06,6.65-.06,11.08l-2.7,1.78c-2.26-2.93-3.4-4.39-5.69-7.28l4.44,14.13c-1.46,1-2.19,1.49-3.64,2.5l-6.76-21c1.85-1.29,2.78-1.92,4.65-3.18,2.72,3.3,4.08,5,6.76,8.3.07-5.16.12-7.75.25-12.92,1.87-1.21,2.81-1.81,4.69-3Z"/><path id="e16cab18-3ddf-4e4c-931e-c19826126703" data-name="&lt;Compound Path&gt;" class="df8a3967-b33d-4fca-ae54-c5b86bddc558" d="M197.47,152c-1.64.91-2.46,1.37-4.09,2.3l-2.23-3.76c-2.28,1.31-3.42,2-5.7,3.34.05,2,.08,3,.14,5-1.58,1-2.38,1.43-4,2.41-.21-10-.28-14.95-.32-24.95,1.87-1.11,2.81-1.66,4.69-2.75C190.67,140.92,193,144.61,197.47,152Zm-12.37-27.29.08.29c-.94,3-1.4,4.56-2.32,7.6l-2.62,1.55c.42-2.9.64-4.35,1.08-7.25C182.84,126.05,183.59,125.62,185.11,124.75Zm4,22.41c-1.6-2.66-2.4-4-4-6.62.07,3.55.11,5.32.2,8.86C186.84,148.49,187.6,148,189.13,147.17Z"/><path id="3dd0d273-468c-41de-9f8a-44bf2b17569e" data-name="&lt;Compound Path&gt;" class="df8a3967-b33d-4fca-ae54-c5b86bddc558" d="M214.59,143.13c-2,1-2.94,1.44-4.89,2.43-2.45-2.37-3.68-3.54-6.16-5.86l-1.87,1,2,8c-1.58.84-2.38,1.27-4,2.13L194.16,129c2.76-1.5,4.14-2.24,6.91-3.68a13.41,13.41,0,0,1,2.49-1,4,4,0,0,1,2.14,0,3.79,3.79,0,0,1,1.88,1.19,6.08,6.08,0,0,1,1.21,2.68,9.63,9.63,0,0,1,.1,4.38,10.62,10.62,0,0,1-1.72,3.72C210.17,139,211.65,140.36,214.59,143.13ZM204.72,131a3.12,3.12,0,0,0-.58-1.29,1.4,1.4,0,0,0-1.07-.49,2.44,2.44,0,0,0-1,.22q-.57.24-1.3.62l-1.48.78,1.45,5.89,1.25-.66a11.63,11.63,0,0,0,1.6-1,3.13,3.13,0,0,0,1-1.17,4.06,4.06,0,0,0,.38-1.33A4.89,4.89,0,0,0,204.72,131Z"/><path id="744c1f71-1e1d-4d0b-9eff-27b7ed411902" data-name="&lt;Compound Path&gt;" class="df8a3967-b33d-4fca-ae54-c5b86bddc558" d="M224.78,138.35c-3.66,1.65-5.49,2.5-9.14,4.27l-.88-3.91,2.57-1.23-3.15-14.27-2.62,1.26-.88-3.91c3.77-1.83,5.66-2.71,9.45-4.42l.83,3.94-2.63,1.2,3.06,14.31,2.58-1.17Z"/><path id="45a73a52-acde-4ef3-8077-8b2d656a8b9a" data-name="&lt;Compound Path&gt;" class="df8a3967-b33d-4fca-ae54-c5b86bddc558" d="M242.61,130.89c-1.68.65-2.52,1-4.2,1.65l-2-4.08c-2.35,1-3.52,1.44-5.86,2.44-.08,2-.12,3-.2,5-1.63.7-2.45,1.06-4.07,1.78.47-9.92.75-14.89,1.39-24.84,1.93-.82,2.89-1.22,4.83-2C236.64,118.78,238.66,122.8,242.61,130.89Zm-7.92-6.13c-1.39-2.89-2.1-4.33-3.51-7.2-.17,3.53-.26,5.3-.41,8.83C232.34,125.72,233.12,125.39,234.69,124.75Z"/><path id="5a3a586a-4f93-4c8d-aae1-b8a85abdad65" data-name="&lt;Compound Path&gt;" class="df8a3967-b33d-4fca-ae54-c5b86bddc558" d="M264,115.95A8.81,8.81,0,0,1,262.8,122a9.14,9.14,0,0,1-5.1,3.85,11.59,11.59,0,0,1-3.52.67,13.34,13.34,0,0,1-2.95-.29l-.9-5.41.45-.16a7.74,7.74,0,0,0,3.22,1.22,7,7,0,0,0,3.17-.26,8.32,8.32,0,0,0,1-.42,3.69,3.69,0,0,0,1-.63,3.31,3.31,0,0,0,.68-.94,2.27,2.27,0,0,0,.12-1.32,1.67,1.67,0,0,0-.64-1.14,2.38,2.38,0,0,0-1.44-.4q-1,0-2,.07a11.05,11.05,0,0,1-2,0,5,5,0,0,1-3.34-1.5,7,7,0,0,1-1.54-3.62,8.12,8.12,0,0,1,1.2-5.87,9.07,9.07,0,0,1,5-3.79,12.12,12.12,0,0,1,3.28-.61,10.69,10.69,0,0,1,2.91.22l.76,5.24-.45.14A6.83,6.83,0,0,0,258.9,106a6.09,6.09,0,0,0-3,.21,6.41,6.41,0,0,0-1,.45,4.31,4.31,0,0,0-.95.71,2.76,2.76,0,0,0-.63.94,2.13,2.13,0,0,0-.14,1.16,1.55,1.55,0,0,0,.71,1.21,4.13,4.13,0,0,0,2,.25l1.8-.06a12.63,12.63,0,0,1,1.87.1,4.88,4.88,0,0,1,3.09,1.46A6.52,6.52,0,0,1,264,115.95Z"/><path id="ab216e58-9189-41da-8129-d7fd8af82534" data-name="&lt;Compound Path&gt;" class="df8a3967-b33d-4fca-ae54-c5b86bddc558" d="M279.43,119c-4.63,1.21-6.95,1.85-11.56,3.23l-3.17-22.77c4.78-1.43,7.17-2.1,12-3.34l.54,4.43c-3.07.8-4.61,1.22-7.68,2.09l.52,3.94c2.83-.81,4.25-1.19,7.08-1.94l.54,4.42c-2.82.74-4.22,1.12-7,1.92l.75,5.64c3-.86,4.51-1.27,7.52-2Z"/><path id="d051a76b-58df-485a-9eda-0d7442c230fa" data-name="&lt;Compound Path&gt;" class="df8a3967-b33d-4fca-ae54-c5b86bddc558" d="M290.2,116.86a7.27,7.27,0,0,1-3.39,0,6.2,6.2,0,0,1-2.86-1.62,9.72,9.72,0,0,1-2.13-3.3,18.83,18.83,0,0,1-1.21-5,20.05,20.05,0,0,1,0-5.08,13.35,13.35,0,0,1,1.27-4.22,9,9,0,0,1,2.41-3A8.29,8.29,0,0,1,287.71,93a10,10,0,0,1,1.91-.26,8.82,8.82,0,0,1,1.6.09,7.66,7.66,0,0,1,1.42.37q.64.24,1.13.45l.54,5.58-.49.1q-.35-.3-.87-.71a8.85,8.85,0,0,0-1.17-.77,5.71,5.71,0,0,0-1.4-.55,3.38,3.38,0,0,0-1.56,0,4.3,4.3,0,0,0-1.67.78,5,5,0,0,0-1.36,1.64,8,8,0,0,0-.8,2.57,13.68,13.68,0,0,0,0,3.6,12.16,12.16,0,0,0,.83,3.5,6,6,0,0,0,1.33,2,3.4,3.4,0,0,0,1.61.87,3.88,3.88,0,0,0,1.65,0,4.25,4.25,0,0,0,1.47-.65,6.62,6.62,0,0,0,1.29-1.17,12.93,12.93,0,0,0,.9-1.16q.41-.6.67-1l.44-.09.53,5.5-1.09,1a9.43,9.43,0,0,1-1.1.83,12.6,12.6,0,0,1-1.43.81A9.28,9.28,0,0,1,290.2,116.86Z"/><path id="437cf5f9-5264-4751-963c-e7a88834fbc4" data-name="&lt;Compound Path&gt;" class="df8a3967-b33d-4fca-ae54-c5b86bddc558" d="M312.43,103.76a11,11,0,0,1-1.37,6.85,7.31,7.31,0,0,1-5.19,3.16c-2.36.41-4.21,0-5.55-1.3s-2.16-3.34-2.42-6.18l-1.35-14.71c1.73-.34,2.59-.5,4.32-.82l1.23,14.39a6.69,6.69,0,0,0,1,3.45,2.29,2.29,0,0,0,2.4.77,2.85,2.85,0,0,0,2.21-1.52,7.3,7.3,0,0,0,.45-3.75l-1.1-14.41c1.73-.28,2.6-.42,4.33-.68Z"/><path id="0a0b6b74-d768-4665-b848-f4e2a02e5fdb" data-name="&lt;Compound Path&gt;" class="df8a3967-b33d-4fca-ae54-c5b86bddc558" d="M331.63,109.9c-1.61.15-2.41.22-4,.39-3.05-6.08-4.61-9.1-7.8-15.11l.93,15.89-3.82.5-1.48-23.14c2.06-.28,3.09-.42,5.16-.67,2.74,5,4.09,7.53,6.74,12.6l-.64-13.28,4-.38Z"/><path id="6e5804a6-d3cb-431b-a570-a77e6d93b997" data-name="&lt;Compound Path&gt;" class="df8a3967-b33d-4fca-ae54-c5b86bddc558" d="M350.93,97.15a15.51,15.51,0,0,1-1,5.84,10.55,10.55,0,0,1-2.56,4,7.15,7.15,0,0,1-2.58,1.55,12.94,12.94,0,0,1-3.34.58c-2.29.13-3.43.21-5.71.39l-.83-23.21c2.43-.19,3.65-.27,6.08-.41a11.17,11.17,0,0,1,3.55.29,6.77,6.77,0,0,1,2.52,1.24,9.46,9.46,0,0,1,2.78,3.86A15.62,15.62,0,0,1,350.93,97.15Zm-4.4.11a11.32,11.32,0,0,0-.67-3.9,5,5,0,0,0-1.95-2.46,3.88,3.88,0,0,0-1.36-.55,9.38,9.38,0,0,0-2.08,0l-1.09.07.43,14.53,1.06-.07a9.37,9.37,0,0,0,2.2-.32,4.19,4.19,0,0,0,1.35-.78,5.62,5.62,0,0,0,1.64-2.58A12.17,12.17,0,0,0,346.53,97.26Z"/><path id="91f87a91-79fc-46c5-9fe5-c9216b16e976" data-name="&lt;Compound Path&gt;" class="df8a3967-b33d-4fca-ae54-c5b86bddc558" d="M369.26,108.75c-1.73-.05-2.59-.07-4.32-.1-.44-1.89-.66-2.83-1.1-4.71-2.42,0-3.63,0-6,0-.45,1.88-.67,2.82-1.11,4.71-1.69,0-2.53,0-4.22.07,2.29-9.35,3.48-14,5.94-23.32,2,0,3,0,5,0C365.81,94.72,367,99.39,369.26,108.75Zm-4.49-32.08V77c-1.62,2.31-2.43,3.46-4,5.79H358c1.11-2.46,1.67-3.69,2.8-6.14Zm-1.93,23c-.79-3.34-1.2-5-2-8.34-.82,3.33-1.23,5-2,8.33C360.41,99.66,361.22,99.66,362.84,99.67Z"/><path id="2805b6c1-61c4-4a72-b358-e18540de7b56" data-name="&lt;Compound Path&gt;" class="df8a3967-b33d-4fca-ae54-c5b86bddc558" d="M387.2,109.79c-2-.18-3.06-.26-5.1-.4-1.65-3.53-2.49-5.29-4.19-8.79l-2-.1-.2,8.52c-1.66-.08-2.5-.12-4.16-.18L372,85.6c2.9.11,4.35.18,7.25.35a11.86,11.86,0,0,1,2.55.39,4.86,4.86,0,0,1,2,1.15,5.77,5.77,0,0,1,1.43,2.13,7.76,7.76,0,0,1,.44,3.15,8.82,8.82,0,0,1-1,4.13,7.07,7.07,0,0,1-2.51,2.52C384.18,103.56,385.2,105.63,387.2,109.79Zm-6-16.6a4,4,0,0,0-.21-1.51,2.08,2.08,0,0,0-.85-1,2.55,2.55,0,0,0-1-.37q-.58-.09-1.35-.13l-1.56-.08L376,96.31l1.31.07a9,9,0,0,0,1.71,0,2,2,0,0,0,1.17-.57,2.93,2.93,0,0,0,.68-1A4.78,4.78,0,0,0,381.18,93.19Z"/><path id="a307f361-7bc7-4938-86de-5d38939ac3c5" data-name="&lt;Compound Path&gt;" class="df8a3967-b33d-4fca-ae54-c5b86bddc558" d="M397.78,110.89c-3.79-.46-5.69-.66-9.48-1l.17-4.11,2.67.25.69-15-2.73-.26.17-4.11c3.92.35,5.89.56,9.81,1l-.23,4.11-2.73-.32-.78,15,2.67.31Z"/><path id="332b3634-b9aa-4a2b-a193-6b33bfeae02c" data-name="&lt;Compound Path&gt;" class="df8a3967-b33d-4fca-ae54-c5b86bddc558" d="M416.1,113.63c-1.72-.31-2.58-.46-4.3-.74-.31-1.94-.46-2.91-.77-4.85-2.41-.39-3.61-.57-6-.92-.58,1.81-.87,2.71-1.44,4.52-1.68-.23-2.52-.34-4.2-.56,2.93-9,4.44-13.43,7.53-22.32,2,.29,3,.44,5,.76C413.64,99.16,414.49,104,416.1,113.63Zm-5.76-10c-.56-3.44-.84-5.16-1.42-8.59-1.05,3.19-1.57,4.78-2.6,8C407.92,103.26,408.73,103.39,410.34,103.64Z"/><path id="8a4c76e0-6bc7-4862-8091-20d72cf749be" data-name="&lt;Compound Path&gt;" class="df8a3967-b33d-4fca-ae54-c5b86bddc558" d="M437.6,118.25c-4.64-1.16-7-1.7-11.62-2.68l2.27-23c4.81,1,7.22,1.57,12,2.78l-.52,4.43c-3.08-.77-4.62-1.14-7.7-1.83l-.42,4c2.85.64,4.27,1,7.11,1.68l-.51,4.43c-2.82-.7-4.23-1-7.06-1.67l-.6,5.68c3,.68,4.53,1,7.54,1.79Z"/><path id="693c5aff-8ff2-4ae3-872a-09a0982feb83" data-name="&lt;Compound Path&gt;" class="df8a3967-b33d-4fca-ae54-c5b86bddc558" d="M464.14,109.76a10.83,10.83,0,0,1-.84,2.85,6.13,6.13,0,0,1-1.46,2.09,5.72,5.72,0,0,1-2.46,1.33,5.81,5.81,0,0,1-3.05-.24l-2.59-.79-1,7.41c-1.65-.5-2.47-.74-4.12-1.21l3-22.8c2.81.81,4.21,1.22,7,2.09a9.32,9.32,0,0,1,2.6,1.21,7.07,7.07,0,0,1,1.74,1.73,7.2,7.2,0,0,1,1.16,2.8A10.29,10.29,0,0,1,464.14,109.76Zm-4.36-1.28a3.78,3.78,0,0,0-.13-1.77,3,3,0,0,0-.73-1.24,3.69,3.69,0,0,0-1.23-.8q-.62-.23-1.67-.55l-.73-.22-1,6.8,1.2.36a7.51,7.51,0,0,0,1.79.36,1.92,1.92,0,0,0,1.27-.37,2.45,2.45,0,0,0,.75-1A6.05,6.05,0,0,0,459.78,108.48Z"/><path id="cfd9d850-d283-4065-925e-0fbf5c6a4805" data-name="&lt;Compound Path&gt;" class="df8a3967-b33d-4fca-ae54-c5b86bddc558" d="M479.88,131.86c-2-.79-3-1.17-5-1.92-1.14-4-1.72-5.92-2.91-9.86l-1.92-.69-1.37,8.28c-1.63-.58-2.44-.86-4.07-1.42l3.6-22.63c2.84,1,4.26,1.47,7.09,2.51a13.69,13.69,0,0,1,2.46,1.15,6.14,6.14,0,0,1,1.78,1.72,7,7,0,0,1,1.11,2.51,8,8,0,0,1,0,3.22,7.61,7.61,0,0,1-1.56,3.74,5.65,5.65,0,0,1-2.82,1.72C477.77,124.85,478.48,127.18,479.88,131.86Zm-3.64-18.06a4.1,4.1,0,0,0,0-1.55,2.58,2.58,0,0,0-.7-1.27,3.12,3.12,0,0,0-.94-.66q-.56-.26-1.31-.53l-1.52-.55-1,6.08,1.28.46a9.59,9.59,0,0,0,1.69.47A1.8,1.8,0,0,0,475,116a2.33,2.33,0,0,0,.81-.8A4.26,4.26,0,0,0,476.24,113.8Z"/><path id="b6600f97-2cc4-40c2-879c-72bd46e97d45" data-name="&lt;Compound Path&gt;" class="df8a3967-b33d-4fca-ae54-c5b86bddc558" d="M493,137.36c-4.53-2-6.8-3-11.36-4.79l4.19-22.41c4.72,1.89,7.07,2.89,11.75,5l-.89,4.3c-3-1.33-4.51-2-7.53-3.23l-.75,3.86c2.78,1.16,4.17,1.75,6.95,3l-.88,4.3c-2.76-1.21-4.14-1.81-6.9-3l-1.07,5.53c3,1.23,4.43,1.86,7.37,3.16Zm4.44-31.43-.06.3c-2,1.56-3,2.34-5,3.93l-2.7-1.13c1.54-1.91,2.31-2.87,3.87-4.76C495.14,104.92,495.91,105.26,497.46,105.93Z"/><path id="023af823-655f-49a8-a162-4e54b8f0f0dc" data-name="&lt;Compound Path&gt;" class="df8a3967-b33d-4fca-ae54-c5b86bddc558" d="M505.28,134.55c-3.23-1.55-4.85-2.31-8.09-3.78l.9-4.3c3.27,1.48,4.89,2.24,8.14,3.8Z"/><path id="9e00e7eb-9cbb-4815-9bf9-99a17e545d00" data-name="&lt;Compound Path&gt;" class="df8a3967-b33d-4fca-ae54-c5b86bddc558" d="M522.24,142.9c-.68,2.69-1.79,4.44-3.31,5.24s-3.41.62-5.67-.56a9.41,9.41,0,0,1-4.64-4.79,11.63,11.63,0,0,1-.32-7.11l3.22-14.07c1.67.82,2.5,1.24,4.16,2.08l-3.23,13.7a7.62,7.62,0,0,0-.12,3.75,3.61,3.61,0,0,0,1.94,2.26,2.22,2.22,0,0,0,2.46.08,5.4,5.4,0,0,0,1.54-3.07l3.36-13.64c1.66.88,2.48,1.32,4.14,2.22Z"/><path id="a347c477-5280-49cd-a367-3466149ba258" data-name="&lt;Compound Path&gt;" class="df8a3967-b33d-4fca-ae54-c5b86bddc558" d="M537.85,161c-1.51-.93-2.27-1.39-3.78-2.3-.94-7.46-1.45-11.19-2.53-18.66l-4,14.86c-1.45-.83-2.17-1.24-3.63-2.06l5.64-21.71c2,1.1,2.94,1.65,4.89,2.78,1,6.29,1.44,9.43,2.33,15.72l3.44-12.32c1.49.9,2.24,1.35,3.72,2.26Z"/><path id="a8e2a54e-c306-4398-9f28-cd2f6a9d7c3e" data-name="&lt;Compound Path&gt;" class="df8a3967-b33d-4fca-ae54-c5b86bddc558" d="M549.89,168.71c-3.53-2.35-5.3-3.49-8.85-5.72l1.11-3.79,2.5,1.58L548.72,147l-2.55-1.62,1.11-3.79c3.67,2.31,5.5,3.49,9.15,5.92l-1.16,3.75-2.54-1.68-4.16,13.7L551,165Z"/><path id="c70926f3-756d-4f6b-94ea-6163395ecca1" data-name="&lt;Compound Path&gt;" class="df8a3967-b33d-4fca-ae54-c5b86bddc558" d="M573.69,159.65c-5.08,6.65-7.59,10-12.53,16.83-1.72-1.23-2.58-1.84-4.31-3,.53-9.92.75-14.9,1.12-24.87,1.69,1.13,2.53,1.71,4.21,2.86-.39,6.94-.61,10.4-1.07,17.32,3.38-4.85,5.09-7.26,8.54-12.05C571.26,157.87,572.07,158.46,573.69,159.65Z"/><path id="d571020c-aa3b-4156-b13a-3876f8989b4a" data-name="&lt;Compound Path&gt;" class="df8a3967-b33d-4fca-ae54-c5b86bddc558" d="M579.34,190.23c-4.23-3.38-6.36-5-10.64-8.23l7.19-20.71c4.43,3.31,6.63,5,11,8.51l-1.46,4c-2.81-2.24-4.22-3.34-7-5.51l-1.26,3.56c2.61,2,3.91,3,6.5,5.08l-1.46,4c-2.58-2-3.87-3.06-6.46-5l-1.81,5.09c2.77,2.12,4.15,3.2,6.9,5.4Z"/><path id="a54b70f8-fd74-43e8-8517-db57917f9096" data-name="&lt;Compound Path&gt;" class="df8a3967-b33d-4fca-ae54-c5b86bddc558" d="M596.44,204.58c-1.81-1.6-2.72-2.38-4.53-3.95-.4-4.29-.61-6.44-1.06-10.74l-1.76-1.47-2.86,7.42c-1.49-1.24-2.24-1.85-3.73-3.07l7.66-20.34c2.61,2.12,3.91,3.2,6.5,5.39a19.35,19.35,0,0,1,2.2,2.14,9,9,0,0,1,2.07,5.3,7.42,7.42,0,0,1-.59,3.11,5.66,5.66,0,0,1-2.21,3,4.67,4.67,0,0,1-3.08.47C595.64,196.92,595.92,199.47,596.44,204.58Zm-.28-19a3.81,3.81,0,0,0,.28-1.49,3.27,3.27,0,0,0-.45-1.52,4.47,4.47,0,0,0-.81-1q-.5-.49-1.19-1.07l-1.39-1.16-2.1,5.45,1.17,1a13,13,0,0,0,1.57,1.16,1.91,1.91,0,0,0,1.25.32,1.73,1.73,0,0,0,.94-.43A3.26,3.26,0,0,0,596.15,185.61Z"/><path id="f05632e1-1654-409a-a594-d5af67d87532" data-name="&lt;Compound Path&gt;" class="df8a3967-b33d-4fca-ae54-c5b86bddc558" d="M612.14,210.36c-.85,1.92-2.13,2.92-3.84,3s-3.58-.81-5.61-2.67a20.23,20.23,0,0,1-2.91-3.24,29.13,29.13,0,0,1-2-3.31l2-4.77.41.36A17.94,17.94,0,0,0,601.9,204a13.35,13.35,0,0,0,2.45,3.16,11.05,11.05,0,0,0,.92.73,3.63,3.63,0,0,0,1,.56,1.81,1.81,0,0,0,1,.05q.43-.1.73-.8a2.33,2.33,0,0,0,.08-1.49,5.46,5.46,0,0,0-.86-1.81q-.7-1-1.51-2.07a23.1,23.1,0,0,1-1.46-2.14,11.41,11.41,0,0,1-1.72-4.58,8.44,8.44,0,0,1,.62-4.19,4.06,4.06,0,0,1,3.71-2.89c1.72-.06,3.55.79,5.48,2.56a21.23,21.23,0,0,1,2.71,3,23.28,23.28,0,0,1,2,3.24l-2,4.5-.4-.38a16,16,0,0,0-1.46-3.61,11.83,11.83,0,0,0-2.34-3.06,8.41,8.41,0,0,0-1-.78,3.88,3.88,0,0,0-1-.5,1.44,1.44,0,0,0-.91,0,1.12,1.12,0,0,0-.66.67,2.24,2.24,0,0,0-.06,1.6,9.17,9.17,0,0,0,1.34,2.28L609.9,200q.64.89,1.33,2.05a11.14,11.14,0,0,1,1.57,4.3A7.69,7.69,0,0,1,612.14,210.36Z"/><path id="370000c9-856c-47c0-a737-9bae1c4945ec" data-name="&lt;Compound Path&gt;" class="df8a3967-b33d-4fca-ae54-c5b86bddc558" d="M619.51,226.34c-3.26-3.28-4.9-4.9-8.2-8.07l1.53-3.45,2.32,2.24,5.64-12.51-2.37-2.29,1.53-3.45c3.41,3.28,5.11,4.95,8.49,8.35l-1.58,3.4-2.35-2.35-5.72,12.43,2.3,2.3Z"/><path id="56022502-3ef5-4509-b44f-b38f1db5a2e5" data-name="&lt;Compound Path&gt;" class="df8a3967-b33d-4fca-ae54-c5b86bddc558" d="M640.78,225.6c-1.75-1.91-2.63-2.85-4.4-4.73l-7.47,15.2c-1.42-1.51-2.13-2.25-3.55-3.74L632.74,217c-1.77-1.85-2.66-2.76-4.45-4.57l1.74-3.7c5.08,5.15,7.59,7.8,12.58,13.22Z"/><path id="bf45d480-e4aa-499e-8677-32264020abf5" data-name="&lt;Compound Path&gt;" class="df8a3967-b33d-4fca-ae54-c5b86bddc558" d="M647.76,257.19c-1.42-1.68-2.13-2.51-3.56-4.17.42-1.91.62-2.87,1-4.78-2-2.31-3-3.45-5-5.71l-2.88,2.69c-1.41-1.57-2.12-2.35-3.54-3.9,5.79-5.27,8.71-7.85,14.62-12.92,1.66,1.87,2.49,2.81,4.14,4.71C650.71,242.79,649.75,247.61,647.76,257.19Zm9.57-29.69-.13.25c-2.31.3-3.46.45-5.75.8l-2.32-2.61c1.94-.91,2.92-1.35,4.88-2.23C655.34,225.21,656,226,657.33,227.5Zm-11.15,16.42c.72-3.4,1.08-5.1,1.78-8.51-2.07,1.86-3.1,2.8-5.15,4.69C644.16,241.61,644.84,242.38,646.18,243.92Z"/><path id="b18ea0e1-6624-4c3f-9d11-4c0aa381133f" data-name="&lt;Compound Path&gt;" class="df8a3967-b33d-4fca-ae54-c5b86bddc558" d="M662.32,275.14c-1.64-2.1-2.46-3.14-4.11-5.21.08-4.38.11-6.58.15-11l-1.6-2-3.7,6.56c-1.36-1.65-2-2.47-3.4-4.1l10-18c2.38,2.84,3.56,4.28,5.91,7.18a25.07,25.07,0,0,1,2,2.75,10.67,10.67,0,0,1,1.17,2.8,9.31,9.31,0,0,1,.31,3.06,6.62,6.62,0,0,1-.94,2.92,4.5,4.5,0,0,1-2.55,2.31,4.77,4.77,0,0,1-3.15-.4C662.38,267.29,662.37,269.91,662.32,275.14Zm1.85-18.94a3.39,3.39,0,0,0,.45-1.4,3.65,3.65,0,0,0-.28-1.64,5.68,5.68,0,0,0-.69-1.25q-.45-.63-1.08-1.4L661.3,249l-2.72,4.82,1.07,1.3a16.9,16.9,0,0,0,1.45,1.6,2.3,2.3,0,0,0,1.22.67,1.55,1.55,0,0,0,1-.16A2.6,2.6,0,0,0,664.17,256.19Z"/><path id="22e43f6c-b207-4bef-a9dd-fa37a07f34d7" data-name="&lt;Compound Path&gt;" class="df8a3967-b33d-4fca-ae54-c5b86bddc558" d="M670.74,286.21c-3-4-4.5-6-7.53-9.94l1.85-3.1,2.13,2.77L674,264.73l-2.18-2.83,1.85-3.1c3.14,4.06,4.7,6.11,7.79,10.29l-1.9,3-2.16-2.89-6.86,11.11,2.11,2.83Z"/><path id="61a42b6f-2b05-4d84-b67d-d7c39eeb23a8" data-name="&lt;Compound Path&gt;" class="df8a3967-b33d-4fca-ae54-c5b86bddc558" d="M685,306.29c-1.32-1.94-2-2.9-3.31-4.81.55-1.84.82-2.77,1.36-4.61-1.86-2.67-2.8-4-4.68-6.61l-3.08,2.19c-1.31-1.82-2-2.73-3.3-4.53,6.18-4.27,9.3-6.35,15.58-10.39,1.55,2.16,2.32,3.25,3.86,5.45C688.93,292.37,687.65,297,685,306.29Zm-.71-13.6c1-3.28,1.43-4.92,2.37-8.22-2.21,1.51-3.31,2.26-5.5,3.8C682.42,290,683,290.92,684.29,292.7Z"/></g></g><g id="167c4996-581d-4681-bb6c-761ef27f10b6" data-name="&lt;Group&gt;"><path id="b5175c7d-c6c5-4da9-a61c-2937a95c192b" data-name="&lt;Compound Path&gt;" class="c465986c-764f-4002-8359-963cf2f4d733" d="M157.09,581H138.94V550.35l-13.12,19.88h-12.6l-13.12-19.88V581H82.9V535.23h21.2l15.92,23,15.87-23h21.2Z"/><path id="d063ba85-baeb-429d-a316-1868d8fbff86" data-name="&lt;Compound Path&gt;" class="c465986c-764f-4002-8359-963cf2f4d733" d="M213.42,581H172v-8.11h11.6V543.34H172v-8.11h41.44v8.11h-11.6v29.53h11.6Z"/><path id="4e157be4-cd9c-46b0-97d5-4d6576115359" data-name="&lt;Compound Path&gt;" class="c465986c-764f-4002-8359-963cf2f4d733" d="M292.65,581H275.06l-30-31.4V581H228.29V535.23h21.82l25.81,26.21V535.23h16.73Z"/><path id="8e74ce70-0ded-45df-8e5a-242d982a0393" data-name="&lt;Compound Path&gt;" class="c465986c-764f-4002-8359-963cf2f4d733" d="M349,581H307.52v-8.11h11.6V543.34h-11.6v-8.11H349v8.11h-11.6v29.53H349Z"/><path id="14d12453-4aab-4749-9e10-b2e76fb40662" data-name="&lt;Compound Path&gt;" class="c465986c-764f-4002-8359-963cf2f4d733" d="M429.24,581H410.4l-4.93-9.25H379.28L374.35,581H356l26.14-45.75h21Zm-28.16-17.64L392.37,547l-8.71,16.39Z"/><path id="d0e8eb80-8935-4a78-9680-b6cf2328a4c7" data-name="&lt;Compound Path&gt;" class="c465986c-764f-4002-8359-963cf2f4d733" d="M507.57,581H485.28L466,564.21h-8.46V581H439.42V535.23H470q6.27,0,10.79.46a32.22,32.22,0,0,1,8.46,2,17.25,17.25,0,0,1,6.35,4A8.48,8.48,0,0,1,498,547.8a10.49,10.49,0,0,1-3.64,8.26A28.68,28.68,0,0,1,484,561.38ZM479.1,549.24a4.29,4.29,0,0,0-1.09-2.95,7.56,7.56,0,0,0-3.76-1.94,20.47,20.47,0,0,0-4.32-.6q-2.47-.11-5.75-.11h-6.61V556h5.61q4.37,0,7.32-.28a14.18,14.18,0,0,0,4.94-1.26,7.85,7.85,0,0,0,2.78-2.1A5,5,0,0,0,479.1,549.24Z"/><path id="a6dc71d5-b7cb-4c11-bf24-d7e83de3a89d" data-name="&lt;Compound Path&gt;" class="c465986c-764f-4002-8359-963cf2f4d733" d="M570.93,544.08h-22.1V581H530.58v-36.9h-22.1v-8.85h62.45Z"/><path id="bd05bd84-34f0-4442-8d38-71083bc7ac81" data-name="&lt;Compound Path&gt;" class="c465986c-764f-4002-8359-963cf2f4d733" d="M633.09,581H581.91V535.23h51.19v8.85h-33V552h30.66v8.85H600.06v11.31h33Z"/></g></svg>