<svg xmlns="http://www.w3.org/2000/svg" viewBox="0 0 470.16 428"><defs><style>.bd3ccd72-5292-4b8f-90d9-8ef2d61b3029,.df321d5b-ea58-4707-ba11-a8ad3d125319{fill:#00bce5;}.\32 e55aa36-ac64-4c01-b790-3460d17bfd23{fill:#00bce4;}.\35 bea4741-37a2-47fb-9276-3ecb79e3666a,.bd3ccd72-5292-4b8f-90d9-8ef2d61b3029{stroke:#00bce5;stroke-miterlimit:10;}.\35 bea4741-37a2-47fb-9276-3ecb79e3666a{fill:#fff;}</style></defs><title>Asset 1</title><g id="2314fdd7-0c51-46c2-913b-2d9e06d7b2d4" data-name="Layer 2"><g id="8e48ae57-2fa0-4e66-9240-1d12c5ee4915" data-name="Layer 1"><path class="df321d5b-ea58-4707-ba11-a8ad3d125319" d="M354.08,428a2.23,2.23,0,0,1-2.25-2.25v-7.47a2.23,2.23,0,0,1,2.25-2.25,2.26,2.26,0,0,1,2.25,2.25v7.47A2.26,2.26,0,0,1,354.08,428Z"/><g id="15891cb4-e9bb-4591-bfc4-8666d6b4d951" data-name="surface2"><path class="df321d5b-ea58-4707-ba11-a8ad3d125319" d="M340.16,112.2q25.44,13.91,40,33.16t14.78,41.86q-1.73,42.4-46.85,70.46t-113,29.24q-67.95-1.1-113.07-29.24T75.21,187.21Q75.53,164.6,90,145.36t40-33.16q-35.88,15.44-56.76,39.14T51.83,203.74q1.95,47.51,53.71,79T235.13,315.5q77.85-1.2,129.6-32.73t53.6-79q-.43-28.7-21.3-52.41T340.16,112.2Z"/><path class="2e55aa36-ac64-4c01-b790-3460d17bfd23" d="M379.95,183.84q-.33,22-17.07,40t-45.44,29.68q39.46-21.2,41-55-1.32-31.3-36.1-52.19Q293,128.84,251.24,125.47q-3.85-6.68-7.73-12.62c-.32-.49-.63-1-.94-1.43-.14-.23-.29-.45-.44-.68q-6.4-9.69-7-10.29-.54.66-8.26,12.4-2.41,3.72-4.84,7.71c0,.08-.1.16-.14.24q-1.39,2.28-2.77,4.66h0q-41.85,3.35-71.18,20.86-34.8,20.88-36.1,52.19,1.63,33.71,41.1,55-28.81-11.62-45.56-29.68t-17.06-40Q91.83,148,132.72,124T235.13,99.26q61.55.85,102.42,24.78T379.95,183.84Z"/><path class="df321d5b-ea58-4707-ba11-a8ad3d125319" d="M280.47,144.49q30.34,14.46,31.75,40.12-.88,21.09-22.62,35t-54.47,14.57q-32.72-.55-54.46-14.57t-22.62-35q1.53-25.66,31.75-40.12-25.33,7.61-40.56,21.85T133.7,198.42q1.08,25.65,29.68,42.72t71.76,17.62q43.17-.66,71.76-17.62t29.69-42.72q-.43-17.94-15.55-32.07t-40.55-21.85Z"/><path class="df321d5b-ea58-4707-ba11-a8ad3d125319" d="M290.91,182.54q-.64,14.89-16.42,24.78t-39.36,10.22q-23.7-.32-39.46-10.22t-16.31-24.78q.55-14.89,16.31-24.9a56.87,56.87,0,0,1,9.87-4.94,41.18,41.18,0,0,0-2.37,10.92q.33,13.59,9.35,22.61t22.61,9.36q13.71-.34,22.73-9.36t9.34-22.61a43.12,43.12,0,0,0-2.4-10.82,56.94,56.94,0,0,1,9.69,5Q290.25,167.65,290.91,182.54Z"/><path class="2e55aa36-ac64-4c01-b790-3460d17bfd23" d="M248.94,66.21q-1.2,12.5-13.7,13.7-12.4-1.2-13.59-13.7,1.2-12.4,13.59-13.59,12.51,1.2,13.7,13.59Z"/><path class="2e55aa36-ac64-4c01-b790-3460d17bfd23" d="M243.72,30.88q-.76,7.72-8.49,8.48-7.72-.76-8.48-8.48.76-7.72,8.48-8.49,7.72.76,8.49,8.49Z"/><path class="2e55aa36-ac64-4c01-b790-3460d17bfd23" d="M240.24,5q-.33,4.46-4.89,4.89c-3-.21-4.71-1.84-5-4.89a5,5,0,0,1,5-5q4.46.43,4.89,5Z"/></g><path class="df321d5b-ea58-4707-ba11-a8ad3d125319" d="M28.39,389.75v30.87a2.26,2.26,0,0,1-2.25,2.25,2.29,2.29,0,0,1-2.25-2.25v-13.5H4.5v13.5a2.25,2.25,0,0,1-4.5,0V389.75a2.23,2.23,0,0,1,2.25-2.25,2.23,2.23,0,0,1,2.25,2.25v12.87H23.89V389.75a2.26,2.26,0,0,1,2.25-2.25A2.23,2.23,0,0,1,28.39,389.75Z"/><path class="df321d5b-ea58-4707-ba11-a8ad3d125319" d="M34.47,423a2.26,2.26,0,0,1-2.25-2.25V389.84a2.29,2.29,0,0,1,2.25-2.25,2.26,2.26,0,0,1,2.25,2.25v30.87A2.23,2.23,0,0,1,34.47,423Z"/><path class="df321d5b-ea58-4707-ba11-a8ad3d125319" d="M53.86,423H42.79a2.26,2.26,0,0,1-2.25-2.25V389.84a2.11,2.11,0,0,1,.67-1.57,2.29,2.29,0,0,1,1.58-.67H54a18.36,18.36,0,0,1,12.87,5.22,18.07,18.07,0,0,1,3.92,5.62,17.32,17.32,0,0,1,1.44,6.88,16.42,16.42,0,0,1-1.49,6.84,17.48,17.48,0,0,1-4,5.63,18.48,18.48,0,0,1-5.8,3.78A19,19,0,0,1,53.86,423ZM45,418.46H54a14.86,14.86,0,0,0,5.26-1.08,13.52,13.52,0,0,0,7.38-7.06,12,12,0,0,0,1.08-5,12.43,12.43,0,0,0-1.08-5.08,12.8,12.8,0,0,0-2.92-4.19,13.72,13.72,0,0,0-9.72-4H45Z"/><path class="df321d5b-ea58-4707-ba11-a8ad3d125319" d="M78,423a2.26,2.26,0,0,1-2.25-2.25V389.84A2.23,2.23,0,0,1,78,387.59H91.39a11.46,11.46,0,0,1,7.69,3.15,9.79,9.79,0,0,1,2.34,3.6,13.67,13.67,0,0,1,.9,5.22A10.28,10.28,0,0,1,97.15,409a12.16,12.16,0,0,1-2.7,1.13,23.42,23.42,0,0,1,5.08,6.25c1.17,2,2.43,2,2.61,2a2.25,2.25,0,0,1,.63,4.46,6.34,6.34,0,0,1-2.75-.32,8.31,8.31,0,0,1-4.37-3.87,18.07,18.07,0,0,0-5.76-6.25A9.15,9.15,0,0,0,87.07,411a2.19,2.19,0,0,1-1.8-2.43,2.22,2.22,0,0,1,2.25-2,15.27,15.27,0,0,0,7.42-1.49c2-1.12,2.88-2.88,2.88-5.54a8.81,8.81,0,0,0-1-4.45A5.7,5.7,0,0,0,94.77,393a7.63,7.63,0,0,0-3.37-.95H80.28v28.62A2.26,2.26,0,0,1,78,423Z"/><path class="df321d5b-ea58-4707-ba11-a8ad3d125319" d="M123.88,423.73a18.11,18.11,0,0,1-7.2-1.48,18.63,18.63,0,0,1-5.89-4,19.2,19.2,0,0,1-4-5.85,18.19,18.19,0,0,1-1.44-7.07,17.51,17.51,0,0,1,1.49-7.11,18.38,18.38,0,0,1,4-5.8,18.63,18.63,0,0,1,5.89-4,18.93,18.93,0,0,1,7.25-1.44,18.15,18.15,0,0,1,16.74,11.25,18.14,18.14,0,0,1,1.39,7.06,18.36,18.36,0,0,1-5.26,12.92A18.1,18.1,0,0,1,123.88,423.73Zm.13-32.17a14.39,14.39,0,0,0-5.49,1.08,13.89,13.89,0,0,0-4.5,3,12.84,12.84,0,0,0-3,4.41,12.65,12.65,0,0,0-1.12,5.31,13.57,13.57,0,0,0,4.09,9.72,13.93,13.93,0,0,0,9.9,4.14,13.79,13.79,0,0,0,9.81-4.1,14,14,0,0,0,2.92-4.41,14.54,14.54,0,0,0,1-5.36,13.79,13.79,0,0,0-3.91-9.72A13.4,13.4,0,0,0,124,391.55Z"/><path class="df321d5b-ea58-4707-ba11-a8ad3d125319" d="M187.83,389.89a2.23,2.23,0,0,1-2.25,2.25h-18.9v11.29h16.15a2.29,2.29,0,0,1,2.25,2.25,2.26,2.26,0,0,1-2.25,2.25H166.68V420.8a2.25,2.25,0,0,1-4.5,0V389.89a2.26,2.26,0,0,1,2.25-2.25h21.15A2.26,2.26,0,0,1,187.83,389.89Z"/><path class="df321d5b-ea58-4707-ba11-a8ad3d125319" d="M256.63,423.1a2.39,2.39,0,0,1-1.75-.81l-21.73-26.14V420.8a2.25,2.25,0,0,1-4.5,0V389.93a2.24,2.24,0,0,1,4-1.44l21.78,26.1V390a2.23,2.23,0,0,1,2.25-2.25,2.26,2.26,0,0,1,2.25,2.25v30.87A2.34,2.34,0,0,1,257.4,423,2.5,2.5,0,0,1,256.63,423.1Z"/><path class="df321d5b-ea58-4707-ba11-a8ad3d125319" d="M291.24,389.84a2.23,2.23,0,0,1-2.25,2.25h-9.85v28.62a2.26,2.26,0,0,1-2.25,2.25,2.23,2.23,0,0,1-2.25-2.25V392.09h-9.9a2.25,2.25,0,1,1,0-4.5H289A2.23,2.23,0,0,1,291.24,389.84Z"/><path class="df321d5b-ea58-4707-ba11-a8ad3d125319" d="M320.85,420.67a2.23,2.23,0,0,1-2.25,2.25H297.09a2.26,2.26,0,0,1-2.25-2.25V389.84a2.26,2.26,0,0,1,2.25-2.25h21.06a2.25,2.25,0,0,1,0,4.5H299.34v10.84H316a2.26,2.26,0,0,1,2.25,2.25,2.23,2.23,0,0,1-2.25,2.25H299.34v11H318.6A2.23,2.23,0,0,1,320.85,420.67Z"/><path class="df321d5b-ea58-4707-ba11-a8ad3d125319" d="M347.62,416.71a9.36,9.36,0,0,1-2.83,4.09,12.89,12.89,0,0,1-9.45,2.61,16.5,16.5,0,0,1-5.58-1.75,14.41,14.41,0,0,1-4.45-3.74,2.22,2.22,0,0,1,.36-3.15,2.27,2.27,0,0,1,3.15.36,10.63,10.63,0,0,0,7,3.83,8.42,8.42,0,0,0,6.12-1.67,4.7,4.7,0,0,0,1.57-4.54c-.76-3.15-3.64-4.18-8.32-5.49a29.85,29.85,0,0,1-4.54-1.49,8.82,8.82,0,0,1-.95-.45s-.13,0-.18-.09a10.86,10.86,0,0,1-3-2.47,8.91,8.91,0,0,1-1.84-3.83A8.47,8.47,0,0,1,325,394a8.77,8.77,0,0,1,2.83-4.09,12.63,12.63,0,0,1,9.45-2.61,15.29,15.29,0,0,1,5.54,1.75,15.13,15.13,0,0,1,4.5,3.74,2.28,2.28,0,0,1-.36,3.15,2.23,2.23,0,0,1-3.15-.41,10.69,10.69,0,0,0-7-3.78,8.3,8.3,0,0,0-6.17,1.62,4.61,4.61,0,0,0-1.53,4.54c.72,3.15,3.6,4.19,8.28,5.49a45.82,45.82,0,0,1,4.59,1.49c.31.18.63.31.9.45l.22.14a9.83,9.83,0,0,1,2.93,2.47,8.77,8.77,0,0,1,1.84,3.78A9,9,0,0,1,347.62,416.71Z"/><path class="df321d5b-ea58-4707-ba11-a8ad3d125319" d="M398.33,423H378.72a2.26,2.26,0,0,1-2.25-2.25V389.84a2.26,2.26,0,0,1,2.25-2.25,2.23,2.23,0,0,1,2.25,2.25v28.62h17.37a2.25,2.25,0,0,1,0,4.5Z"/><path class="df321d5b-ea58-4707-ba11-a8ad3d125319" d="M417.5,423H406.44a2.26,2.26,0,0,1-2.25-2.25V389.84a2.11,2.11,0,0,1,.67-1.57,2.29,2.29,0,0,1,1.58-.67h11.16a18.36,18.36,0,0,1,12.87,5.22,18.08,18.08,0,0,1,3.92,5.62,17.34,17.34,0,0,1,1.44,6.88,16.42,16.42,0,0,1-1.49,6.84,17.48,17.48,0,0,1-4,5.63,18.49,18.49,0,0,1-5.8,3.78A19,19,0,0,1,417.5,423Zm-8.82-4.5h8.91a14.86,14.86,0,0,0,5.27-1.08,13.53,13.53,0,0,0,7.38-7.06,12,12,0,0,0,1.08-5,12.42,12.42,0,0,0-1.08-5.08,12.8,12.8,0,0,0-2.92-4.19,13.72,13.72,0,0,0-9.72-4h-8.91Z"/><path class="df321d5b-ea58-4707-ba11-a8ad3d125319" d="M437.85,423a2.25,2.25,0,0,1-2-3.24l15-30.87a2.3,2.3,0,0,1,2-1.26,2.25,2.25,0,0,1,2,1.26l15.07,30.82a2.25,2.25,0,0,1-4,2l-3.51-7.25a16,16,0,0,0-7.47-.27,26.91,26.91,0,0,0-7.69,2.74,40.18,40.18,0,0,0-7.83,5.45A2.22,2.22,0,0,1,437.85,423Zm15-28-9,18.67c.41-.23.81-.45,1.26-.67a31.09,31.09,0,0,1,9-3.24,21.59,21.59,0,0,1,5.85-.32Z"/><path class="bd3ccd72-5292-4b8f-90d9-8ef2d61b3029" d="M226,405.24a17.74,17.74,0,0,1-35.48,0q.3-5.3,4.58-13.44t8.56-14.7q4.27-6.51,4.57-6.87.37.36,4.64,6.87t8.5,14.7q4.28,8.13,4.64,13.44"/><path class="5bea4741-37a2-47fb-9276-3ecb79e3666a" d="M222.43,409.44a13.85,13.85,0,0,1-27.69,0q.24-4.14,3.57-10.49T205,387.48q3.33-5.08,3.57-5.36.29.28,3.62,5.36T218.81,399q3.34,6.35,3.62,10.49Z"/></g></g></svg>