<svg id="0ee1f99d-5681-4548-86f3-7cb14b440cc0" data-name="Layer 1" xmlns="http://www.w3.org/2000/svg" viewBox="0 0 512 512"><defs><style>.\35 4321823-4b5d-45bb-9067-2838fd2b3d31{fill:#fff;}.\30 62d1831-b380-42ee-877f-3eb4cff29506{font-size:86px;font-family:RobotoSlab-Bold, Roboto Slab;font-weight:700;}.\30 62d1831-b380-42ee-877f-3eb4cff29506,.\34 11d4d95-d83a-4e3a-9f26-3dd67ace8b88,.\34 1bc980a-934b-4a2b-af10-22aa670dcdc5{fill:#4183d7;stroke:#fff;stroke-miterlimit:10;}.\31 bee0045-7666-4a28-b6ed-a19c90190c01{letter-spacing:-0.02em;}.\34 1bc980a-934b-4a2b-af10-22aa670dcdc5{font-size:41px;font-family:PTSans-Regular, PT Sans;}.\34 ba04219-e6ff-4108-bab1-c37c0ab4b921{letter-spacing:-0.03em;}.bddea62f-f2bd-40fc-a142-163a109d8d7e{letter-spacing:-0.03em;}.ea9756ad-119e-4e35-a15f-4ea4d292bf2e{letter-spacing:-0.02em;}.\39 6ae0590-7e99-45b4-bd25-91a5db74bd50{letter-spacing:0em;}.\36 4728b0b-cce6-4eae-94bb-f8aa6e80fe1b{letter-spacing:-0.08em;}.\32 718fcbd-724b-4e78-8099-d11ce3de2e1d{letter-spacing:-0.03em;}.f1aecafd-6034-4ae2-94f5-165a01351432{letter-spacing:-0.04em;}</style></defs><title>Artboard 1</title><path d="M151,233v36H50v.5H151.5V233Z"/><path class="54321823-4b5d-45bb-9067-2838fd2b3d31" d="M151,232.5V269H49.5v1H152V232.5Z"/><text class="062d1831-b380-42ee-877f-3eb4cff29506" transform="translate(36.57 215.27)">MINIA<tspan class="1bee0045-7666-4a28-b6ed-a19c90190c01" x="269.09" y="0">R</tspan><tspan x="326.11" y="0">TE</tspan></text><text class="41bc980a-934b-4a2b-af10-22aa670dcdc5" transform="translate(37.39 360.25)"><tspan class="4ba04219-e6ff-4108-bab1-c37c0ab4b921">C</tspan><tspan x="22.35" y="0">ONSTRU</tspan><tspan class="bddea62f-f2bd-40fc-a142-163a109d8d7e" x="173.63" y="0">Ç</tspan><tspan class="ea9756ad-119e-4e35-a15f-4ea4d292bf2e" x="195.9" y="0">Ã</tspan><tspan class="96ae0590-7e99-45b4-bd25-91a5db74bd50" x="218.86" y="0">O CIVIL</tspan><tspan class="64728b0b-cce6-4eae-94bb-f8aa6e80fe1b" x="349.6" y="0">,</tspan><tspan x="355.63" y="0" xml:space="preserve"> L</tspan><tspan class="2718fcbd-724b-4e78-8099-d11ce3de2e1d" x="387.77" y="0">D</tspan><tspan class="f1aecafd-6034-4ae2-94f5-165a01351432" x="413.56" y="0">A</tspan></text><path class="411d4d95-d83a-4e3a-9f26-3dd67ace8b88" d="M111.1,238.77v44h1.42v-44Z"/><path class="411d4d95-d83a-4e3a-9f26-3dd67ace8b88" d="M112.52,281.39v.71H255.29v-.71Zm-1.42-42.62v44H256.71v-44Zm1.42,1.42H255.29v41.2H112.52Zm0,41.2v.71H255.29v-.71Z"/><rect class="411d4d95-d83a-4e3a-9f26-3dd67ace8b88" x="111.81" y="239.48" width="144.19" height="42.62"/><rect class="411d4d95-d83a-4e3a-9f26-3dd67ace8b88" x="256" y="239.48" width="144.19" height="42.62"/><path class="411d4d95-d83a-4e3a-9f26-3dd67ace8b88" d="M256.71,281.39v.71H399.48v-.71Zm-1.42-42.62v44H400.9v-44Zm1.42,1.42H399.48v41.2H256.71Zm0,41.2v.71H399.48v-.71Z"/><path class="411d4d95-d83a-4e3a-9f26-3dd67ace8b88" d="M399.48,238.77v44h1.42v-44Z"/><rect class="411d4d95-d83a-4e3a-9f26-3dd67ace8b88" x="39.71" y="282.1" width="144.19" height="42.62"/><path class="411d4d95-d83a-4e3a-9f26-3dd67ace8b88" d="M39,281.39v44H184.61v-44ZM183.19,324H40.42v-41.2H183.19Z"/><rect class="411d4d95-d83a-4e3a-9f26-3dd67ace8b88" x="183.9" y="282.1" width="144.19" height="42.62"/><path class="411d4d95-d83a-4e3a-9f26-3dd67ace8b88" d="M184.61,282.1v.71H327.39v-.71Zm-1.42-.71v44H328.81v-44ZM327.39,324H184.61v-41.2H327.39ZM184.61,282.1v.71H327.39v-.71Z"/><rect class="411d4d95-d83a-4e3a-9f26-3dd67ace8b88" x="328.1" y="282.1" width="144.19" height="42.62"/><path class="411d4d95-d83a-4e3a-9f26-3dd67ace8b88" d="M328.81,282.1v.71H471.58v-.71Zm-1.42-.71v44H473v-44ZM471.58,324H328.81v-41.2H471.58ZM328.81,282.1v.71H471.58v-.71Z"/><path class="411d4d95-d83a-4e3a-9f26-3dd67ace8b88" d="M471.58,281.39v44H473v-44Z"/></svg>