<svg xmlns="http://www.w3.org/2000/svg" viewBox="0 0 482 482"><defs><style>.\35 913e019-be41-4d58-99b9-3553c29f7517{fill:#fff;}.\31 0146e56-f5e5-4ece-97c2-bd303d46f369,.\35 913e019-be41-4d58-99b9-3553c29f7517{stroke:#fff;stroke-miterlimit:10;}.\31 0146e56-f5e5-4ece-97c2-bd303d46f369{fill:none;stroke-width:10px;}</style></defs><title>Asset 1</title><g id="be6713bf-842d-4e36-b5bd-b099dbb09b60" data-name="Layer 2"><g id="f0904980-664f-4dac-b1ad-997ab19e122d" data-name="Layer 2"><path class="5913e019-be41-4d58-99b9-3553c29f7517" d="M123.59,137.7A35.34,35.34,0,0,0,131.52,149a39.21,39.21,0,0,0,11.58,7.69,34.51,34.51,0,0,0,14,2.83,37.08,37.08,0,0,0,14.52-2.9,39.79,39.79,0,0,0,11.94-7.73c.15-.15.29-.3.44-.44h84.75l-81,115.66-.19-84.1-61.27.14.46,205,32.54-.07H298a37.57,37.57,0,0,0,10.42,6.32,38.19,38.19,0,0,0,14.53,2.77,35.49,35.49,0,0,0,14-2.77,37.07,37.07,0,0,0,11.56-7.7,36.3,36.3,0,0,0,7.9-11.47,34.36,34.36,0,0,0,2.87-14,33.17,33.17,0,0,0-2.87-13.74,35.45,35.45,0,0,0-7.9-11.27A39.28,39.28,0,0,0,337,325.4a34.37,34.37,0,0,0-14-2.87,37,37,0,0,0-14.53,2.87,39.38,39.38,0,0,0-12,7.7l-.5.5h-83.7L292.5,219v83h61.28V97H182a37.36,37.36,0,0,0-10.5-6.36A38.39,38.39,0,0,0,157,87.92a35.43,35.43,0,0,0-14,2.8A36.7,36.7,0,0,0,133,97h0l0,0c-.41.36-.81.73-1.21,1.11l-.09.09h0l-.22.2a36.56,36.56,0,0,0-7.88,11.48,34.58,34.58,0,0,0-2.83,14A33.12,33.12,0,0,0,123.59,137.7Z"/><circle class="10146e56-f5e5-4ece-97c2-bd303d46f369" cx="241" cy="241" r="236"/></g></g></svg>