<svg xmlns="http://www.w3.org/2000/svg" viewBox="0 0 512 918"><defs><style>.\31 562b831-cc6d-4bfe-a9af-87eeb219f78c{fill:#fff;}</style></defs><title>Artboard 4</title><g id="99161ff1-ac63-4127-ad0a-c21df80241b2" data-name="Layer 4"><path d="M158,315.14v-.86l4-.24V282.48l-4-.24v-1.1h14v1.08l-4,.24V313.2q4.23.26,5.79.26t2.51-.07a10.43,10.43,0,0,0,2-.31,11.11,11.11,0,0,0,1.51-.49,3.63,3.63,0,0,0,1.16-.81,6.7,6.7,0,0,0,.88-1.08,11.73,11.73,0,0,0,.88-2.07,27.88,27.88,0,0,0,1-3.49H183v10Z"/><path d="M184,315.14V314l2.88-.24,11.26-33.66h1.07l11.64,33.66L214,314v1.1H202V314l3.28-.24-2.86-8.65H191.54l-2.82,8.65L192,314v1.11Zm7.87-11.07,9.79-.19-4.8-14.73h-.1Z"/><path d="M229.65,298.61a25.83,25.83,0,0,1,.51-5.08,22.18,22.18,0,0,1,1.65-5,18.9,18.9,0,0,1,2.76-4.36A13.07,13.07,0,0,1,251.25,282a5.93,5.93,0,0,1,2.88,4.87,3.91,3.91,0,0,1-.87,2.57,2.93,2.93,0,0,1-2.39,1.06,3,3,0,0,1-2.3-1,3.5,3.5,0,0,1-.89-2.46,3.43,3.43,0,0,1,.93-2.56,3.26,3.26,0,0,1,2.39-.92v1.12a6,6,0,0,0-2.06-1.25,9.32,9.32,0,0,0-3.72-.68,8,8,0,0,0-5.36,1.92,11.81,11.81,0,0,0-3.43,5.31,24,24,0,0,0-1.16,7.82q0,1.52.1,2.92a27.17,27.17,0,0,0,.39,3,20,20,0,0,0,.74,2.88,12.7,12.7,0,0,0,1.2,2.54,8.81,8.81,0,0,0,1.74,2.08,7.46,7.46,0,0,0,2.4,1.36,9.09,9.09,0,0,0,3.1.51,14.15,14.15,0,0,0,4.09-.66V300.69l-4-.26v-1.29h13v1.29l-4,.26v12.7a14.61,14.61,0,0,1-4.59,1.82,24.62,24.62,0,0,1-5.63.65Q229.65,315.86,229.65,298.61Z"/><path d="M261,315.14V314l4-.24V282.47l-4-.24v-1.1h13.07a22.59,22.59,0,0,1,4.72.45,12.59,12.59,0,0,1,3.77,1.43,6.8,6.8,0,0,1,2.57,2.63,8.05,8.05,0,0,1,.91,3.92,7.84,7.84,0,0,1-2.71,6.35,14.34,14.34,0,0,1-7.32,2.94v0a9,9,0,0,1,3.43.64,6.43,6.43,0,0,1,2.31,1.58,11.84,11.84,0,0,1,1.64,2.49q.52,1,1.47,3.21t1.9,3.82a8,8,0,0,0,1.58,2.1,4,4,0,0,0,1.39.91,4.57,4.57,0,0,0,1.3.17v1.31h-2.44a16.64,16.64,0,0,1-3.12-.23,5.53,5.53,0,0,1-2.27-1.09,8,8,0,0,1-2-2.39q-.88-1.52-3-6.37-.31-.72-.9-1.86a13.69,13.69,0,0,0-1-1.73,15.48,15.48,0,0,0-1-1.24,3.72,3.72,0,0,0-1.19-.92,3.1,3.1,0,0,0-1.29-.28q-1.14,0-1.74,0V313.8l4,.24v1.1Zm10-17.57q.26,0,1,0,4.27,0,6-2.08t1.74-6.21a10.93,10.93,0,0,0-.49-3.51,5,5,0,0,0-1.4-2.24,5.49,5.49,0,0,0-2-1.13,8.64,8.64,0,0,0-2.52-.34,17.1,17.1,0,0,0-2.3.19Z"/><path d="M292,315.14V314l4-.24V282.47l-4-.24v-1.1h13v1.1l-4,.24v31.33l4,.24v1.1Z"/><path d="M354,282.24v-1.1H309v1.1l4,.24v31.33l-4,.24v1.1h14V314l-5-.24V298.14h2.54a5.72,5.72,0,0,1,3.6,1.55c.72.85,1.08,2.38,1.08,4.45H327v-13h-1.79a13,13,0,0,1-.31,3.3,3.1,3.1,0,0,1-1.1,1.75A4.21,4.21,0,0,1,322,297a15.69,15.69,0,0,1-2.69.18,2.09,2.09,0,0,1-.34,0V282.34a18.9,18.9,0,0,1,3.79-.24,9.12,9.12,0,0,1,3.5.6,5.05,5.05,0,0,1,2.27,1.79,8.72,8.72,0,0,1,1.24,2.61c.27,1,.58,3,.58,3h1.76a20.7,20.7,0,0,1,.58-3,8.72,8.72,0,0,1,1.24-2.61,5.05,5.05,0,0,1,2.27-1.79,9.12,9.12,0,0,1,3.5-.6,29.86,29.86,0,0,1,4.29.24v14.78l-.83,0a15.69,15.69,0,0,1-2.69-.18,4.21,4.21,0,0,1-1.78-.77,3.1,3.1,0,0,1-1.1-1.75,13,13,0,0,1-.31-3.3H336v13h1.35q0-3.38,1.11-4.69a4.6,4.6,0,0,1,3.69-1.31l1.85,0v15.6l-5,.25v1.13h15V314l-4-.24V282.47Z"/><path d="M354,131v-4.84H158V131L174,132V270.25l-16,1.05v4.84h63v-4.83l-20-1.05V203.14l8.4-.11q11.17,0,16,5.69t4.79,20.41H236v-56h-6.42a52.06,52.06,0,0,1-1.37,13,13.57,13.57,0,0,1-4.83,7.65,18.41,18.41,0,0,1-7.77,3.37,68.66,68.66,0,0,1-11.76.79c-.28,0-1.3,0-2.85-.11V133.11c3.86-.7,9.92-1.05,18-1.05a39.92,39.92,0,0,1,15.33,2.63,22.11,22.11,0,0,1,9.92,7.83A38.17,38.17,0,0,1,249.64,154c1.19,4.17,2.52,15.18,2.52,15.18h7.68A79.66,79.66,0,0,1,262.36,154a38.17,38.17,0,0,1,5.41-11.44,22.11,22.11,0,0,1,9.92-7.83A39.92,39.92,0,0,1,293,132.06c8.05,0,14.11.35,18,1.05V197.8c-1.55.07-2.57.11-2.85.11a68.66,68.66,0,0,1-11.76-.79,18.41,18.41,0,0,1-7.77-3.37,13.57,13.57,0,0,1-4.83-7.65,52.06,52.06,0,0,1-1.37-13H276v56h5.86q0-14.66,4.8-20.33t16-5.67l8.36.11v67l-20,1.05v4.85h63v-4.84l-16-1.05V132Z"/><rect y="479" width="512" height="439"/><path class="1562b831-cc6d-4bfe-a9af-87eeb219f78c" d="M158,793.14v-.86l4-.24V760.48l-4-.24v-1.1h14v1.08l-4,.24V791.2q4.23.26,5.79.26t2.51-.07a10.43,10.43,0,0,0,2-.31,11.11,11.11,0,0,0,1.51-.49,3.63,3.63,0,0,0,1.16-.81,6.7,6.7,0,0,0,.88-1.08,11.73,11.73,0,0,0,.88-2.07,27.88,27.88,0,0,0,1-3.49H183v10Z"/><path class="1562b831-cc6d-4bfe-a9af-87eeb219f78c" d="M184,793.14V792l2.88-.24,11.26-33.66h1.07l11.64,33.66L214,792v1.1H202V792l3.28-.24-2.86-8.65H191.54l-2.82,8.65L192,792v1.11Zm7.87-11.07,9.79-.19-4.8-14.73h-.1Z"/><path class="1562b831-cc6d-4bfe-a9af-87eeb219f78c" d="M229.65,776.61a25.83,25.83,0,0,1,.51-5.08,22.18,22.18,0,0,1,1.65-5,18.9,18.9,0,0,1,2.76-4.36A13.07,13.07,0,0,1,251.25,760a5.93,5.93,0,0,1,2.88,4.87,3.91,3.91,0,0,1-.87,2.57,2.93,2.93,0,0,1-2.39,1.06,3,3,0,0,1-2.3-1,3.5,3.5,0,0,1-.89-2.46,3.43,3.43,0,0,1,.93-2.56,3.26,3.26,0,0,1,2.39-.92v1.12a6,6,0,0,0-2.06-1.25,9.32,9.32,0,0,0-3.72-.68,8,8,0,0,0-5.36,1.92,11.81,11.81,0,0,0-3.43,5.31,24,24,0,0,0-1.16,7.82q0,1.52.1,2.92a27.17,27.17,0,0,0,.39,3,20,20,0,0,0,.74,2.88,12.7,12.7,0,0,0,1.2,2.54,8.81,8.81,0,0,0,1.74,2.08,7.46,7.46,0,0,0,2.4,1.36,9.09,9.09,0,0,0,3.1.51,14.15,14.15,0,0,0,4.09-.66V778.69l-4-.26v-1.29h13v1.29l-4,.26v12.7a14.61,14.61,0,0,1-4.59,1.82,24.62,24.62,0,0,1-5.63.65Q229.65,793.86,229.65,776.61Z"/><path class="1562b831-cc6d-4bfe-a9af-87eeb219f78c" d="M261,793.14V792l4-.24V760.47l-4-.24v-1.1h13.07a22.59,22.59,0,0,1,4.72.45,12.59,12.59,0,0,1,3.77,1.43,6.8,6.8,0,0,1,2.57,2.63,8.05,8.05,0,0,1,.91,3.92,7.84,7.84,0,0,1-2.71,6.35,14.34,14.34,0,0,1-7.32,2.94v0a9,9,0,0,1,3.43.64,6.43,6.43,0,0,1,2.31,1.58,11.84,11.84,0,0,1,1.64,2.49q.52,1,1.47,3.21t1.9,3.82a8,8,0,0,0,1.58,2.1,4,4,0,0,0,1.39.91,4.57,4.57,0,0,0,1.3.17v1.31h-2.44a16.64,16.64,0,0,1-3.12-.23,5.53,5.53,0,0,1-2.27-1.09,8,8,0,0,1-2-2.39q-.88-1.52-3-6.37-.31-.72-.9-1.86a13.69,13.69,0,0,0-1-1.73,15.48,15.48,0,0,0-1-1.24,3.72,3.72,0,0,0-1.19-.92,3.1,3.1,0,0,0-1.29-.28q-1.14,0-1.74,0V791.8l4,.24v1.1Zm10-17.57q.26,0,1,0,4.27,0,6-2.08t1.74-6.21a10.93,10.93,0,0,0-.49-3.51,5,5,0,0,0-1.4-2.24,5.49,5.49,0,0,0-2-1.13,8.64,8.64,0,0,0-2.52-.34,17.1,17.1,0,0,0-2.3.19Z"/><path class="1562b831-cc6d-4bfe-a9af-87eeb219f78c" d="M292,793.14V792l4-.24V760.47l-4-.24v-1.1h13v1.1l-4,.24v31.33l4,.24v1.1Z"/><path class="1562b831-cc6d-4bfe-a9af-87eeb219f78c" d="M354,760.24v-1.1H309v1.1l4,.24v31.33l-4,.24v1.1h14V792l-5-.24V776.14h2.54a5.72,5.72,0,0,1,3.6,1.55c.72.85,1.08,2.38,1.08,4.45H327v-13h-1.79a13,13,0,0,1-.31,3.3,3.1,3.1,0,0,1-1.1,1.75A4.21,4.21,0,0,1,322,775a15.69,15.69,0,0,1-2.69.18,2.09,2.09,0,0,1-.34,0V760.34a18.9,18.9,0,0,1,3.79-.24,9.12,9.12,0,0,1,3.5.6,5.05,5.05,0,0,1,2.27,1.79,8.72,8.72,0,0,1,1.24,2.61c.27,1,.58,3,.58,3h1.76a20.7,20.7,0,0,1,.58-3,8.72,8.72,0,0,1,1.24-2.61,5.05,5.05,0,0,1,2.27-1.79,9.12,9.12,0,0,1,3.5-.6,29.86,29.86,0,0,1,4.29.24v14.78l-.83,0a15.69,15.69,0,0,1-2.69-.18,4.21,4.21,0,0,1-1.78-.77,3.1,3.1,0,0,1-1.1-1.75,13,13,0,0,1-.31-3.3H336v13h1.35q0-3.38,1.11-4.69a4.6,4.6,0,0,1,3.69-1.31l1.85,0v15.6l-5,.25v1.13h15V792l-4-.24V760.47Z"/><path class="1562b831-cc6d-4bfe-a9af-87eeb219f78c" d="M354,609v-4.84H158V609L174,610V748.25l-16,1.05v4.84h63v-4.83l-20-1.05V681.14l8.4-.11q11.17,0,16,5.69t4.79,20.41H236v-56h-6.42a52.06,52.06,0,0,1-1.37,13,13.57,13.57,0,0,1-4.83,7.65,18.41,18.41,0,0,1-7.77,3.37,68.66,68.66,0,0,1-11.76.79c-.28,0-1.3,0-2.85-.11V611.11c3.86-.7,9.92-1.05,18-1.05a39.92,39.92,0,0,1,15.33,2.63,22.11,22.11,0,0,1,9.92,7.83A38.17,38.17,0,0,1,249.64,632c1.19,4.17,2.52,15.18,2.52,15.18h7.68A79.66,79.66,0,0,1,262.36,632a38.17,38.17,0,0,1,5.41-11.44,22.11,22.11,0,0,1,9.92-7.83A39.92,39.92,0,0,1,293,610.06c8.05,0,14.11.35,18,1.05V675.8c-1.55.07-2.57.11-2.85.11a68.66,68.66,0,0,1-11.76-.79,18.41,18.41,0,0,1-7.77-3.37,13.57,13.57,0,0,1-4.83-7.65,52.06,52.06,0,0,1-1.37-13H276v56h5.86q0-14.66,4.8-20.33t16-5.67l8.36.11v67l-20,1.05v4.85h63v-4.84l-16-1.05V610Z"/></g></svg>