<svg xmlns="http://www.w3.org/2000/svg" viewBox="0 0 512 512"><defs><style>.\35 461ca65-edf0-4d08-bf39-8947812d8afb{fill:#332e2e;}.\34 e2d6f92-d56e-49ad-9772-16d608c57b7d{fill:#f3f2f0;stroke-width:5px;}.\34 e2d6f92-d56e-49ad-9772-16d608c57b7d,.cc81d466-62a6-4e02-9112-09dd202824b8{stroke:#444;}.\34 e2d6f92-d56e-49ad-9772-16d608c57b7d,.b66dd899-d863-40fe-aa17-4f4feda0944e,.cc81d466-62a6-4e02-9112-09dd202824b8{stroke-miterlimit:10;}.b66dd899-d863-40fe-aa17-4f4feda0944e,.c534745f-cee2-402c-9ad7-460f5aba46c3,.cc81d466-62a6-4e02-9112-09dd202824b8{fill:#fff;}.b66dd899-d863-40fe-aa17-4f4feda0944e{stroke:#c33;stroke-width:2px;}.\34 746ef51-bddf-49e4-91ff-84908c4a797e{fill:#b32424;}</style></defs><title>Artboard 3</title><g id="d7bcb160-53d9-4076-b0e4-77e55b428ab4" data-name="Layer 3"><rect class="5461ca65-edf0-4d08-bf39-8947812d8afb" width="512" height="512"/><path class="4e2d6f92-d56e-49ad-9772-16d608c57b7d" d="M387.62,153.42A25.07,25.07,0,0,0,373,147q-46.12,31.21-70.8,49-8.85,6.5-14.36,10.12c-.26.18-.54.35-.83.53h0l-.05,0a64.23,64.23,0,0,1-5.62,3.15c-1.81.92-3.78,1.83-5.92,2.76l-.6.25h0l-1.64.69a46.72,46.72,0,0,1-14.62,3.7c-.83.06-1.64.09-2.45.09h-.3c-.95,0-1.92,0-2.9-.13a41,41,0,0,1-7.9-1.47,49.16,49.16,0,0,1-4.67-1.56c-.53-.19-1.06-.4-1.6-.63s-1.18-.49-1.75-.73c-2.33-1-4.48-2-6.43-3q-3.21-1.62-5.73-3.23a0,0,0,0,0,0,0c-.25-.15-.5-.32-.74-.48q-5.51-3.63-14.36-10.12Q190,181.6,139,147c-6.62.52-11.83,2.89-15.61,7.15Q117,161.37,117,172.26V252a24.84,24.84,0,0,0,24.83,24.75H370.17A24.84,24.84,0,0,0,395,252V169.19Q395,160,387.62,153.42Z"/><path class="b66dd899-d863-40fe-aa17-4f4feda0944e" d="M387.62,153.42A25.07,25.07,0,0,0,373,147c-.94-.09-1.9-.14-2.87-.14H141.83c-1,0-1.88,0-2.79.1-6.62.52-11.83,2.89-15.61,7.15Q117,161.37,117,172.26q0,8.79,8.53,19a73.77,73.77,0,0,0,18.16,16.11q5.27,3.36,31.79,19.88t40.65,25.48c1,.64,3.24,2.07,6.59,4.25s6.15,4,8.37,5.3,4.92,2.86,8.08,4.54a48.47,48.47,0,0,0,8.91,3.76,26.81,26.81,0,0,0,7.77,1.27h.3a26.81,26.81,0,0,0,7.77-1.27,49.9,49.9,0,0,0,8.91-3.76c3.16-1.68,5.84-3.19,8.08-4.54s5-3.11,8.36-5.3,5.57-3.61,6.6-4.25q14.27-9,72.61-45.37a70.27,70.27,0,0,0,18.91-17.16Q395,180.2,395,169.19,395,160,387.62,153.42Z"/><polygon class="c534745f-cee2-402c-9ad7-460f5aba46c3" points="249.22 231.9 257.98 218.26 249.22 231.9 249.22 231.9"/><path class="4746ef51-bddf-49e4-91ff-84908c4a797e" d="M274.77,192.08l0-11.41,1.5,0H235.7c.13.11.27.21.38.33a8.06,8.06,0,0,1,1.61,2.48,7.83,7.83,0,0,1,.59,3,7.56,7.56,0,0,1-.59,3,7.87,7.87,0,0,1-1.5,2.3h24.24l-11.6,18.09h14.52Z"/><path class="c534745f-cee2-402c-9ad7-460f5aba46c3" d="M281.14,229.43a7.06,7.06,0,0,0-1.49.17,7.06,7.06,0,0,1,1.49-.17Z"/><path class="c534745f-cee2-402c-9ad7-460f5aba46c3" d="M278.94,229.81a6.84,6.84,0,0,0-.69.28,8,8,0,0,0-1.27.74,8,8,0,0,1,1.27-.74A6.84,6.84,0,0,1,278.94,229.81Z"/><path class="c534745f-cee2-402c-9ad7-460f5aba46c3" d="M287.81,234.07a7.61,7.61,0,0,1,.51,2.2A7.61,7.61,0,0,0,287.81,234.07Z"/><path class="c534745f-cee2-402c-9ad7-460f5aba46c3" d="M281.2,244.92a6.87,6.87,0,0,0,1.44-.17,6.87,6.87,0,0,1-1.44.17Z"/><path class="c534745f-cee2-402c-9ad7-460f5aba46c3" d="M287.13,232.77a7.49,7.49,0,0,0-.9-1.12,7.71,7.71,0,0,0-2.3-1.64,7.71,7.71,0,0,1,2.3,1.64A7.49,7.49,0,0,1,287.13,232.77Z"/><path class="4746ef51-bddf-49e4-91ff-84908c4a797e" d="M274.77,192.08l.12,26.84a6.1,6.1,0,0,0,.13,1.23,6.1,6.1,0,0,1-.13-1.23l0-9.05H287l0,9-.14-32.23a6.08,6.08,0,0,0-6.17-6.06l-4.53.06-1.5,0Z"/><path class="c534745f-cee2-402c-9ad7-460f5aba46c3" d="M225.34,239.35a6.11,6.11,0,0,0,2.2,2.68A6.11,6.11,0,0,1,225.34,239.35Z"/><path class="4746ef51-bddf-49e4-91ff-84908c4a797e" d="M224.87,209.87H237v18.41h0V204.74a6.08,6.08,0,1,0-12.16,0V237a6.06,6.06,0,0,0,.48,2.37,6.06,6.06,0,0,1-.48-2.37Z"/><path class="4746ef51-bddf-49e4-91ff-84908c4a797e" d="M238.29,186.5a7.83,7.83,0,0,0-.59-3,8.06,8.06,0,0,0-1.61-2.48c-.12-.12-.26-.22-.38-.33a7.38,7.38,0,0,0-2-1.34,7,7,0,0,0-2.88-.6,6.55,6.55,0,0,0-2.79.6,7.36,7.36,0,0,0-2.3,1.67,7.94,7.94,0,0,0-1.57,2.48,8.06,8.06,0,0,0-.57,3,7.8,7.8,0,0,0,4.43,7.09,6.35,6.35,0,0,0,2.79.62,6.83,6.83,0,0,0,2.88-.62,7.84,7.84,0,0,0,2.37-1.67l.11-.14a7.87,7.87,0,0,0,1.5-2.3A7.56,7.56,0,0,0,238.29,186.5Z"/><path class="5461ca65-edf0-4d08-bf39-8947812d8afb" d="M274.32,240.27a7.79,7.79,0,0,1-.6-3q0-.4,0-.78a7.46,7.46,0,0,1,.54-2.2,8.17,8.17,0,0,1,.69-1.31,7.84,7.84,0,0,1,.82-1H249.22L258,218.26l5.38-8.39H248.84L237,228.28h0V243H276.3c-.12-.11-.25-.19-.36-.31A8,8,0,0,1,274.32,240.27Z"/><path class="5461ca65-edf0-4d08-bf39-8947812d8afb" d="M274.85,209.87l0,9.05a6.08,6.08,0,0,0,6.17,6.06h0a6.08,6.08,0,0,0,6-6.11l0-9Z"/><path class="5461ca65-edf0-4d08-bf39-8947812d8afb" d="M288.32,236.27a7.61,7.61,0,0,0-.51-2.2,7.89,7.89,0,0,0-.68-1.3,7.49,7.49,0,0,0-.9-1.12,7.71,7.71,0,0,0-2.3-1.64,6.16,6.16,0,0,0-1.35-.45,6.6,6.6,0,0,0-1.44-.14h0a7.06,7.06,0,0,0-1.49.17,6.73,6.73,0,0,0-.71.2,6.84,6.84,0,0,0-.69.28,8,8,0,0,0-1.27.74,7.9,7.9,0,0,0-1.1,1l-.09.11a7.84,7.84,0,0,0-.82,1,8.17,8.17,0,0,0-.69,1.31,7.46,7.46,0,0,0-.54,2.2q0,.38,0,.78a7.79,7.79,0,0,0,.6,3,8,8,0,0,0,1.62,2.46c.11.12.25.2.36.31a7.28,7.28,0,0,0,2,1.33,7,7,0,0,0,2.89.56h0a6.87,6.87,0,0,0,1.44-.17,6.45,6.45,0,0,0,1.34-.47,7.34,7.34,0,0,0,1.22-.73,7.66,7.66,0,0,0,1.07-1,7.9,7.9,0,0,0,.89-1.17,8.3,8.3,0,0,0,.67-1.34,7.8,7.8,0,0,0,.42-1.47,8.57,8.57,0,0,0,.14-1.58C288.39,236.77,288.34,236.52,288.32,236.27Z"/><path class="5461ca65-edf0-4d08-bf39-8947812d8afb" d="M237,228.28V209.87H224.87V237a6.08,6.08,0,0,0,6.08,6.08H237V228.28Z"/><path class="cc81d466-62a6-4e02-9112-09dd202824b8" d="M116.93,355.84a8.5,8.5,0,1,0,17,0V331.25h-17Z"/><path class="cc81d466-62a6-4e02-9112-09dd202824b8" d="M144.92,353.49a8,8,0,0,0-1.1,2.08,6.74,6.74,0,0,0-.4,2.27v.4a6.1,6.1,0,0,0,6.1,6.1h43.6a6.5,6.5,0,0,0,0-13h-28.2L179,331.25h-18.5Z"/><path class="cc81d466-62a6-4e02-9112-09dd202824b8" d="M209.92,331.25v24.59a8.5,8.5,0,0,0,16.85,1.55V331.25Z"/><path class="cc81d466-62a6-4e02-9112-09dd202824b8" d="M256.55,331.25c0,.28,0,.55,0,.84v27.8a4.45,4.45,0,1,0,8.9,0v-27.8c0-.29,0-.56,0-.84h-9Z"/><path class="cc81d466-62a6-4e02-9112-09dd202824b8" d="M294.74,325.64c.1.44.18.9.26,1.37C294.93,326.55,294.85,326.09,294.74,325.64Z"/><path class="cc81d466-62a6-4e02-9112-09dd202824b8" d="M295.08,327.42q.13.88.21,1.82C295.24,328.62,295.17,328,295.08,327.42Z"/><path class="cc81d466-62a6-4e02-9112-09dd202824b8" d="M295.4,331.25h-8.9c0,.28,0,.55,0,.84v27.8a4.45,4.45,0,1,0,8.9,0v-27.8c0-1-.05-1.91-.13-2.82Q295.37,330.23,295.4,331.25Z"/><path class="cc81d466-62a6-4e02-9112-09dd202824b8" d="M256.35,328.73l0-.11Z"/><path class="cc81d466-62a6-4e02-9112-09dd202824b8" d="M256.15,327.59l0-.19Z"/><path class="cc81d466-62a6-4e02-9112-09dd202824b8" d="M255.55,325.52c0-.12-.1-.23-.15-.35C255.46,325.29,255.51,325.4,255.55,325.52Z"/><path class="cc81d466-62a6-4e02-9112-09dd202824b8" d="M256.48,330v0Z"/><path class="cc81d466-62a6-4e02-9112-09dd202824b8" d="M255.15,324.6c-.08-.16-.17-.3-.25-.45C255,324.3,255.07,324.44,255.15,324.6Z"/><path class="cc81d466-62a6-4e02-9112-09dd202824b8" d="M254.68,323.76a8.07,8.07,0,0,0-.55-.77A8.16,8.16,0,0,1,254.68,323.76Z"/><path class="cc81d466-62a6-4e02-9112-09dd202824b8" d="M265.84,328.59c0,.13-.06.26-.08.4C265.78,328.85,265.81,328.72,265.84,328.59Z"/><path class="cc81d466-62a6-4e02-9112-09dd202824b8" d="M285.44,325.62c0-.12-.11-.23-.16-.35C285.33,325.39,285.39,325.5,285.44,325.62Z"/><path class="cc81d466-62a6-4e02-9112-09dd202824b8" d="M286.42,330v0Z"/><path class="cc81d466-62a6-4e02-9112-09dd202824b8" d="M286.07,327.67l0-.19Z"/><path class="cc81d466-62a6-4e02-9112-09dd202824b8" d="M285,324.7c-.08-.16-.18-.31-.27-.46C284.83,324.39,284.93,324.54,285,324.7Z"/><path class="cc81d466-62a6-4e02-9112-09dd202824b8" d="M285.79,326.61l-.09-.27Z"/><path class="cc81d466-62a6-4e02-9112-09dd202824b8" d="M286.28,328.79l0-.11Z"/><path class="cc81d466-62a6-4e02-9112-09dd202824b8" d="M255.88,326.52l-.08-.26Z"/><path class="cc81d466-62a6-4e02-9112-09dd202824b8" d="M266.35,326.82a11.19,11.19,0,0,0-.35,1.07C266.11,327.52,266.22,327.16,266.35,326.82Z"/><path class="cc81d466-62a6-4e02-9112-09dd202824b8" d="M284.51,323.85a8.6,8.6,0,0,0-.58-.78A8.71,8.71,0,0,1,284.51,323.85Z"/><path class="cc81d466-62a6-4e02-9112-09dd202824b8" d="M265.61,330l0,.14Z"/><path class="cc81d466-62a6-4e02-9112-09dd202824b8" d="M226.78,331.25v28.64a4.45,4.45,0,1,0,8.9,0V331.25h-8.9Z"/><path class="cc81d466-62a6-4e02-9112-09dd202824b8" d="M335.37,323.81a8.46,8.46,0,0,0-.57-.78A8.56,8.56,0,0,1,335.37,323.81Z"/><path class="cc81d466-62a6-4e02-9112-09dd202824b8" d="M345.73,327.58q.14.87.22,1.78C345.9,328.76,345.83,328.16,345.73,327.58Z"/><path class="cc81d466-62a6-4e02-9112-09dd202824b8" d="M346,330.33c0,.3,0,.61,0,.92H337.3c0,.25,0,.5,0,.77v4a65.4,65.4,0,0,0-14.55,1.38,34.56,34.56,0,0,0-9.63,3.54,14.56,14.56,0,0,0-5.32,4.94,11.23,11.23,0,0,0-1.65,5.8,14.69,14.69,0,0,0,1.12,6,11.75,11.75,0,0,0,3,4.19,12.5,12.5,0,0,0,4.47,2.48,17.74,17.74,0,0,0,5.53.83,25.85,25.85,0,0,0,5.27-.5,20.64,20.64,0,0,0,4.48-1.47,22.44,22.44,0,0,0,4-2.4q1.89-1.42,3.9-3.23l1,4.7a2.16,2.16,0,0,0,1.05,1.7,4.65,4.65,0,0,0,2.1.4,4,4,0,0,0,4-3.95V331.94C346.08,331.4,346.06,330.86,346,330.33Zm-8.69,21.76a28,28,0,0,1-3.08,2.85,19.51,19.51,0,0,1-3.3,2.13,17.28,17.28,0,0,1-3.67,1.35,18.58,18.58,0,0,1-4.3.47,11.61,11.61,0,0,1-3.25-.43,6.79,6.79,0,0,1-2.6-1.35,6.48,6.48,0,0,1-1.75-2.39,8.36,8.36,0,0,1-.65-3.47,6.37,6.37,0,0,1,1.22-3.82,9.82,9.82,0,0,1,3.93-3,29.06,29.06,0,0,1,7-2,59.6,59.6,0,0,1,10.45-.78Z"/><path class="cc81d466-62a6-4e02-9112-09dd202824b8" d="M345.4,325.85c.11.45.19.91.27,1.38C345.59,326.76,345.5,326.3,345.4,325.85Z"/><path class="cc81d466-62a6-4e02-9112-09dd202824b8" d="M336.27,325.58c0-.11-.1-.22-.14-.33C336.18,325.36,336.23,325.47,336.27,325.58Z"/><path class="cc81d466-62a6-4e02-9112-09dd202824b8" d="M335.86,324.66c-.08-.15-.17-.3-.25-.45C335.69,324.36,335.78,324.51,335.86,324.66Z"/><path class="cc81d466-62a6-4e02-9112-09dd202824b8" d="M336.89,327.63l0-.16Z"/><path class="cc81d466-62a6-4e02-9112-09dd202824b8" d="M337.23,330v0Z"/><path class="cc81d466-62a6-4e02-9112-09dd202824b8" d="M336.62,326.57l-.08-.24Z"/><path class="cc81d466-62a6-4e02-9112-09dd202824b8" d="M337.09,328.76v0Z"/><path class="cc81d466-62a6-4e02-9112-09dd202824b8" d="M360.57,359.89a4.45,4.45,0,1,0,8.9,0V331.25h-8.9Z"/><path class="cc81d466-62a6-4e02-9112-09dd202824b8" d="M386.17,359.89a4.45,4.45,0,1,0,8.9,0V331.25h-8.9Z"/><path class="cc81d466-62a6-4e02-9112-09dd202824b8" d="M125.43,291.49a8.5,8.5,0,0,0-8.5,8.5v31.26h17V300A8.5,8.5,0,0,0,125.43,291.49Z"/><path class="cc81d466-62a6-4e02-9112-09dd202824b8" d="M194.62,291.49h-41.9a6.5,6.5,0,0,0,0,13h26.5l-18.73,26.76H179l20.13-28.76a9.69,9.69,0,0,0,1.17-2.35,7.88,7.88,0,0,0,.42-2.55A6.1,6.1,0,0,0,194.62,291.49Z"/><path class="cc81d466-62a6-4e02-9112-09dd202824b8" d="M226.78,319a5.28,5.28,0,0,1,.15-1.2V300a8.5,8.5,0,1,0-17,0v31.26h16.85Z"/><path class="cc81d466-62a6-4e02-9112-09dd202824b8" d="M295.29,329.27v0q-.08-.93-.21-1.82c0-.14-.05-.27-.07-.41-.08-.46-.16-.93-.26-1.37-.14-.59-.29-1.17-.47-1.73a16.6,16.6,0,0,0-3.33-6,14.1,14.1,0,0,0-5.3-3.72,18.73,18.73,0,0,0-7.12-1.28,20.43,20.43,0,0,0-4.92.6,16.41,16.41,0,0,0-4.58,1.9,16.14,16.14,0,0,0-3.87,3.3,15.85,15.85,0,0,0-2.77,4.75,16,16,0,0,0-4.58-7.7,12,12,0,0,0-8.33-2.85,14.77,14.77,0,0,0-8.08,2.2,26,26,0,0,0-6.27,5.65l-.65-5.2a2.27,2.27,0,0,0-2.4-1.85,5.35,5.35,0,0,0-5.3,5.3v12.26h8.9v-4.66a20.06,20.06,0,0,1,5.17-4.83A11.3,11.3,0,0,1,247,320q4.7,0,7.15,3a8.07,8.07,0,0,1,.55.77c.08.12.15.26.22.39s.17.3.25.45.17.38.26.58.1.23.15.35.17.48.25.73l.08.26c.08.28.16.58.22.88l0,.19q.1.5.18,1l0,.11q.08.57.13,1.17v0q.05.63.07,1.3h9c0-.39,0-.78.09-1.15l0-.14q.06-.5.14-1c0-.13.06-.26.08-.4s.1-.47.16-.7a11.19,11.19,0,0,1,.35-1.07,10.66,10.66,0,0,1,2.38-3.77,10.07,10.07,0,0,1,3.47-2.28,11.34,11.34,0,0,1,4.18-.77q4.95,0,7.55,3.08a8.6,8.6,0,0,1,.58.78c.08.12.16.26.23.39s.19.3.27.46.18.38.27.57.11.23.16.35.18.48.26.72l.09.27c.09.28.16.57.23.87l0,.19q.11.49.19,1l0,.11q.08.56.14,1.14v0q.05.62.08,1.27h8.9Q295.37,330.23,295.29,329.27Z"/><path class="cc81d466-62a6-4e02-9112-09dd202824b8" d="M346.05,331.25q0-1-.1-1.89h0q-.08-.91-.22-1.78c0-.12,0-.23-.07-.35-.08-.47-.16-.93-.27-1.38s-.29-1.15-.47-1.71a16.52,16.52,0,0,0-3.4-6,15.49,15.49,0,0,0-5.55-3.9,19.18,19.18,0,0,0-7.55-1.4,28,28,0,0,0-10.75,2,27.54,27.54,0,0,0-6.45,3.79,4,4,0,0,0-1,5.06l0,0a3.61,3.61,0,0,0,1.08,1.17,2.66,2.66,0,0,0,1.58.48,4,4,0,0,0,2.32-.83q1.17-.82,2.8-1.85a20.68,20.68,0,0,1,3.85-1.85,15.84,15.84,0,0,1,5.47-.83q5,0,7.48,3a8.46,8.46,0,0,1,.57.78c.08.13.16.27.24.4s.18.29.25.45.18.39.27.59.1.22.14.33.18.5.26.75l.08.24c.09.29.16.59.24.9l0,.16q.11.51.19,1v.09q.08.57.14,1.17v0q.05.62.07,1.29h8.75Z"/><path class="cc81d466-62a6-4e02-9112-09dd202824b8" d="M365,313.69a4.45,4.45,0,0,0-4.45,4.45v13.11h8.9V318.14A4.45,4.45,0,0,0,365,313.69Z"/><path class="cc81d466-62a6-4e02-9112-09dd202824b8" d="M369.55,293.27a6.54,6.54,0,0,0-2-1.37,6.1,6.1,0,0,0-2.45-.5,5.91,5.91,0,0,0-2.42.5,6.61,6.61,0,0,0-2,1.38,6.43,6.43,0,0,0-1.37,2.05,6.25,6.25,0,0,0-.5,2.48,5.89,5.89,0,0,0,.5,2.42,6.66,6.66,0,0,0,3.38,3.38,5.9,5.9,0,0,0,2.42.5,6.08,6.08,0,0,0,2.45-.5,6.51,6.51,0,0,0,2-1.37,7,7,0,0,0,1.4-2,5.65,5.65,0,0,0,.53-2.42,6,6,0,0,0-.53-2.48A6.81,6.81,0,0,0,369.55,293.27Z"/><path class="cc81d466-62a6-4e02-9112-09dd202824b8" d="M390.62,290.69a4.45,4.45,0,0,0-4.45,4.45v36.11h8.9V295.14A4.45,4.45,0,0,0,390.62,290.69Z"/></g></svg>