<svg id="77827ee2-b5cf-481b-8dd3-66a15db14fdf" data-name="Layer 1" xmlns="http://www.w3.org/2000/svg" viewBox="0 0 800 600"><defs><style>.b7676772-b6fe-42a7-92fd-b6b08d40417b{fill:#2c3e50;}.c4e7da6b-16f8-4348-9006-262e3022ff81{fill:#e74c3c;}.\37 c7f119f-3e05-4321-a39e-214df2d9fe35{fill:#f04849;}.d914d3bd-8dcc-4be8-9bc5-e69cdc29606b{fill:none;stroke:#fff;stroke-miterlimit:10;stroke-width:1.8px;}.\38 93ccc88-52e3-4cff-9c3c-a02f5173cde9{fill:#fff;}</style></defs><title>Artboard 1</title><path class="b7676772-b6fe-42a7-92fd-b6b08d40417b" d="M490.08,227.21l-.1.12Z"/><path class="b7676772-b6fe-42a7-92fd-b6b08d40417b" d="M484.87,234.53l-.19.29Z"/><path class="b7676772-b6fe-42a7-92fd-b6b08d40417b" d="M471.82,265.87l-.19.92Z"/><path class="b7676772-b6fe-42a7-92fd-b6b08d40417b" d="M471.37,268.08l-.18,1Z"/><path class="b7676772-b6fe-42a7-92fd-b6b08d40417b" d="M469.8,279.75c0,.43-.07.86-.1,1.29C469.73,280.6,469.76,280.17,469.8,279.75Z"/><path class="b7676772-b6fe-42a7-92fd-b6b08d40417b" d="M472.3,263.7l-.2.85Z"/><path class="b7676772-b6fe-42a7-92fd-b6b08d40417b" d="M470.3,275c0,.38-.09.77-.14,1.15C470.2,275.72,470.25,275.34,470.3,275Z"/><path class="b7676772-b6fe-42a7-92fd-b6b08d40417b" d="M470,277.33c0,.4-.08.81-.12,1.22C469.94,278.14,470,277.73,470,277.33Z"/><path class="b7676772-b6fe-42a7-92fd-b6b08d40417b" d="M470.61,272.62q-.08.55-.15,1.1Q470.53,273.17,470.61,272.62Z"/><path class="b7676772-b6fe-42a7-92fd-b6b08d40417b" d="M472.83,261.58l-.2.77Z"/><path class="b7676772-b6fe-42a7-92fd-b6b08d40417b" d="M471,270.33q-.09.52-.17,1Q470.88,270.85,471,270.33Z"/><path class="b7676772-b6fe-42a7-92fd-b6b08d40417b" d="M481.43,240.21l-.14.25Z"/><path class="b7676772-b6fe-42a7-92fd-b6b08d40417b" d="M479.38,244.07l0,0Z"/><path class="b7676772-b6fe-42a7-92fd-b6b08d40417b" d="M473.39,259.52l-.19.66Z"/><path class="b7676772-b6fe-42a7-92fd-b6b08d40417b" d="M482.53,238.3l-.17.29Z"/><path class="b7676772-b6fe-42a7-92fd-b6b08d40417b" d="M480.38,242.13l-.09.17Z"/><path class="b7676772-b6fe-42a7-92fd-b6b08d40417b" d="M474.56,255.72l-.07.21Z"/><path class="b7676772-b6fe-42a7-92fd-b6b08d40417b" d="M474,257.54l-.16.51Z"/><path class="b7676772-b6fe-42a7-92fd-b6b08d40417b" d="M483.68,236.41l-.18.3Z"/><path class="b7676772-b6fe-42a7-92fd-b6b08d40417b" d="M469.3,289.88q0,1.32,0,2.66Q469.28,291.2,469.3,289.88Z"/><path class="b7676772-b6fe-42a7-92fd-b6b08d40417b" d="M488.73,229l-.15.2Z"/><path class="b7676772-b6fe-42a7-92fd-b6b08d40417b" d="M305.69,218.54v2.39a72.44,72.44,0,0,1,6.16,6.06q-.7-.77-1.42-1.53h181c.89-1.11,1.81-2.23,2.76-3.34v-3.45c17.29-24.56,25.23-56.17,18.61-89.67-8.07-40.88-48.65-81.39-89.54-89.4-73.8-14.45-138.43,41.66-138.43,112.87A114.61,114.61,0,0,0,305.69,218.54Z"/><path class="b7676772-b6fe-42a7-92fd-b6b08d40417b" d="M469.36,287.28c0,.57,0,1.15,0,1.73C469.33,288.43,469.34,287.85,469.36,287.28Z"/><path class="b7676772-b6fe-42a7-92fd-b6b08d40417b" d="M469.46,284.72c0,.49,0,1-.06,1.49C469.42,285.72,469.44,285.22,469.46,284.72Z"/><path class="b7676772-b6fe-42a7-92fd-b6b08d40417b" d="M486.11,232.67l-.19.28Z"/><path class="b7676772-b6fe-42a7-92fd-b6b08d40417b" d="M487.4,230.83l-.17.24Z"/><path class="b7676772-b6fe-42a7-92fd-b6b08d40417b" d="M469.61,282.21c0,.45-.06.91-.08,1.36C469.55,283.12,469.58,282.67,469.61,282.21Z"/><path class="c4e7da6b-16f8-4348-9006-262e3022ff81" d="M400,562.69A25.78,25.78,0,0,0,425.66,537v-1.56C425.66,550.42,414.1,562.69,400,562.69Z"/><path class="c4e7da6b-16f8-4348-9006-262e3022ff81" d="M310.43,225.46q.73.76,1.42,1.53.92,1.09,1.87,2.16c14.17,17.16,16,37.48,16,63.38,0,30.13-4.67,46.93-23.9,71.54a94.68,94.68,0,0,0,68.46,86.75v.44h51.42v-.44c38.61-11,67.3-46.17,68.52-87.9-20.68-21.08-24.9-41-24.9-70.39q0-1.34,0-2.66c0-.3,0-.59,0-.88,0-.58,0-1.16,0-1.73,0-.36,0-.71,0-1.06s0-1,.06-1.49,0-.76.06-1.14.05-.91.08-1.36.06-.79.09-1.18.06-.86.1-1.29.07-.8.11-1.2.08-.81.12-1.22.09-.82.14-1.22.09-.77.14-1.15.11-.83.16-1.24.1-.73.15-1.1.12-.84.19-1.25.11-.7.17-1,.14-.85.22-1.27l.18-1q.12-.65.25-1.29l.19-.92c.09-.44.19-.88.29-1.32l.2-.85c.11-.45.21-.9.33-1.35l.2-.77c.12-.47.24-.94.37-1.4l.19-.66c.14-.49.28-1,.43-1.48l.16-.51c.17-.54.33-1.07.51-1.61l.07-.21a88.82,88.82,0,0,1,4.8-11.61l0,0q.44-.89.91-1.77l.09-.17q.44-.84.91-1.67l.14-.25q.45-.81.93-1.62l.17-.29q.47-.8,1-1.59l.18-.3q.49-.79,1-1.58l.19-.29q.52-.79,1.05-1.58l.19-.28q.55-.8,1.11-1.6l.17-.24q.58-.81,1.18-1.63l.15-.2q.62-.84,1.26-1.67l.1-.12q.68-.87,1.37-1.75h-181Z"/><path class="c4e7da6b-16f8-4348-9006-262e3022ff81" d="M374.25,535.42V537A25.78,25.78,0,0,0,400,562.69C385.82,562.69,374.25,550.42,374.25,535.42Z"/><path class="7c7f119f-3e05-4321-a39e-214df2d9fe35" d="M374.25,535.42c0,15,11.57,27.27,25.71,27.27h0c14.14,0,25.71-12.27,25.71-27.27V451.27H374.25Z"/><line class="d914d3bd-8dcc-4be8-9bc5-e69cdc29606b" x1="388.43" y1="160.43" x2="388.43" y2="131.01"/><polygon class="893ccc88-52e3-4cff-9c3c-a02f5173cde9" points="393.67 134.59 388.43 115.03 383.19 134.59 393.67 134.59"/><line class="d914d3bd-8dcc-4be8-9bc5-e69cdc29606b" x1="388.43" y1="160.43" x2="446.91" y2="160.43"/><polygon class="893ccc88-52e3-4cff-9c3c-a02f5173cde9" points="443.34 165.67 462.89 160.43 443.34 155.19 443.34 165.67"/><path class="893ccc88-52e3-4cff-9c3c-a02f5173cde9" d="M346,221.35a5,5,0,0,0,1.87.41,2.47,2.47,0,0,0,1.86-.72,2.93,2.93,0,0,0,.69-2.11,8.61,8.61,0,0,0-.26-2.13,38.49,38.49,0,0,0-1.83-5.23,40.06,40.06,0,0,1-2-5.83,14.15,14.15,0,0,1-.36-3.31q0-4,1.63-5.76a5.43,5.43,0,0,1,4.24-1.81,9.9,9.9,0,0,1,2.79.47v4.09A4.12,4.12,0,0,0,353,199a2.45,2.45,0,0,0-1.89.87,3.66,3.66,0,0,0-.78,2.52,9.07,9.07,0,0,0,.26,2.15,38.48,38.48,0,0,0,1.67,4.92,45.65,45.65,0,0,1,2.16,6.57,14,14,0,0,1,.34,3.15,7.07,7.07,0,0,1-1.7,5.09,5.65,5.65,0,0,1-4.26,1.78,10.12,10.12,0,0,1-2.77-.49Z"/><path class="893ccc88-52e3-4cff-9c3c-a02f5173cde9" d="M356.38,195.11h7.48v4.07h-3.09v9.68h3.09v4h-3.09v8.93h3.09v4h-7.48Z"/><path class="893ccc88-52e3-4cff-9c3c-a02f5173cde9" d="M368.42,195.11H372l1.42,17,1.61-17h3.56l3.21,30.7h-4.35l-1-14.94L374,225.81h-1.46l-2.16-14.94-1.19,14.94H365Z"/><path class="893ccc88-52e3-4cff-9c3c-a02f5173cde9" d="M390.19,195.11h4.39v13.75h2.23V195.11h4.39v30.7h-4.39v-13h-2.23v13h-4.39Z"/><path class="893ccc88-52e3-4cff-9c3c-a02f5173cde9" d="M403,210.86q0-8.89,2-12.9,1.55-3.09,3.87-3.09a3.56,3.56,0,0,1,2.11.75,6.68,6.68,0,0,1,1.91,2.7,19.69,19.69,0,0,1,1.34,5.22,50.32,50.32,0,0,1,.46,7q0,9.38-2.41,13.26-1.42,2.28-3.33,2.28-2.69,0-4.17-3.62A31.48,31.48,0,0,1,403,210.86Zm5.88-11.26a6.49,6.49,0,0,0-.78,1.82,19.89,19.89,0,0,0-.38,3.55q-.18,4-.18,6.35a44.94,44.94,0,0,0,.44,7.51,8.55,8.55,0,0,0,.9,2.58,8.93,8.93,0,0,0,.82-2.1,20.55,20.55,0,0,0,.32-3.55q.14-4.71.14-6.87a39.8,39.8,0,0,0-.42-6.93A7.36,7.36,0,0,0,408.89,199.6Z"/><path class="893ccc88-52e3-4cff-9c3c-a02f5173cde9" d="M416.54,195.11h2.35a8.83,8.83,0,0,1,6.43,2.24,8.35,8.35,0,0,1,2.3,6.27,8.53,8.53,0,0,1-.94,4,8,8,0,0,1-2.05,2.41,8.56,8.56,0,0,1,1.5,2,19.81,19.81,0,0,1,1.59,5.12,83.71,83.71,0,0,1,1,8.61H424.3A40.94,40.94,0,0,0,423,215.76a6.78,6.78,0,0,0-2.05-3.39v13.45h-4.39Zm4.74,4.43v8.83a3.26,3.26,0,0,0,1.66-1.61,6.93,6.93,0,0,0,0-5.66A3.23,3.23,0,0,0,421.29,199.54Z"/><path class="893ccc88-52e3-4cff-9c3c-a02f5173cde9" d="M433.19,194.87H438l3.43,30.94H437l-.22-5.52h-2.45l-.44,5.52H429.5Zm2.46,5.09h-.36q-.2,6.44-.3,8.25l-.46,8.08h1.92l-.33-6.23Z"/><path class="893ccc88-52e3-4cff-9c3c-a02f5173cde9" d="M442.34,221.35a5,5,0,0,0,1.87.41,2.47,2.47,0,0,0,1.86-.72,2.93,2.93,0,0,0,.69-2.11,8.61,8.61,0,0,0-.26-2.13,38.49,38.49,0,0,0-1.83-5.23,40.06,40.06,0,0,1-2-5.83,14.15,14.15,0,0,1-.36-3.31q0-4,1.63-5.76a5.43,5.43,0,0,1,4.24-1.81,9.9,9.9,0,0,1,2.79.47v4.09a4.12,4.12,0,0,0-1.67-.41,2.45,2.45,0,0,0-1.89.87,3.66,3.66,0,0,0-.78,2.52,9.07,9.07,0,0,0,.26,2.15,38.48,38.48,0,0,0,1.67,4.92,45.65,45.65,0,0,1,2.16,6.57,14,14,0,0,1,.34,3.15,7.07,7.07,0,0,1-1.7,5.09,5.65,5.65,0,0,1-4.26,1.78,10.12,10.12,0,0,1-2.77-.49Z"/><path class="893ccc88-52e3-4cff-9c3c-a02f5173cde9" d="M335.78,241.4h2.77a8,8,0,0,1,6,2.23,8.46,8.46,0,0,1,2.21,6.22,8.17,8.17,0,0,1-2.89,6.63,7.32,7.32,0,0,1,2.35,2.41,9,9,0,0,1,1.1,4.58,10.26,10.26,0,0,1-1.06,4.73,7.21,7.21,0,0,1-2.66,2.72,8.21,8.21,0,0,1-4.47,1.18h-3.33Zm4.39,4.43v8.59q2.17-.94,2.17-4.27a6,6,0,0,0-.82-3.27A2.2,2.2,0,0,0,340.17,245.83Zm0,13.05v8.8a3.34,3.34,0,0,0,1.83-1.4,4.93,4.93,0,0,0,.74-2.83,5.5,5.5,0,0,0-.69-2.74A4.4,4.4,0,0,0,340.17,258.88Z"/><path class="893ccc88-52e3-4cff-9c3c-a02f5173cde9" d="M348.6,257.15q0-8.89,2-12.9,1.55-3.09,3.87-3.09a3.57,3.57,0,0,1,2.11.75,6.68,6.68,0,0,1,1.91,2.7,19.68,19.68,0,0,1,1.34,5.22,50.32,50.32,0,0,1,.46,7q0,9.38-2.41,13.26-1.42,2.28-3.33,2.28-2.69,0-4.17-3.62A31.48,31.48,0,0,1,348.6,257.15Zm5.88-11.26a6.5,6.5,0,0,0-.78,1.82,19.89,19.89,0,0,0-.38,3.55q-.18,4-.18,6.35a44.94,44.94,0,0,0,.44,7.51,8.55,8.55,0,0,0,.9,2.58,8.93,8.93,0,0,0,.82-2.1,20.54,20.54,0,0,0,.32-3.55q.14-4.71.14-6.87a39.8,39.8,0,0,0-.42-6.93A7.36,7.36,0,0,0,354.48,245.88Z"/><path class="893ccc88-52e3-4cff-9c3c-a02f5173cde9" d="M359.44,241.4H370v4h-3.07V272.1h-4.39V245.41h-3.09Z"/><path class="893ccc88-52e3-4cff-9c3c-a02f5173cde9" d="M371.94,241.4h10.55v4h-3.07V272.1H375V245.41h-3.09Z"/><path class="893ccc88-52e3-4cff-9c3c-a02f5173cde9" d="M384,241.4h4.39V268H391v4.09H384Z"/><path class="893ccc88-52e3-4cff-9c3c-a02f5173cde9" d="M392.55,241.4H400v4.07h-3.09v9.68H400v4h-3.09v8.93H400v4h-7.48Z"/><path class="893ccc88-52e3-4cff-9c3c-a02f5173cde9" d="M407.5,267.64a5,5,0,0,0,1.87.41,2.46,2.46,0,0,0,1.86-.72,2.93,2.93,0,0,0,.69-2.11,8.61,8.61,0,0,0-.26-2.13,38.49,38.49,0,0,0-1.83-5.23,40,40,0,0,1-2-5.83,14.15,14.15,0,0,1-.36-3.31q0-4,1.63-5.76a5.43,5.43,0,0,1,4.24-1.81,9.91,9.91,0,0,1,2.79.47v4.09a4.12,4.12,0,0,0-1.67-.41,2.45,2.45,0,0,0-1.89.87,3.66,3.66,0,0,0-.78,2.52,9.07,9.07,0,0,0,.26,2.15,38.48,38.48,0,0,0,1.67,4.92,45.66,45.66,0,0,1,2.16,6.57,14,14,0,0,1,.34,3.15,7.07,7.07,0,0,1-1.7,5.09,5.65,5.65,0,0,1-4.26,1.78,10.12,10.12,0,0,1-2.77-.49Z"/><path class="893ccc88-52e3-4cff-9c3c-a02f5173cde9" d="M417.25,241.4H427.8v4h-3.07V272.1h-4.39V245.41h-3.09Z"/><path class="893ccc88-52e3-4cff-9c3c-a02f5173cde9" d="M427.44,257.15q0-8.89,2-12.9,1.55-3.09,3.87-3.09a3.57,3.57,0,0,1,2.11.75,6.68,6.68,0,0,1,1.91,2.7,19.68,19.68,0,0,1,1.34,5.22,50.32,50.32,0,0,1,.46,7q0,9.38-2.41,13.26-1.42,2.28-3.33,2.28-2.69,0-4.17-3.62A31.48,31.48,0,0,1,427.44,257.15Zm5.88-11.26a6.5,6.5,0,0,0-.78,1.82,19.89,19.89,0,0,0-.38,3.55q-.18,4-.18,6.35a44.94,44.94,0,0,0,.44,7.51,8.55,8.55,0,0,0,.9,2.58,8.93,8.93,0,0,0,.82-2.1,20.54,20.54,0,0,0,.32-3.55q.14-4.71.14-6.87a39.8,39.8,0,0,0-.42-6.93A7.36,7.36,0,0,0,433.32,245.88Z"/><path class="893ccc88-52e3-4cff-9c3c-a02f5173cde9" d="M441,241.4h2.35a8.83,8.83,0,0,1,6.43,2.24,8.35,8.35,0,0,1,2.3,6.27,8.53,8.53,0,0,1-.94,4,8,8,0,0,1-2.05,2.41,8.55,8.55,0,0,1,1.5,2,19.81,19.81,0,0,1,1.59,5.12,83.71,83.71,0,0,1,1,8.61h-4.43A41,41,0,0,0,447.41,262a6.78,6.78,0,0,0-2.05-3.39V272.1H441Zm4.74,4.43v8.83a3.26,3.26,0,0,0,1.66-1.61,6.93,6.93,0,0,0,0-5.66A3.23,3.23,0,0,0,445.72,245.83Z"/><path class="893ccc88-52e3-4cff-9c3c-a02f5173cde9" d="M454.59,241.4h7.48v4.07H459v9.68h3.09v4H459v8.93h3.09v4h-7.48Z"/></svg>