<svg id="78016633-79c4-43c6-8c7a-88f72ba67f11" data-name="Camada 1" xmlns="http://www.w3.org/2000/svg" viewBox="0 0 1200 1200"><defs><style>.a6e77b6d-f8ff-4123-ae32-1468dd70b2d1{fill:#2980b9;}.\37 00f5e06-74fa-43a4-ab9f-d746bb5d7b74{fill:#fff;}.e5759c05-f9e3-4d09-a388-2d504c74e7fd{fill:#444;opacity:0.1;}</style></defs><title>Prancheta 1</title><g id="5eda61d7-9622-423f-ac7d-b733c440073a" data-name="&lt;Group&gt;"><polygon id="e701400d-635a-4321-a198-8b3390b802bd" data-name="&lt;Path&gt;" class="a6e77b6d-f8ff-4123-ae32-1468dd70b2d1" points="888.29 648.01 888.24 657.49 881.87 661.15 446.46 912.54 446.46 406.62 451.49 395.83 509.91 429.56 509.92 429.56 830.23 614.5 888.29 648.01"/><g id="81960402-e2d3-426b-8f37-dcb91c275888" data-name="&lt;Group&gt;"><polygon id="8700dc94-314c-41a3-a84b-2d0c4314a000" data-name="&lt;Path&gt;" class="a6e77b6d-f8ff-4123-ae32-1468dd70b2d1" points="315.99 392.93 765.99 652.74 315.99 912.54 315.99 392.93"/><path id="955bf10f-1ee6-46fa-b765-9742cec5acef" data-name="&lt;Compound Path&gt;" class="700f5e06-74fa-43a4-ab9f-d746bb5d7b74" d="M446.46,460.18,309,380.81V924.67L446.46,845.3,780,652.74ZM323,405.06l123.47,71.28L752,652.74,446.46,829.14,323,900.43Z"/></g></g><polygon class="a6e77b6d-f8ff-4123-ae32-1468dd70b2d1" points="451.49 395.83 446.46 406.62 486.88 430.25 497.66 436.55 509.91 429.56 509.92 429.56 832.23 245.79 830.23 614.5 830.14 630.91 840.92 637.22 881.87 661.15 888.24 657.49 888.29 648.01 891.01 145.25 451.49 395.83"/><ellipse id="776d6f92-add6-4b53-885d-2b4724404ef9" data-name="&lt;Path&gt;" class="e5759c05-f9e3-4d09-a388-2d504c74e7fd" cx="600" cy="1036.95" rx="311.56" ry="17.81"/></svg>