<svg id="c6639ac7-441a-4a3b-bbe0-ada511c71995" data-name="Layer 1" xmlns="http://www.w3.org/2000/svg" viewBox="0 0 512 512"><defs><style>.dcd2022c-e0b8-41e0-8be4-72e96ff1f5dd{fill:#009688;}.\37 61379f6-08e9-4ddf-8d2e-f70307d6a96b{fill:#0c6b62;}</style></defs><title>Artboard 1</title><g id="92fb0213-601c-4310-a0dc-aef4211df62d" data-name="logo"><path class="dcd2022c-e0b8-41e0-8be4-72e96ff1f5dd" d="M256,88.4c-106.2,0-192.3,86.09-192.3,192.3A191.68,191.68,0,0,0,119,415.62q.45-8.29.92-16.82,2-35.39,4.3-70.58t5.38-67.72q1.21-13,2.52-25c2.09-19.25,17.45-33.77,35.71-33.77,13.65,0,26.1,8.2,32.19,21.15q2.21,4.7,4.57,9.86,8.44,18.46,17.62,39.95t18.16,43.95l16.89,42.21L256,355.71Z"/><path class="761379f6-08e9-4ddf-8d2e-f70307d6a96b" d="M256,88.4V355.71l1.25,3.12,16.91-42.21q9-22.45,18.15-43.95t17.62-39.95q2.63-5.76,5.07-10.93c5.81-12.31,17.67-20.07,30.65-20.07a33.11,33.11,0,0,1,22.8,9.22,37.16,37.16,0,0,1,11.25,23q1.4,12.71,2.7,26.57,3,32.53,5.38,67.72t4.3,70.58q.48,8.53.91,16.81A191.64,191.64,0,0,0,448.3,280.7C448.3,174.49,362.2,88.4,256,88.4Z"/></g><path class="dcd2022c-e0b8-41e0-8be4-72e96ff1f5dd" d="M131.12,382.61q.87,1.58,2,3.91t2.36,5q1.23,2.71,2.43,5.54l2.26,5.33,2.26-5.33q1.2-2.83,2.43-5.54t2.36-5q1.13-2.33,2-3.91H156q.48,3.31.89,7.42t.72,8.54q.31,4.44.58,8.9t.46,8.4h-7.3q-.14-4.85-.38-10.56t-.72-11.52l-1.93,4.46q-1.06,2.45-2.09,4.9t-2,4.68l-1.64,3.82h-5.23l-1.64-3.82q-1-2.23-2-4.68t-2.09-4.9l-1.93-4.46q-.48,5.81-.72,11.52t-.38,10.56h-7.3q.19-3.93.46-8.4t.58-8.9q.31-4.44.72-8.54t.89-7.42Z"/><path class="dcd2022c-e0b8-41e0-8be4-72e96ff1f5dd" d="M173.93,390a16.58,16.58,0,0,1,5.28.72,8.22,8.22,0,0,1,3.38,2.06,7.6,7.6,0,0,1,1.8,3.26,16.12,16.12,0,0,1,.53,4.27v14.88q-1.54.34-4.27.79a41.08,41.08,0,0,1-6.62.46,21,21,0,0,1-4.44-.43,9.64,9.64,0,0,1-3.43-1.42,6.47,6.47,0,0,1-2.21-2.57,8.86,8.86,0,0,1-.77-3.89,7.37,7.37,0,0,1,.89-3.74,6.83,6.83,0,0,1,2.38-2.45,10.76,10.76,0,0,1,3.41-1.32,19.15,19.15,0,0,1,4-.41,22.85,22.85,0,0,1,2.47.12,11,11,0,0,1,1.75.31v-.67A4,4,0,0,0,177,397q-1.1-1.1-3.84-1.1a24.47,24.47,0,0,0-3.6.26,15.54,15.54,0,0,0-3.07.74l-.91-5.76q.62-.19,1.56-.41t2-.38q1.1-.17,2.33-.29T173.93,390Zm.58,20.93q1.06,0,2,0a13.77,13.77,0,0,0,1.54-.14v-5.42q-.43-.1-1.3-.19a14.58,14.58,0,0,0-1.58-.1,14.32,14.32,0,0,0-1.9.12,5,5,0,0,0-1.56.46,2.68,2.68,0,0,0-1.06.91,2.54,2.54,0,0,0-.38,1.44,2.45,2.45,0,0,0,1.13,2.33A6.23,6.23,0,0,0,174.51,410.88Z"/><path class="dcd2022c-e0b8-41e0-8be4-72e96ff1f5dd" d="M191.4,391.49a40.08,40.08,0,0,1,4.7-1,38.69,38.69,0,0,1,6-.46,14.74,14.74,0,0,1,5.35.84,8.05,8.05,0,0,1,3.38,2.38,9.27,9.27,0,0,1,1.78,3.65,19.43,19.43,0,0,1,.53,4.7v14.26H206V402.48a9.65,9.65,0,0,0-.91-4.9q-.91-1.44-3.41-1.44-.77,0-1.63.07t-1.54.17v19.49H191.4Z"/><path class="dcd2022c-e0b8-41e0-8be4-72e96ff1f5dd" d="M227.5,383.33a3.93,3.93,0,0,1-1.27,3.1,4.55,4.55,0,0,1-6,0,4.4,4.4,0,0,1,0-6.19,4.55,4.55,0,0,1,6,0A3.93,3.93,0,0,1,227.5,383.33Zm-.67,32.54h-7.15V390.62h7.15Z"/><path class="dcd2022c-e0b8-41e0-8be4-72e96ff1f5dd" d="M233.55,391.49a40.08,40.08,0,0,1,4.7-1,38.69,38.69,0,0,1,6-.46,14.74,14.74,0,0,1,5.35.84,8.05,8.05,0,0,1,3.38,2.38,9.27,9.27,0,0,1,1.78,3.65,19.43,19.43,0,0,1,.53,4.7v14.26h-7.15V402.48a9.65,9.65,0,0,0-.91-4.9q-.91-1.44-3.41-1.44-.77,0-1.63.07t-1.54.17v19.49h-7.15Z"/><path class="dcd2022c-e0b8-41e0-8be4-72e96ff1f5dd" d="M283.61,412.7q0,6.19-3.14,9.19t-9.72,3a26.41,26.41,0,0,1-4.61-.41,28.82,28.82,0,0,1-4.27-1.08l1.25-6a21,21,0,0,0,3.53,1.06,20.75,20.75,0,0,0,4.2.38q3.07,0,4.34-1.34a4.82,4.82,0,0,0,1.27-3.46v-.91a11.41,11.41,0,0,1-2.38.79,12.59,12.59,0,0,1-2.66.26q-5.23,0-8-3.1t-2.78-8.66a14.19,14.19,0,0,1,.86-5.06,10.79,10.79,0,0,1,2.52-3.91,11.23,11.23,0,0,1,4.06-2.52,15.55,15.55,0,0,1,5.42-.89q1.29,0,2.66.12t2.71.31q1.34.19,2.57.46t2.18.55Zm-15.7-10.27q0,6,4.85,6a7.18,7.18,0,0,0,2.06-.29,7.83,7.83,0,0,0,1.63-.67V396q-.53-.1-1.25-.17t-1.68-.07a4.92,4.92,0,0,0-4.22,1.87A7.74,7.74,0,0,0,267.91,402.43Z"/><path class="761379f6-08e9-4ddf-8d2e-f70307d6a96b" d="M315.48,382.61V389h-10v26.88H298V389h-10v-6.38Z"/><path class="761379f6-08e9-4ddf-8d2e-f70307d6a96b" d="M315,403.44a15.43,15.43,0,0,1,1-5.88,12.58,12.58,0,0,1,2.71-4.2,11.26,11.26,0,0,1,3.86-2.54,12.1,12.1,0,0,1,4.49-.86,11.16,11.16,0,0,1,8.5,3.29q3.12,3.29,3.12,9.67,0,.62,0,1.37t-.1,1.32H322.35a4.75,4.75,0,0,0,2.06,3.5,8.3,8.3,0,0,0,4.9,1.3,20.66,20.66,0,0,0,3.86-.36,14.57,14.57,0,0,0,3.1-.89l1,5.81a9.88,9.88,0,0,1-1.54.58,19.92,19.92,0,0,1-2.14.5q-1.18.22-2.52.36a25.31,25.31,0,0,1-2.69.14,15.91,15.91,0,0,1-5.93-1,11.54,11.54,0,0,1-4.18-2.76,11,11,0,0,1-2.45-4.15A16.44,16.44,0,0,1,315,403.44Zm16.8-2.74a7.46,7.46,0,0,0-.31-1.78,4.48,4.48,0,0,0-.82-1.54,4.37,4.37,0,0,0-1.39-1.1,4.54,4.54,0,0,0-2.09-.43,4.8,4.8,0,0,0-2.06.41,4.29,4.29,0,0,0-1.44,1.08,4.85,4.85,0,0,0-.89,1.56,10.22,10.22,0,0,0-.46,1.8Z"/><path class="761379f6-08e9-4ddf-8d2e-f70307d6a96b" d="M343,403.25a14.87,14.87,0,0,1,.89-5.16,12.08,12.08,0,0,1,6.65-7.08A13.47,13.47,0,0,1,356,390a17.66,17.66,0,0,1,3.7.36,18,18,0,0,1,3.26,1l-1.49,5.71a18.3,18.3,0,0,0-2.21-.67,11.57,11.57,0,0,0-2.69-.29,5.67,5.67,0,0,0-4.73,2,8.1,8.1,0,0,0-1.56,5.18,8.39,8.39,0,0,0,1.46,5.28q1.46,1.87,5.11,1.87a17.52,17.52,0,0,0,2.78-.24,11.82,11.82,0,0,0,2.74-.77l1,5.86a16.79,16.79,0,0,1-3.12.91,20.6,20.6,0,0,1-4.13.38,15.52,15.52,0,0,1-6-1,11.19,11.19,0,0,1-4.1-2.81,10.94,10.94,0,0,1-2.35-4.2A17.79,17.79,0,0,1,343,403.25Z"/><path class="761379f6-08e9-4ddf-8d2e-f70307d6a96b" d="M368.23,415.87v-36.1l7.15-1.15v12.1a15.06,15.06,0,0,1,1.85-.46,11.63,11.63,0,0,1,2.18-.22,13.51,13.51,0,0,1,5.11.84,8,8,0,0,1,3.26,2.38,9.2,9.2,0,0,1,1.73,3.65,20.29,20.29,0,0,1,.5,4.7v14.26h-7.15V402.48a9.87,9.87,0,0,0-.89-4.9,3.55,3.55,0,0,0-3.29-1.44,9.14,9.14,0,0,0-1.8.17q-.84.17-1.51.36v19.2Z"/></svg>