<svg xmlns="http://www.w3.org/2000/svg" viewBox="0 0 512 512"><defs><style>.\36 ec5d7db-5428-42a4-a557-2511c5887daa{fill:#00838f;}.\37 f142f26-f1fa-450c-b782-ec9a9180e32b{fill:#fff;}.\34 ede4720-7250-4eb6-b6b8-8c6ba0e91398{fill:none;stroke:#00838f;stroke-miterlimit:10;stroke-width:0.8px;}</style></defs><title>Artboard 2</title><g id="dbd135e4-0a9d-4b06-83c4-454edd3898b1" data-name="Layer 2"><rect class="6ec5d7db-5428-42a4-a557-2511c5887daa" x="207.5" y="197.25" width="283.5" height="117.5"/><path class="6ec5d7db-5428-42a4-a557-2511c5887daa" d="M62.3,264.22v8.15H57.65v.05a16,16,0,0,1-6.37-1.27,16.34,16.34,0,0,1-8.7-8.7,16,16,0,0,1-1.27-6.37v-21H36.65l3.5-5.85H46l0,.05h3.55v26.8a7.78,7.78,0,0,0,.65,3.17,8.5,8.5,0,0,0,4.38,4.38,7.78,7.78,0,0,0,3.18.65v-.05Z"/><path class="6ec5d7db-5428-42a4-a557-2511c5887daa" d="M93.6,254.87v17.4H85.45v-2.7a17.49,17.49,0,0,1-4.4,2,17.5,17.5,0,0,1-11.7-.67,17.85,17.85,0,0,1-5.58-3.73A17.35,17.35,0,0,1,60,261.62,17.5,17.5,0,0,1,60,248a17.49,17.49,0,0,1,9.33-9.33,17.5,17.5,0,0,1,13.6,0,17.38,17.38,0,0,1,5.55,3.75A17.89,17.89,0,0,1,92.23,248a17,17,0,0,1,1.38,6.8Zm-17.45,9.25a9.08,9.08,0,0,0,3.6-.72,9.39,9.39,0,0,0,5-5,9,9,0,0,0,.73-3.62,9.21,9.21,0,0,0-.73-3.65,9.39,9.39,0,0,0-5-5,9.42,9.42,0,0,0-7.25,0,9.39,9.39,0,0,0-4.95,5,9.2,9.2,0,0,0-.73,3.65,9.07,9.07,0,0,0,.73,3.6,9.39,9.39,0,0,0,4.95,5A9,9,0,0,0,76.15,264.12Z"/><path class="6ec5d7db-5428-42a4-a557-2511c5887daa" d="M114,237.37a19.58,19.58,0,0,1,7.13,1.25,15.44,15.44,0,0,1,9.08,9.08,19.58,19.58,0,0,1,1.25,7.13,18.07,18.07,0,0,1-1.25,6.67,17,17,0,0,1-3.55,5.58,17.17,17.17,0,0,1-5.52,3.83,17.44,17.44,0,0,1-7.12,1.42,13.81,13.81,0,0,1-2.42-.2,10.34,10.34,0,0,1-2.2-.65,19.21,19.21,0,0,1-2.2-1.1q-1.12-.65-2.42-1.55v14H96.5V243.22H91.9l3.5-5.85h9.35v2.4a13.68,13.68,0,0,1,2.42-1.37,12,12,0,0,1,2.2-.7,13.74,13.74,0,0,1,2.2-.27Q112.7,237.38,114,237.37Zm0,26.8a9.22,9.22,0,0,0,3.92-.8,9,9,0,0,0,2.93-2.12,9.61,9.61,0,0,0,1.85-3,9.4,9.4,0,0,0,.65-3.42,9.33,9.33,0,0,0-12.75-8.7,9.39,9.39,0,0,0-3,1.85,9.11,9.11,0,0,0-2.1,3,9.28,9.28,0,0,0-.8,3.9,7.87,7.87,0,0,0,.8,3.42,11,11,0,0,0,2.1,3,10.54,10.54,0,0,0,3,2.13A7.7,7.7,0,0,0,114,264.18Z"/><path class="6ec5d7db-5428-42a4-a557-2511c5887daa" d="M163.25,237.28v34.9H155.1V271a9.92,9.92,0,0,1-3.5,1q-1.75.15-3.5.15a13.91,13.91,0,0,1-5.77-1.23,16,16,0,0,1-8.1-8.1,13.92,13.92,0,0,1-1.22-5.77v-19.8h8.15v19.8a5.82,5.82,0,0,0,.6,2.55,8.08,8.08,0,0,0,3.8,3.8,5.83,5.83,0,0,0,2.55.6,6,6,0,0,0,2.58-.6,7.93,7.93,0,0,0,2.25-1.58,8,8,0,0,0,1.58-2.23,5.83,5.83,0,0,0,.6-2.55v-19.8Z"/><path class="6ec5d7db-5428-42a4-a557-2511c5887daa" d="M187,237.32a15.27,15.27,0,0,1,5.13.88,11.13,11.13,0,0,1,4.23,2.63l-5.85,5.85a3.41,3.41,0,0,0-1.77-1.05,10.24,10.24,0,0,0-1.73-.15,8.37,8.37,0,0,0-3.25.63,7.7,7.7,0,0,0-2.57,1.73,8.16,8.16,0,0,0-1.7,2.6,8.36,8.36,0,0,0-.62,3.25v18.65h-8.2V243.18H166l3.5-5.85h9.35v2.35a20.57,20.57,0,0,1,1.9-.87q1.05-.42,2.15-.75t2.15-.52A10.5,10.5,0,0,1,187,237.32Z"/><path class="7f142f26-f1fa-450c-b782-ec9a9180e32b" d="M235,237.35a17.13,17.13,0,0,1,6.77,1.35A17.31,17.31,0,0,1,251,248a17.67,17.67,0,0,1,0,13.55,17.38,17.38,0,0,1-3.73,5.55,17.73,17.73,0,0,1-5.55,3.75A16.86,16.86,0,0,1,235,272.2a17,17,0,0,1-6.8-1.37,17.35,17.35,0,0,1-5.55-3.75,17.93,17.93,0,0,1-3.73-5.55,16.86,16.86,0,0,1-1.37-6.77V231.5h8.15V240a16.68,16.68,0,0,1,4.35-2A17.26,17.26,0,0,1,235,237.35Zm0,26.7a9.08,9.08,0,0,0,3.6-.72,9.39,9.39,0,0,0,5-5,9.42,9.42,0,0,0,0-7.25,9.39,9.39,0,0,0-5-5,9.37,9.37,0,0,0-7.22,0,9.45,9.45,0,0,0-5,5,9.42,9.42,0,0,0,0,7.25,9.45,9.45,0,0,0,5,5A9,9,0,0,0,235,264Z"/><path class="7f142f26-f1fa-450c-b782-ec9a9180e32b" d="M284.1,237.2v34.9h-8.15V271a9.92,9.92,0,0,1-3.5,1q-1.75.15-3.5.15a13.91,13.91,0,0,1-5.77-1.23,16,16,0,0,1-8.1-8.1,13.92,13.92,0,0,1-1.22-5.77V237.2H262V257a5.82,5.82,0,0,0,.6,2.55,8.09,8.09,0,0,0,3.8,3.8,5.83,5.83,0,0,0,2.55.6,6,6,0,0,0,2.58-.6,7.94,7.94,0,0,0,2.25-1.58,8,8,0,0,0,1.58-2.23,5.84,5.84,0,0,0,.6-2.55V237.2Z"/><path class="7f142f26-f1fa-450c-b782-ec9a9180e32b" d="M307.85,237.25a15.28,15.28,0,0,1,5.13.88,11.14,11.14,0,0,1,4.22,2.63l-5.85,5.85a3.41,3.41,0,0,0-1.78-1.05,10.24,10.24,0,0,0-1.72-.15,8.36,8.36,0,0,0-3.25.63,7.7,7.7,0,0,0-2.58,1.73,8.15,8.15,0,0,0-1.7,2.6,8.36,8.36,0,0,0-.62,3.25v18.65h-8.2V243.1h-4.65l3.5-5.85h9.35v2.35a20.52,20.52,0,0,1,1.9-.87q1-.42,2.15-.75t2.15-.52A10.51,10.51,0,0,1,307.85,237.25Z"/><path class="7f142f26-f1fa-450c-b782-ec9a9180e32b" d="M342.55,237.2v34.9H334.4V271a9.92,9.92,0,0,1-3.5,1q-1.75.15-3.5.15a13.91,13.91,0,0,1-5.77-1.23,16,16,0,0,1-8.1-8.1A13.91,13.91,0,0,1,312.3,257V237.2h8.15V257a5.82,5.82,0,0,0,.6,2.55,8.09,8.09,0,0,0,3.8,3.8,5.83,5.83,0,0,0,2.55.6,6,6,0,0,0,2.58-.6,7.94,7.94,0,0,0,2.25-1.58,8,8,0,0,0,1.58-2.23,5.84,5.84,0,0,0,.6-2.55V237.2Z"/><path class="7f142f26-f1fa-450c-b782-ec9a9180e32b" d="M376.65,264.1l-4.9,8.15h-25.8l15.7-26.8h-14.8l4.9-8.2h24L360,264.1Z"/><path class="7f142f26-f1fa-450c-b782-ec9a9180e32b" d="M413.2,254.8v17.4H405v-2.7a17.48,17.48,0,0,1-4.4,2,17.5,17.5,0,0,1-11.7-.67,17.85,17.85,0,0,1-5.58-3.73,17.36,17.36,0,0,1-3.75-5.55,17.5,17.5,0,0,1,0-13.6,17.49,17.49,0,0,1,9.33-9.33,17.5,17.5,0,0,1,13.6,0,17.39,17.39,0,0,1,5.55,3.75,17.89,17.89,0,0,1,3.72,5.58,17.05,17.05,0,0,1,1.38,6.8ZM395.75,264a9.08,9.08,0,0,0,3.6-.72,9.39,9.39,0,0,0,5-5,9,9,0,0,0,.72-3.62,9.22,9.22,0,0,0-.72-3.65,9.39,9.39,0,0,0-5-5,9.42,9.42,0,0,0-7.25,0,9.39,9.39,0,0,0-5,5,9.2,9.2,0,0,0-.72,3.65,9.08,9.08,0,0,0,.72,3.6,9.39,9.39,0,0,0,5,5A9,9,0,0,0,395.75,264Z"/><path class="7f142f26-f1fa-450c-b782-ec9a9180e32b" d="M442.85,237.35H451V266.5a15.44,15.44,0,0,1-1.3,6.3,17.1,17.1,0,0,1-3.5,5.18,16.14,16.14,0,0,1-5.17,3.5,15.89,15.89,0,0,1-6.33,1.27V274.6a7.77,7.77,0,0,0,4.33-1.25,8.58,8.58,0,0,0,3-3.25,19.6,19.6,0,0,1-4,1.57,16.85,16.85,0,0,1-4.42.58,17,17,0,0,1-6.8-1.37,17.31,17.31,0,0,1-9.28-9.27,17,17,0,0,1-1.37-6.8,16.51,16.51,0,0,1,1.2-6.32,18.25,18.25,0,0,1,3.3-5.27h-3.35l3.45-5.85h12.85a16.17,16.17,0,0,1,2.38.17,17.56,17.56,0,0,1,2.22.48v8.75a11.3,11.3,0,0,0-2.15-.9,8.39,8.39,0,0,0-2.45-.35,9.09,9.09,0,0,0-3.6.73,9.35,9.35,0,0,0-3,2,9.72,9.72,0,0,0-2,3,8.82,8.82,0,0,0-.75,3.6,8.94,8.94,0,0,0,.75,3.65,9.71,9.71,0,0,0,2,3,9.33,9.33,0,0,0,3,2,9.3,9.3,0,0,0,7.2,0,9.32,9.32,0,0,0,5-5,9.22,9.22,0,0,0,.72-3.65Z"/><path class="7f142f26-f1fa-450c-b782-ec9a9180e32b" d="M456.2,237.4v-8.15h8.15v8.15Zm0,34.85V239.9h8.15v32.35Z"/><rect class="4ede4720-7250-4eb6-b6b8-8c6ba0e91398" x="20.5" y="197.25" width="471" height="117.5"/></g></svg>